<?xml version="1.0" encoding="UTF-8"?>
<svg width="104px" height="84px" viewBox="0 0 104 84" version="1.1" xmlns="http://www.w3.org/2000/svg" xmlns:xlink="http://www.w3.org/1999/xlink">
    <!-- Generator: Sketch 46 (44423) - http://www.bohemiancoding.com/sketch -->
    <title>baby-17</title>
    <desc>Created with Sketch.</desc>
    <defs></defs>
    <g id="ALL" stroke="none" stroke-width="1" fill="none" fill-rule="evenodd" stroke-linecap="round" stroke-linejoin="round">
        <g id="Secondary" transform="translate(-5780.000000, -8404.000000)" stroke="#868E96" stroke-width="3.5">
            <g id="baby-17" transform="translate(5782.000000, 8406.000000)">
                <path d="M89.9460701,33.2253862 C86.7092311,14.3604358 70.1859851,0 50.2892746,0 C30.3173118,0 13.7443796,14.4692678 10.5963232,33.439629 C9.66295988,33.0284311 8.63000634,32.8 7.54339119,32.8 C3.37729127,32.8 0,36.1578644 0,40.3 C0,44.4421356 3.37729127,47.8 7.54339119,47.8 C8.66757844,47.8 9.73432897,47.5554987 10.6927833,47.1170632 C14.0696937,65.8130767 30.5131322,80 50.2892746,80 C69.987302,80 86.3789017,65.9249308 89.8451389,47.338397 C90.658863,47.6369534 91.5385849,47.8 92.4566088,47.8 C96.6227087,47.8 100,44.4421356 100,40.3 C100,36.1578644 96.6227087,32.8 92.4566088,32.8 C91.5764153,32.8 90.731432,32.9498857 89.9460701,33.2253862 L89.9460701,33.2253862 Z" id="Layer-1"></path>
                <path d="M60.8,60.8 C60.8,54.6144108 55.7855892,49.6 49.6,49.6 C43.4144108,49.6 38.4,54.6144108 38.4,60.8" id="Layer-2"></path>
                <path d="M50.8625482,13.8169729 C56.5252296,11.2811134 53.684254,5.86667949 50.0606727,5.86667999 C46.7134994,5.86668045 44,8.58004613 44,11.9272194 C44,15.9439073 47.2561726,19.1999467 51.2727273,19.1999467 C56.0926995,19.1999467 60,15.2926462 60,10.472674 C60,4.688734 55.311266,0 49.527326,0" id="Layer-3"></path>
                <path d="M30,35.6 L40.9657386,30.7263384" id="Layer-4"></path>
                <path d="M69.3657386,35.2736616 L58.4,30.4" id="Layer-5"></path>
            </g>
        </g>
    </g>
</svg>