<?xml version="1.0" encoding="UTF-8"?>
<svg width="104px" height="103px" viewBox="0 0 104 103" version="1.1" xmlns="http://www.w3.org/2000/svg" xmlns:xlink="http://www.w3.org/1999/xlink">
    <!-- Generator: Sketch 46 (44423) - http://www.bohemiancoding.com/sketch -->
    <title>baby-32</title>
    <desc>Created with Sketch.</desc>
    <defs></defs>
    <g id="ALL" stroke="none" stroke-width="1" fill="none" fill-rule="evenodd" stroke-linecap="round" stroke-linejoin="round">
        <g id="Secondary" transform="translate(-701.000000, -8712.000000)" stroke="#868E96" stroke-width="3.5">
            <g id="baby-32" transform="translate(703.000000, 8714.000000)">
                <path d="M50,17 L50,7.5" id="Layer-1"></path>
                <path d="M25,6.79634451 C25,22.0881196 50,6.79634463 50,6.79634451 C50,6.79634438 25,-8.49543057 25,6.79634451 L25,6.79634451 Z" id="Layer-2"></path>
                <path d="M75,6.79634451 C75,22.0881196 50,6.79634463 50,6.79634451 C50,6.79634438 75,-8.49543057 75,6.79634451 L75,6.79634451 Z" id="Layer-3"></path>
                <path d="M50,88 C61.045695,88 70,79.09139 70,57 C70,34.90861 61.045695,17 50,17 C38.954305,17 30,34.90861 30,57 C30,79.09139 38.954305,88 50,88 Z" id="Layer-4"></path>
                <path d="M59.0619482,37 C57.8416132,30.0278586 54.3802807,25 50.3008855,25 C46.2214903,25 42.7601579,30.0278586 41.5398229,37 L59.0619482,37 L59.0619482,37 Z" id="Layer-5"></path>
                <path d="M50,90 L50,96.9413718" id="Layer-6"></path>
                <path d="M31.7188815,40.751888 C28.1554658,42.2160432 21.2050718,45.423475 15.2515546,50.268555 C6.82892068,57.1230468 4.01561552,60.6213688 4.01561552,60.6213688 C-2.71753731,67.4042929 -0.336017355,73 9.2238537,73 L32.0924973,73 C30.7533217,68.7061964 30,63.4076289 30,57 C30,51.2149678 30.614041,45.7167695 31.7188815,40.751888 L31.7188815,40.751888 Z" id="Layer-7"></path>
                <path d="M68.2811185,40.751888 C71.8445342,42.2160432 78.7949282,45.423475 84.7484454,50.268555 C93.1710793,57.1230468 95.9843845,60.6213688 95.9843845,60.6213688 C102.717537,67.4042929 100.336017,73 90.7761463,73 L67.9075027,73 C69.2466783,68.7061964 70,63.4076289 70,57 C70,51.2149678 69.385959,45.7167695 68.2811185,40.751888 L68.2811185,40.751888 Z" id="Layer-8"></path>
                <path d="M39.1690981,84.3087436 C37.7414513,85.5560202 36.5566372,87.0003456 35.7801759,88.5398129 L32.7032387,94.640367 C31.2067568,97.6073982 32.6502424,99.5747707 35.9194821,99.0502237 L44.0805179,97.7407919 C47.3441544,97.217144 52.6502424,97.2162449 55.9194821,97.7407919 L64.0805179,99.0502237 C67.3441544,99.5738717 68.8215732,97.5886315 67.36791,94.6140577 L64.4278213,88.5978699 C63.6457101,86.9974665 62.4248937,85.4979348 60.9474328,84.213499 C57.8022622,86.8075998 54.0410953,88 50,88 C46.0086933,88 42.2904599,86.8368009 39.1690981,84.3087436 L39.1690981,84.3087436 Z" id="Layer-9"></path>
            </g>
        </g>
    </g>
</svg>