<?xml version="1.0" encoding="UTF-8"?>
<svg width="105px" height="85px" viewBox="0 0 105 85" version="1.1" xmlns="http://www.w3.org/2000/svg" xmlns:xlink="http://www.w3.org/1999/xlink">
    <!-- Generator: Sketch 46 (44423) - http://www.bohemiancoding.com/sketch -->
    <title>baby-14</title>
    <desc>Created with Sketch.</desc>
    <defs></defs>
    <g id="ALL" stroke="none" stroke-width="1" fill="none" fill-rule="evenodd" stroke-linecap="round" stroke-linejoin="round">
        <g id="Secondary" transform="translate(-4879.000000, -8404.000000)" stroke="#868E96" stroke-width="3.5">
            <g id="baby-14" transform="translate(4881.000000, 8406.000000)">
                <path d="M90.4071654,33.883865 C87.1703264,15.0189146 70.6470804,0.658478788 50.7503699,0.658478788 C30.7784071,0.658478788 14.2054749,15.1277466 11.0574184,34.0981078 C10.1240552,33.6869099 9.09110164,33.4584788 8.00448648,33.4584788 C3.83838657,33.4584788 0.461095294,36.8163432 0.461095294,40.9584788 C0.461095294,45.1006144 3.83838657,48.4584788 8.00448648,48.4584788 C9.12867373,48.4584788 10.1954243,48.2139775 11.1538786,47.775542 C14.530789,66.4715555 30.9742275,80.6584788 50.7503699,80.6584788 C70.4483973,80.6584788 86.839997,66.5834096 90.3062342,47.9968757 C91.1199582,48.2954322 91.9996802,48.4584788 92.9177041,48.4584788 C97.083804,48.4584788 100.461095,45.1006144 100.461095,40.9584788 C100.461095,36.8163432 97.083804,33.4584788 92.9177041,33.4584788 C92.0375106,33.4584788 91.1925272,33.6083645 90.4071654,33.883865 L90.4071654,33.883865 Z" id="Layer-1"></path>
                <path d="M39.9835491,34.8995617 C39.9835491,31.8210549 37.5062764,29.3254319 34.4504056,29.3254319 C31.3945348,29.3254319 28.917262,31.8210549 28.917262,34.8995617" id="Layer-2"></path>
                <path d="M71.6015121,34.8995617 C71.6015121,31.8210549 69.1242394,29.3254319 66.0683686,29.3254319 C63.0124978,29.3254319 60.5352251,31.8210549 60.5352251,34.8995617" id="Layer-3"></path>
                <path d="M61.3256742,48.4367341 C61.3256742,54.5937478 56.3711287,59.5849936 50.2593871,59.5849936 C44.1476455,59.5849936 39.1931,54.5937478 39.1931,48.4367341" id="Layer-4"></path>
                <path d="M51.5068621,14.4116217 C57.1019388,11.887477 54.2948806,6.49805608 50.71456,6.49805658 C47.4073474,6.49805704 44.7262436,9.19888784 44.7262436,12.5305983 C44.7262436,16.5287303 47.9435418,19.7697278 51.9121442,19.7697278 C56.6745724,19.7697278 60.5352251,15.8804778 60.5352251,11.0827723 C60.5352251,5.32555233 55.9024683,0.658478788 50.1875807,0.658478788" id="Layer-5"></path>
            </g>
        </g>
    </g>
</svg>