<?xml version="1.0" encoding="UTF-8"?>
<svg width="86px" height="104px" viewBox="0 0 86 104" version="1.1" xmlns="http://www.w3.org/2000/svg" xmlns:xlink="http://www.w3.org/1999/xlink">
    <!-- Generator: Sketch 46 (44423) - http://www.bohemiancoding.com/sketch -->
    <title>baby-36</title>
    <desc>Created with Sketch.</desc>
    <defs></defs>
    <g id="ALL" stroke="none" stroke-width="1" fill="none" fill-rule="evenodd" stroke-linecap="round" stroke-linejoin="round">
        <g id="Secondary" transform="translate(-1906.000000, -8712.000000)" stroke="#868E96" stroke-width="3.5">
            <g id="baby-36" transform="translate(1908.000000, 8714.000000)">
                <polygon id="Layer-1" points="68 0 68 18 0 18"></polygon>
                <path d="M0,18 L78.0033698,18 C80.2106477,18 82,19.7889462 82,21.9966302 L82,96.0033698 C82,98.2106477 80.2110538,100 78.0033698,100 L0,100 L0,18 Z" id="Layer-2"></path>
                <path d="M23.0199345,52.7723456 C23.0067301,52.8621531 23,52.9555467 23,53.0526316 C23,69.6315788 41.4210526,77 41.4210526,77 C41.4210526,77 59.8421053,69.6315788 59.8421053,53.0526316 C59.8421053,52.9553254 59.8353854,52.8617566 59.8222037,52.7718175 C59.8354056,52.560101 59.8421053,52.3466224 59.8421053,52.1315789 C59.8421053,46.5360624 55.3060429,42 49.7105263,42 C46.2839199,42 43.2546242,43.7010892 41.4210526,46.3048542 C39.5874811,43.7010892 36.5581854,42 33.1315789,42 C27.5360624,42 23,46.5360624 23,52.1315789 C23,52.3468012 23.0067108,52.560456 23.0199345,52.7723456 L23.0199345,52.7723456 Z" id="Layer-3"></path>
                <path d="M58,76 L78.009947,76 C80.2135924,76 82,77.7842933 82,79.990053 L82,100 L58,76 Z" id="Layer-4" transform="translate(70.000000, 88.000000) scale(1, -1) translate(-70.000000, -88.000000) "></path>
                <path d="M58,18 L78.009947,18 C80.2135924,18 82,19.7842933 82,21.990053 L82,42 L58,18 Z" id="Layer-5"></path>
            </g>
        </g>
    </g>
</svg>