<?xml version="1.0" encoding="UTF-8"?>
<svg width="94px" height="104px" viewBox="0 0 94 104" version="1.1" xmlns="http://www.w3.org/2000/svg" xmlns:xlink="http://www.w3.org/1999/xlink">
    <!-- Generator: Sketch 46 (44423) - http://www.bohemiancoding.com/sketch -->
    <title>baby-19</title>
    <desc>Created with Sketch.</desc>
    <defs></defs>
    <g id="ALL" stroke="none" stroke-width="1" fill="none" fill-rule="evenodd" stroke-linecap="round" stroke-linejoin="round">
        <g id="Secondary" transform="translate(-6381.000000, -8404.000000)" stroke="#868E96" stroke-width="3.5">
            <g id="baby-19" transform="translate(6383.000000, 8406.000000)">
                <path d="M68.7996059,94.398056 C67.0258554,97.1698147 63.9026138,99.009901 60.3555591,99.009901 L35.1738281,99.009901 L9.99209717,99.009901 C4.48530063,99.009901 0,94.5748309 0,89.1038948 L0,39.6150797 C0,24.868019 11.1918945,19.845007 11.1918945,19.845007 C17.9575195,16.1190826 15.2368164,11.9009901 15.2368164,11.9009901 L35.1738281,11.9009901 L55.1108398,11.9009901 C55.1108398,11.9009901 52.3901367,16.1190826 59.1557617,19.845007 C59.1557617,19.845007 63.4884926,21.7895713 66.7623159,26.8110504 C64.4323127,30.7327152 63,35.7835091 63,40.5729409 C63,47.4876489 65.9855033,53.4818267 70.3476562,56.4315752 L70.3476562,60.8076667 L68.2394754,90.7415353 C68.1474141,92.0487054 68.3533152,93.2882172 68.7996059,94.398056 L68.7996059,94.398056 Z" id="Layer-1"></path>
                <path d="M3.55271368e-15,42.6132003 C3.55271368e-15,40.951243 1.34590009,39.6039604 2.99609755,39.6039604 L55,39.6039604 L55,79.2079208 L2.99609755,79.2079208 C1.34139856,79.2079208 3.55271368e-15,77.8675328 3.55271368e-15,76.1986809 L3.55271368e-15,42.6132003 Z" id="Layer-2" transform="translate(27.500000, 59.405941) scale(-1, 1) translate(-27.500000, -59.405941) "></path>
                <rect id="Layer-3" x="10" y="0" width="50" height="11.8811881" rx="4"></rect>
                <path d="M81.6038862,57.0548794 C86.5170716,54.3947283 89.9774688,48.0173125 89.9774688,40.5729409 C89.9774688,30.738456 83.9383567,19.8019802 76.4887344,19.8019802 C69.0391121,19.8019802 63,30.738456 63,40.5729409 C63,48.0036894 66.4477438,54.3713835 71.3466239,57.0402379 C70.8187223,57.8924541 70.484069,58.8707548 70.4108017,59.9110701 L68.2394754,90.7415353 C67.9054801,95.4839037 71.4933066,99.3357441 76.2537523,99.3357441 C81.0045115,99.3357441 84.6421359,95.4879858 84.3569784,90.7415353 L82.5047442,59.9110701 C82.442674,58.8779111 82.1199374,57.9044784 81.6038862,57.0548794 L81.6038862,57.0548794 Z" id="Layer-4"></path>
            </g>
        </g>
    </g>
</svg>