<?xml version="1.0" encoding="UTF-8"?>
<svg width="70px" height="111px" viewBox="0 0 70 111" version="1.1" xmlns="http://www.w3.org/2000/svg" xmlns:xlink="http://www.w3.org/1999/xlink">
    <!-- Generator: Sketch 46 (44423) - http://www.bohemiancoding.com/sketch -->
    <title>baby-26</title>
    <desc>Created with Sketch.</desc>
    <defs></defs>
    <g id="ALL" stroke="none" stroke-width="1" fill="none" fill-rule="evenodd" stroke-linecap="round" stroke-linejoin="round">
        <g id="Secondary" transform="translate(-8407.000000, -8404.000000)" stroke="#868E96" stroke-width="3.5">
            <g id="baby-26" transform="translate(8409.000000, 8406.000000)">
                <path d="M51.7179535,15.0883083 C57.8727194,20.3570083 62.3005064,28.2539856 64.0645647,37.7202478 C64.0645647,37.7202478 65.4567522,44.4439306 65.4567522,57.5283019 C65.4567522,70.6126732 64.0645647,77.3363578 64.0645647,77.3363578 C60.7682478,94.9279739 48.3501448,107.056604 32.7283761,107.056604 C17.1066075,107.056604 4.68850446,94.9279739 1.3921875,77.3363578 C1.3921875,77.3363578 0,70.6126732 0,57.5283019 C0,44.4439306 1.3921875,37.7202478 1.3921875,37.7202478 C3.15624587,28.2539856 7.58403279,20.3570083 13.7387988,15.0883083 C19.4937082,18.8671633 32.7280444,8.00027249 32.7283761,8.00000001 C32.7287079,8.00027249 45.963044,18.8671633 51.7179535,15.0883083 Z" id="Layer-1"></path>
                <path d="M0,57.6873917 C0,70.771763 1.3921875,77.4954477 1.3921875,77.4954477 C4.68850446,95.0870637 17.1066075,107.215694 32.7283761,107.215694 C47.591406,107.215694 59.5544127,96.2366113 63.5203888,80.0192614 C63.5203888,80.0192614 43.4220703,74.7311704 27.0371652,67.2309862 C10.65226,59.7308019 0.151216872,50.4528302 0.151216872,50.4528302 C0.0583744439,52.5955692 0,55.0081286 0,57.6873917 Z" id="Layer-2"></path>
                <path d="M32.9721706,106.717151 C48.5939392,106.717151 61.0120423,94.588521 64.3083592,76.9969049 C64.3083592,76.9969049 65.7005467,70.2732203 65.7005467,57.188849 C65.7005467,53.9142979 65.6133509,51.0381309 65.4826033,48.5660377 C65.4826033,48.5660377 51.6737068,60.3608343 35.4545383,68.1162155 C19.2353698,75.8715967 1.88571429,78.2387099 1.88571429,78.2387099 C5.52287769,95.1567583 17.7207387,106.717151 32.9721706,106.717151 Z" id="Layer-3"></path>
                <ellipse id="Layer-4" cx="33" cy="35.3584906" rx="17.9142857" ry="17.9245283"></ellipse>
                <path d="M30.1714286,33.9433962 C30.1714286,32.1198145 28.6939682,30.6415094 26.8714286,30.6415094 C25.0488889,30.6415094 23.5714286,32.1198145 23.5714286,33.9433962" id="Layer-5"></path>
                <path d="M42.4285714,33.9433962 C42.4285714,32.1198145 40.9511111,30.6415094 39.1285714,30.6415094 C37.3060318,30.6415094 35.8285714,32.1198145 35.8285714,33.9433962" id="Layer-6"></path>
                <path d="M32.7283761,8 C32.7283761,25.744456 11.1183502,8.00000011 11.1183502,8 C11.1183502,7.99999989 32.7283761,-9.74445598 32.7283761,8 L32.7283761,8 Z" id="Layer-7" transform="translate(21.923363, 8.000000) scale(-1, 1) translate(-21.923363, -8.000000) "></path>
                <path d="M54.338402,8 C54.338402,25.744456 32.7283761,8.00000011 32.7283761,8 C32.7283761,7.99999989 54.338402,-9.74445598 54.338402,8 L54.338402,8 Z" id="Layer-8"></path>
            </g>
        </g>
    </g>
</svg>