<?xml version="1.0" encoding="UTF-8"?>
<svg width="82px" height="104px" viewBox="0 0 82 104" version="1.1" xmlns="http://www.w3.org/2000/svg" xmlns:xlink="http://www.w3.org/1999/xlink">
    <!-- Generator: Sketch 46 (44423) - http://www.bohemiancoding.com/sketch -->
    <title>baby-21</title>
    <desc>Created with Sketch.</desc>
    <defs></defs>
    <g id="ALL" stroke="none" stroke-width="1" fill="none" fill-rule="evenodd" stroke-linecap="round" stroke-linejoin="round">
        <g id="Secondary" transform="translate(-6961.000000, -8404.000000)" stroke="#868E96" stroke-width="3.5">
            <g id="baby-21" transform="translate(6963.000000, 8406.000000)">
                <path d="M10.8980853,25.4674432 C6.49467189,11.4021627 14.8773574,0 29.6093119,0 L49.3656881,0 C64.1030266,0 72.3171559,11.3483143 67.7114224,25.3503216 L58.4990463,53.3571004 L19.6294925,53.3571004 L10.8980853,25.4674432 Z" id="Layer-1"></path>
                <path d="M26.338883,22.4742846 C26.3296871,22.5378102 26.325,22.6038725 26.325,22.6725459 C26.325,34.3997247 39.1539474,39.6118043 39.1539474,39.6118043 C39.1539474,39.6118043 51.9828947,34.3997247 51.9828947,22.6725459 C51.9828947,22.603716 51.9782148,22.5375298 51.9690347,22.4739111 C51.9782289,22.3241526 51.9828947,22.1731477 51.9828947,22.021036 C51.9828947,18.0630269 48.8238513,14.8544266 44.9269737,14.8544266 C42.5405871,14.8544266 40.430899,16.0576983 39.1539474,17.899481 C37.8769958,16.0576983 35.7673077,14.8544266 33.3809211,14.8544266 C29.4840435,14.8544266 26.325,18.0630269 26.325,22.021036 C26.325,22.1732742 26.3296736,22.3244037 26.338883,22.4742846 L26.338883,22.4742846 Z" id="Layer-2"></path>
                <rect id="Layer-3" x="0" y="53.4759358" width="78" height="11.8835413" rx="5.94177065"></rect>
                <path d="M25.2334623,65.3594771 L22.8494248,92.8350338 C22.4358387,97.6015314 18.3549344,100.661342 13.7067235,99.663354 L11.4205201,99.1724979 C6.78473168,98.1771775 4.32343455,93.7213196 5.92482942,89.2150791 L14.4024592,65.3594771 L25.2334623,65.3594771 L25.2334623,65.3594771 Z" id="Layer-4"></path>
                <path d="M53.3144157,65.3594771 L55.6984532,92.8350338 C56.1120393,97.6015314 60.1929436,100.661342 64.8411546,99.663354 L67.1273579,99.1724979 C71.7631463,98.1771775 74.2244435,93.7213196 72.6230486,89.2150791 L64.1454188,65.3594771 L53.3144157,65.3594771 L53.3144157,65.3594771 Z" id="Layer-5"></path>
            </g>
        </g>
    </g>
</svg>