<?xml version="1.0" encoding="UTF-8"?>
<svg width="104px" height="106px" viewBox="0 0 104 106" version="1.1" xmlns="http://www.w3.org/2000/svg" xmlns:xlink="http://www.w3.org/1999/xlink">
    <!-- Generator: Sketch 46 (44423) - http://www.bohemiancoding.com/sketch -->
    <title>baby-3</title>
    <desc>Created with Sketch.</desc>
    <defs></defs>
    <g id="ALL" stroke="none" stroke-width="1" fill="none" fill-rule="evenodd" stroke-linecap="round" stroke-linejoin="round">
        <g id="Secondary" transform="translate(-1566.000000, -8404.000000)" stroke="#868E96" stroke-width="3.5">
            <g id="baby-3" transform="translate(1568.000000, 8406.000000)">
                <rect id="Layer-1" x="0" y="82" width="100" height="20" rx="10"></rect>
                <rect id="Layer-2" x="10" y="62" width="80" height="20" rx="10"></rect>
                <rect id="Layer-3" x="20" y="42" width="60" height="20" rx="10"></rect>
                <rect id="Layer-4" x="30" y="22" width="40" height="20" rx="10"></rect>
                <rect id="Layer-5" x="45" y="0" width="20" height="20" rx="10"></rect>
                <path d="M10,94.9995871 C11.6568542,94.9995871 13,93.6565337 13,91.9997935 C13,90.3430533 11.6568542,89 10,89 C8.34314575,89 7,90.3430533 7,91.9997935 C7,93.6565337 8.34314575,94.9995871 10,94.9995871 Z" id="Layer-6"></path>
                <path d="M20,74.9995871 C21.6568542,74.9995871 23,73.6565337 23,71.9997935 C23,70.3430533 21.6568542,69 20,69 C18.3431458,69 17,70.3430533 17,71.9997935 C17,73.6565337 18.3431458,74.9995871 20,74.9995871 Z" id="Layer-7"></path>
                <path d="M30,54.9995871 C31.6568542,54.9995871 33,53.6565337 33,51.9997935 C33,50.3430533 31.6568542,49 30,49 C28.3431458,49 27,50.3430533 27,51.9997935 C27,53.6565337 28.3431458,54.9995871 30,54.9995871 Z" id="Layer-8"></path>
                <path d="M40,34.9995871 C41.6568542,34.9995871 43,33.6565337 43,31.9997935 C43,30.3430533 41.6568542,29 40,29 C38.3431458,29 37,30.3430533 37,31.9997935 C37,33.6565337 38.3431458,34.9995871 40,34.9995871 Z" id="Layer-9"></path>
            </g>
        </g>
    </g>
</svg>