<?xml version="1.0" encoding="UTF-8"?>
<svg width="104px" height="105px" viewBox="0 0 104 105" version="1.1" xmlns="http://www.w3.org/2000/svg" xmlns:xlink="http://www.w3.org/1999/xlink">
    <!-- Generator: Sketch 46 (44423) - http://www.bohemiancoding.com/sketch -->
    <title>baby-38</title>
    <desc>Created with Sketch.</desc>
    <defs></defs>
    <g id="ALL" stroke="none" stroke-width="1" fill="none" fill-rule="evenodd" stroke-linecap="round" stroke-linejoin="round">
        <g id="Secondary" transform="translate(-2487.000000, -8712.000000)" stroke="#868E96" stroke-width="3.5">
            <g id="baby-38" transform="translate(2489.000000, 8714.000000)">
                <path d="M82.0202593,100.292587 L17.9797407,100.292587 C13.83825,100.292587 10.2968889,97.3057099 9.5872963,93.2143692 L4,61 L96,61 L90.4129167,93.2143692 C89.7031111,97.3057099 86.16175,100.292587 82.0202593,100.292587 L82.0202593,100.292587 Z" id="Layer-1"></path>
                <rect id="Layer-2" x="0" y="53" width="100" height="8" rx="4"></rect>
                <path d="M72.5858442,52.5098039 L93.0310862,52.5098039 C94.5551638,50.8030784 95.4827586,48.5496863 95.4827586,46.0784314 C95.4827586,40.7504412 91.1754957,36.4313725 85.862069,36.4313725 C85.7065462,36.4313725 85.5519033,36.4350965 85.3982195,36.4424566 C82.8375992,24.7003841 72.406646,15.9097618 59.9285714,15.9097618 C50.2678036,15.9097618 41.8402143,21.1827821 37.336375,29.0119233 C34.8498125,27.3420464 31.8600714,26.3669167 28.6428571,26.3669167 C21.9722115,26.3669167 16.2768814,30.553566 14.0275574,36.4494022 C8.99038506,36.7566061 5,40.9501703 5,46.0784314 C5,48.5496863 5.92759483,50.8030784 7.45167241,52.5098039 L32.7723978,52.5098039 L72.5858442,52.5098039 Z" id="Layer-3"></path>
                <circle id="Layer-4" cx="9.5" cy="15.5" r="4.5"></circle>
                <circle id="Layer-5" cx="29.5" cy="6.5" r="6.5"></circle>
                <circle id="Layer-6" cx="89" cy="13" r="8"></circle>
            </g>
        </g>
    </g>
</svg>