<?xml version="1.0" encoding="UTF-8"?>
<svg width="94px" height="103px" viewBox="0 0 94 103" version="1.1" xmlns="http://www.w3.org/2000/svg" xmlns:xlink="http://www.w3.org/1999/xlink">
    <!-- Generator: Sketch 46 (44423) - http://www.bohemiancoding.com/sketch -->
    <title>baby-20</title>
    <desc>Created with Sketch.</desc>
    <defs></defs>
    <g id="ALL" stroke="none" stroke-width="1" fill="none" fill-rule="evenodd" stroke-linecap="round" stroke-linejoin="round">
        <g id="Secondary" transform="translate(-6671.000000, -8405.000000)" stroke="#868E96" stroke-width="3.5">
            <g id="baby-20" transform="translate(6673.000000, 8406.000000)">
                <path d="M90,60.074516 C90,82.1693584 69.8528137,100.080767 45,100.080767 C20.1471863,100.080767 0,82.1693584 0,60.074516 C0,39.6732401 17.1769974,5.79780603 39.375,0.724573708 L39.375,10.1941974 C32.8207929,12.2533795 28.125,17.8095748 28.125,24.3406689 C28.125,32.6249402 35.6801948,39.3406689 45,39.3406689 C54.3198052,39.3406689 61.875,32.6249402 61.875,24.3406689 C61.875,17.8095748 57.1792071,12.2533795 50.625,10.1941974 L50.625,0.724573708 C72.8230026,5.79780603 90,39.6732401 90,60.074516 Z" id="Layer-1"></path>
                <path d="M29.0173145,62.3565516 C29.0058456,62.4345558 29,62.5156748 29,62.6 C29,76.9999999 45,83.4 45,83.4 C45,83.4 61,76.9999999 61,62.6 C61,62.5154826 60.9941633,62.4342114 60.9827141,62.3560929 C60.9941809,62.172202 61,61.9867806 61,61.8 C61,56.9398942 57.0601058,53 52.2,53 C49.2237476,53 46.5925879,54.4775175 45,56.7390734 C43.4074121,54.4775175 40.7762524,53 37.8,53 C32.9398942,53 29,56.9398942 29,61.8 C29,61.9869359 29.0058288,62.1725103 29.0173145,62.3565516 Z" id="Layer-2"></path>
            </g>
        </g>
    </g>
</svg>