<?xml version="1.0" encoding="UTF-8"?>
<svg width="104px" height="79px" viewBox="0 0 104 79" version="1.1" xmlns="http://www.w3.org/2000/svg" xmlns:xlink="http://www.w3.org/1999/xlink">
    <!-- Generator: Sketch 46 (44423) - http://www.bohemiancoding.com/sketch -->
    <title>baby-33</title>
    <desc>Created with Sketch.</desc>
    <defs></defs>
    <g id="ALL" stroke="none" stroke-width="1" fill="none" fill-rule="evenodd" stroke-linecap="round" stroke-linejoin="round">
        <g id="Secondary" transform="translate(-1006.000000, -8712.000000)" stroke="#868E96" stroke-width="3.5">
            <g id="baby-33" transform="translate(1008.000000, 8714.000000)">
                <rect id="Layer-1" x="8.33333333" y="8.33333333" width="83.3333333" height="50"></rect>
                <path d="M8.33333333,58.3333333 L8.33333333,75 L8.33333333,75 M91.6666667,75 L91.6666667,58.3333333" id="Layer-2"></path>
                <path d="M25,8.33333333 L25,58.3333333" id="Layer-3"></path>
                <path d="M41.6666667,8.33333333 L41.6666667,58.3333333" id="Layer-4"></path>
                <path d="M58.3333333,8.33333333 L58.3333333,58.3333333" id="Layer-5"></path>
                <path d="M75,8.33333333 L75,58.3333333" id="Layer-6"></path>
                <path d="M0,0 L0,0 C4.60237291,0 8.33333333,3.72994848 8.33333333,8.33333333 L8.33333333,8.33333333" id="Layer-7"></path>
                <path d="M100,0 L100,0 C95.3976271,0 91.6666667,3.72994848 91.6666667,8.33333333 L91.6666667,8.33333333" id="Layer-8"></path>
                <rect id="Layer-9" x="8.33333333" y="58.3333333" width="83.3333333" height="8.33333333"></rect>
            </g>
        </g>
    </g>
</svg>