<?xml version="1.0" encoding="UTF-8"?>
<svg width="104px" height="84px" viewBox="0 0 104 84" version="1.1" xmlns="http://www.w3.org/2000/svg" xmlns:xlink="http://www.w3.org/1999/xlink">
    <!-- Generator: Sketch 46 (44423) - http://www.bohemiancoding.com/sketch -->
    <title>baby-16</title>
    <desc>Created with Sketch.</desc>
    <defs></defs>
    <g id="ALL" stroke="none" stroke-width="1" fill="none" fill-rule="evenodd" stroke-linecap="round" stroke-linejoin="round">
        <g id="Secondary" transform="translate(-5480.000000, -8404.000000)" stroke="#868E96" stroke-width="3.5">
            <g id="baby-16" transform="translate(5482.000000, 8406.000000)">
                <path d="M89.2826425,33.5345361 C86.1989017,14.517548 69.7358982,0 49.8896247,0 C30.0763796,0 13.6351527,14.4692678 10.512114,33.439629 C9.58616814,33.0284311 8.56142351,32.8 7.48344371,32.8 C3.35045187,32.8 0,36.1578644 0,40.3 C0,44.4421356 3.35045187,47.8 7.48344371,47.8 C8.59869702,47.8 9.65697007,47.5554987 10.6078075,47.1170632 C13.9578816,65.8130767 30.2706437,80 49.8896247,80 C69.542714,80 85.8780785,65.7637049 89.188797,47.0195113 C90.1911563,47.5190783 91.3211223,47.8 92.5165563,47.8 C96.6495481,47.8 100,44.4421356 100,40.3 C100,36.1578644 96.6495481,32.8 92.5165563,32.8 C91.3582834,32.8 90.2614714,33.0637278 89.2826425,33.5345361 L89.2826425,33.5345361 Z" id="Layer-1"></path>
                <path d="M48.1605583,0.192693211 C56.283998,25.7194722 80.6444731,15.9771538 80.6444731,15.9771538 C73.3973174,6.27544797 61.1061559,-0.804318647 48.1605583,0.192693211 Z" id="Layer-2"></path>
                <path d="M50.444919,0.0936291007 C42.3214793,25.6204081 17.9610042,15.8780897 17.9610042,15.8780897 C25.2081599,6.17638386 37.4993214,-0.903382757 50.444919,0.0936291007 L50.444919,0.0936291007 Z" id="Layer-3"></path>
                <path d="M39.7564622,34.3508806 C39.7564622,31.2625022 37.2776251,28.7588768 34.2198247,28.7588768 C31.1620243,28.7588768 28.6831873,31.2625022 28.6831873,34.3508806" id="Layer-4"></path>
                <path d="M71.3943905,34.3508806 C71.3943905,31.2625022 68.9155534,28.7588768 65.857753,28.7588768 C62.7999526,28.7588768 60.3211156,31.2625022 60.3211156,34.3508806" id="Layer-5"></path>
                <path d="M61.1120638,47.9314614 C61.1120638,54.1082182 56.1543897,59.115469 50.0387889,59.115469 C43.923188,59.115469 38.965514,54.1082182 38.965514,47.9314614" id="Layer-6"></path>
            </g>
        </g>
    </g>
</svg>