<?xml version="1.0" encoding="UTF-8"?>
<svg width="102px" height="92px" viewBox="0 0 102 92" version="1.1" xmlns="http://www.w3.org/2000/svg" xmlns:xlink="http://www.w3.org/1999/xlink">
    <!-- Generator: Sketch 46 (44423) - http://www.bohemiancoding.com/sketch -->
    <title>baby-28</title>
    <desc>Created with Sketch.</desc>
    <defs></defs>
    <g id="ALL" stroke="none" stroke-width="1" fill="none" fill-rule="evenodd" stroke-linecap="round" stroke-linejoin="round">
        <g id="Secondary" transform="translate(-8974.000000, -8404.000000)" stroke="#868E96" stroke-width="3.5">
            <g id="baby-28" transform="translate(8975.000000, 8406.000000)">
                <path d="M20.2744627,26.0172286 C20.1047462,31.2136899 19.990367,37.2279203 19.990367,44 C19.990367,70.2384375 21.0232814,76.3102388 21.0232814,76.3102388 C21.5042734,82.7768603 27.2650124,88 33.7664545,88 L66.2960302,88 C72.792685,88 78.6016724,82.775024 79.2600739,76.3296895 C79.2600739,76.3296895 80.5334637,70.200625 80.5334637,44 C80.5334637,37.3242921 80.3963367,31.3825535 80.1919604,26.2341452 L87.0828174,29.4388359 C89.0426002,30.3502607 91.547986,29.592397 92.6749991,27.7443541 L98.3849214,18.381391 C99.5132194,16.5312412 99.1221133,13.863042 97.5142314,12.4170954 C97.5142314,12.4170954 94.2375684,9.09211516 88.3678132,5.69824976 C82.4980581,2.30438435 78.6501075,0.658555471 78.6501075,0.658555471 C77.9571787,0.33275634 77.2132929,0.227385845 76.499086,0.312987994 C76.0753387,0.112796936 75.6098739,0 75.1321335,0 L66.977305,0 C64.7686081,3.59775207 58.0833019,6.21283733 50.1790921,6.21283733 C42.2748824,6.21283733 35.5895762,3.59775207 33.3808792,6.1138255e-13 L24.9303513,0 C24.4474855,0 23.980014,0.11553129 23.5575119,0.320179359 C22.8260869,0.221966953 22.0611458,0.324140582 21.3498925,0.658555471 C21.3498925,0.658555471 17.5019419,2.30438435 11.6321868,5.69824976 C5.76243161,9.09211516 2.48576857,12.4170954 2.48576857,12.4170954 C0.87788671,13.863042 0.486780626,16.5312412 1.61507856,18.381391 L7.32500093,27.7443541 C8.45201397,29.592397 10.9573998,30.3502607 12.9171826,29.4388359 L20.2744627,26.0172286 L20.2744627,26.0172286 Z" id="Layer-1"></path>
                <path d="M40.1960784,88 L59.8039216,88 C59.8039216,79.8998237 66.3879694,73.3333333 74.5098039,73.3333333 C76.2781591,73.3333333 77.9736143,73.6446225 79.5440843,74.2152544 C79.9193651,70.7102194 80.5334637,62.1949153 80.5334637,44 C80.5334637,37.3242921 80.3963367,31.3825535 80.1919604,26.2341452 L87.0828174,29.4388359 C89.0426002,30.3502607 91.547986,29.592397 92.6749991,27.7443541 L98.3849214,18.381391 C99.5132194,16.5312412 99.1221133,13.863042 97.5142314,12.4170954 C97.5142314,12.4170954 94.2375684,9.09211516 88.3678132,5.69824976 C82.4980581,2.30438435 78.6501075,0.658555471 78.6501075,0.658555471 C77.9571787,0.33275634 77.2132929,0.227385845 76.499086,0.312987994 C76.0753387,0.112796936 75.6098739,0 75.1321335,0 L66.977305,0 C64.7686081,3.59775207 58.0833019,6.21283733 50.1790921,6.21283733 C42.2748824,6.21283733 35.5895762,3.59775207 33.3808792,6.1138255e-13 L24.9303513,0 C24.4474855,0 23.980014,0.11553129 23.5575119,0.320179359 C22.8260869,0.221966953 22.0611458,0.324140582 21.3498925,0.658555471 C21.3498925,0.658555471 17.5019419,2.30438435 11.6321868,5.69824976 C5.76243161,9.09211516 2.48576857,12.4170954 2.48576857,12.4170954 C0.87788671,13.863042 0.486780626,16.5312412 1.61507856,18.381391 L7.32500093,27.7443541 C8.45201397,29.592397 10.9573998,30.3502607 12.9171826,29.4388359 L20.2744627,26.0172286 C20.1047462,31.2136899 19.990367,37.2279203 19.990367,44 C19.990367,62.0377535 20.478517,70.5448592 20.7836544,74.1005574 C22.2613364,73.6030391 23.8441854,73.3333333 25.4901961,73.3333333 C33.6120306,73.3333333 40.1960784,79.8998237 40.1960784,88 L40.1960784,88 Z" id="Layer-2"></path>
                <path d="M50,7.33333333 L50,87.0222222" id="Layer-3"></path>
            </g>
        </g>
    </g>
</svg>