<?xml version="1.0" encoding="UTF-8"?>
<svg width="104px" height="94px" viewBox="0 0 104 94" version="1.1" xmlns="http://www.w3.org/2000/svg" xmlns:xlink="http://www.w3.org/1999/xlink">
    <!-- Generator: Sketch 46 (44423) - http://www.bohemiancoding.com/sketch -->
    <title>baby-31</title>
    <desc>Created with Sketch.</desc>
    <defs></defs>
    <g id="ALL" stroke="none" stroke-width="1" fill="none" fill-rule="evenodd" stroke-linecap="round" stroke-linejoin="round">
        <g id="Secondary" transform="translate(-416.000000, -8712.000000)" stroke="#868E96" stroke-width="3.5">
            <g id="baby-31" transform="translate(418.000000, 8714.000000)">
                <path d="M13.8864005,1.11022302e-16 L13.5683594,1.11022302e-16 L0,82.9157004 C0,82.9157004 29.6132812,90 50,90 C70.3867188,90 100,82.9157004 100,82.9157004 L86.4316406,1.11022302e-16 L86.1135995,1.11022302e-16 C82.4248909,3.2215291 67.6567896,5.62970364 50,5.62970364 C32.3432104,5.62970364 17.5751091,3.2215291 13.8864005,0 L13.8864005,1.11022302e-16 Z" id="Layer-1"></path>
                <path d="M25.3432618,31.5205078 C26.6126089,31.787089 36.9506814,33.4536129 37.5922843,38.5576171 C38.2508357,43.7964482 35.9005503,47.1530766 42.0222483,48.6835011 C43.0212336,48.9332474 47.2910733,48.7944035 47.7231445,48.6835022 C49.3807784,48.2580314 50.4160161,46.4745717 50.4160161,44.602051 C50.4160161,42.7295304 52.7274047,36.0821801 56.3911118,35.4582522 C60.042479,34.8364258 62.0473633,38.637207 58.9082532,42.1216039 C57.3741267,43.8244769 57.2597336,47.781328 57.2597412,48.6835013 C57.2597622,51.1809444 62.8698262,52.1955628 63.7114287,57.2157186 C63.8569699,58.083871 63.8989781,60.4379226 63.7114296,61.2949774 C62.7020441,65.9076419 54.8004481,67.8488471 52.0033158,67.9226709 C43.1659862,68.1559116 32.7990247,66.2711358 28.2803836,57.9918214 C24.7590348,51.5398034 29.3274806,41.2852121 29.0273438,41.1611327 C26.7647071,40.225737 19.2040405,38.978389 21.1650391,33.9663085 C21.8261324,32.276632 22.6201824,30.9486218 25.3432618,31.5205078 Z" id="Layer-2"></path>
                <circle id="Layer-3" cx="71" cy="52" r="8"></circle>
                <path d="M40.8227539,47.5058594 C54.8374023,29.8562012 42.713475,18.8983191 49.9052734,5.45117188" id="Layer-4"></path>
            </g>
        </g>
    </g>
</svg>