<?xml version="1.0" encoding="UTF-8"?>
<svg width="103px" height="104px" viewBox="0 0 103 104" version="1.1" xmlns="http://www.w3.org/2000/svg" xmlns:xlink="http://www.w3.org/1999/xlink">
    <!-- Generator: Sketch 46 (44423) - http://www.bohemiancoding.com/sketch -->
    <title>baby-18</title>
    <desc>Created with Sketch.</desc>
    <defs></defs>
    <g id="ALL" stroke="none" stroke-width="1" fill="none" fill-rule="evenodd" stroke-linecap="round" stroke-linejoin="round">
        <g id="Secondary" transform="translate(-6081.000000, -8404.000000)" stroke="#868E96" stroke-width="3.5">
            <g id="baby-18" transform="translate(6082.000000, 8406.000000)">
                <path d="M9.80350007,73.5604236 C8.45644595,71.2186262 8.21283607,68.5413175 8.91075111,66.1350244 C6.77524871,64.8516569 5.1426666,62.7319475 4.53853858,60.1055012 C3.93058166,57.4624087 4.48288185,54.8222933 5.86076563,52.722726 C4.20228091,50.8705246 3.26505784,48.3717147 3.45180198,45.6912697 C3.64092077,42.9767398 4.94572505,40.6077039 6.88505678,39.0039736 C5.84747031,36.7506232 5.68319732,34.0949344 6.63952937,31.5943878 C7.61415803,29.0460006 9.56115189,27.1595448 11.8925919,26.1977471 C11.5567431,23.6902927 12.2109434,21.0546809 13.9224628,18.9333117 C15.601852,16.8517667 17.9754056,15.6667131 20.4384649,15.4419384 C20.8525513,12.9543495 22.2442326,10.6356576 24.4918603,9.11400512 C26.7112659,7.61145917 29.3359342,7.17671581 31.7633179,7.6922184 C32.8859529,5.44473801 34.8877827,3.64460488 37.4723098,2.8515125 C40.0405596,2.06341502 42.6858068,2.42264834 44.8608904,3.63720554 C46.5881631,1.82741086 49.0200395,0.700509349 51.7141478,0.700509349 C54.408256,0.700509349 56.8401324,1.82741086 58.5674051,3.63720554 C60.7424887,2.42264834 63.3877359,2.06341502 65.9559857,2.8515125 C68.5405128,3.64460488 70.5423426,5.44473801 71.6649776,7.6922184 C74.0923613,7.17671581 76.7170296,7.61145917 78.9364352,9.11400512 C81.184063,10.6356576 82.5757443,12.9543495 82.9898306,15.4419384 C85.4528899,15.6667131 87.8264436,16.8517667 89.5058327,18.9333117 C91.2173521,21.0546809 91.8715524,23.6902927 91.5357036,26.1977471 C93.8671436,27.1595448 95.8141375,29.0460006 96.7887661,31.5943878 C97.7450982,34.0949344 97.5808252,36.7506232 96.5432387,39.0039736 C98.4825705,40.6077039 99.7873747,42.9767398 99.9764935,45.6912697 C100.163238,48.3717147 99.2260146,50.8705246 97.5675299,52.722726 C98.9454137,54.8222933 99.4977139,57.4624087 98.8897569,60.1055012 C98.2856289,62.7319475 96.6530468,64.8516569 94.5175444,66.1350244 C95.2154594,68.5413175 94.9718496,71.2186262 93.6247954,73.5604236 C92.2777413,75.9022211 90.0894748,77.4526282 87.664287,78.0491267 C87.6247058,80.5470514 86.6120407,83.025994 84.647919,84.8643429 C82.6713488,86.7143431 80.1172188,87.5543253 77.6167,87.4064122 C76.8478011,89.7741162 75.1603558,91.8381828 72.7542061,93.0160818 C70.3174595,94.2089592 67.620974,94.2593032 65.2675559,93.3754447 C63.842083,95.4040203 61.6328024,96.8746556 58.9970811,97.2936571 C56.3109331,97.7206751 53.709739,96.9715191 51.7141478,95.4258624 C49.7185565,96.9715191 47.1173624,97.7206751 44.4312144,97.2936571 C41.7954931,96.8746556 39.5862125,95.4040203 38.1607396,93.3754447 C35.8073215,94.2593032 33.110836,94.2089592 30.6740894,93.0160818" id="Layer-1"></path>
                <path d="M34.0636623,53.59497 C38.7778619,48.8306194 45.6289732,48.0300763 49.3660478,51.806907 C53.1031224,55.5837377 52.311006,62.5077332 47.5968065,67.2720838 C42.8826069,72.0364344 36.0314956,72.8369775 32.294421,69.0601468 C28.5573465,65.2833162 29.3494628,58.3593207 34.0636623,53.59497 L34.0636623,53.59497 Z" id="Layer-2"></path>
                <path d="M0.796028342,98.4490451 C0.796028342,98.4490451 5.46885723,101.042225 8.86134291,97.6136491 C12.2538286,94.1850732 7.5968913,90.9230308 11.5411124,86.9368499 C15.7143249,82.7192415 18.9779791,87.3893892 22.5371497,83.792355 C25.6872316,80.6087616 21.2482646,75.8044649 24.6890977,72.3270273 C28.1299307,68.8495896 33.2727113,69.7597179 33.2727113,69.7597179" id="Layer-3"></path>
                <ellipse id="Layer-4" cx="66.1999034" cy="32.615403" rx="9.65717045" ry="9.67117988"></ellipse>
            </g>
        </g>
    </g>
</svg>