<?xml version="1.0" encoding="UTF-8"?>
<svg width="72px" height="104px" viewBox="0 0 72 104" version="1.1" xmlns="http://www.w3.org/2000/svg" xmlns:xlink="http://www.w3.org/1999/xlink">
    <!-- Generator: Sketch 46 (44423) - http://www.bohemiancoding.com/sketch -->
    <title>baby-1</title>
    <desc>Created with Sketch.</desc>
    <defs></defs>
    <g id="ALL" stroke="none" stroke-width="1" fill="none" fill-rule="evenodd" stroke-linecap="round" stroke-linejoin="round">
        <g id="Secondary" transform="translate(-998.000000, -8404.000000)" stroke="#868E96" stroke-width="3.5">
            <g id="baby-1" transform="translate(1000.000000, 8406.000000)">
                <path d="M6.34666667,45.4545455 L34.9721875,45.4545455 L60.7466667,45.4545455 L60.7466667,89.9955229 C60.7466667,95.520843 56.2717705,100 50.7371876,100 L16.3561457,100 C10.8280631,100 6.34666667,95.5131389 6.34666667,89.9955229 L6.34666667,45.4545455 Z" id="Layer-1"></path>
                <path d="M56.1011251,22.0239763 C52.2969797,16.3782104 46.4398193,12.2374654 39.6037074,10.6786764 C40.3579413,9.58108597 40.8,8.2512665 40.8,6.81818182 C40.8,3.06026617 37.7555363,0 34,0 C30.2521055,0 27.2,3.05260398 27.2,6.81818182 C27.2,8.17730733 27.5982317,9.44517665 28.2843064,10.5100183 C16.0674532,12.911276 6.78125074,23.5130371 6.36149307,36.3636364 L4.54076301,36.3636364 C2.03510493,36.3636364 0,38.3987057 0,40.9090909 C0,43.414368 2.03296885,45.4545455 4.54076301,45.4545455 L63.459237,45.4545455 C65.9648951,45.4545455 68,43.4194761 68,40.9090909 C68,38.4038138 65.9670312,36.3636364 63.459237,36.3636364 L60.7318403,36.3636364 C60.5586517,31.0615844 58.8761105,26.1423567 56.1011251,22.0239763 Z" id="Layer-2"></path>
                <path d="M6.8,71.8181818 L14.0533333,71.8181818" id="Layer-3"></path>
                <path d="M6.8,86.3636364 L14.0533333,86.3636364" id="Layer-4"></path>
                <path d="M6.8,57.2727273 L14.0533333,57.2727273" id="Layer-5"></path>
                <path d="M6.34666666,36.3636364 L9.50627603,36.3636364" id="Layer-6"></path>
                <path d="M57.12,36.3636364 L60.2796094,36.3636364" id="Layer-7"></path>
                <path d="M19.1810686,24.1137923 C20.9071305,21.5433587 23.3227603,19.5188211 27.1189843,18.5906428" id="Layer-8"></path>
            </g>
        </g>
    </g>
</svg>