<?xml version="1.0" encoding="UTF-8"?>
<svg width="89px" height="104px" viewBox="0 0 89 104" version="1.1" xmlns="http://www.w3.org/2000/svg" xmlns:xlink="http://www.w3.org/1999/xlink">
    <!-- Generator: Sketch 46 (44423) - http://www.bohemiancoding.com/sketch -->
    <title>business-30</title>
    <desc>Created with Sketch.</desc>
    <defs></defs>
    <g id="ALL" stroke="none" stroke-width="1" fill="none" fill-rule="evenodd" stroke-linecap="round" stroke-linejoin="round">
        <g id="Secondary" transform="translate(-3700.000000, -5351.000000)" stroke="#868E96" fill-rule="nonzero" stroke-width="3.5">
            <g id="business-30" transform="translate(3702.000000, 5353.000000)">
                <path d="M37.4431818,44.375 L24.4379767,44.375 C17.4983415,44.375 11.875,38.7540341 11.875,31.8181818 C11.875,24.8858585 17.5025904,19.2613636 24.4379767,19.2613636 L37.4431818,19.2613636 L37.4431818,44.375 L37.4431818,44.375 L37.4431818,44.375 Z M48.6931818,19.2613636 L60.789296,19.2613636 C67.7289312,19.2613636 73.3522727,24.8823295 73.3522727,31.8181818 L84.6022727,31.8181818 C84.6022727,18.6680617 73.9410708,8.01136364 60.789296,8.01136364 L48.6931818,8.01136364 L48.6931818,0 L37.4431818,0 L37.4431818,8.01136364 L24.4379767,8.01136364 C11.2907722,8.01136364 0.625,18.6712691 0.625,31.8181818 C0.625,44.968302 11.2862019,55.625 24.4379767,55.625 L37.4431818,55.625 L37.4431818,80.7386364 L24.4379767,80.7386364 C17.4983415,80.7386364 11.875,75.1176705 11.875,68.1818182 L0.625,68.1818182 C0.625,81.3319383 11.2862019,91.9886364 24.4379767,91.9886364 L37.4431818,91.9886364 L37.4431818,100 L48.6931818,100 L48.6931818,91.9886364 L60.789296,91.9886364 C73.9365006,91.9886364 84.6022727,81.3287309 84.6022727,68.1818182 C84.6022727,55.031698 73.9410708,44.375 60.789296,44.375 L48.6931818,44.375 L48.6931818,19.2613636 L48.6931818,19.2613636 L48.6931818,19.2613636 Z M48.6931818,55.625 L60.789296,55.625 C67.7289312,55.625 73.3522727,61.2459659 73.3522727,68.1818182 C73.3522727,75.1141415 67.7246823,80.7386364 60.789296,80.7386364 L48.6931818,80.7386364 L48.6931818,55.625 L48.6931818,55.625 L48.6931818,55.625 Z" id="Layer-1"></path>
            </g>
        </g>
    </g>
</svg>