<?xml version="1.0" encoding="UTF-8"?>
<svg width="95px" height="104px" viewBox="0 0 95 104" version="1.1" xmlns="http://www.w3.org/2000/svg" xmlns:xlink="http://www.w3.org/1999/xlink">
    <!-- Generator: Sketch 46 (44423) - http://www.bohemiancoding.com/sketch -->
    <title>business-32</title>
    <desc>Created with Sketch.</desc>
    <defs></defs>
    <g id="ALL" stroke="none" stroke-width="1" fill="none" fill-rule="evenodd" stroke-linecap="round" stroke-linejoin="round">
        <g id="Secondary" transform="translate(-4254.000000, -5351.000000)" stroke="#868E96" fill-rule="nonzero" stroke-width="3.5">
            <g id="business-32" transform="translate(4256.000000, 5353.000000)">
                <path d="M19.5774867,55.5454545 C19.3317305,53.7320141 19.2048032,51.8808298 19.2048032,50 C19.2048032,48.1191702 19.3317305,46.2679859 19.5774867,44.4545454 L83.861941,44.4545454 L87.3866214,35.3636364 L21.9008902,35.3636364 C27.7894103,19.9991775 42.677771,9.09090909 60.1138942,9.09090909 C69.202282,9.09090909 77.828172,12.0571979 84.8997633,17.4513963 L90.413333,10.2233138 C81.7711364,3.63106009 71.2121088,0 60.1138942,0 C37.5921271,0 18.5482341,14.8905489 12.2902252,35.3636364 L0.113894156,35.3636364 L0.113894156,44.4545455 L10.4179385,44.4545454 C10.2170308,46.2753645 10.1138942,48.1256378 10.1138942,50 C10.1138942,51.8743622 10.2170308,53.7246355 10.4179385,55.5454545 L0.113894156,55.5454545 L0.113894156,64.6363636 L12.2902252,64.6363636 C18.548234,85.1094511 37.5921271,100 60.1138942,100 C71.2127063,100 81.7722661,96.3685476 90.4147033,89.7756409 L84.9008853,82.5477478 C77.8290959,87.9424815 69.2027708,90.9090909 60.1138942,90.9090909 C42.6777709,90.9090909 27.7894103,80.0008225 21.9008902,64.6363636 L74.8267848,64.6363635 L78.2957123,55.5454545 L19.5774867,55.5454545 L19.5774867,55.5454545 Z" id="Layer-1"></path>
            </g>
        </g>
    </g>
</svg>