<?xml version="1.0" encoding="UTF-8"?>
<svg width="104px" height="104px" viewBox="0 0 104 104" version="1.1" xmlns="http://www.w3.org/2000/svg" xmlns:xlink="http://www.w3.org/1999/xlink">
    <!-- Generator: Sketch 46 (44423) - http://www.bohemiancoding.com/sketch -->
    <title>business-9</title>
    <desc>Created with Sketch.</desc>
    <defs></defs>
    <g id="ALL" stroke="none" stroke-width="1" fill="none" fill-rule="evenodd" stroke-linecap="round" stroke-linejoin="round">
        <g id="Secondary" transform="translate(-7044.000000, -5041.000000)" stroke="#868E96" stroke-width="3.5">
            <g id="business-9" transform="translate(7046.000000, 5043.000000)">
                <path d="M55.5756289,63.1555488 C59.8557253,64.3312711 64.7716726,65 70,65 C86.5685425,65 100,58.2842712 100,50 L100,37.2792969 L99.8924242,37.2792969 L99.8924242,37.2792969 C98.5942005,44.9647562 85.7067069,51 70,51 C54.2932931,51 41.4057995,44.9647562 40.1075758,37.2792969 L40,37.2792969 L40,50 C40,52.8755593 41.6183006,55.5621315 44.4243711,57.8444512 C48.9998061,59.1013016 52.8486117,60.9375273 55.5756289,63.1555488 L55.5756289,63.1555488 Z" id="Layer-1"></path>
                <ellipse id="Layer-2" cx="70" cy="36" rx="30" ry="15"></ellipse>
                <path d="M59.8924242,72.2792969 L60,72.2792969 L60,85 C60,93.2842712 46.5685425,100 30,100 C13.4314575,100 0,93.2842712 0,85 L0,72.2792969 L0.107575784,72.2792969 C1.40579953,79.9647562 14.2932931,86 30,86 C45.7067069,86 58.5942005,79.9647562 59.8924242,72.2792969 L59.8924242,72.2792969 Z" id="Layer-3"></path>
                <ellipse id="Layer-4" cx="30" cy="71" rx="30" ry="15"></ellipse>
                <path d="M44.4243711,28.1555488 C40.1442747,29.3312711 35.2283274,30 30,30 C13.4314575,30 0,23.2842712 0,15 C0,6.71572875 13.4314575,0 30,0 C46.5685425,0 60,6.71572875 60,15 C60,17.8755593 58.3816994,20.5621315 55.5756289,22.8444512 C51.0001939,24.1013016 47.1513883,25.9375273 44.4243711,28.1555488 L44.4243711,28.1555488 Z" id="Layer-5"></path>
                <path d="M60,21.8535285 L60,16.2792969 L59.8924242,16.2792969 L59.8924242,16.2792969 C59.4883049,18.6716753 57.9611949,20.9041491 55.5756289,22.8444512 C56.9852979,22.4572217 58.4639404,22.1249881 60,21.8535285 L60,21.8535285 Z" id="Layer-6"></path>
                <path d="M42.9812502,42.5268508 C39.0529797,43.4710218 34.6500393,44 30,44 C13.4314575,44 0,37.2842712 0,29 L0,16.2792969 L0.107575784,16.2792969 C1.40579953,23.9647562 14.2932931,30 30,30 C35.2283274,30 40.1442747,29.3312711 44.4243711,28.1555488 C41.6183006,30.4378685 40,33.1244407 40,36 C40,38.3393245 41.0710148,40.5535746 42.9812471,42.5268516 L42.9812502,42.5268508 Z" id="Layer-7"></path>
                <path d="M57.0187498,77.5268508 C60.9470203,78.4710218 65.3499607,79 70,79 C86.5685425,79 100,72.2842712 100,64 L100,51.2792969 L99.8924242,51.2792969 L99.8924242,51.2792969 C98.5942005,58.9647562 85.7067069,65 70,65 C64.7716726,65 59.8557253,64.3312711 55.5756289,63.1555488 C58.3816994,65.4378685 60,68.1244407 60,71 C60,73.3393245 58.9289852,75.5535746 57.0187529,77.5268516 L57.0187498,77.5268508 Z" id="Layer-8"></path>
                <path d="M40,56.8535285 L40,51.2792969 L40.1075758,51.2792969 C40.5116951,53.6716753 42.0388051,55.9041491 44.4243711,57.8444512 C43.0147021,57.4572217 41.5360596,57.1249881 40,56.8535285 L40,56.8535285 Z" id="Layer-9"></path>
                <path d="M60,21.8535285 L60,16.2792969 L59.8924242,16.2792969 L59.8924242,16.2792969 C59.4883049,18.6716753 57.9611949,20.9041491 55.5756289,22.8444512 C56.9852979,22.4572217 58.4639404,22.1249881 60,21.8535285 L60,21.8535285 Z" id="Layer-10"></path>
                <path d="M40,56.8535285 L40,51.2792969 L40.1075758,51.2792969 C40.5116951,53.6716753 42.0388051,55.9041491 44.4243711,57.8444512 C43.0147021,57.4572217 41.5360596,57.1249881 40,56.8535285 L40,56.8535285 Z" id="Layer-11"></path>
            </g>
        </g>
    </g>
</svg>