<?xml version="1.0" encoding="UTF-8"?>
<svg width="104px" height="104px" viewBox="0 0 104 104" version="1.1" xmlns="http://www.w3.org/2000/svg" xmlns:xlink="http://www.w3.org/1999/xlink">
    <!-- Generator: Sketch 46 (44423) - http://www.bohemiancoding.com/sketch -->
    <title>business-26</title>
    <desc>Created with Sketch.</desc>
    <defs></defs>
    <g id="ALL" stroke="none" stroke-width="1" fill="none" fill-rule="evenodd" stroke-linecap="round" stroke-linejoin="round">
        <g id="Secondary" transform="translate(-2516.000000, -5351.000000)" stroke="#868E96" stroke-width="3.5">
            <g id="business-26" transform="translate(2518.000000, 5353.000000)">
                <path d="M50.1138942,100 C77.7281316,100 100.113894,77.6142375 100.113894,50 C100.113894,22.3857625 77.7281316,0 50.1138942,0 C22.4996567,0 0.113894156,22.3857625 0.113894156,50 C0.113894156,77.6142375 22.4996567,100 50.1138942,100 Z" id="Layer-1"></path>
                <path d="M66.6700464,37.7929688 C66.6700464,29.2675781 63.1910425,23.2133789 52.367312,23.2133789 C41.5435815,23.2133789 35.8090479,29.3256905 35.8090479,37.1318396 C35.8090479,41.4361648 37.2681412,44.9379887 39.2379171,48.1479939 L40.1863278,49.6800419 C42.6667864,53.6925484 43.9799703,56.7566443 43.9799703,60.4043776 C43.9799703,67.9916627 36.9484709,72.295989 31.3309618,73.9009916 C31.3309618,73.9009916 40.8164167,70.7334483 46.3849094,71.2749087 C50.3286207,71.6583811 53.5592065,73.9009933 59.5787378,73.9009933 C65.598269,73.9009933 69.6124292,71.27491 69.6124292,71.27491" id="Layer-2"></path>
                <path d="M32.1039932,52.2178218 L51.9059734,52.2178218" id="Layer-3"></path>
            </g>
        </g>
    </g>
</svg>