<?xml version="1.0" encoding="UTF-8"?>
<svg width="103px" height="104px" viewBox="0 0 103 104" version="1.1" xmlns="http://www.w3.org/2000/svg" xmlns:xlink="http://www.w3.org/1999/xlink">
    <!-- Generator: Sketch 46 (44423) - http://www.bohemiancoding.com/sketch -->
    <title>business-1</title>
    <desc>Created with Sketch.</desc>
    <defs></defs>
    <g id="ALL" stroke="none" stroke-width="1" fill="none" fill-rule="evenodd" stroke-linecap="round" stroke-linejoin="round">
        <g id="Secondary" transform="translate(-4624.000000, -5041.000000)" stroke="#868E96" stroke-width="3.5">
            <g id="business-1" transform="translate(4626.000000, 5043.000000)">
                <rect id="Layer-1" x="0.112766491" y="0" width="99.009901" height="100" rx="3"></rect>
                <polygon id="Layer-2" points="89.2216774 80 89.2216774 90 10.0137566 90 10.0137566 10 89.2216774 10 89.2216774 20 99.1226675 20 99.1226675 30 89.2216774 30 89.2216774 70 99.1226675 70 99.1226675 80 89.2216774 80"></polygon>
                <ellipse id="Layer-3" cx="51.1250734" cy="49.500281" rx="17.3069797" ry="17.4800495"></ellipse>
                <path d="M63.1310309,61.626298 L40.2869832,38.5538099" id="Layer-4"></path>
                <path d="M40.2869832,61.626298 L63.1310309,38.5538099" id="Layer-5"></path>
                <path d="M10.0137566,34 L12.9840536,34 C14.6245034,34 15.9543506,35.3277717 15.9543506,36.9723924 L15.9543506,61.0276076 C15.9543506,62.6692146 14.6211654,64 12.9840536,64 L10.0137566,64 L10.0137566,34 Z" id="Layer-6"></path>
            </g>
        </g>
    </g>
</svg>