<?xml version="1.0" encoding="UTF-8"?>
<svg width="104px" height="94px" viewBox="0 0 104 94" version="1.1" xmlns="http://www.w3.org/2000/svg" xmlns:xlink="http://www.w3.org/1999/xlink">
    <!-- Generator: Sketch 46 (44423) - http://www.bohemiancoding.com/sketch -->
    <title>business-15</title>
    <desc>Created with Sketch.</desc>
    <defs></defs>
    <g id="ALL" stroke="none" stroke-width="1" fill="none" fill-rule="evenodd" stroke-linecap="round" stroke-linejoin="round">
        <g id="Secondary" transform="translate(-8845.000000, -5041.000000)" stroke="#868E96" stroke-width="3.5">
            <g id="business-15" transform="translate(8847.000000, 5043.000000)">
                <path d="M-5.29395592e-23,40 L10.0053711,40 C18.6455079,40 25.4643555,32.2714844 30.0864258,26.6328125 C35.0594758,20.5659647 37.5183695,19.2507478 40.0375977,18.652832 C42.6675334,18.0286409 45.3423984,18.2941746 50,20 C59.1191406,23.3398437 62.9936523,15.2324219 70.2202148,7.67285156 C77.4467773,0.11328125 84.6460303,0.11328125 89.6625977,0.11328125 C99.6337891,0.11328125 100,0.11328125 100,0.11328125 L100,90 L-5.29395592e-23,90 L-5.29395592e-23,40 Z" id="Layer-1"></path>
                <path d="M100,90 L100,30 L90.0981445,30 C74.1296387,30 76.019043,45.8955078 60.3330078,42.9477539 C44.6469727,40 40.8554687,40 29.9365234,50 C25.9121907,53.6856423 18.7089844,60 9.95458984,60 L0,60 L0,90 L100,90 L100,90 Z" id="Layer-2"></path>
                <path d="M0,72.0527344 L9.58837891,72.0527344 C16.3964844,72.0527344 20.3657227,71.9638672 30.3837891,68.4233399 C40.4018555,64.8828126 49.0332031,60.0000001 60.0888672,60.0000001 C69.6782227,60.0000001 76.3457031,65.2158204 80.3330078,61.8916016 C84.3203125,58.5673829 86.2895508,50.0000001 95.53125,50.0000001 L100,50.0000001 L100,90 L0,90 L0,72.0527344 Z" id="Layer-3"></path>
            </g>
        </g>
    </g>
</svg>