<?xml version="1.0" encoding="UTF-8"?>
<svg width="72px" height="104px" viewBox="0 0 72 104" version="1.1" xmlns="http://www.w3.org/2000/svg" xmlns:xlink="http://www.w3.org/1999/xlink">
    <!-- Generator: Sketch 46 (44423) - http://www.bohemiancoding.com/sketch -->
    <title>business-31</title>
    <desc>Created with Sketch.</desc>
    <defs></defs>
    <g id="ALL" stroke="none" stroke-width="1" fill="none" fill-rule="evenodd" stroke-linecap="round" stroke-linejoin="round">
        <g id="Secondary" transform="translate(-3985.000000, -5351.000000)" stroke="#868E96" fill-rule="nonzero" stroke-width="3.5">
            <g id="business-31" transform="translate(3987.000000, 5353.000000)">
                <path d="M9.77777778,0.555555556 L4.77777778,0.555555556 L4.77777778,5.55555556 L4.77777778,65 L0,65 L0,75 L4.77777778,75 L4.77777778,94.4444444 L4.77777778,99.4444444 L14.7777778,99.4444444 L14.7777778,94.4444444 L14.7777778,75 L48.8888889,75 L48.8888889,65 L14.7777778,65 L14.7777778,55 L40.8791722,55 C55.918585,55 68.1111111,42.8127383 68.1111111,27.7777778 C68.1111111,12.7410097 55.9193062,0.555555556 40.8791722,0.555555556 L9.77777778,0.555555556 L9.77777778,0.555555556 L9.77777778,0.555555556 Z M40.8791722,10.5555556 C50.3976248,10.5555556 58.1111111,18.2650239 58.1111111,27.7777778 C58.1111111,37.2889238 50.3967041,45 40.8791722,45 L14.7777778,45 L14.7777778,10.5555556 L40.8791722,10.5555556 L40.8791722,10.5555556 L40.8791722,10.5555556 Z" id="Layer-1"></path>
            </g>
        </g>
    </g>
</svg>