<?xml version="1.0" encoding="UTF-8"?>
<svg width="113px" height="114px" viewBox="0 0 113 114" version="1.1" xmlns="http://www.w3.org/2000/svg" xmlns:xlink="http://www.w3.org/1999/xlink">
    <!-- Generator: Sketch 46 (44423) - http://www.bohemiancoding.com/sketch -->
    <title>business-8</title>
    <desc>Created with Sketch.</desc>
    <defs></defs>
    <g id="ALL" stroke="none" stroke-width="1" fill="none" fill-rule="evenodd" stroke-linecap="round" stroke-linejoin="round">
        <g id="Secondary" transform="translate(-6735.000000, -5041.000000)" stroke="#868E96" stroke-width="3.5">
            <g id="business-8" transform="translate(6736.000000, 5043.000000)">
                <path d="M15.5569471,10 C15.5569471,15.7675389 10.881433,20.4430529 5.11389416,20.4430529 C10.881433,20.4430529 15.5569471,25.118567 15.5569471,30.8861058 C15.5569471,25.118567 20.2324611,20.4430529 26,20.4430529 C20.2324611,20.4430529 15.5569471,15.7675389 15.5569471,10 Z" id="Layer-1"></path>
                <path d="M109.113894,40 C103.591047,40 99.1138942,35.5228475 99.1138942,30 C99.1138942,35.5228475 94.6367417,40 89.1138942,40 C94.6367417,40 99.1138942,44.4771525 99.1138942,50 C99.1138942,44.4771525 103.591047,40 109.113894,40 L109.113894,40 Z" id="Layer-2"></path>
                <path d="M65,0 C65,5.5228475 60.5228475,10 55,10 C60.5228475,10 65,14.4771525 65,20 C65,14.4771525 69.4771525,10 75,10 C69.4771525,10 65,5.5228475 65,0 Z" id="Layer-3"></path>
                <path d="M35.6147668,40.8561132 C36.2811985,38.1741559 39.0646554,36 41.8151862,36 L68.5719941,36 C71.3299595,36 74.10145,38.176384 74.7610664,40.8561132 L81.9548399,70.0812259 C82.351633,71.6932203 81.3398801,73 79.674701,73 L30.6260222,73 C28.9699432,73 27.949255,71.7048454 28.3488653,70.0966721 L35.6147668,40.8561132 Z" id="Layer-4"></path>
                <path d="M8.09183098,77.8561132 C8.75826273,75.1741559 11.5417197,73 14.2922505,73 L41.0490583,73 C43.8070237,73 46.5785142,75.176384 47.2381306,77.8561132 L54.4319042,107.081226 C54.8286973,108.69322 53.8169444,110 52.1517652,110 L3.10308643,110 C1.44700738,110 0.426319247,108.704845 0.825929565,107.096672 L8.09183098,77.8561132 Z" id="Layer-5"></path>
                <path d="M63.1377025,77.8561132 C63.8041343,75.1741559 66.5875912,73 69.338122,73 L96.0949299,73 C98.8528953,73 101.624386,75.176384 102.284002,77.8561132 L109.477776,107.081226 C109.874569,108.69322 108.862816,110 107.197637,110 L58.148958,110 C56.4928789,110 55.4721908,108.704845 55.8718011,107.096672 L63.1377025,77.8561132 Z" id="Layer-6"></path>
                <path d="M35.6147668,40.8561132 C36.2811985,38.1741559 39.0646554,36 41.8151862,36 L68.5719941,36 C71.3299595,36 74.10145,38.176384 74.7610664,40.8561132 L81.9548399,70.0812259 C82.351633,71.6932203 81.3398801,73 79.674701,73 L30.6260222,73 C28.9699432,73 27.949255,71.7048454 28.3488653,70.0966721 L35.6147668,40.8561132 Z" id="Layer-7"></path>
                <path d="M40.3063249,46.95 L41.3654459,42.6877224 L41.3654459,42.6877224 C41.4152243,42.4873963 41.6217976,42.325 41.8258509,42.325 L46.0385555,42.325" id="Layer-8"></path>
                <path d="M12.7833891,83.95 L13.8425101,79.6877224 L13.8425101,79.6877224 C13.8922885,79.4873963 14.0988618,79.325 14.3029151,79.325 L18.5156197,79.325" id="Layer-9"></path>
                <path d="M67.8292607,83.95 L68.8883817,79.6877224 L68.8883817,79.6877224 C68.9381601,79.4873963 69.1447334,79.325 69.3487867,79.325 L73.5614913,79.325" id="Layer-10"></path>
            </g>
        </g>
    </g>
</svg>