<?xml version="1.0" encoding="UTF-8"?>
<svg width="104px" height="104px" viewBox="0 0 104 104" version="1.1" xmlns="http://www.w3.org/2000/svg" xmlns:xlink="http://www.w3.org/1999/xlink">
    <!-- Generator: Sketch 46 (44423) - http://www.bohemiancoding.com/sketch -->
    <title>business-35</title>
    <desc>Created with Sketch.</desc>
    <defs></defs>
    <g id="ALL" stroke="none" stroke-width="1" fill="none" fill-rule="evenodd" stroke-linecap="round" stroke-linejoin="round">
        <g id="Secondary" transform="translate(-5088.000000, -5351.000000)" stroke="#868E96" stroke-width="3.5">
            <g id="business-35" transform="translate(5090.000000, 5353.000000)">
                <path d="M50.1138942,100 C77.7281316,100 100.113894,77.6142375 100.113894,50 C100.113894,22.3857625 77.7281316,0 50.1138942,0 C22.4996567,0 0.113894156,22.3857625 0.113894156,50 C0.113894156,77.6142375 22.4996567,100 50.1138942,100 L50.1138942,100 L50.1138942,100 L50.1138942,100 Z M50.1138942,70 C61.1595892,70 70.1138942,61.045695 70.1138942,50 C70.1138942,38.954305 61.1595892,30 50.1138942,30 C39.0681992,30 30.1138942,38.954305 30.1138942,50 C30.1138942,61.045695 39.0681992,70 50.1138942,70 L50.1138942,70 L50.1138942,70 L50.1138942,70 Z" id="Layer-1"></path>
                <path d="M85.4923504,85.2515655 C94.479786,76.2116584 100.033609,63.7543769 100.033609,49.9999306 C100.033609,22.4137754 77.6933534,0.0454663474 50.1178393,4.97379915e-14 L50.1138942,30.000077 C61.1226605,30.0433523 70.0336087,38.9810097 70.0336087,49.9999306 C70.0336087,55.4701053 67.8375285,60.427358 64.2789209,64.038136 L85.4923504,85.2515655 L85.4923504,85.2515655 Z" id="Layer-2"></path>
                <path d="M14.6551524,85.2515655 C5.66771678,76.2116584 0.113894156,63.7543769 0.113894156,49.9999306 C0.113894156,22.4137754 22.4541494,0.0454663474 50.0296635,4.97379915e-14 L50.0336087,30.000077 C39.0248423,30.0433523 30.1138942,38.9810097 30.1138942,49.9999306 C30.1138942,55.4701053 32.3099743,60.427358 35.8685819,64.038136 L14.6551524,85.2515655 L14.6551524,85.2515655 Z" id="Layer-3"></path>
            </g>
        </g>
    </g>
</svg>