<?xml version="1.0" encoding="UTF-8"?>
<svg width="104px" height="104px" viewBox="0 0 104 104" version="1.1" xmlns="http://www.w3.org/2000/svg" xmlns:xlink="http://www.w3.org/1999/xlink">
    <!-- Generator: Sketch 46 (44423) - http://www.bohemiancoding.com/sketch -->
    <title>business-5</title>
    <desc>Created with Sketch.</desc>
    <defs></defs>
    <g id="ALL" stroke="none" stroke-width="1" fill="none" fill-rule="evenodd" stroke-linecap="round" stroke-linejoin="round">
        <g id="Secondary" transform="translate(-5833.000000, -5041.000000)" stroke="#868E96" stroke-width="3.5">
            <g id="business-5" transform="translate(5835.000000, 5043.000000)">
                <path d="M75,22.9900874 C75,21.3387077 76.3441086,20 77.9907522,20 L97.0092478,20 C98.6609946,20 100,21.3383447 100,22.9900874 L100,100 L75,100 L75,22.9900874 Z" id="Layer-1"></path>
                <path d="M50,42.9959374 C50,41.3413269 51.3441086,40 52.9907522,40 L72.0092478,40 C73.6609946,40 75,41.3373097 75,42.9959374 L75,100 L50,100 L50,42.9959374 Z" id="Layer-2"></path>
                <path d="M25,63.0065012 C25,61.3460564 26.3441086,60 27.9907522,60 L47.0092478,60 C48.6609946,60 50,61.3423094 50,63.0065012 L50,100 L25,100 L25,63.0065012 Z" id="Layer-3"></path>
                <path d="M0,82.9942021 C0,81.3405499 1.34410858,80 2.99075223,80 L22.0092478,80 C23.6609946,80 25,81.343312 25,82.9942021 L25,100 L0,100 L0,82.9942021 Z" id="Layer-4"></path>
                <path d="M44.4385611,14.3511504 L49.6339582,19.5465475 C50.0243992,19.9369884 50.3427154,19.8050843 50.3433238,19.2503177 L50.3633329,1.00339299 C50.3639498,0.440810587 49.9147072,-0.000607704393 49.3599406,6.28010747e-07 L31.1130155,0.0200093937 C30.5504331,0.0206262966 30.4256223,0.338211498 30.8167857,0.729374937 L35.9950551,5.90764431 L19.9894189,21.9132804 C18.8212921,23.0814073 18.8217885,24.9790037 19.9924966,26.1497118 L24.1964937,30.3537088 C25.3640838,31.5212989 27.2639167,31.5257948 28.432925,30.3567865 L44.4385611,14.3511504 L44.4385611,14.3511504 Z" id="Layer-5"></path>
            </g>
        </g>
    </g>
</svg>