<?xml version="1.0" encoding="UTF-8"?>
<svg width="104px" height="104px" viewBox="0 0 104 104" version="1.1" xmlns="http://www.w3.org/2000/svg" xmlns:xlink="http://www.w3.org/1999/xlink">
    <!-- Generator: Sketch 46 (44423) - http://www.bohemiancoding.com/sketch -->
    <title>business-27</title>
    <desc>Created with Sketch.</desc>
    <defs></defs>
    <g id="ALL" stroke="none" stroke-width="1" fill="none" fill-rule="evenodd" stroke-linecap="round" stroke-linejoin="round">
        <g id="Secondary" transform="translate(-2817.000000, -5351.000000)" stroke="#868E96" stroke-width="3.5">
            <g id="business-27" transform="translate(2819.000000, 5353.000000)">
                <circle id="Layer-1" cx="50.1138942" cy="50" r="50"></circle>
                <path d="M53.8095463,26.989648 C51.4907058,26.8571429 50.4306643,26.8571429 48.6418445,26.8571429 L37.1138942,26.8571429 L37.1138942,72.5714286 L49.8343911,72.5714286 C51.4244532,72.5714286 52.6832523,72.5714286 54.339567,72.4389234 C61.1635836,72.0414079 67.0600639,67.7349896 67.0600639,60.447205 C67.0600639,54.2194617 63.6149294,49.515528 56.4596498,48.4554865 C61.9586147,47.5942029 65.3374966,43.552795 65.3374966,37.7888199 C65.3374966,31.4285714 60.6998155,27.4534161 53.8095463,26.989648 Z" id="Layer-2"></path>
                <path d="M56.8281808,48.6476191 L37.5492806,48.647619" id="Layer-3"></path>
                <path d="M41.8281799,20.3116883 L41.8281799,26.5454545" id="Layer-4"></path>
                <path d="M50.8281799,20.3116883 L50.8281799,26.5454545" id="Layer-5"></path>
                <path d="M41.2567513,73.4545455 L41.2567513,79.6883117" id="Layer-6"></path>
                <path d="M50.2567513,73.4545455 L50.2567513,79.6883117" id="Layer-7"></path>
            </g>
        </g>
    </g>
</svg>