<?xml version="1.0" encoding="UTF-8"?>
<svg width="105px" height="104px" viewBox="0 0 105 104" version="1.1" xmlns="http://www.w3.org/2000/svg" xmlns:xlink="http://www.w3.org/1999/xlink">
    <!-- Generator: Sketch 46 (44423) - http://www.bohemiancoding.com/sketch -->
    <title>business-43</title>
    <desc>Created with Sketch.</desc>
    <defs></defs>
    <g id="ALL" stroke="none" stroke-width="1" fill="none" fill-rule="evenodd" stroke-linecap="round" stroke-linejoin="round">
        <g id="Secondary" transform="translate(-7465.000000, -5351.000000)" stroke="#868E96" stroke-width="3.5">
            <g id="business-43" transform="translate(7467.000000, 5353.000000)">
                <path d="M50.1138942,100 C77.7281316,100 100.113894,77.6142375 100.113894,50 C100.113894,22.3857625 77.7281316,0 50.1138942,0 C22.4996567,0 0.113894156,22.3857625 0.113894156,50 C0.113894156,77.6142375 22.4996567,100 50.1138942,100 Z" id="Layer-5"></path>
                <path d="M35.619859,30.5447793 C29.894851,29.9325606 22.9867171,25.4860859 22.9867171,25.4860859 L8.46588759,49.6528045 C18.3618577,55.260814 20.2558463,62.5728274 24.6411168,66.4542768 C29.0263874,70.3357262 39.9674616,75.4539062 48.3371884,80.692313 C51.2867539,82.4645908 60.7774048,87.2505048 61.9461883,77.902063 C62.0289226,77.9760791 72.633542,82.1379078 70.2973947,72.355441 C77.4801681,74.7379058 78.1105399,68.2121738 77.2008104,65.7400547 C81.7861272,67.2497056 86.6935504,60.9340575 83.3159207,57.7996157 C75.0051387,50.4583775 73.6988822,47.8592218 56.228884,38.2017601 C53.8972174,36.9128086 51.0255664,35.5317625 48.0358463,34.2821122 C47.1387958,34.9224279 43.1919646,37.6909788 33.1782719,44.1313701 C26.3175467,43.5647709 30.9174051,35.657932 35.619859,30.5447793 L35.619859,30.5447793 Z" id="Layer-1"></path>
                <path d="M79.5517415,25.5207746 C79.5517415,25.5207746 74.7278743,26.8859322 68.8179162,24.9688 C58.7306116,21.2615183 44.7931626,24.6539109 40.7922324,26.128058 C36.7913022,27.602205 23.5385312,43.1124613 33.2502205,43.9145099 C44.8629019,36.4457155 47.9840598,34.0174589 47.9840598,34.0174589 C75.7296047,46.6428959 84.3319794,58.9603819 84.3692528,58.9853809 L93.2112753,50.800238 L79.5517415,25.5207746 L79.5517415,25.5207746 Z" id="Layer-2"></path>
                <path d="M14.4155058,15 L21.6282954,19.3338813 C23.5228983,20.4722735 24.1401048,22.9240506 23.0023262,24.8176321 L8.06830817,49.6720119 C6.93256159,51.5622116 4.48252785,52.1756078 2.58968544,51.0382736 L0.113894156,49.5506685 C0.235217751,36.1001122 5.66757498,23.9180693 14.4155058,15 L14.4155058,15 Z" id="Layer-3"></path>
                <path d="M86.8999115,16 C85.8099248,16.6583197 84.8275292,17.3061179 84.3468805,17.559934 L79.5484666,20.0938319 C78.2257365,20.7923258 77.727975,22.4308825 78.4362426,23.7538843 L93.4083745,51.7209344 C94.1172898,53.0451459 95.7629306,53.5502847 97.0854626,52.8518954 L100.261354,51.1748028 C100.269789,50.7967912 100.274029,50.4177447 100.274029,50.0377079 C100.274029,36.8889443 95.1985667,24.9256184 86.8999115,16 L86.8999115,16 Z" id="Layer-4"></path>
                <path d="M77.7730482,65.5987319 L61.4320828,55.7800893" id="Layer-6"></path>
                <path d="M72.1412773,72.1242442 L56.9675238,63.0069333" id="Layer-7"></path>
                <path d="M62.4724301,77.3189178 L51.9675238,71.0069333" id="Layer-8"></path>
            </g>
        </g>
    </g>
</svg>