<?xml version="1.0" encoding="UTF-8"?>
<svg width="104px" height="69px" viewBox="0 0 104 69" version="1.1" xmlns="http://www.w3.org/2000/svg" xmlns:xlink="http://www.w3.org/1999/xlink">
    <!-- Generator: Sketch 46 (44423) - http://www.bohemiancoding.com/sketch -->
    <title>business-10</title>
    <desc>Created with Sketch.</desc>
    <defs></defs>
    <g id="ALL" stroke="none" stroke-width="1" fill="none" fill-rule="evenodd" stroke-linecap="round" stroke-linejoin="round">
        <g id="Secondary" transform="translate(-7344.000000, -5041.000000)" stroke="#868E96" stroke-width="3.5">
            <g id="business-10" transform="translate(7346.000000, 5043.000000)">
                <path d="M100.113894,25.3554688 L100.113894,40.1048029 C100.113894,53.849162 77.7281316,64.9911665 50.1138942,64.9911665 C22.4996567,64.9911665 0.113894156,53.849162 0.113894156,40.1048029 L0.113894156,25.3554688 C0.625051364,38.8833528 22.8145096,49.7727273 50.1138942,49.7727273 C77.4132787,49.7727273 99.6027369,38.8833528 100.105189,25.3554688 L100.113894,25.3554688 Z" id="Layer-1"></path>
                <ellipse id="Layer-2" cx="50.1138942" cy="24.8863636" rx="50" ry="24.8863636"></ellipse>
                <ellipse id="Layer-3" cx="50.1138942" cy="25" rx="40" ry="16"></ellipse>
                <path d="M10.1138942,40.5 L10.1138942,54.5356684" id="Layer-4"></path>
                <path d="M20.1138942,45.5 L20.1138942,59.5356684" id="Layer-5"></path>
                <path d="M30.1138942,48.5 L30.1138942,62.5356684" id="Layer-6"></path>
                <path d="M40.1138942,50.5 L40.1138942,64.5356684" id="Layer-7"></path>
                <path d="M50.1138942,50.5 L50.1138942,64.5356684" id="Layer-8"></path>
                <path d="M60.1138942,50.5 L60.1138942,64.5356684" id="Layer-9"></path>
                <path d="M70.1138942,48.5 L70.1138942,62.5356684" id="Layer-10"></path>
                <path d="M80.1138942,45.5 L80.1138942,59.5356684" id="Layer-11"></path>
                <path d="M90.1138942,40.5 L90.1138942,54.5356684" id="Layer-12"></path>
            </g>
        </g>
    </g>
</svg>