<?xml version="1.0" encoding="UTF-8"?>
<svg width="103px" height="104px" viewBox="0 0 103 104" version="1.1" xmlns="http://www.w3.org/2000/svg" xmlns:xlink="http://www.w3.org/1999/xlink">
    <!-- Generator: Sketch 46 (44423) - http://www.bohemiancoding.com/sketch -->
    <title>business-41</title>
    <desc>Created with Sketch.</desc>
    <defs></defs>
    <g id="ALL" stroke="none" stroke-width="1" fill="none" fill-rule="evenodd" stroke-linecap="round" stroke-linejoin="round">
        <g id="Secondary" transform="translate(-6864.000000, -5351.000000)" stroke="#868E96" stroke-width="3.5">
            <g id="business-41" transform="translate(6866.000000, 5353.000000)">
                <path d="M89.643598,34.4170774 C88.4861454,31.9801627 85.2474386,25.3110672 82.9420859,22.0186825 C80.6130954,18.6925392 75.4741607,13.3946468 73.584128,11.4803509 L75.7368007,9.97303322 C76.6382627,9.34182279 76.8046231,8.02313676 76.1078467,7.02803696 L72.3217564,1.62093962 C71.6200431,0.618789118 70.3267448,0.332674709 69.4220669,0.966137018 C69.4220669,0.966137018 59.9968001,6.37838583 55.7575017,9.34677454 C51.2590184,12.4966464 43.2087219,19.3209188 43.2087219,19.3209188 C42.2996149,19.9574823 42.1355064,21.2745915 42.8322828,22.2696913 L46.6183731,27.6767887 C47.3200865,28.6789392 48.6128751,28.9654104 49.5169243,28.3323883 L51.5366985,26.9181273 C52.3235332,28.5017778 54.0352104,31.8934256 55.7548195,34.9515384 L2.25579057,72.4119618 C-0.0115257222,73.9995537 -0.557006092,77.1143002 1.0268815,79.3763261 C2.6075462,81.6337492 5.7289596,82.1877685 7.99155493,80.6034822 L61.4798593,43.1505683 C63.7861189,45.8464811 66.3764068,48.5872561 67.5934021,49.8567908 L65.5770646,51.2686456 C64.6730153,51.9016677 64.5000505,53.2144706 65.2017638,54.2166211 L68.9878541,59.6237184 C69.6846305,60.6188182 70.9784367,60.9150846 71.8875437,60.278521 C71.8875437,60.278521 81.1989596,55.0115604 85.5829162,51.9418809 C89.9367413,48.8932998 98.1008887,41.9237392 98.1008887,41.9237392 C99.0055666,41.2902769 99.1790411,39.9771172 98.4773277,38.9749667 L94.6912374,33.5678693 C93.994461,32.5727695 92.6984029,32.27808 91.796941,32.9092905 L89.643598,34.4170774 L89.643598,34.4170774 L89.643598,34.4170774 Z" id="Layer-1"></path>
                <rect id="Layer-2" x="56.1138942" y="82" width="36" height="8" rx="3"></rect>
                <rect id="Layer-3" x="49.1138942" y="90" width="50" height="10" rx="3"></rect>
                <path d="M56.402358,24.2113633 L50.5169243,28.3323883 M76.7368007,9.97303322 L70.9235079,14.0435447" id="Layer-4"></path>
                <path d="M72.4624982,47.1476206 L66.5770646,51.2686456 M92.796941,32.9092905 L86.9836481,36.979802" id="Layer-5"></path>
            </g>
        </g>
    </g>
</svg>