<?xml version="1.0" encoding="UTF-8"?>
<svg width="104px" height="104px" viewBox="0 0 104 104" version="1.1" xmlns="http://www.w3.org/2000/svg" xmlns:xlink="http://www.w3.org/1999/xlink">
    <!-- Generator: Sketch 46 (44423) - http://www.bohemiancoding.com/sketch -->
    <title>business-38</title>
    <desc>Created with Sketch.</desc>
    <defs></defs>
    <g id="ALL" stroke="none" stroke-width="1" fill="none" fill-rule="evenodd" stroke-linecap="round" stroke-linejoin="round">
        <g id="Secondary" transform="translate(-5971.000000, -5351.000000)" stroke="#868E96" stroke-width="3.5">
            <g id="business-38" transform="translate(5973.000000, 5353.000000)">
                <path d="M40.2881963,78 L3.11389416,78 L3.11389416,96.9986131 C3.11389416,98.6569187 4.45468144,100 6.10862637,100 L94.1191619,100 C95.7670209,100 97.1138942,98.6562333 97.1138942,96.9986131 L97.1138942,78 L59.9400869,78 C59.2634214,80.8667 56.6901141,83 53.6204673,83 L46.607321,83 C43.5376733,83 40.9655129,80.8624955 40.2881963,78 L40.2881963,78 Z" id="Layer-1"></path>
                <path d="M0.113894156,25.0000319 C0.113894156,22.2385905 2.34274372,20 5.10712321,20 L95.1206651,20 C97.8783494,20 100.113894,22.245531 100.113894,25.0000319 L100.113894,70 L0.113894156,70 L0.113894156,25.0000319 Z" id="Layer-2"></path>
                <path d="M59.9400869,78 L100.113894,78 L100.113894,70 L0.113894156,70 L0.113894156,78 L40.2881963,78 C40.1742147,77.5182875 40.1138942,77.0160436 40.1138942,76.5 L40.1138942,70 L60.1138942,70 L60.1138942,76.5 C60.1138942,77.0162692 60.0537464,77.5184807 59.9400869,78 L59.9400869,78 Z" id="Layer-3"></path>
                <path d="M40.1138942,70 L60.1138942,70 L60.1138942,76.5 C60.1138942,80.0898509 57.2057224,83 53.6204673,83 L46.607321,83 C43.0211004,83 40.1138942,80.0825462 40.1138942,76.5 L40.1138942,70 Z" id="Layer-4"></path>
                <path d="M30.1138942,20 L30.1138942,9.99581889 C30.1138942,4.47528055 34.5859701,0 40.1044009,0 L60.1233874,0 C65.6409919,0 70.1138942,4.47404239 70.1138942,10.0045467 L70.1138942,20 L30.1138942,20 Z" id="Layer-5"></path>
            </g>
        </g>
    </g>
</svg>