<?xml version="1.0" encoding="UTF-8"?>
<svg width="104px" height="104px" viewBox="0 0 104 104" version="1.1" xmlns="http://www.w3.org/2000/svg" xmlns:xlink="http://www.w3.org/1999/xlink">
    <!-- Generator: Sketch 46 (44423) - http://www.bohemiancoding.com/sketch -->
    <title>business-6</title>
    <desc>Created with Sketch.</desc>
    <defs></defs>
    <g id="ALL" stroke="none" stroke-width="1" fill="none" fill-rule="evenodd" stroke-linecap="round" stroke-linejoin="round">
        <g id="Secondary" transform="translate(-6133.000000, -5041.000000)" stroke="#868E96" stroke-width="3.5">
            <g id="business-6" transform="translate(6135.000000, 5043.000000)">
                <path d="M25,22.9900874 C25,21.3387077 23.6558914,20 22.0092478,20 L2.99075223,20 C1.33900538,20 0,21.3383447 0,22.9900874 L0,100 L25,100 L25,22.9900874 L25,22.9900874 Z" id="Layer-1"></path>
                <path d="M50,42.9959374 C50,41.3413269 48.6558914,40 47.0092478,40 L27.9907522,40 C26.3390054,40 25,41.3373097 25,42.9959374 L25,100 L50,100 L50,42.9959374 L50,42.9959374 Z" id="Layer-2"></path>
                <path d="M75,63.0065012 C75,61.3460564 73.6558914,60 72.0092478,60 L52.9907522,60 C51.3390054,60 50,61.3423094 50,63.0065012 L50,100 L75,100 L75,63.0065012 L75,63.0065012 Z" id="Layer-3"></path>
                <path d="M100,82.9942021 C100,81.3405499 98.6558914,80 97.0092478,80 L77.9907522,80 C76.3390054,80 75,81.343312 75,82.9942021 L75,100 L100,100 L100,82.9942021 L100,82.9942021 Z" id="Layer-4"></path>
                <path d="M75.324667,16.880324 L80.5200641,11.6849269 C80.910505,11.294486 81.2288213,11.4263901 81.2294296,11.9811567 L81.2494388,30.2280814 C81.2500557,30.7906638 80.800813,31.2320821 80.2460464,31.2314738 L61.9991213,31.211465 C61.4365389,31.2108481 61.3117281,30.8932629 61.7028915,30.5020994 L66.8811609,25.3238301 L50.8755248,9.31819396 C49.7073979,8.15006708 49.7078944,6.25247069 50.8786025,5.08176261 L55.0825995,0.877765546 C56.2501896,-0.289824544 58.1500225,-0.29432046 59.3190309,0.87468788 L75.324667,16.880324 L75.324667,16.880324 L75.324667,16.880324 Z" id="Layer-5"></path>
            </g>
        </g>
    </g>
</svg>