<?xml version="1.0" encoding="UTF-8"?>
<svg width="103px" height="104px" viewBox="0 0 103 104" version="1.1" xmlns="http://www.w3.org/2000/svg" xmlns:xlink="http://www.w3.org/1999/xlink">
    <!-- Generator: Sketch 46 (44423) - http://www.bohemiancoding.com/sketch -->
    <title>communications-13</title>
    <desc>Created with Sketch.</desc>
    <defs></defs>
    <g id="ALL" stroke="none" stroke-width="1" fill="none" fill-rule="evenodd" stroke-linecap="round" stroke-linejoin="round">
        <g id="Secondary" transform="translate(-2807.000000, -4740.000000)" stroke="#868E96" stroke-width="3.5">
            <g id="communications-13" transform="translate(2808.000000, 4742.000000)">
                <path d="M38.628681,32.8956218 C39.9281883,29.9244872 39.2895405,25.5211554 37.18783,23.0435395 L27.7761605,11.9485285 C25.6808932,9.47850827 22.136852,9.34010755 19.8709127,11.6287063 L13.3874396,18.1770141 C9.3989952,22.2053429 10.9051527,29.9170151 12.9729992,35.1664137 C12.9729992,35.1664137 15.5934888,43.9687073 36.0300576,64.6096418 C56.4666264,85.2505763 65.1817686,87.8972708 65.1817686,87.8972708 C70.379193,89.9857958 78.0145119,91.5070148 82.0029564,87.478686 L88.4864294,80.9303782 C90.7523688,78.6417795 90.6153384,75.0622979 88.1697738,72.9460779 L77.1846144,63.4402917 C74.7315293,61.3175641 70.3717948,60.6725298 67.4300775,61.9850322 C67.4300775,61.9850322 59.4404881,65.9276172 57.1650693,63.6294442 L47.0828097,53.4463622 L36.6658486,42.9252313 C34.3904298,40.6270583 38.628681,32.8956218 38.628681,32.8956218 Z" id="Layer-1"></path>
                <path d="M99.9949996,0 L0.987598802,99.9974747" id="Layer-2"></path>
            </g>
        </g>
    </g>
</svg>