<?xml version="1.0" encoding="UTF-8"?>
<svg width="104px" height="104px" viewBox="0 0 104 104" version="1.1" xmlns="http://www.w3.org/2000/svg" xmlns:xlink="http://www.w3.org/1999/xlink">
    <!-- Generator: Sketch 46 (44423) - http://www.bohemiancoding.com/sketch -->
    <title>communications-12</title>
    <desc>Created with Sketch.</desc>
    <defs></defs>
    <g id="ALL" stroke="none" stroke-width="1" fill="none" fill-rule="evenodd" stroke-linecap="round" stroke-linejoin="round">
        <g id="Secondary" transform="translate(-2506.000000, -4740.000000)" stroke="#868E96" stroke-width="3.5">
            <g id="communications-12" transform="translate(2508.000000, 4742.000000)">
                <path d="M28.0149678,42.8956218 C29.3274702,39.9244872 28.6824359,35.5211554 26.5597083,33.0435395 L17.0539221,21.9485285 C14.9377021,19.4785083 11.3582205,19.3401075 9.06962183,21.6287063 L2.52131402,28.1770141 C-1.50701485,32.2053429 0.0142042229,39.9170151 2.10272922,45.1664137 C2.10272922,45.1664137 4.74942368,53.9687073 25.3903582,74.6096418 C46.0312927,95.2505763 54.8335863,97.8972708 54.8335863,97.8972708 C60.0829849,99.9857958 67.7946571,101.507015 71.8229859,97.478686 L78.3712937,90.9303782 C80.6598925,88.6417795 80.5214917,85.0622979 78.0514715,82.9460779 L66.9564605,73.4402917 C64.4788446,71.3175641 60.0755128,70.6725298 57.1043782,71.9850322 C57.1043782,71.9850322 49.034893,75.9276172 46.73672,73.6294442 L36.5536378,63.4463622 L26.0325071,52.9252313 C23.7343341,50.6270583 28.0149678,42.8956218 28.0149678,42.8956218 Z" id="Layer-1"></path>
                <path d="M100,-8.52651283e-14 C77.90861,-8.52651283e-14 60,17.90861 60,40" id="Layer-2" transform="translate(80.000000, 20.000000) rotate(-270.000000) translate(-80.000000, -20.000000) "></path>
                <path d="M72,28 C65.372583,28 60,33.372583 60,40" id="Layer-3" transform="translate(66.000000, 34.000000) rotate(-270.000000) translate(-66.000000, -34.000000) "></path>
                <path d="M86,14 C71.6405965,14 60,25.6405965 60,40" id="Layer-4" transform="translate(73.000000, 27.000000) rotate(-270.000000) translate(-73.000000, -27.000000) "></path>
            </g>
        </g>
    </g>
</svg>