<?xml version="1.0" encoding="UTF-8"?>
<svg width="114px" height="104px" viewBox="0 0 114 104" version="1.1" xmlns="http://www.w3.org/2000/svg" xmlns:xlink="http://www.w3.org/1999/xlink">
    <!-- Generator: Sketch 46 (44423) - http://www.bohemiancoding.com/sketch -->
    <title>communications-25</title>
    <desc>Created with Sketch.</desc>
    <defs></defs>
    <g id="ALL" stroke="none" stroke-width="1" fill="none" fill-rule="evenodd" stroke-linecap="round" stroke-linejoin="round">
        <g id="Secondary" transform="translate(-6457.000000, -4740.000000)" stroke="#868E96" stroke-width="3.5">
            <g id="communications-25" transform="translate(6459.000000, 4742.000000)">
                <path d="M80.5932449,54.0467831 C82.2217322,51.1613743 84.8635242,51.1711376 86.4882836,54.0586931 L109.391973,94.7635952 C111.019226,97.6555817 109.652877,100 106.32878,100 L60.6674397,100 C57.3484325,100 55.9739883,97.6680139 57.6064827,94.7755051 L80.5932449,54.0467831 Z" id="Layer-1"></path>
                <path d="M83.5,65.4714518 L83.5,83.4714518" id="Layer-2"></path>
                <path d="M83.5,92.0138779 L83.5,90.0138779" id="Layer-3"></path>
                <path d="M99.734047,77.5993331 C99.9069199,77.0390229 100,76.4437008 100,75.8266924 L100,6.00035205 C100,2.68644912 97.312319,0 94.0069352,0 L5.99306484,0 C2.68318653,0 0,2.68760658 0,6.00035205 L0,75.8266924 C0,79.1405954 2.68768095,81.8270445 5.99306484,81.8270445 L13.0140841,81.8270445 C14.4035666,91.9812737 10.8956473,99.9999994 10.8956473,100 C10.8956473,100.000001 26.3406023,100 29.7345276,81.8270445 L64.9144259,81.8270445 L80.5932449,54.0467831 C82.2217322,51.1613743 84.8635242,51.1711376 86.4882836,54.0586931 L99.7340466,77.5993323 L99.734047,77.5993331 Z" id="Layer-4"></path>
            </g>
        </g>
    </g>
</svg>