<?xml version="1.0" encoding="UTF-8"?>
<svg width="104px" height="104px" viewBox="0 0 104 104" version="1.1" xmlns="http://www.w3.org/2000/svg" xmlns:xlink="http://www.w3.org/1999/xlink">
    <!-- Generator: Sketch 46 (44423) - http://www.bohemiancoding.com/sketch -->
    <title>communications-4</title>
    <desc>Created with Sketch.</desc>
    <defs></defs>
    <g id="ALL" stroke="none" stroke-width="1" fill="none" fill-rule="evenodd" stroke-linecap="round" stroke-linejoin="round">
        <g id="Secondary" transform="translate(-9344.000000, -4438.000000)" stroke="#868E96" stroke-width="3.5">
            <g id="communications-4" transform="translate(9346.000000, 4440.000000)">
                <path d="M32.5400388,41.1557865 C29.6673751,38.2831228 35.0180694,28.6190038 35.0180694,28.6190038 C36.6586673,24.9051536 35.8523893,19.4010894 33.1990282,16.3041262 L21.3170128,2.43561609 C18.6717862,-0.651852748 14.1975161,-0.824850481 11.33682,2.0358456 L3.1515849,10.2210807 C-1.88373411,15.2563997 0.017754954,24.8958136 2.62836346,31.4574418 C2.62836346,31.4574418 5.93667104,42.4601077 31.7373673,68.260804 C57.5380636,94.0615003 68.5407295,97.3698079 68.5407295,97.3698079 C75.1023578,99.9804164 84.7417716,101.881905 89.7770907,96.8465864 L97.9623257,88.6613514 C100.823022,85.8006553 100.650024,81.3263851 97.5625552,78.6811585 L83.6940451,66.7991431 C80.5970819,64.1457821 75.0930178,63.339504 71.3791675,64.9801019 C71.3791675,64.9801019 61.2924954,69.9082431 58.4198317,67.0355794 L45.6912117,54.3069597 L32.5400388,41.1557865 L32.5400388,41.1557865 Z" id="Layer-1"></path>
            </g>
        </g>
    </g>
</svg>