<?xml version="1.0" encoding="UTF-8"?>
<svg width="104px" height="104px" viewBox="0 0 104 104" version="1.1" xmlns="http://www.w3.org/2000/svg" xmlns:xlink="http://www.w3.org/1999/xlink">
    <!-- Generator: Sketch 46 (44423) - http://www.bohemiancoding.com/sketch -->
    <title>communications-41</title>
    <desc>Created with Sketch.</desc>
    <defs></defs>
    <g id="ALL" stroke="none" stroke-width="1" fill="none" fill-rule="evenodd" stroke-linecap="round" stroke-linejoin="round">
        <g id="Secondary" transform="translate(-1656.000000, -5041.000000)" stroke="#868E96" stroke-width="3.5">
            <g id="communications-41" transform="translate(1658.000000, 5043.000000)">
                <path d="M39.5243803,44.6939235 C37.8007506,42.9702937 41.0112259,37.1717163 41.0112259,37.1717163 C41.9956026,34.9433654 41.5118269,31.6408665 39.9197812,29.7826546 L32.7904416,21.4613964 C31.2032766,19.6088812 28.5186654,19.5050807 26.8022164,21.2215297 L21.8909855,26.1327606 C18.8697389,29.1540072 20.0106532,34.9377613 21.5770469,38.8748103 C21.5770469,38.8748103 23.5620678,45.4765305 39.0427686,60.9572314 C54.5234695,76.4379322 61.1251897,78.4229531 61.1251897,78.4229531 C65.0622387,79.9893468 70.8459928,81.1302611 73.8672394,78.1090145 L78.7784703,73.1977836 C80.4949193,71.4813346 80.3911188,68.7967234 78.5386036,67.2095584 L70.2173454,60.0802188 C68.3591335,58.4881731 65.0566346,58.0043974 62.8282837,58.9887741 C62.8282837,58.9887741 56.7761698,61.9457129 55.05254,60.2220831 L47.4152283,52.5847717 L39.5243803,44.6939235 L39.5243803,44.6939235 Z" id="Layer-1"></path>
                <path d="M75.2260742,77.2861328 C85.8535156,85.3154297 92.264473,76.7720119 93.0518255,75.4425886 C97.4661504,67.9891209 100,59.2904666 100,50 C100,22.3857625 77.6142375,0 50,0 C22.3857625,0 0,22.3857625 0,50 C0,77.6142375 22.3857625,100 50,100 C58.1626751,100 65.8684998,98.0439912 72.6743281,94.5751198" id="Layer-2"></path>
            </g>
        </g>
    </g>
</svg>