<?xml version="1.0" encoding="UTF-8"?>
<svg width="114px" height="104px" viewBox="0 0 114 104" version="1.1" xmlns="http://www.w3.org/2000/svg" xmlns:xlink="http://www.w3.org/1999/xlink">
    <!-- Generator: Sketch 46 (44423) - http://www.bohemiancoding.com/sketch -->
    <title>communications-20</title>
    <desc>Created with Sketch.</desc>
    <defs></defs>
    <g id="ALL" stroke="none" stroke-width="1" fill="none" fill-rule="evenodd" stroke-linecap="round" stroke-linejoin="round">
        <g id="Secondary" transform="translate(-4906.000000, -4740.000000)" stroke="#868E96" stroke-width="3.5">
            <g id="communications-20" transform="translate(4908.000000, 4742.000000)">
                <path d="M60,65.0315789 C60,87.5789471 85.0526316,97.6 85.0526316,97.6 C85.0526316,97.6 110.105263,87.5789471 110.105263,65.0315789 C110.105263,64.8992425 110.096124,64.7719889 110.078197,64.6496719 C110.096152,64.3617374 110.105263,64.0714064 110.105263,63.7789474 C110.105263,56.1690449 103.936218,50 96.3263158,50 C91.6661311,50 87.5462889,52.3134814 85.0526316,55.8546017 C82.5589743,52.3134814 78.4391321,50 73.7789474,50 C66.1690449,50 60,56.1690449 60,63.7789474 C60,64.0716496 60.0091267,64.3622201 60.0271109,64.65039 C60.009153,64.7725282 60,64.8995435 60,65.0315789 Z" id="Layer-1"></path>
                <path d="M100,50.4951436 L100,6.00035205 C100,2.68644912 97.312319,0 94.0069352,0 L5.99306484,0 C2.68318653,0 0,2.68760658 0,6.00035205 L0,75.8266924 C0,79.1405954 2.68768095,81.8270445 5.99306484,81.8270445 L13.0140841,81.8270445 C14.4035666,91.9812737 10.8956473,99.9999994 10.8956473,100 C10.8956473,100.000001 26.3406023,100 29.7345276,81.8270445 L65.2862316,81.8270445 C62.1953164,77.2828902 60,71.7060637 60,65.0315789 C60,64.8995435 60.009153,64.7725282 60.0271109,64.65039 C60.0091267,64.3622201 60,64.0716496 60,63.7789474 C60,56.1690449 66.1690449,50 73.7789474,50 C78.4391321,50 82.5589743,52.3134814 85.0526316,55.8546017 C87.5462889,52.3134814 91.6661311,50 96.3263158,50 C97.5985098,50 98.8304349,50.1724116 100,50.4951436 Z" id="Layer-2"></path>
            </g>
        </g>
    </g>
</svg>