<?xml version="1.0" encoding="UTF-8"?>
<svg width="114px" height="104px" viewBox="0 0 114 104" version="1.1" xmlns="http://www.w3.org/2000/svg" xmlns:xlink="http://www.w3.org/1999/xlink">
    <!-- Generator: Sketch 46 (44423) - http://www.bohemiancoding.com/sketch -->
    <title>communications-28</title>
    <desc>Created with Sketch.</desc>
    <defs></defs>
    <g id="ALL" stroke="none" stroke-width="1" fill="none" fill-rule="evenodd" stroke-linecap="round" stroke-linejoin="round">
        <g id="Secondary" transform="translate(-7390.000000, -4740.000000)" stroke="#868E96" stroke-width="3.5">
            <g id="communications-28" transform="translate(7392.000000, 4742.000000)">
                <polyline id="Layer-1" points="109.837221 59.3078629 107.6942 67.3057287 99.6963339 65.1627071"></polyline>
                <path d="M107.674831,66.9219404 C104.856717,61.1468625 99.6472498,56.5774682 92.952838,54.783706 C80.6831177,51.4960443 68.0713677,58.7774416 64.783706,71.047162 C61.4960443,83.3168823 68.7774416,95.9286323 81.047162,99.216294 C93.3168823,102.503956 105.928632,95.2225584 109.216294,82.952838" id="Layer-2"></path>
                <path d="M100,58.0187362 L100,6.00035205 C100,2.68644912 97.312319,0 94.0069352,0 L5.99306484,0 C2.68318653,0 0,2.68760658 0,6.00035205 L0,75.8266924 C0,79.1405954 2.68768095,81.8270445 5.99306484,81.8270445 L13.0140841,81.8270445 C14.4035666,91.9812737 10.8956473,99.9999994 10.8956473,100 C10.8956473,100.000001 26.3406023,100 29.7345276,81.8270445 L64.5072668,81.8270445 C63.7630343,78.3728463 63.8063005,74.6948891 64.783706,71.047162 C68.0713677,58.7774416 80.6831177,51.4960443 92.952838,54.783706 C95.5413817,55.4773042 97.9079033,56.5859023 100,58.0187362 L100,58.0187362 Z" id="Layer-3"></path>
            </g>
        </g>
    </g>
</svg>