<?xml version="1.0" encoding="UTF-8"?>
<svg width="104px" height="104px" viewBox="0 0 104 104" version="1.1" xmlns="http://www.w3.org/2000/svg" xmlns:xlink="http://www.w3.org/1999/xlink">
    <!-- Generator: Sketch 46 (44423) - http://www.bohemiancoding.com/sketch -->
    <title>devices-15</title>
    <desc>Created with Sketch.</desc>
    <defs></defs>
    <g id="ALL" stroke="none" stroke-width="1" fill="none" fill-rule="evenodd" stroke-linecap="round" stroke-linejoin="round">
        <g id="Secondary" transform="translate(-8718.000000, -3515.000000)" stroke="#868E96" stroke-width="3.5">
            <g id="devices-15" transform="translate(8720.000000, 3517.000000)">
                <path d="M98.5659863,79.4705142 C99.3629486,79.9091653 100,79.4832316 100,78.525285 L100,56.7591407 C100,55.8075354 99.3579702,55.3780005 98.5659863,55.8139115 L84,63.0743116 L84,71.1023259 L98.5659863,79.4705142 Z" id="Layer-1"></path>
                <path d="M11.5097538,80.3505859 L6,75.4111328 L6,54.9901027 C6,52.2341451 8.22946192,50 10.9979064,50 L79.0020936,50 C81.7623611,50 84,52.245531 84,55.0000319 L84,94.9999681 C84,97.7614095 81.7710164,100 79.0031602,100 L16.5065936,100 C13.7469151,100 11.5097538,97.7650929 11.5097538,94.9907818 L11.5097538,80.3505859 Z" id="Layer-2"></path>
                <path d="M16,63 C17.6568542,63 19,61.6568542 19,60 C19,58.3431458 17.6568542,57 16,57 C14.3431458,57 13,58.3431458 13,60 C13,61.6568542 14.3431458,63 16,63 Z" id="Layer-3"></path>
                <path d="M24,63 C25.6568542,63 27,61.6568542 27,60 C27,58.3431458 25.6568542,57 24,57 C22.3431458,57 21,58.3431458 21,60 C21,61.6568542 22.3431458,63 24,63 Z" id="Layer-4"></path>
                <rect id="Layer-5" x="45" y="60" width="30" height="20"></rect>
                <path d="M0,59.0033512 C0,57.3446462 1.34651712,56 3,56 L6,56 L6,70 L3,70 C1.34314575,70 0,68.6576211 0,66.9966488 L0,59.0033512 Z" id="Layer-6"></path>
                <polygon id="Layer-7" points="20 50 20 40 70 40 70 50"></polygon>
                <circle id="Layer-8" cx="70" cy="20" r="20"></circle>
                <circle id="Layer-9" cx="20" cy="20" r="5"></circle>
                <circle id="Layer-10" cx="20" cy="20" r="20"></circle>
                <circle id="Layer-11" cx="20" cy="20" r="5"></circle>
                <circle id="Layer-12" cx="70" cy="20" r="5"></circle>
                <path d="M37.4916745,10 L52.5099964,10" id="Layer-13"></path>
            </g>
        </g>
    </g>
</svg>