<?xml version="1.0" encoding="UTF-8"?>
<svg width="99px" height="104px" viewBox="0 0 99 104" version="1.1" xmlns="http://www.w3.org/2000/svg" xmlns:xlink="http://www.w3.org/1999/xlink">
    <!-- Generator: Sketch 46 (44423) - http://www.bohemiancoding.com/sketch -->
    <title>devices-11</title>
    <desc>Created with Sketch.</desc>
    <defs></defs>
    <g id="ALL" stroke="none" stroke-width="1" fill="none" fill-rule="evenodd" stroke-linecap="round" stroke-linejoin="round">
        <g id="Secondary" transform="translate(-7563.000000, -3515.000000)" stroke="#868E96" stroke-width="3.5">
            <g id="devices-11" transform="translate(7565.000000, 3517.000000)">
                <path d="M49.3493123,6.25 L13.3139918,6.25 C9.99184502,6.25 7.30769231,8.93542331 7.30769231,12.2480608 L7.30769231,73.1686058 C7.30769231,76.485047 9.99680421,79.1666667 13.3139918,79.1666667 L84.8178763,79.1666667 C88.1400231,79.1666667 90.8241758,76.4812434 90.8241758,73.1686058 L90.8241758,47.6340183 C90.2475807,47.8175858 89.6329797,47.9166667 88.9949231,47.9166667 L55.071011,47.9166667 C51.7544986,47.9166667 49.0659341,45.2206955 49.0659341,41.9247588 L49.0659341,8.07524125 C49.0659341,7.43877401 49.1652549,6.82548423 49.3493123,6.25 L49.3493123,6.25 Z" id="Layer-1"></path>
                <rect id="Layer-2" x="15.6593407" y="14.5833333" width="25.0549451" height="25" rx="1"></rect>
                <rect id="Layer-3" x="49.0659341" y="2.08333333" width="45.9340659" height="45.8333333" rx="6"></rect>
                <path d="M72.3296703,40.3333333 C80.6139416,40.3333333 87.3296703,33.6176046 87.3296703,25.3333333 C87.3296703,17.0490621 80.6139416,10.3333333 72.3296703,10.3333333 C64.0453991,10.3333333 57.3296703,17.0490621 57.3296703,25.3333333 C57.3296703,33.6176046 64.0453991,40.3333333 72.3296703,40.3333333 Z" id="Layer-4"></path>
                <path d="M15.6593407,2.99685812 C15.6593407,1.34173908 17.0027587,0 18.6508997,0 L23.1073421,0 C24.7595345,0 26.0989011,1.3407818 26.0989011,2.99685812 L26.0989011,6.25 L15.6593407,6.25 L15.6593407,2.99685812 Z" id="Layer-5"></path>
                <ellipse id="Layer-6" cx="28.2637363" cy="59.25" rx="6.26373626" ry="6.25"></ellipse>
                <rect id="Layer-7" x="38.6263736" y="79.1666667" width="20.8791209" height="10.4166667"></rect>
                <rect id="Layer-8" x="33.4065934" y="89.5833333" width="31.3186813" height="10.4166667"></rect>
                <path d="M38.1043956,89.5833333 L8.35164835,89.5833333" id="Layer-9"></path>
                <rect id="Layer-10" x="0" y="83.3333333" width="7.30769231" height="12.5" rx="3.65384615"></rect>
                <path d="M64,64 L80,64" id="Layer-11"></path>
            </g>
        </g>
    </g>
</svg>