<?xml version="1.0" encoding="UTF-8"?>
<svg width="90px" height="104px" viewBox="0 0 90 104" version="1.1" xmlns="http://www.w3.org/2000/svg" xmlns:xlink="http://www.w3.org/1999/xlink">
    <!-- Generator: Sketch 46 (44423) - http://www.bohemiancoding.com/sketch -->
    <title>devices-37</title>
    <desc>Created with Sketch.</desc>
    <defs></defs>
    <g id="ALL" stroke="none" stroke-width="1" fill="none" fill-rule="evenodd" stroke-linecap="round" stroke-linejoin="round">
        <g id="Secondary" transform="translate(-5739.000000, -3815.000000)" stroke="#868E96" stroke-width="3.5">
            <g id="devices-37" transform="translate(5741.000000, 3817.000000)">
                <rect id="Layer-1" x="0" y="0" width="86" height="86" rx="6"></rect>
                <rect id="Layer-2" x="8" y="8" width="70" height="60" rx="1"></rect>
                <path d="M69.5,93.5 L58.5,93.5" id="Layer-3"></path>
                <path d="M19.5,76.5 L8.5,76.5" id="Layer-4"></path>
                <path d="M52.5,93.5 L48.3768944,93.5" id="Layer-5"></path>
                <rect id="Layer-6" x="8" y="86" width="70" height="14"></rect>
                <path d="M42.9999998,20.309082 L43,37.991212 C43,39.6529197 41.6513555,41 39.9996703,41" id="Layer-7"></path>
                <path d="M57,46 L57,46 C57,52.627417 51.468101,58 44.6474781,58 L41.3525219,58 C34.5304124,58 29,52.6288742 29,46 L29,46 L29,46" id="Layer-8"></path>
                <path d="M26,20 L26,26" id="Layer-9"></path>
                <path d="M60,20 L60,26" id="Layer-10"></path>
            </g>
        </g>
    </g>
</svg>