<?xml version="1.0" encoding="UTF-8"?>
<svg width="84px" height="104px" viewBox="0 0 84 104" version="1.1" xmlns="http://www.w3.org/2000/svg" xmlns:xlink="http://www.w3.org/1999/xlink">
    <!-- Generator: Sketch 46 (44423) - http://www.bohemiancoding.com/sketch -->
    <title>devices-54</title>
    <desc>Created with Sketch.</desc>
    <defs></defs>
    <g id="ALL" stroke="none" stroke-width="1" fill="none" fill-rule="evenodd" stroke-linecap="round" stroke-linejoin="round">
        <g id="Secondary" transform="translate(-1306.000000, -4137.000000)" stroke="#868E96" stroke-width="3.5">
            <g id="devices-54" transform="translate(1308.000000, 4139.000000)">
                <path d="M0,5.99306484 C0,2.68318653 2.6853899,0 6.00254544,0 L54.9290967,0 C57.1406692,0 60.2354086,1.24046238 61.8295564,2.75937455 L77.1039465,17.3128911 C78.7033927,18.8368516 80,21.8537346 80,24.0632405 L80,93.9924293 C80,97.310319 77.3153812,100 74.0033657,100 L5.99663433,100 C2.68478464,100 0,97.312319 0,94.0069352 L0,5.99306484 Z" id="Layer-1"></path>
                <rect id="Layer-2" x="16" y="35" width="48" height="50" rx="5"></rect>
                <path d="M40,35.5 L40,49.5" id="Layer-3"></path>
                <path d="M29,35.5 L29,49.5" id="Layer-4"></path>
                <path d="M51,35.5 L51,49.5" id="Layer-5"></path>
                <path d="M40,70.5 L40,84.5" id="Layer-6"></path>
                <path d="M29,70.5 L29,84.5" id="Layer-7"></path>
                <path d="M51,70.5 L51,84.5" id="Layer-8"></path>
            </g>
        </g>
    </g>
</svg>