<?xml version="1.0" encoding="UTF-8"?>
<svg width="104px" height="90px" viewBox="0 0 104 90" version="1.1" xmlns="http://www.w3.org/2000/svg" xmlns:xlink="http://www.w3.org/1999/xlink">
    <!-- Generator: Sketch 46 (44423) - http://www.bohemiancoding.com/sketch -->
    <title>devices-42</title>
    <desc>Created with Sketch.</desc>
    <defs></defs>
    <g id="ALL" stroke="none" stroke-width="1" fill="none" fill-rule="evenodd" stroke-linecap="round" stroke-linejoin="round">
        <g id="Secondary" transform="translate(-7155.000000, -3815.000000)" stroke="#868E96" stroke-width="3.5">
            <g id="devices-42" transform="translate(7157.000000, 3817.000000)">
                <rect id="Layer-1" x="0" y="0" width="100" height="70"></rect>
                <rect id="Layer-2" x="25" y="81" width="50" height="5"></rect>
                <path d="M50,70 L50,81" id="Layer-3"></path>
                <path d="M35,23.0003297 C35,21.3432934 36.3486445,20 38.0003297,20 L41.9996703,20 C43.6567066,20 45,21.3486445 45,23.0003297 L45,26.9996703 C45,28.6567066 43.6513555,30 41.9996703,30 L38.0003297,30 C36.3432934,30 35,28.6513555 35,26.9996703 L35,23.0003297 L35,23.0003297 L35,23.0003297 L35,23.0003297 Z M15,23.0003297 C15,21.3432934 16.3486445,20 18.0003297,20 L21.9996703,20 C23.6567066,20 25,21.3486445 25,23.0003297 L25,26.9996703 C25,28.6567066 23.6513555,30 21.9996703,30 L18.0003297,30 C16.3432934,30 15,28.6513555 15,26.9996703 L15,23.0003297 L15,23.0003297 L15,23.0003297 L15,23.0003297 Z M55,23.0003297 C55,21.3432934 56.3486445,20 58.0003297,20 L61.9996703,20 C63.6567066,20 65,21.3486445 65,23.0003297 L65,26.9996703 C65,28.6567066 63.6513555,30 61.9996703,30 L58.0003297,30 C56.3432934,30 55,28.6513555 55,26.9996703 L55,23.0003297 L55,23.0003297 L55,23.0003297 L55,23.0003297 Z M75,23.0003297 C75,21.3432934 76.3486445,20 78.0003297,20 L81.9996703,20 C83.6567066,20 85,21.3486445 85,23.0003297 L85,26.9996703 C85,28.6567066 83.6513555,30 81.9996703,30 L78.0003297,30 C76.3432934,30 75,28.6513555 75,26.9996703 L75,23.0003297 L75,23.0003297 L75,23.0003297 L75,23.0003297 Z M35,43.0003297 C35,41.3432934 36.3486445,40 38.0003297,40 L41.9996703,40 C43.6567066,40 45,41.3486445 45,43.0003297 L45,46.9996703 C45,48.6567066 43.6513555,50 41.9996703,50 L38.0003297,50 C36.3432934,50 35,48.6513555 35,46.9996703 L35,43.0003297 L35,43.0003297 L35,43.0003297 L35,43.0003297 Z M15,43.0003297 C15,41.3432934 16.3486445,40 18.0003297,40 L21.9996703,40 C23.6567066,40 25,41.3486445 25,43.0003297 L25,46.9996703 C25,48.6567066 23.6513555,50 21.9996703,50 L18.0003297,50 C16.3432934,50 15,48.6513555 15,46.9996703 L15,43.0003297 L15,43.0003297 L15,43.0003297 L15,43.0003297 Z M55,43.0003297 C55,41.3432934 56.3486445,40 58.0003297,40 L61.9996703,40 C63.6567066,40 65,41.3486445 65,43.0003297 L65,46.9996703 C65,48.6567066 63.6513555,50 61.9996703,50 L58.0003297,50 C56.3432934,50 55,48.6513555 55,46.9996703 L55,43.0003297 L55,43.0003297 L55,43.0003297 L55,43.0003297 Z M75,43.0003297 C75,41.3432934 76.3486445,40 78.0003297,40 L81.9996703,40 C83.6567066,40 85,41.3486445 85,43.0003297 L85,46.9996703 C85,48.6567066 83.6513555,50 81.9996703,50 L78.0003297,50 C76.3432934,50 75,48.6513555 75,46.9996703 L75,43.0003297 L75,43.0003297 L75,43.0003297 L75,43.0003297 Z" id="Layer-4"></path>
            </g>
        </g>
    </g>
</svg>