<?xml version="1.0" encoding="UTF-8"?>
<svg width="104px" height="104px" viewBox="0 0 104 104" version="1.1" xmlns="http://www.w3.org/2000/svg" xmlns:xlink="http://www.w3.org/1999/xlink">
    <!-- Generator: Sketch 46 (44423) - http://www.bohemiancoding.com/sketch -->
    <title>devices-5</title>
    <desc>Created with Sketch.</desc>
    <defs></defs>
    <g id="ALL" stroke="none" stroke-width="1" fill="none" fill-rule="evenodd" stroke-linecap="round" stroke-linejoin="round">
        <g id="Secondary" transform="translate(-5763.000000, -3515.000000)" stroke="#868E96" stroke-width="3.5">
            <g id="devices-5" transform="translate(5765.000000, 3517.000000)">
                <path d="M0,50 L100,50 L100,91.9950833 C100,93.654653 98.6619875,95 97.0071986,95 L2.99280137,95 C1.33992281,95 0,93.6532394 0,91.9950833 L0,50 Z" id="Layer-1"></path>
                <path d="M0,13.0065012 C0,11.3460564 1.33801252,10 2.99280137,10 L97.0071986,10 C98.6600772,10 100,11.3423094 100,13.0065012 L100,50 L0,50 L0,13.0065012 Z" id="Layer-2"></path>
                <path d="M20,5 C20,2.23857625 22.2425656,0 24.9995286,0 L75.0004714,0 C77.7616348,0 80,2.24419519 80,5 L80,10 L20,10 L20,5 Z" id="Layer-3"></path>
                <path d="M10,10 L90,10 L90,28.9986131 C90,30.6562333 88.6616553,32 87.0099126,32 L12.9900874,32 C11.3387077,32 10,30.6569187 10,28.9986131 L10,10 Z" id="Layer-4"></path>
                <path d="M74,23 C75.1045695,23 76,22.1045695 76,21 C76,19.8954305 75.1045695,19 74,19 C72.8954305,19 72,19.8954305 72,21 C72,22.1045695 72.8954305,23 74,23 Z" id="Layer-5"></path>
                <path d="M80,23 C81.1045695,23 82,22.1045695 82,21 C82,19.8954305 81.1045695,19 80,19 C78.8954305,19 78,19.8954305 78,21 C78,22.1045695 78.8954305,23 80,23 Z" id="Layer-6"></path>
                <circle id="Layer-7" cx="21" cy="21" r="3"></circle>
                <circle id="Layer-8" cx="33" cy="21" r="3"></circle>
                <circle id="Layer-9" cx="45" cy="21" r="3"></circle>
                <rect id="Layer-10" x="40" y="76" width="20" height="8" rx="1"></rect>
                <rect id="Layer-11" x="10" y="95" width="80" height="5"></rect>
            </g>
        </g>
    </g>
</svg>