<?xml version="1.0" encoding="UTF-8"?>
<svg width="94px" height="104px" viewBox="0 0 94 104" version="1.1" xmlns="http://www.w3.org/2000/svg" xmlns:xlink="http://www.w3.org/1999/xlink">
    <!-- Generator: Sketch 46 (44423) - http://www.bohemiancoding.com/sketch -->
    <title>devices-45</title>
    <desc>Created with Sketch.</desc>
    <defs></defs>
    <g id="ALL" stroke="none" stroke-width="1" fill="none" fill-rule="evenodd" stroke-linecap="round" stroke-linejoin="round">
        <g id="Secondary" transform="translate(-8045.000000, -3815.000000)" stroke="#868E96" stroke-width="3.5">
            <g id="devices-45" transform="translate(8047.000000, 3817.000000)">
                <path d="M80,54.9981691 L80,33.0000191 C80,31.3473186 78.6612923,30 77.0099126,30 L2.99008742,30 C1.33834472,30 0,31.3431543 0,33.0000191 L0,56.9999809 C0,58.6526814 1.33870774,60 2.99008742,60 L44.9981691,60 C49.5592007,53.9277665 56.8209108,50 65,50 C70.6280296,50 75.8216973,51.8597241 80,54.9981691 L80,54.9981691 L80,54.9981691 L80,54.9981691 Z M44.9981691,60 L2.99008742,60 C1.33834472,60 0,61.3431543 0,63.0000191 L0,86.9999809 C0,88.6526814 1.33870774,90 2.99008742,90 L44.9981691,90 C41.8597241,85.8216973 40,80.6280296 40,75 C40,69.3719704 41.8597241,64.1783027 44.9981691,60 L44.9981691,60 L44.9981691,60 L44.9981691,60 Z M0,3.00001915 C0,1.34315432 1.33834472,0 2.99008742,0 L77.0099126,0 C78.6612923,0 80,1.34731857 80,3.00001915 L80,26.9999809 C80,28.6568457 78.6616553,30 77.0099126,30 L2.99008742,30 C1.33870774,30 0,28.6526814 0,26.9999809 L0,3.00001915 L0,3.00001915 L0,3.00001915 L0,3.00001915 Z" id="Layer-1"></path>
                <path d="M50.1626861,15.1037942 L68,15.1037942" id="Layer-2"></path>
                <path d="M10,10 L10,20" id="Layer-3"></path>
                <path d="M10,40 L10,50" id="Layer-4"></path>
                <path d="M10,70 L10,80" id="Layer-5"></path>
                <circle id="Layer-6" cx="65" cy="75" r="25"></circle>
                <polyline id="Layer-7" points="55 74.0326948 62.4628609 81.5647746 75.9836877 68"></polyline>
            </g>
        </g>
    </g>
</svg>