<?xml version="1.0" encoding="UTF-8"?>
<svg width="104px" height="104px" viewBox="0 0 104 104" version="1.1" xmlns="http://www.w3.org/2000/svg" xmlns:xlink="http://www.w3.org/1999/xlink">
    <!-- Generator: Sketch 46 (44423) - http://www.bohemiancoding.com/sketch -->
    <title>devices-22</title>
    <desc>Created with Sketch.</desc>
    <defs></defs>
    <g id="ALL" stroke="none" stroke-width="1" fill="none" fill-rule="evenodd" stroke-linecap="round" stroke-linejoin="round">
        <g id="Secondary" transform="translate(-1306.000000, -3815.000000)" stroke="#868E96" stroke-width="3.5">
            <g id="devices-22" transform="translate(1308.000000, 3817.000000)">
                <path d="M80,27 L80,2.99280137 C80,1.33801252 78.6612923,0 77.0099126,0 L2.99008742,0 C1.33834472,0 0,1.33992281 0,2.99280137 L0,97.0071986 C0,98.6619875 1.33870774,100 2.99008742,100 L56.1714387,100 C56.060416,99.6851045 56,99.3454188 56,98.9903655 L56,30.0096345 C56,28.3474593 57.3408574,27 59.0069809,27 L80,27 L80,27 Z" id="Layer-1"></path>
                <rect id="Layer-2" x="56" y="27" width="44" height="73" rx="3"></rect>
                <path d="M80,16 L80,2.99812151 C80,1.34298048 78.6612923,0 77.0099126,0 L2.99008742,0 C1.33834472,0 0,1.34230472 0,2.99812151 L0,16 L80,16 L80,16 Z" id="Layer-3"></path>
                <path d="M80,16 L80,2.99812151 C80,1.34298048 78.6612923,0 77.0099126,0 L2.99008742,0 C1.33834472,0 0,1.34230472 0,2.99812151 L0,16 L80,16 L80,16 Z" id="Layer-4"></path>
                <path d="M37,8 L43,8" id="Layer-5"></path>
                <path d="M56.1714387,100 L2.99008742,100 C1.33870774,100 0,98.6619875 0,97.0071986 L0,84 L56,84 L56,98.9903655 C56,99.3454188 56.060416,99.6851045 56.1714387,100 L56.1714387,100 Z" id="Layer-6"></path>
                <path d="M100,97.815255 C100,99.0218563 99.0193062,100 97.8029792,100 L58.1970208,100 C56.9836397,100 56,99.0232509 56,97.815255 L56,85.32 L100,85.32 L100,97.815255 Z" id="Layer-7"></path>
                <path d="M100,38.68 L100,29.4968514 C100,28.1162847 99.0163603,27 97.8029792,27 L58.1970208,27 C56.9806938,27 56,28.1178785 56,29.4968514 L56,38.68 L100,38.68 L100,38.68 Z" id="Layer-8"></path>
                <path d="M100,38.68 L100,29.4968514 C100,28.1162847 99.0163603,27 97.8029792,27 L58.1970208,27 C56.9806938,27 56,28.1178785 56,29.4968514 L56,38.68 L100,38.68 L100,38.68 Z" id="Layer-9"></path>
                <path d="M75.8,32.84 L80.2,32.84" id="Layer-10"></path>
                <path d="M78.3,94.97 C79.6807119,94.97 80.8,93.8507119 80.8,92.47 C80.8,91.0892881 79.6807119,89.97 78.3,89.97 C76.9192881,89.97 75.8,91.0892881 75.8,92.47 C75.8,93.8507119 76.9192881,94.97 78.3,94.97 Z" id="Layer-11"></path>
                <path d="M40,95 C41.6568542,95 43,93.6568542 43,92 C43,90.3431458 41.6568542,89 40,89 C38.3431458,89 37,90.3431458 37,92 C37,93.6568542 38.3431458,95 40,95 Z" id="Layer-12"></path>
            </g>
        </g>
    </g>
</svg>