<?xml version="1.0" encoding="UTF-8"?>
<svg width="104px" height="104px" viewBox="0 0 104 104" version="1.1" xmlns="http://www.w3.org/2000/svg" xmlns:xlink="http://www.w3.org/1999/xlink">
    <!-- Generator: Sketch 46 (44423) - http://www.bohemiancoding.com/sketch -->
    <title>devices-6</title>
    <desc>Created with Sketch.</desc>
    <defs></defs>
    <g id="ALL" stroke="none" stroke-width="1" fill="none" fill-rule="evenodd" stroke-linecap="round" stroke-linejoin="round">
        <g id="Secondary" transform="translate(-6063.000000, -3515.000000)" stroke="#868E96" stroke-width="3.5">
            <g id="devices-6" transform="translate(6065.000000, 3517.000000)">
                <rect id="Layer-1" x="0" y="0" width="100" height="100" rx="3"></rect>
                <path d="M20,36.6708322 L20,30" id="Layer-2"></path>
                <path d="M20,43.5 L20,90.5" id="Layer-3"></path>
                <path d="M40,56.5 L40,30" id="Layer-4"></path>
                <path d="M40,63.4926509 L40,90.4926509" id="Layer-5"></path>
                <path d="M60,46.5 L60,30" id="Layer-6"></path>
                <path d="M80,66.5 L80,30" id="Layer-7"></path>
                <path d="M80,73.5 L80,90.5073509" id="Layer-8"></path>
                <path d="M60,90.503334 L60,53" id="Layer-9"></path>
                <rect id="Layer-10" x="13" y="37" width="14" height="6" rx="2"></rect>
                <rect id="Layer-11" x="33" y="57" width="14" height="6" rx="2"></rect>
                <rect id="Layer-12" x="73" y="67" width="14" height="6" rx="2"></rect>
                <rect id="Layer-13" x="53" y="47" width="14" height="6" rx="2"></rect>
                <circle id="Layer-14" cx="15" cy="15" r="5"></circle>
                <circle id="Layer-15" cx="35" cy="15" r="5"></circle>
                <circle id="Layer-16" cx="55" cy="15" r="5"></circle>
                <rect id="Layer-17" x="70" y="10" width="20" height="10"></rect>
            </g>
        </g>
    </g>
</svg>