<?xml version="1.0" encoding="UTF-8"?>
<svg width="104px" height="104px" viewBox="0 0 104 104" version="1.1" xmlns="http://www.w3.org/2000/svg" xmlns:xlink="http://www.w3.org/1999/xlink">
    <!-- Generator: Sketch 46 (44423) - http://www.bohemiancoding.com/sketch -->
    <title>devices-38</title>
    <desc>Created with Sketch.</desc>
    <defs></defs>
    <g id="ALL" stroke="none" stroke-width="1" fill="none" fill-rule="evenodd" stroke-linecap="round" stroke-linejoin="round">
        <g id="Secondary" transform="translate(-6025.000000, -3815.000000)" stroke="#868E96" stroke-width="3.5">
            <g id="devices-38" transform="translate(6027.000000, 3817.000000)">
                <rect id="Layer-1" x="0" y="0" width="80" height="100" rx="3"></rect>
                <path d="M80,84 L80,97.0071986 C80,98.6600772 78.6616553,100 77.0099126,100 L2.99008742,100 C1.33870774,100 0,98.6619875 0,97.0071986 L0,84 L80,84 L80,84 Z" id="Layer-2"></path>
                <path d="M80,16 L80,2.99812151 C80,1.34298048 78.6612923,0 77.0099126,0 L2.99008742,0 C1.33834472,0 0,1.34230472 0,2.99812151 L0,16 L80,16 L80,16 Z" id="Layer-3"></path>
                <path d="M40,95 C41.6568542,95 43,93.6568542 43,92 C43,90.3431458 41.6568542,89 40,89 C38.3431458,89 37,90.3431458 37,92 C37,93.6568542 38.3431458,95 40,95 Z" id="Layer-4"></path>
                <path d="M37,8 L43,8" id="Layer-5"></path>
                <path d="M92,4.00072957 C92,1.79118764 93.7953562,0 96,0 L96,0 C98.209139,0 100,1.79072695 100,4.00072957 L100,92.7617188 L96,99.9501953 L92,92.7617188 L92,4.00072957 Z" id="Layer-6"></path>
                <path d="M100,10 L100,3.99793926 C100,1.79778412 98.209139,0 96,0 C93.7953562,0 92,1.78993837 92,3.99793926 L92,10 L100,10 L100,10 Z" id="Layer-7"></path>
            </g>
        </g>
    </g>
</svg>