<?xml version="1.0" encoding="UTF-8"?>
<svg width="103px" height="104px" viewBox="0 0 103 104" version="1.1" xmlns="http://www.w3.org/2000/svg" xmlns:xlink="http://www.w3.org/1999/xlink">
    <!-- Generator: Sketch 46 (44423) - http://www.bohemiancoding.com/sketch -->
    <title>e-commerce-39</title>
    <desc>Created with Sketch.</desc>
    <defs></defs>
    <g id="ALL" stroke="none" stroke-width="1" fill="none" fill-rule="evenodd" stroke-linecap="round" stroke-linejoin="round">
        <g id="Secondary" transform="translate(-7061.000000, -1972.000000)" stroke="#868E96" stroke-width="3.5">
            <g id="e-commerce-39" transform="translate(7063.000000, 1974.000000)">
                <path d="M46.2252403,10.9707192 C47.396259,9.7997005 49.6201164,8.42225897 51.1872652,7.89583048 L66.9034968,2.6165155 C68.4729288,2.08932005 70.6892599,2.60599881 71.8662655,3.78300442 L95.9981848,27.9149236 C97.1696142,29.0863531 97.6770364,31.3056904 97.1333131,32.866872 L91.6805566,48.5232613 C91.1360412,50.0867174 89.7435215,52.3052517 88.5776306,53.4711427 L43.5434006,98.5053726 C42.3742172,99.674556 40.4807861,99.6767456 39.3079592,98.5039187 L1.11844768,60.3144072 C-0.0515386689,59.1444208 -0.0474042464,57.2433637 1.12031691,56.0756426 L46.2252403,10.9707192 L46.2252403,10.9707192 L46.2252403,10.9707192 L46.2252403,10.9707192 L46.2252403,10.9707192 L46.2252403,10.9707192 Z M64.4073773,35.9220959 C67.3363094,38.8510281 72.0850468,38.8510281 75.013979,35.9220959 C77.9429112,32.9931637 77.9429112,28.2444264 75.013979,25.3154942 C72.0850468,22.386562 67.3363094,22.386562 64.4073773,25.3154942 C61.4784451,28.2444264 61.4784451,32.9931637 64.4073773,35.9220959 L64.4073773,35.9220959 L64.4073773,35.9220959 L64.4073773,35.9220959 L64.4073773,35.9220959 L64.4073773,35.9220959 Z" id="Layer-1"></path>
                <path d="M24.0411642,47.2969309 C26.3845675,44.9535276 30.1840012,44.9535539 32.5263607,47.2959133 L52.326453,67.0960056 C54.6692943,69.438847 54.6759455,73.2306921 52.3254355,75.5812021 L46.6695139,81.2371237 C44.3261106,83.580527 40.5266769,83.5805007 38.1843174,81.2381413 L18.3842251,61.438049 C16.0413838,59.0952076 16.0347326,55.3033625 18.3852426,52.9528525 L24.0411642,47.2969309 L24.0411642,47.2969309 Z" id="Layer-2"></path>
                <path d="M99.0686687,0.553697709 L75.013979,24.6083874" id="Layer-3"></path>
            </g>
        </g>
    </g>
</svg>