<?xml version="1.0" encoding="UTF-8"?>
<svg width="104px" height="104px" viewBox="0 0 104 104" version="1.1" xmlns="http://www.w3.org/2000/svg" xmlns:xlink="http://www.w3.org/1999/xlink">
    <!-- Generator: Sketch 46 (44423) - http://www.bohemiancoding.com/sketch -->
    <title>e-commerce-2</title>
    <desc>Created with Sketch.</desc>
    <defs></defs>
    <g id="ALL" stroke="none" stroke-width="1" fill="none" fill-rule="evenodd" stroke-linecap="round" stroke-linejoin="round">
        <g id="Secondary" transform="translate(-5487.000000, -1662.000000)" stroke="#868E96" stroke-width="3.5">
            <g id="e-commerce-2" transform="translate(5489.000000, 1664.000000)">
                <path d="M95,55 L95,30.3258427 L95,30.3258427 L15,30.3258427 C6.71572875,30.3258427 0,23.9119444 0,16 L0,85.0067024 C0,93.2855825 6.71600202,100 15.0006104,100 L95,100 L95,75 L79.9999892,75 C74.4771477,75 70,70.5240618 70,65 C70,59.4771525 74.4750951,55 79.9999892,55 L95,55 L95,55 Z" id="Layer-1"></path>
                <path d="M15,0 C6.71572875,0 0,6.71572875 0,15 C0,23.2842712 6.71572875,30 15,30 L90,30 L90,5.00443555 C90,2.2303666 87.7577549,0 84.9918055,0 L15,0 L15,0 Z" id="Layer-2"></path>
                <path d="M89.5,14.5 L15.5,14.5" id="Layer-3"></path>
                <path d="M15.5,99.5 L15.5,31.5" id="Layer-4" stroke-dasharray="1,6"></path>
                <path d="M70,65 C70,59.4771525 74.4750951,55 79.9999892,55 L96.9999809,55 C98.6568457,55 100,56.343312 100,57.9942021 L100,72.0057979 C100,73.6594501 98.6526814,75 96.9999809,75 L79.9999892,75 C74.4771477,75 70,70.5240618 70,65 L70,65 Z" id="Layer-5"></path>
            </g>
        </g>
    </g>
</svg>