<?xml version="1.0" encoding="UTF-8"?>
<svg width="114px" height="114px" viewBox="0 0 114 114" version="1.1" xmlns="http://www.w3.org/2000/svg" xmlns:xlink="http://www.w3.org/1999/xlink">
    <!-- Generator: Sketch 46 (44423) - http://www.bohemiancoding.com/sketch -->
    <title>e-commerce-31</title>
    <desc>Created with Sketch.</desc>
    <defs></defs>
    <g id="ALL" stroke="none" stroke-width="1" fill="none" fill-rule="evenodd" stroke-linecap="round" stroke-linejoin="round">
        <g id="Secondary" transform="translate(-4613.000000, -1972.000000)" stroke="#868E96" stroke-width="3.5">
            <g id="e-commerce-31" transform="translate(4615.000000, 1974.000000)">
                <polygon id="Layer-1" points="49.9370098 40.0244141 49.9370098 100.024414 3.90798505e-14 80 3.90798505e-14 20"></polygon>
                <path d="M62.147784,95.1532322 L50,100.024414 L50,40.0244141 L99.9370098,20 L99.9370098,64.9510096 C95.7695517,61.8411028 90.5997821,60 85,60 C71.1928813,60 60,71.1928813 60,85 C60,88.6149314 60.7672482,92.0506623 62.147784,95.1532322 L62.147784,95.1532322 Z" id="Layer-2"></path>
                <polygon id="Layer-3" points="49.9670825 0 100 20 49.9670825 40 0 20"></polygon>
                <polygon id="Layer-4" points="74.9835322 30.0055301 100.013825 20 49.9809079 0 25 9.99894595"></polygon>
                <circle id="Layer-5" cx="85" cy="85" r="25"></circle>
                <path d="M85.5,71.5 L85.5,98.5" id="Layer-6"></path>
                <path d="M99,85 L72,85" id="Layer-7"></path>
            </g>
        </g>
    </g>
</svg>