<?xml version="1.0" encoding="UTF-8"?>
<svg width="104px" height="109px" viewBox="0 0 104 109" version="1.1" xmlns="http://www.w3.org/2000/svg" xmlns:xlink="http://www.w3.org/1999/xlink">
    <!-- Generator: Sketch 46 (44423) - http://www.bohemiancoding.com/sketch -->
    <title>e-commerce-48</title>
    <desc>Created with Sketch.</desc>
    <defs></defs>
    <g id="ALL" stroke="none" stroke-width="1" fill="none" fill-rule="evenodd" stroke-linecap="round" stroke-linejoin="round">
        <g id="Secondary" transform="translate(-9821.000000, -1972.000000)" stroke="#868E96" stroke-width="3.5">
            <g id="e-commerce-48" transform="translate(9823.000000, 1974.000000)">
                <path d="M0,48.9906363 C0,44.025245 4.02323995,40 9.00537044,40 L17.0057979,40 C18.6594501,40 20,41.3505957 20,42.9992106 L20,72.0007894 C20,73.6572077 18.656688,75 17.0057979,75 L9.00537044,75 C4.03184168,75 0,70.9679736 0,66.0093637 L0,48.9906363 Z" id="Layer-1"></path>
                <path d="M90.1125488,75.0996094 C90.1125488,88.802002 79.7095084,100.001995 67.009724,100.001995 L60,100.001995" id="Layer-2"></path>
                <path d="M80,42.9992106 C80,41.3427923 81.343312,40 82.9942021,40 L90.9946296,40 C95.9681583,40 100,44.0320264 100,48.9906363 L100,66.0093637 C100,70.974755 95.9767601,75 90.9946296,75 L82.9942021,75 C81.3405499,75 80,73.6494043 80,72.0007894 L80,42.9992106 Z" id="Layer-3"></path>
                <path d="M90,40 C90,17.90861 72.09139,0 50,0 C27.90861,0 10,17.90861 10,40" id="Layer-4"></path>
                <rect id="Layer-5" x="40" y="95" width="20" height="10" rx="5"></rect>
            </g>
        </g>
    </g>
</svg>