<?xml version="1.0" encoding="UTF-8"?>
<svg width="114px" height="109px" viewBox="0 0 114 109" version="1.1" xmlns="http://www.w3.org/2000/svg" xmlns:xlink="http://www.w3.org/1999/xlink">
    <!-- Generator: Sketch 46 (44423) - http://www.bohemiancoding.com/sketch -->
    <title>e-commerce-19</title>
    <desc>Created with Sketch.</desc>
    <defs></defs>
    <g id="ALL" stroke="none" stroke-width="1" fill="none" fill-rule="evenodd" stroke-linecap="round" stroke-linejoin="round">
        <g id="Secondary" transform="translate(-1026.000000, -1972.000000)" stroke="#868E96" stroke-width="3.5">
            <g id="e-commerce-19" transform="translate(1028.000000, 1974.000000)">
                <path d="M94.4904442,56.864309 L97,35 L3,35 L9.28724089,89.0414214 C9.6692494,92.3249417 12.6623787,95 15.9706822,95 L64.9981691,95 C61.8597241,90.8216973 60,85.6280296 60,80 C60,66.1928813 71.1928813,55 85,55 C88.3594355,55 91.5641065,55.6626259 94.4904442,56.864309 L94.4904442,56.864309 Z" id="Layer-1"></path>
                <path d="M18,50 L85,50" id="Layer-2" stroke-dasharray="1,6"></path>
                <path d="M18,60 L68.5,60" id="Layer-3" stroke-dasharray="1,6"></path>
                <path d="M18,70 L61.5,70" id="Layer-4" stroke-dasharray="1,6"></path>
                <path d="M18,80 L60,80" id="Layer-5" stroke-dasharray="1,6"></path>
                <path d="M40,35.022501 L73.3919347,1.63056626 C75.5663909,-0.543889884 79.087219,-0.542789092 81.2594788,1.62947067 C83.4273185,3.79731032 83.4312481,7.32414989 81.2583832,9.49701473 L55.732897,35.022501 L40,35.022501 L40,35.022501 Z" id="Layer-6"></path>
                <path d="M50.022501,25 L1.00595856,25 C0.445842743,25 0,25.4456547 0,25.9953976 L0,34.0046024 C0,34.5443356 0.450382987,35 1.00595856,35 L40.022501,35 L50.022501,25 L50.022501,25 Z" id="Layer-7"></path>
                <path d="M65.755398,25 L98.9940414,25 C99.549617,25 100,25.4556644 100,25.9953976 L100,34.0046024 C100,34.5543453 99.5541573,35 98.9940414,35 L55.755398,35 L65.755398,25 L65.755398,25 Z" id="Layer-8"></path>
                <circle id="Layer-9" cx="85" cy="80" r="25"></circle>
                <path d="M94.991378,70.8492424 L75.8994949,89.9411255" id="Layer-10"></path>
                <path d="M94.991378,89.9411255 L75.8994949,70.8492424" id="Layer-11"></path>
            </g>
        </g>
    </g>
</svg>