<?xml version="1.0" encoding="UTF-8"?>
<svg width="94px" height="114px" viewBox="0 0 94 114" version="1.1" xmlns="http://www.w3.org/2000/svg" xmlns:xlink="http://www.w3.org/1999/xlink">
    <!-- Generator: Sketch 46 (44423) - http://www.bohemiancoding.com/sketch -->
    <title>files-7</title>
    <desc>Created with Sketch.</desc>
    <defs></defs>
    <g id="ALL" stroke="none" stroke-width="1" fill="none" fill-rule="evenodd" stroke-linecap="round" stroke-linejoin="round">
        <g id="Secondary" transform="translate(-5070.000000, -8712.000000)" stroke="#868E96" stroke-width="3.5">
            <g id="files-7" transform="translate(5072.000000, 8714.000000)">
                <path d="M45.0743599,100 L2.70108432e-07,100 L0,0 L59.7695312,0 L60,0.23014612 L60,0.23014612 L60,20 L79.7975682,20 L80,20.2021484 L80,65.0743599 L74.1349247,67.1879188 C73.2499621,66.7346502 72.3267892,66.3453949 71.3715161,66.0262629 L68.689209,60 L61.6599121,60 L58.851643,65.9725587 C57.9081525,66.2787041 56.9954028,66.6530732 56.119214,67.0898459 L49.9309952,64.7136658 L44.9605317,69.6841293 L47.2066803,75.9171377 C46.7295888,76.8514692 46.3238064,77.8282757 45.9965083,78.840382 L40,81.6599121 L40,88.689209 L46.1298553,91.5575441 C46.4318976,92.4282113 46.7924053,93.27155 47.2066803,94.0828623 L47.2066803,94.0828623 L45.0743599,100 L45.0743599,100 Z" id="Layer-1"></path>
                <polygon id="Layer-2" points="60 0 80 20 60 20"></polygon>
                <path d="M47.2066803,94.0828623 C46.7924053,93.27155 46.4318976,92.4282113 46.1298553,91.5575441 L40,88.689209 L40,81.6599121 L45.9965083,78.840382 C46.3238064,77.8282757 46.7295888,76.8514692 47.2066803,75.9171377 L44.9605317,69.6841293 L49.9309952,64.7136658 L56.119214,67.0898459 C56.9954028,66.6530732 57.9081525,66.2787041 58.851643,65.9725587 L61.6599121,60 L68.689209,60 L71.3715161,66.0262629 C72.3267892,66.3453949 73.2499621,66.7346502 74.1349247,67.1879188 L80.3158707,64.9605317 L85.2863342,69.9309952 L82.9297273,76.0682401 C83.3790296,76.9669179 83.7626453,77.9041578 84.0742818,78.8736672 L90,81.6599121 L90,88.689209 L83.997214,91.3610664 C83.7185594,92.1922979 83.3867928,92.9991703 83.0059454,93.7776525 L85.2863342,100.069005 L80.3158707,105.039468 L74.1349247,102.812081 C73.3005422,103.239443 72.4321923,103.6099 71.5349964,103.918331 L68.689209,110 L61.6599121,110 L58.851643,104.027441 C57.9638885,103.739381 57.1033501,103.39092 56.2748762,102.986906 L49.9309952,105.286334 L44.9605317,100.315871 L47.2066803,94.0828623 L47.2066803,94.0828623 L47.2066803,94.0828623 Z M65,90 C67.7614237,90 70,87.7614237 70,85 C70,82.2385763 67.7614237,80 65,80 C62.2385763,80 60,82.2385763 60,85 C60,87.7614237 62.2385763,90 65,90 L65,90 Z" id="Layer-3"></path>
            </g>
        </g>
    </g>
</svg>