<?xml version="1.0" encoding="UTF-8"?>
<svg width="94px" height="115px" viewBox="0 0 94 115" version="1.1" xmlns="http://www.w3.org/2000/svg" xmlns:xlink="http://www.w3.org/1999/xlink">
    <!-- Generator: Sketch 46 (44423) - http://www.bohemiancoding.com/sketch -->
    <title>files-10</title>
    <desc>Created with Sketch.</desc>
    <defs></defs>
    <g id="ALL" stroke="none" stroke-width="1" fill="none" fill-rule="evenodd" stroke-linecap="round" stroke-linejoin="round">
        <g id="Secondary" transform="translate(-5941.000000, -8712.000000)" stroke="#868E96" stroke-width="3.5">
            <g id="files-10" transform="translate(5943.000000, 8714.000000)">
                <path d="M49.6039152,100 L2.70108432e-07,100 L0,0 L59.7695312,0 L60,0.23014612 L60,0.23014612 L60,20 L79.7975682,20 L80,20.2021484 L80,63.5175812 C78.8079205,63.1804179 77.5500297,63 76.25,63 C71.5996056,63 67.4884185,65.3086211 65,68.8423022 C62.5115815,65.3086211 58.4003944,63 53.75,63 C46.1560847,63 40,69.1560847 40,76.75 C40,77.0420873 40.0091075,77.3320474 40.027054,77.6196118 C40.0091337,77.7414935 40,77.8682419 40,78 C40,87.4981899 44.4550921,94.7688339 49.6039152,100 L49.6039152,100 Z" id="Layer-1"></path>
                <polygon id="Layer-2" points="60 0 80 20 60 20"></polygon>
                <path d="M40,78 C40,100.5 65,110.5 65,110.5 C65,110.5 90,100.5 90,78 C90,77.8679415 89.9908802,77.7409553 89.9729907,77.6188952 C89.9909076,77.3315657 90,77.0418447 90,76.75 C90,69.1560847 83.8439153,63 76.25,63 C71.5996056,63 67.4884185,65.3086211 65,68.8423022 C62.5115815,65.3086211 58.4003944,63 53.75,63 C46.1560847,63 40,69.1560847 40,76.75 C40,77.0420873 40.0091075,77.3320474 40.027054,77.6196118 C40.0091337,77.7414935 40,77.8682419 40,78 Z" id="Layer-3"></path>
            </g>
        </g>
    </g>
</svg>