<?xml version="1.0" encoding="UTF-8"?>
<svg width="114px" height="104px" viewBox="0 0 114 104" version="1.1" xmlns="http://www.w3.org/2000/svg" xmlns:xlink="http://www.w3.org/1999/xlink">
    <!-- Generator: Sketch 46 (44423) - http://www.bohemiancoding.com/sketch -->
    <title>files-30</title>
    <desc>Created with Sketch.</desc>
    <defs></defs>
    <g id="ALL" stroke="none" stroke-width="1" fill="none" fill-rule="evenodd" stroke-linecap="round" stroke-linejoin="round">
        <g id="Secondary" transform="translate(-2576.000000, -9023.000000)" stroke="#868E96" stroke-width="3.5">
            <g id="files-30" transform="translate(2578.000000, 9025.000000)">
                <path d="M100,52.5175812 L100,2.99446106 C100,1.34209558 98.6600772,0 97.0071986,0 L2.99280137,0 C1.33801252,0 0,1.34066588 0,2.99446106 L0,87.0055389 C0,88.6579044 1.33992281,90 2.99280137,90 L70.6217135,90 C65.0567216,84.7100791 60,77.1192199 60,67 C60,66.8682419 60.0091337,66.7414935 60.027054,66.6196118 C60.0091075,66.3320474 60,66.0420873 60,65.75 C60,58.1560847 66.1560847,52 73.75,52 C78.4003944,52 82.5115815,54.3086211 85,57.8423022 C87.4884185,54.3086211 91.5996056,52 96.25,52 C97.5500297,52 98.8079205,52.1804179 100,52.5175812 L100,52.5175812 Z" id="Layer-1"></path>
                <path d="M0,3.00947762 C0,1.34738902 1.33801252,0 2.99280137,0 L97.0071986,0 C98.6600772,0 100,1.33663106 100,3.00947762 L100,16 L0,16 L0,3.00947762 Z" id="Layer-2"></path>
                <path d="M7,8 L22.2800007,8" id="Layer-3"></path>
                <path d="M60,67 C60,89.4999998 85,99.5 85,99.5 C85,99.5 110,89.4999998 110,67 C110,66.8679415 109.99088,66.7409553 109.972991,66.6188952 C109.990908,66.3315657 110,66.0418447 110,65.75 C110,58.1560847 103.843915,52 96.25,52 C91.5996056,52 87.4884185,54.3086211 85,57.8423022 C82.5115815,54.3086211 78.4003944,52 73.75,52 C66.1560847,52 60,58.1560847 60,65.75 C60,66.0420873 60.0091075,66.3320474 60.027054,66.6196118 C60.0091337,66.7414935 60,66.8682419 60,67 Z" id="Layer-5"></path>
            </g>
        </g>
    </g>
</svg>