<?xml version="1.0" encoding="UTF-8"?>
<svg width="114px" height="104px" viewBox="0 0 114 104" version="1.1" xmlns="http://www.w3.org/2000/svg" xmlns:xlink="http://www.w3.org/1999/xlink">
    <!-- Generator: Sketch 46 (44423) - http://www.bohemiancoding.com/sketch -->
    <title>files-26</title>
    <desc>Created with Sketch.</desc>
    <defs></defs>
    <g id="ALL" stroke="none" stroke-width="1" fill="none" fill-rule="evenodd" stroke-linecap="round" stroke-linejoin="round">
        <g id="Secondary" transform="translate(-1336.000000, -9023.000000)" stroke="#868E96" stroke-width="3.5">
            <g id="files-26" transform="translate(1338.000000, 9025.000000)">
                <path d="M0,2.99446106 C0,1.34066588 1.33801252,0 2.99280137,0 L97.0071986,0 C98.6600772,0 100,1.34209558 100,2.99446106 L100,87.0055389 C100,88.6593341 98.6619875,90 97.0071986,90 L2.99280137,90 C1.33992281,90 0,88.6579044 0,87.0055389 L0,2.99446106 L0,2.99446106 Z" id="Layer-1"></path>
                <path d="M0,3.00947762 C0,1.34738902 1.33801252,0 2.99280137,0 L97.0071986,0 C98.6600772,0 100,1.33663106 100,3.00947762 L100,16 L0,16 L0,3.00947762 Z" id="Layer-2"></path>
                <path d="M7,8 L22.2800007,8" id="Layer-3"></path>
                <path d="M80,90 C91.045695,90 100,81.045695 100,70 C100,58.954305 91.045695,50 80,50 C68.954305,50 60,58.954305 60,70 C60,81.045695 68.954305,90 80,90 Z" id="Layer-5"></path>
                <path d="M110,100 L94.4919376,84.4919376" id="Layer-6"></path>
            </g>
        </g>
    </g>
</svg>