<?xml version="1.0" encoding="UTF-8"?>
<svg width="95px" height="114px" viewBox="0 0 95 114" version="1.1" xmlns="http://www.w3.org/2000/svg" xmlns:xlink="http://www.w3.org/1999/xlink">
    <!-- Generator: Sketch 46 (44423) - http://www.bohemiancoding.com/sketch -->
    <title>files-9</title>
    <desc>Created with Sketch.</desc>
    <defs></defs>
    <g id="ALL" stroke="none" stroke-width="1" fill="none" fill-rule="evenodd" stroke-linecap="round" stroke-linejoin="round">
        <g id="Secondary" transform="translate(-5650.000000, -8712.000000)" stroke="#868E96" stroke-width="3.5">
            <g id="files-9" transform="translate(5652.000000, 8714.000000)">
                <path d="M31.412154,100 L2.70108432e-07,100 L0,0 L59.7695312,0 L60,0.23014612 L60,0.23014612 L60,20 L79.7975682,20 L80,20.2021484 L80,72.7496194 C76.9937489,69.8116058 72.8757557,68 68.3333333,68 C62.9115234,68 58.094384,70.5809361 55.0506736,74.577646 C53.356978,73.0973205 51.1377693,72.2 48.7083333,72.2 C43.3925926,72.2 39.0833333,76.496 39.0833333,81.7953846 C39.0833333,82.6779407 39.2028522,83.5326676 39.4266343,84.3443566 L39.4266343,84.3443566 C34.4908844,86.292822 31,91.0938416 31,96.7076923 C31,97.844074 31.1430416,98.9471494 31.412154,100 L31.412154,100 Z" id="Layer-1"></path>
                <polygon id="Layer-2" points="60 0 80 20 60 20"></polygon>
                <path d="M39.4266343,84.3443566 C34.4908844,86.292822 31,91.0938416 31,96.7076923 C31,103.825969 36.6125923,109.637388 43.6666667,109.983674 L43.6666667,110 L77,110 L77,109.983674 C77.2208519,109.994515 77.4431168,110 77.6666667,110 C85.0304633,110 91,104.048831 91,96.7076923 C91,92.0553439 88.6025022,87.9612381 84.972018,85.5863032 C84.9905873,85.2650257 85,84.941301 85,84.6153846 C85,75.4389611 77.5380792,68 68.3333333,68 C62.9115234,68 58.094384,70.5809361 55.0506736,74.577646 C53.356978,73.0973205 51.1377693,72.2 48.7083333,72.2 C43.3925926,72.2 39.0833333,76.496 39.0833333,81.7953846 C39.0833333,82.6779407 39.2028522,83.5326676 39.4266343,84.3443566 L39.4266343,84.3443566 Z" id="Layer-3"></path>
            </g>
        </g>
    </g>
</svg>