<?xml version="1.0" encoding="UTF-8"?>
<svg width="104px" height="104px" viewBox="0 0 104 104" version="1.1" xmlns="http://www.w3.org/2000/svg" xmlns:xlink="http://www.w3.org/1999/xlink">
    <!-- Generator: Sketch 46 (44423) - http://www.bohemiancoding.com/sketch -->
    <title>files-45</title>
    <desc>Created with Sketch.</desc>
    <defs></defs>
    <g id="ALL" stroke="none" stroke-width="1" fill="none" fill-rule="evenodd" stroke-linecap="round" stroke-linejoin="round">
        <g id="Secondary" transform="translate(-7139.000000, -9023.000000)" stroke="#868E96" stroke-width="3.5">
            <g id="files-45" transform="translate(7141.000000, 9025.000000)">
                <path d="M10,25 L100,25 L100,86.995277 C100,88.6547397 98.6579044,90 97.0055389,90 L12.9944611,90 C11.3406659,90 10,88.6573028 10,86.995277 L10,25 Z" id="Layer-1"></path>
                <path d="M10,10 L2.99446106,10 C1.34209558,10 0,11.3406659 0,12.9944611 L0,97.0055389 C0,98.6579044 1.34066588,100 2.99446106,100 L87.0055389,100 C88.6579044,100 90,98.6593341 90,97.0055389 L90,90 L12.9944611,90 C11.3406659,90 10,88.6579044 10,87.0055389 L10,10 L10,10 Z" id="Layer-2"></path>
                <path d="M100,25 L100,12.9900874 C100,11.3383447 98.7940695,10 97.3064788,10 L37,10 L33.6046156,2.66668016 C32.9192346,1.18640065 31.161836,0 29.6715866,0 L12.6983353,0 C11.2027042,0 10,1.34329338 10,3.00032973 L10,10 L10,25 L100,25 L100,25 Z" id="Layer-3"></path>
            </g>
        </g>
    </g>
</svg>