<?xml version="1.0" encoding="UTF-8"?>
<svg width="114px" height="102px" viewBox="0 0 114 102" version="1.1" xmlns="http://www.w3.org/2000/svg" xmlns:xlink="http://www.w3.org/1999/xlink">
    <!-- Generator: Sketch 46 (44423) - http://www.bohemiancoding.com/sketch -->
    <title>files-20</title>
    <desc>Created with Sketch.</desc>
    <defs></defs>
    <g id="ALL" stroke="none" stroke-width="1" fill="none" fill-rule="evenodd" stroke-linecap="round" stroke-linejoin="round">
        <g id="Secondary" transform="translate(-9011.000000, -8712.000000)" stroke="#868E96" stroke-width="3.5">
            <g id="files-20" transform="translate(9013.000000, 8714.000000)">
                <path d="M100,50.5175812 L100,4.99926819 C100,2.24718554 97.7644552,0 95.0067709,0 L4.99322906,0 C2.22884957,0 0,2.23824861 0,4.99926819 L0,85.0007318 C0,87.7528145 2.2355448,90 4.99322906,90 L72.8714934,90 C70.5433249,88.0617706 68.1979577,85.7338279 66.1588325,83 L7,83 L7,7 L93,7 L93,50.3863386 C94.0419967,50.1338202 95.1303706,50 96.25,50 C97.5500297,50 98.8079205,50.1804179 100,50.5175812 L100,50.5175812 Z" id="Layer-1"></path>
                <path d="M92.0619453,50.6494506 L61.2530189,18 L20,55.3529134 L46.0885571,83 L66.1588325,83 C62.6176189,78.252342 60,72.2805757 60,65 C60,64.8682419 60.0091337,64.7414935 60.027054,64.6196118 C60.0091075,64.3320474 60,64.0420873 60,63.75 C60,56.1560847 66.1560847,50 73.75,50 C78.4003944,50 82.5115815,52.3086211 85,55.8423022 C86.7069722,53.4183147 89.1775386,51.5707796 92.0619453,50.6494506 L92.0619453,50.6494506 Z" id="Layer-2"></path>
                <polygon id="Layer-3" points="46.1888545 83 7 42 7.00000089 82.9999997"></polygon>
                <path d="M25.45,32.0285714 C21.8877634,32.0285714 19,29.1120264 19,25.5142857 C19,21.9165451 21.8877634,19 25.45,19 C29.0122366,19 31.9,21.9165451 31.9,25.5142857 C31.9,29.1120264 29.0122366,32.0285714 25.45,32.0285714 L25.45,32.0285714 Z" id="Layer-4"></path>
                <path d="M60,65 C60,87.4999998 85,97.5 85,97.5 C85,97.5 110,87.4999998 110,65 C110,64.8679415 109.99088,64.7409553 109.972991,64.6188952 C109.990908,64.3315657 110,64.0418447 110,63.75 C110,56.1560847 103.843915,50 96.25,50 C91.5996056,50 87.4884185,52.3086211 85,55.8423022 C82.5115815,52.3086211 78.4003944,50 73.75,50 C66.1560847,50 60,56.1560847 60,63.75 C60,64.0420873 60.0091075,64.3320474 60.027054,64.6196118 C60.0091337,64.7414935 60,64.8682419 60,65 Z" id="Layer-5"></path>
            </g>
        </g>
    </g>
</svg>