<?xml version="1.0" encoding="UTF-8"?>
<svg width="84px" height="104px" viewBox="0 0 84 104" version="1.1" xmlns="http://www.w3.org/2000/svg" xmlns:xlink="http://www.w3.org/1999/xlink">
    <!-- Generator: Sketch 46 (44423) - http://www.bohemiancoding.com/sketch -->
    <title>files-42</title>
    <desc>Created with Sketch.</desc>
    <defs></defs>
    <g id="ALL" stroke="none" stroke-width="1" fill="none" fill-rule="evenodd" stroke-linecap="round" stroke-linejoin="round">
        <g id="Secondary" transform="translate(-6258.000000, -9023.000000)" stroke-width="3.5" stroke="#868E96">
            <g id="files-42" transform="translate(6260.000000, 9025.000000)">
                <polygon id="Layer-1" points="30.0304261 10 30.0304263 40 0 40 0 0 20 0 20 10"></polygon>
                <polygon id="Layer-2" points="20 0 30 10 20 10"></polygon>
                <polygon id="Layer-3" points="80.0304261 10 80.0304263 40 50 40 50 0 70 0 70 10"></polygon>
                <polygon id="Layer-4" points="70 0 80 10 70 10"></polygon>
                <polygon id="Layer-5" points="80.0304261 70 80.0304263 100 50 100 50 60 70 60 70 70"></polygon>
                <polygon id="Layer-6" points="70 60 80 70 70 70"></polygon>
                <polygon id="Layer-7" points="30.0304261 70 30.0304263 100 0 100 0 60 20 60 20 70"></polygon>
                <polygon id="Layer-8" points="20 60 30 70 20 70"></polygon>
            </g>
        </g>
    </g>
</svg>