<?xml version="1.0" encoding="UTF-8"?>
<svg width="114px" height="104px" viewBox="0 0 114 104" version="1.1" xmlns="http://www.w3.org/2000/svg" xmlns:xlink="http://www.w3.org/1999/xlink">
    <!-- Generator: Sketch 46 (44423) - http://www.bohemiancoding.com/sketch -->
    <title>files-16</title>
    <desc>Created with Sketch.</desc>
    <defs></defs>
    <g id="ALL" stroke="none" stroke-width="1" fill="none" fill-rule="evenodd" stroke-linecap="round" stroke-linejoin="round">
        <g id="Secondary" transform="translate(-7771.000000, -8712.000000)" stroke="#868E96" stroke-width="3.5">
            <g id="files-16" transform="translate(7773.000000, 8714.000000)">
                <path d="M64.8008286,83 L7,83 L7,7 L93,7 L93,54.8008286 C97.2846545,58.4689918 100,63.9173945 100,70 C100,81.045695 91.045695,90 80,90 C73.9173945,90 68.4689918,87.2846545 64.8008286,83 L64.8008286,83 Z M0,4.99926819 C0,2.23824861 2.22884957,0 4.99322906,0 L95.0067709,0 C97.7644552,0 100,2.24718554 100,4.99926819 L100,85.0007318 C100,87.7617514 97.7711504,90 95.0067709,90 L4.99322906,90 C2.2355448,90 0,87.7528145 0,85.0007318 L0,4.99926819 L0,4.99926819 Z" id="Layer-1"></path>
                <path d="M93,54.8008286 L93,51.6435446 L61.2530189,18 L20,55.3529134 L46.0885571,83 L64.8008286,83 C61.8077984,79.503945 60,74.9630895 60,70 C60,58.954305 68.954305,50 80,50 C84.9630895,50 89.503945,51.8077984 93,54.8008286 L93,54.8008286 Z" id="Layer-2"></path>
                <polygon id="Layer-3" points="46.1888545 83 7 42 7.00000089 82.9999997"></polygon>
                <path d="M25.45,32.0285714 C21.8877634,32.0285714 19,29.1120264 19,25.5142857 C19,21.9165451 21.8877634,19 25.45,19 C29.0122366,19 31.9,21.9165451 31.9,25.5142857 C31.9,29.1120264 29.0122366,32.0285714 25.45,32.0285714 L25.45,32.0285714 Z" id="Layer-4"></path>
                <path d="M80,90 C91.045695,90 100,81.045695 100,70 C100,58.954305 91.045695,50 80,50 C68.954305,50 60,58.954305 60,70 C60,81.045695 68.954305,90 80,90 Z" id="Layer-5"></path>
                <path d="M110,100 L94.4919376,84.4919376" id="Layer-6"></path>
            </g>
        </g>
    </g>
</svg>