<?xml version="1.0" encoding="UTF-8"?>
<svg width="104px" height="100px" viewBox="0 0 104 100" version="1.1" xmlns="http://www.w3.org/2000/svg" xmlns:xlink="http://www.w3.org/1999/xlink">
    <!-- Generator: Sketch 46 (44423) - http://www.bohemiancoding.com/sketch -->
    <title>food-38</title>
    <desc>Created with Sketch.</desc>
    <defs></defs>
    <g id="ALL" stroke="none" stroke-width="1" fill="none" fill-rule="evenodd" stroke-linecap="round" stroke-linejoin="round">
        <g id="Secondary" transform="translate(-7051.000000, -6264.000000)" stroke="#868E96" stroke-width="3.5">
            <g id="food-38" transform="translate(7053.000000, 6265.000000)">
                <path d="M66.5277436,20.0235825 C50.4153212,9.21234901 32.315621,16.2937398 17.183504,31.4258568 C2.05138701,46.5579738 -5.03000377,64.657674 5.78122968,80.7700963 C3.57722985,83.8152521 3.88672693,88.1396521 6.68191816,90.9348433 C9.47710939,93.7300346 13.8015094,94.0395316 16.8466595,91.835528 C32.9590875,102.646765 51.0587877,95.5653745 66.1909047,80.4332575 C81.3230217,65.3011405 88.4044125,47.2014403 77.593179,31.0890179 C79.7971789,28.0438621 79.4876818,23.7194622 76.6924906,20.9242709 C73.8972993,18.1290797 69.5728994,17.8195826 66.5277492,20.0235862 L66.5277436,20.0235825 Z" id="Layer-1"></path>
                <path d="M22.7579577,37.7096553 C16.6806428,43.7869702 12.1439821,50.4321865 10.0454191,57.1934905 M8.76749053,64.559095 C8.71739141,66.1319901 8.58064568,67.7264919 9.50649756,69.781192" id="Layer-2"></path>
                <path d="M85.2647658,9.40454735 C91.5361941,5.78373657 99.7421235,8.25583488 99.7421235,8.25583488 C99.7421235,8.25583488 97.7800587,16.5984274 91.5086305,20.2192381 C85.2372022,23.8400489 77.0312728,21.3679506 77.0312728,21.3679506 C77.0312728,21.3679506 78.9933376,13.0253581 85.2647658,9.40454735 L85.2647658,9.40454735 Z" id="Layer-3"></path>
                <path d="M75.9417913,19.8687485 C75.9417913,19.8687485 78.3149035,16.6710977 78.1426119,10.6627685 C77.9703202,4.65443929 74.0595734,0.74369247 74.0595734,0.74369247" id="Layer-4"></path>
            </g>
        </g>
    </g>
</svg>