<?xml version="1.0" encoding="UTF-8"?>
<svg width="103px" height="103px" viewBox="0 0 103 103" version="1.1" xmlns="http://www.w3.org/2000/svg" xmlns:xlink="http://www.w3.org/1999/xlink">
    <!-- Generator: Sketch 46 (44423) - http://www.bohemiancoding.com/sketch -->
    <title>food-10</title>
    <desc>Created with Sketch.</desc>
    <defs></defs>
    <g id="ALL" stroke="none" stroke-width="1" fill="none" fill-rule="evenodd" stroke-linecap="round" stroke-linejoin="round">
        <g id="Secondary" transform="translate(-8441.000000, -5963.000000)" stroke="#868E96" stroke-width="3.5">
            <g id="food-10" transform="translate(8443.000000, 5964.000000)">
                <path d="M51.0058115,43.7990694 L56.3445145,49.1377723 L11.9697368,97.6048434 C9.49137323,100.311765 5.37928652,100.403182 2.78178048,97.8056756 L2.37980708,97.4037022 C-0.216197503,94.8076976 -0.130795935,90.6949465 2.57679131,88.2118979 L51.0058115,43.7990694 L51.0058115,43.7990694 Z" id="Layer-1"></path>
                <path d="M71.2005727,49.9912049 C67.3338537,53.8579238 60.8475211,53.6407813 56.7044692,49.4977293 L50.6877534,43.4810135 C46.5484954,39.3417556 46.3274567,32.8517312 50.1942778,28.98491 L69.9283532,48.7189854 L71.2005727,49.9912049 L71.2005727,49.9912049 Z" id="Layer-2"></path>
                <path d="M57.1971604,35.986224 L85.2055536,7.97783082" id="Layer-3"></path>
                <path d="M64.1992587,42.9883223 L92.2076519,14.9799291" id="Layer-4"></path>
                <path d="M99.2097502,21.9820274 L71.3976452,49.7941323" id="Layer-5"></path>
                <path d="M50.3913503,28.7878375 L78.2034553,0.975732528" id="Layer-6"></path>
            </g>
        </g>
    </g>
</svg>