<?xml version="1.0" encoding="UTF-8"?>
<svg width="95px" height="104px" viewBox="0 0 95 104" version="1.1" xmlns="http://www.w3.org/2000/svg" xmlns:xlink="http://www.w3.org/1999/xlink">
    <!-- Generator: Sketch 46 (44423) - http://www.bohemiancoding.com/sketch -->
    <title>food-30</title>
    <desc>Created with Sketch.</desc>
    <defs></defs>
    <g id="ALL" stroke="none" stroke-width="1" fill="none" fill-rule="evenodd" stroke-linecap="round" stroke-linejoin="round">
        <g id="Secondary" transform="translate(-4692.000000, -6264.000000)" stroke="#868E96" stroke-width="3.5">
            <g id="food-30" transform="translate(4694.000000, 6265.000000)">
                <path d="M56.7838976,101 C63.3945918,101 83.6322326,85.8303983 89.3416864,56.8200435 C94.0946192,32.6698754 82.3647434,25.9659824 74.3810958,22.4578565 C66.4126587,18.9564143 47.3085293,22.8622431 45.2200366,22.862243 C43.1315438,22.8622429 24.0274146,18.9564143 16.0589776,22.4578565 C8.07532993,25.9659824 -3.65454589,32.6698754 1.09838698,56.8200435 C6.80784077,85.8303983 27.0454815,101 33.6561757,101 C37.3689101,101 41.5029174,97.7095172 45.2200367,97.6752674 C48.937156,97.7095172 53.0711633,101 56.7838976,101 Z" id="Layer-1"></path>
                <path d="M64.2983515,86.4718513 C67.3930218,83.9083189 70.6480528,80.2726311 73.3168835,75.5086824" id="Layer-2"></path>
                <path d="M8.00182782,47.805852 C7.9824443,49.559736 8.1166073,51.4902286 8.43399116,53.6182341 C8.54222462,54.3439213 8.67176537,55.0925778 8.82379024,55.8650326 M25.2182113,29.0609052 C23.2241256,29.1811644 21.4146147,29.4912277 20.0442332,30.0933924 C16.9034913,31.4734781 12.9897224,33.5130043 10.4924282,37.7543832 C10.0830464,38.449673 9.71172976,39.2041333 9.38812355,40.0245589" id="Layer-3"></path>
                <path d="M44.9794922,21 C44.9794922,21 46.1835938,13.2324219 43.0917969,7.11621094 C40,1 32.5488281,1 32.5488281,1" id="Layer-4"></path>
                <path d="M60.0563673,13.6104443 C52.9915493,15.5034566 45.6321914,10.9466251 45.6321914,10.9466251 C45.6321914,10.9466251 49.7271666,3.3206142 56.7919845,1.42760192 C63.8568025,-0.465410347 71.2161605,4.09142121 71.2161605,4.09142121 C71.2161605,4.09142121 67.1211853,11.7174321 60.0563673,13.6104443 L60.0563673,13.6104443 Z" id="Layer-5"></path>
            </g>
        </g>
    </g>
</svg>