<?xml version="1.0" encoding="UTF-8"?>
<svg width="104px" height="77px" viewBox="0 0 104 77" version="1.1" xmlns="http://www.w3.org/2000/svg" xmlns:xlink="http://www.w3.org/1999/xlink">
    <!-- Generator: Sketch 46 (44423) - http://www.bohemiancoding.com/sketch -->
    <title>food-23</title>
    <desc>Created with Sketch.</desc>
    <defs></defs>
    <g id="ALL" stroke="none" stroke-width="1" fill="none" fill-rule="evenodd" stroke-linecap="round" stroke-linejoin="round">
        <g id="Secondary" transform="translate(-2730.000000, -6263.000000)" stroke="#868E96" stroke-width="3.5">
            <g id="food-23" transform="translate(2732.000000, 6265.000000)">
                <circle id="Layer-1" cx="50" cy="36" r="33"></circle>
                <path d="M50,60 C63.254834,60 74,49.254834 74,36 C74,22.745166 63.254834,12 50,12 C36.745166,12 26,22.745166 26,36 C26,49.254834 36.745166,60 50,60 Z" id="Layer-2"></path>
                <path d="M14,12.2335277 C14,6.75903343 11.5275933,7.10542736e-15 6.99816273,0 C2.46873214,-7.10542736e-15 3.48270682e-16,6.75903343 0,12.2335277 C-3.221615e-16,17.7080219 3.10172859,20 6.99816273,20 C10.8945969,20 14,17.7080219 14,12.2335277 L14,12.2335277 Z" id="Layer-3"></path>
                <path d="M7,20 L7,42.5100002" id="Layer-4"></path>
                <rect id="Layer-5" x="1" y="43" width="12" height="30" rx="6"></rect>
                <path d="M93,20 L93,42.7705956" id="Layer-6"></path>
                <rect id="Layer-7" x="87" y="43" width="12" height="30" rx="6"></rect>
                <path d="M100,1 L100,14.0049706 C100,17.8682186 96.8581267,21 93,21 L93,21 C89.1340068,21 86,17.875 86,14.0049706 L86,1 L86,1" id="Layer-8"></path>
                <path d="M93,20 L93,2.97061366" id="Layer-9"></path>
            </g>
        </g>
    </g>
</svg>