<?xml version="1.0" encoding="UTF-8"?>
<svg width="104px" height="102px" viewBox="0 0 104 102" version="1.1" xmlns="http://www.w3.org/2000/svg" xmlns:xlink="http://www.w3.org/1999/xlink">
    <!-- Generator: Sketch 46 (44423) - http://www.bohemiancoding.com/sketch -->
    <title>food-50</title>
    <desc>Created with Sketch.</desc>
    <defs></defs>
    <g id="ALL" stroke="none" stroke-width="1" fill="none" fill-rule="evenodd" stroke-linecap="round" stroke-linejoin="round">
        <g id="Secondary" transform="translate(-1306.000000, -6565.000000)" stroke="#868E96" stroke-width="3.5">
            <g id="food-50" transform="translate(1308.000000, 6567.000000)">
                <path d="M93.4203939,30.966583 C92.2432168,13.7154579 73.2534297,0 50,0 C26.84426,0 7.91641396,13.6004604 6.59538452,30.7493506 C7.92149844,31.0525501 9.7670889,31.4176278 10.9655762,31.4176278 C13.9860228,31.4176278 17.210468,29.4505834 20.7816215,29.4114494 C23.8882075,29.3774063 27.1644765,31.4389193 30.5398692,31.4176278 C33.8019562,31.397051 36.9024701,29.4655874 40.2866529,29.4114494 C43.4955063,29.3601161 46.7858903,31.4473803 50,31.4176278 C53.1309271,31.3886453 56.6593199,29.4817021 59.6908967,29.4114494 C63.1617537,29.3310169 66.5237212,31.4519805 69.6999193,31.4176278 C73.2869821,31.3788313 76.6389709,29.5622232 79.6592646,29.4114494 C83.4297252,29.223227 86.5910894,31.4180329 89.1146718,31.4176277 C90.9244597,31.4173372 92.39471,31.1935006 93.4203939,30.966583 L93.4203939,30.966583 Z" id="Layer-1"></path>
                <ellipse id="Layer-2" cx="37.4955634" cy="12.5" rx="2.49556344" ry="2.5"></ellipse>
                <ellipse id="Layer-3" cx="64.4955634" cy="12.5" rx="2.49556344" ry="2.5"></ellipse>
                <ellipse id="Layer-4" cx="79.58252" cy="22.0111111" rx="2.49556344" ry="2.5"></ellipse>
                <ellipse id="Layer-5" cx="51.4955634" cy="19.5" rx="2.49556344" ry="2.5"></ellipse>
                <ellipse id="Layer-6" cx="21.4955634" cy="19.5" rx="2.49556344" ry="2.5"></ellipse>
                <path d="M20.6521739,76.2222222 L6.52173913,76.2222222 L6.52173913,88.0034498 C6.52173913,93.5140362 10.9972032,98 16.5179679,98 L83.4820321,98 C89.0013224,98 93.4782609,93.524392 93.4782609,88.0034498 L93.4782609,76.2222222 L47.82608,76.2222222 C47.821832,78.6284583 45.8720007,80.5777778 43.4782609,80.5777778 C41.0796321,80.5777778 39.1346658,78.6359785 39.1304417,76.2222222 L29.3478261,76.2222222 L29.3478261,81.6562592 C29.3478261,84.067514 27.396352,86.0222222 25,86.0222222 C22.598762,86.0222222 20.6521739,84.0618386 20.6521739,81.6562592 L20.6521739,76.2222222 L20.6521739,76.2222222 Z" id="Layer-8"></path>
                <ellipse id="Layer-9" cx="79.4955634" cy="86.5" rx="2.49556344" ry="2.5"></ellipse>
                <ellipse id="Layer-10" cx="61.4955634" cy="86.5" rx="2.49556344" ry="2.5"></ellipse>
                <ellipse id="Layer-11" cx="37.4955634" cy="89.5" rx="2.49556344" ry="2.5"></ellipse>
                <path d="M1.08695652,33.4203322 C1.08695652,31.2062874 2.82117386,29.841825 4.97389789,30.3499261 C4.97389789,30.3499261 8.91599204,31.4176278 10.9655762,31.4176278 C13.9860228,31.4176278 17.210468,29.4505834 20.7816215,29.4114494 C23.8882075,29.3774063 27.1644765,31.4389193 30.5398692,31.4176278 C33.8019562,31.397051 36.9024701,29.4655874 40.2866529,29.4114494 C43.4955063,29.3601161 46.7858903,31.4473803 50,31.4176278 C53.1309271,31.3886453 56.6593199,29.4817021 59.6908967,29.4114494 C63.1617537,29.3310169 66.5237212,31.4519805 69.6999193,31.4176278 C73.2869821,31.3788313 76.6389709,29.5622232 79.6592646,29.4114494 C83.4297252,29.223227 86.5910894,31.4180329 89.1146718,31.4176277 C92.7860064,31.4170384 95.0600708,30.4965088 95.0600708,30.4965088 C97.1880088,29.897247 98.9130435,31.1995729 98.9130435,33.4203322 L98.9130435,38.7640408 C98.9130435,40.9780857 97.1914067,43.2506243 95.0343146,43.780937 C95.0343146,43.780937 92.659764,44.6472238 89.1146718,44.6440531 C86.5677057,44.641775 83.541934,42.5932363 79.6592646,42.7729235 C76.6889505,42.9103876 73.170811,44.609601 69.6999193,44.6440518 C66.4366496,44.6764419 63.2436138,42.6936544 59.6908967,42.7729232 C56.4716646,42.8447513 53.3363022,44.6155547 50,44.6440519 C46.7858353,44.6715058 43.4963054,42.7255657 40.2866529,42.7729234 C36.9233943,42.8225476 33.7818886,44.6256507 30.5398692,44.6440529 C27.1882851,44.663077 23.8658699,42.7426068 20.7816215,42.7729237 C17.4170169,42.8059965 13.8278909,44.6440524 10.9655762,44.6440524 C8.87698261,44.6440524 4.98552133,43.6536977 4.98552133,43.6536977 C2.83240344,43.1672596 1.08695652,40.9848001 1.08695652,38.7640408 L1.08695652,33.4203322 Z" id="Layer-12"></path>
                <path d="M4.07878972,67.7276396 C2.34530133,68.2988598 1.08695652,69.9360786 1.08695652,71.8666667 C1.08695652,74.2672789 3.03260712,76.2222222 5.43268876,76.2222222 L20.6521739,76.2222222 L20.6521739,68.6 L7.61774881,68.6 C6.34025502,68.6 5.13620753,68.2845646 4.07878972,67.7276396 L4.07878972,67.7276396 L4.07878972,67.7276396 Z M95.2238142,67.5111111 L95.6542678,67.5111111 C98.0543494,67.5111111 100,69.4660545 100,71.8666667 C100,74.2721736 98.046409,76.2222222 95.6542678,76.2222222 L47.82608,76.2222222 C47.8260846,76.2195965 47.826087,76.2169702 47.826087,76.2143433 L47.826087,68.6 L91.2952947,68.6 C92.7333934,68.6 94.0773276,68.2023594 95.2238142,67.5111111 L95.2238142,67.5111111 L95.2238142,67.5111111 Z M39.1304417,76.2222222 L29.3478261,76.2222222 L29.3478261,68.6 L39.1304348,68.6 L39.1304348,76.2143433 C39.1304348,76.2169702 39.1304371,76.2195965 39.1304417,76.2222222 L39.1304417,76.2222222 L39.1304417,76.2222222 Z" id="Layer-13"></path>
                <path d="M39.1304348,68.6 L29.3478261,68.6 L29.3478261,81.6562592 C29.3478261,84.067514 27.396352,86.0222222 25,86.0222222 C22.598762,86.0222222 20.6521739,84.0618386 20.6521739,81.6562592 L20.6521739,68.6 L7.61774881,68.6 C3.41058232,68.6 0,65.1788491 0,60.9777778 C0,56.7681407 3.40481085,53.3555556 7.61774881,53.3555556 L91.2952947,53.3555556 C95.5024612,53.3555556 98.9130435,56.7767064 98.9130435,60.9777778 C98.9130435,65.1874149 95.5082326,68.6 91.2952947,68.6 L47.826087,68.6 L47.826087,76.2143433 C47.826087,78.6242016 45.8746129,80.5777778 43.4782609,80.5777778 C41.0770228,80.5777778 39.1304348,78.6317515 39.1304348,76.2143433 L39.1304348,68.6 L39.1304348,68.6 Z" id="Layer-14"></path>
            </g>
        </g>
    </g>
</svg>