<?xml version="1.0" encoding="UTF-8"?>
<svg width="103px" height="104px" viewBox="0 0 103 104" version="1.1" xmlns="http://www.w3.org/2000/svg" xmlns:xlink="http://www.w3.org/1999/xlink">
    <!-- Generator: Sketch 46 (44423) - http://www.bohemiancoding.com/sketch -->
    <title>food-58</title>
    <desc>Created with Sketch.</desc>
    <defs></defs>
    <g id="ALL" stroke="none" stroke-width="1" fill="none" fill-rule="evenodd" stroke-linecap="round" stroke-linejoin="round">
        <g id="Secondary" transform="translate(-3632.000000, -6565.000000)" stroke="#868E96" stroke-width="3.5">
            <g id="food-58" transform="translate(3633.000000, 6567.000000)">
                <path d="M59.5466689,40.0965096 C67.2798232,47.8296639 81.3849836,46.2624238 91.0514265,36.595981 C100.717869,26.9295381 102.285109,12.8243777 94.5519551,5.09122339 C86.8188008,-2.6419309 72.7136404,-1.07469086 63.0471976,8.59175201 C53.3807547,18.2581949 51.8135146,32.3633553 59.5466689,40.0965096 L59.5466689,40.0965096 Z" id="Layer-1"></path>
                <path d="M63.0471976,8.59175201 C53.3807547,18.2581949 51.8135146,32.3633553 59.5466689,40.0965096 C59.5466689,40.0965096 62.3429896,26.2256649 76.9218025,22.721376 C91.5006154,19.217087 94.5519551,5.09122339 94.5519551,5.09122339 C86.8188008,-2.6419309 72.7136404,-1.07469086 63.0471976,8.59175201 L63.0471976,8.59175201 Z" id="Layer-2"></path>
                <path d="M48.6555798,94.5519551 C56.3887341,102.285109 70.4938945,100.717869 80.1603374,91.0514265 C89.8267803,81.3849836 91.3940203,67.2798232 83.660866,59.5466689 C75.9277117,51.8135146 61.8225513,53.3807547 52.1561084,63.0471976 C42.4896656,72.7136404 40.9224255,86.8188008 48.6555798,94.5519551 L48.6555798,94.5519551 Z" id="Layer-3"></path>
                <path d="M52.1561084,63.0471976 C42.4896656,72.7136404 40.9224255,86.8188008 48.6555798,94.5519551 C48.6555798,94.5519551 51.4519005,80.6811105 66.0307134,77.1768215 C80.6095263,73.6725326 83.660866,59.5466689 83.660866,59.5466689 C75.9277117,51.8135146 61.8225513,53.3807547 52.1561084,63.0471976 L52.1561084,63.0471976 Z" id="Layer-4"></path>
                <path d="M31.9376919,63.1363907 C41.8493745,58.5144972 45.2008996,44.7239544 39.4235327,32.3343512 C33.6461658,19.944748 20.9276783,13.6477751 11.0159958,18.2696685 C1.10431322,22.891562 -2.24721186,36.6821049 3.53015499,49.0717081 C9.30752185,61.4613113 22.0260093,67.7582842 31.9376919,63.1363907 L31.9376919,63.1363907 Z" id="Layer-5"></path>
                <path d="M3.53015499,49.0717081 C9.30752185,61.4613113 22.0260093,67.7582842 31.9376919,63.1363907 C31.9376919,63.1363907 19.8597596,55.7646005 21.5530528,40.8664602 C23.246346,25.9683198 11.0159958,18.2696685 11.0159958,18.2696685 C1.10431322,22.891562 -2.24721186,36.6821049 3.53015499,49.0717081 L3.53015499,49.0717081 Z" id="Layer-6"></path>
            </g>
        </g>
    </g>
</svg>