<?xml version="1.0" encoding="UTF-8"?>
<svg width="104px" height="104px" viewBox="0 0 104 104" version="1.1" xmlns="http://www.w3.org/2000/svg" xmlns:xlink="http://www.w3.org/1999/xlink">
    <!-- Generator: Sketch 46 (44423) - http://www.bohemiancoding.com/sketch -->
    <title>food-40</title>
    <desc>Created with Sketch.</desc>
    <defs></defs>
    <g id="ALL" stroke="none" stroke-width="1" fill="none" fill-rule="evenodd" stroke-linecap="round" stroke-linejoin="round">
        <g id="Secondary" transform="translate(-7651.000000, -6263.000000)" stroke="#868E96" stroke-width="3.5">
            <g id="food-40" transform="translate(7653.000000, 6265.000000)">
                <path d="M73.0632924,9.77942003 L82.8427125,0 C105.719096,22.8763834 105.719096,59.9663291 82.8427125,82.8427125 C59.9663291,105.719096 22.8763834,105.719096 0,82.8427125 L11.9102135,70.932499 C13.5966459,72.2291102 15.7082975,73 18,73 C23.5228475,73 28,68.5228475 28,63 C28,60.7082975 27.2291102,58.5966459 25.932499,56.9102135 L64.77942,18.0632924 C65.7098868,18.6563644 66.8148132,19 68,19 C71.3137085,19 74,16.3137085 74,13 C74,11.8148132 73.6563644,10.7098868 73.0632924,9.77942003 Z M39,90 C42.3137085,90 45,87.3137085 45,84 C45,80.6862915 42.3137085,78 39,78 C35.6862915,78 33,80.6862915 33,84 C33,87.3137085 35.6862915,90 39,90 Z M54,52 C57.3137085,52 60,49.3137085 60,46 C60,42.6862915 57.3137085,40 54,40 C50.6862915,40 48,42.6862915 48,46 C48,49.3137085 50.6862915,52 54,52 Z M78,53 C80.209139,53 82,51.209139 82,49 C82,46.790861 80.209139,45 78,45 C75.790861,45 74,46.790861 74,49 C74,51.209139 75.790861,53 78,53 Z M80,34 C82.209139,34 84,32.209139 84,30 C84,27.790861 82.209139,26 80,26 C77.790861,26 76,27.790861 76,30 C76,32.209139 77.790861,34 80,34 Z M64,81 C69.5228475,81 74,76.5228475 74,71 C74,65.4771525 69.5228475,61 64,61 C58.4771525,61 54,65.4771525 54,71 C54,76.5228475 58.4771525,81 64,81 Z" id="Layer-1"></path>
            </g>
        </g>
    </g>
</svg>