<?xml version="1.0" encoding="UTF-8"?>
<svg width="104px" height="105px" viewBox="0 0 104 105" version="1.1" xmlns="http://www.w3.org/2000/svg" xmlns:xlink="http://www.w3.org/1999/xlink">
    <!-- Generator: Sketch 47 (45396) - http://www.bohemiancoding.com/sketch -->
    <title>food-33</title>
    <desc>Created with Sketch.</desc>
    <defs></defs>
    <g id="ALL" stroke="none" stroke-width="1" fill="none" fill-rule="evenodd" stroke-linecap="round" fill-opacity="0" stroke-linejoin="round">
        <g id="Primary" transform="translate(-5519.000000, -6262.000000)" stroke="#343A40" stroke-width="3.5" fill="#DBECFF">
            <g id="food-33" transform="translate(5521.000000, 6264.000000)">
                <path d="M84.7583375,13.3814271 C77.8853902,15.8829753 70.1568828,11.9848942 70.1568828,11.9848942 C70.1568828,11.9848942 73.5716247,4.03100202 80.444572,1.52945378 C87.3175193,-0.972094469 95.0460267,2.92598666 95.0460267,2.92598666 C95.0460267,2.92598666 91.6312848,10.8798788 84.7583375,13.3814271 L84.7583375,13.3814271 Z" id="Layer-1"></path>
                <path d="M55.444572,13.3814271 C62.3175193,15.8829753 70.0460267,11.9848942 70.0460267,11.9848942 C70.0460267,11.9848942 66.6312848,4.03100202 59.7583375,1.52945378 C52.8853902,-0.972094469 45.1568828,2.92598666 45.1568828,2.92598666 C45.1568828,2.92598666 48.5716247,10.8798788 55.444572,13.3814271 L55.444572,13.3814271 Z" id="Layer-2"></path>
                <circle id="Layer-3" cx="25" cy="66" r="25"></circle>
                <path d="M8,66 C8,68.17258 8.40754768,70.2499722 9.1503629,72.1598963 M15.6062679,51.8288893 C12.8090419,53.6868299 10.5935359,56.3508648 9.29126755,59.4894762" id="Layer-4"></path>
                <circle id="Layer-5" cx="75" cy="76" r="25"></circle>
                <path d="M70,11 C70,11 68.4882812,23.7705078 58.2900391,36.9755859 C48.0917969,50.1806641 35.8740234,53.9960938 35.8740234,53.9960938" id="Layer-6"></path>
                <path d="M70.7382809,11 C70.7382809,11 80.740234,24.5654297 80.740234,39.3564453 C80.740234,54.1474609 76.9267579,59.0566406 76.9267579,59.0566406" id="Layer-7"></path>
                <path d="M29.0251263,52.213393 C28.0245336,55.9476557 30.240611,59.7860144 33.9748737,60.786607 L33.9748737,60.786607" id="Layer-8"></path>
                <path d="M70,61.394141 C71.3222476,65.0269863 75.339144,66.9000959 78.9719893,65.5778483 L78.9719893,65.5778483" id="Layer-9"></path>
            </g>
        </g>
    </g>
</svg>