<?xml version="1.0" encoding="UTF-8"?>
<svg width="95px" height="104px" viewBox="0 0 95 104" version="1.1" xmlns="http://www.w3.org/2000/svg" xmlns:xlink="http://www.w3.org/1999/xlink">
    <!-- Generator: Sketch 46 (44423) - http://www.bohemiancoding.com/sketch -->
    <title>food-8</title>
    <desc>Created with Sketch.</desc>
    <defs></defs>
    <g id="ALL" stroke="none" stroke-width="1" fill="none" fill-rule="evenodd" stroke-linecap="round" stroke-linejoin="round">
        <g id="Secondary" transform="translate(-7850.000000, -5962.000000)" stroke="#868E96" stroke-width="3.5">
            <g id="food-8" transform="translate(7852.000000, 5964.000000)">
                <path d="M10.4148725,92.3656834 C11.5595188,91.2210371 11.5687061,89.3743861 10.4353929,88.2410729 C9.30207973,87.1077597 7.4554287,87.116947 6.31078239,88.2615934 C5.16613608,89.4062397 5.15694876,91.2528907 6.29026194,92.3862039 C7.42357512,93.5195171 9.27022615,93.5103297 10.4148725,92.3656834 L10.4148725,92.3656834 Z" id="Layer-1"></path>
                <path d="M4.21775152,96.469828 L1.53575096,93.8143819 C-0.416990376,91.8809747 -0.41846425,88.7477614 1.53005004,86.8185393 L89.118705,0.0970987901 C89.118705,0.0970987901 94.6511465,13.6896333 82.4398396,35.6699235 C78.5031796,42.7558915 68.9094683,53.0982787 63.1319896,57.7183859 C57.3545109,62.3384932 52.6282673,59.1625036 44.9440117,60.0095009 C43.4057795,61.532503 13.0236819,98.2308272 13.0236819,98.2308272 C11.2747927,100.341909 8.26720659,100.479189 6.32064694,98.5519027 L4.21775152,96.469828 L4.21775152,96.469828 Z" id="Layer-2"></path>
            </g>
        </g>
    </g>
</svg>