<?xml version="1.0" encoding="UTF-8"?>
<svg width="58px" height="104px" viewBox="0 0 58 104" version="1.1" xmlns="http://www.w3.org/2000/svg" xmlns:xlink="http://www.w3.org/1999/xlink">
    <!-- Generator: Sketch 46 (44423) - http://www.bohemiancoding.com/sketch -->
    <title>food-25</title>
    <desc>Created with Sketch.</desc>
    <defs></defs>
    <g id="ALL" stroke="none" stroke-width="1" fill="none" fill-rule="evenodd" stroke-linecap="round" stroke-linejoin="round">
        <g id="Secondary" transform="translate(-3318.000000, -6263.000000)" stroke="#868E96" stroke-width="3.5">
            <g id="food-25" transform="translate(3320.000000, 6265.000000)">
                <path d="M33.0727499,59 C31.0695531,61.2870135 30.0967742,64.4312768 30.0967742,67.9805623 L30.0967742,86.8612284 C30.0967742,94.0036108 35.8737452,99.7813779 43,99.7813779 L27,99.7813771 L11,99.7813779 C18.1262548,99.7813779 23.9032258,94.0036108 23.9032258,86.8612284 L23.9032258,67.9805623 C23.9032258,64.6480553 23.0456462,61.6726066 21.2827775,59.42854 C23.2594748,60.1309251 25.2150433,60.466491 27.0693359,60.3801304 C28.97332,60.2914556 31.0057588,59.8163333 33.0727499,59 L33.0727499,59 Z" id="Layer-1"></path>
                <path d="M47.7882812,3.55271368e-15 C51.9334113,6.25840376 54,15.0101678 54,24.8219289 C54,44.2426903 37.9743143,59.4333567 26.6069289,59.9863281 C15.2395435,60.5392996 0,44.2426903 0,24.8219289 C0,15.6729031 2.00707982,6.57973851 5.69244499,1.08474942e-14 L47.7882812,1.08474942e-14 L47.7882812,3.55271368e-15 Z" id="Layer-2"></path>
                <path d="M53.6190659,30 C51.1279881,46.8807691 36.9420998,59.4835692 26.6069289,59.9863281 C16.2667294,60.4893317 2.72255011,47.050313 0.359208924,30 L53.6190659,30 L53.6190659,30 Z" id="Layer-3"></path>
            </g>
        </g>
    </g>
</svg>