<?xml version="1.0" encoding="UTF-8"?>
<svg width="104px" height="104px" viewBox="0 0 104 104" version="1.1" xmlns="http://www.w3.org/2000/svg" xmlns:xlink="http://www.w3.org/1999/xlink">
    <!-- Generator: Sketch 46 (44423) - http://www.bohemiancoding.com/sketch -->
    <title>food-4</title>
    <desc>Created with Sketch.</desc>
    <defs></defs>
    <g id="ALL" stroke="none" stroke-width="1" fill="none" fill-rule="evenodd" stroke-linecap="round" stroke-linejoin="round">
        <g id="Secondary" transform="translate(-6686.000000, -5962.000000)" stroke="#868E96" stroke-width="3.5">
            <g id="food-4" transform="translate(6688.000000, 5964.000000)">
                <path d="M90.0795104,50.5661392 L90.0795104,94.0015788 C90.0795104,97.3144154 87.3893834,100 84.0869551,100 L15.907926,100 C12.5983291,100 9.91537071,97.3201398 9.91537071,94.0015788 L9.91537071,50.5661392 L2.50128919,46.2856172 C0.108740974,44.9042788 -0.708704979,41.8409528 0.669197424,39.4543558 C2.0499093,37.0628927 5.10909371,36.2442284 7.50128919,37.6253632 L9.91537071,39.0191338 L9.91537071,30 L90.0795104,30 L90.0795104,39.0191338 L92.4935919,37.6253632 C94.8857874,36.2442284 97.9449718,37.0628927 99.3256837,39.4543558 C100.703586,41.8409528 99.8861401,44.9042788 97.4935919,46.2856172 L90.0795104,50.5661392 L90.0795104,50.5661392 Z" id="Layer-1"></path>
                <path d="M20,39 L20,77" id="Layer-2"></path>
                <path d="M20,91 L20,87" id="Layer-3"></path>
                <path d="M50.0338542,16.0589225 C50.0338542,16.0589225 52.3600262,12.2074442 50.0338542,7.92521732 C47.7076822,3.64299044 50.0338542,0 50.0338542,0" id="Layer-4"></path>
                <path d="M70.0338542,16.0589225 C70.0338542,16.0589225 72.3600262,12.2074442 70.0338542,7.92521732 C67.7076822,3.64299044 70.0338542,0 70.0338542,0" id="Layer-5"></path>
                <path d="M30.0338542,16.0589225 C30.0338542,16.0589225 32.3600262,12.2074442 30.0338542,7.92521732 C27.7076822,3.64299044 30.0338542,0 30.0338542,0" id="Layer-6"></path>
            </g>
        </g>
    </g>
</svg>