<?xml version="1.0" encoding="UTF-8"?>
<svg width="93px" height="104px" viewBox="0 0 93 104" version="1.1" xmlns="http://www.w3.org/2000/svg" xmlns:xlink="http://www.w3.org/1999/xlink">
    <!-- Generator: Sketch 46 (44423) - http://www.bohemiancoding.com/sketch -->
    <title>food-55</title>
    <desc>Created with Sketch.</desc>
    <defs></defs>
    <g id="ALL" stroke="none" stroke-width="1" fill="none" fill-rule="evenodd" stroke-linecap="round" stroke-linejoin="round">
        <g id="Secondary" transform="translate(-2812.000000, -6565.000000)" stroke="#868E96" stroke-width="3.5">
            <g id="food-55" transform="translate(2813.000000, 6567.000000)">
                <path d="M74.927396,0.509694627 C84.4495011,14.3950179 90,31.0768719 90,49.0196078 C90,66.9342015 84.4668989,83.5918652 74.9721716,97.4641649 L67.4198206,92.5334479 C76.4526452,80.2753095 81.7699219,65.2514097 81.7699219,49.0196078 C81.7699219,32.7624862 76.4360435,17.7170378 67.3775229,5.44842391 L74.927396,0.509694627 Z" id="Layer-1"></path>
                <path d="M17.0015413,59.6167746 L0.769921875,49.0196078 L67.3775229,5.44842391 C76.4360435,17.7170378 81.7699219,32.7624862 81.7699219,49.0196078 C81.7699219,65.2514097 76.4526452,80.2753095 67.4198206,92.5334479 L47.0019251,79.2031795 C47.0019251,79.704787 47.0019251,80.1076775 47.0019251,80.3829975 L47.0019251,80.6362975 L47.0019251,86.2791633 C47.0019251,88.9838715 44.7577299,91.1764706 42.0019251,91.1764706 C39.2405013,91.1764706 37.0019251,88.9842765 37.0019251,86.2791633 L37.0019251,78.5511161 L37.0019251,75.4959205 C37.0019251,72.788261 34.7633488,70.5882353 32.0019251,70.5882353 C29.2461203,70.5882353 27.0019251,72.7854808 27.0019251,75.4959205 L27.0019251,79.4287127 L27.0019251,95.0923148 C27.0019251,97.8027545 24.7577299,100 22.0019251,100 C19.2405013,100 17.0019251,97.7999743 17.0019251,95.0923148 L17.0019251,81.2850992 L17.0019251,65.6930512 C17.0019251,64.9142424 17.001767,62.5680037 17.0015413,59.6167746 L17.0015413,59.6167746 Z" id="Layer-2"></path>
                <ellipse id="Layer-3" cx="70" cy="43.1372549" rx="2" ry="1.96078431"></ellipse>
                <ellipse id="Layer-4" cx="66" cy="19.6078431" rx="2" ry="1.96078431"></ellipse>
                <path d="M28,45.0980392 L25.0065045,45.0980392 C22.7939455,45.0980392 21,46.8537853 21,49.0196078 C21,51.1810234 22.7937732,52.9411765 25.0065045,52.9411765 L28,52.9411765 L28,52.9448993 C28,55.1089898 29.790861,56.8627451 32,56.8627451 C34.2046438,56.8627451 36,55.1086658 36,52.9448993 L36,45.0943164 C36,42.9302259 34.209139,41.1764706 32,41.1764706 C29.7953562,41.1764706 28,42.9305499 28,45.0943164 L28,45.0980392 L28,45.0980392 Z" id="Layer-5"></path>
                <ellipse id="Layer-6" cx="55" cy="35.2941176" rx="6" ry="5.88235294"></ellipse>
                <ellipse id="Layer-7" cx="51" cy="65.6862745" rx="4" ry="3.92156863"></ellipse>
                <ellipse id="Layer-8" cx="68" cy="57.8431373" rx="4" ry="3.92156863"></ellipse>
            </g>
        </g>
    </g>
</svg>