<?xml version="1.0" encoding="UTF-8"?>
<svg width="67px" height="104px" viewBox="0 0 67 104" version="1.1" xmlns="http://www.w3.org/2000/svg" xmlns:xlink="http://www.w3.org/1999/xlink">
    <!-- Generator: Sketch 46 (44423) - http://www.bohemiancoding.com/sketch -->
    <title>food-7</title>
    <desc>Created with Sketch.</desc>
    <defs></defs>
    <g id="ALL" stroke="none" stroke-width="1" fill="none" fill-rule="evenodd" stroke-linecap="round" stroke-linejoin="round">
        <g id="Secondary" transform="translate(-7586.000000, -5962.000000)" stroke="#868E96" stroke-width="3.5">
            <g id="food-7" transform="translate(7588.000000, 5964.000000)">
                <path d="M11.7881949,100 L13.5969841,100 C16.3626422,100 18.6046512,97.761684 18.6046512,94.9950118 L18.6046512,0.107512876 C18.6046512,0.107512876 8.04688838,4.60011769 2.57158724,23.4625473 C0.806469109,29.5433848 0.339395109,40.5279446 0.948477356,46.2526521 C1.5575596,51.9773596 5.90653654,52.8097142 9.64970138,57.4907188 C9.64970138,59.1770667 6.09771023,95.0177031 6.09771023,95.0177031 C5.8260932,97.7693497 7.84936492,100 10.6033391,100 L11.7881949,100 L11.7881949,100 Z" id="Layer-1"></path>
                <path d="M53.9328869,41.1202769 L47.7371138,41.1202769 L45.3648148,94.5399701 C45.2309008,97.5554613 47.5629277,100 50.5774348,100 L51.0439406,100 C54.0567052,100 56.3928463,97.563556 56.2610698,94.5399701 L53.9328869,41.1202769 L53.9328869,41.1202769 Z" id="Layer-2"></path>
                <path d="M38.6213755,33.0554664 C38.6213755,37.509539 42.5111977,41.1202782 47.3193711,41.1202782 L54.3020044,41.1202782 C59.1057747,41.1202782 63,37.5096567 63,33.0554664 L40.0978358,33.0554664 L38.6213755,33.0554664 L38.6213755,33.0554664 Z" id="Layer-3"></path>
                <path d="M54.8737918,33.0545629 L54.8737918,0.791701643" id="Layer-4"></path>
                <path d="M46.7475836,33.0545629 L46.7475836,0.791701643" id="Layer-5"></path>
                <path d="M38.6213755,0.791701643 L38.6213755,32.8284586" id="Layer-6"></path>
                <path d="M63,32.8284586 L63,0.791701643" id="Layer-7"></path>
            </g>
        </g>
    </g>
</svg>