<?xml version="1.0" encoding="UTF-8"?>
<svg width="64px" height="106px" viewBox="0 0 64 106" version="1.1" xmlns="http://www.w3.org/2000/svg" xmlns:xlink="http://www.w3.org/1999/xlink">
    <!-- Generator: Sketch 46 (44423) - http://www.bohemiancoding.com/sketch -->
    <title>food-15</title>
    <desc>Created with Sketch.</desc>
    <defs></defs>
    <g id="ALL" stroke="none" stroke-width="1" fill="none" fill-rule="evenodd" stroke-linecap="round" stroke-linejoin="round">
        <g id="Secondary" transform="translate(-436.000000, -6263.000000)" stroke="#868E96" stroke-width="3.5">
            <g id="food-15" transform="translate(438.000000, 6265.000000)">
                <path d="M23.4309986,15.8466057 C23.4309986,21.1401309 23.4309988,32.1455472 23.4309995,34.1611577 C23.4309986,39.4460449 19.2636034,42.4362432 12.5905846,47.3276367 C3.72171336,53.8286133 0,60.1361045 0,67.3354492 L0,89.8311802 C0,96.4538531 5.55677456,101.835449 12.4114033,101.835449 L30,101.835449 L47.5885967,101.835449 C54.4432254,101.835449 60,96.4538531 60,89.8311802 L60,67.3354492 C60,60.1361045 56.2782866,53.8286133 47.4094154,47.3276367 C40.7363966,42.4362432 36.5690014,39.4460449 36.5690005,34.1611577 C36.5690012,32.1455327 36.5690003,21.139973 36.5689997,15.8464917 C36.0629611,15.9471924 35.539884,16 35.0047247,16 L24.9952753,16 C24.4599312,16 23.936876,15.9472219 23.4309986,15.8466057 L23.4309986,15.8466057 Z" id="Layer-1"></path>
                <path d="M12,80 L52,80" id="Layer-2" stroke-dasharray="1,6"></path>
                <path d="M12,60 L52,60" id="Layer-3" stroke-dasharray="1,6"></path>
                <path d="M12,90 L52,90" id="Layer-4" stroke-dasharray="1,6"></path>
                <path d="M12,70 L52,70" id="Layer-5" stroke-dasharray="1,6"></path>
                <rect id="Layer-6" x="17" y="0" width="26" height="16" rx="8"></rect>
            </g>
        </g>
    </g>
</svg>