<?xml version="1.0" encoding="UTF-8"?>
<svg width="104px" height="104px" viewBox="0 0 104 104" version="1.1" xmlns="http://www.w3.org/2000/svg" xmlns:xlink="http://www.w3.org/1999/xlink">
    <!-- Generator: Sketch 46 (44423) - http://www.bohemiancoding.com/sketch -->
    <title>food-47</title>
    <desc>Created with Sketch.</desc>
    <defs></defs>
    <g id="ALL" stroke="none" stroke-width="1" fill="none" fill-rule="evenodd" stroke-linecap="round" stroke-linejoin="round">
        <g id="Secondary" transform="translate(-416.000000, -6565.000000)" stroke="#868E96" stroke-width="3.5">
            <g id="food-47" transform="translate(418.000000, 6567.000000)">
                <path d="M75,39 L75,22.2222222 L74.925371,22.2222222 C74.3638998,25.4170893 70.6897661,27.7777778 65.7905009,27.7777778 L34.2093326,27.7777778 C29.3068685,27.7777778 25.6371743,25.413462 25.0749555,22.2222222 L25.0749555,22.2222222 L25,22.2222222 L25,39 L37.6192766,39 C42.2641061,39 46.6616929,42.323058 47.4387436,46.4074449 L49.9049206,59.3703329 C50.018987,59.9698966 50.0285787,60.5528231 49.9435892,61.1111111 L50.0566897,61.1111111 C49.971436,60.552642 49.9808868,59.9696844 50.0949129,59.3703329 L52.5610898,46.4074449 C53.3394022,42.316426 57.7398311,39 62.3805568,39 L75,39 L75,39 Z" id="Layer-1"></path>
                <path d="M37.3805568,0 L62.6192766,0 C67.2641061,0 71.6616929,3.32305803 72.4387436,7.40744489 L74.9049206,20.3703329 C75.683233,24.4613517 71.5974333,27.7777778 65.7905009,27.7777778 L34.2093326,27.7777778 C28.3972651,27.7777778 24.3178622,24.4547197 25.0949129,20.3703329 L27.5610898,7.40744489 C28.3394022,3.31642604 32.7398311,0 37.3805568,0 Z" id="Layer-2"></path>
                <ellipse id="Layer-3" cx="50.5555556" cy="13.968254" rx="8.88888889" ry="5.07936508"></ellipse>
                <path d="M33.8888889,37.7777777 L33.8888889,35.5208672" id="Layer-4"></path>
                <path d="M0.0749554816,61.2222222 L0,61.2222222 L0,92.1122354 C0,96.5222439 3.58424395,100.111111 8.00563294,100.111111 L41.9943671,100.111111 C46.424189,100.111111 50,96.5298925 50,92.1122354 L50,61.2222222 L49.925371,61.2222222 C49.3638998,64.4170893 45.6897661,66.7777778 40.7905009,66.7777778 L9.20933256,66.7777778 C4.30686849,66.7777778 0.637174297,64.413462 0.0749554816,61.2222222 L0.0749554816,61.2222222 Z" id="Layer-5"></path>
                <path d="M12.3805568,39 L37.6192766,39 C42.2641061,39 46.6616929,42.323058 47.4387436,46.4074449 L49.9049206,59.3703329 C50.683233,63.4613517 46.5974333,66.7777778 40.7905009,66.7777778 L9.20933256,66.7777778 C3.39726515,66.7777778 -0.682137819,63.4547197 0.0949128561,59.3703329 L2.56108984,46.4074449 C3.33940224,42.316426 7.73983106,39 12.3805568,39 Z" id="Layer-6"></path>
                <ellipse id="Layer-7" cx="25.5555556" cy="52.968254" rx="8.88888889" ry="5.07936508"></ellipse>
                <path d="M8.88888889,76.7777777 L8.88888889,74.5208672" id="Layer-8"></path>
                <path d="M8.88888889,91.2222222 L8.88888889,83.4444444" id="Layer-9"></path>
                <path d="M50.0749555,61.2222222 L50,61.2222222 L50,92.1122354 C50,96.5222439 53.584244,100.111111 58.0056329,100.111111 L91.9943671,100.111111 C96.424189,100.111111 100,96.5298925 100,92.1122354 L100,61.2222222 L99.925371,61.2222222 C99.3638998,64.4170893 95.6897661,66.7777778 90.7905009,66.7777778 L59.2093326,66.7777778 C54.3068685,66.7777778 50.6371743,64.413462 50.0749555,61.2222222 L50.0749555,61.2222222 Z" id="Layer-10"></path>
                <path d="M62.3805568,39 L87.6192766,39 C92.2641061,39 96.6616929,42.323058 97.4387436,46.4074449 L99.9049206,59.3703329 C100.683233,63.4613517 96.5974333,66.7777778 90.7905009,66.7777778 L59.2093326,66.7777778 C53.3972651,66.7777778 49.3178622,63.4547197 50.0949129,59.3703329 L52.5610898,46.4074449 C53.3394022,42.316426 57.7398311,39 62.3805568,39 Z" id="Layer-11"></path>
                <ellipse id="Layer-12" cx="75.5555556" cy="52.968254" rx="8.88888889" ry="5.07936508"></ellipse>
                <path d="M58.8888889,76.7777777 L58.8888889,74.5208672" id="Layer-13"></path>
                <path d="M58.8888889,91.2222222 L58.8888889,83.4444444" id="Layer-14"></path>
            </g>
        </g>
    </g>
</svg>