<?xml version="1.0" encoding="UTF-8"?>
<svg width="103px" height="104px" viewBox="0 0 103 104" version="1.1" xmlns="http://www.w3.org/2000/svg" xmlns:xlink="http://www.w3.org/1999/xlink">
    <!-- Generator: Sketch 46 (44423) - http://www.bohemiancoding.com/sketch -->
    <title>food-46</title>
    <desc>Created with Sketch.</desc>
    <defs></defs>
    <g id="ALL" stroke="none" stroke-width="1" fill="none" fill-rule="evenodd" stroke-linecap="round" stroke-linejoin="round">
        <g id="Secondary" transform="translate(-9432.000000, -6263.000000)" stroke="#868E96" stroke-width="3.5">
            <g id="food-46" transform="translate(9434.000000, 6265.000000)">
                <path d="M86.4044518,55.8059641 C74.5681187,64.3486377 58.0140458,63.2527849 47.3880945,52.5184055 C36.7621473,41.7840303 35.6773604,25.0610471 44.1337339,13.103936 C44.2558702,13.2603516 44.3883714,13.4111964 44.5312419,13.5555248 L85.9574108,55.4044097 C86.1002561,55.5487126 86.2495828,55.6825653 86.4044518,55.8059641 L86.4044518,55.8059641 L86.4044518,55.8059641 Z" id="Layer-1"></path>
                <path d="M93.4974116,48.6406232 C101.953785,36.6835121 100.868998,19.9605289 90.2430509,9.22615363 C79.6170997,-1.50822573 63.0630268,-2.60407857 51.2266937,5.93859512 C49.2465566,4.36083253 46.3603724,4.49206242 44.5310974,6.34000351 C42.5627658,8.3284201 42.5588172,11.5629733 44.5312419,13.5555248 L85.9574108,55.4044097 C87.9266596,57.3937528 91.1277031,57.3970265 93.100048,55.4045557 C94.9258055,53.560168 95.0614497,50.6436309 93.4974116,48.6406232 L93.4974116,48.6406232 L93.4974116,48.6406232 Z" id="Layer-2"></path>
                <path d="M83.8148075,14.2769164 C79.8668392,10.2886627 74.691375,8.29619317 69.5169311,8.29950786 M62.1603481,9.70028634 C60.9524099,10.1774987 59.7807752,10.776642 58.6639956,11.4977163" id="Layer-3"></path>
                <path d="M44.5310974,49.6322554 L50.2450916,55.4045557 L7.39262549,98.6942918 C5.8133742,100.289658 3.25080624,100.287541 1.67614098,98.6968076 L1.67614098,98.6968076 C0.09826505,97.1028309 0.101490217,94.5152259 1.6786313,92.9219916 L44.5310974,49.6322554 L44.5310974,49.6322554 Z" id="Layer-4"></path>
            </g>
        </g>
    </g>
</svg>