<?xml version="1.0" encoding="UTF-8"?>
<svg width="88px" height="104px" viewBox="0 0 88 104" version="1.1" xmlns="http://www.w3.org/2000/svg" xmlns:xlink="http://www.w3.org/1999/xlink">
    <!-- Generator: Sketch 46 (44423) - http://www.bohemiancoding.com/sketch -->
    <title>food-18</title>
    <desc>Created with Sketch.</desc>
    <defs></defs>
    <g id="ALL" stroke="none" stroke-width="1" fill="none" fill-rule="evenodd" stroke-linecap="round" stroke-linejoin="round">
        <g id="Secondary" transform="translate(-1256.000000, -6263.000000)" stroke="#868E96" stroke-width="3.5">
            <g id="food-18" transform="translate(1258.000000, 6265.000000)">
                <path d="M68.0888732,54.6722195 C69.0972855,57.7077972 69.7224069,61.0832784 69.7224069,64.8936167 C69.7224069,84.2823366 54.4951029,100 35.106383,100 C15.717663,100 0,84.282337 0,64.893617 C0,45.6329834 12.8750416,41.6462351 14.4552028,29.7872342 C16.035364,17.9282332 3.18525598,4.23350244 3.18525598,4.23350244 C3.18525598,4.23350244 21.8303275,-5.48641102 38.2521609,5.93365626 C42.2784196,9.08561517 45.3900288,8.15256331 49.1057704,7.19483167 C55.0263374,4.45876828 61.7193284,3.19404788 66.0540635,3.6148396 C75.3755621,4.51971826 84.3760403,10.9494462 83.4851867,24.9220819 C82.9098318,33.9462648 73.9156259,46.2498975 68.0888732,54.6722195 L68.0888732,54.6722195 L68.0888732,54.6722195 Z M63.2978723,45.3592503 C63.2978723,45.3592503 75.2706325,31.1242936 75.2706325,21.9934342 C75.2706325,15.0006233 69.7416265,11.7021277 63.2978723,11.7021277 C56.8541182,11.7021277 53.1608419,18.219348 53.1608419,26.1510971 C53.1608419,34.0828461 63.2978723,45.3592503 63.2978723,45.3592503 L63.2978723,45.3592503 L63.2978723,45.3592503 Z" id="Layer-1"></path>
                <path d="M13.8297872,32.388392 C14.2007677,31.3281775 14.4794191,30.210486 14.6393702,29.0100634 C14.9169292,26.9270023 14.7378419,24.7858494 14.2576359,22.6751452 L52.5398378,22.6751452 C52.431966,23.5778319 52.3771673,24.5108463 52.3771673,25.4648487 C52.3771673,27.6220887 53.1462401,30.0330799 54.2553191,32.388392 L13.8297872,32.388392 L13.8297872,32.388392 Z" id="Layer-2"></path>
                <path d="M9.57446809,70.212766 C11.9047124,78.04033 16.9877722,83.6181641 23.7657912,87.3405294" id="Layer-3"></path>
                <path d="M9.4114355,57.6678267 C8.99025357,58.9668358 8.72580595,60.3874459 8.59937957,61.8136943" id="Layer-4"></path>
            </g>
        </g>
    </g>
</svg>