<?xml version="1.0" encoding="UTF-8"?>
<svg width="84px" height="104px" viewBox="0 0 84 104" version="1.1" xmlns="http://www.w3.org/2000/svg" xmlns:xlink="http://www.w3.org/1999/xlink">
    <!-- Generator: Sketch 46 (44423) - http://www.bohemiancoding.com/sketch -->
    <title>food-29</title>
    <desc>Created with Sketch.</desc>
    <defs></defs>
    <g id="ALL" stroke="none" stroke-width="1" fill="none" fill-rule="evenodd" stroke-linecap="round" stroke-linejoin="round">
        <g id="Secondary" transform="translate(-4412.000000, -6263.000000)" stroke="#868E96" stroke-width="3.5">
            <g id="food-29" transform="translate(4414.000000, 6265.000000)">
                <rect id="Layer-1" x="0" y="0" width="80" height="100" rx="3"></rect>
                <path d="M0,92 L80,92 L80,96.9983345 C80,98.6561086 78.6616553,100 77.0099126,100 L2.99008742,100 C1.33870774,100 0,98.6609799 0,96.9983345 L0,92 Z" id="Layer-2"></path>
                <path d="M0,2.99942248 C0,1.34288718 1.33834472,0 2.99008742,0 L77.0099126,0 C78.6612923,0 80,1.34435073 80,2.99942248 L80,15 L0,15 L0,2.99942248 Z" id="Layer-3"></path>
                <circle id="Layer-4" cx="72.5" cy="7.5" r="2.5"></circle>
                <rect id="Layer-5" x="8" y="30" width="64" height="50" rx="1"></rect>
                <path d="M7.80349986,8 L30.2821407,8" id="Layer-6"></path>
                <path d="M25,27 C25,25.3431458 26.3473186,24 28.0000191,24 L51.9999809,24 C53.6568457,24 55,25.3465171 55,27 L55,30 L25,30 L25,27 Z" id="Layer-7"></path>
            </g>
        </g>
    </g>
</svg>