<?xml version="1.0" encoding="UTF-8"?>
<svg width="84px" height="104px" viewBox="0 0 84 104" version="1.1" xmlns="http://www.w3.org/2000/svg" xmlns:xlink="http://www.w3.org/1999/xlink">
    <!-- Generator: Sketch 46 (44423) - http://www.bohemiancoding.com/sketch -->
    <title>food-57</title>
    <desc>Created with Sketch.</desc>
    <defs></defs>
    <g id="ALL" stroke="none" stroke-width="1" fill="none" fill-rule="evenodd" stroke-linecap="round" stroke-linejoin="round">
        <g id="Secondary" transform="translate(-3351.000000, -6565.000000)" stroke="#868E96" stroke-width="3.5">
            <g id="food-57" transform="translate(3353.000000, 6567.000000)">
                <path d="M60,46.9434868 C60,46.3911317 60.384164,45.7103726 60.8525252,45.4263222 L68.9472795,40.5170372 C69.4181162,40.2314854 70.1872089,40.2257293 70.6694676,40.5067275 L79.1303371,45.4366319 C79.6106387,45.7164898 80,46.3894774 80,46.9434868 L80,65.3919624 C80,65.9443176 79.5446944,66.3920898 79.0081969,66.3920898 L60.9918031,66.3920898 C60.4440454,66.3920898 60,65.9459718 60,65.3919624 L60,46.9434868 Z" id="Layer-1"></path>
                <path d="M0,39.9316406 L9.9140625,30 L39.9638672,30 L50,39.7783203 L50,96.9929936 C50,98.6537174 48.6626208,100 47.0034676,100 L2.99653242,100 C1.34159326,100 0,98.6611666 0,97.0006492 L0,39.9316406 Z" id="Layer-2"></path>
                <path d="M0,60.1018373 L50,60 L50,96.9934988 C50,98.6539436 48.6626208,100 47.0034676,100 L2.99653242,100 C1.34159326,100 0,98.6496548 0,97.0011532 L0,60.1018373 Z" id="Layer-3"></path>
                <path d="M25,30.0405273 L25,21.0061566 C25,9.40477666 34.4060735,0 46.0013531,0 L48.9986469,0 C60.5973739,0 70,9.40798043 70,21.0061566 L70,39.9970703" id="Layer-4"></path>
                <path d="M14.5609981,36.2207569 L36.5609981,36.2207569" id="Layer-5"></path>
            </g>
        </g>
    </g>
</svg>