<?xml version="1.0" encoding="UTF-8"?>
<svg width="104px" height="94px" viewBox="0 0 104 94" version="1.1" xmlns="http://www.w3.org/2000/svg" xmlns:xlink="http://www.w3.org/1999/xlink">
    <!-- Generator: Sketch 46 (44423) - http://www.bohemiancoding.com/sketch -->
    <title>food-44</title>
    <desc>Created with Sketch.</desc>
    <defs></defs>
    <g id="ALL" stroke="none" stroke-width="1" fill="none" fill-rule="evenodd" stroke-linecap="round" stroke-linejoin="round">
        <g id="Secondary" transform="translate(-8832.000000, -6264.000000)" stroke="#868E96" stroke-width="3.5">
            <g id="food-44" transform="translate(8834.000000, 6265.000000)">
                <path d="M56.1462461,7.25153931 L56.0356907,7.20538814 L6.49089303,57.2456338 C-1.19672172,65.0101247 -1.19581403,77.594789 6.48987957,85.3573396 C14.177263,93.1215969 26.6347277,93.1217251 34.3181801,85.3614382 L94.6722678,24.4038096 C90.255025,27.6461588 83.4160372,29.5955351 75.8094363,29.3272505 C62.8178718,28.8690383 52.5067938,22.1153471 52.7789991,14.242459 C52.8683939,11.6569272 54.0881086,9.27222876 56.1462461,7.25153931 L56.1462461,7.25153931 L56.1462461,7.25153931 Z" id="Layer-1"></path>
                <path d="M99.8256159,15.9017921 C100.097821,8.02890405 89.7867432,1.27521288 76.7951787,0.817000699 C63.8036142,0.358788516 53.0512043,6.36957095 52.7789991,14.242459 C52.5067938,22.1153471 62.8178718,28.8690383 75.8094363,29.3272505 C88.8010007,29.7854626 99.5534106,23.7746802 99.8256159,15.9017921 L99.8256159,15.9017921 Z" id="Layer-2"></path>
                <path d="M12.0827897,63 C10.118317,65.066479 8.91089109,67.8726705 8.91089109,70.9636916 C8.91089109,72.1375192 9.08501774,73.2702707 9.40860579,74.3370342" id="Layer-3"></path>
            </g>
        </g>
    </g>
</svg>