<?xml version="1.0" encoding="UTF-8"?>
<svg width="104px" height="102px" viewBox="0 0 104 102" version="1.1" xmlns="http://www.w3.org/2000/svg" xmlns:xlink="http://www.w3.org/1999/xlink">
    <!-- Generator: Sketch 46 (44423) - http://www.bohemiancoding.com/sketch -->
    <title>food-16</title>
    <desc>Created with Sketch.</desc>
    <defs></defs>
    <g id="ALL" stroke="none" stroke-width="1" fill="none" fill-rule="evenodd" stroke-linecap="round" stroke-linejoin="round">
        <g id="Secondary" transform="translate(-701.000000, -6264.000000)" stroke="#868E96" stroke-width="3.5">
            <g id="food-16" transform="translate(703.000000, 6265.000000)">
                <path d="M71.037003,11.0318534 L61.6482221,1.73887638 C60.4426919,0.545647504 58.4815009,0.552220132 57.2836807,1.73781765 L1.34706672,57.1036498 C0.142127265,58.296294 0.148208149,60.2359711 1.34813636,61.4236551 L10.7369173,70.7166322 L8.34989655,73.0792956 C6.33792992,75.0707319 6.3444109,78.305903 8.34944002,80.2904726 L19.3353034,91.1642354 C21.3470179,93.1554222 24.6134735,93.1506494 26.6208225,91.1637835 L29.0078433,88.8011201 L38.3966242,98.0940972 C39.6021544,99.287326 41.5633454,99.2807534 42.7611656,98.0951559 L98.6977796,42.7293237 C99.902719,41.5366795 99.8966382,39.5970025 98.6967099,38.4093184 L89.307929,29.1163414 L91.6965118,26.7521319 C93.7102328,24.7589591 93.7071208,21.5336877 91.6954063,19.5425009 L80.7095429,8.66873816 C78.7045138,6.68416853 75.4366897,6.67706148 73.4255858,8.66764396 L71.037003,11.0318534 L71.037003,11.0318534 Z" id="Layer-1"></path>
                <path d="M77.1583847,17.0600161 L83.1865473,23.0881787" id="Layer-2"></path>
                <path d="M16.858299,76.7447948 L22.8864616,82.7729575" id="Layer-3"></path>
            </g>
        </g>
    </g>
</svg>