<?xml version="1.0" encoding="UTF-8"?>
<svg width="104px" height="103px" viewBox="0 0 104 103" version="1.1" xmlns="http://www.w3.org/2000/svg" xmlns:xlink="http://www.w3.org/1999/xlink">
    <!-- Generator: Sketch 46 (44423) - http://www.bohemiancoding.com/sketch -->
    <title>food-9</title>
    <desc>Created with Sketch.</desc>
    <defs></defs>
    <g id="ALL" stroke="none" stroke-width="1" fill="none" fill-rule="evenodd" stroke-linecap="round" stroke-linejoin="round">
        <g id="Secondary" transform="translate(-8141.000000, -5962.000000)" stroke="#868E96" stroke-width="3.5">
            <g id="food-9" transform="translate(8143.000000, 5964.000000)">
                <path d="M58.078531,46.9967488 L12.2029391,97.121592 C9.70370175,99.8523226 5.5539795,99.9423271 2.94537803,97.3337257 L2.51046609,96.8988137 C-0.103106333,94.2852413 -0.00544321888,90.1538396 2.74108337,87.6597363 L53.029459,41.9931813 C53.699458,42.903961 54.456189,43.7785195 55.2908943,44.6132248 C56.1765904,45.4989209 57.107257,46.2969244 58.078531,46.9967488 L58.078531,46.9967488 Z" id="Layer-1"></path>
                <path d="M84.6141654,42.0844893 C95.8402161,30.8584386 104.969669,12.2676132 96.3030876,3.60103147 C87.6365059,-5.06555021 69.0527114,4.0709338 57.8266606,15.2969846 C46.6006098,26.5230353 47.8354837,37.1578142 55.2908943,44.6132248 C62.7463049,52.0686354 73.3881146,53.3105401 84.6141654,42.0844893 L84.6141654,42.0844893 Z" id="Layer-2"></path>
            </g>
        </g>
    </g>
</svg>