<?xml version="1.0" encoding="UTF-8"?>
<svg width="104px" height="104px" viewBox="0 0 104 104" version="1.1" xmlns="http://www.w3.org/2000/svg" xmlns:xlink="http://www.w3.org/1999/xlink">
    <!-- Generator: Sketch 46 (44423) - http://www.bohemiancoding.com/sketch -->
    <title>food-59</title>
    <desc>Created with Sketch.</desc>
    <defs></defs>
    <g id="ALL" stroke="none" stroke-width="1" fill="none" fill-rule="evenodd" stroke-linecap="round" stroke-linejoin="round">
        <g id="Secondary" transform="translate(-3931.000000, -6565.000000)" stroke="#868E96" stroke-width="3.5">
            <g id="food-59" transform="translate(3933.000000, 6567.000000)">
                <path d="M77.8845805,17.8965774 C71.7441099,17.1042639 67,11.856155 67,5.5 C67,4.66204986 67.0824522,3.84335746 67.239686,3.0515933 C61.8656164,1.07760044 56.0586518,0 50,0 C22.3857625,0 0,22.3857625 0,50 C0,77.6142375 22.3857625,100 50,100 C77.6142375,100 100,77.6142375 100,50 C100,47.4953282 99.8158349,45.0336706 99.4603073,42.6278297 C96.0870604,41.7850785 93.2565935,39.5718504 91.5947117,36.6139503 C90.6050259,36.8660207 89.5681592,37 88.5,37 C81.5964406,37 76,31.4035594 76,24.5 C76,22.0757648 76.6901052,19.8127123 77.8845805,17.8965774 L77.8845805,17.8965774 Z" id="Layer-1"></path>
                <path d="M19.4919228,10 C15.0082705,13.4056222 11.1170448,17.5507753 8,22.253705 C9.07938998,26.6110838 13.016004,29.8411716 17.7070454,29.8411716 C23.2298929,29.8411716 27.7070454,25.3640191 27.7070454,19.8411716 C27.7070454,14.9275425 24.163153,10.8416339 19.4919228,10 L19.4919228,10 Z" id="Layer-2"></path>
                <circle id="Layer-3" cx="39.5" cy="46.5" r="12.5"></circle>
                <circle id="Layer-4" cx="68.5" cy="68.5" r="9.5"></circle>
                <circle id="Layer-5" cx="44" cy="81" r="6"></circle>
                <circle id="Layer-6" cx="71" cy="42" r="3"></circle>
                <circle id="Layer-7" cx="52" cy="17" r="3"></circle>
                <circle id="Layer-8" cx="21" cy="69" r="3"></circle>
            </g>
        </g>
    </g>
</svg>