<?xml version="1.0" encoding="UTF-8"?>
<svg width="103px" height="103px" viewBox="0 0 103 103" version="1.1" xmlns="http://www.w3.org/2000/svg" xmlns:xlink="http://www.w3.org/1999/xlink">
    <!-- Generator: Sketch 46 (44423) - http://www.bohemiancoding.com/sketch -->
    <title>food-34</title>
    <desc>Created with Sketch.</desc>
    <defs></defs>
    <g id="ALL" stroke="none" stroke-width="1" fill="none" fill-rule="evenodd" stroke-linecap="round" stroke-linejoin="round">
        <g id="Secondary" transform="translate(-5854.000000, -6263.000000)" stroke="#868E96" stroke-width="3.5">
            <g id="food-34" transform="translate(5856.000000, 6265.000000)">
                <path d="M81.8528137,0.147186258 C104.300475,22.5948476 104.300475,58.9896976 81.8528137,81.437359 C59.4051524,103.88502 23.0103024,103.88502 0.562641027,81.437359 L81.8528137,0.147186258 L81.8528137,0.147186258 Z" id="Layer-1"></path>
                <path d="M73.7237965,8.27620353 C91.6819256,26.2343326 91.6819256,55.3502126 73.7237965,73.3083417 C55.7656674,91.2664708 26.6497874,91.2664708 8.6916583,73.3083417 L73.7237965,8.27620353 L73.7237965,8.27620353 Z" id="Layer-2"></path>
                <path d="M74.5210597,31.8659921 L67.8583932,33.6512482" id="Layer-3"></path>
                <path d="M74.5210597,49.7185531 L67.8583932,47.933297" id="Layer-4"></path>
                <path d="M65.5947792,65.1793244 L60.7173688,60.3019141" id="Layer-5"></path>
                <path d="M50.1340079,74.1056049 L48.3487518,67.4429385" id="Layer-6"></path>
                <path d="M32.2814469,74.1056049 L34.066703,67.4429385" id="Layer-7"></path>
            </g>
        </g>
    </g>
</svg>