<?xml version="1.0" encoding="UTF-8"?>
<svg width="104px" height="94px" viewBox="0 0 104 94" version="1.1" xmlns="http://www.w3.org/2000/svg" xmlns:xlink="http://www.w3.org/1999/xlink">
    <!-- Generator: Sketch 46 (44423) - http://www.bohemiancoding.com/sketch -->
    <title>food-45</title>
    <desc>Created with Sketch.</desc>
    <defs></defs>
    <g id="ALL" stroke="none" stroke-width="1" fill="none" fill-rule="evenodd" stroke-linecap="round" stroke-linejoin="round">
        <g id="Secondary" transform="translate(-9132.000000, -6264.000000)" stroke="#868E96" stroke-width="3.5">
            <g id="food-45" transform="translate(9134.000000, 6265.000000)">
                <path d="M50.1428106,77.4488506 C38.4287236,73.074164 27.5365184,62.1575814 21.1141938,54.4048745 L2.66229987,63.9371517 C1.19195225,64.6967356 0.351002828,64.025863 0.789353322,62.4190441 L5.34960961,45.702955 L0.789353322,28.9446999 C0.35340552,27.3426574 1.17603555,26.7029004 2.6098229,27.5062787 L21.0036796,37.8127063 C27.4936307,30.0386243 38.6441441,18.9652952 50.59854,14.7323521 L50.1219943,3.00118982 C50.0546187,1.34259977 51.2934155,0.380746508 52.8375315,0.950347705 C52.8375315,0.950347705 58.3950198,1.96142579 63.63916,8.97265624 C64.8379704,10.5754234 65.9097337,12.3445075 66.8498886,14.1201113 C85.1864761,19.1888256 100,39.4572993 100,46 C100,52.8405811 85.1947673,74.8307922 65.9016636,78.7662727 C65.0870288,80.2278819 64.1830425,81.6660962 63.1922796,82.9907114 C57.9481394,90.0019418 52.3906511,91.0130199 52.3906511,91.0130199 C50.8465351,91.5826211 49.6077382,90.6207678 49.6751138,88.9621778 L50.1428106,77.4488506 L50.1428106,77.4488506 Z" id="Layer-1"></path>
                <circle id="Layer-2" cx="80" cy="36" r="3"></circle>
                <path d="M48.2564418,25 C44.5175599,26.3858967 40.5727357,28.8872757 37.2398505,32.0108007 M33.2681201,36.4496544 C32.3958929,37.6323638 31.6299835,38.8594197 31,40.1129627" id="Layer-3"></path>
            </g>
        </g>
    </g>
</svg>