<?xml version="1.0" encoding="UTF-8"?>
<svg width="104px" height="94px" viewBox="0 0 104 94" version="1.1" xmlns="http://www.w3.org/2000/svg" xmlns:xlink="http://www.w3.org/1999/xlink">
    <!-- Generator: Sketch 46 (44423) - http://www.bohemiancoding.com/sketch -->
    <title>food-20</title>
    <desc>Created with Sketch.</desc>
    <defs></defs>
    <g id="ALL" stroke="none" stroke-width="1" fill="none" fill-rule="evenodd" stroke-linecap="round" stroke-linejoin="round">
        <g id="Secondary" transform="translate(-1840.000000, -6263.000000)" stroke="#868E96" stroke-width="3.5">
            <g id="food-20" transform="translate(1842.000000, 6265.000000)">
                <path d="M74.6216169,26.1083936 C72.8106468,16.9254824 64.71409,10 55,10 C45.2858584,10 37.1892672,16.925556 35.3783542,26.1085399 C35.9080091,26.0369632 36.4485741,26 36.9976899,26 L73.0023101,26 C73.551478,26 74.0920282,26.0369133 74.6216169,26.1083936 L74.6216169,26.1083936 Z" id="Layer-1"></path>
                <rect id="Layer-2" x="85" y="40" width="15" height="30" rx="7.5"></rect>
                <path d="M25,45.377842 C22.4599658,41.8294333 20.3882593,38.9481628 19.3779721,37.5711538 C15.3321374,32.0567308 12.2244395,30.3528846 12.2244395,30.3528846 L0,30.3528846 C0,30.3528846 10.3194029,45.5001077 12.2244395,50.5163462 C14.0333593,55.2794948 15.8007425,61.2608992 15.8007425,61.2608992 C17.1439114,65.5344734 20.7549219,69.2633057 25,71.2345088 L25,77.9996487 C25,84.6260441 30.3715487,90 36.9976899,90 L73.0023101,90 C79.6225971,90 85,84.6272597 85,77.9996487 L85,38.0003513 C85,31.3739559 79.6284513,26 73.0023101,26 L36.9976899,26 C30.3774029,26 25,31.3727403 25,38.0003513 L25,45.377842 L25,45.377842 Z" id="Layer-3"></path>
                <path d="M31.3832087,72.7240385 L31.3745074,72.7240385 C24.7490039,72.7240385 17.7899036,67.5898333 15.8007425,61.2608992" id="Layer-4"></path>
                <path d="M38.0045213,34 C35.2406005,34 33,36.2321182 33,39.0004523" id="Layer-5"></path>
                <circle id="Layer-6" cx="55" cy="5" r="5"></circle>
            </g>
        </g>
    </g>
</svg>