<?xml version="1.0" encoding="UTF-8"?>
<svg width="104px" height="103px" viewBox="0 0 104 103" version="1.1" xmlns="http://www.w3.org/2000/svg" xmlns:xlink="http://www.w3.org/1999/xlink">
    <!-- Generator: Sketch 46 (44423) - http://www.bohemiancoding.com/sketch -->
    <title>food-48</title>
    <desc>Created with Sketch.</desc>
    <defs></defs>
    <g id="ALL" stroke="none" stroke-width="1" fill="none" fill-rule="evenodd" stroke-linecap="round" stroke-linejoin="round">
        <g id="Secondary" transform="translate(-701.000000, -6566.000000)" stroke="#868E96" stroke-width="3.5">
            <g id="food-48" transform="translate(703.000000, 6567.000000)">
                <path d="M12.337875,3.7327189 C12.337875,3.7327189 15.8134629,11.3965 18.5817066,23.7509615 C21.3499504,36.1054229 27.6946828,48.5143591 27.6946828,48.5143591 C27.9469828,49.0234525 27.6764714,49.4563692 27.1018363,49.4808224 L21.2402232,49.7302593 C18.2092675,49.653375 17.8996131,47.93714 16.1522859,44.8784394 C16.1522859,44.8784394 12.6012819,36.983094 9.51254639,23.5908815 C6.42381093,10.1986691 1.8315914,1.85682947 1.8315914,1.85682947 C1.57301617,1.35793857 1.82142127,0.933844066 2.40752728,0.908681706 L5.96479457,0.755963196 C8.9957503,0.832847549 10.4480193,0.63981878 12.337875,3.7327189 L12.337875,3.7327189 Z M51.4955753,45.9906836 C51.3447482,58.637039 54.6659391,72.1215554 54.6659391,72.1215554 C54.7943998,72.6730195 54.4310452,73.0354912 53.8655408,72.9331807 L48.0970673,71.8895538 C45.1617281,71.1493064 45.2556551,69.4089639 44.2583194,66.0448826 C44.2583194,66.0448826 42.6185949,57.5718488 42.6963873,43.8439147 C42.7741797,30.1159806 40.2229233,20.9793063 40.2229233,20.9793063 C40.0859967,20.4364063 40.4257795,20.0776789 41.0026234,20.1818163 L44.5036759,20.8138604 C47.439015,21.5541078 48.8984584,21.6848016 50.0267762,25.1134948 C50.0267762,25.1134948 51.6464024,33.3443282 51.4955753,45.9906836 L51.4955753,45.9906836 Z M72.3998186,68.1048042 C71.5739682,80.7260909 74.1706254,94.362503 74.1706254,94.362503 C74.2694656,94.9198013 73.8872554,95.2631363 73.3279887,95.1319558 L67.6231433,93.7938388 C64.7313512,92.9040241 64.9180719,91.1708852 64.1017223,87.7602513 C64.1017223,87.7602513 62.9166477,79.2147123 63.7273125,65.5095826 C64.5379773,51.8044528 62.478054,42.5494215 62.478054,42.5494215 C62.3703023,42.0002414 62.7287731,41.6594362 63.2992662,41.7930229 L66.7617737,42.6038033 C69.6535658,43.493618 71.104031,43.6990016 72.0477334,47.1808781 C72.0477334,47.1808781 73.225669,55.4835176 72.3998186,68.1048042 L72.3998186,68.1048042 Z M49.443518,3.78281396 C62.3034059,4.81245944 76.2585002,2.50559705 76.2585002,2.50559705 C76.8286954,2.41845502 77.1722426,2.79903167 77.0286719,3.34485085 L75.5641668,8.91252403 C74.6060457,11.7310918 72.8414218,11.5178489 69.3481689,12.2583876 C69.3481689,12.2583876 60.6106382,13.2706782 46.6449147,12.2369997 C32.6791913,11.2033212 23.2026771,13.0606238 23.2026771,13.0606238 C22.6406072,13.1566413 22.2992262,12.7993746 22.4454473,12.2425949 L23.3329103,8.86331889 C24.2910314,6.04475109 24.5258464,4.626809 28.0939927,3.76270179 C28.0939927,3.76270179 36.58363,2.75316849 49.443518,3.78281396 L49.443518,3.78281396 Z M81.9617678,37.2796226 C89.0513423,47.8465977 99.4975125,57.205358 99.4975125,57.205358 C99.9186159,57.5921306 99.8241676,58.0917951 99.2969761,58.31694 L93.9193163,60.6135485 C91.0635064,61.608773 90.1485279,60.1144805 87.4025253,57.8721902 C87.4025253,57.8721902 81.2093533,51.7464922 73.4422007,40.3228795 C65.6750481,28.8992668 58.3475818,22.7230145 58.3475818,22.7230145 C57.9243457,22.3479823 58.001388,21.864342 58.5390227,21.6344964 L61.8021014,20.2394885 C64.6579113,19.244264 65.9424043,18.5526643 68.8338564,20.7767265 C68.8338564,20.7767265 74.8721932,26.7126475 81.9617678,37.2796226 L81.9617678,37.2796226 Z M16.9348538,71.310863 C19.6901743,83.66635 26.0208794,96.0729479 26.0208794,96.0729479 C26.2726062,96.5819529 26.0017499,97.0152528 25.4272596,97.0402563 L19.5671239,97.2953062 C16.5371339,97.2212635 16.2292527,95.5048153 14.4854371,92.4468644 C14.4854371,92.4468644 10.9432153,84.5525475 7.86851451,71.1593065 C4.79381372,57.7660655 0.21112001,49.4261068 0.21112001,49.4261068 C-0.0468902439,48.9273132 0.201857594,48.502859 0.787816106,48.4771353 L4.34418815,48.32101 C7.37417817,48.3950527 8.82620981,48.2005946 10.7124786,51.2926204 C10.7124786,51.2926204 14.1795333,58.955376 16.9348538,71.310863 L16.9348538,71.310863 Z M42.1066072,75.1334323 C48.2296257,86.2658584 57.8038971,96.481421 57.8038971,96.481421 C58.1890076,96.9026966 58.0504903,97.392391 57.5052859,97.5716412 L51.9438834,99.4000976 C49.0104489,100.147563 48.2318193,98.5807907 45.6956426,96.1124422 C45.6956426,96.1124422 40.0707129,89.4809725 33.3488639,77.4372831 C26.627015,65.3935937 19.8766024,58.6148593 19.8766024,58.6148593 C19.4883234,58.2050971 19.6080761,57.729879 20.164102,57.5468381 L23.5388029,56.4359031 C26.4722374,55.6884372 27.8133371,55.1092034 30.4960306,57.5718187 C30.4960306,57.5718187 35.9835887,64.0010062 42.1066072,75.1334323 L42.1066072,75.1334323 Z" id="Layer-1"></path>
            </g>
        </g>
    </g>
</svg>