<?xml version="1.0" encoding="UTF-8"?>
<svg width="103px" height="104px" viewBox="0 0 103 104" version="1.1" xmlns="http://www.w3.org/2000/svg" xmlns:xlink="http://www.w3.org/1999/xlink">
    <!-- Generator: Sketch 46 (44423) - http://www.bohemiancoding.com/sketch -->
    <title>gaming-30</title>
    <desc>Created with Sketch.</desc>
    <defs></defs>
    <g id="ALL" stroke="none" stroke-width="1" fill="none" fill-rule="evenodd" stroke-linecap="round" stroke-linejoin="round">
        <g id="Secondary" transform="translate(-8982.000000, -5661.000000)" stroke="#868E96" stroke-width="3.5">
            <g id="gaming-30" transform="translate(8984.000000, 5663.000000)">
                <path d="M66.4595245,48.3472064 C73.7125107,61.6126644 71.6767559,78.5374864 60.3522599,89.7487373 C46.5458456,103.417088 24.1612251,103.417088 10.3548108,89.7487373 C-3.45160359,76.0803871 -3.45160359,53.9196129 10.3548108,40.2512627 C21.6793067,29.0400117 38.7750864,27.0246144 52.174539,34.2050707 L55.352515,31.0588745 L69.6375005,45.2010101 L66.4595245,48.3472064 L66.4595245,48.3472064 Z" id="Layer-1"></path>
                <path d="M72.4619359,28 L62.6262626,37.7373165" id="Layer-2"></path>
                <path d="M13.9400849,50 C6.76495459,58.5175926 6.05070532,69.0595719 12.5115864,78.2842712" id="Layer-3"></path>
                <path d="M25.0136517,81.0998471 C21.2816783,85.5300703 20.9170596,87.2865762 20.7813294,92.3419119" id="Layer-4" transform="translate(22.897491, 86.720879) rotate(-83.000000) translate(-22.897491, -86.720879) "></path>
                <path d="M65.230668,9.43311226 L73.469645,9.43311226" id="Layer-5" transform="translate(69.350157, 9.933112) rotate(-315.000000) translate(-69.350157, -9.933112) "></path>
                <path d="M61.9068023,22.5196 L67.7326388,16.7805063" id="Layer-6" transform="translate(64.819721, 19.650053) rotate(-315.000000) translate(-64.819721, -19.650053) "></path>
                <path d="M82.7512174,7.65120713 L76.9253809,1.91211348" id="Layer-7" transform="translate(79.838299, 4.781660) rotate(-315.000000) translate(-79.838299, -4.781660) "></path>
                <path d="M93.2481172,29.7373425 L85.0091403,29.7373425" id="Layer-8" transform="translate(89.128629, 30.237342) rotate(-315.000000) translate(-89.128629, -30.237342) "></path>
                <path d="M82.7726169,37.9448908 L76.9611665,32.1915549" id="Layer-9" transform="translate(79.866892, 35.068223) rotate(-315.000000) translate(-79.866892, -35.068223) "></path>
                <path d="M92.1054886,22.9377697 L97.9313251,17.198676" id="Layer-10" transform="translate(95.018407, 20.068223) rotate(-315.000000) translate(-95.018407, -20.068223) "></path>
                <ellipse id="Layer-11" cx="79.7979798" cy="20" rx="4.04040404" ry="4"></ellipse>
            </g>
        </g>
    </g>
</svg>