<?xml version="1.0" encoding="UTF-8"?>
<svg width="89px" height="104px" viewBox="0 0 89 104" version="1.1" xmlns="http://www.w3.org/2000/svg" xmlns:xlink="http://www.w3.org/1999/xlink">
    <!-- Generator: Sketch 46 (44423) - http://www.bohemiancoding.com/sketch -->
    <title>gaming-25</title>
    <desc>Created with Sketch.</desc>
    <defs></defs>
    <g id="ALL" stroke="none" stroke-width="1" fill="none" fill-rule="evenodd" stroke-linecap="round" stroke-linejoin="round">
        <g id="Secondary" transform="translate(-7506.000000, -5661.000000)" stroke="#868E96" stroke-width="3.5">
            <g id="gaming-25" transform="translate(7508.000000, 5663.000000)">
                <path d="M84.0848869,99.3429236 C84.1001177,99.3214441 84.1149581,99.2995741 84.1290174,99.2773136 C84.1426861,99.2558341 84.1559644,99.2341594 84.1684615,99.2122894 C84.1809586,99.1904194 84.19287,99.1681588 84.2041955,99.145703 C84.2159116,99.1226614 84.2272371,99.0996198 84.2377816,99.0759924 C84.2479355,99.0531461 84.2575037,99.0299092 84.2666812,99.006477 C84.2760541,98.9826544 84.2848412,98.9586364 84.2930424,98.9346185 C84.3010484,98.9106005 84.3082733,98.8863873 84.3153029,98.8617835 C84.3223326,98.8369845 84.3287764,98.8121855 84.3344392,98.7871912 C84.3399067,98.762978 84.3447884,98.7385695 84.3492796,98.7139658 C84.353966,98.6874093 84.3580666,98.6608529 84.3613862,98.6342965 C84.3643152,98.6108643 84.3668537,98.5872369 84.3686111,98.5634142 C84.3709543,98.5349051 84.3723212,98.506396 84.372907,98.4776916 C84.3732975,98.4644134 84.3748597,98.4513305 84.3748597,98.4380522 L84.3748597,42.1874298 C84.3748597,30.9187158 79.9866046,20.3246524 72.0185036,12.3563561 C64.0504025,4.38825503 53.4563391,0 42.1876251,0 C30.9189111,0 20.3246524,4.38825503 12.3563561,12.3563561 C4.38825503,20.3246524 0,30.9187158 0,42.1874298 L0,98.4380522 C0,98.451721 0.0017574109,98.4648039 0.00195267878,98.4782774 C0.0027337503,98.5067865 0.00390535756,98.5352956 0.0062485721,98.5638048 C0.00820125089,98.5876274 0.0107397333,98.6114501 0.0136687515,98.6350775 C0.0169883054,98.661634 0.0210889308,98.6881904 0.0257753599,98.7145516 C0.0302665211,98.7391553 0.0351482181,98.7635638 0.0406157187,98.787777 C0.0462784871,98.8127713 0.0527223271,98.8375703 0.0597519707,98.8623693 C0.0665863465,98.8867778 0.0740065259,98.910991 0.0820125089,98.935009 C0.0902137597,98.9592222 0.0990008143,98.9830449 0.108373672,99.0068676 C0.117551263,99.0302997 0.127119389,99.0535366 0.137468586,99.0763829 C0.148013052,99.0998151 0.159143321,99.1228567 0.170859393,99.145703 C0.182380198,99.1683541 0.194291539,99.1906146 0.206983951,99.2126799 C0.219481095,99.2345499 0.232564043,99.2558341 0.246232794,99.2773136 C0.260682617,99.2997694 0.275522976,99.3218347 0.290949139,99.3435094 C0.304813158,99.3630362 0.319067713,99.3821724 0.333908072,99.4011134 C0.351482181,99.4235692 0.369837361,99.4454392 0.388778346,99.4669187 C0.397760668,99.4770726 0.405376115,99.4878124 0.414553706,99.497771 C0.420997545,99.5048007 0.428027189,99.5104634 0.434666297,99.5172978 C0.456536299,99.5401441 0.479187373,99.5618189 0.502424251,99.5832983 C0.51902202,99.5987245 0.535424522,99.6141507 0.552412828,99.6287958 C0.574868634,99.6477367 0.598105511,99.6655061 0.621537656,99.6830802 C0.640478641,99.6973348 0.659029089,99.7121751 0.678360609,99.7256486 C0.701988022,99.7418559 0.726787043,99.756501 0.751195528,99.7713413 C0.771112851,99.7834479 0.790834907,99.7965309 0.811142766,99.8076611 C0.839847144,99.8234778 0.86972313,99.8371466 0.899599115,99.8510106 C0.91658742,99.8590166 0.932989922,99.8679989 0.950173496,99.8754191 C1.09213324,99.9359521 1.24483272,99.9761773 1.40475712,99.9921893 C1.43853846,99.9957041 1.47271034,99.9960946 1.50668695,99.9972662 C1.5252374,99.9978521 1.54339731,100 1.56214303,100 L1.56233829,100 L1.56253356,100 C1.61291267,100 1.66309652,99.9972662 1.71328036,99.9923846 C1.73202608,99.9906271 1.75018599,99.9873076 1.76873644,99.9847691 C1.79958877,99.9806685 1.83044109,99.9765679 1.86109815,99.9707098 C1.88296815,99.9664139 1.90425235,99.9609464 1.92573182,99.9556742 C1.95248351,99.9492304 1.97923521,99.9429818 2.00559638,99.9351711 C2.02766165,99.9287272 2.04914111,99.9211118 2.07081585,99.9134963 C2.09620067,99.9047093 2.12139023,99.8959222 2.14638452,99.8857683 C2.16766872,99.8771765 2.18836711,99.8678036 2.20906551,99.8584308 C2.23347399,99.8473005 2.25768721,99.835975 2.28170516,99.8234778 C2.30220828,99.8129334 2.32212561,99.8014126 2.34204293,99.7898918 C2.36488927,99.7766135 2.38754035,99.7631401 2.40980089,99.7486902 C2.43010874,99.7356073 2.4498308,99.7217433 2.46935759,99.707684 C2.48986072,99.6930389 2.51016857,99.6780033 2.5300859,99.6623818 C2.55019849,99.6463699 2.56972528,99.6297721 2.5890568,99.6127838 C2.59979653,99.6034109 2.61131734,99.5950144 2.6218618,99.585251 L11.7143153,91.1887323 L20.8067688,99.585251 C21.4048743,100.137859 22.3277103,100.137859 22.9262063,99.585251 L32.0190503,91.1887323 L41.1142376,99.585251 C41.7129289,100.138054 42.6357649,100.137859 43.2338704,99.5850558 L52.3239807,91.188537 L61.4224874,99.5854463 C62.020593,100.137469 62.9424526,100.137664 63.5411439,99.5858368 L72.6474614,91.1875607 L81.7537789,99.5858368 C81.7639329,99.5952097 81.7746726,99.6028251 81.7850218,99.6118075 C81.8061107,99.6303579 81.8275902,99.6483226 81.8496554,99.6657014 C81.868987,99.680737 81.8883185,99.6953821 81.9080405,99.7094414 C81.92952,99.7246723 81.95139,99.7395127 81.9736506,99.7537672 C81.99513,99.767436 82.0166095,99.7805189 82.0384795,99.7932113 C82.0605448,99.8057085 82.0828053,99.8176198 82.1054564,99.8291406 C82.1283027,99.8408567 82.1513443,99.8519869 82.1745812,99.8625314 C82.1976228,99.8728806 82.221055,99.8824487 82.2448776,99.8916263 C82.2683098,99.9008039 82.2919372,99.909591 82.3157599,99.917597 C82.3401684,99.9257982 82.3647721,99.9332184 82.3897664,99.940248 C82.4139796,99.9470824 82.4381928,99.953331 82.4627966,99.9589937 C82.4875956,99.9646565 82.5125899,99.9697335 82.5377795,99.9742246 C82.5635548,99.9789111 82.5893302,99.9828164 82.6151055,99.9859407 C82.639514,99.989065 82.6639225,99.9916035 82.6885263,99.9935562 C82.716059,99.9957041 82.7437871,99.997071 82.7713198,99.9976568 C82.7851839,99.9980473 82.7986573,99.9998047 82.8127166,99.9998047 C82.8232611,99.9998047 82.8332198,99.9984379 82.8437642,99.9982426 C82.8707112,99.9976568 82.8976582,99.9960946 82.9246051,99.994142 C82.9499899,99.9923846 82.9753748,99.9904319 83.0005643,99.9875029 C83.0245823,99.9845738 83.048405,99.9804732 83.0724229,99.9765679 C83.0995651,99.9720767 83.1265121,99.9673903 83.1532638,99.9615322 C83.1751338,99.9566505 83.1968085,99.9505972 83.2184833,99.9447392 C83.2458208,99.937319 83.2731583,99.9300941 83.29991,99.921307 C83.3215847,99.9142774 83.3428689,99.9058809 83.3643484,99.8976796 C83.3899285,99.8881115 83.4153133,99.8785434 83.4403076,99.8676084 C83.4629587,99.8576497 83.4850239,99.8465194 83.5070892,99.8353892 C83.5297403,99.8240636 83.5527819,99.8129334 83.5748472,99.8006315 C83.5974982,99.7879391 83.6195635,99.7740751 83.6416288,99.7600158 C83.6625224,99.7469328 83.6834161,99.7340451 83.7035287,99.7199859 C83.7246176,99.7053408 83.7451207,99.6893288 83.7656239,99.6735121 C83.7859317,99.6578907 83.8062396,99.642074 83.8257664,99.6254762 C83.8441216,99.6096595 83.8620862,99.5930617 83.8798556,99.5762687 C83.9001634,99.5571325 83.920276,99.5378009 83.9396076,99.5176883 C83.9466372,99.5104634 83.9542526,99.5040196 83.961087,99.4965994 C83.9702646,99.4864455 83.9780753,99.4757057 83.9870576,99.4653565 C84.0056081,99.4442676 84.0235727,99.4227882 84.0409516,99.4007229 C84.0561825,99.3819772 84.0708276,99.3626456 84.0848869,99.3429236 L84.0848869,99.3429236 Z" id="Layer-1"></path>
                <circle id="Layer-2" cx="25.5" cy="41.5" r="8.5"></circle>
                <circle id="Layer-3" cx="58.5" cy="41.5" r="8.5"></circle>
            </g>
        </g>
    </g>
</svg>