<?xml version="1.0" encoding="UTF-8"?>
<svg width="95px" height="104px" viewBox="0 0 95 104" version="1.1" xmlns="http://www.w3.org/2000/svg" xmlns:xlink="http://www.w3.org/1999/xlink">
    <!-- Generator: Sketch 46 (44423) - http://www.bohemiancoding.com/sketch -->
    <title>gaming-28</title>
    <desc>Created with Sketch.</desc>
    <defs></defs>
    <g id="ALL" stroke="none" stroke-width="1" fill="none" fill-rule="evenodd" stroke-linecap="round" stroke-linejoin="round">
        <g id="Secondary" transform="translate(-8391.000000, -5661.000000)" stroke="#868E96" stroke-width="3.5">
            <g id="gaming-28" transform="translate(8393.000000, 5663.000000)">
                <path d="M45.3460548,0 C45.3460548,0 31.604139,13.7931034 0,13.7931034 L0,46.6982759 C0,63.8810345 8.92080569,80.4517241 25.0722459,91.0689655 C30.78791,94.8275862 37.5300439,98.0603448 45.3460548,100 C53.1620657,98.0603448 59.9021384,94.8275862 65.6198636,91.0689655 C81.7713039,80.4517241 90.6921096,63.8810345 90.6921096,46.6982759 L90.6921096,13.7931034 C59.0879706,13.7931034 45.3460548,0 45.3460548,0 L45.3460548,0 Z" id="Layer-1"></path>
                <path d="M7.93555959,20.4113647 L7.93555959,47.6346017 C7.93555959,61.8503094 15.2952243,75.5596377 28.6201625,84.3435357 C33.3355853,87.4531326 38.8978458,90.1276712 45.3460548,91.7323944 C51.7942638,90.1276712 57.3548237,87.4531326 62.0719471,84.3435357 C75.3968853,75.5596377 82.75655,61.8503094 82.75655,47.6346017 L82.75655,20.4113647 C56.6831353,20.4113647 45.3460548,9 45.3460548,9 C45.3460548,9 34.0089743,20.4113647 7.93555959,20.4113647 Z" id="Layer-2"></path>
                <path d="M42.7513078,64 L33.3745876,47.3229686 L24,64 L42.7513078,64 L42.7513078,64 Z M67.6010495,64 L58.2264618,47.3229686 L48.8497417,64 L67.6010495,64 L67.6010495,64 Z M55.5255646,42.6770314 L46.1488444,26 L36.7721243,42.6770314 L55.5255646,42.6770314 L55.5255646,42.6770314 Z" id="Layer-3"></path>
            </g>
        </g>
    </g>
</svg>