<?xml version="1.0" encoding="UTF-8"?>
<svg width="104px" height="104px" viewBox="0 0 104 104" version="1.1" xmlns="http://www.w3.org/2000/svg" xmlns:xlink="http://www.w3.org/1999/xlink">
    <!-- Generator: Sketch 46 (44423) - http://www.bohemiancoding.com/sketch -->
    <title>gaming-34</title>
    <desc>Created with Sketch.</desc>
    <defs></defs>
    <g id="ALL" stroke="none" stroke-width="1" fill="none" fill-rule="evenodd" stroke-linecap="round" stroke-linejoin="round">
        <g id="Secondary" transform="translate(-701.000000, -5962.000000)" stroke="#868E96" stroke-width="3.5">
            <g id="gaming-34" transform="translate(703.000000, 5964.000000)">
                <path d="M8.33339844,0 C3.73828125,0 0,3.73828125 0,8.33339844 L0,91.6667969 C0,96.2617188 3.73828125,100 8.33339844,100 L91.6667969,100 C96.2617188,100 100,96.2617188 100,91.6666016 L100,8.33339844 C100,3.73828125 96.2617188,0 91.6666016,0 L8.33339844,0 Z" id="Layer-1"></path>
                <path d="M100,25 L100,8.33339844 C100,3.73828125 96.4397321,0 92.0634301,0 L86.031715,0 L80,0 L80,25 L100,25 L100,25 Z" id="Layer-2"></path>
                <rect id="Layer-3" x="37" y="0" width="43" height="25"></rect>
                <rect id="Layer-4" x="0" y="25" width="51" height="25"></rect>
                <rect id="Layer-5" x="30" y="50" width="70" height="25"></rect>
                <rect id="Layer-6" x="0" y="50" width="30" height="25"></rect>
                <path d="M0,8.33339844 C0,3.73828125 3.73828125,0 8.33339844,0 L27.6666992,0 L37,0 L37,25 L0,25 L0,16.6666992 L0,8.33339844 Z" id="Layer-7"></path>
                <path d="M100,91.6666016 C100,96.2617188 96.2617188,100 91.6666016,100 L85.3333008,100 L73,100 L73,75 L100,75 L100,91.6666016 Z" id="Layer-8"></path>
                <rect id="Layer-9" x="50" y="75" width="23" height="25"></rect>
                <path d="M0,91.6666016 C0,96.2617188 3.73828125,100 8.33339844,100 L27.6666992,100 L50,100 L50,75 L0,75 L0,83.3333008 L0,91.6666016 Z" id="Layer-10"></path>
            </g>
        </g>
    </g>
</svg>