<?xml version="1.0" encoding="UTF-8"?>
<svg width="104px" height="104px" viewBox="0 0 104 104" version="1.1" xmlns="http://www.w3.org/2000/svg" xmlns:xlink="http://www.w3.org/1999/xlink">
    <!-- Generator: Sketch 46 (44423) - http://www.bohemiancoding.com/sketch -->
    <title>gaming-42</title>
    <desc>Created with Sketch.</desc>
    <defs></defs>
    <g id="ALL" stroke="none" stroke-width="1" fill="none" fill-rule="evenodd" stroke-linecap="round" stroke-linejoin="round">
        <g id="Secondary" transform="translate(-3105.000000, -5962.000000)" stroke="#868E96" stroke-width="3.5">
            <g id="gaming-42" transform="translate(3107.000000, 5964.000000)">
                <g id="Group-72">
                    <rect id="Layer-1" x="0" y="0" width="60.9521569" height="93" rx="2"></rect>
                    <g id="Group-73" transform="translate(5.000000, 5.000000)">
                        <path d="M23.5832828,7.57834758 L39.8234332,7.57834758 C41.1965052,7.57834758 42.3096,8.67409932 42.3096,10.0590833 L42.3096,59.0504921 M26.8735079,75.5840456 L9.94430442,75.5840456 C8.5757956,75.5840456 7.4664,74.4780816 7.4664,73.1098152 L7.4664,23.0631969 L7.4664,28.0090658" id="Layer-2"></path>
                        <path d="M7.5858624,0.15954416 C9.84083035,2.75831791 12.5562782,5.45645538 15.1717248,7.69704843 C12.5562782,9.93764149 9.84083035,12.635779 7.5858624,15.2345527 C5.33089445,12.635779 2.61544662,9.93764149 8.8817842e-16,7.69704843 C2.61544662,5.45645538 5.33089445,2.75831791 7.5858624,0.15954416 L7.5858624,0.15954416 Z" id="Layer-3"></path>
                        <path d="M42.4290624,68.1652422 C44.6840304,70.7640159 47.3994782,73.4621534 50.0149248,75.7027464 C47.3994782,77.9433395 44.6840304,80.641477 42.4290624,83.2402507 C40.1740944,80.641477 37.4586466,77.9433395 34.8432,75.7027464 C37.4586466,73.4621534 40.1740944,70.7640159 42.4290624,68.1652422 L42.4290624,68.1652422 Z" id="Layer-4"></path>
                    </g>
                </g>
                <path d="M30.5,36 C33.6212224,39.6201803 37.3798197,43.3787776 41,46.5 C37.3798197,49.6212224 33.6212224,53.3798197 30.5,57 C27.3787776,53.3798197 23.6201803,49.6212224 20,46.5 C23.6201803,43.3787776 27.3787776,39.6201803 30.5,36 L30.5,36 Z" id="Layer-5"></path>
                <path d="M60.9521569,7 L97.9588231,7 C99.0597109,7 99.9521569,7.89063056 99.9521569,9.00713962 L99.9521569,97.9928604 C99.9521569,99.101373 99.0551624,100 97.9588231,100 L40.9933338,100 C39.8924459,100 39,99.1093694 39,97.9928604 L39,93 L58.9588231,93 C60.0551624,93 60.9521569,92.101373 60.9521569,90.9928604 L60.9521569,7 Z" id="Layer-6"></path>
            </g>
        </g>
    </g>
</svg>