<?xml version="1.0" encoding="UTF-8"?>
<svg width="104px" height="104px" viewBox="0 0 104 104" version="1.1" xmlns="http://www.w3.org/2000/svg" xmlns:xlink="http://www.w3.org/1999/xlink">
    <!-- Generator: Sketch 46 (44423) - http://www.bohemiancoding.com/sketch -->
    <title>gaming-6</title>
    <desc>Created with Sketch.</desc>
    <defs></defs>
    <g id="ALL" stroke="none" stroke-width="1" fill="none" fill-rule="evenodd" stroke-linecap="round" stroke-linejoin="round">
        <g id="Secondary" transform="translate(-1833.000000, -5661.000000)" stroke="#868E96" stroke-width="3.5">
            <g id="gaming-6" transform="translate(1835.000000, 5663.000000)">
                <path d="M76.5625,53 L23.4375,53 C10.5140625,53 0,63.5421 0,76.5 C0,89.4579 10.5140625,100 23.4375,100 C28.5714844,100 33.4222656,98.3767375 37.5017578,95.3 L62.4982422,95.3 C66.5777344,98.3767375 71.4285156,100 76.5625,100 C89.4859375,100 100,89.4579 100,76.5 C100,63.5421 89.4859375,53 76.5625,53 L76.5625,53 Z" id="Layer-1"></path>
                <polygon id="Layer-2" points="25.3677886 73.1672223 25.3661175 66.5 18.6830588 66.5 18.6847299 73.1672223 12 73.1672225 12 79.8327775 18.6830587 79.8327777 18.6830588 86.5 25.3661175 86.5 25.3661174 79.8327777 32.0508473 79.8327775 32.0508473 73.1672225"></polygon>
                <path d="M56.1099603,74 L52,78.1099603" id="Layer-3"></path>
                <path d="M47.1099603,74 L43,78.1099603" id="Layer-4"></path>
                <circle id="Layer-5" cx="77.5" cy="76.5" r="15.5"></circle>
                <path d="M78,87.5 C76.0670034,87.5 74.5,85.9329966 74.5,84 C74.5,82.0670034 76.0670034,80.5 78,80.5 C79.9329966,80.5 81.5,82.0670034 81.5,84 C81.5,85.9329966 79.9329966,87.5 78,87.5 Z M78,72.5 C76.0670034,72.5 74.5,70.9329966 74.5,69 C74.5,67.0670034 76.0670034,65.5 78,65.5 C79.9329966,65.5 81.5,67.0670034 81.5,69 C81.5,70.9329966 79.9329966,72.5 78,72.5 Z M67,76.5 C67,74.5670034 68.5670034,73 70.5,73 C72.4329966,73 74,74.5670034 74,76.5 C74,78.4329966 72.4329966,80 70.5,80 C68.5670034,80 67,78.4329966 67,76.5 Z M82,76.5 C82,74.5670034 83.5670034,73 85.5,73 C87.4329966,73 89,74.5670034 89,76.5 C89,78.4329966 87.4329966,80 85.5,80 C83.5670034,80 82,78.4329966 82,76.5 Z" id="Layer-6"></path>
                <path d="M80,0 L80,14.4444444 C80,17.4308333 77.6247059,19.8611111 74.7058824,19.8611111 C71.7870588,19.8611111 69.4117647,17.4308333 69.4117647,14.4444444 L69.4117647,9.93055556 C69.4117647,4.45611111 66.3594696,1.89379653e-08 59.7058824,0 C53.0522951,-1.89379653e-08 50,4.45611146 50,9.9305559 L50,53" id="Layer-7"></path>
            </g>
        </g>
    </g>
</svg>