<?xml version="1.0" encoding="UTF-8"?>
<svg width="104px" height="104px" viewBox="0 0 104 104" version="1.1" xmlns="http://www.w3.org/2000/svg" xmlns:xlink="http://www.w3.org/1999/xlink">
    <!-- Generator: Sketch 46 (44423) - http://www.bohemiancoding.com/sketch -->
    <title>gaming-48</title>
    <desc>Created with Sketch.</desc>
    <defs></defs>
    <g id="ALL" stroke="none" stroke-width="1" fill="none" fill-rule="evenodd" stroke-linecap="round" stroke-linejoin="round">
        <g id="Secondary" transform="translate(-4906.000000, -5962.000000)" stroke="#868E96" stroke-width="3.5">
            <g id="gaming-48" transform="translate(4908.000000, 5964.000000)">
                <path d="M91.1291907,0 L85.4839147,0 L85.4839147,12.8699324 L0,12.8699324 L0,99.7425676 L87.0968507,99.7425676 L91.1291907,99.7425676 C96.0194826,99.7425676 100,95.7736486 100,90.8945946 L100,8.84797297 C100,3.96891892 96.0194826,0 91.1291907,0 L91.1291907,0 Z" id="Layer-1" transform="translate(50.000000, 49.871284) scale(-1, 1) translate(-50.000000, -49.871284) "></path>
                <path d="M5.5,86.7418964 L0,86.7418964 L0,0 L4.5,0 C10.2895842,0 15,2.81125438 15,6.26741261 L15,89 C12.1442671,87.5906124 9.48404032,86.7418964 5.5,86.7418964 Z" id="Layer-2" transform="translate(7.500000, 44.500000) scale(-1, 1) translate(-7.500000, -44.500000) "></path>
                <path d="M32.4847765,23.0292839 C32.9908364,27.7188161 29.7452477,31.975764 25.0958677,32.7209112 C24.3874562,32.8344057 23.861487,33.4620698 23.8730706,34.1811096 L23.3104039,54.821934 C23.3104039,54.821934 19.0530847,66.1809894 22.0974078,67.2325353 C26.6646165,68.8102168 26.4823348,73.432305 25.7963666,78.2233658 L26.1950439,88.6041691 C26.2587555,90.263098 27.6559397,91.5566279 29.3056014,91.4937357 L47.0613033,90.8168116 L63.2729962,94.3476097 L83.0714631,89.9910355 C84.6863739,89.6356808 86.8624189,88.324981 87.9273825,87.0605728 C87.9273825,87.0605728 93.0653573,81.0479492 93.0653573,80.5772917 C93.0653573,76.3892382 91.4190756,63.5091119 91.7014266,62.7538118 L92.6295651,57.2750643 C93.1924572,55.7720788 94.3174764,42.6364333 94.391684,42.0410407 C94.519466,41.0134266 93.9869809,40.0082937 93.0653582,39.5390867 L85.8592809,35.834994 C84.0793836,34.9288515 82.6332396,33.5219556 81.677228,31.7662365 L79.2928099,27.3874542 C78.7614108,26.4109669 77.8339964,25.7176718 76.7483929,25.4845187 L67.8112321,24.4249956 C64.7401218,23.7657851 62.0715428,22.8291276 60.4896531,20.1121505 C59.8098387,18.9442093 58.5504808,18.220093 57.2017118,18.220093 L44.0130236,18.2603419 C40.5882506,18.2607045 32.4847765,23.0292839 32.4847765,23.0292839 Z" id="Layer-3" transform="translate(57.705394, 56.283851) scale(-1, 1) translate(-57.705394, -56.283851) "></path>
                <path d="M72.3286012,26.4540075 L72.3286012,42.8887901" id="Layer-4" transform="translate(72.328601, 34.671399) scale(-1, 1) rotate(-315.000000) translate(-72.328601, -34.671399) "></path>
                <path d="M80.5459925,34.6713988 L64.1112099,34.6713988" id="Layer-5" transform="translate(72.328601, 34.671399) scale(-1, 1) rotate(-315.000000) translate(-72.328601, -34.671399) "></path>
                <path d="M53.8916769,81.5939152 C56.1334613,81.3307258 58.2623311,80.9997453 60.2181972,80.6078096 L53.8916769,81.5939152 Z" id="Layer-6" transform="translate(57.054937, 81.107810) scale(-1, 1) translate(-57.054937, -81.107810) "></path>
                <path d="M41.1862045,78.2212937 C43.4279889,77.9581044 45.5568587,77.6271238 47.5127248,77.2351881 L41.1862045,78.2212937 Z" id="Layer-7" transform="translate(44.349465, 77.735188) scale(-1, 1) rotate(-12.000000) translate(-44.349465, -77.735188) "></path>
                <path d="M33.2018888,72.6594342 C34.6529407,71.1876816 35.8289696,69.5125554 36.6953087,67.678775 L33.2018888,72.6594342 Z" id="Layer-8" transform="translate(34.948599, 70.169105) scale(-1, 1) translate(-34.948599, -70.169105) "></path>
                <path d="M30.5365633,62.1153395 C30.7363099,60.8307248 30.8353578,59.4555319 30.8353578,58.024511 C30.8353578,57.4739212 30.8069641,56.9367187 30.7534782,56.41034 L30.5365633,62.1153395 Z" id="Layer-9" transform="translate(31.036563, 59.262840) scale(-1, 1) translate(-31.036563, -59.262840) "></path>
                <path d="M66.5731112,82.4008583 C68.780559,82.3575631 70.920324,82.2732513 72.9293458,82.1513411 L66.5731112,82.4008583 Z" id="Layer-10" transform="translate(69.751229, 82.651341) scale(-1, 1) translate(-69.751229, -82.651341) "></path>
                <path d="M59.1930513,36.7061734 C55.6306281,35.5260939 53.0646268,35.0216476 52.9563345,35 L59.1930513,36.7061734 Z" id="Layer-11" transform="translate(56.074693, 35.853087) scale(-1, 1) translate(-56.074693, -35.853087) "></path>
                <path d="M33.0130375,45.8836203 L36.6494165,50.7597443 C35.7688805,49.0547102 34.545969,47.4149038 33.0130375,45.8836203 Z" id="Layer-12" transform="translate(34.831227, 48.321682) scale(-1, 1) translate(-34.831227, -48.321682) "></path>
                <path d="M47.0477964,42.0135405 C45.389074,40.9434081 43.5292844,39.9342307 41.516961,39.0144921 L47.0477964,42.0135405 Z" id="Layer-13" transform="translate(44.282379, 40.514016) scale(-1, 1) translate(-44.282379, -40.514016) "></path>
            </g>
        </g>
    </g>
</svg>