<?xml version="1.0" encoding="UTF-8"?>
<svg width="104px" height="93px" viewBox="0 0 104 93" version="1.1" xmlns="http://www.w3.org/2000/svg" xmlns:xlink="http://www.w3.org/1999/xlink">
    <!-- Generator: Sketch 46 (44423) - http://www.bohemiancoding.com/sketch -->
    <title>gaming-17</title>
    <desc>Created with Sketch.</desc>
    <defs></defs>
    <g id="ALL" stroke="none" stroke-width="1" fill="none" fill-rule="evenodd" stroke-linecap="round" stroke-linejoin="round">
        <g id="Secondary" transform="translate(-5134.000000, -5661.000000)" stroke="#868E96" stroke-width="3.5">
            <g id="gaming-17" transform="translate(5136.000000, 5663.000000)">
                <path d="M1.8388249,68.0253799 C0.823269949,67.5922521 0,66.3390129 0,65.2388877 L0,30 L50,51.3244626 L50,88.5658168 L1.8388249,68.0253799 Z" id="Layer-1"></path>
                <path d="M51.8388249,68.0253799 C50.8232699,67.5922521 50,66.3390129 50,65.2388877 L50,30 L100,51.3244626 L100,66.6970819 L100,88.5658168 L51.8388249,68.0253799 Z" id="Layer-2" transform="translate(75.000000, 59.282908) scale(-1, 1) translate(-75.000000, -59.282908) "></path>
                <path d="M50,24 C56.4825537,24 61,26.9421589 61,29.5824673 C61,32.222972 56.4825537,35.1649346 50,35.1649346 C43.5174463,35.1649346 39,32.2227757 39,29.5824673 C39,26.9419626 43.5174463,24 50,24 L50,24 Z" id="Layer-3"></path>
                <path d="M78,10.347691 C84.4825537,10.347691 89,13.2898499 89,15.9301583 C89,18.570663 84.4825537,21.5126256 78,21.5126256 C71.5174463,21.5126256 67,18.5704667 67,15.9301583 C67,13.2896537 71.5174463,10.347691 78,10.347691 L78,10.347691 Z" id="Layer-4"></path>
                <path d="M22,11.1649346 C28.4825537,11.1649346 33,14.1070935 33,16.7474019 C33,19.3879065 28.4825537,22.3298692 22,22.3298692 C15.5174463,22.3298692 11,19.3877103 11,16.7474019 C11,14.1068972 15.5174463,11.1649346 22,11.1649346 L22,11.1649346 Z" id="Layer-5"></path>
                <path d="M49.86,0 C56.3425537,0 60.86,2.94215888 60.86,5.58246729 C60.86,8.22297196 56.3425537,11.1649346 49.86,11.1649346 C43.3774463,11.1649346 38.86,8.2227757 38.86,5.58246729 C38.86,2.94196262 43.3774463,0 49.86,0 L49.86,0 Z" id="Layer-6"></path>
                <path d="M39.0369242,30 L39,30 L39.0369242,40 C39.4793522,42.5233541 43.8575025,45.1649346 50,45.1649346 C56.14252,45.1649346 60.5206799,42.523511 61,40 L61,30 L60.9630806,30 C60.5206799,32.523511 56.14252,35.1649346 50,35.1649346 C43.8575025,35.1649346 39.4793522,32.5233541 39.0369242,30 Z" id="Layer-7"></path>
                <path d="M67.0369242,16.347691 L67,16.347691 L67.0369242,26.347691 C67.4793522,28.8710452 71.8575025,31.5126256 78,31.5126256 C84.14252,31.5126256 88.5206799,28.871202 89,26.347691 L89,16.347691 L88.9630806,16.347691 C88.5206799,18.871202 84.14252,21.5126256 78,21.5126256 C71.8575025,21.5126256 67.4793522,18.8710452 67.0369242,16.347691 Z" id="Layer-8"></path>
                <path d="M11.0369242,17.1649346 L11,17.1649346 L11.0369242,27.1649346 C11.4793522,29.6882887 15.8575025,32.3298692 22,32.3298692 C28.14252,32.3298692 32.5206799,29.6884456 33,27.1649346 L33,17.1649346 L32.9630806,17.1649346 C32.5206799,19.6884456 28.14252,22.3298692 22,22.3298692 C15.8575025,22.3298692 11.4793522,19.6882887 11.0369242,17.1649346 Z" id="Layer-9"></path>
                <path d="M38.8969242,6 L38.86,6 L38.8969242,16 C39.3393522,18.5233541 43.7175025,21.1649346 49.86,21.1649346 C56.00252,21.1649346 60.3806799,18.523511 60.86,16 L60.86,6 L60.8230806,6 C60.3806799,8.52351098 56.00252,11.1649346 49.86,11.1649346 C43.7175025,11.1649346 39.3393522,8.52335412 38.8969242,6 Z" id="Layer-10"></path>
                <path d="M38.8854482,12.8919906 L38.8969242,16 C39.3393522,18.5233541 43.7175025,21.1649346 49.86,21.1649346 C56.00252,21.1649346 60.3806799,18.523511 60.86,16 L60.86,12.7799514 L67.0392212,15.4996915 C67.0132082,15.64372 67,15.7873799 67,15.9301583 C67,16.0686614 67.0124309,16.207995 67.0369242,16.347691 L67,16.347691 L67.0369242,26.347691 C67.4793522,28.8710452 71.8575025,31.5126256 78,31.5126256 C84.14252,31.5126256 88.5206799,28.871202 89,26.347691 L89,25.1655714 L100,30.0071429 L50,52.0142857 L0,30.0071429 L11.0294938,25.1525899 L11.0369242,27.1649346 C11.4793522,29.6882887 15.8575025,32.3298692 22,32.3298692 C28.14252,32.3298692 32.5206799,29.6884456 33,27.1649346 L33,17.1649346 L32.9630806,17.1649346 C32.9875708,17.0252396 33,16.885906 33,16.7474019 C33,16.3685871 32.9070097,15.9835588 32.7285672,15.6018978 L38.8854482,12.8919906 Z M39.0369242,30 L39,30 L39.0369242,40 C39.4793522,42.5233541 43.8575025,45.1649346 50,45.1649346 C56.14252,45.1649346 60.5206799,42.523511 61,40 L61,30 L60.9630806,30 C60.9875708,29.8603051 61,29.7209715 61,29.5824673 C61,26.9421589 56.4825537,24 50,24 C43.5174463,24 39,26.9419626 39,29.5824673 C39,29.7209703 39.0124309,29.860304 39.0369242,30 Z" id="Layer-11"></path>
            </g>
        </g>
    </g>
</svg>