<?xml version="1.0" encoding="UTF-8"?>
<svg width="104px" height="104px" viewBox="0 0 104 104" version="1.1" xmlns="http://www.w3.org/2000/svg" xmlns:xlink="http://www.w3.org/1999/xlink">
    <!-- Generator: Sketch 46 (44423) - http://www.bohemiancoding.com/sketch -->
    <title>gaming-39</title>
    <desc>Created with Sketch.</desc>
    <defs></defs>
    <g id="ALL" stroke="none" stroke-width="1" fill="none" fill-rule="evenodd" stroke-linecap="round" stroke-linejoin="round">
        <g id="Secondary" transform="translate(-2206.000000, -5962.000000)" stroke="#868E96" stroke-width="3.5">
            <g id="gaming-39" transform="translate(2208.000000, 5964.000000)">
                <rect id="Layer-1" x="0" y="0" width="46" height="46" rx="2"></rect>
                <rect id="Layer-2" x="54" y="0" width="46" height="46" rx="2"></rect>
                <rect id="Layer-3" x="54" y="54" width="46" height="46" rx="2"></rect>
                <rect id="Layer-4" x="0" y="54" width="46" height="46" rx="2"></rect>
                <circle id="Layer-5" cx="23" cy="23" r="15"></circle>
                <rect id="Layer-6" transform="translate(77.142136, 23.142136) rotate(-315.000000) translate(-77.142136, -23.142136) " x="67.1421356" y="13.1421356" width="20" height="20"></rect>
                <polygon id="Layer-7" points="77.1421356 65 91.2842712 89.1421356 77.1421356 89.2842712 63 89.1421356"></polygon>
                <polygon id="Layer-8" points="23.1592336 62 27.7520719 71.6731588 38.3184672 73.0769721 30.5902156 80.4590064 32.5282516 91 23.1592336 85.8891079 13.7902156 91 15.7282515 80.4590064 8 73.0769721 18.5663952 71.6731588"></polygon>
            </g>
        </g>
    </g>
</svg>