<?xml version="1.0" encoding="UTF-8"?>
<svg width="66px" height="104px" viewBox="0 0 66 104" version="1.1" xmlns="http://www.w3.org/2000/svg" xmlns:xlink="http://www.w3.org/1999/xlink">
    <!-- Generator: Sketch 46 (44423) - http://www.bohemiancoding.com/sketch -->
    <title>gaming-3</title>
    <desc>Created with Sketch.</desc>
    <defs></defs>
    <g id="ALL" stroke="none" stroke-width="1" fill="none" fill-rule="evenodd" stroke-linecap="round" stroke-linejoin="round">
        <g id="Secondary" transform="translate(-971.000000, -5661.000000)" stroke="#868E96" stroke-width="3.5">
            <g id="gaming-3" transform="translate(973.000000, 5663.000000)">
                <path d="M28,36 L1.99263021,36 C0.900351021,36 0,36.8923277 0,37.9930696 L0,90.0069304 C0,91.0976918 0.892130935,92 1.99263021,92 L60.0073698,92 C61.099649,92 62,91.1076723 62,90.0069304 L62,37.9930696 C62,36.9023082 61.1078691,36 60.0073698,36 L34,36 L34,64 C34,64 34,67 31,67 C28,67 28,64 28,64 L28,36 L28,36 Z" id="Layer-1"></path>
                <path d="M28,36 L1.99263021,36 C0.900351021,36 0,36.8969073 0,38.0032986 L0,97.9967014 C0,99.0952759 0.892130935,100 1.99263021,100 L60.0073698,100 C61.099649,100 62,99.1030927 62,97.9967014 L62,38.0032986 C62,36.9047241 61.1078691,36 60.0073698,36 L34,36 L34,64 C34,64 34,67 31,67 C28,67 28,64 28,64 L28,36 L28,36 Z" id="Layer-2"></path>
                <circle id="Layer-3" cx="31" cy="15" r="15"></circle>
                <circle id="Layer-4" cx="51.5" cy="82.5" r="3.5"></circle>
                <path d="M34,46.2488753 C42.51314,47.6771096 49,55.0810111 49,64 C49,73.9411255 40.9411255,82 31,82 C21.0588745,82 13,73.9411255 13,64 C13,55.0810111 19.48686,47.6771096 28,46.2488753 L28,53.414065 C23.3829904,54.7199228 20,58.9648915 20,64 C20,70.0751322 24.9248678,75 31,75 C37.0751322,75 42,70.0751322 42,64 C42,58.9648915 38.6170096,54.7199228 34,53.414065 L34,46.2488753 L34,46.2488753 Z" id="Layer-5"></path>
                <path d="M34,29.6999457 L34,64 C34,64 34,67 31,67 C28,67 28,64 28,64 L28,29.6999457 C28.9693298,29.8967092 29.9726025,30 31,30 C32.0273975,30 33.0306702,29.8967092 34,29.6999457 L34,29.6999457 Z" id="Layer-6"></path>
            </g>
        </g>
    </g>
</svg>