<?xml version="1.0" encoding="UTF-8"?>
<svg width="104px" height="104px" viewBox="0 0 104 104" version="1.1" xmlns="http://www.w3.org/2000/svg" xmlns:xlink="http://www.w3.org/1999/xlink">
    <!-- Generator: Sketch 46 (44423) - http://www.bohemiancoding.com/sketch -->
    <title>gaming-33</title>
    <desc>Created with Sketch.</desc>
    <defs></defs>
    <g id="ALL" stroke="none" stroke-width="1" fill="none" fill-rule="evenodd" stroke-linecap="round" stroke-linejoin="round">
        <g id="Secondary" transform="translate(-416.000000, -5962.000000)" stroke="#868E96" stroke-width="3.5">
            <g id="gaming-33" transform="translate(418.000000, 5964.000000)">
                <path d="M8.33339844,0 C3.73828125,0 0,3.73828125 0,8.33339844 L0,91.6667969 C0,96.2617188 3.73828125,100 8.33339844,100 L91.6667969,100 C96.2617188,100 100,96.2617188 100,91.6666016 L100,8.33339844 C100,3.73828125 96.2617188,0 91.6666016,0 L8.33339844,0 Z" id="Layer-1"></path>
                <path d="M35,42.774241 C35,34.3195135 41.9129703,27.4781016 50.3958874,27.5973655 C58.4559597,27.7101241 65.2453292,34.4973252 65.3580878,42.5595659 C65.4339831,48.0045058 62.6432074,52.8010837 58.397412,55.5398169 C53.1172731,58.9442596 50.1790439,58.5192464 50.1790439,64.8012021 L50.1790439,67" id="Layer-2"></path>
                <circle id="Layer-3" cx="50.2000122" cy="75" r="2"></circle>
                <circle id="Layer-4" cx="87" cy="14" r="5"></circle>
                <circle id="Layer-5" cx="14" cy="14" r="5"></circle>
                <circle id="Layer-6" cx="87" cy="87" r="5"></circle>
                <circle id="Layer-7" cx="14" cy="87" r="5"></circle>
            </g>
        </g>
    </g>
</svg>