<?xml version="1.0" encoding="UTF-8"?>
<svg width="105px" height="103px" viewBox="0 0 105 103" version="1.1" xmlns="http://www.w3.org/2000/svg" xmlns:xlink="http://www.w3.org/1999/xlink">
    <!-- Generator: Sketch 46 (44423) - http://www.bohemiancoding.com/sketch -->
    <title>gaming-11</title>
    <desc>Created with Sketch.</desc>
    <defs></defs>
    <g id="ALL" stroke="none" stroke-width="1" fill="none" fill-rule="evenodd" stroke-linecap="round" stroke-linejoin="round">
        <g id="Secondary" transform="translate(-3333.000000, -5661.000000)" stroke="#868E96" stroke-width="3.5">
            <g id="gaming-11" transform="translate(3335.000000, 5663.000000)">
                <path d="M49.5851937,99.009901 C48.9681818,99.009901 48.4109461,98.7271622 48.1779203,98.2942425 L22.1124603,49.9382534 C21.9625132,49.660112 21.9625132,49.3482565 22.1124603,49.0701151 L48.1779203,0.715658524 C48.409933,0.283504983 48.9671687,0 49.5851937,0 C50.2032188,0 50.7594413,0.282738753 50.9924672,0.715658524 L77.0599535,49.0701151 C77.2099006,49.3482565 77.2099006,49.660112 77.0599535,49.9382534 L50.9924672,98.2942425 C50.7594413,98.7271622 50.2022056,99.009901 49.5851937,99.009901 L49.5851937,99.009901 Z" id="Layer-1"></path>
                <path d="M49.5862069,99.01166 C48.8354584,99.01166 48.1961571,98.5963603 48.0836968,98.0347096 L38.3695587,49.6783463 C38.3472693,49.5641772 38.3472693,49.4477094 38.3695587,49.3335403 L48.0836968,0.978709438 C48.1961571,0.417058733 48.8354584,0.00175903112 49.5862069,0.00175903112 C50.3369554,0.00175903112 50.9762567,0.417058733 51.088717,0.978709438 L60.8028551,49.3335403 C60.8251445,49.4477094 60.8251445,49.5641772 60.8028551,49.6783463 L51.088717,98.0347096 C50.9762567,98.5971266 50.3369554,99.01166 49.5862069,99.01166 L49.5862069,99.01166 Z" id="Layer-2"></path>
                <path d="M23,49.5067095 L77.3934942,49.5067095" id="Layer-3"></path>
                <circle id="Layer-4" cx="8.34166629" cy="29.261741" r="8.34166629"></circle>
                <circle id="Layer-5" cx="91" cy="12" r="10"></circle>
                <circle id="Layer-6" cx="78.7771267" cy="86.6439951" r="4.77712667"></circle>
            </g>
        </g>
    </g>
</svg>