<?xml version="1.0" encoding="UTF-8"?>
<svg width="84px" height="104px" viewBox="0 0 84 104" version="1.1" xmlns="http://www.w3.org/2000/svg" xmlns:xlink="http://www.w3.org/1999/xlink">
    <!-- Generator: Sketch 46 (44423) - http://www.bohemiancoding.com/sketch -->
    <title>gaming-20</title>
    <desc>Created with Sketch.</desc>
    <defs></defs>
    <g id="ALL" stroke="none" stroke-width="1" fill="none" fill-rule="evenodd" stroke-linecap="round" stroke-linejoin="round">
        <g id="Secondary" transform="translate(-6034.000000, -5661.000000)" stroke="#868E96" stroke-width="3.5">
            <g id="gaming-20" transform="translate(6036.000000, 5663.000000)">
                <path d="M77.4532115,0 L2.7680173,0 C1.30046655,0 0,1.20470582 0,2.69057693 L0,77.6904088 C0,78.6734783 0.584628639,79.5778485 1.43632627,80.0503811 L38.8064939,99.6693954 C39.2037757,99.8896863 39.657195,100 40.096663,100 C40.536131,100 40.9825747,99.8896863 41.3801886,99.6693954 L78.6709664,80.0503811 C79.522664,79.5781848 80,78.6734783 80,77.6904088 L80,2.69057693 C80,1.20470582 78.9207622,0 77.4532115,0 L77.4532115,0 Z" id="Layer-1"></path>
                <polygon id="Layer-2" points="71 73.2925481 71 59 40.0391579 74.1691633 9 59 9 73.2531083 40.0386917 89"></polygon>
                <polygon id="Layer-3" points="71 48.2925481 71 34 40.0391579 49.1691633 9 34 9 48.2531083 40.0386917 64"></polygon>
                <polygon id="Layer-4" points="40 7 44.5445949 16.5715513 55 17.9606188 47.3529265 25.2651118 49.2706052 35.6953821 40 30.6381751 30.7293948 35.6953821 32.6470735 25.2651118 25 17.9606188 35.4554051 16.5715513"></polygon>
            </g>
        </g>
    </g>
</svg>