<?xml version="1.0" encoding="UTF-8"?>
<svg width="104px" height="94px" viewBox="0 0 104 94" version="1.1" xmlns="http://www.w3.org/2000/svg" xmlns:xlink="http://www.w3.org/1999/xlink">
    <!-- Generator: Sketch 46 (44423) - http://www.bohemiancoding.com/sketch -->
    <title>gaming-31</title>
    <desc>Created with Sketch.</desc>
    <defs></defs>
    <g id="ALL" stroke="none" stroke-width="1" fill="none" fill-rule="evenodd" stroke-linecap="round" stroke-linejoin="round">
        <g id="Secondary" transform="translate(-9282.000000, -5661.000000)" stroke="#868E96" stroke-width="3.5">
            <g id="gaming-31" transform="translate(9284.000000, 5663.000000)">
                <path d="M99.8985193,77.2382044 C99.8985193,77.2382044 99.9271274,43.6787186 99.8985193,23.0543306 C99.8858282,13.9049758 100.133069,7.302531 99.8985193,7.302531 C99.8985193,7.302531 0,6.62183624 0,7.30253101 L0,77.2379804 L0,87.0078734 C0,88.6603793 1.33665465,90 3.0033583,90 L96.8951579,90 C98.5538669,90 99.8985166,88.6583847 99.898517,87.0079259 L99.8985193,77.2382044 Z" id="Layer-1"></path>
                <path d="M43,22 L15,22 L15,38 L43,38 L43,22 L43,22 Z M58,22 L85,22 L85,38 L58,38 L58,22 L58,22 Z" id="Layer-2"></path>
                <rect id="Layer-3" x="43" y="37" width="15" height="7"></rect>
                <path d="M0,7.50757718 C0,3.3612568 3.36629279,0 7.5,0 L7.5,0 C11.6421356,0 15,3.35557706 15,7.50757718 L15,38 L0,38 L0,7.50757718 Z" id="Layer-4"></path>
                <path d="M43,7.50757718 C43,3.3612568 46.3662928,0 50.5,0 L50.5,0 C54.6421356,0 58,3.35557706 58,7.50757718 L58,38 L43,38 L43,7.50757718 Z" id="Layer-5"></path>
                <path d="M85,7.50757718 C85,3.3612568 88.3662928,0 92.5,0 L92.5,0 C96.6421356,0 100,3.35557706 100,7.50757718 L100,38 L85,38 L85,7.50757718 Z" id="Layer-6"></path>
                <path d="M38,48.9990375 C38,46.2381453 40.2392484,44 42.9976716,44 L59.0023284,44 C61.7624662,44 64,46.2405846 64,48.9990375 L64,56.5 C64,63.4035594 58.4063799,69 51.4950108,69 L50.5049892,69 C43.5986744,69 38,63.4050773 38,56.5 L38,48.9990375 Z" id="Layer-7"></path>
                <circle id="Layer-8" cx="51" cy="53" r="4"></circle>
                <path d="M51,57 L51,61.8099999" id="Layer-9"></path>
                <path d="M75,67 C75,67 84.9883135,68.5092484 91.3734622,74.3835852 C97.758611,80.2579221 100,90 100,90 L77.9907522,90 C76.3390054,90 75,88.6640085 75,86.9931517 L75,67 Z" id="Layer-10" transform="translate(87.500000, 78.500000) scale(-1, 1) translate(-87.500000, -78.500000) "></path>
                <path d="M0,67 C0,67 9.98831346,68.5092484 16.3734622,74.3835852 C22.758611,80.2579221 25,90 25,90 L2.99075223,90 C1.33900538,90 0,88.6640085 0,86.9931517 L0,67 Z" id="Layer-11"></path>
            </g>
        </g>
    </g>
</svg>