<?xml version="1.0" encoding="UTF-8"?>
<svg width="104px" height="104px" viewBox="0 0 104 104" version="1.1" xmlns="http://www.w3.org/2000/svg" xmlns:xlink="http://www.w3.org/1999/xlink">
    <!-- Generator: Sketch 46 (44423) - http://www.bohemiancoding.com/sketch -->
    <title>gaming-8</title>
    <desc>Created with Sketch.</desc>
    <defs></defs>
    <g id="ALL" stroke="none" stroke-width="1" fill="none" fill-rule="evenodd" stroke-linecap="round" stroke-linejoin="round">
        <g id="Secondary" transform="translate(-2433.000000, -5661.000000)" stroke="#868E96" stroke-width="3.5">
            <g id="gaming-8" transform="translate(2435.000000, 5663.000000)">
                <path d="M35,35 L2.99280137,35 C1.33801252,35 0,36.3431543 0,38.0000191 L0,61.9999809 C0,63.6526814 1.33992281,65 2.99280137,65 L35,65 L35,97.0071986 C35,98.6619875 36.3431543,100 38.0000191,100 L61.9999809,100 C63.6526814,100 65,98.6600772 65,97.0071986 L65,65 L97.0071986,65 C98.6619875,65 100,63.6568457 100,61.9999809 L100,38.0000191 C100,36.3473186 98.6600772,35 97.0071986,35 L65,35 L65,2.99280137 C65,1.33801252 63.6568457,-2.46733446e-16 61.9999809,-5.51094577e-16 L38.0000191,-4.95981602e-15 C36.3473186,-5.26341219e-15 35,1.33992281 35,2.99280137 L35,35 Z" id="Layer-1"></path>
                <circle id="Layer-2" cx="50" cy="50" r="11"></circle>
                <path d="M57,12.3333333 L43,12.3333333 L50,6 L57,12.3333333 Z M57,88 L50,94.3333333 L43,88 L57,88 Z" id="Layer-3"></path>
                <path d="M57,12.3333333 L43,12.3333333 L50,6 L57,12.3333333 Z M57,88 L50,94.3333333 L43,88 L57,88 Z" id="Layer-4" transform="translate(50.000000, 50.166667) rotate(-270.000000) translate(-50.000000, -50.166667) "></path>
            </g>
        </g>
    </g>
</svg>