<?xml version="1.0" encoding="UTF-8"?>
<svg width="104px" height="105px" viewBox="0 0 104 105" version="1.1" xmlns="http://www.w3.org/2000/svg" xmlns:xlink="http://www.w3.org/1999/xlink">
    <!-- Generator: Sketch 46 (44423) - http://www.bohemiancoding.com/sketch -->
    <title>gaming-29</title>
    <desc>Created with Sketch.</desc>
    <defs></defs>
    <g id="ALL" stroke="none" stroke-width="1" fill="none" fill-rule="evenodd" stroke-linecap="round" stroke-linejoin="round">
        <g id="Secondary" transform="translate(-8682.000000, -5661.000000)" stroke="#868E96" stroke-width="3.5">
            <g id="gaming-29" transform="translate(8684.000000, 5663.000000)">
                <circle id="Layer-1" cx="50" cy="65" r="36"></circle>
                <path d="M39.1129942,2.99939271 C39.0505892,1.34287386 40.3467125,0 41.993227,0 L56.2924873,0 C57.9456009,0 59.2351267,1.34283057 59.1727201,2.99939271 L58.8447205,11.7060307 L39.4409938,11.7060307 L39.1129942,2.99939271 Z" id="Layer-2"></path>
                <path d="M67.1416802,41.4439384 C67.5523267,41.7976635 67.9451679,42.1587991 68.3208515,42.52721 C74.1271637,48.2211202 75.8350789,55.6528676 75.8350789,64.3234786" id="Layer-3" transform="translate(71.488380, 52.883708) rotate(-8.000000) translate(-71.488380, -52.883708) "></path>
                <path d="M22.0123457,64.8404577 C22.730834,81.2680235 35.835852,93.4780449 50.882655,93.4780449 C64.2126854,93.4780449 75.3527083,83.197243 78.2162987,69.422287 C64.9313492,71.8310548 56.9521784,73.9114385 48.7783899,66.923586 C40.6046015,59.9357335 22.0123457,64.8404577 22.0123457,64.8404577 Z" id="Layer-4"></path>
                <ellipse id="Layer-5" cx="33.1658442" cy="50.1371173" rx="6.52386889" ry="6.50967084"></ellipse>
                <rect id="Layer-6" x="30.2285714" y="12.7116631" width="38.5428571" height="10.2040816" rx="5.10204082"></rect>
                <path d="M92.5,0.285714286 L92.5,15.2857143" id="Layer-7"></path>
                <path d="M100,8 L85,8" id="Layer-8"></path>
                <path d="M6,12.2321429 L6,24.4196429" id="Layer-9"></path>
                <path d="M12,18.5 L0,18.5" id="Layer-10"></path>
                <path d="M64.7142857,32.1346325 L64.7142857,22.9157447 L35.3,22.9157447 L35.3,32.1282305 C39.7884407,30.1179657 44.7636629,29 50,29 C55.2418931,29 60.2221169,30.1203394 64.7142857,32.1346325 Z" id="Layer-11"></path>
            </g>
        </g>
    </g>
</svg>