<?xml version="1.0" encoding="UTF-8"?>
<svg width="104px" height="104px" viewBox="0 0 104 104" version="1.1" xmlns="http://www.w3.org/2000/svg" xmlns:xlink="http://www.w3.org/1999/xlink">
    <!-- Generator: Sketch 46 (44423) - http://www.bohemiancoding.com/sketch -->
    <title>gestures-21</title>
    <desc>Created with Sketch.</desc>
    <defs></defs>
    <g id="ALL" stroke="none" stroke-width="1" fill="none" fill-rule="evenodd" stroke-linecap="round" stroke-linejoin="round">
        <g id="Secondary" transform="translate(-5016.000000, -9323.000000)" stroke="#868E96" stroke-width="3.5">
            <g id="gestures-21" transform="translate(5018.000000, 9325.000000)">
                <polyline id="Layer-1" points="20.4436508 0.644660941 0.644660941 0.644660941 0.644660941 20.4436508"></polyline>
                <polyline id="Layer-2" transform="translate(89.455844, 10.544156) scale(-1, 1) translate(-89.455844, -10.544156) " points="99.3553391 0.644660941 79.5563492 0.644660941 79.5563492 20.4436508"></polyline>
                <polyline id="Layer-3" transform="translate(89.455844, 89.455844) scale(-1, -1) translate(-89.455844, -89.455844) " points="99.3553391 79.5563492 79.5563492 79.5563492 79.5563492 99.3553391"></polyline>
                <polyline id="Layer-4" transform="translate(10.544156, 89.455844) scale(1, -1) translate(-10.544156, -89.455844) " points="20.4436508 79.5563492 0.644660941 79.5563492 0.644660941 99.3553391"></polyline>
                <path d="M26,50 L36,50" id="Layer-5"></path>
                <rect id="Layer-6" x="36" y="35" width="30" height="30"></rect>
                <path d="M66,50 L76,50" id="Layer-7"></path>
                <path d="M51,35 L51,25" id="Layer-8"></path>
                <path d="M51,75 L51,65" id="Layer-9"></path>
            </g>
        </g>
    </g>
</svg>