<?xml version="1.0" encoding="UTF-8"?>
<svg width="101px" height="102px" viewBox="0 0 101 102" version="1.1" xmlns="http://www.w3.org/2000/svg" xmlns:xlink="http://www.w3.org/1999/xlink">
    <!-- Generator: Sketch 46 (44423) - http://www.bohemiancoding.com/sketch -->
    <title>gestures-39</title>
    <desc>Created with Sketch.</desc>
    <defs></defs>
    <g id="ALL" stroke="none" stroke-width="1" fill="none" fill-rule="evenodd" stroke-linecap="round" stroke-linejoin="round">
        <g id="Secondary" transform="translate(-1006.000000, -9624.000000)" stroke="#868E96" stroke-width="3.5">
            <g id="gestures-39" transform="translate(1008.000000, 9626.000000)">
                <polyline id="Layer-1" points="17.7930143 40.92014 6.55492615 46.8955375 0.579528688 35.6574494"></polyline>
                <polyline id="Layer-2" points="9.64305153 6.01200193 20.8811397 0.0366044666 26.8565371 11.2746926"></polyline>
                <path d="M6.55492615,46.8955375 L20.0040246,2.90551873" id="Layer-3"></path>
                <path d="M90.7402827,86.5952782 C90.7798638,91.7973214 90.7712396,96.303694 90.7712396,96.303694 C90.7707462,96.8549257 90.3320901,97.3017873 89.7664906,97.3017874 L52.7503523,97.3017891 C52.1959381,97.3017891 51.7383116,96.851162 51.7283806,96.3044132 L51.5501918,86.4942453 C51.5501918,86.4942453 45.2736893,79.1876261 41.6354381,75.5343165 C37.7505831,71.6333825 28.9808733,64.8315146 28.9808733,64.8315146 C26.0678164,59.9907045 30.1732796,55.4465725 34.3654366,55.4469424 C36.9598074,55.4467433 52.3217139,64.5858942 52.7464967,64.5858942 C54.2551883,64.5858942 53.5910085,51.2290089 53.5910085,49.3834639 L44.5910085,17.1229626 C44.5910085,13.0408642 47.6120652,11 50.6522239,11 C53.6923825,11 55.8706474,12.9940302 57.7134392,17.1229626 L66.4312207,39.9477824 C66.4312207,39.9477824 94.8555939,44.3411806 96.2401224,52.6466879 C97.085688,57.718725 96.2401237,75.8655167 90.7402827,86.5952782 Z" id="Layer-4"></path>
            </g>
        </g>
    </g>
</svg>