<?xml version="1.0" encoding="UTF-8"?>
<svg width="81px" height="98px" viewBox="0 0 81 98" version="1.1" xmlns="http://www.w3.org/2000/svg" xmlns:xlink="http://www.w3.org/1999/xlink">
    <!-- Generator: Sketch 46 (44423) - http://www.bohemiancoding.com/sketch -->
    <title>gestures-45</title>
    <desc>Created with Sketch.</desc>
    <defs></defs>
    <g id="ALL" stroke="none" stroke-width="1" fill="none" fill-rule="evenodd" stroke-linecap="round" stroke-linejoin="round">
        <g id="Secondary" transform="translate(-2800.000000, -9624.000000)" stroke="#868E96" stroke-width="3.5">
            <g id="gestures-45" transform="translate(2802.000000, 9626.000000)">
                <path d="M66.4107836,82.0631213 C66.0404762,83.6787501 65.7449142,86.3297875 65.7506289,87.9847625 L65.7668976,92.6962378 C65.7688022,93.2478307 65.3320901,93.6949852 64.7664906,93.6949852 L27.7503523,93.6949869 C27.1959381,93.6949869 26.7383116,93.2443598 26.7283806,92.6976111 L26.5501918,82.8874432 L9.98087326,49.2247124 C7.06781642,44.3839023 11.1732796,39.8397703 15.3654366,39.8401402 C17.2201685,39.8401402 26.8299674,54.979092 27.7464967,54.979092 C29.2551883,54.979092 28.5910085,47.6222067 28.5910085,45.7766617 L28.5910085,13.5161605 C28.5910085,9.43406207 31.3232332,7.38700434 34.3633919,7.38700434 C37.4035506,7.38700434 39.7134392,9.43406207 39.7134392,13.5161605 L40.4312207,39.3409802 L40.8102989,10.5161603 C40.8102989,10.5161603 41.1921043,6 46.3075523,6 C51.4230003,6 51.1362917,12.3976849 51.1362917,12.3976849 L51.7738838,39.3409805 L51.9029961,11.6606727 C51.9029961,11.6606727 52.4685249,7.38700438 56.7345276,7.38700438 C61.0005302,7.38700438 61.2143898,11.6606727 61.2143898,11.6606727 L62.2143898,39.3409805 L62.1968231,20.1412153 C62.1968231,20.1412153 62.7685814,16.2551346 66.9305458,16.3851089 C71.0925102,16.5150833 71.3142509,21.2255993 71.3142509,21.2255993 C71.3142509,21.2255993 72.1414638,47.5570004 72.2531433,48.4054316 C72.988945,53.9953287 66.4107836,82.0631213 66.4107836,82.0631213 Z" id="Layer-1"></path>
                <path d="M71.2473869,20.6697437 C74.6753881,18.8062275 77,15.1746993 77,11 C77,4.923532 72.0729274,0 65.9950752,0 L28.0049248,0 C21.9227926,0 17,4.92486775 17,11 C17,17.076468 21.9270726,22 28.0049248,22 L28.5910085,22 L28.5910085,13.5161605 C28.5910085,9.43406207 31.3232332,7.38700434 34.3633919,7.38700434 C37.4035506,7.38700434 39.7134392,9.43406207 39.7134392,13.5161605 L39.9492412,22 L40.6592737,22 L40.8102989,10.5161603 C40.8102989,10.5161603 41.1921043,6 46.3075523,6 C51.4230003,6 51.1362917,12.3976849 51.1362917,12.3976849 L51.363523,22 L51.8547692,22 L51.9029961,11.6606727 C51.9029961,11.6606727 52.4685249,7.38700438 56.7345276,7.38700438 C61.0005302,7.38700438 61.2143898,11.6606727 61.2143898,11.6606727 L61.5879163,22 L62.1985238,22 L62.1968231,20.1412153 C62.1968231,20.1412153 62.7685814,16.2551346 66.9305458,16.3851089 C70.2020742,16.4872758 71.0390143,19.4196712 71.2473869,20.6697437 Z" id="Layer-2"></path>
                <path d="M21.3950193,46.7057038 C21.9828475,45.3591332 22.3089136,43.8721018 22.3089136,42.3089136 C22.3089136,36.2337813 17.3840458,31.3089136 11.3089136,31.3089136 C5.23378134,31.3089136 0.308913588,36.2337813 0.308913588,42.3089136 C0.308913588,48.3840458 5.23378134,53.3089136 11.3089136,53.3089136 C11.5346731,53.3089136 11.7588442,53.3021125 11.9812331,53.2887042 L9.98087326,49.2247124 C7.06781642,44.3839023 11.1732796,39.8397703 15.3654366,39.8401402 C16.2352359,39.8401402 18.8105732,43.1695837 21.3950193,46.7057038 Z" id="Layer-3"></path>
            </g>
        </g>
    </g>
</svg>