<?xml version="1.0" encoding="UTF-8"?>
<svg width="81px" height="104px" viewBox="0 0 81 104" version="1.1" xmlns="http://www.w3.org/2000/svg" xmlns:xlink="http://www.w3.org/1999/xlink">
    <!-- Generator: Sketch 46 (44423) - http://www.bohemiancoding.com/sketch -->
    <title>gestures-28</title>
    <desc>Created with Sketch.</desc>
    <defs></defs>
    <g id="ALL" stroke="none" stroke-width="1" fill="none" fill-rule="evenodd" stroke-linecap="round" stroke-linejoin="round">
        <g id="Secondary" transform="translate(-7116.000000, -9323.000000)" stroke="#868E96" stroke-width="3.5">
            <g id="gestures-28" transform="translate(7118.000000, 9325.000000)">
                <path d="M13,13 L31.6284493,30.4281665" id="Layer-1"></path>
                <path d="M13,42 L31.6284493,59.4281665" id="Layer-2" transform="translate(22.314225, 50.714083) scale(1, -1) translate(-22.314225, -50.714083) "></path>
                <path d="M14.9789968,64.0826069 L31.3093114,64.0826069" id="Layer-3" transform="translate(23.144154, 64.082607) scale(1, -1) translate(-23.144154, -64.082607) "></path>
                <path d="M39,71.8348427 L39,85.1648426" id="Layer-4"></path>
                <path d="M38.9322917,99.7561229 C42.959368,99.7561229 46.2239583,96.503729 46.2239583,92.4916978 C46.2239583,88.4796666 42.959368,85.2272727 38.9322917,85.2272727 C34.9052154,85.2272727 31.640625,88.4796666 31.640625,92.4916978 C31.640625,96.503729 34.9052154,99.7561229 38.9322917,99.7561229 Z" id="Layer-5"></path>
                <ellipse id="Layer-6" cx="38.9322917" cy="64.0826069" rx="7.29166667" ry="7.26442507"></ellipse>
                <ellipse id="Layer-7" cx="38.9322917" cy="35.673516" rx="7.29166667" ry="7.26442507"></ellipse>
                <ellipse id="Layer-8" cx="38.9322917" cy="7.26442507" rx="7.29166667" ry="7.26442507"></ellipse>
                <ellipse id="Layer-9" cx="69.53125" cy="7.26442507" rx="7.29166667" ry="7.26442507"></ellipse>
                <ellipse id="Layer-10" cx="69.53125" cy="35.673516" rx="7.29166667" ry="7.26442507"></ellipse>
                <ellipse id="Layer-11" cx="69.53125" cy="64.0826069" rx="7.29166667" ry="7.26442507"></ellipse>
                <ellipse id="Layer-12" cx="7.29166667" cy="64.0826069" rx="7.29166667" ry="7.26442507"></ellipse>
                <ellipse id="Layer-13" cx="7.29166667" cy="35.673516" rx="7.29166667" ry="7.26442507"></ellipse>
                <ellipse id="Layer-14" cx="7.29166667" cy="7.26442507" rx="7.29166667" ry="7.26442507"></ellipse>
            </g>
        </g>
    </g>
</svg>