<?xml version="1.0" encoding="UTF-8"?>
<svg width="104px" height="104px" viewBox="0 0 104 104" version="1.1" xmlns="http://www.w3.org/2000/svg" xmlns:xlink="http://www.w3.org/1999/xlink">
    <!-- Generator: Sketch 46 (44423) - http://www.bohemiancoding.com/sketch -->
    <title>gestures-27</title>
    <desc>Created with Sketch.</desc>
    <defs></defs>
    <g id="ALL" stroke="none" stroke-width="1" fill="none" fill-rule="evenodd" stroke-linecap="round" stroke-linejoin="round">
        <g id="Secondary" transform="translate(-6816.000000, -9323.000000)" stroke="#868E96" stroke-width="3.5">
            <g id="gestures-27" transform="translate(6818.000000, 9325.000000)">
                <polyline id="Layer-1" transform="translate(92.000000, 50.000000) scale(-1, -1) rotate(-540.000000) translate(-92.000000, -50.000000) " points="84 34 100 50 84 66"></polyline>
                <polyline id="Layer-2" transform="translate(8.000000, 50.500000) scale(1, -1) rotate(-540.000000) translate(-8.000000, -50.500000) " points="1 35 16 50 -9.76996262e-15 66"></polyline>
                <polyline id="Layer-3" transform="translate(50.000000, 92.000000) rotate(-270.000000) translate(-50.000000, -92.000000) " points="42 76 58 92 42 108"></polyline>
                <polyline id="Layer-4" transform="translate(50.000000, 8.000000) scale(1, -1) rotate(-270.000000) translate(-50.000000, -8.000000) " points="42 -8 58 8 42 24"></polyline>
                <circle id="Layer-5" cx="50.5" cy="50.5" r="14.5"></circle>
            </g>
        </g>
    </g>
</svg>