<?xml version="1.0" encoding="UTF-8"?>
<svg width="105px" height="104px" viewBox="0 0 105 104" version="1.1" xmlns="http://www.w3.org/2000/svg" xmlns:xlink="http://www.w3.org/1999/xlink">
    <!-- Generator: Sketch 46 (44423) - http://www.bohemiancoding.com/sketch -->
    <title>gestures-35</title>
    <desc>Created with Sketch.</desc>
    <defs></defs>
    <g id="ALL" stroke="none" stroke-width="1" fill="none" fill-rule="evenodd" stroke-linecap="round" stroke-linejoin="round">
        <g id="Secondary" transform="translate(-9121.000000, -9323.000000)" stroke="#868E96" stroke-width="3.5">
            <g id="gestures-35" transform="translate(9123.000000, 9325.000000)">
                <polyline id="Layer-1" transform="translate(14.000000, 69.000000) rotate(-630.000000) translate(-14.000000, -69.000000) " points="7 55 21 69 7 83"></polyline>
                <path d="M14,76 L14,-7.10542736e-15" id="Layer-2" transform="translate(14.000000, 38.000000) rotate(-360.000000) translate(-14.000000, -38.000000) "></path>
                <path d="M95.3398692,87.0455528 C95.0087267,88.6708844 94.7444629,91.3381245 94.7495481,92.9799508 L94.7672422,98.6927774 C94.7689565,99.2462814 94.3320901,99.6949852 93.7664906,99.6949852 L56.7503523,99.6949869 C56.1959381,99.6949869 55.7383116,99.2443598 55.7283806,98.6976111 L55.5501918,88.8874432 L38.9808733,55.2247124 C36.0678164,50.3839023 40.1732796,45.8397703 44.3654366,45.8401402 C46.2201685,45.8401402 55.8299674,60.979092 56.7464967,60.979092 C58.2551883,60.979092 57.5910085,53.6222067 57.5910085,51.7766617 L57.5910085,18.5161605 C57.5910085,14.4340621 60.3232332,12.3870043 63.3633919,12.3870043 C66.4035506,12.3870043 68.7134392,14.4340621 68.7134392,18.5161605 L69.4312207,43.3409802 L70.574234,43.34098 L70.8102989,15.5161603 C70.8102989,15.5161603 71.1921043,11 76.3075523,11 C81.4230003,11 81.1362917,17.3976849 81.1362917,17.3976849 L82.4229987,42.9647954 C82.4229987,42.9647954 99.5173416,48.8155344 100.253143,54.4054316 C100.988945,59.9953287 95.3398692,87.0455528 95.3398692,87.0455528 Z" id="Layer-3"></path>
            </g>
        </g>
    </g>
</svg>