<?xml version="1.0" encoding="UTF-8"?>
<svg width="90px" height="104px" viewBox="0 0 90 104" version="1.1" xmlns="http://www.w3.org/2000/svg" xmlns:xlink="http://www.w3.org/1999/xlink">
    <!-- Generator: Sketch 46 (44423) - http://www.bohemiancoding.com/sketch -->
    <title>gestures-16</title>
    <desc>Created with Sketch.</desc>
    <defs></defs>
    <g id="ALL" stroke="none" stroke-width="1" fill="none" fill-rule="evenodd" stroke-linecap="round" stroke-linejoin="round">
        <g id="Secondary" transform="translate(-3590.000000, -9323.000000)" stroke="#868E96" stroke-width="3.5">
            <g id="gestures-16" transform="translate(3592.000000, 9325.000000)">
                <path d="M34.9444444,48.5416667 C34.9444444,48.5416667 34.9444444,35 50.5,35 C66.0555556,35 66.0555556,48.5416667 66.0555556,48.5416667 L68,100 L33,100 L34.9444444,48.5416667 Z" id="Layer-1"></path>
                <path d="M58.820616,55.9546147 L42.4230769,55.9546147 L42.4230769,49.5398073 C42.4230769,46.0029861 45.2877041,43.125 48.8109386,43.125 L52.4338031,43.125 C55.9565132,43.125 58.8211404,46.0029861 58.8211404,49.5398073 L58.820616,55.9546147 L58.820616,55.9546147 Z" id="Layer-2"></path>
                <path d="M43.7692308,63.4375 L57.664894,63.4375" id="Layer-3"></path>
                <path d="M1.84741111e-13,10.9375 C1.84741111e-13,27.3437498 17.5,34.6354167 17.5,34.6354167 C17.5,34.6354167 35,27.3437498 35,10.9375 C35,10.8412074 34.9936161,10.7486133 34.9810935,10.6596111 C34.9936353,10.4501 35,10.2388451 35,10.0260417 C35,4.48881175 30.6907407,0 25.375,0 C22.1197239,0 19.241893,1.68336956 17.5,4.26001199 C15.758107,1.68336956 12.8802761,0 9.625,0 C4.30925928,0 1.84741111e-13,4.48881175 1.84741111e-13,10.0260417 C1.84741111e-13,10.239022 0.00637523809,10.4504512 0.0189377739,10.6601336 C0.0063936233,10.7490057 1.84741111e-13,10.8414264 1.84741111e-13,10.9375 Z" id="Layer-4"></path>
                <path d="M1.84741111e-13,11.0526316 C1.84741111e-13,27.6315788 17.5,35 17.5,35 C17.5,35 35,27.6315788 35,11.0526316 C35,10.9553254 34.9936161,10.8617566 34.9810935,10.7718175 C34.9936353,10.560101 35,10.3466224 35,10.1315789 C35,4.5360624 30.6907407,0 25.375,0 C22.1197239,0 19.241893,1.70108924 17.5,4.30485423 C15.758107,1.70108924 12.8802761,0 9.625,0 C4.30925928,0 1.84741111e-13,4.5360624 1.84741111e-13,10.1315789 C1.84741111e-13,10.3468012 0.00637523809,10.560456 0.0189377739,10.7723456 C0.0063936233,10.8621531 1.84741111e-13,10.9555467 1.84741111e-13,11.0526316 Z" id="Layer-5"></path>
                <path d="M34.7817605,7.97631929 C39.6300649,5.43656377 45.1472687,4 51,4 C70.3299662,4 86,19.6700338 86,39 C86,52.6152998 78.2256845,64.414811 66.8740153,70.2015717 L66.8740138,70.2015803 L66.0555556,48.5416667 C66.0555556,48.5416667 66.0555556,35 50.5,35 C34.9444444,35 34.9444444,48.5416667 34.9444444,48.5416667 L34.145619,69.6820107 C23.3290858,63.7275658 16,52.2196827 16,39 C16,37.4493819 16.1008364,35.9223154 16.2963096,34.4250002 C17.0507894,34.8108587 17.5,35 17.5,35 C17.5,35 35,27.6315788 35,11.0526316 C35,10.9553254 34.9936161,10.8617566 34.9810935,10.7718175 C34.9936353,10.560101 35,10.3466224 35,10.1315789 C35,9.39197238 34.9247123,8.67087567 34.7817642,7.97631739 L34.7817605,7.97631929 Z" id="Layer-6"></path>
            </g>
        </g>
    </g>
</svg>