<?xml version="1.0" encoding="UTF-8"?>
<svg width="104px" height="104px" viewBox="0 0 104 104" version="1.1" xmlns="http://www.w3.org/2000/svg" xmlns:xlink="http://www.w3.org/1999/xlink">
    <!-- Generator: Sketch 46 (44423) - http://www.bohemiancoding.com/sketch -->
    <title>gestures-29</title>
    <desc>Created with Sketch.</desc>
    <defs></defs>
    <g id="ALL" stroke="none" stroke-width="1" fill="none" fill-rule="evenodd" stroke-linecap="round" stroke-linejoin="round">
        <g id="Secondary" transform="translate(-7393.000000, -9324.000000)" stroke="#868E96" stroke-width="3.5">
            <g id="gestures-29" transform="translate(7395.000000, 9325.000000)">
                <polyline id="Layer-1" transform="translate(21.000000, 30.000000) scale(1, -1) rotate(-270.000000) translate(-21.000000, -30.000000) " points="14 16 28 30 14 44"></polyline>
                <path d="M21,59 L21,23" id="Layer-2" transform="translate(21.000000, 41.000000) scale(1, -1) translate(-21.000000, -41.000000) "></path>
                <circle id="Layer-3" cx="21" cy="80" r="21"></circle>
                <polyline id="Layer-4" transform="translate(79.000000, 30.000000) scale(1, -1) rotate(-270.000000) translate(-79.000000, -30.000000) " points="72 16 86 30 72 44"></polyline>
                <path d="M79,59 L79,23" id="Layer-5" transform="translate(79.000000, 41.000000) scale(1, -1) translate(-79.000000, -41.000000) "></path>
                <circle id="Layer-6" cx="79" cy="80" r="21"></circle>
                <path d="M0,1 L100,1" id="Layer-7"></path>
                <circle id="Layer-8" cx="79" cy="80" r="14"></circle>
                <circle id="Layer-9" cx="21" cy="80" r="14"></circle>
            </g>
        </g>
    </g>
</svg>