<?xml version="1.0" encoding="UTF-8"?>
<svg width="67px" height="104px" viewBox="0 0 67 104" version="1.1" xmlns="http://www.w3.org/2000/svg" xmlns:xlink="http://www.w3.org/1999/xlink">
    <!-- Generator: Sketch 46 (44423) - http://www.bohemiancoding.com/sketch -->
    <title>gestures-32</title>
    <desc>Created with Sketch.</desc>
    <defs></defs>
    <g id="ALL" stroke="none" stroke-width="1" fill="none" fill-rule="evenodd" stroke-linecap="round" stroke-linejoin="round">
        <g id="Secondary" transform="translate(-8257.000000, -9323.000000)" stroke="#868E96" stroke-width="3.5">
            <g id="gestures-32" transform="translate(8259.000000, 9325.000000)">
                <path d="M57.3398692,87.0455528 C57.0087267,88.6708844 56.7444629,91.3381245 56.7495481,92.9799508 L56.7672422,98.6927774 C56.7689565,99.2462814 56.3320901,99.6949852 55.7664906,99.6949852 L18.7503523,99.6949869 C18.1959381,99.6949869 17.7383116,99.2443598 17.7283806,98.6976111 L17.5501918,88.8874432 L0.980873258,55.2247124 C-1.93218358,50.3839023 2.17327963,45.8397703 6.36543658,45.8401402 C8.22016848,45.8401402 17.8299674,60.979092 18.7464967,60.979092 C20.2551883,60.979092 19.5910085,53.6222067 19.5910085,51.7766617 L19.5910085,18.5161605 C19.5910085,14.4340621 22.3232332,12.3870043 25.3633919,12.3870043 C28.4035506,12.3870043 30.7134392,14.4340621 30.7134392,18.5161605 L31.4312207,43.3409802 L32.574234,43.34098 L32.8102989,15.5161603 C32.8102989,15.5161603 33.1921043,11 38.3075523,11 C43.4230003,11 43.1362917,17.3976849 43.1362917,17.3976849 L44.4229987,42.9647954 C44.4229987,42.9647954 61.5173416,48.8155344 62.2531433,54.4054316 C62.988945,59.9953287 57.3398692,87.0455528 57.3398692,87.0455528 Z" id="Layer-1"></path>
                <path d="M43.9215039,33 L60.0073698,33 C61.099649,33 62,32.1035463 62,30.9977147 L62,2.00228533 C62,0.899784928 61.1078691,0 60.0073698,0 L1.99263021,0 C0.900351021,0 0,0.896453677 0,2.00228533 L0,30.9977147 C0,32.1002151 0.892130935,33 1.99263021,33 L19.5910085,33 L19.5910085,18.5161605 C19.5910085,14.4340621 22.3232332,12.3870043 25.3633919,12.3870043 C28.4035506,12.3870043 30.7134392,14.4340621 30.7134392,18.5161605 L31.132223,33 L32.6619666,33 L32.8102989,15.5161603 C32.8102989,15.5161603 33.1921043,11 38.3075523,11 C43.4230003,11 43.1362917,17.3976849 43.1362917,17.3976849 L43.9215039,33 Z" id="Layer-2"></path>
            </g>
        </g>
    </g>
</svg>