<?xml version="1.0" encoding="UTF-8"?>
<svg width="105px" height="104px" viewBox="0 0 105 104" version="1.1" xmlns="http://www.w3.org/2000/svg" xmlns:xlink="http://www.w3.org/1999/xlink">
    <!-- Generator: Sketch 46 (44423) - http://www.bohemiancoding.com/sketch -->
    <title>gestures-41</title>
    <desc>Created with Sketch.</desc>
    <defs></defs>
    <g id="ALL" stroke="none" stroke-width="1" fill="none" fill-rule="evenodd" stroke-linecap="round" stroke-linejoin="round">
        <g id="Secondary" transform="translate(-1598.000000, -9624.000000)" stroke="#868E96" stroke-width="3.5">
            <g id="gestures-41" transform="translate(1600.000000, 9626.000000)">
                <path d="" id="Layer-1" transform="translate(29.322961, 6.111603) scale(-1, 1) translate(-29.322961, -6.111603) "></path>
                <path d="M0.952917012,23.8636364 C0.952917012,23.8636364 14.9440876,3.31174482e-16 50.907098,0 C86.8701084,-3.31174482e-16 100,23.8636364 100,23.8636364" id="Layer-2" transform="translate(50.476459, 11.931818) scale(-1, 1) translate(-50.476459, -11.931818) "></path>
                <polyline id="Layer-3" points="15.5541316 23.9446927 0.132166178 23.8636364 0.0511098813 8.44167098"></polyline>
                <path d="M95.3785954,67.611285 L100.131407,72.3374802 C100.525865,72.7297283 100.535741,73.3576021 100.135802,73.7575414 L73.9614409,99.931905 C73.5694109,100.323935 72.9271786,100.328884 72.5335466,99.9492969 L65.4707119,93.1384592 L29.9512892,81.0515915 C24.4684773,79.6884641 24.1582916,73.5722767 27.1228558,70.6082356 C28.4343493,69.2967421 45.9343588,73.2064436 46.5824428,72.5583596 C47.6492489,71.4915535 41.9774994,66.7590961 40.672502,65.4540987 L17.153776,41.9353727 C14.2672965,39.0488932 14.4604919,35.96948 16.6748834,33.7550885 C18.8892748,31.540697 22.1320427,31.184147 25.0185222,34.0706265 L42.3727619,50.40977 C42.3727619,50.40977 66.2855374,32.7101978 73.1374275,37.6040689 C77.3218045,40.5926355 91.6291185,62.9853027 91.6291185,62.9853027 C92.5263677,64.3732045 94.1999015,66.439192 95.3785954,67.611285 Z" id="Layer-4"></path>
            </g>
        </g>
    </g>
</svg>