<?xml version="1.0" encoding="UTF-8"?>
<svg width="104px" height="103px" viewBox="0 0 104 103" version="1.1" xmlns="http://www.w3.org/2000/svg" xmlns:xlink="http://www.w3.org/1999/xlink">
    <!-- Generator: Sketch 46 (44423) - http://www.bohemiancoding.com/sketch -->
    <title>gestures-48</title>
    <desc>Created with Sketch.</desc>
    <defs></defs>
    <g id="ALL" stroke="none" stroke-width="1" fill="none" fill-rule="evenodd" stroke-linecap="round" stroke-linejoin="round">
        <g id="Secondary" transform="translate(-3679.000000, -9624.000000)" stroke="#868E96" stroke-width="3.5">
            <g id="gestures-48" transform="translate(3681.000000, 9626.000000)">
                <path d="M69.5131374,83.0517032 L69.5131359,92.1737898 C69.5131358,92.7307052 69.0634559,93.1821744 68.5138837,93.1821744 L31.667496,93.1821739 C31.1156243,93.1821739 30.668244,92.7338088 30.6682441,92.1737893 L30.6682457,83.0517032 C30.6682457,83.0517032 22.9711435,70.3326508 20.7502735,69.0777303 C16.7982388,66.8446013 -4.24727119,66.9506608 -4.24727119,66.9506608 C-4.24727119,66.9506608 -9.5069318,57.4796997 -1.23304301,54.7586115 C7.04084579,52.0375233 22.7717156,53.0280629 22.7717156,53.0280629 L23.6915869,30.8882097 C23.6915869,26.6930974 27.7557518,24.5957314 30.8285029,24.5957314 C33.901254,24.5957314 60.8532387,30.3616204 67.4343469,33.4694368 C74.015455,36.5772533 74.4816156,46.2839373 74.4816156,46.2839373 L69.5131374,83.0517032 Z" id="Layer-1" transform="translate(34.293221, 58.888953) rotate(-270.000000) translate(-34.293221, -58.888953) "></path>
                <path d="M65,11.0526316 C65,27.6315788 82.5,35 82.5,35 C82.5,35 100,27.6315788 100,11.0526316 C100,10.9553254 99.9936161,10.8617566 99.9810935,10.7718175 C99.9936353,10.560101 100,10.3466224 100,10.1315789 C100,4.5360624 95.6907407,0 90.375,0 C87.1197239,0 84.241893,1.70108924 82.5,4.30485423 C80.758107,1.70108924 77.8802761,0 74.625,0 C69.3092593,0 65,4.5360624 65,10.1315789 C65,10.3468012 65.0063752,10.560456 65.0189378,10.7723456 C65.0063936,10.8621531 65,10.9555467 65,11.0526316 Z" id="Layer-2"></path>
            </g>
        </g>
    </g>
</svg>