<?xml version="1.0" encoding="UTF-8"?>
<svg width="67px" height="104px" viewBox="0 0 67 104" version="1.1" xmlns="http://www.w3.org/2000/svg" xmlns:xlink="http://www.w3.org/1999/xlink">
    <!-- Generator: Sketch 46 (44423) - http://www.bohemiancoding.com/sketch -->
    <title>gestures-31</title>
    <desc>Created with Sketch.</desc>
    <defs></defs>
    <g id="ALL" stroke="none" stroke-width="1" fill="none" fill-rule="evenodd" stroke-linecap="round" stroke-linejoin="round">
        <g id="Secondary" transform="translate(-7994.000000, -9323.000000)" stroke="#868E96" stroke-width="3.5">
            <g id="gestures-31" transform="translate(7996.000000, 9325.000000)">
                <g id="Group-2" transform="translate(0.000000, 11.000000)">
                    <path d="M57.3398692,76.0455528 C57.0087267,77.6708844 56.7444629,80.3381245 56.7495481,81.9799508 L56.7672422,87.6927774 C56.7689565,88.2462814 56.3320901,88.6949852 55.7664906,88.6949852 L18.7503523,88.6949869 C18.1959381,88.6949869 17.7383116,88.2443598 17.7283806,87.6976111 L17.5501918,77.8874432 L0.980873258,44.2247124 C-1.93218358,39.3839023 2.17327963,34.8397703 6.36543658,34.8401402 C8.22016848,34.8401402 17.8299674,49.979092 18.7464967,49.979092 C20.2551883,49.979092 19.5910085,42.6222067 19.5910085,40.7766617 L19.5910085,7.51616047 C19.5910085,3.43406207 22.3232332,1.38700434 25.3633919,1.38700434 C28.4035506,1.38700434 30.7134392,3.43406207 30.7134392,7.51616047 L31.4312207,32.3409802 L32.574234,32.34098 L32.8102989,4.5161603 C32.8102989,4.5161603 33.1921043,-4.75238846e-10 38.3075523,0 C43.4230003,4.75238848e-10 43.1362917,6.39768489 43.1362917,6.39768489 L44.4229987,31.9647954 C44.4229987,31.9647954 61.5173416,37.8155344 62.2531433,43.4054316 C62.988945,48.9953287 57.3398692,76.0455528 57.3398692,76.0455528 Z" id="Layer-1"></path>
                </g>
                <path d="M19.5910085,32.5746724 C12.3639121,30.8106274 7,24.2930455 7,16.5226549 C7,7.39744458 14.3974446,0 23.5226549,0 C26.2229143,0 28.7718837,0.647749244 31.0226549,1.79633946 C33.2734261,0.647749244 35.8223956,0 38.5226549,0 C47.6478653,0 55.0453098,7.39744458 55.0453098,16.5226549 C55.0453098,23.7730577 50.375274,29.9327151 43.8791145,32.1577149 L43.1362917,17.3976849 C43.1362917,17.3976849 43.4230003,11 38.3075523,11 C33.1921043,11 32.8102989,15.5161603 32.8102989,15.5161603 L32.6706284,31.9790332 C32.126962,31.7730829 31.5969957,31.5392717 31.0824721,31.2793422 L30.7134392,18.5161605 C30.7134392,14.4340621 28.4035506,12.3870043 25.3633919,12.3870043 C22.3232332,12.3870043 19.5910085,14.4340621 19.5910085,18.5161605 L19.5910085,32.5746724 Z" id="Layer-2"></path>
            </g>
        </g>
    </g>
</svg>