<?xml version="1.0" encoding="UTF-8"?>
<svg width="104px" height="99px" viewBox="0 0 104 99" version="1.1" xmlns="http://www.w3.org/2000/svg" xmlns:xlink="http://www.w3.org/1999/xlink">
    <!-- Generator: Sketch 46 (44423) - http://www.bohemiancoding.com/sketch -->
    <title>gestures-36</title>
    <desc>Created with Sketch.</desc>
    <defs></defs>
    <g id="ALL" stroke="none" stroke-width="1" fill="none" fill-rule="evenodd" stroke-linecap="round" stroke-linejoin="round">
        <g id="Secondary" transform="translate(-9422.000000, -9323.000000)" stroke="#868E96" stroke-width="3.5">
            <g id="gestures-36" transform="translate(9424.000000, 9325.000000)">
                <polyline id="Layer-1" transform="translate(93.000000, 14.000000) scale(-1, 1) rotate(-540.000000) translate(-93.000000, -14.000000) " points="86 7.10542736e-15 100 14 86 28"></polyline>
                <path d="M85,29 L85,-1" id="Layer-2" transform="translate(85.000000, 14.000000) scale(-1, 1) rotate(-270.000000) translate(-85.000000, -14.000000) "></path>
                <path d="M12.5,26.5 L12.5,1.5" id="Layer-3" transform="translate(12.500000, 14.000000) scale(-1, 1) rotate(-270.000000) translate(-12.500000, -14.000000) "></path>
                <path d="M73.3398692,82.0455528 C73.0087267,83.6708844 72.7444629,86.3381245 72.7495481,87.9799508 L72.7672422,93.6927774 C72.7689565,94.2462814 72.3320901,94.6949852 71.7664906,94.6949852 L34.7503523,94.6949869 C34.1959381,94.6949869 33.7383116,94.2443598 33.7283806,93.6976111 L33.5501918,83.8874432 L16.9808733,50.2247124 C14.0678164,45.3839023 18.1732796,40.8397703 22.3654366,40.8401402 C24.2201685,40.8401402 33.8299674,55.979092 34.7464967,55.979092 C36.2551883,55.979092 35.5910085,48.6222067 35.5910085,46.7766617 L35.5910085,13.5161605 C35.5910085,9.43406207 38.3232332,7.38700434 41.3633919,7.38700434 C44.4035506,7.38700434 46.7134392,9.43406207 46.7134392,13.5161605 L47.4312207,38.3409802 L48.574234,38.34098 L48.8102989,10.5161603 C48.8102989,10.5161603 49.1921043,6 54.3075523,6 C59.4230003,6 59.1362917,12.3976849 59.1362917,12.3976849 L60.4229987,37.9647954 C60.4229987,37.9647954 77.5173416,43.8155344 78.2531433,49.4054316 C78.988945,54.9953287 73.3398692,82.0455528 73.3398692,82.0455528 Z" id="Layer-4"></path>
            </g>
        </g>
    </g>
</svg>