<?xml version="1.0" encoding="UTF-8"?>
<svg width="102px" height="99px" viewBox="0 0 102 99" version="1.1" xmlns="http://www.w3.org/2000/svg" xmlns:xlink="http://www.w3.org/1999/xlink">
    <!-- Generator: Sketch 46 (44423) - http://www.bohemiancoding.com/sketch -->
    <title>gestures-9</title>
    <desc>Created with Sketch.</desc>
    <defs></defs>
    <g id="ALL" stroke="none" stroke-width="1" fill="none" fill-rule="evenodd" stroke-linecap="round" stroke-linejoin="round">
        <g id="Secondary" transform="translate(-1607.000000, -9323.000000)" stroke="#868E96" stroke-width="3.5">
            <g id="gestures-9" transform="translate(1608.000000, 9325.000000)">
                <polyline id="Layer-1" transform="translate(92.166892, 14.000000) scale(-1, 1) rotate(-540.000000) translate(-92.166892, -14.000000) " points="85.1668924 7.10542736e-15 99.1668924 14 85.1668924 28"></polyline>
                <path d="M82.1668924,31 L82.1668924,-3" id="Layer-2" transform="translate(82.166892, 14.000000) scale(-1, 1) rotate(-270.000000) translate(-82.166892, -14.000000) "></path>
                <polyline id="Layer-3" transform="translate(7.833108, 14.000000) rotate(-540.000000) translate(-7.833108, -14.000000) " points="0.833107597 7.10542736e-15 14.8331076 14 0.833107597 28"></polyline>
                <path d="M17.8331076,31 L17.8331076,-3" id="Layer-4" transform="translate(17.833108, 14.000000) rotate(-270.000000) translate(-17.833108, -14.000000) "></path>
                <path d="M82.3684799,81.3677416 C82.0215362,82.9835874 81.7440295,85.6278282 81.748697,87.2900855 L81.767518,93.9927559 C81.76908,94.5490405 81.3320901,94.9999983 80.7664906,94.9999983 L43.7503523,95 C43.1959381,95 42.7383116,94.5493729 42.7283806,94.0026242 L42.5501918,84.1924563 L25.9808733,50.5297255 C23.0678164,45.6889154 27.1732796,41.1447834 31.3654366,41.1451533 C33.2201685,41.1451533 42.8299674,56.2841051 43.7464967,56.2841051 C45.2551883,56.2841051 44.5910085,48.9272198 44.5910085,47.0816749 L44.5910085,13.8211736 C44.5910085,9.73907518 46.9050922,7.69821095 50.0367147,7.69821095 C53.1683371,7.69821095 55.7134392,9.73907518 55.7134392,13.8211736 L56.4312207,37.6459934 C56.4312207,37.6459934 85.8555939,42.0393916 87.2401224,50.3448989 C88.085688,55.416936 82.3684799,81.3677416 82.3684799,81.3677416 Z" id="Layer-5"></path>
            </g>
        </g>
    </g>
</svg>