<?xml version="1.0" encoding="UTF-8"?>
<svg width="104px" height="104px" viewBox="0 0 104 104" version="1.1" xmlns="http://www.w3.org/2000/svg" xmlns:xlink="http://www.w3.org/1999/xlink">
    <!-- Generator: Sketch 46 (44423) - http://www.bohemiancoding.com/sketch -->
    <title>gestures-4</title>
    <desc>Created with Sketch.</desc>
    <defs></defs>
    <g id="ALL" stroke="none" stroke-width="1" fill="none" fill-rule="evenodd" stroke-linecap="round" stroke-linejoin="round">
        <g id="Secondary" transform="translate(-9687.000000, -9023.000000)" stroke="#868E96" stroke-width="3.5">
            <g id="gestures-4" transform="translate(9689.000000, 9025.000000)">
                <polyline id="Layer-1" transform="translate(22.947982, 41.989548) rotate(-630.000000) translate(-22.947982, -41.989548) " points="18.7002269 33.4940387 27.1957366 41.9895483 18.7002269 50.485058"></polyline>
                <polyline id="Layer-2" transform="translate(22.947982, 4.366577) scale(-1, -1) rotate(-630.000000) translate(-22.947982, -4.366577) " points="18.7002269 -4.12893271 27.1957366 4.36657695 18.7002269 12.8620866"></polyline>
                <path d="M22.9479818,46.2373031 L22.9479818,0.118822118" id="Layer-3" transform="translate(22.947982, 23.178063) rotate(-360.000000) translate(-22.947982, -23.178063) "></path>
                <polyline id="Layer-4" transform="translate(4.510452, 23.447982) rotate(-900.000000) translate(-4.510452, -23.447982) " points="0.262696855 14.9524721 8.75820652 23.4479818 0.262696855 31.9434914"></polyline>
                <path d="M23.3219374,46.5072223 L23.3219374,0.388741264" id="Layer-5" transform="translate(23.321937, 23.447982) rotate(-630.000000) translate(-23.321937, -23.447982) "></path>
                <polyline id="Layer-6" transform="translate(42.133423, 23.447982) scale(1, -1) rotate(-360.000000) translate(-42.133423, -23.447982) " points="37.8856682 14.9524721 46.3811779 23.4479818 37.8856682 31.9434914"></polyline>
                <path d="M94.2186468,89.2398358 C94.2487112,93.9813843 94.2482408,98.9402331 94.2482408,98.9402331 C94.2485001,99.4958933 93.8104542,99.9463449 93.2448547,99.946345 L56.2287164,99.9463467 C55.6743022,99.9463467 55.2166757,99.4957196 55.2067447,98.9489708 L55.0285559,89.1388029 C55.0285559,89.1388029 43.0866564,76.9559517 41.6726628,63.0509537 C40.748273,57.9495574 48.0572262,50.6663815 48.0572262,50.6663815 L48.9673405,40.1229626 C48.9673405,36.0408642 52.9883971,34 56.0285558,34 C59.0687145,34 63.0897712,40.1229626 63.0897712,40.1229626 C63.0897712,40.1229626 64.8128015,35.5918078 70.7200012,36.4979806 C76.5091135,37.4041533 76.3014011,43.4500494 76.3014011,43.4500494 C76.3014011,43.4500494 78.5872258,38.9471321 83.8257414,39.7130222 C89.3923727,40.5268841 90.1980724,46.7337751 90.1980724,46.7337751 C90.1980724,46.7337751 99.7184848,45.1009541 99.7184865,54.2912455 C100.563997,59.3632947 99.7184879,78.5100743 94.2186468,89.2398358 Z" id="Layer-7"></path>
            </g>
        </g>
    </g>
</svg>