<?xml version="1.0" encoding="UTF-8"?>
<svg width="104px" height="104px" viewBox="0 0 104 104" version="1.1" xmlns="http://www.w3.org/2000/svg" xmlns:xlink="http://www.w3.org/1999/xlink">
    <!-- Generator: Sketch 46 (44423) - http://www.bohemiancoding.com/sketch -->
    <title>gestures-43</title>
    <desc>Created with Sketch.</desc>
    <defs></defs>
    <g id="ALL" stroke="none" stroke-width="1" fill="none" fill-rule="evenodd" stroke-linecap="round" stroke-linejoin="round">
        <g id="Secondary" transform="translate(-2200.000000, -9624.000000)" stroke="#868E96" stroke-width="3.5">
            <g id="gestures-43" transform="translate(2202.000000, 9626.000000)">
                <path d="" id="Layer-1" transform="translate(93.888397, 70.677039) scale(-1, -1) rotate(-90.000000) translate(-93.888397, -70.677039) "></path>
                <path d="M38.5446403,61.4553597 C38.5446403,61.4553597 52.5358109,37.5917233 88.4988213,37.5917233 C124.461832,37.5917233 137.591723,61.4553597 137.591723,61.4553597" id="Layer-2" transform="translate(88.068182, 49.523541) scale(-1, -1) rotate(-90.000000) translate(-88.068182, -49.523541) "></path>
                <polyline id="Layer-3" points="76.0553073 84.4458684 76.1363636 99.8678338 91.558329 99.9488901"></polyline>
                <path d="M69.7539474,55.0319766 L73.0199275,60.8851396 C73.2909859,61.3709198 73.1274146,61.9771933 72.6327301,62.2514014 L40.2576869,80.1971828 C39.7727854,80.4659682 39.1540678,80.2937026 38.8803129,79.82032 L33.9684017,71.3265415 L3.15653347,49.9174188 C-1.73815476,47.0958288 -0.350474652,41.1310734 3.31624778,39.0989989 C4.93843285,38.199807 20.6828619,46.7817097 21.4844764,46.3373675 C22.8040078,45.6059393 18.6564143,39.4934631 17.7616764,37.8793131 L1.63666538,8.78902324 C-0.3423752,5.21873953 0.692137428,2.31186938 3.43111613,0.793628698 C6.17009483,-0.724611988 9.3855219,-0.173521889 11.3645625,3.39676182 L23.5428501,23.8864314 C23.5428501,23.8864314 51.4079485,13.4637648 56.6454743,20.0566924 C59.843995,24.0828577 67.4248124,49.5517012 67.4248124,49.5517012 C67.9047461,51.1331534 68.9439866,53.5803964 69.7539474,55.0319766 Z" id="Layer-4" transform="translate(36.575020, 40.162156) scale(-1, -1) translate(-36.575020, -40.162156) "></path>
            </g>
        </g>
    </g>
</svg>