<?xml version="1.0" encoding="UTF-8"?>
<svg width="104px" height="46px" viewBox="0 0 104 46" version="1.1" xmlns="http://www.w3.org/2000/svg" xmlns:xlink="http://www.w3.org/1999/xlink">
    <!-- Generator: Sketch 46 (44423) - http://www.bohemiancoding.com/sketch -->
    <title>gestures-14</title>
    <desc>Created with Sketch.</desc>
    <defs></defs>
    <g id="ALL" stroke="none" stroke-width="1" fill="none" fill-rule="evenodd" stroke-linecap="round" stroke-linejoin="round">
        <g id="Secondary" transform="translate(-3048.000000, -9323.000000)" stroke="#868E96" stroke-width="3.5">
            <g id="gestures-14" transform="translate(3050.000000, 9325.000000)">
                <path d="M12.4444444,8 C12.4444444,8 12.4444444,-2 24,-2 C35.5555556,-2 35.5555556,8 35.5555556,8 L37,46 L11,46 L12.4444444,8 Z" id="Layer-1" transform="translate(24.000000, 22.000000) rotate(-270.000000) translate(-24.000000, -22.000000) "></path>
                <path d="M43.3532313,26.8277978 L31.1722022,26.8277978 L31.1722022,22.0907093 C31.1722022,19.4789028 33.300211,17.3536208 35.9174709,17.3536208 L38.6087417,17.3536208 C41.225612,17.3536208 43.3536208,19.4789028 43.3536208,22.0907093 L43.3532313,26.8277978 L43.3532313,26.8277978 Z" id="Layer-2" transform="translate(37.262912, 22.090709) rotate(-270.000000) translate(-37.262912, -22.090709) "></path>
                <path d="M21.8387537,22.1612463 L32.1612463,22.1612463" id="Layer-3" transform="translate(27.000000, 22.161246) rotate(-270.000000) translate(-27.000000, -22.161246) "></path>
                <polyline id="Layer-4" transform="translate(93.000000, 21.000000) scale(1, -1) translate(-93.000000, -21.000000) " points="86 7 100 21 86 35"></polyline>
                <path d="M85,36 L85,6" id="Layer-5" transform="translate(85.000000, 21.000000) scale(1, -1) rotate(270.000000) translate(-85.000000, -21.000000) "></path>
                <path d="M30.0217784,10.1411787 C33.7010707,4.06267298 40.3760913,1.69293901e-12 48,1.6943395e-12 C59.5979797,1.69647002e-12 69,9.40202025 69,21 C69,32.5979797 59.5979797,42 48,42 C41.2234434,42 35.19657,38.7902247 31.3567812,33.8080756 L38,33.5555556 C38,33.5555556 48,33.5555556 48,22 C48,10.4444444 38,10.4444444 38,10.4444444 L30.0217784,10.1411787 Z" id="Layer-6"></path>
            </g>
        </g>
    </g>
</svg>