<?xml version="1.0" encoding="UTF-8"?>
<svg width="104px" height="103px" viewBox="0 0 104 103" version="1.1" xmlns="http://www.w3.org/2000/svg" xmlns:xlink="http://www.w3.org/1999/xlink">
    <!-- Generator: Sketch 46 (44423) - http://www.bohemiancoding.com/sketch -->
    <title>healthcare-24</title>
    <desc>Created with Sketch.</desc>
    <defs></defs>
    <g id="ALL" stroke="none" stroke-width="1" fill="none" fill-rule="evenodd" stroke-linecap="round" stroke-linejoin="round">
        <g id="Secondary" transform="translate(-4183.000000, -7192.000000)" stroke="#868E96" stroke-width="3.5">
            <g id="healthcare-24" transform="translate(4185.000000, 7193.000000)">
                <path d="M62.2896684,0.789671839 C62.2896684,0.789671839 40.8049713,29.8320674 49.9796769,50.3357307 C59.1543825,70.839394 37.7096366,99.7209916 37.7096366,99.7209916" id="Layer-1"></path>
                <path d="M6.83296885,59.1284951 L40.8961379,93.1916642" id="Layer-2"></path>
                <path d="M14.3940356,54.153919 L45.2848264,85.0447098" id="Layer-3"></path>
                <path d="M23.5476949,50.7685622 L48.7555612,75.9764285" id="Layer-4"></path>
                <path d="M33.9258296,48.6048207 L51.5738586,66.2528497" id="Layer-5"></path>
                <path d="M59.7645756,6.72991433 L93.8277447,40.7930834" id="Layer-6"></path>
                <path d="M54.7237292,14.231122 L85.61452,45.1219128" id="Layer-7"></path>
                <path d="M51.2754753,23.3186213 L76.4833415,48.5264875" id="Layer-8"></path>
                <path d="M49.0516967,33.6337464 L66.6997257,51.2817754" id="Layer-9"></path>
                <path d="M99.4653124,37.9653159 C99.4653124,37.9653159 70.4229168,59.4500129 49.9192535,50.2753073 C29.4155902,41.1006017 0.533992596,62.5453476 0.533992596,62.5453476" id="Layer-10"></path>
            </g>
        </g>
    </g>
</svg>