<?xml version="1.0" encoding="UTF-8"?>
<svg width="91px" height="114px" viewBox="0 0 91 114" version="1.1" xmlns="http://www.w3.org/2000/svg" xmlns:xlink="http://www.w3.org/1999/xlink">
    <!-- Generator: Sketch 46 (44423) - http://www.bohemiancoding.com/sketch -->
    <title>healthcare-16</title>
    <desc>Created with Sketch.</desc>
    <defs></defs>
    <g id="ALL" stroke="none" stroke-width="1" fill="none" fill-rule="evenodd" stroke-linecap="round" stroke-linejoin="round">
        <g id="Secondary" transform="translate(-1852.000000, -7191.000000)" stroke="#868E96" stroke-width="3.5">
            <g id="healthcare-16" transform="translate(1854.000000, 7193.000000)">
                <path d="M70.7272231,48.4344793 C70.0956264,51.8733073 68.6111624,54.9933974 66.5279546,57.6077344 C66.5878359,61.3987105 66.661437,72.013076 65.8665733,82.1236395 C65.0247638,92.8313458 63.0312249,102.92487 62.4486045,104.659895 C61.0911826,108.702253 54.9964561,112.514753 52.4661826,106.757694 C50.1846593,101.56661 51.1238975,92.2660965 49.8104209,82.8843817 C48.4969444,73.5026669 42.2350552,66.8401084 37.862667,66.8401084 L36.862667,66.8465599 C32.4902788,66.8465599 26.2283897,73.5091184 24.9149131,82.8908332 C23.6014365,92.272548 24.5406747,101.573061 22.2591514,106.764146 C19.7288779,112.521204 13.6341514,108.708704 12.2767295,104.666346 C11.6941091,102.931321 9.70057022,92.8377973 8.85876076,82.130091 C8.06389697,72.0195275 8.1374981,61.405162 8.19737944,57.6141859 C6.07811969,54.9546053 4.57850679,51.7716151 3.96608738,48.2621089 L0.299285697,27.2492815 C-1.59908081,16.3705782 5.73150846,8.73203947 16.6717788,10.1833355 C16.6717788,10.1833355 29.495459,12.1648526 36.862667,12.1421711 C37.1028097,12.1493837 37.334039,12.1542832 37.5553498,12.1566862 C37.6560579,12.1544433 37.7585243,12.1517505 37.862667,12.1584011 C38.7088294,12.1584011 39.6269721,12.1322615 40.5893982,12.0859868 C38.3111076,15.8551492 37,20.2744618 37,25 C37,38.8071187 48.1928813,50 62,50 C65.0697223,50 68.0102224,49.446734 70.7272231,48.4344793 L70.7272231,48.4344793 Z" id="Layer-1"></path>
                <circle id="Layer-2" cx="62" cy="25" r="25"></circle>
                <polyline id="Layer-3" points="52 24.0326948 59.4628609 31.5647746 72.9836877 18"></polyline>
            </g>
        </g>
    </g>
</svg>