<?xml version="1.0" encoding="UTF-8"?>
<svg width="104px" height="99px" viewBox="0 0 104 99" version="1.1" xmlns="http://www.w3.org/2000/svg" xmlns:xlink="http://www.w3.org/1999/xlink">
    <!-- Generator: Sketch 46 (44423) - http://www.bohemiancoding.com/sketch -->
    <title>healthcare-37</title>
    <desc>Created with Sketch.</desc>
    <defs></defs>
    <g id="ALL" stroke="none" stroke-width="1" fill="none" fill-rule="evenodd" stroke-linecap="round" stroke-linejoin="round">
        <g id="Secondary" transform="translate(-8027.000000, -7191.000000)" stroke="#868E96" stroke-width="3.5">
            <g id="healthcare-37" transform="translate(8029.000000, 7193.000000)">
                <path d="M55.1469606,6.16528906 C59.880034,2.31086694 65.920151,0 72.5,0 C87.6878306,0 100,12.3121694 100,27.5 C100,28.0836893 99.9818153,28.6631313 99.9459815,29.2377905 C99.9817603,29.4819107 100,29.7358831 100,30 C100,74.9999995 50,95 50,95 C50,95 0,74.9999995 0,30 C0,29.7364838 0.0182674951,29.482987 0.0541079255,29.2392237 C0.018214966,28.6640948 0,28.0841746 0,27.5 C0,12.3121694 12.3121694,0 27.5,0 C32.0332247,0 36.3102603,1.09687615 40.0801807,3.03970234 L40.0801807,37.9732031 L51.8762641,35.3671875 L51.8762641,65.0898438 L67.3064697,18.1480664 L51.8762645,23.1734766 L55.1469606,6.16528906 L55.1469606,6.16528906 Z" id="Layer-1"></path>
            </g>
        </g>
    </g>
</svg>