<?xml version="1.0" encoding="UTF-8"?>
<svg width="84px" height="104px" viewBox="0 0 84 104" version="1.1" xmlns="http://www.w3.org/2000/svg" xmlns:xlink="http://www.w3.org/1999/xlink">
    <!-- Generator: Sketch 46 (44423) - http://www.bohemiancoding.com/sketch -->
    <title>healthcare-20</title>
    <desc>Created with Sketch.</desc>
    <defs></defs>
    <g id="ALL" stroke="none" stroke-width="1" fill="none" fill-rule="evenodd" stroke-linecap="round" stroke-linejoin="round">
        <g id="Secondary" transform="translate(-3039.000000, -7191.000000)" stroke="#868E96" stroke-width="3.5">
            <g id="healthcare-20" transform="translate(3041.000000, 7193.000000)">
                <path d="M18.3917359,72.1881654 C18.2175147,72.0710365 18.0442792,71.9525597 17.8720444,71.8327502 C16.1271628,72.8265985 14.1070651,73.3944954 11.954023,73.3944954 C5.35199839,73.3944954 0,68.0547722 0,61.4678899 C0,58.2394653 1.28569354,55.3106418 3.37410529,53.1632869 C1.78676669,48.8919767 0.91954023,44.2718025 0.91954023,39.4495413 C0.91954023,17.6621612 18.6223041,0 40.4597701,0 C62.2972361,0 80,17.6621612 80,39.4495413 C80,44.8444066 78.9145938,49.9863433 76.9497708,54.6698343 C78.2930722,56.5984086 79.0804598,58.941408 79.0804598,61.4678899 C79.0804598,68.0547722 73.7284614,73.3944954 67.1264368,73.3944954 C65.3940987,73.3944954 63.7478264,73.0268495 62.2617268,72.3654947 C62.1876979,72.4144015 62.1134944,72.4630663 62.0391175,72.511488 C62.9013156,73.244685 63.4482759,74.3362642 63.4482759,75.5521242 L63.4482759,91.4203528 C63.4482759,93.6253448 61.8307234,96.1977273 59.7547399,96.9195233 L43.9774982,99.0919453 C41.7807866,99.1278358 38.2051158,99.1441078 35.9990293,99.091153 L20.2274154,96.9141341 C18.1973872,96.0849945 16.5517241,93.6199763 16.5517241,91.4203528 L16.5517241,75.5521242 C16.5517241,74.1392529 17.2830113,72.8977932 18.3917359,72.1881654 L18.3917359,72.1881654 Z" id="Layer-1"></path>
                <path d="M23.908046,61.1704415 C28.9865264,61.1704415 33.1034483,57.4737101 33.1034483,52.9135608 C33.1034483,48.3534115 28.9865264,45.8715596 23.908046,45.8715596 C18.8295655,45.8715596 14.7126437,47.1366112 14.7126437,52.9135608 C14.7126437,58.6905103 18.8295655,61.1704415 23.908046,61.1704415 Z" id="Layer-2"></path>
                <path d="M55.1724138,61.1704415 C50.0939333,61.1704415 45.9770115,57.4737101 45.9770115,52.9135608 C45.9770115,48.3534115 50.0939333,45.8715596 55.1724138,45.8715596 C60.2508943,45.8715596 64.3678161,47.1366112 64.3678161,52.9135608 C64.3678161,58.6905103 60.2508943,61.1704415 55.1724138,61.1704415 L55.1724138,61.1704415 Z" id="Layer-3"></path>
                <path d="M37.5397996,66.0565078 C38.6446067,63.5222841 40.4349049,63.5201092 41.5406602,66.0565078 L44.8961214,73.7533163 C46.0009286,76.28754 44.8376241,77.4622101 42.300382,76.3781152 L44.1363996,77.1625958 C41.5980051,76.0780085 37.4813022,76.0785009 34.9440602,77.1625958 L36.7800777,76.3781152 C34.2416833,77.4627025 33.078583,76.289715 34.1843384,73.7533163 L37.5397996,66.0565078 Z" id="Layer-4"></path>
                <path d="M39.5402299,99.5412844 L39.5402299,88.0733945" id="Layer-5"></path>
                <path d="M51.4942529,97.706422 L51.4942529,86.2385321" id="Layer-6"></path>
                <path d="M28.5057471,97.706422 L28.5057471,86.2385321" id="Layer-7"></path>
            </g>
        </g>
    </g>
</svg>