<?xml version="1.0" encoding="UTF-8"?>
<svg width="104px" height="104px" viewBox="0 0 104 104" version="1.1" xmlns="http://www.w3.org/2000/svg" xmlns:xlink="http://www.w3.org/1999/xlink">
    <!-- Generator: Sketch 46 (44423) - http://www.bohemiancoding.com/sketch -->
    <title>healthcare-23</title>
    <desc>Created with Sketch.</desc>
    <defs></defs>
    <g id="ALL" stroke="none" stroke-width="1" fill="none" fill-rule="evenodd" stroke-linecap="round" stroke-linejoin="round">
        <g id="Secondary" transform="translate(-3883.000000, -7191.000000)" stroke="#868E96" stroke-width="3.5">
            <g id="healthcare-23" transform="translate(3885.000000, 7193.000000)">
                <path d="M0,10.0000638 C0,4.47718108 4.47473288,0 10.0000638,0 L89.9999362,0 C95.5228189,0 100,4.47473288 100,10.0000638 L100,89.9999362 C100,95.5228189 95.5252671,100 89.9999362,100 L10.0000638,100 C4.47718108,100 0,95.5252671 0,89.9999362 L0,10.0000638 L0,10.0000638 Z M6,10.0098467 C6,7.79526951 7.79771022,6 10.0098467,6 L89.9901533,6 C92.2047305,6 94,7.79771022 94,10.0098467 L94,89.9901533 C94,92.2047305 92.2022898,94 89.9901533,94 L10.0098467,94 C7.79526951,94 6,92.2022898 6,89.9901533 L6,10.0098467 L6,10.0098467 Z" id="Layer-1"></path>
                <polyline id="Layer-2" points="6.15576172 49.8564453 17.8777344 49.8564453 25.9636719 60.2788086 34.1050781 39.7314453 42.1804688 69.8398438 50 20 57.9765625 69.8398438 66.175 39.7314453 73.9941406 60.2788086 82.1882812 49.8564453 93.9262695 49.8564453"></polyline>
            </g>
        </g>
    </g>
</svg>