<?xml version="1.0" encoding="UTF-8"?>
<svg width="104px" height="97px" viewBox="0 0 104 97" version="1.1" xmlns="http://www.w3.org/2000/svg" xmlns:xlink="http://www.w3.org/1999/xlink">
    <!-- Generator: Sketch 46 (44423) - http://www.bohemiancoding.com/sketch -->
    <title>healthcare-38</title>
    <desc>Created with Sketch.</desc>
    <defs></defs>
    <g id="ALL" stroke="none" stroke-width="1" fill="none" fill-rule="evenodd" stroke-linecap="round" stroke-linejoin="round">
        <g id="Secondary" transform="translate(-8328.000000, -7192.000000)" stroke="#868E96" stroke-width="3.5">
            <g id="healthcare-38" transform="translate(8329.000000, 7193.000000)">
                <path d="M65.0063389,10.5088642 L59.1456996,16.3695035 C54.3651329,21.1500702 40.3777545,9.36741155 31.5610168,18.1841492 L4.77803137,44.9671346 C-0.26074554,50.0059115 -0.300258164,58.1446216 4.69517499,63.1400547 L18.2775601,76.7224399 L18.2775601,76.7224399 L31.8599453,90.304825 C36.8553784,95.3002582 44.9940885,95.2607455 50.0328654,90.2219686 L76.8158508,63.4389832 C85.6325884,54.6222455 73.8499298,40.6348671 78.6304965,35.8543004 L84.4911358,29.9936611 L65.0063389,10.5088642 L65.0063389,10.5088642 L65.0063389,10.5088642 Z" id="Layer-1"></path>
                <path d="M5.745166,44 L4.77803137,44.9671346 C-0.26074554,50.0059115 -0.300258164,58.1446216 4.69517499,63.1400547 L18.2775601,76.7224399 L18.2775601,76.7224399 L31.8599453,90.304825 C36.8553784,95.3002582 44.9940885,95.2607455 50.0328654,90.2219686 L76.8158508,63.4389832 C82.4358464,57.8189876 79.6861282,50.0981157 78.1914697,43.999994 L5.745166,44 L5.745166,44 Z" id="Layer-2"></path>
                <path d="M66.2632228,1.8667195 C67.4349245,0.69501786 69.3410959,0.701485583 70.5044419,1.86483162 L93.1351684,24.4955581 C94.3058274,25.6662171 94.3011983,27.5688594 93.1332805,28.7367772 L90.3053197,31.564738 C89.133618,32.7364396 87.2274466,32.7299719 86.0641006,31.5666259 L63.4333741,8.93589944 C62.2627151,7.76524044 62.2673442,5.86259815 63.435262,4.69468032 L66.2632228,1.8667195 L66.2632228,1.8667195 Z" id="Layer-3"></path>
                <path d="M92.5,67 C93.1840063,67 93.7472423,67.5255957 93.8201421,68.2011344 C93.8876902,68.6043311 94.3815017,71.3706949 95.6258926,74.0041797 C96.7941212,76.4764833 98.8189546,79.614618 99.3338013,80.400979 C100.380191,81.8208961 101,83.5843737 101,85.495 C101,90.1921818 97.2538826,94 92.6328125,94 C92.5884602,94 92.5441885,93.9996492 92.5,93.9989503 C92.4558115,93.9996492 92.4115398,94 92.3671875,94 C87.7461174,94 84,90.1921818 84,85.495 C84,83.5843737 84.6198094,81.8208961 85.6661987,80.400979 C86.1810454,79.614618 88.2058788,76.4764833 89.3741074,74.0041797 C90.6184983,71.3706949 91.1123098,68.6043311 91.1798579,68.2011344 C91.2527577,67.5255957 91.8159937,67 92.5,67 L92.5,67 Z" id="Layer-4"></path>
                <path d="M8.70679512,52.2133623 L72.7067951,52.2133623" id="Layer-5"></path>
                <path d="M15.7067951,64.2133623 L69.7067951,64.2133623" id="Layer-6"></path>
                <path d="M26.7067951,76.2133623 L60.7067951,76.2133623" id="Layer-7"></path>
                <path d="M37.7067951,86.2133623 L46.7067951,86.2133623" id="Layer-8"></path>
            </g>
        </g>
    </g>
</svg>