<?xml version="1.0" encoding="UTF-8"?>
<svg width="104px" height="104px" viewBox="0 0 104 104" version="1.1" xmlns="http://www.w3.org/2000/svg" xmlns:xlink="http://www.w3.org/1999/xlink">
    <!-- Generator: Sketch 46 (44423) - http://www.bohemiancoding.com/sketch -->
    <title>healthcare-11</title>
    <desc>Created with Sketch.</desc>
    <defs></defs>
    <g id="ALL" stroke="none" stroke-width="1" fill="none" fill-rule="evenodd" stroke-linecap="round" stroke-linejoin="round">
        <g id="Secondary" transform="translate(-416.000000, -7191.000000)" stroke="#868E96" stroke-width="3.5">
            <g id="healthcare-11" transform="translate(418.000000, 7193.000000)">
                <path d="M29.8681767,4.21737467 C34.9314513,-0.845899963 43.1377347,-0.84880671 48.1999092,4.21336775 L48.1999092,4.21336775 C53.2609709,9.27442943 53.2656849,17.4753177 48.1959023,22.5451003 L35.3705013,35.3705013 L17.0427757,17.0427757 L29.8681767,4.21737467 L29.8681767,4.21737467 Z" id="Layer-1"></path>
                <path d="M4.21737467,29.8681767 C-0.845899963,34.9314513 -0.84880671,43.1377347 4.21336775,48.1999092 L4.21336775,48.1999092 C9.27442943,53.2609709 17.4753177,53.2656849 22.5451003,48.1959023 L35.3705013,35.3705013 L17.0427757,17.0427757 L4.21737467,29.8681767 L4.21737467,29.8681767 Z" id="Layer-2"></path>
                <path d="M58.1886646,51.7421271 C53.12539,46.6788525 44.9191066,46.6759458 39.8569321,51.7381202 L39.8569321,51.7381202 C34.7958704,56.7991819 34.7911564,65.0000702 39.860939,70.0698528 L52.68634,82.8952538 L71.0140656,64.5675282 L58.1886646,51.7421271 L58.1886646,51.7421271 Z" id="Layer-3"></path>
                <path d="M83.8394666,77.3929292 C88.9027413,82.4562038 88.905648,90.6624872 83.8434736,95.7246617 L83.8434736,95.7246617 C78.7824119,100.785723 70.5815236,100.790437 65.511741,95.7206548 L52.68634,82.8952538 L71.0140656,64.5675282 L83.8394666,77.3929292 L83.8394666,77.3929292 Z" id="Layer-4"></path>
                <path d="M94.0714785,42.1470718 C86.1667832,50.0517671 73.3507399,50.0517671 65.4460446,42.1470718 C57.5413493,34.2423765 57.5413493,21.4263332 65.4460446,13.5216379 C73.3507399,5.61694257 86.1667832,5.61694257 94.0714785,13.5216379 C101.976174,21.4263332 101.976174,34.2423765 94.0714785,42.1470718 L94.0714785,42.1470718 Z" id="Layer-5"></path>
                <path d="M94.0714785,13.5216379 L65.4460446,42.1470718" id="Layer-6"></path>
            </g>
        </g>
    </g>
</svg>