<?xml version="1.0" encoding="UTF-8"?>
<svg width="94px" height="109px" viewBox="0 0 94 109" version="1.1" xmlns="http://www.w3.org/2000/svg" xmlns:xlink="http://www.w3.org/1999/xlink">
    <!-- Generator: Sketch 46 (44423) - http://www.bohemiancoding.com/sketch -->
    <title>healthcare-1</title>
    <desc>Created with Sketch.</desc>
    <defs></defs>
    <g id="ALL" stroke="none" stroke-width="1" fill="none" fill-rule="evenodd" stroke-linecap="round" stroke-linejoin="round">
        <g id="Secondary" transform="translate(-6999.000000, -6881.000000)" stroke="#868E96" stroke-width="3.5">
            <g id="healthcare-1" transform="translate(7001.000000, 6883.000000)">
                <path d="M50,27.2332208 C51.348064,27.0791575 52.7187997,27 54.1079681,27 C73.93059,27 90,43.117749 90,63 C90,72.6772803 86.1930649,81.4627286 79.9993636,87.931904 C79.9997872,87.9526197 80,87.9733864 80,87.9942021 L80,102.005798 C80,103.65945 78.6616553,105 77.0099126,105 L2.99008742,105 C1.33870774,105 0,103.656688 0,102.005798 L0,87.9942021 C0,86.3405499 1.33834472,85 2.99008742,85 L65.3220667,85 C73.2194098,80.9958524 78.6341899,72.7821732 78.6341899,63.3 C78.6341899,49.8794806 67.7873381,39 54.4070684,39 C52.9020493,39 51.4290827,39.1376456 49.9999993,39.4010706 L50,50 L30,50 L30,13.0065012 C30,11.3460564 31.343312,10 32.9942021,10 L50,10 L50,27.2332229 L50,27.2332208 Z" id="Layer-1"></path>
                <path d="M50,50 L50,56.5 C50,60.0898509 47.0918283,63 43.5065731,63 L36.4934269,63 C32.9072062,63 30,60.0825462 30,56.5 L30,50 L50,50 Z" id="Layer-2"></path>
                <rect id="Layer-3" x="40" y="0" width="10" height="10" rx="2"></rect>
                <path d="M20,78.0003297 C20,76.3432934 21.3423094,75 23.0065012,75 L56.9934988,75 C58.6539436,75 60,76.3486445 60,78.0003297 L60,85 L20,85 L20,78.0003297 Z" id="Layer-4"></path>
            </g>
        </g>
    </g>
</svg>