<?xml version="1.0" encoding="UTF-8"?>
<svg width="68px" height="104px" viewBox="0 0 68 104" version="1.1" xmlns="http://www.w3.org/2000/svg" xmlns:xlink="http://www.w3.org/1999/xlink">
    <!-- Generator: Sketch 46 (44423) - http://www.bohemiancoding.com/sketch -->
    <title>healthcare-22</title>
    <desc>Created with Sketch.</desc>
    <defs></defs>
    <g id="ALL" stroke="none" stroke-width="1" fill="none" fill-rule="evenodd" stroke-linecap="round" stroke-linejoin="round">
        <g id="Secondary" transform="translate(-3619.000000, -7191.000000)" stroke="#868E96" stroke-width="3.5">
            <g id="healthcare-22" transform="translate(3621.000000, 7193.000000)">
                <path d="M32,0 C34.5750825,0 36.6955003,1.94665089 36.9699467,4.44864589 C37.2242454,5.9419672 39.0833006,16.187759 43.7680664,25.9414062 C48.1661035,35.0980864 55.7890056,46.7208074 57.7272521,49.6332556 C61.6666001,54.8922077 64,61.4236065 64,68.5 C64,85.8969696 49.8969696,100 32.5,100 C32.3330267,100 32.1663569,99.9987009 32,99.9961121 C31.8336431,99.9987009 31.6669733,100 31.5,100 C14.1030304,100 0,85.8969696 0,68.5 C0,61.4236065 2.33339995,54.8922077 6.27274793,49.6332556 C8.21099439,46.7208074 15.8338965,35.0980864 20.2319336,25.9414062 C24.9166994,16.187759 26.7757546,5.9419672 27.0300533,4.44864589 C27.3044997,1.94665089 29.4249175,0 32,0 L32,0 Z" id="Layer-1"></path>
                <path d="M27.0750877,92 C18.4496742,89.3531863 11.9014036,83.2812167 9.9567655,75.8319509" id="Layer-2"></path>
            </g>
        </g>
    </g>
</svg>