<?xml version="1.0" encoding="UTF-8"?>
<svg width="104px" height="104px" viewBox="0 0 104 104" version="1.1" xmlns="http://www.w3.org/2000/svg" xmlns:xlink="http://www.w3.org/1999/xlink">
    <!-- Generator: Sketch 46 (44423) - http://www.bohemiancoding.com/sketch -->
    <title>healthcare-31</title>
    <desc>Created with Sketch.</desc>
    <defs></defs>
    <g id="ALL" stroke="none" stroke-width="1" fill="none" fill-rule="evenodd" stroke-linecap="round" stroke-linejoin="round">
        <g id="Secondary" transform="translate(-6282.000000, -7191.000000)" stroke="#868E96" stroke-width="3.5">
            <g id="healthcare-31" transform="translate(6284.000000, 7193.000000)">
                <path d="M46.0918831,46.0918831 C35.5477272,56.636039 18.4522728,56.636039 7.90811691,46.0918831 C-2.63603897,35.5477272 -2.63603897,18.4522728 7.90811691,7.90811691 C18.4522728,-2.63603897 35.5477272,-2.63603897 46.0918831,7.90811691 C56.636039,18.4522728 56.636039,35.5477272 46.0918831,46.0918831 L46.0918831,46.0918831 Z" id="Layer-1"></path>
                <path d="M45.6388089,7.56 L7.56,45.475614" id="Layer-2"></path>
                <path d="M99.5898093,77.6885008 C97.0004218,92.373647 82.9966454,102.179197 68.3114992,99.5898093 C53.626353,97.0004218 43.8208032,82.9966454 46.4101907,68.3114992 C48.9995782,53.626353 63.0033546,43.8208032 77.6885008,46.4101907 C92.373647,48.9995782 102.179197,63.0033546 99.5898093,77.6885008 L99.5898093,77.6885008 L99.5898093,77.6885008 Z" id="Layer-3"></path>
                <path d="M77.1176925,46.3849027 L67.6728611,99.2846629" id="Layer-4"></path>
            </g>
        </g>
    </g>
</svg>