<?xml version="1.0" encoding="UTF-8"?>
<svg width="76px" height="114px" viewBox="0 0 76 114" version="1.1" xmlns="http://www.w3.org/2000/svg" xmlns:xlink="http://www.w3.org/1999/xlink">
    <!-- Generator: Sketch 46 (44423) - http://www.bohemiancoding.com/sketch -->
    <title>healthcare-4</title>
    <desc>Created with Sketch.</desc>
    <defs></defs>
    <g id="ALL" stroke="none" stroke-width="1" fill="none" fill-rule="evenodd" stroke-linecap="round" stroke-linejoin="round">
        <g id="Secondary" transform="translate(-7869.000000, -6881.000000)" stroke="#868E96" stroke-width="3.5">
            <g id="healthcare-4" transform="translate(7871.000000, 6883.000000)">
                <path d="M62.7963445,110 C78.0881196,110 62.7963446,85 62.7963445,85 C62.7963444,85 47.5045694,110 62.7963445,110 Z" id="Layer-1"></path>
                <path d="M58.454722,49.5905421 C55.1434242,29.6426247 46.2992603,0 35.9090909,0 C25.5189215,0 16.6747576,29.6426247 13.3634598,49.5905421 C12.9062314,49.5307408 12.4411472,49.5 11.969697,49.5 C5.35901587,49.5 0,55.5441559 0,63 C0,70.4558441 5.35901587,76.5 11.969697,76.5 C13.0065626,76.5 14.012636,76.3513078 14.9720686,76.0717982 C19.0587074,84.3790944 26.9031417,90 35.9090909,90 C44.9150401,90 52.7594744,84.3790944 56.8461132,76.0717982 C57.8055459,76.3513078 58.8116193,76.5 59.8484848,76.5 C66.4591659,76.5 71.8181818,70.4558441 71.8181818,63 C71.8181818,55.5441559 66.4591659,49.5 59.8484848,49.5 C59.3770346,49.5 58.9119504,49.5307408 58.454722,49.5905421 L58.454722,49.5905421 Z" id="Layer-2"></path>
                <path d="M11.969697,62.9418673 C11.969697,77.8856613 22.6877287,90 35.9090909,90 L35.9090909,90 C49.1304531,90 59.8484848,77.8856613 59.8484848,62.9418673" id="Layer-3"></path>
            </g>
        </g>
    </g>
</svg>