<?xml version="1.0" encoding="UTF-8"?>
<svg width="114px" height="104px" viewBox="0 0 114 104" version="1.1" xmlns="http://www.w3.org/2000/svg" xmlns:xlink="http://www.w3.org/1999/xlink">
    <!-- Generator: Sketch 46 (44423) - http://www.bohemiancoding.com/sketch -->
    <title>healthcare-30</title>
    <desc>Created with Sketch.</desc>
    <defs></defs>
    <g id="ALL" stroke="none" stroke-width="1" fill="none" fill-rule="evenodd" stroke-linecap="round" stroke-linejoin="round">
        <g id="Secondary" transform="translate(-5972.000000, -7191.000000)" stroke="#868E96" stroke-width="3.5">
            <g id="healthcare-30" transform="translate(5974.000000, 7193.000000)">
                <path d="M40,0 L40,7" id="Layer-1"></path>
                <path d="M54.9497475,5 L50,9.94974747" id="Layer-2"></path>
                <path d="M25,5 L29.9497475,9.94974747" id="Layer-3"></path>
                <path d="M0,70 L0,37.9984599 C0,33.5810325 3.57965805,30 7.99578523,30 L62.0042148,30 C66.420165,30 70,33.5849353 70,37.9984599 L70,70 L70,90 L31,90 C31,84.4771525 26.5228475,80 21,80 C15.4771525,80 11,84.4771525 11,90 L5.99842118,90 C2.67986017,90 0,87.3134132 0,83.9993405 L0,70 L0,70 Z" id="Layer-4"></path>
                <path d="M25,60 L45,60" id="Layer-5"></path>
                <path d="M35,50 L35,70" id="Layer-6"></path>
                <path d="M100,90 L106.993499,90 C108.657691,90 110,88.6609946 110,87.0092478 L110,67.9907522 C110,66.3441086 109.155648,63.957052 108.114087,62.6705105 L91.6463631,42.3294895 C90.6043507,41.0423902 88.4167731,40 86.7592633,40 L70,40 L70,53.109375 L70,90 L80,90 C80,84.4771525 84.4771525,80 90,80 C95.5228475,80 100,84.4771525 100,90 L100,90 Z" id="Layer-7"></path>
                <path d="M80,53.0056033 C80,51.3456544 81.3500634,50 83.0016477,50 L97.5771484,50 L110,64.8652344 L110,67.9570312 L83.0000191,67.9570312 C81.3431543,67.9570312 80,66.6073354 80,64.951428 L80,53.0056033 Z" id="Layer-8"></path>
                <circle id="Layer-9" cx="21" cy="90" r="10"></circle>
                <circle id="Layer-10" cx="90" cy="90" r="10"></circle>
                <path d="M34.6305771,17 L45.3693211,17 C46.1064165,17 46.8667679,17.583838 47.0648185,18.2940168 L49.9684481,28.7059832 C50.1677501,29.4206489 49.4015196,30 48.2729508,30 L31.7269475,30 C30.5912482,30 29.8333995,29.416162 30.0314501,28.7059832 L32.9350798,18.2940168 C33.1343817,17.5793511 33.8981095,17 34.6305771,17 Z" id="Layer-11"></path>
            </g>
        </g>
    </g>
</svg>