<?xml version="1.0" encoding="UTF-8"?>
<svg width="112px" height="94px" viewBox="0 0 112 94" version="1.1" xmlns="http://www.w3.org/2000/svg" xmlns:xlink="http://www.w3.org/1999/xlink">
    <!-- Generator: Sketch 46 (44423) - http://www.bohemiancoding.com/sketch -->
    <title>healthcare-14</title>
    <desc>Created with Sketch.</desc>
    <defs></defs>
    <g id="ALL" stroke="none" stroke-width="1" fill="none" fill-rule="evenodd" stroke-linecap="round" stroke-linejoin="round">
        <g id="Secondary" transform="translate(-1257.000000, -7191.000000)" stroke="#868E96" stroke-width="3.5">
            <g id="healthcare-14" transform="translate(1259.000000, 7193.000000)">
                <path d="M53.5985297,11.7189349 C47.6830998,11.7371351 37.3864471,10.1471133 37.3864471,10.1471133 C28.6020605,8.98255486 22.7160332,15.1119208 24.2403086,23.8412807 L27.1845323,40.7025304 C27.6762687,43.5186512 28.8803687,46.0727669 30.5820083,48.2068849 C30.5339271,51.2488646 30.4748298,59.7661128 31.1130581,67.879097 C31.7889811,76.4712443 33.3896743,84.5705556 33.8574838,85.9627854 C34.9474129,89.2064808 39.8411159,92.2657319 41.872775,87.6461155 C43.7047026,83.4806516 42.9505502,76.0176733 44.0051938,68.4895367 C45.0598373,60.9614 50.087762,55.6151865 53.5985297,55.6151865 L54.4014703,55.6100096 C57.912238,55.6100096 62.9401627,60.9562232 63.9948062,68.4843598 C65.0494498,76.0124965 64.2952974,83.4754748 66.127225,87.6409387 C68.1588841,92.260555 73.0525871,89.2013039 74.1425162,85.9576085 C74.6103257,84.5653787 76.2110189,76.4660674 76.8869419,67.8739201 C77.5251702,59.760936 77.4660729,51.2436877 77.4179917,48.201708 C79.1196313,46.0675901 80.3237313,43.5134744 80.8154677,40.6973535 L83.7596914,23.8361039 C85.2839668,15.1067439 79.3979395,8.97737801 70.6135529,10.1419364 C70.6135529,10.1419364 60.3169002,11.7319583 54.4014703,11.7319583 C54.3178498,11.7266216 54.2355754,11.7287824 54.1547128,11.7305822 C53.9770134,11.7286539 53.7913501,11.7247224 53.5985297,11.7189349 Z" id="Layer-1"></path>
                <path d="M94,7.07106781 L101.071068,0" id="Layer-2"></path>
                <path d="M94,33 L102.071068,40.0710678" id="Layer-3"></path>
                <path d="M98,20 L108,20" id="Layer-4"></path>
                <path d="M14,7.07106781 L6.92893219,0" id="Layer-5"></path>
                <path d="M14,33 L5.92893219,40.0710678" id="Layer-6"></path>
                <path d="M10,20 L0,20" id="Layer-7"></path>
            </g>
        </g>
    </g>
</svg>