<?xml version="1.0" encoding="UTF-8"?>
<svg width="104px" height="106px" viewBox="0 0 104 106" version="1.1" xmlns="http://www.w3.org/2000/svg" xmlns:xlink="http://www.w3.org/1999/xlink">
    <!-- Generator: Sketch 46 (44423) - http://www.bohemiancoding.com/sketch -->
    <title>healthcare-8</title>
    <desc>Created with Sketch.</desc>
    <defs></defs>
    <g id="ALL" stroke="none" stroke-width="1" fill="none" fill-rule="evenodd" stroke-linecap="round" stroke-linejoin="round">
        <g id="Secondary" transform="translate(-9015.000000, -6881.000000)" stroke="#868E96" stroke-width="3.5">
            <g id="healthcare-8" transform="translate(9017.000000, 6883.000000)">
                <path d="M26.25,48.5126563 L26.25,50.0020413 C34.4189603,50.1355305 41,56.7992232 41,65 C41,73.2007768 34.4189603,79.8644695 26.25,79.9979587 C26.2025184,80 26.1550663,79.9998738 26.1076439,79.9996218 C26.0717924,79.9998738 26.0359109,80 26,80 C25.7405176,80 25.4825741,79.9934113 25.2263276,79.980392 C11.20331,79.4422742 0,67.8961101 0,53.7496194 L0,26.2503806 C0,12.0948232 11.2013411,0.556226996 25.2281216,0.0195169149 C25.483778,0.00655799417 25.7411231,0 26,0 C26.035899,0 26.0717685,0.000126109801 26.1076082,0.000377910559 C26.1550424,0.000126075682 26.2025064,0 26.25,0 C34.4189603,0.135530536 41,6.79922317 41,15 C41,23.2007768 34.4189603,29.8644695 26.25,29.9979587 L26.25,31.4873437 C29.1005995,33.2491328 31,36.402752 31,40 C31,43.597248 29.1005995,46.7508672 26.25,48.5126563 L26.25,48.5126563 Z" id="Layer-1"></path>
                <path d="M73.75,48.5126563 L73.75,50.0020413 C65.5810397,50.1355305 59,56.7992232 59,65 C59,73.2007768 65.5810397,79.8644695 73.75,79.9979587 C73.7974816,80 73.8449337,79.9998738 73.8923561,79.9996218 C73.9282076,79.9998738 73.9640891,80 74,80 C74.2594824,80 74.5174259,79.9934113 74.7736724,79.980392 C88.79669,79.4422742 100,67.8961101 100,53.7496194 L100,26.2503806 C100,12.0948232 88.7986589,0.556226996 74.7718784,0.0195169149 C74.516222,0.00655799417 74.2588769,0 74,0 C73.964101,0 73.9282315,0.000126109801 73.8923918,0.000377910559 C73.8449576,0.000126075682 73.7974936,0 73.75,0 C65.5810397,0.135530536 59,6.79922317 59,15 C59,23.2007768 65.5810397,29.8644695 73.75,29.9979587 L73.75,31.4873437 C70.8994005,33.2491328 69,36.402752 69,40 C69,43.597248 70.8994005,46.7508672 73.75,48.5126563 L73.75,48.5126563 Z" id="Layer-2"></path>
                <path d="M50,60 C50,48.954305 57.9518764,40 69,40" id="Layer-3"></path>
                <path d="M50,60 C50,48.954305 42.0481236,40 31,40" id="Layer-4"></path>
                <path d="M50,59.5 L50,101.5" id="Layer-5"></path>
            </g>
        </g>
    </g>
</svg>