<?xml version="1.0" encoding="UTF-8"?>
<svg width="104px" height="78px" viewBox="0 0 104 78" version="1.1" xmlns="http://www.w3.org/2000/svg" xmlns:xlink="http://www.w3.org/1999/xlink">
    <!-- Generator: Sketch 46 (44423) - http://www.bohemiancoding.com/sketch -->
    <title>holidays-13</title>
    <desc>Created with Sketch.</desc>
    <defs></defs>
    <g id="ALL" stroke="none" stroke-width="1" fill="none" fill-rule="evenodd" stroke-linecap="round" stroke-linejoin="round">
        <g id="Secondary" transform="translate(-3288.000000, -7501.000000)" stroke="#868E96" stroke-width="3.5">
            <g id="holidays-13" transform="translate(3290.000000, 7503.000000)">
                <path d="M45.1308345,38.5767489 C40.8000318,44.5531003 32.1632395,54.8255819 21.2837139,59.2893973 C8.07856195,63.9522811 -0.0916459933,49.8384609 0.000775906565,29.9023075 C0.0931978064,9.9661541 8.07783139,-3.74923391 21.2837139,0.913907852 C32.0897515,5.34757141 40.6830686,15.29671 45.0421872,21.1537122 C42.0299114,22.8766695 39.9999648,26.1213637 39.9999648,29.8401774 C39.9999648,33.5953554 42.0698051,36.8670963 45.1308345,38.5767489 L45.1308345,38.5767489 Z" id="Layer-1"></path>
                <path d="M55,38.498936 C59.3444063,44.4352735 67.9606948,54.579613 78.8053723,59.0291303 C92.0105243,63.6920141 100.180732,49.6489998 100.08831,29.8051288 C99.9958884,9.96125777 92.0112548,-3.74875938 78.8053723,0.91438238 C68.0282148,5.33619662 59.4519661,15.1986926 55.08194,21.032897 C58.1170837,22.7497056 60.1657117,26.0071093 60.1657117,29.7429957 C60.1657117,33.512404 58.0801543,36.7947042 55,38.498936 L55,38.498936 Z" id="Layer-2"></path>
                <circle id="Layer-3" cx="50" cy="30" r="10"></circle>
                <path d="M59.5,26.5 C59.5,26.5 63.7083471,24.2468643 65.8857422,23.5820312 C67.5468887,23.0748265 70.9287109,22.8374023 70.9287109,22.8374023" id="Layer-4"></path>
                <path d="M59.5,33.8374023 C59.5,33.8374023 63.7083471,36.0905381 65.8857422,36.7553711 C67.5468887,37.2625758 70.9287109,37.5 70.9287109,37.5" id="Layer-5"></path>
                <path d="M40.5,26.5 C40.5,26.5 36.2916529,24.2468643 34.1142578,23.5820312 C32.4531113,23.0748265 29.0712891,22.8374023 29.0712891,22.8374023" id="Layer-6"></path>
                <path d="M40.5,33.8374023 C40.5,33.8374023 36.2916529,36.0905381 34.1142578,36.7553711 C32.4531113,37.2625758 29.0712891,37.5 29.0712891,37.5" id="Layer-7"></path>
                <path d="M31.6202202,73.6231942 C33.1511066,74.6951324 37.8680457,70.5999954 42.1557985,64.4764497 C46.4435514,58.3529041 47.1475468,51.4478736 47.1475468,51.4478736 C47.1475468,51.4478736 40.8997213,54.4710724 36.6119684,60.5946181 C32.3242156,66.7181638 30.0893338,72.551256 31.6202202,73.6231942 L31.6202202,73.6231942 Z" id="Layer-8"></path>
                <path d="M68.1475468,73.6231942 C66.6166604,74.6951324 61.8997213,70.5999954 57.6119684,64.4764497 C53.3242156,58.3529041 52.6202202,51.4478736 52.6202202,51.4478736 C52.6202202,51.4478736 58.8680457,54.4710724 63.1557985,60.5946181 C67.4435514,66.7181638 69.6784332,72.551256 68.1475468,73.6231942 L68.1475468,73.6231942 Z" id="Layer-9"></path>
            </g>
        </g>
    </g>
</svg>