<?xml version="1.0" encoding="UTF-8"?>
<svg width="103px" height="103px" viewBox="0 0 103 103" version="1.1" xmlns="http://www.w3.org/2000/svg" xmlns:xlink="http://www.w3.org/1999/xlink">
    <!-- Generator: Sketch 46 (44423) - http://www.bohemiancoding.com/sketch -->
    <title>holidays-8</title>
    <desc>Created with Sketch.</desc>
    <defs></defs>
    <g id="ALL" stroke="none" stroke-width="1" fill="none" fill-rule="evenodd" stroke-linecap="round" stroke-linejoin="round">
        <g id="Secondary" transform="translate(-1824.000000, -7501.000000)" stroke="#868E96" stroke-width="3.5">
            <g id="holidays-8" transform="translate(1825.000000, 7503.000000)">
                <path d="M50.4950491,2.20885497 C33.6233083,-0.564724501 18.6727421,-0.529091439 6.29299469,1.22338047 C4.41370534,1.48941189 2.75539286,1.77674798 1.32856185,2.06737762 C1.21140377,2.09124142 1.098575,2.11454471 0.99009901,2.13724729 L0.99009901,10.3506159 L0.99009901,41.2425702 L0.99009901,49.3987424 L2.56854201,48.9868411 C2.73281967,48.9439722 3.15603685,48.8454078 3.82738913,48.7086608 C5.01156243,48.4674578 6.42263342,48.2229613 8.04983282,47.9926156 C19.4576375,46.3777315 33.4785738,46.3777315 49.4420519,49.0999561 C49.793875,49.1599519 50.1448762,49.2187278 50.4950499,49.2762935 L50.4950495,2.20884457 L50.4950491,2.20885497 Z" id="Layer-1" fill-rule="nonzero"></path>
                <path d="M50.4950495,13.6327291 C67.3667905,16.4063087 82.3173568,16.3706756 94.6971043,14.6182037 C96.5763937,14.3521723 98.2347062,14.0648362 99.6615372,13.7742065 C99.7786952,13.7503427 99.891524,13.7270394 100,13.7043369 L100,2.08640607 L98.421557,2.49830741 C98.2572793,2.54117636 97.8340622,2.63974074 97.1627099,2.77648775 C95.9785366,3.01769071 94.5674656,3.26218722 92.9402662,3.49253289 C81.5324615,5.107417 67.5115252,5.107417 51.5480471,2.38519239 C51.196224,2.32519661 50.8452228,2.26642072 50.4950491,2.20885497 L50.4950495,13.6327291 L50.4950495,13.6327291 Z" id="Layer-2" fill-rule="nonzero"></path>
                <path d="M50.4950499,25.5139173 C67.3667907,28.2874968 82.3173569,28.2518637 94.6971043,26.4993918 C96.5763937,26.2333604 98.2347062,25.9460243 99.6615372,25.6553947 C99.7786952,25.6315309 99.891524,25.6082276 100,25.585525 L100,13.9675942 L98.421557,14.3794955 C98.2572793,14.4223645 97.8340622,14.5209289 97.1627099,14.6576759 C95.9785366,14.8988788 94.5674656,15.1433753 92.9402662,15.373721 C81.5324615,16.9886051 67.5115252,16.9886051 51.5480471,14.2663805 C51.196224,14.2063847 50.8452228,14.1476088 50.4950491,14.0900431 L50.4950495,25.5139277 L50.4950499,25.5139173 Z" id="Layer-3" fill-rule="nonzero"></path>
                <path d="M50.4950499,37.3951054 C67.3667907,40.1686849 82.3173569,40.1330518 94.6971043,38.3805799 C96.5763937,38.1145485 98.2347062,37.8272124 99.6615372,37.5365828 C99.7786952,37.512719 99.891524,37.4894157 100,37.4667131 L100,25.8487823 L98.421557,26.2606837 C98.2572793,26.3035526 97.8340622,26.402117 97.1627099,26.538864 C95.9785366,26.7800669 94.5674656,27.0245635 92.9402662,27.2549091 C81.5324615,28.8697932 67.5115252,28.8697932 51.5480471,26.1475686 C51.196224,26.0875728 50.8452228,26.028797 50.4950491,25.9712312 L50.4950495,37.3951158 L50.4950499,37.3951054 Z" id="Layer-4" fill-rule="nonzero"></path>
                <path d="M50.4950499,49.2762935 C67.3667907,52.049873 82.3173569,52.01424 94.6971043,50.261768 C96.5763937,49.9957366 98.2347062,49.7084005 99.6615372,49.4177709 C99.7786952,49.3939071 99.891524,49.3706038 100,49.3479012 L100,37.7299704 L98.421557,38.1418718 C98.2572793,38.1847407 97.8340622,38.2833051 97.1627099,38.4200521 C95.9785366,38.6612551 94.5674656,38.9057516 92.9402662,39.1360972 C81.5324615,40.7509814 67.5115252,40.7509814 51.5480471,38.0287567 C51.196224,37.968761 50.8452228,37.9099851 50.4950491,37.8524193 L50.4950495,49.2763039 L50.4950499,49.2762935 Z" id="Layer-5" fill-rule="nonzero"></path>
                <path d="M0.99009901,60.2898316 L2.56854201,59.8779302 C2.73281967,59.8350613 3.15603685,59.7364969 3.82738913,59.5997499 C5.01156243,59.3585469 6.42263342,59.1140504 8.04983282,58.8837047 C19.4576375,57.2688206 33.4785738,57.2688206 49.4420519,59.9910452 C66.7450841,62.9417017 82.0604148,62.9417017 94.6971043,61.1528572 C96.5763937,60.8868257 98.2347062,60.5994896 99.6615372,60.30886 C99.7786952,60.2849962 99.891524,60.2616929 100,60.2389903 L100,48.6210595 L98.421557,49.0329609 C98.2572793,49.0758298 97.8340622,49.1743942 97.1627099,49.3111412 C95.9785366,49.5523442 94.5674656,49.7968407 92.9402662,50.0271864 C81.5324615,51.6420705 67.5115252,51.6420705 51.5480471,48.9198459 C34.245015,45.9691894 18.9296843,45.9691894 6.29299469,47.7580339 C4.41370534,48.0240654 2.75539286,48.3114014 1.32856185,48.6020311 C1.21140377,48.6258949 1.098575,48.6491982 0.99009901,48.6719008 L0.99009901,60.2898316 L0.99009901,60.2898316 Z" id="Layer-6" fill-rule="nonzero"></path>
                <path d="M0.99009901,72.1710197 L2.56854201,71.7591183 C2.73281967,71.7162494 3.15603685,71.617685 3.82738913,71.480938 C5.01156243,71.239735 6.42263342,70.9952385 8.04983282,70.7648929 C19.4576375,69.1500087 33.4785738,69.1500087 49.4420519,71.8722333 C66.7450841,74.8228898 82.0604148,74.8228898 94.6971043,73.0340453 C96.5763937,72.7680139 98.2347062,72.4806778 99.6615372,72.1900481 C99.7786952,72.1661843 99.891524,72.142881 100,72.1201785 L100,60.5022477 L98.421557,60.914149 C98.2572793,60.9570179 97.8340622,61.0555823 97.1627099,61.1923293 C95.9785366,61.4335323 94.5674656,61.6780288 92.9402662,61.9083745 C81.5324615,63.5232586 67.5115252,63.5232586 51.5480471,60.801034 C34.245015,57.8503775 18.9296843,57.8503775 6.29299469,59.6392221 C4.41370534,59.9052535 2.75539286,60.1925896 1.32856185,60.4832192 C1.21140377,60.507083 1.098575,60.5303863 0.99009901,60.5530889 L0.99009901,72.1710197 L0.99009901,72.1710197 Z" id="Layer-7" fill-rule="nonzero"></path>
                <path d="M0.99009901,83.0621088 L2.56854201,82.6502074 C2.73281967,82.6073385 3.15603685,82.5087741 3.82738913,82.3720271 C5.01156243,82.1308241 6.42263342,81.8863276 8.04983282,81.655982 C19.4576375,80.0410979 33.4785738,80.0410979 49.4420519,82.7633225 C66.7450841,85.7139789 82.0604148,85.7139789 94.6971043,83.9251344 C96.5763937,83.659103 98.2347062,83.3717669 99.6615372,83.0811372 C99.7786952,83.0572734 99.891524,83.0339701 100,83.0112676 L100,71.3933368 L98.421557,71.8052381 C98.2572793,71.8481071 97.8340622,71.9466714 97.1627099,72.0834184 C95.9785366,72.3246214 94.5674656,72.5691179 92.9402662,72.7994636 C81.5324615,74.4143477 67.5115252,74.4143477 51.5480471,71.6921231 C34.245015,68.7414666 18.9296843,68.7414666 6.29299469,70.5303112 C4.41370534,70.7963426 2.75539286,71.0836787 1.32856185,71.3743083 C1.21140377,71.3981721 1.098575,71.4214754 0.99009901,71.444178 L0.99009901,83.0621088 L0.99009901,83.0621088 Z" id="Layer-8" fill-rule="nonzero"></path>
                <path d="M0.99009901,83.6553915 L0.99009901,99.0248992" id="Layer-9"></path>
            </g>
        </g>
    </g>
</svg>