<?xml version="1.0" encoding="UTF-8"?>
<svg width="64px" height="104px" viewBox="0 0 64 104" version="1.1" xmlns="http://www.w3.org/2000/svg" xmlns:xlink="http://www.w3.org/1999/xlink">
    <!-- Generator: Sketch 46 (44423) - http://www.bohemiancoding.com/sketch -->
    <title>holidays-4</title>
    <desc>Created with Sketch.</desc>
    <defs></defs>
    <g id="ALL" stroke="none" stroke-width="1" fill="none" fill-rule="evenodd" stroke-linecap="round" stroke-linejoin="round">
        <g id="Secondary" transform="translate(-721.000000, -7501.000000)" stroke="#868E96" stroke-width="3.5">
            <g id="holidays-4" transform="translate(723.000000, 7503.000000)">
                <path d="M18.6035156,13.0836386 L9.58813169,2.78132385 C6.69839968,7.66380776 5,13.62834 5,20.0678151 C5,36.5989044 16.1928813,50 30,50 C43.8071187,50 55,36.5989044 55,20.0678151 C55,13.9303157 53.4571565,8.22425927 50.8104938,3.4752842 L41.418457,13.0836386 L30,2.7692834e-17 L18.6035156,13.0836386 Z" id="Layer-1"></path>
                <path d="M30,50.4974754 L30,100.012497" id="Layer-2"></path>
                <path d="M7.79854346,81.3956304 C15.8602919,89.4573789 29.6941738,88.6941738 29.6941738,88.6941738 C29.6941738,88.6941738 30.4573789,74.8602919 22.3956304,66.7985435 C14.3338819,58.736795 0.5,59.5 0.5,59.5 C0.5,59.5 -0.263205037,73.3338819 7.79854346,81.3956304 L7.79854346,81.3956304 Z" id="Layer-3"></path>
                <path d="M52.2220869,81.3997564 C44.164896,89.4569474 30.3388348,88.6941738 30.3388348,88.6941738 C30.3388348,88.6941738 29.5760612,74.8681126 37.6332521,66.8109217 C45.6904431,58.7537307 59.5165043,59.5165043 59.5165043,59.5165043 C59.5165043,59.5165043 60.2792779,73.3425655 52.2220869,81.3997564 L52.2220869,81.3997564 Z" id="Layer-4"></path>
            </g>
        </g>
    </g>
</svg>