<?xml version="1.0" encoding="UTF-8"?>
<svg width="104px" height="94px" viewBox="0 0 104 94" version="1.1" xmlns="http://www.w3.org/2000/svg" xmlns:xlink="http://www.w3.org/1999/xlink">
    <!-- Generator: Sketch 46 (44423) - http://www.bohemiancoding.com/sketch -->
    <title>holidays-36</title>
    <desc>Created with Sketch.</desc>
    <defs></defs>
    <g id="ALL" stroke="none" stroke-width="1" fill="none" fill-rule="evenodd" stroke-linecap="round" stroke-linejoin="round">
        <g id="Secondary" transform="translate(-701.000000, -7802.000000)" stroke="#868E96" stroke-width="3.5">
            <g id="holidays-36" transform="translate(703.000000, 7804.000000)">
                <path d="M50,75 L25,75 L0,50 C0,22.3857625 22.3857625,0 50,0 L50,47 C42.2680135,47 36,53.2680135 36,61 C36,68.7319865 42.2680135,75 50,75 L50,75 Z" id="Layer-1"></path>
                <path d="M36.2015462,58.6196147 C26.750274,36.3234653 16.0217213,13.3181072 15.8394153,13.4887464 C6.0916474,22.6126992 0,35.5949593 0,50 L25,75 L42.9306641,74.9999985 C42.59652,74.1527868 42.2550292,73.293957 41.9070371,72.4252166 C38.3325364,69.8886523 36,65.7167227 36,61 C36,60.1885639 36.069033,59.3932512 36.2015462,58.6196147 L36.2015462,58.6196147 Z" id="Layer-2"></path>
                <path d="M50,75 L75,75 L100,50 C100,22.3857625 77.6142375,0 50,0 L50,47 C57.7319865,47 64,53.2680135 64,61 C64,68.7319865 57.7319865,75 50,75 L50,75 Z" id="Layer-3"></path>
                <path d="M63.7984538,58.6196147 C73.249726,36.3234653 83.9782787,13.3181072 84.1605847,13.4887464 C93.9083526,22.6126992 100,35.5949593 100,50 L75,75 L57.0693359,74.9999985 C57.40348,74.1527868 57.7449708,73.293957 58.0929629,72.4252166 C61.6674636,69.8886523 64,65.7167227 64,61 C64,60.1885639 63.930967,59.3932512 63.7984538,58.6196147 L63.7984538,58.6196147 Z" id="Layer-4"></path>
                <circle id="Layer-5" cx="50" cy="61" r="14"></circle>
                <path d="M0,75 L100,75 L100,82.5 C100,86.6421356 96.6442265,90 92.5042071,90 L7.49579291,90 C3.3559808,90 0,86.6337072 0,82.5 L0,75 Z" id="Layer-6"></path>
            </g>
        </g>
    </g>
</svg>