<?xml version="1.0" encoding="UTF-8"?>
<svg width="100px" height="104px" viewBox="0 0 100 104" version="1.1" xmlns="http://www.w3.org/2000/svg" xmlns:xlink="http://www.w3.org/1999/xlink">
    <!-- Generator: Sketch 46 (44423) - http://www.bohemiancoding.com/sketch -->
    <title>holidays-43</title>
    <desc>Created with Sketch.</desc>
    <defs></defs>
    <g id="ALL" stroke="none" stroke-width="1" fill="none" fill-rule="evenodd" stroke-linecap="round" stroke-linejoin="round">
        <g id="Secondary" transform="translate(-2720.000000, -7802.000000)" stroke="#868E96" stroke-width="3.5">
            <g id="holidays-43" transform="translate(2722.000000, 7804.000000)">
                <path d="M40,59.4095102 L28.0212635,59.4095102 L20.657725,32.7581686 L7.73829483,54.3070683 L0,51.0189837 L12.9754334,4.95314303 L12.8096504,4.35311364 L33.9143035,1.70530257e-13 C33.9929403,7.70259402 40.2615094,13.9224464 47.9828256,13.9224464 C47.9885512,13.9224464 47.994276,13.922443 48,13.9224361 L48,13.9224366 C55.7384906,13.9224464 62.0070597,7.70259402 62.0856965,5.68434189e-14 L83.1903496,4.35311364 L83.0245666,4.95314303 L96,51.0189837 L88.2617052,54.3070683 L75.342275,32.7581686 L67.9787365,59.4095102 L56,59.4095102 L56,57.0033309 C56,53.6780403 53.3122172,51 49.9966691,51 L46.0033309,51 C42.6780403,51 40,53.6877828 40,57.0033309 L40,59.4095102 L40,59.4095102 Z" id="Layer-1"></path>
                <path d="M40,58.7189622 C32.7786007,59.1646781 28,60 28,60 C18.0087891,80.3847659 11.5370732,100 11.5370732,100 C11.5370732,100 24.03125,100 47.9999981,99.9999983 C71.9687462,99.9999966 84.4629268,100 84.4629268,100 C84.4629268,100 77.8027363,80.8281252 68,60 C63.944412,59.2910643 59.8888241,58.8696436 56,58.6482849 L56,60.9966691 C56,64.3122172 53.3219597,67 49.9966691,67 L46.0033309,67 C42.6877828,67 40,64.3219597 40,60.9966691 L40,58.7189622 L40,58.7189622 Z" id="Layer-2"></path>
                <path d="M23,41 L19,27" id="Layer-3"></path>
                <path d="M73,41 L77,27" id="Layer-4"></path>
                <rect id="Layer-5" x="40" y="51" width="16" height="16" rx="6"></rect>
            </g>
        </g>
    </g>
</svg>