<?xml version="1.0" encoding="UTF-8"?>
<svg width="104px" height="104px" viewBox="0 0 104 104" version="1.1" xmlns="http://www.w3.org/2000/svg" xmlns:xlink="http://www.w3.org/1999/xlink">
    <!-- Generator: Sketch 46 (44423) - http://www.bohemiancoding.com/sketch -->
    <title>holidays-11</title>
    <desc>Created with Sketch.</desc>
    <defs></defs>
    <g id="ALL" stroke="none" stroke-width="1" fill="none" fill-rule="evenodd" stroke-linecap="round" stroke-linejoin="round">
        <g id="Secondary" transform="translate(-2688.000000, -7501.000000)" stroke="#868E96" stroke-width="3.5">
            <g id="holidays-11" transform="translate(2690.000000, 7503.000000)">
                <path d="M64.2773036,94.9347451 C65.1354652,97.8685402 69.6762403,99.8990376 77.6553178,99.014373 C87.3777253,97.9364201 98.1721446,78.5624962 99.9041495,54.921222 C100.552215,46.0753535 98.1774472,27.3515659 84.609726,25.4233892 C75.7805019,24.4906724 77.4362091,26.3503936 77.3827716,26.5056999 C77.3092589,23.3275367 70.6661933,20.4081633 64.620167,20.4081633 C58.5741408,20.4081633 50.2272486,22.9841497 50.2272486,26.16179 C50.2119653,25.9734906 49.7880347,25.9734906 49.7727514,26.16179 C49.7727514,22.9841497 41.4258592,20.4081633 35.379833,20.4081633 C29.3338067,20.4081633 22.6907411,23.3275367 22.6172284,26.5056999 C22.5637909,26.3503936 24.2194981,24.4906724 15.390274,25.4233892 C1.82255279,27.3515659 -0.55221467,46.0753535 0.0958505302,54.921222 C1.82785536,78.5624962 12.6222747,97.9364201 22.3446822,99.014373 C30.3237597,99.8990376 34.8645348,97.8685402 35.7226964,94.9347451 C37.6228678,97.8532454 43.160175,99.9777543 49.8966787,99.9998264 C56.839825,99.9777543 62.3771322,97.8532454 64.2773036,94.9347451 Z" id="Layer-1"></path>
                <path d="M30.8116389,42.1250425 C32.0202374,40.2751469 33.9770496,40.2709943 35.1883611,42.1250425 L40.8116389,50.7321004 C42.0202374,52.581996 41.2075324,54.0816327 39.00077,54.0816327 L26.99923,54.0816327 C24.7905162,54.0816327 23.9770496,52.5861485 25.1883611,50.7321004 L30.8116389,42.1250425 Z" id="Layer-2"></path>
                <path d="M64.8116389,42.1250425 C66.0202374,40.2751469 67.9770496,40.2709943 69.1883611,42.1250425 L74.8116389,50.7321004 C76.0202374,52.581996 75.2075324,54.0816327 73.00077,54.0816327 L60.99923,54.0816327 C58.7905162,54.0816327 57.9770496,52.5861485 59.1883611,50.7321004 L64.8116389,42.1250425 Z" id="Layer-3"></path>
                <path d="M54,66.3265306 C54,64.0723071 52.209139,62.244898 50,62.244898 C47.790861,62.244898 46,64.0723071 46,66.3265306" id="Layer-4"></path>
                <polyline id="Layer-5" points="25 76.5306122 33.2814187 82.6498226 41.686088 76.5306122 49.9628211 82.6498226 58.3230794 76.5306122 66.6540021 82.6498226 75 76.5306122"></polyline>
                <path d="M50.1635742,25.5326252 C50.1635742,25.5326252 47.3320313,14.8636798 51.4951173,8.03770727 C55.6582033,1.21173469 63.2543945,0.290975765 63.2543945,0.290975765" id="Layer-6"></path>
            </g>
        </g>
    </g>
</svg>