<?xml version="1.0" encoding="UTF-8"?>
<svg width="74px" height="104px" viewBox="0 0 74 104" version="1.1" xmlns="http://www.w3.org/2000/svg" xmlns:xlink="http://www.w3.org/1999/xlink">
    <!-- Generator: Sketch 46 (44423) - http://www.bohemiancoding.com/sketch -->
    <title>holidays-30</title>
    <desc>Created with Sketch.</desc>
    <defs></defs>
    <g id="ALL" stroke="none" stroke-width="1" fill="none" fill-rule="evenodd" stroke-linecap="round" stroke-linejoin="round">
        <g id="Secondary" transform="translate(-8190.000000, -7501.000000)" stroke="#868E96" stroke-width="3.5">
            <g id="holidays-30" transform="translate(8192.000000, 7503.000000)">
                <circle id="Layer-1" cx="34.8309524" cy="35.4446968" r="20"></circle>
                <path d="M69.6801948,1.06854249 L49.359451,21.3892861" id="Layer-2"></path>
                <polyline id="Layer-3" points="54.1801948 0.568542495 54.1801948 0.568542495 70.1801948 0.568542495 70.1801948 16.5685425"></polyline>
                <path d="M6.1629509,36.1421356 C-1.64753493,43.9526215 -1.64753493,56.615921 6.1629509,64.4264069 C13.9734367,72.2368927 26.6367363,72.2368927 34.4472222,64.4264069 C42.257708,56.615921 42.257708,43.9526215 34.4472222,36.1421356 C26.6367363,28.3316498 13.9734367,28.3316498 6.1629509,36.1421356 L6.1629509,36.1421356 Z" id="Layer-4"></path>
                <path d="M19.9705627,99.2340187 L19.9705629,70.4961474" id="Layer-5"></path>
                <polyline id="Layer-6" points="31.2842712 88.627417 31.2842712 88.627417 19.9705627 99.9411255 8.65685425 88.627417"></polyline>
            </g>
        </g>
    </g>
</svg>