<?xml version="1.0" encoding="UTF-8"?>
<svg width="104px" height="103px" viewBox="0 0 104 103" version="1.1" xmlns="http://www.w3.org/2000/svg" xmlns:xlink="http://www.w3.org/1999/xlink">
    <!-- Generator: Sketch 46 (44423) - http://www.bohemiancoding.com/sketch -->
    <title>holidays-5</title>
    <desc>Created with Sketch.</desc>
    <defs></defs>
    <g id="ALL" stroke="none" stroke-width="1" fill="none" fill-rule="evenodd" stroke-linecap="round" stroke-linejoin="round">
        <g id="Secondary" transform="translate(-966.000000, -7501.000000)" stroke="#868E96" stroke-width="3.5">
            <g id="holidays-5" transform="translate(968.000000, 7503.000000)">
                <path d="M52.0716725,93.0148554 C51.4483604,84.9546975 54.1734904,76.7439395 60.2694918,70.6479381 L67.876274,63.0411559 C76.2784936,54.6389363 76.1422667,40.8800197 67.5720027,32.3097557 C59.0017387,23.7394917 45.2428221,23.6032648 36.8406025,32.0054844 L29.2338203,39.6122666 C23.1378197,45.7082672 14.927063,48.4333973 6.86690123,47.8100849 C12.8403124,50.6762074 22.3565632,58.0909503 32.0736854,67.8080725 C41.7908069,77.5251941 49.2055495,87.0414442 52.0716725,93.0148554 L52.0716725,93.0148554 L52.0716725,93.0148554 Z M53.0361577,98.5368129 C53.038667,98.5459317 53.0411808,98.5550495 53.0436991,98.5641664 L53.0280446,98.5485119 C53.0307659,98.5446276 53.0334703,98.5407279 53.0361577,98.5368129 L53.0361577,98.5368129 L53.0361577,98.5368129 Z M1.33324182,46.8537162 L1.31758218,46.8380566 C1.3267021,46.8405757 1.33582292,46.8430903 1.34494464,46.8456004 C1.34102839,46.8482888 1.33712745,46.850994 1.33324182,46.8537162 L1.33324182,46.8537162 L1.33324182,46.8537162 Z" id="Layer-1"></path>
                <path d="M23.4091887,79.4122245 C22.9173713,78.9310953 22.424599,78.4437388 21.9313091,77.9504488 C7.6475357,63.6666754 -1.66130222,49.816941 1.13943766,47.0162011 C3.94017754,44.2154612 17.789912,53.5242991 32.0736854,67.8080725 C46.3574588,82.0918459 55.6662967,95.9415804 52.8655568,98.7423203 C51.0882708,100.519606 44.8616833,97.4205061 36.8983071,91.2681843 C37.7801893,90.8294192 38.6056332,90.2437009 39.3386609,89.5106733 C43.045427,85.8039071 42.9853285,79.7339532 39.204427,75.9530517 C35.4235255,72.1721503 29.3535716,72.1120517 25.6468055,75.8188179 C24.6020208,76.8636026 23.8564923,78.0961292 23.4091887,79.4122245 L23.4091887,79.4122245 Z" id="Layer-2"></path>
                <path d="M25.7810393,89.3764394 C29.5619408,93.1573409 35.6318947,93.2174394 39.3386609,89.5106733 C43.045427,85.8039071 42.9853285,79.7339532 39.204427,75.9530517 C35.4235255,72.1721503 29.3535716,72.1120517 25.6468055,75.8188179 C21.9400393,79.525584 22.0001379,85.5955379 25.7810393,89.3764394 L25.7810393,89.3764394 Z" id="Layer-3"></path>
                <path d="M63.9635833,28.7013363 L90.5832727,2.0816469 C92.6860635,-0.0211438953 96.0978226,-0.0186822305 98.1941033,2.07759847 C100.294658,4.17815338 100.296402,7.58208242 98.1900549,9.68842913 L71.5703655,36.3081185 L63.9635833,28.7013363 Z" id="Layer-4"></path>
            </g>
        </g>
    </g>
</svg>