<?xml version="1.0" encoding="UTF-8"?>
<svg width="64px" height="104px" viewBox="0 0 64 104" version="1.1" xmlns="http://www.w3.org/2000/svg" xmlns:xlink="http://www.w3.org/1999/xlink">
    <!-- Generator: Sketch 46 (44423) - http://www.bohemiancoding.com/sketch -->
    <title>holidays-7</title>
    <desc>Created with Sketch.</desc>
    <defs></defs>
    <g id="ALL" stroke="none" stroke-width="1" fill="none" fill-rule="evenodd" stroke-linecap="round" stroke-linejoin="round">
        <g id="Secondary" transform="translate(-1563.000000, -7501.000000)" stroke="#868E96" stroke-width="3.5">
            <g id="holidays-7" transform="translate(1565.000000, 7503.000000)">
                <path d="M19.6935953,11.2957853 C19.6915215,11.2077634 19.6904789,11.1194863 19.6904789,11.0309657 C19.6904789,4.93873156 24.6292104,0 30.7214445,0 C36.8136787,0 41.7524102,4.93873156 41.7524102,11.0309657 C41.7524102,11.1194863 41.7513675,11.2077634 41.7492938,11.2957853 C41.8323668,11.2666128 41.9160011,11.238342 42.0001892,11.2109876 C47.7942481,9.32838376 54.0174129,12.4992446 55.9000168,18.2933036 C57.7826207,24.0873625 54.6117599,30.3105273 48.8177009,32.1931312 C48.7335128,32.2204856 48.6492341,32.2467731 48.5648794,32.2720011 C48.6182951,32.3419934 48.6710266,32.4127982 48.7230578,32.4844129 C52.3039831,37.4131338 51.2113789,44.3115651 46.282658,47.8924905 C41.3539371,51.4734159 34.4555057,50.3808117 30.8745804,45.4520907 C30.8225492,45.3804761 30.7715048,45.3084455 30.7214445,45.2360154 C30.6713842,45.3084455 30.6203398,45.3804761 30.5683087,45.4520907 C26.9873833,50.3808117 20.088952,51.4734159 15.1602311,47.8924905 C10.2315101,44.3115651 9.13890595,37.4131338 12.7198313,32.4844129 C12.7718624,32.4127982 12.8245939,32.3419934 12.8780096,32.2720011 C12.793655,32.2467731 12.7093763,32.2204856 12.6251882,32.1931312 C6.83112921,30.3105273 3.66026837,24.0873625 5.54287224,18.2933036 C7.42547612,12.4992446 13.6486409,9.32838376 19.4426999,11.2109876 C19.526888,11.238342 19.6105223,11.2666128 19.6935953,11.2957853 L19.6935953,11.2957853 L19.6935953,11.2957853 L19.6935953,11.2957853 Z M30.7389199,35.2990902 C35.6127072,35.2990902 39.5636925,31.3481049 39.5636925,26.4743176 C39.5636925,21.6005303 35.6127072,17.6495451 30.7389199,17.6495451 C25.8651326,17.6495451 21.9141474,21.6005303 21.9141474,26.4743176 C21.9141474,31.3481049 25.8651326,35.2990902 30.7389199,35.2990902 L30.7389199,35.2990902 L30.7389199,35.2990902 Z" id="Layer-1"></path>
                <rect id="Layer-2" x="0" y="64" width="60" height="6"></rect>
                <polygon id="Layer-3" points="56 70 49.4237752 100 10.5762248 100 4 70"></polygon>
                <path d="M30,46 C30,46 32.1914062,53.3969727 32.1914062,55.5708008 C32.1914062,57.7446289 30,64 30,64" id="Layer-4"></path>
            </g>
        </g>
    </g>
</svg>