<?xml version="1.0" encoding="UTF-8"?>
<svg width="104px" height="103px" viewBox="0 0 104 103" version="1.1" xmlns="http://www.w3.org/2000/svg" xmlns:xlink="http://www.w3.org/1999/xlink">
    <!-- Generator: Sketch 46 (44423) - http://www.bohemiancoding.com/sketch -->
    <title>holidays-1</title>
    <desc>Created with Sketch.</desc>
    <defs></defs>
    <g id="ALL" stroke="none" stroke-width="1" fill="none" fill-rule="evenodd" stroke-linecap="round" stroke-linejoin="round">
        <g id="Secondary" transform="translate(-9191.000000, -7192.000000)" stroke="#868E96" stroke-width="3.5">
            <g id="holidays-1" transform="translate(9193.000000, 7193.000000)">
                <path d="M0,23.7995738 C0,22.1385804 1.33801252,20.7920792 2.99280137,20.7920792 L97.0071986,20.7920792 C98.6600772,20.7920792 100,22.1375817 100,23.7995738 L100,40.5940594 L0,40.5940594 L0,23.7995738 Z" id="Layer-1"></path>
                <rect id="Layer-2" x="5" y="40.5940594" width="90" height="59.4059406"></rect>
                <path d="M40.060617,2.71849775 C35.6084411,-0.832851846 28.5107241,0.955223245 25.2384491,6.56685346 C18.9828598,21.7271015 49.9637748,20.7006887 49.9637749,20.7006886 C49.963775,20.7006885 46.4880927,7.84547706 40.060617,2.71849775 L40.060617,2.71849775 Z" id="Layer-3"></path>
                <path d="M60.3248883,2.71849775 C64.7770641,-0.832851846 71.8747811,0.955223245 75.1470561,6.56685346 C81.4026454,21.7271015 50.4217304,20.7006887 50.4217303,20.7006886 C50.4217303,20.7006885 53.8974125,7.84547706 60.3248883,2.71849775 L60.3248883,2.71849775 Z" id="Layer-4"></path>
                <rect id="Layer-5" x="40" y="20.7920792" width="20" height="79.2079208"></rect>
            </g>
        </g>
    </g>
</svg>