<?xml version="1.0" encoding="UTF-8"?>
<svg width="104px" height="104px" viewBox="0 0 104 104" version="1.1" xmlns="http://www.w3.org/2000/svg" xmlns:xlink="http://www.w3.org/1999/xlink">
    <!-- Generator: Sketch 46 (44423) - http://www.bohemiancoding.com/sketch -->
    <title>holidays-47</title>
    <desc>Created with Sketch.</desc>
    <defs></defs>
    <g id="ALL" stroke="none" stroke-width="1" fill="none" fill-rule="evenodd" stroke-linecap="round" stroke-linejoin="round">
        <g id="Secondary" transform="translate(-3912.000000, -7802.000000)" stroke="#868E96" stroke-width="3.5">
            <g id="holidays-47" transform="translate(3914.000000, 7804.000000)">
                <path d="M39.0914458,13.8039065 L47.0613807,1.73284925 C48.5857293,-0.575889708 51.0549069,-0.579342481 52.5815352,1.73284925 L60.5514701,13.8039065 L73.802242,8.02438266 C76.3380977,6.91833099 78.4108048,8.2602458 78.4318332,11.0308743 L78.5429288,25.6684857 L92.8059987,27.7835385 C95.5426444,28.1893523 96.5892932,30.425728 95.1389168,32.7864976 L87.4398721,45.3181899 L98.2857528,54.8918513 C100.359875,56.7226794 100.019651,59.1683077 97.5174958,60.3582841 L84.4079769,66.5929163 L88.3298824,80.6726631 C89.0722471,83.3377726 87.4549267,85.2035499 84.7083351,84.8387766 L70.4880483,82.9501884 L66.1030135,96.9130823 C65.2740903,99.552552 62.901516,100.236469 60.7967003,98.4346431 L49.8214579,89.0392969 L38.8462156,98.4346431 C36.7445429,100.233778 34.3700653,99.5564994 33.5399024,96.9130823 L29.1548676,82.9501884 L14.9345808,84.8387766 C12.1920907,85.2030052 10.5695585,83.3417584 11.3130335,80.6726631 L15.234939,66.5929163 L2.12542009,60.3582841 C-0.372998704,59.1700847 -0.720060989,56.7254174 1.35716306,54.8918513 L12.2030438,45.3181899 L4.50399904,32.7864976 C3.0557885,30.4292533 4.0961788,28.1899592 6.83691717,27.7835385 L21.0999871,25.6684857 L21.2110827,11.0308743 C21.2320796,8.26438315 23.3010258,6.91667686 25.8406739,8.02438266 L39.0914458,13.8039065 L39.0914458,13.8039065 L39.0914458,13.8039065 Z M50,78 C65.463973,78 78,65.463973 78,50 C78,34.536027 65.463973,22 50,22 C34.536027,22 22,34.536027 22,50 C22,65.463973 34.536027,78 50,78 L50,78 Z" id="Layer-1"></path>
                <circle id="Layer-2" cx="50" cy="50" r="28"></circle>
                <path d="M65,55 C65,63.2842712 56.2842712,67 50,67 C43.7157288,67 35,63.2842712 35,55" id="Layer-3"></path>
                <path d="M45,43 C45,40.2385763 42.7614237,38 40,38 C37.2385763,38 35,40.2385763 35,43" id="Layer-4"></path>
                <path d="M65,43 C65,40.2385763 62.7614237,38 60,38 C57.2385763,38 55,40.2385763 55,43" id="Layer-5"></path>
            </g>
        </g>
    </g>
</svg>