<?xml version="1.0" encoding="UTF-8"?>
<svg width="104px" height="104px" viewBox="0 0 104 104" version="1.1" xmlns="http://www.w3.org/2000/svg" xmlns:xlink="http://www.w3.org/1999/xlink">
    <!-- Generator: Sketch 46 (44423) - http://www.bohemiancoding.com/sketch -->
    <title>holidays-48</title>
    <desc>Created with Sketch.</desc>
    <defs></defs>
    <g id="ALL" stroke="none" stroke-width="1" fill="none" fill-rule="evenodd" stroke-linecap="round" stroke-linejoin="round">
        <g id="Secondary" transform="translate(-4212.000000, -7802.000000)" stroke="#868E96" stroke-width="3.5">
            <g id="holidays-48" transform="translate(4214.000000, 7804.000000)">
                <path d="M36.1659177,8.17558691 C38.737744,3.32214367 43.9671782,0 50,0 C56.0328218,0 61.262256,3.32214367 63.8340823,8.17558691 C68.8128094,5.60323983 75.1419534,5.93434755 80.1173026,9.54915028 C84.8791538,13.0088377 87.1635087,18.5774329 86.5547907,23.8971434 C92.0170222,24.8037802 96.8521606,28.7672335 98.7308192,34.5491503 C100.558806,40.1751137 99.1102545,46.0534961 95.4507036,50 C99.1102545,53.9465039 100.558806,59.8248863 98.7308192,65.4508497 C96.8521606,71.2327665 92.0170222,75.1962198 86.5547907,76.1028566 C87.1635087,81.4225671 84.8791538,86.9911623 80.1173026,90.4508497 C75.1419534,94.0656525 68.8128094,94.3967602 63.8340823,91.8244131 C61.262256,96.6778563 56.0328218,100 50,100 C43.9671782,100 38.737744,96.6778563 36.1659177,91.8244131 C31.1871906,94.3967602 24.8580466,94.0656525 19.8826974,90.4508497 C15.1208462,86.9911623 12.8364913,81.4225671 13.4452093,76.1028566 C7.98297778,75.1962198 3.14783945,71.2327665 1.2691808,65.4508497 C-0.558805508,59.8248863 0.889745542,53.9465039 4.54929641,50 C0.889745542,46.0534961 -0.558805508,40.1751137 1.2691808,34.5491503 C3.14783945,28.7672335 7.98297778,24.8037802 13.4452093,23.8971434 C12.8364913,18.5774329 15.1208462,13.0088377 19.8826974,9.54915028 C24.8580466,5.93434755 31.1871906,5.60323983 36.1659177,8.17558691 L36.1659177,8.17558691 Z" id="Layer-1"></path>
                <circle id="Layer-2" cx="51" cy="51" r="28"></circle>
                <path d="M66,56 C66,64.2842712 57.2842712,68 51,68 C44.7157288,68 36,64.2842712 36,56" id="Layer-3"></path>
                <path d="M46,44 C46,41.2385763 43.7614237,39 41,39 C38.2385763,39 36,41.2385763 36,44" id="Layer-4"></path>
                <path d="M66,44 C66,41.2385763 63.7614237,39 61,39 C58.2385763,39 56,41.2385763 56,44" id="Layer-5"></path>
            </g>
        </g>
    </g>
</svg>