<?xml version="1.0" encoding="UTF-8"?>
<svg width="100px" height="103px" viewBox="0 0 100 103" version="1.1" xmlns="http://www.w3.org/2000/svg" xmlns:xlink="http://www.w3.org/1999/xlink">
    <!-- Generator: Sketch 46 (44423) - http://www.bohemiancoding.com/sketch -->
    <title>holidays-46</title>
    <desc>Created with Sketch.</desc>
    <defs></defs>
    <g id="ALL" stroke="none" stroke-width="1" fill="none" fill-rule="evenodd" stroke-linecap="round" stroke-linejoin="round">
        <g id="Secondary" transform="translate(-3616.000000, -7802.000000)" stroke="#868E96" stroke-width="3.5">
            <g id="holidays-46" transform="translate(3618.000000, 7804.000000)">
                <path d="M78,84.4059854 L78,49.5049505 C78,33.100453 64.5685425,19.8019802 48,19.8019802 C31.4314575,19.8019802 18,33.100453 18,49.5049505 L18,99.009901 L58,99.009901 L38,99.009901 C38,93.5417352 42.4771525,89.1089109 48,89.1089109 C48.2833222,89.1089109 48.5638924,89.1205767 48.8412475,89.1434497 C50.8905477,83.3571359 56.4558778,79.2079208 63,79.2079208 C67.4728482,79.2079208 71.488444,81.1462675 74.2366486,84.2208434 C74.6521042,84.1795587 75.0735583,84.1584158 75.5,84.1584158 C76.3561646,84.1584158 77.1922251,84.2436393 78,84.4059854 L78,84.4059854 Z" id="Layer-1"></path>
                <path d="M48,18.8118812 L48,0" id="Layer-2"></path>
                <path d="M56.0312195,7.92079208 L40,7.92079208" id="Layer-3"></path>
                <path d="M30,49.5049505 L66,49.5049505" id="Layer-4"></path>
                <path d="M0,99.009901 L96,99.009901" id="Layer-5"></path>
                <path d="M40,59.4059406 L56,59.4059406" id="Layer-6"></path>
                <path d="M38,99.009901 C38,93.5417352 42.4771525,89.1089109 48,89.1089109 C48.2833222,89.1089109 48.5638924,89.1205767 48.8412475,89.1434497 C50.8905477,83.3571359 56.4558778,79.2079208 63,79.2079208 C67.4728482,79.2079208 71.488444,81.1462675 74.2366486,84.2208434 C74.6521042,84.1795587 75.0735583,84.1584158 75.5,84.1584158 C82.4035594,84.1584158 88,89.6994462 88,96.5346535 C88,97.3823412 87.9139244,98.2101239 87.7499547,99.009901 L38,99.009901 L38,99.009901 Z" id="Layer-7"></path>
            </g>
        </g>
    </g>
</svg>