<?xml version="1.0" encoding="UTF-8"?>
<svg width="84px" height="104px" viewBox="0 0 84 104" version="1.1" xmlns="http://www.w3.org/2000/svg" xmlns:xlink="http://www.w3.org/1999/xlink">
    <!-- Generator: Sketch 46 (44423) - http://www.bohemiancoding.com/sketch -->
    <title>holidays-9</title>
    <desc>Created with Sketch.</desc>
    <defs></defs>
    <g id="ALL" stroke="none" stroke-width="1" fill="none" fill-rule="evenodd" stroke-linecap="round" stroke-linejoin="round">
        <g id="Secondary" transform="translate(-2123.000000, -7501.000000)" stroke="#868E96" stroke-width="3.5">
            <g id="holidays-9" transform="translate(2125.000000, 7503.000000)">
                <path d="M39.9999993,24.0049491 C40.57978,15.9154959 41.9295883,7.25776203 44.6230314,4.56151045 L45.3935367,3.79020182 C50.0744579,-0.895600139 56.9417848,-1.61829869 62.3446518,3.79020182 C67.7475188,9.19870232 65.6779794,14.336954 65.6779794,14.336954 C65.6779794,14.336954 71.0266808,12.4812834 76.2137461,17.6737572 C81.4008114,22.8662311 80.8946673,29.9567452 76.2137461,34.6425472 C76.0338518,34.822629 75.5246421,35.3323696 75.4432408,35.4138558 C72.7497977,38.1101074 64.1010818,39.4613231 56.0200547,40.0417083 C64.1010887,40.6220933 72.7497988,41.9733089 75.4432408,44.6695594 L76.2137461,45.440868 C80.8946673,50.12667 81.6166131,57.0011575 76.2137461,62.409658 C70.8108791,67.8181585 65.6779794,65.7464612 65.6779794,65.7464612 C65.6779794,65.7464612 67.5317172,71.1007396 62.3446518,76.2932134 C57.1575865,81.4856872 50.0744578,80.9790154 45.3935366,76.2932134 C45.2136424,76.1131316 44.7044327,75.6033909 44.6230314,75.5219048 C41.9295893,72.8256543 40.5797811,64.1679263 40,56.078476 C39.42022,64.1679194 38.0704117,72.8256532 35.3769686,75.5219048 C35.2955673,75.6033909 34.7863576,76.1131316 34.6064634,76.2932134 C29.9255422,80.9790154 22.8424135,81.4856872 17.6553482,76.2932134 C12.4682828,71.1007396 14.3220206,65.7464612 14.3220206,65.7464612 C14.3220206,65.7464612 9.18912091,67.8181585 3.78625393,62.409658 C-1.61661306,57.0011575 -0.894667279,50.12667 3.78625393,45.440868 L4.55675916,44.6695594 C7.25020231,41.9733078 15.8989182,40.6220922 23.9799453,40.0417069 C15.8989113,39.461322 7.25020123,38.1101063 4.55675916,35.4138558 C4.47535786,35.3323696 3.96614819,34.822629 3.78625392,34.6425472 C-0.894667284,29.9567452 -1.4008114,22.8662311 3.78625392,17.6737572 C8.97331925,12.4812834 14.3220206,14.336954 14.3220206,14.336954 C14.3220206,14.336954 12.2524812,9.19870232 17.6553482,3.79020182 C23.0582152,-1.61829869 29.9255421,-0.895600139 34.6064633,3.79020182 L35.3769686,4.56151045 C38.0704107,7.25776095 39.4202189,15.915489 40,24.0049393 L39.9999993,24.0049491 Z" id="Layer-1"></path>
                <path d="M40,50 L40,89.9822578 C40,95.5100047 35.5240618,99.9911289 30,99.9911289 L30,99.9911289 C24.4771525,99.9911289 20,95.5059149 20,89.9822578" id="Layer-2"></path>
            </g>
        </g>
    </g>
</svg>