<?xml version="1.0" encoding="UTF-8"?>
<svg width="104px" height="104px" viewBox="0 0 104 104" version="1.1" xmlns="http://www.w3.org/2000/svg" xmlns:xlink="http://www.w3.org/1999/xlink">
    <!-- Generator: Sketch 46 (44423) - http://www.bohemiancoding.com/sketch -->
    <title>holidays-32</title>
    <desc>Created with Sketch.</desc>
    <defs></defs>
    <g id="ALL" stroke="none" stroke-width="1" fill="none" fill-rule="evenodd" stroke-linecap="round" stroke-linejoin="round">
        <g id="Secondary" transform="translate(-8761.000000, -7501.000000)" stroke="#868E96" stroke-width="3.5">
            <g id="holidays-32" transform="translate(8763.000000, 7503.000000)">
                <path d="M49.8,-2.49800181e-17 L49.8,45" id="Layer-1"></path>
                <polyline id="Layer-2" points="55.2 3.6 49.8 9 44.4 3.6"></polyline>
                <polyline id="Layer-3" points="55.2 41.85 49.8 36.45 44.4 41.85"></polyline>
                <path d="M69.2855716,33.75 L30.3144284,11.25" id="Layer-4"></path>
                <polyline id="Layer-5" points="63.4678801 36.6265372 61.491343 29.25 68.8678801 27.2734628"></polyline>
                <polyline id="Layer-6" points="30.3424084 17.5015372 37.7189456 15.525 35.7424084 8.14846282"></polyline>
                <path d="M30.3144284,33.75 L69.2855716,11.25" id="Layer-7"></path>
                <polyline id="Layer-8" points="30.7321199 27.2734628 38.108657 29.25 36.1321199 36.6265372"></polyline>
                <polyline id="Layer-9" points="63.8575916 8.14846282 61.8810544 15.525 69.2575916 17.5015372"></polyline>
                <path d="M19.8,55 L19.8,100" id="Layer-10"></path>
                <polyline id="Layer-11" points="25.2 58.6 19.8 64 14.4 58.6"></polyline>
                <polyline id="Layer-12" points="25.2 96.85 19.8 91.45 14.4 96.85"></polyline>
                <path d="M39.2855716,88.75 L0.314428415,66.25" id="Layer-13"></path>
                <polyline id="Layer-14" points="33.4678801 91.6265372 31.491343 84.25 38.8678801 82.2734628"></polyline>
                <polyline id="Layer-15" points="0.342408437 72.5015372 7.71894562 70.525 5.74240844 63.1484628"></polyline>
                <path d="M0.314428415,88.75 L39.2855716,66.25" id="Layer-16"></path>
                <polyline id="Layer-17" points="0.732119868 82.2734628 8.10865705 84.25 6.13211987 91.6265372"></polyline>
                <polyline id="Layer-18" points="33.8575916 63.1484628 31.8810544 70.525 39.2575916 72.5015372"></polyline>
                <path d="M79.8,55 L79.8,100" id="Layer-19"></path>
                <polyline id="Layer-20" points="85.2 58.6 79.8 64 74.4 58.6"></polyline>
                <polyline id="Layer-21" points="85.2 96.85 79.8 91.45 74.4 96.85"></polyline>
                <path d="M99.2855716,88.75 L60.3144284,66.25" id="Layer-22"></path>
                <polyline id="Layer-23" points="93.4678801 91.6265372 91.491343 84.25 98.8678801 82.2734628"></polyline>
                <polyline id="Layer-24" points="60.3424084 72.5015372 67.7189456 70.525 65.7424084 63.1484628"></polyline>
                <path d="M60.3144284,88.75 L99.2855716,66.25" id="Layer-25"></path>
                <polyline id="Layer-26" points="60.7321199 82.2734628 68.108657 84.25 66.1321199 91.6265372"></polyline>
                <polyline id="Layer-27" points="93.8575916 63.1484628 91.8810544 70.525 99.2575916 72.5015372"></polyline>
            </g>
        </g>
    </g>
</svg>