<?xml version="1.0" encoding="UTF-8"?>
<svg width="104px" height="104px" viewBox="0 0 104 104" version="1.1" xmlns="http://www.w3.org/2000/svg" xmlns:xlink="http://www.w3.org/1999/xlink">
    <!-- Generator: Sketch 46 (44423) - http://www.bohemiancoding.com/sketch -->
    <title>holidays-3</title>
    <desc>Created with Sketch.</desc>
    <defs></defs>
    <g id="ALL" stroke="none" stroke-width="1" fill="none" fill-rule="evenodd" stroke-linecap="round" stroke-linejoin="round">
        <g id="Secondary" transform="translate(-416.000000, -7501.000000)" stroke="#868E96" stroke-width="3.5">
            <g id="holidays-3" transform="translate(418.000000, 7503.000000)">
                <path d="M38,7.2815534 C33.8578644,7.2815534 30.5,4.0214909 30.5,0 C30.5,4.0214909 27.1421356,7.2815534 23,7.2815534 C27.1421356,7.2815534 30.5,10.5416159 30.5,14.5631068 C30.5,10.5416159 33.8578644,7.2815534 38,7.2815534 L38,7.2815534 Z" id="Layer-1"></path>
                <path d="M78,7.2815534 C73.8578644,7.2815534 70.5,4.0214909 70.5,0 C70.5,4.0214909 67.1421356,7.2815534 63,7.2815534 C67.1421356,7.2815534 70.5,10.5416159 70.5,14.5631068 C70.5,10.5416159 73.8578644,7.2815534 78,7.2815534 L78,7.2815534 Z" id="Layer-2"></path>
                <path d="M100,33.4951456 C95.8578644,33.4951456 92.5,30.2350831 92.5,26.2135922 C92.5,30.2350831 89.1421356,33.4951456 85,33.4951456 C89.1421356,33.4951456 92.5,36.7552081 92.5,40.776699 C92.5,36.7552081 95.8578644,33.4951456 100,33.4951456 L100,33.4951456 Z" id="Layer-3"></path>
                <path d="M15,33.4951456 C10.8578644,33.4951456 7.5,30.2350831 7.5,26.2135922 C7.5,30.2350831 4.14213562,33.4951456 0,33.4951456 C4.14213562,33.4951456 7.5,36.7552081 7.5,40.776699 C7.5,36.7552081 10.8578644,33.4951456 15,33.4951456 L15,33.4951456 Z" id="Layer-4"></path>
                <path d="M50.7205882,28.2826675 L50.7205882,1.63434365" id="Layer-5"></path>
                <path d="M71.6176471,49.992042 L99,49.992042" id="Layer-6"></path>
                <path d="M1,49.992042 L28.3823529,49.992042" id="Layer-7"></path>
                <path d="M67.2941176,33.7940878 L86.6563651,14.9769219" id="Layer-8"></path>
                <path d="M33.3328357,33.7940878 L13.9705882,14.9769219" id="Layer-9"></path>
                <path d="M38,92.7184466 C33.8578644,92.7184466 30.5,95.9785091 30.5,100 C30.5,95.9785091 27.1421356,92.7184466 23,92.7184466 C27.1421356,92.7184466 30.5,89.4583841 30.5,85.4368932 C30.5,89.4583841 33.8578644,92.7184466 38,92.7184466 L38,92.7184466 L38,92.7184466 Z" id="Layer-10"></path>
                <path d="M78,92.7184466 C73.8578644,92.7184466 70.5,95.9785091 70.5,100 C70.5,95.9785091 67.1421356,92.7184466 63,92.7184466 C67.1421356,92.7184466 70.5,89.4583841 70.5,85.4368932 C70.5,89.4583841 73.8578644,92.7184466 78,92.7184466 L78,92.7184466 L78,92.7184466 Z" id="Layer-11"></path>
                <path d="M100,66.5048544 C95.8578644,66.5048544 92.5,69.7649169 92.5,73.7864078 C92.5,69.7649169 89.1421356,66.5048544 85,66.5048544 C89.1421356,66.5048544 92.5,63.2447919 92.5,59.223301 C92.5,63.2447919 95.8578644,66.5048544 100,66.5048544 L100,66.5048544 L100,66.5048544 Z" id="Layer-12"></path>
                <path d="M15,66.5048544 C10.8578644,66.5048544 7.5,69.7649169 7.5,73.7864078 C7.5,69.7649169 4.14213562,66.5048544 0,66.5048544 C4.14213562,66.5048544 7.5,63.2447919 7.5,59.223301 C7.5,63.2447919 10.8578644,66.5048544 15,66.5048544 L15,66.5048544 L15,66.5048544 Z" id="Layer-13"></path>
                <path d="M50.7205882,71.7173325 L50.7205882,98.3656564" id="Layer-14"></path>
                <path d="M67.2941176,66.2059122 L86.6563651,85.0230781" id="Layer-15"></path>
                <path d="M33.3328357,66.2059122 L13.9705882,85.0230781" id="Layer-16"></path>
                <ellipse id="Layer-17" cx="50" cy="49.5145631" rx="10" ry="9.70873786"></ellipse>
            </g>
        </g>
    </g>
</svg>