<?xml version="1.0" encoding="UTF-8"?>
<svg width="72px" height="103px" viewBox="0 0 72 103" version="1.1" xmlns="http://www.w3.org/2000/svg" xmlns:xlink="http://www.w3.org/1999/xlink">
    <!-- Generator: Sketch 46 (44423) - http://www.bohemiancoding.com/sketch -->
    <title>holidays-42</title>
    <desc>Created with Sketch.</desc>
    <defs></defs>
    <g id="ALL" stroke="none" stroke-width="1" fill="none" fill-rule="evenodd" stroke-linecap="round" stroke-linejoin="round">
        <g id="Secondary" transform="translate(-2452.000000, -7803.000000)" stroke="#868E96" stroke-width="3.5">
            <g id="holidays-42" transform="translate(2454.000000, 7804.000000)">
                <path d="M34,99.633645 L34,99.9999975 L43.4598888,99.999995 C43.8940674,86.6320228 53.4348367,75.5869977 66.0284542,72.9695339 C64.3479106,64.326873 60.475803,64.5005596 60.475803,51.9707977 C60.475803,39.4410358 68.463804,27.8903036 67.9502957,14.8207229 C67.7278321,9.15867713 66.5884039,3.62490695 65.5660244,2.72042414 C64.5436448,1.81594133 53.0825753,-4.48474702 34.5437315,14.5982143 C34.3619604,14.4221126 34.180716,14.2484235 34,14.0771174 L34,14.2179804 C33.9895873,14.0904871 33.9840774,14.0239825 33.9840774,14.0239825 C33.8033614,14.1952886 33.622117,14.3689778 33.4403459,14.5450794 C14.9015021,-4.53788186 3.44043255,1.76280649 2.41805299,2.6672893 C1.39567343,3.57177211 0.256245316,9.10554229 0.03378163,14.767588 C-0.479726606,27.8371688 7.78890027,39.9767485 7.78889996,52.8506324 C7.78889966,65.7245164 3.63616678,64.2737382 1.95562322,72.9163991 C14.5492407,75.5338628 24.09001,86.578888 24.5241886,99.9468602 L33.9840774,99.9468627 C33.9840774,99.9468627 33.9895873,99.8395061 34,99.633645 L34,99.633645 Z" id="Layer-1"></path>
                <path d="M65.5660244,2.72042414 C64.6229313,1.80392715 52.5388447,-4.48474705 34.0000009,14.5982142 C15.4611572,-4.484747 3.79089926,1.45902062 2.41805299,2.6672893 C1.04520672,3.87555798 0.224582246,11.0377139 0.478447813,10.4687499 C0.910340169,9.50079211 15.0892059,4.8304966 34.0000009,25.9736515 C52.8300913,4.8304966 66.3608236,9.56426713 67.3832032,10.4687499 C68.0620917,11.0693517 66.3854977,3.51678752 65.5660244,2.72042414 L65.5660244,2.72042414 Z" id="Layer-2"></path>
            </g>
        </g>
    </g>
</svg>