<?xml version="1.0" encoding="UTF-8"?>
<svg width="80px" height="104px" viewBox="0 0 80 104" version="1.1" xmlns="http://www.w3.org/2000/svg" xmlns:xlink="http://www.w3.org/1999/xlink">
    <!-- Generator: Sketch 46 (44423) - http://www.bohemiancoding.com/sketch -->
    <title>holidays-21</title>
    <desc>Created with Sketch.</desc>
    <defs></defs>
    <g id="ALL" stroke="none" stroke-width="1" fill="none" fill-rule="evenodd" stroke-linecap="round" stroke-linejoin="round">
        <g id="Secondary" transform="translate(-5592.000000, -7501.000000)" stroke="#868E96" stroke-width="3.5">
            <g id="holidays-21" transform="translate(5594.000000, 7503.000000)">
                <path d="M38,100 C58.9868205,100 76,82.9868205 76,62 C76,41.0131795 58.9868205,24 38,24 C17.0131795,24 0,41.0131795 0,62 C0,82.9868205 17.0131795,100 38,100 L38,100 Z M38,92.4 C54.7894564,92.4 68.4,78.7894564 68.4,62 C68.4,45.2105436 54.7894564,31.6 38,31.6 C21.2105436,31.6 7.6,45.2105436 7.6,62 C7.6,78.7894564 21.2105436,92.4 38,92.4 L38,92.4 Z" id="Layer-1"></path>
                <path d="M24.490322,8.83306218 C24.2195246,8.35711803 24.3353956,7.67813297 24.7463144,7.31896502 L32.3735215,0.65232404 C32.7856996,0.292055421 33.574647,0 34.1133695,0 L42.1075758,0 C42.6562892,0 43.4378808,0.302750194 43.8418582,0.665917034 L51.2274153,7.30537203 C51.6365195,7.67314785 51.7489772,8.36750659 51.4851357,8.84444509 L43.5841377,23.126844 C43.3173685,23.6090747 42.6462983,24 42.1075758,24 L34.1133695,24 C33.564656,24 32.8944005,23.6037825 32.6295139,23.1382269 L24.490322,8.83306218 Z" id="Layer-2"></path>
                <path d="M25.6,8 L51.6,8" id="Layer-3"></path>
                <path d="M38.4,8.4 L38.4,23.6" id="Layer-4"></path>
                <path d="M43.2,0.8 L38.4,8.8" id="Layer-5"></path>
                <path d="M33.6,0.8 L38.4,8.8" id="Layer-6"></path>
            </g>
        </g>
    </g>
</svg>