<?xml version="1.0" encoding="UTF-8"?>
<svg width="104px" height="102px" viewBox="0 0 104 102" version="1.1" xmlns="http://www.w3.org/2000/svg" xmlns:xlink="http://www.w3.org/1999/xlink">
    <!-- Generator: Sketch 46 (44423) - http://www.bohemiancoding.com/sketch -->
    <title>interface-30</title>
    <desc>Created with Sketch.</desc>
    <defs></defs>
    <g id="ALL" stroke="none" stroke-width="1" fill="none" fill-rule="evenodd" stroke-linecap="round" stroke-linejoin="round">
        <g id="Secondary" transform="translate(-9000.000000, -1062.000000)" stroke="#868E96" stroke-width="3.5">
            <g id="interface-30" transform="translate(9002.000000, 1064.000000)">
                <path d="M49.2326985,42.5704233 C50.391479,41.3879893 52.4961575,41.0911404 53.9698578,41.8108774 C53.9698578,41.8108774 52.5043091,41.1998016 54.8752112,42.2106402 C61.1164171,44.8715901 75.6554984,49.1989359 98.9301886,45.5265918 C99.0977458,47.0925616 101.897854,58.6242415 88.5759968,76.7091699 C75.2541395,94.7940983 54.19807,97.9631832 54.19807,97.9631832 C54.19807,97.9631832 47.6086918,89.6133329 43.8387739,78.1723702 C40.0688559,66.7314074 38.6702889,56.823369 38.6702889,56.823369 C38.4001193,55.1799013 39.1268014,52.8826057 40.2792613,51.7066213 L49.2326985,42.5704233 L49.2326985,42.5704233 Z" id="Layer-1"></path>
                <path d="M79.7517986,84.5152325 C72.9028079,80.8859134 69.3069307,75.7731959 69.3069307,75.7731959" id="Layer-2"></path>
                <path d="M90.5118736,73.4171235 C82.5289991,72.2511313 77.2277228,67.6907216 77.2277228,67.6907216" id="Layer-3"></path>
                <path d="M97.8085359,59.0093634 C90.2116531,59.4321339 84.1584158,56.5773196 84.1584158,56.5773196" id="Layer-4"></path>
                <path d="M67.7478151,92.5010172 C62.3757542,88.1761236 59.4059406,82.8453608 59.4059406,82.8453608" id="Layer-5"></path>
                <path d="M1.51692856,9.03099203 C-0.507837372,6.96489583 -0.503562235,3.61072961 1.51727422,1.54864309 L1.51727422,1.54864309 C3.54223105,-0.517647911 6.82826014,-0.514662827 8.84994594,1.54829038 L49.1818872,42.7035022 L41.8488698,50.1862038 L1.51692856,9.03099203 L1.51692856,9.03099203 Z" id="Layer-6"></path>
            </g>
        </g>
    </g>
</svg>