<?xml version="1.0" encoding="UTF-8"?>
<svg width="90px" height="104px" viewBox="0 0 90 104" version="1.1" xmlns="http://www.w3.org/2000/svg" xmlns:xlink="http://www.w3.org/1999/xlink">
    <!-- Generator: Sketch 46 (44423) - http://www.bohemiancoding.com/sketch -->
    <title>interface-57</title>
    <desc>Created with Sketch.</desc>
    <defs></defs>
    <g id="ALL" stroke="none" stroke-width="1" fill="none" fill-rule="evenodd" stroke-linecap="round" stroke-linejoin="round">
        <g id="Secondary" transform="translate(-7514.000000, -1362.000000)" stroke="#868E96" stroke-width="3.5">
            <g id="interface-57" transform="translate(7516.000000, 1364.000000)">
                <path d="M65.4581561,36.8780273 C55.2917585,47.0444249 35.1471525,67.1890309 35.1471525,67.1890309 C31.8304471,70.5057363 26.1663419,71.9271063 21.144445,71.0225684 L17.6376656,74.5293478 C15.9509002,76.2161132 13.2142106,76.2142106 11.5327557,74.5327557 C9.84787247,72.8478725 9.8470926,70.1169168 11.5361637,68.4278458 L15.042943,64.9210664 C14.1384051,59.8991696 15.5597752,54.2350643 18.8764806,50.9183589 L49.1874841,20.6073554 L65.4581561,36.8780273 L65.4581561,36.8780273 Z" id="Layers-1"></path>
                <path d="M39.3424193,45.1588318 C47.6108435,40.3617874 53.2657644,44.2310671 53.060698,49.2754854 C44.0865915,58.249592 35.1471525,67.1890309 35.1471525,67.1890309 C31.8304471,70.5057363 26.1663419,71.9271063 21.144445,71.0225684 L17.6376656,74.5293478 C15.9509002,76.2161132 13.2142106,76.2142106 11.5327557,74.5327557 C9.84787247,72.8478725 9.8470926,70.1169168 11.5361637,68.4278458 L15.042943,64.9210664 C14.1384051,59.8991696 15.5597752,54.2350643 18.8764806,50.9183589 C18.8764806,50.9183589 31.073995,49.9558763 39.3424193,45.1588318 L39.3424193,45.1588318 Z" id="Layers-2"></path>
                <path d="M76.5654384,24.753828 C76.7273464,25.3228678 76.8335849,25.8756699 76.8692649,26.3800319 L76.9489397,27.5062908 C77.0942549,29.5604247 76.0615273,32.3761582 74.6394117,33.7982737 L71.0527521,37.3849333 C69.6319198,38.8057656 67.2772824,38.7547525 65.7926207,37.2700908 L57.2940207,28.7714908 L48.7954206,20.2728907 C47.3107589,18.788229 47.2597459,16.4335916 48.6805782,15.0127593 L52.2672378,11.4260997 C53.6893533,10.0039842 56.5050868,8.97125651 58.5592207,9.11657176 L59.6854795,9.1962465 C60.1898415,9.2319265 60.7426436,9.33816502 61.3116834,9.50007302 L67.4631907,3.34856578 C71.6753988,-0.863642344 78.5047375,-0.863642344 82.7169457,3.34856578 C86.9291538,7.56077391 86.9291538,14.3901126 82.7169457,18.6023208 L76.5654384,24.753828 L76.5654384,24.753828 Z" id="Layers-3"></path>
                <path d="M61.3616887,9.45006778 L64.6764325,12.7648116" id="Layers-4"></path>
                <path d="M76.3657502,24.4541293 L69.2385738,17.3269529" id="Layers-5"></path>
                <path d="M5,100 C16.25,100 5.00000009,80 5,80 C4.99999991,80 -6.24999995,100 5,100 Z" id="Layers-6"></path>
            </g>
        </g>
    </g>
</svg>