<?xml version="1.0" encoding="UTF-8"?>
<svg width="103px" height="103px" viewBox="0 0 103 103" version="1.1" xmlns="http://www.w3.org/2000/svg" xmlns:xlink="http://www.w3.org/1999/xlink">
    <!-- Generator: Sketch 46 (44423) - http://www.bohemiancoding.com/sketch -->
    <title>interface-64</title>
    <desc>Created with Sketch.</desc>
    <defs></defs>
    <g id="ALL" stroke="none" stroke-width="1" fill="none" fill-rule="evenodd" stroke-linecap="round" stroke-linejoin="round">
        <g id="Secondary" transform="translate(-9566.000000, -1363.000000)" stroke="#868E96" stroke-width="3.5">
            <g id="interface-64" transform="translate(9567.000000, 1364.000000)">
                <path d="M76.5066987,4.00651816 C80.7981744,-0.284957576 87.704275,-0.336713841 91.9294114,3.88842248 L96.8278452,8.78685634 C101.054099,13.0131096 101.002169,19.9171497 96.7097496,24.209569 L88.9393454,31.9799732 L68.7362945,11.7769223 L76.5066987,4.00651816 L76.5066987,4.00651816 L76.5066987,4.00651816 L76.5066987,4.00651816 Z" id="Layer-1"></path>
                <path d="M25.0055041,85.1975905 C26.6778199,88.3799751 29.6736924,91.2456262 29.6736924,91.2456262 L0.987694087,99.7285736 L9.52709835,70.9861185 C9.52709835,70.9861185 12.3927494,73.981991 15.575134,75.6543068 C18.7575159,77.3266212 22.7448191,77.9714408 22.7448258,77.9714419 C22.7246011,78.2465333 23.3791646,82.102698 25.0055041,85.1975905 L25.0055041,85.1975905 Z" id="Layer-2"></path>
                <polygon id="Layer-3" points="16.0338144 95.2791748 0.987694087 99.7285736 5.45313981 84.6985002 16.0338144 95.2791748"></polygon>
                <path d="M78.7005213,22.0317933 L68.5909724,11.9222444 L9.53590058,70.9773162 L10.3173289,71.7587445 C11.3852668,72.7607615 13.4066707,74.5147979 15.575134,75.6543068 C18.7575159,77.3266212 22.7448191,77.9714408 22.7448258,77.9714419 C22.7444926,77.9759747 22.7443425,77.9814797 22.744377,77.9879376 L78.7005213,22.0317933 L78.7005213,22.0317933 L78.7005213,22.0317933 Z" id="Layer-4"></path>
                <path d="M78.8378199,21.8784478 L88.9473688,31.9879967 L29.892297,91.0430685 L29.1108687,90.2616402 C28.1088517,89.1937023 26.3548153,87.1722984 25.2153064,85.0038351 C23.542992,81.8214532 22.8981724,77.8341499 22.8981713,77.8341433 C22.8936385,77.8344765 22.8881335,77.8346266 22.8816756,77.8345921 L78.8378199,21.8784478 L78.8378199,21.8784478 L78.8378199,21.8784478 L78.8378199,21.8784478 Z" id="Layer-5"></path>
            </g>
        </g>
    </g>
</svg>