<?xml version="1.0" encoding="UTF-8"?>
<svg width="104px" height="104px" viewBox="0 0 104 104" version="1.1" xmlns="http://www.w3.org/2000/svg" xmlns:xlink="http://www.w3.org/1999/xlink">
    <!-- Generator: Sketch 46 (44423) - http://www.bohemiancoding.com/sketch -->
    <title>interface-70</title>
    <desc>Created with Sketch.</desc>
    <defs></defs>
    <g id="ALL" stroke="none" stroke-width="1" fill="none" fill-rule="evenodd" stroke-linecap="round" stroke-linejoin="round">
        <g id="Secondary" transform="translate(-1906.000000, -1662.000000)" stroke="#868E96" stroke-width="3.5">
            <g id="interface-70" transform="translate(1908.000000, 1664.000000)">
                <path d="M96.1587125,77.3987366 L83.8640831,65.1041073 L77.3308629,64.7274051 L76.9326136,58.1726378 L72.4967628,53.736787 C71.3040509,52.5440751 69.3683209,52.5460371 68.1707961,53.7435619 L54.2435104,67.6708476 C53.0470568,68.8673012 53.0503204,70.8103993 54.2367355,71.9968144 L58.6725862,76.4326651 L65.3035113,76.9449653 L65.6040558,83.3641347 L77.8986851,95.658764 C82.952081,100.71216 91.1208205,100.705607 96.1631879,95.6632394 C101.205555,90.6208721 101.212108,82.4521326 96.1587125,77.3987366 L96.1587125,77.3987366 Z" id="Layer-1"></path>
                <path d="M90.8373466,85.0115568 L80.1856639,74.3598741" id="Layer-2"></path>
                <path d="M85.5115052,90.3373981 L74.8598226,79.6857155" id="Layer-3"></path>
                <path d="M60.4039676,60.6648536 L14.7538992,15.0147852" id="Layer-4"></path>
                <path d="M14.373482,14.634368 C16.684567,12.323283 16.6860507,8.57775749 14.3777977,6.26950451 L8.66722342,0.558930217 L0.298044207,8.92810943 L6.0086185,14.6386837 C8.31732,16.9473852 12.0670995,16.9407504 14.373482,14.634368 L14.373482,14.634368 L14.373482,14.634368 Z" id="Layer-5"></path>
            </g>
        </g>
    </g>
</svg>