<?xml version="1.0" encoding="UTF-8"?>
<svg width="104px" height="104px" viewBox="0 0 104 104" version="1.1" xmlns="http://www.w3.org/2000/svg" xmlns:xlink="http://www.w3.org/1999/xlink">
    <!-- Generator: Sketch 46 (44423) - http://www.bohemiancoding.com/sketch -->
    <title>interface-33</title>
    <desc>Created with Sketch.</desc>
    <defs></defs>
    <g id="ALL" stroke="none" stroke-width="1" fill="none" fill-rule="evenodd" stroke-linecap="round" stroke-linejoin="round">
        <g id="Secondary" transform="translate(-416.000000, -1362.000000)" stroke="#868E96" stroke-width="3.5">
            <g id="interface-33" transform="translate(418.000000, 1364.000000)">
                <path d="M63.1269396,38.6434207 L51.7977254,2.52569948 C50.8016302,-0.64986862 49.194078,-0.640823419 48.20082,2.52569948 L36.8716058,38.6434206 L2.99203306,40.7670723 C-0.314488525,40.9743329 -0.807472765,42.7050362 1.89363223,44.6325365 L28.9391718,63.9321505 L18.6749606,96.6546246 C17.6788653,99.8301927 19.0686498,100.835103 21.7727939,98.919357 L49.9992727,78.9223618 L78.2257515,98.919357 C80.9231088,100.830295 82.3168428,99.8211475 81.3235848,96.6546246 L71.0593736,63.9321505 L98.1049132,44.6325365 C100.802703,42.7074016 100.314247,40.974409 97.0065121,40.7670723 L63.1269396,38.6434207 L63.1269396,38.6434207 Z" id="Layer-1"></path>
            </g>
        </g>
    </g>
</svg>