<?xml version="1.0" encoding="UTF-8"?>
<svg width="104px" height="104px" viewBox="0 0 104 104" version="1.1" xmlns="http://www.w3.org/2000/svg" xmlns:xlink="http://www.w3.org/1999/xlink">
    <!-- Generator: Sketch 46 (44423) - http://www.bohemiancoding.com/sketch -->
    <title>interface-69</title>
    <desc>Created with Sketch.</desc>
    <defs></defs>
    <g id="ALL" stroke="none" stroke-width="1" fill="none" fill-rule="evenodd" stroke-linecap="round" stroke-linejoin="round">
        <g id="Secondary" transform="translate(-1606.000000, -1662.000000)" stroke="#868E96" stroke-width="3.5">
            <g id="interface-69" transform="translate(1608.000000, 1664.000000)">
                <path d="M97.6569452,88.8701486 C101.732325,81.0625372 100.491337,71.2020155 93.9339828,64.6446609 C87.6491876,58.3598657 78.3301137,56.9586683 70.6923314,60.4410687 L39.5589313,29.3076686 C43.0413317,21.6698863 41.6401343,12.3508124 35.3553391,6.06601718 C28.7979845,-0.491337402 18.9374628,-1.73232485 11.1298514,2.34305482 L23.6396103,14.8528137 L14.8528137,23.6396103 L2.34305482,11.1298514 C-1.73232485,18.9374628 -0.491337402,28.7979845 6.06601718,35.3553391 C12.3508124,41.6401343 21.6698863,43.0413317 29.3076686,39.5589313 L60.4410687,70.6923314 C56.9586683,78.3301137 58.3598657,87.6491876 64.6446609,93.9339828 C71.2020155,100.491337 81.0625372,101.732325 88.8701486,97.6569452 L76.3603897,85.1471863 L85.1471863,76.3603897 L97.6569452,88.8701486 L97.6569452,88.8701486 Z" id="Layer-1"></path>
            </g>
        </g>
    </g>
</svg>