<?xml version="1.0" encoding="UTF-8"?>
<svg width="104px" height="67px" viewBox="0 0 104 67" version="1.1" xmlns="http://www.w3.org/2000/svg" xmlns:xlink="http://www.w3.org/1999/xlink">
    <!-- Generator: Sketch 46 (44423) - http://www.bohemiancoding.com/sketch -->
    <title>interface-34</title>
    <desc>Created with Sketch.</desc>
    <defs></defs>
    <g id="ALL" stroke="none" stroke-width="1" fill="none" fill-rule="evenodd" stroke-linecap="round" stroke-linejoin="round">
        <g id="Secondary" transform="translate(-701.000000, -1363.000000)" stroke="#868E96" stroke-width="3.5">
            <g id="interface-34" transform="translate(703.000000, 1364.000000)">
                <path d="M50,63.6914062 C85.3095703,63.6914062 100,32 100,32 C100,32 84.3896484,0.774414062 50,0.774414062 C15.6103516,0.774414063 0,32 0,32 C0,32 14.6904297,63.6914062 50,63.6914062 Z" id="Layer-1"></path>
                <circle id="Layer-2" cx="50" cy="32" r="22"></circle>
                <path d="M43.8413022,43.4514633 C45.6743533,44.4393683 47.7717054,45 50,45 C57.1797017,45 63,39.1797017 63,32 C63,24.8202983 57.1797017,19 50,19 L50,19 C42.8202983,19 37,24.8202983 37,32 C37,33.864446 37.3924931,35.6372204 38.0993612,37.2402048" id="Layer-3"></path>
            </g>
        </g>
    </g>
</svg>