<?xml version="1.0" encoding="UTF-8"?>
<svg width="104px" height="104px" viewBox="0 0 104 104" version="1.1" xmlns="http://www.w3.org/2000/svg" xmlns:xlink="http://www.w3.org/1999/xlink">
    <!-- Generator: Sketch 46 (44423) - http://www.bohemiancoding.com/sketch -->
    <title>layouts-29</title>
    <desc>Created with Sketch.</desc>
    <defs></defs>
    <g id="ALL" stroke="none" stroke-width="1" fill="none" fill-rule="evenodd" stroke-linecap="round" stroke-linejoin="round">
        <g id="Secondary" transform="translate(-3407.000000, -9925.000000)" stroke="#868E96" stroke-width="3.5">
            <g id="layouts-29" transform="translate(3409.000000, 9927.000000)">
                <rect id="Layer-1" x="0" y="0" width="25" height="25"></rect>
                <rect id="Layer-2" x="25" y="0" width="25" height="25"></rect>
                <rect id="Layer-3" x="50" y="0" width="25" height="25"></rect>
                <rect id="Layer-4" x="75" y="0" width="25" height="25"></rect>
                <rect id="Layer-5" x="0" y="25" width="25" height="25"></rect>
                <rect id="Layer-6" x="25" y="25" width="25" height="25"></rect>
                <rect id="Layer-7" x="50" y="25" width="25" height="25"></rect>
                <rect id="Layer-8" x="75" y="25" width="25" height="25"></rect>
                <rect id="Layer-9" x="0" y="50" width="25" height="25"></rect>
                <rect id="Layer-10" x="25" y="50" width="25" height="25"></rect>
                <rect id="Layer-11" x="50" y="50" width="25" height="25"></rect>
                <rect id="Layer-12" x="75" y="50" width="25" height="25"></rect>
                <rect id="Layer-13" x="0" y="75" width="25" height="25"></rect>
                <rect id="Layer-14" x="25" y="75" width="25" height="25"></rect>
                <rect id="Layer-15" x="50" y="75" width="25" height="25"></rect>
                <rect id="Layer-16" x="75" y="75" width="25" height="25"></rect>
            </g>
        </g>
    </g>
</svg>