<?xml version="1.0" encoding="UTF-8"?>
<svg width="104px" height="104px" viewBox="0 0 104 104" version="1.1" xmlns="http://www.w3.org/2000/svg" xmlns:xlink="http://www.w3.org/1999/xlink">
    <!-- Generator: Sketch 46 (44423) - http://www.bohemiancoding.com/sketch -->
    <title>layouts-8</title>
    <desc>Created with Sketch.</desc>
    <defs></defs>
    <g id="ALL" stroke="none" stroke-width="1" fill="none" fill-rule="evenodd" stroke-linecap="round" stroke-linejoin="round">
        <g id="Secondary" transform="translate(-6637.000000, -9624.000000)" stroke="#868E96" stroke-width="3.5">
            <g id="layouts-8" transform="translate(6639.000000, 9626.000000)">
                <path d="M0,30 L4.88615314e-17,1.99201517 C2.18760527e-17,0.89185557 0.887914217,0 1.98771832,0 L30,0" id="Layer-1"></path>
                <path d="M70,30 L70,1.99201517 C70,0.89185557 70.8879142,0 71.9877183,0 L100,0" id="Layer-2" transform="translate(85.000000, 15.000000) scale(-1, 1) translate(-85.000000, -15.000000) "></path>
                <path d="M70,100 L70,71.9920152 C70,70.8918556 70.8879142,70 71.9877183,70 L100,70" id="Layer-3" transform="translate(85.000000, 85.000000) scale(-1, -1) translate(-85.000000, -85.000000) "></path>
                <path d="M0,100 L4.88615314e-17,71.9920152 C2.18760527e-17,70.8918556 0.887914217,70 1.98771832,70 L30,70" id="Layer-4" transform="translate(15.000000, 85.000000) scale(1, -1) translate(-15.000000, -85.000000) "></path>
                <rect id="Layer-5" x="20" y="20" width="60" height="60"></rect>
            </g>
        </g>
    </g>
</svg>