<?xml version="1.0" encoding="UTF-8"?>
<svg width="104px" height="94px" viewBox="0 0 104 94" version="1.1" xmlns="http://www.w3.org/2000/svg" xmlns:xlink="http://www.w3.org/1999/xlink">
    <!-- Generator: Sketch 46 (44423) - http://www.bohemiancoding.com/sketch -->
    <title>layouts-47</title>
    <desc>Created with Sketch.</desc>
    <defs></defs>
    <g id="ALL" stroke="none" stroke-width="1" fill="none" fill-rule="evenodd" stroke-linecap="round" stroke-linejoin="round">
        <g id="Secondary" transform="translate(-8697.000000, -9926.000000)" stroke="#868E96" stroke-width="3.5">
            <g id="layouts-47" transform="translate(8699.000000, 9927.000000)">
                <rect id="Layer-1" x="25" y="1" width="50" height="34" rx="2"></rect>
                <path d="M24.988158,11.0118418 L35.0124769,0.987522423" id="Layer-2"></path>
                <path d="M24.988158,21.0118418 L45.0062447,0.993754566" id="Layer-3"></path>
                <path d="M24.988158,31.0118418 L55.0041637,0.995835125" id="Layer-4"></path>
                <path d="M30.9963236,35.0036736 L65.0041637,0.995835125" id="Layer-5"></path>
                <path d="M51.4787362,34.5212631 L75.0041637,10.9958351" id="Layer-6"></path>
                <path d="M61.4999994,34.499999 L75.0041637,20.9958351" id="Layer-7"></path>
                <path d="M40.9963236,35.0036736 L73.5,2.49999857" id="Layer-8"></path>
                <path d="M0,1 L100,1" id="Layer-9" transform="translate(50.000000, 1.000000) scale(-1, 1) translate(-50.000000, -1.000000) "></path>
                <path d="M0,57 L100,57" id="Layer-10" transform="translate(50.000000, 57.000000) scale(-1, 1) translate(-50.000000, -57.000000) "></path>
                <path d="M10,57 L90,57 L90,89.0000796 C90,90.1046051 89.1015625,91 88.0025017,91 L11.9974983,91 C10.8943104,91 10,90.1080589 10,89.0000796 L10,57 Z" id="Layer-11"></path>
            </g>
        </g>
    </g>
</svg>