<?xml version="1.0" encoding="UTF-8"?>
<svg width="104px" height="104px" viewBox="0 0 104 104" version="1.1" xmlns="http://www.w3.org/2000/svg" xmlns:xlink="http://www.w3.org/1999/xlink">
    <!-- Generator: Sketch 46 (44423) - http://www.bohemiancoding.com/sketch -->
    <title>layouts-42</title>
    <desc>Created with Sketch.</desc>
    <defs></defs>
    <g id="ALL" stroke="none" stroke-width="1" fill="none" fill-rule="evenodd" stroke-linecap="round" stroke-linejoin="round">
        <g id="Secondary" transform="translate(-7206.000000, -9925.000000)" stroke="#868E96" stroke-width="3.5">
            <g id="layouts-42" transform="translate(7208.000000, 9927.000000)">
                <rect id="Layer-1" transform="translate(65.000000, 27.000000) scale(-1, 1) translate(-65.000000, -27.000000) " x="40" y="10" width="50" height="34" rx="2"></rect>
                <path d="M79.988158,20.0118418 L90.0124769,9.98752242" id="Layer-2" transform="translate(85.000000, 15.000000) scale(-1, 1) translate(-85.000000, -15.000000) "></path>
                <path d="M69.988158,30.0118418 L90.0062447,9.99375457" id="Layer-3" transform="translate(80.000000, 20.000000) scale(-1, 1) translate(-80.000000, -20.000000) "></path>
                <path d="M59.988158,40.0118418 L90.0041637,9.99583513" id="Layer-4" transform="translate(75.000000, 25.000000) scale(-1, 1) translate(-75.000000, -25.000000) "></path>
                <path d="M49.9963236,44.0036736 L84.0041637,9.99583513" id="Layer-5" transform="translate(67.000000, 27.000000) scale(-1, 1) translate(-67.000000, -27.000000) "></path>
                <path d="M39.4787362,43.5212631 L63.0041637,19.9958351" id="Layer-6" transform="translate(51.500000, 31.500000) scale(-1, 1) translate(-51.500000, -31.500000) "></path>
                <path d="M39.4999994,43.499999 L53.0041637,29.9958351" id="Layer-7" transform="translate(46.500000, 36.500000) scale(-1, 1) translate(-46.500000, -36.500000) "></path>
                <path d="M41.9963236,44.0036736 L74.5,11.4999986" id="Layer-8" transform="translate(58.000000, 28.000000) scale(-1, 1) translate(-58.000000, -28.000000) "></path>
                <rect id="Layer-9" transform="translate(45.000000, 73.000000) scale(-1, 1) translate(-45.000000, -73.000000) " x="0" y="56" width="90" height="34" rx="2"></rect>
                <path d="M100,0 L100,100" id="Layer-10" transform="translate(100.000000, 50.000000) scale(-1, 1) translate(-100.000000, -50.000000) "></path>
            </g>
        </g>
    </g>
</svg>