<?xml version="1.0" encoding="UTF-8"?>
<svg width="104px" height="94px" viewBox="0 0 104 94" version="1.1" xmlns="http://www.w3.org/2000/svg" xmlns:xlink="http://www.w3.org/1999/xlink">
    <!-- Generator: Sketch 46 (44423) - http://www.bohemiancoding.com/sketch -->
    <title>layouts-46</title>
    <desc>Created with Sketch.</desc>
    <defs></defs>
    <g id="ALL" stroke="none" stroke-width="1" fill="none" fill-rule="evenodd" stroke-linecap="round" stroke-linejoin="round">
        <g id="Secondary" transform="translate(-8397.000000, -9925.000000)" stroke="#868E96" stroke-width="3.5">
            <g id="layouts-46" transform="translate(8449.000000, 9972.000000) rotate(90.000000) translate(-8449.000000, -9972.000000) translate(8404.000000, 9922.000000)">
                <rect id="Layer-1" x="20" y="10" width="50" height="34" rx="2"></rect>
                <path d="M19.988158,20.0118418 L30.0124769,9.98752242" id="Layer-2"></path>
                <path d="M19.988158,30.0118418 L40.0062447,9.99375457" id="Layer-3"></path>
                <path d="M19.988158,40.0118418 L50.0041637,9.99583513" id="Layer-4"></path>
                <path d="M25.9963236,44.0036736 L60.0041637,9.99583513" id="Layer-5"></path>
                <path d="M46.4787362,43.5212631 L70.0041637,19.9958351" id="Layer-6"></path>
                <path d="M56.4999994,43.499999 L70.0041637,29.9958351" id="Layer-7"></path>
                <path d="M35.9963236,44.0036736 L68.5,11.4999986" id="Layer-8"></path>
                <rect id="Layer-9" x="0" y="56" width="90" height="34" rx="2"></rect>
                <path d="M45,0 L45,10" id="Layer-10"></path>
                <path d="M45,44 L45,56" id="Layer-11"></path>
                <path d="M45,90 L45,100" id="Layer-12"></path>
            </g>
        </g>
    </g>
</svg>