<?xml version="1.0" encoding="UTF-8"?>
<svg width="584px" height="584px" viewBox="0 0 584 584" version="1.1" xmlns="http://www.w3.org/2000/svg" xmlns:xlink="http://www.w3.org/1999/xlink">
    <!-- Generator: Sketch 47 (45396) - http://www.bohemiancoding.com/sketch -->
    <title>Combined-Shape</title>
    <desc>Created with Sketch.</desc>
    <defs></defs>
    <g id="Page-1" stroke="none" stroke-width="1" fill="none" fill-rule="evenodd">
        <g id="logo-black-copy" fill-rule="nonzero" fill="#FFFFFF">
            <path d="M147.333168,219.472486 L147.333168,219.472486 L374.742091,66.1339926 C374.742091,66.1339926 370.950399,92.4604763 364.988042,130.354513 L583.634152,0 L463.529919,212.061668 C504.229649,206.585796 533.01498,203.151985 533.01498,203.151985 L350.902223,459.016264 C330.500652,493.267976 312.814051,519.450017 300.122851,532.141217 C298.777949,533.486121 297.416677,534.804677 296.039679,536.09689 L295.691489,536.586089 C295.691489,536.586089 295.658433,536.561981 295.593321,536.514329 C226.654018,600.766136 118.660148,599.308432 51.4929335,532.141217 C-17.1643222,463.483961 -17.1643222,352.168556 51.4929335,283.511301 C66.8627762,268.141459 102.019279,245.444992 147.333168,219.472486 Z M176.358026,519.434402 C238.301332,519.434402 288.516302,469.21943 288.516302,407.276125 C288.516302,345.33282 238.301332,295.11785 176.358026,295.11785 C114.41472,295.11785 64.1997492,345.33282 64.1997492,407.276125 C64.1997492,469.21943 114.41472,519.434402 176.358026,519.434402 Z" id="Combined-Shape" transform="translate(291.817072, 291.817080) scale(-1, 1) translate(-291.817072, -291.817080) "></path>
        </g>
    </g>
</svg>