<?xml version="1.0" encoding="UTF-8"?>
<svg width="104px" height="103px" viewBox="0 0 104 103" version="1.1" xmlns="http://www.w3.org/2000/svg" xmlns:xlink="http://www.w3.org/1999/xlink">
    <!-- Generator: Sketch 46 (44423) - http://www.bohemiancoding.com/sketch -->
    <title>multimedia-39</title>
    <desc>Created with Sketch.</desc>
    <defs></defs>
    <g id="ALL" stroke="none" stroke-width="1" fill="none" fill-rule="evenodd" stroke-linecap="round" stroke-linejoin="round">
        <g id="Secondary" transform="translate(-1004.000000, -3515.000000)" stroke="#868E96" stroke-width="3.5">
            <g id="multimedia-39" transform="translate(1006.000000, 3517.000000)">
                <path d="M46.5452811,46.1100902 L11.9451637,80.3742841 C8.66511162,80.6046494 5.10682377,82.1763285 3.05443331,84.2087929 C-0.410206623,87.6397955 -0.410206623,93.2025499 3.05443331,96.6335526 C6.51907324,100.064555 12.1363644,100.064555 15.6010044,96.6335526 C17.6533948,94.6010882 19.2404826,91.0773469 19.4731064,87.8291399 L19.4731064,87.8291399 L54.2156499,53.4239026 C52.601534,52.3642111 51.0697502,51.1300958 49.6474019,49.7215567 C48.4984267,48.5837366 47.4643864,47.3751983 46.5452811,46.1100902 L46.5452811,46.1100902 Z" id="Layer-1"></path>
                <path d="M49.6474019,49.7215567 C61.1334105,61.0960507 79.7559099,61.0960507 91.2419185,49.7215567 C102.727927,38.3470628 102.727927,19.9053644 91.2419185,8.53087045 C79.7559099,-2.84362348 61.1334105,-2.84362348 49.6474019,8.53087045 C38.1613933,19.9053644 38.1613933,38.3470628 49.6474019,49.7215567 L49.6474019,49.7215567 Z" id="Layer-2"></path>
                <path d="M90.0725498,50.8188764 C78.5248962,61.083465 60.7513422,60.7176918 49.6474019,49.7215567 C38.5433976,38.7253582 38.1740981,21.1242235 48.5395036,9.68868811 L61.3878333,10.546157 L62.171599,23.2414469 L75.2973538,24.3206335 L76.1965469,37.1302303 L89.1554227,38.0441581 L90.0725498,50.8188764 L90.0725498,50.8188764 L90.0725498,50.8188764 Z" id="Layer-3"></path>
            </g>
        </g>
    </g>
</svg>