<?xml version="1.0" encoding="UTF-8"?>
<svg width="103px" height="104px" viewBox="0 0 103 104" version="1.1" xmlns="http://www.w3.org/2000/svg" xmlns:xlink="http://www.w3.org/1999/xlink">
    <!-- Generator: Sketch 46 (44423) - http://www.bohemiancoding.com/sketch -->
    <title>multimedia-29</title>
    <desc>Created with Sketch.</desc>
    <defs></defs>
    <g id="ALL" stroke="none" stroke-width="1" fill="none" fill-rule="evenodd" stroke-linecap="round" stroke-linejoin="round">
        <g id="Secondary" transform="translate(-7589.000000, -3214.000000)" stroke="#868E96" stroke-width="3.5">
            <g id="multimedia-29" transform="translate(7591.000000, 3216.000000)">
                <path d="M13.1094887,99.1580502 C13.1094887,99.1580502 8.14804306,100.752698 3.41740399,95.9752213 C-1.31323508,91.1977442 0.265779078,86.1871752 0.265779078,86.1871752 L50.3842821,30.6930724 C51.6215701,34.7690876 53.8367418,38.6073477 57.0297945,41.8320148 C60.2228473,45.0566819 64.0234774,47.293786 68.0595404,48.5433272 L13.1094887,99.1580502 L13.1094887,99.1580502 Z" id="Layer-1"></path>
                <path d="M45.7108689,51.2634905 L41.9643747,55.0470787 C41.3900743,55.6270653 41.3900743,56.5674093 41.9643747,57.1473959 C42.5386751,57.7273825 43.4698001,57.7273825 44.0441005,57.1473959 L47.7905947,53.3638077 C48.3648952,52.7838211 48.3648952,51.8434771 47.7905948,51.2634905 C47.2162943,50.683504 46.2851694,50.683504 45.7108689,51.2634905 L45.7108689,51.2634905 Z" id="Layer-2" fill-rule="nonzero"></path>
                <path d="M57.0071608,42.2551183 C66.5788346,51.8267922 82.1744096,51.7499667 91.8408525,42.0835238 C101.507295,32.4170809 101.584121,16.821506 92.012447,7.24983215 C82.4407732,-2.32184167 66.8451982,-2.24501618 57.1787554,7.42142669 C47.5123125,17.0878696 47.435487,32.6834445 57.0071608,42.2551183 Z" id="Layer-3"></path>
                <path d="M94.8603531,38.4361408 C101.391247,28.8227422 100.455416,15.6928009 92.012447,7.24983215 C83.5626105,-1.20000437 70.4181732,-2.13048565 60.8026858,4.4178782 C61.3665756,4.65892224 61.8950793,5.01179515 62.3554222,5.47669586 L94.2525341,37.6896207 C94.4829899,37.9223583 94.6855879,38.1726074 94.860351,38.436144 L94.8603531,38.4361408 L94.8603531,38.4361408 Z M87.9772155,45.2482862 C78.3839612,51.6195025 65.3869929,50.6349504 57.0071608,42.2551183 C48.488585,33.7365426 47.6122017,20.4466743 54.3365041,10.8113967 C54.5749347,11.4183127 54.9370295,11.9869682 55.4230028,12.4777531 L87.3201146,44.690678 C87.5264396,44.8990458 87.7464569,45.0849092 87.9772155,45.2482862 L87.9772155,45.2482862 L87.9772155,45.2482862 Z" id="Layer-4"></path>
            </g>
        </g>
    </g>
</svg>