<?xml version="1.0" encoding="UTF-8"?>
<svg width="104px" height="104px" viewBox="0 0 104 104" version="1.1" xmlns="http://www.w3.org/2000/svg" xmlns:xlink="http://www.w3.org/1999/xlink">
    <!-- Generator: Sketch 46 (44423) - http://www.bohemiancoding.com/sketch -->
    <title>multimedia-21</title>
    <desc>Created with Sketch.</desc>
    <defs></defs>
    <g id="ALL" stroke="none" stroke-width="1" fill="none" fill-rule="evenodd" stroke-linecap="round" stroke-linejoin="round">
        <g id="Secondary" transform="translate(-5197.000000, -3214.000000)" stroke="#868E96" stroke-width="3.5">
            <g id="multimedia-21" transform="translate(5199.000000, 3216.000000)">
                <path d="M100,50 C100,77.6142375 77.6142375,100 50,100 L50,0 C77.6142375,-4.4408921e-15 100,22.3857625 100,50 Z" id="Layer-1"></path>
                <path d="M50,0 C22.3857625,-4.4408921e-15 0,22.3857625 0,50 C0,77.6142375 22.3857625,100 50,100 L50,0 L50,0 Z" id="Layer-2"></path>
                <path d="M50,50 L99.5227203,50" id="Layer-3"></path>
                <path d="M51,20 L81,20" id="Layer-4"></path>
                <path d="M50,10 L78.504385,10" id="Layer-5"></path>
                <path d="M50,30 L94.5701675,30" id="Layer-6"></path>
                <path d="M50,40 L97.5026321,40" id="Layer-7"></path>
                <path d="M50,20 L88.5810852,20" id="Layer-8"></path>
                <path d="M50,90 L78.504385,90" id="Layer-9"></path>
                <path d="M50,70 L94.5701675,70" id="Layer-10"></path>
                <path d="M50,60 L97.5026321,60" id="Layer-11"></path>
                <path d="M50,80 L88.5810852,80" id="Layer-12"></path>
            </g>
        </g>
    </g>
</svg>