<?xml version="1.0" encoding="UTF-8"?>
<svg width="114px" height="104px" viewBox="0 0 114 104" version="1.1" xmlns="http://www.w3.org/2000/svg" xmlns:xlink="http://www.w3.org/1999/xlink">
    <!-- Generator: Sketch 46 (44423) - http://www.bohemiancoding.com/sketch -->
    <title>multimedia-27</title>
    <desc>Created with Sketch.</desc>
    <defs></defs>
    <g id="ALL" stroke="none" stroke-width="1" fill="none" fill-rule="evenodd" stroke-linecap="round" stroke-linejoin="round">
        <g id="Secondary" transform="translate(-6979.000000, -3214.000000)" stroke="#868E96" stroke-width="3.5">
            <g id="multimedia-27" transform="translate(6981.000000, 3216.000000)">
                <path d="M21,30 C21,13.4314575 34.4346118,0 50.9989818,0 L59.0010182,0 C75.5689983,0 89,13.4278145 89,30 L89,60 L21,60 L21,30 L21,30 Z" id="Layer-1"></path>
                <polygon id="Layer-2" points="21 60 21 50 89 50 89 60"></polygon>
                <path d="M110,50 L110,50 C110,55.5228475 105.077794,60 98.9999298,60 L11.0000702,60 C4.92489919,60 0,55.5240618 0,50 L0,50 L0,50" id="Layer-3"></path>
                <polygon id="Layer-4" points="60.8149268 87 64.8720947 100 45.799292 100 49.46354 87"></polygon>
            </g>
        </g>
    </g>
</svg>