<?xml version="1.0" encoding="UTF-8"?>
<svg width="104px" height="74px" viewBox="0 0 104 74" version="1.1" xmlns="http://www.w3.org/2000/svg" xmlns:xlink="http://www.w3.org/1999/xlink">
    <!-- Generator: Sketch 46 (44423) - http://www.bohemiancoding.com/sketch -->
    <title>multimedia-5</title>
    <desc>Created with Sketch.</desc>
    <defs></defs>
    <g id="ALL" stroke="none" stroke-width="1" fill="none" fill-rule="evenodd" stroke-linecap="round" stroke-linejoin="round">
        <g id="Secondary" transform="translate(-416.000000, -3214.000000)" stroke="#868E96" stroke-width="3.5">
            <g id="multimedia-5" transform="translate(418.000000, 3216.000000)">
                <rect id="Layer-1" x="0" y="0" width="100" height="70" rx="3"></rect>
                <path d="M84.3356546,29.1114206 C83.1866295,23.4122563 79.3259053,19 72.3857939,19 C64.2506964,19 58,25.7103064 58,35.591922 L58,35.591922 C58,45.9331476 63.8830084,52 71.7423398,52 C79.3259053,52 83.2325905,47.3119777 84.4275766,41.3830084" id="Layer-2"></path>
                <path d="M42.3356546,29.1114206 C41.1866295,23.4122563 37.3259053,19 30.3857939,19 C22.2506964,19 16,25.7103064 16,35.591922 L16,35.591922 C16,45.9331476 21.8830084,52 29.7423398,52 C37.3259053,52 41.2325905,47.3119777 42.4275766,41.3830084" id="Layer-3"></path>
            </g>
        </g>
    </g>
</svg>