<?xml version="1.0" encoding="UTF-8"?>
<svg width="104px" height="104px" viewBox="0 0 104 104" version="1.1" xmlns="http://www.w3.org/2000/svg" xmlns:xlink="http://www.w3.org/1999/xlink">
    <!-- Generator: Sketch 46 (44423) - http://www.bohemiancoding.com/sketch -->
    <title>multimedia-23</title>
    <desc>Created with Sketch.</desc>
    <defs></defs>
    <g id="ALL" stroke="none" stroke-width="1" fill="none" fill-rule="evenodd" stroke-linecap="round" stroke-linejoin="round">
        <g id="Secondary" transform="translate(-5797.000000, -3214.000000)" stroke="#868E96" stroke-width="3.5">
            <g id="multimedia-23" transform="translate(5799.000000, 3216.000000)">
                <path d="M50.2435006,10.1229142 L50.2435006,0 M68.8821759,14.7482932 L73.6345962,5.81029046 M83.3129116,27.6405855 L91.6051174,21.8343204 M90.1102874,45.7405864 L100.157747,44.5069135 M87.7998663,64.9540639 L97.2504208,68.5817919 M76.8432792,80.9501708 L83.6168309,88.4729622 M59.840931,89.9328841 L62.2898856,99.7551045 M40.6460702,89.9328841 L38.1971156,99.7551045 M23.6437219,80.9501708 L16.8701702,88.4729622 M12.6871348,64.9540639 L3.23658028,68.5817919 M10.3767137,45.7405864 L0.329254133,44.5069135 M17.1740896,27.6405855 L8.88188369,21.8343204 M31.6048253,14.7482932 L26.8524049,5.81029046" id="Layer-1"></path>
                <path d="M76,51.5 C62.4690236,51.5 51.5,40.5309764 51.5,27 C51.5,40.5309764 40.5309764,51.5 27,51.5 C40.5309764,51.5 51.5,62.4690236 51.5,76 C51.5,62.4690236 62.4690236,51.5 76,51.5 L76,51.5 Z" id="Layer-2"></path>
            </g>
        </g>
    </g>
</svg>