<?xml version="1.0" encoding="UTF-8"?>
<svg width="104px" height="104px" viewBox="0 0 104 104" version="1.1" xmlns="http://www.w3.org/2000/svg" xmlns:xlink="http://www.w3.org/1999/xlink">
    <!-- Generator: Sketch 46 (44423) - http://www.bohemiancoding.com/sketch -->
    <title>multimedia-8</title>
    <desc>Created with Sketch.</desc>
    <defs></defs>
    <g id="ALL" stroke="none" stroke-width="1" fill="none" fill-rule="evenodd" stroke-linecap="round" stroke-linejoin="round">
        <g id="Secondary" transform="translate(-1306.000000, -3214.000000)" stroke="#868E96" stroke-width="3.5">
            <g id="multimedia-8" transform="translate(1308.000000, 3216.000000)">
                <path d="M50,100 C77.6142375,100 100,77.6142375 100,50 C100,22.3857625 77.6142375,0 50,0 C22.3857625,0 0,22.3857625 0,50 C0,77.6142375 22.3857625,100 50,100 L50,100 L50,100 Z M66,77 C72.0751322,77 77,72.0751322 77,66 C77,59.9248678 72.0751322,55 66,55 C59.9248678,55 55,59.9248678 55,66 C55,72.0751322 59.9248678,77 66,77 L66,77 L66,77 Z M66,45 C72.0751322,45 77,40.0751322 77,34 C77,27.9248678 72.0751322,23 66,23 C59.9248678,23 55,27.9248678 55,34 C55,40.0751322 59.9248678,45 66,45 L66,45 L66,45 Z M50,54 C52.209139,54 54,52.209139 54,50 C54,47.790861 52.209139,46 50,46 C47.790861,46 46,47.790861 46,50 C46,52.209139 47.790861,54 50,54 L50,54 L50,54 Z M34,77 C40.0751322,77 45,72.0751322 45,66 C45,59.9248678 40.0751322,55 34,55 C27.9248678,55 23,59.9248678 23,66 C23,72.0751322 27.9248678,77 34,77 L34,77 L34,77 Z M34,45 C40.0751322,45 45,40.0751322 45,34 C45,27.9248678 40.0751322,23 34,23 C27.9248678,23 23,27.9248678 23,34 C23,40.0751322 27.9248678,45 34,45 L34,45 L34,45 Z" id="Layer-1"></path>
                <path d="M50,100 C50,100 75.0138441,99.5467912 88.033833,96.6530753 C101.053822,93.7593595 99.9783829,80 99.9783829,80" id="Layer-2"></path>
            </g>
        </g>
    </g>
</svg>