<?xml version="1.0" encoding="UTF-8"?>
<svg width="104px" height="104px" viewBox="0 0 104 104" version="1.1" xmlns="http://www.w3.org/2000/svg" xmlns:xlink="http://www.w3.org/1999/xlink">
    <!-- Generator: Sketch 46 (44423) - http://www.bohemiancoding.com/sketch -->
    <title>multimedia-11</title>
    <desc>Created with Sketch.</desc>
    <defs></defs>
    <g id="ALL" stroke="none" stroke-width="1" fill="none" fill-rule="evenodd" stroke-linecap="round" stroke-linejoin="round">
        <g id="Secondary" transform="translate(-2206.000000, -3214.000000)" stroke="#868E96" stroke-width="3.5">
            <g id="multimedia-11" transform="translate(2208.000000, 3216.000000)">
                <path d="M48.385739,99.8603249 C43.9254031,99.7471008 39.6106036,99.0483206 35.5153424,97.8379863 C18.7955864,92.8965446 5.73520678,79.4282608 1.37023842,62.4691696 L1.37023842,62.4691696 L57.1990784,62.4691696 L36.6459451,98.0682408" id="Layer-1"></path>
                <path d="M85.276884,85.276884 C72.6108554,97.9589327 53.9329246,102.883915 36.6459451,98.0682408 L64.3981569,50 L84.9512902,85.5990712 L84.9512902,85.5990712 C85.0603829,85.4921143 85.1689146,85.384717 85.276884,85.2768839 L85.276884,85.276884 Z" id="Layer-2"></path>
                <path d="M98.1891197,37.0877643 C102.839082,54.3978911 97.7652757,73.0359446 84.9512902,85.5990712 L84.9512902,85.5990712 L57.1990784,37.5308304 L98.3053451,37.5308304 L98.3053451,37.5308304 C98.267264,37.3828749 98.2285211,37.2351851 98.1891197,37.0877643 L98.1891197,37.0877643 Z" id="Layer-3"></path>
                <path d="M62.9122357,1.81088034 C80.2282263,6.43895846 93.8323511,20.1520301 98.3053451,37.5308304 L98.3053451,37.5308304 L42.8009216,37.5308304 L63.3540549,1.93175915 C63.2068811,1.89076061 63.0596065,1.85046808 62.9122357,1.81088034 L62.9122357,1.81088034 Z" id="Layer-4"></path>
                <path d="M14.723116,14.723116 C27.3891446,2.04106731 46.0670754,-2.88391452 63.3540549,1.93175915 L35.6018431,50 L15.0487098,14.4009288 C14.9396171,14.5078857 14.8310854,14.615283 14.723116,14.7231161 L14.723116,14.723116 L14.723116,14.723116 Z" id="Layer-5"></path>
                <path d="M1.69405707,62.4691696 C-2.75199608,45.2847182 2.34398188,26.8569367 15.0487098,14.4009288 L42.8009216,62.4691696 L1.69405707,62.4691696 L1.69405707,62.4691696 Z" id="Layer-6"></path>
            </g>
        </g>
    </g>
</svg>