<?xml version="1.0" encoding="UTF-8"?>
<svg width="104px" height="104px" viewBox="0 0 104 104" version="1.1" xmlns="http://www.w3.org/2000/svg" xmlns:xlink="http://www.w3.org/1999/xlink">
    <!-- Generator: Sketch 46 (44423) - http://www.bohemiancoding.com/sketch -->
    <title>multimedia-2</title>
    <desc>Created with Sketch.</desc>
    <defs></defs>
    <g id="ALL" stroke="none" stroke-width="1" fill="none" fill-rule="evenodd" stroke-linecap="round" stroke-linejoin="round">
        <g id="Secondary" transform="translate(-9009.000000, -2912.000000)" stroke="#868E96" stroke-width="3.5">
            <g id="multimedia-2" transform="translate(9011.000000, 2914.000000)">
                <path d="M15,65 L2.99942248,65 C1.34288718,65 0,63.6526814 0,61.9999809 L0,38.0000191 L0,38.0000191 C0,36.3431543 1.34435073,35 2.99942248,35 L15,35" id="Layer-1"></path>
                <path d="M20.6447571,69.7123408 L15,65.0087794 L15,34.7354238 L41.1547359,12.9416772 C43.2784166,11.1720948 45,11.9681965 45,14.728427 L45,48.3847656 L45,63.6982422 L45,85.0157762 C45,87.7721532 43.2855196,88.578027 41.1608348,86.807608 L31.0178963,78.3558831" id="Layer-2"></path>
                <path d="M73,87.1369725 C88.5904175,82.0307768 99.8510697,67.363628 99.8510697,50.0664131 C99.8510697,39.1713658 95.3835197,29.3197707 88.1804186,22.2436267" id="Layer-3"></path>
                <path d="M67,73.4633961 C77.3361812,70.7887497 84.9700853,61.3994824 84.9700853,50.2272212 C84.9700853,43.4381383 82.1511392,37.3074555 77.6198717,32.9417974" id="Layer-4"></path>
                <path d="M61,60 C66.5228475,60 71,55.5228475 71,50 C71,47.1382492 69.7979033,44.5572632 67.8711126,42.7344446" id="Layer-5"></path>
                <path d="M100,0 L0.287914485,99.7120819" id="Layer-6"></path>
            </g>
        </g>
    </g>
</svg>