<?xml version="1.0" encoding="UTF-8"?>
<svg width="104px" height="104px" viewBox="0 0 104 104" version="1.1" xmlns="http://www.w3.org/2000/svg" xmlns:xlink="http://www.w3.org/1999/xlink">
    <!-- Generator: Sketch 46 (44423) - http://www.bohemiancoding.com/sketch -->
    <title>numbers-12</title>
    <desc>Created with Sketch.</desc>
    <defs></defs>
    <g id="ALL" stroke="none" stroke-width="1" fill="none" fill-rule="evenodd" stroke-linecap="round" stroke-linejoin="round">
        <g id="Secondary" transform="translate(-3706.000000, -10227.000000)" stroke="#868E96" stroke-width="3.5">
            <g id="numbers-12" transform="translate(3708.000000, 10229.000000)">
                <path d="M50,100 C77.6142375,100 100,77.6142375 100,50 C100,22.3857625 77.6142375,0 50,0 C22.3857625,0 0,22.3857625 0,50 C0,77.6142375 22.3857625,100 50,100 Z" id="Layer-1"></path>
                <path d="M64.8695652,36.9565217 C64.8695652,30 59.7971014,25.6521739 52.2608696,25.1449275 C49.7246377,25 48.5652174,25 46.6086957,25 L34,25 L34,75 L47.9130435,75 C49.6521739,75 51.0289855,75 52.8405797,74.8550725 C60.3043478,74.4202899 66.7536232,69.7101449 66.7536232,61.7391304 C66.7536232,54.9275362 62.9855072,49.7826087 55.1594203,48.6231884 C61.173913,47.6811594 64.8695652,43.2608696 64.8695652,36.9565217 L64.8695652,36.9565217 Z" id="Layer-2"></path>
                <path d="M56.500227,48.6 L34.4762039,48.6" id="Layer-3"></path>
            </g>
        </g>
    </g>
</svg>