<?xml version="1.0" encoding="UTF-8"?>
<svg width="104px" height="104px" viewBox="0 0 104 104" version="1.1" xmlns="http://www.w3.org/2000/svg" xmlns:xlink="http://www.w3.org/1999/xlink">
    <!-- Generator: Sketch 46 (44423) - http://www.bohemiancoding.com/sketch -->
    <title>numbers-8</title>
    <desc>Created with Sketch.</desc>
    <defs></defs>
    <g id="ALL" stroke="none" stroke-width="1" fill="none" fill-rule="evenodd" stroke-linecap="round" stroke-linejoin="round">
        <g id="Secondary" transform="translate(-2506.000000, -10227.000000)" stroke="#868E96" stroke-width="3.5">
            <g id="numbers-8" transform="translate(2508.000000, 10229.000000)">
                <circle id="Layer-1" cx="50" cy="50" r="50"></circle>
                <path d="M57.4848576,48.6000004 C63.1860146,46.7680424 66.72,41.618185 66.72,35.32 C66.72,27.48 61.52,21 50.72,21 C40.4,21 34.72,27.48 34.72,35.32 C34.72,41.584453 37.6917982,46.669809 43.2190056,48.6000004 L52.6793766,48.6000004 C52.6793766,48.6000004 43.6041518,48.4818274 43.2190056,48.6000004 C36.171582,50.7623349 32,56.3413857 32,63.32 C32,73.16 39.76,78.52 50.08,78.52 C59.76,78.52 68.16,73.16 68.16,63.32 C68.16,56.1432963 64.7797723,50.6187368 57.4848576,48.6000004 C57.2482748,48.5345304 52.3515568,48.6000004 52.3515568,48.6000004 L57.4848576,48.6000004 Z" id="Layer-2"></path>
            </g>
        </g>
    </g>
</svg>