<?xml version="1.0" encoding="UTF-8"?>
<svg width="104px" height="104px" viewBox="0 0 104 104" version="1.1" xmlns="http://www.w3.org/2000/svg" xmlns:xlink="http://www.w3.org/1999/xlink">
    <!-- Generator: Sketch 46 (44423) - http://www.bohemiancoding.com/sketch -->
    <title>numbers-17</title>
    <desc>Created with Sketch.</desc>
    <defs></defs>
    <g id="ALL" stroke="none" stroke-width="1" fill="none" fill-rule="evenodd" stroke-linecap="round" stroke-linejoin="round">
        <g id="Secondary" transform="translate(-5206.000000, -10227.000000)" stroke="#868E96" stroke-width="3.5">
            <g id="numbers-17" transform="translate(5208.000000, 10229.000000)">
                <path d="M50,100 C77.6142375,100 100,77.6142375 100,50 C100,22.3857625 77.6142375,0 50,0 C22.3857625,0 0,22.3857625 0,50 C0,77.6142375 22.3857625,100 50,100 Z" id="Layer-1"></path>
                <path d="M70,59.5 L70,74.5332966" id="Layer-2"></path>
                <path d="M69.902507,40.3203343 C68.1615599,31.6852368 62.3119777,25 51.7966574,25 C39.4707521,25 30,35.1671309 30,50.1392758 C30,65.8077994 38.913649,75 50.821727,75 C61.5794837,75 67.4538665,68.7736984 69.645042,60.607404" id="Layer-3"></path>
                <path d="M70,59.5 L57.5,59.5" id="Layer-4"></path>
            </g>
        </g>
    </g>
</svg>