<?xml version="1.0" encoding="UTF-8"?>
<svg width="104px" height="104px" viewBox="0 0 104 104" version="1.1" xmlns="http://www.w3.org/2000/svg" xmlns:xlink="http://www.w3.org/1999/xlink">
    <!-- Generator: Sketch 46 (44423) - http://www.bohemiancoding.com/sketch -->
    <title>numbers-14</title>
    <desc>Created with Sketch.</desc>
    <defs></defs>
    <g id="ALL" stroke="none" stroke-width="1" fill="none" fill-rule="evenodd" stroke-linecap="round" stroke-linejoin="round">
        <g id="Secondary" transform="translate(-4306.000000, -10227.000000)" stroke="#868E96" stroke-width="3.5">
            <g id="numbers-14" transform="translate(4308.000000, 10229.000000)">
                <path d="M50,100 C77.6142375,100 100,77.6142375 100,50 C100,22.3857625 77.6142375,0 50,0 C22.3857625,0 0,22.3857625 0,50 C0,77.6142375 22.3857625,100 50,100 Z" id="Layer-1"></path>
                <path d="M48.4202899,25 L34,25 L34,75 L48.4202899,75 C50.7391304,75 52.2608696,75 54.7971014,74.7101449 C61.5362319,73.9130435 73.4927536,67.3913043 73.4927536,49.7826087 C73.4927536,32.1014493 61.3913043,25.7246377 53.7101449,25.1449275 C51.8985507,25 50.7391304,25 48.4202899,25 Z" id="Layer-2"></path>
            </g>
        </g>
    </g>
</svg>