<?xml version="1.0" encoding="UTF-8"?>
<svg width="104px" height="114px" viewBox="0 0 104 114" version="1.1" xmlns="http://www.w3.org/2000/svg" xmlns:xlink="http://www.w3.org/1999/xlink">
    <!-- Generator: Sketch 46 (44423) - http://www.bohemiancoding.com/sketch -->
    <title>office-22</title>
    <desc>Created with Sketch.</desc>
    <defs></defs>
    <g id="ALL" stroke="none" stroke-width="1" fill="none" fill-rule="evenodd" stroke-linecap="round" stroke-linejoin="round">
        <g id="Secondary" transform="translate(-1298.000000, -6881.000000)" stroke="#868E96" stroke-width="3.5">
            <g id="office-22" transform="translate(1300.000000, 6883.000000)">
                <rect id="Layer-1" x="15" y="68" width="70" height="10"></rect>
                <path d="M0,55.4928801 C0,51.3546767 3.36629279,48 7.5,48 L7.5,48 C11.6421356,48 15,51.3540569 15,55.4928801 L15,78 L7.5,78 C3.35786438,78 0,74.6459431 0,70.5071199 L0,55.4928801 Z" id="Layer-2"></path>
                <path d="M85,55.4928801 C85,51.3546767 88.3662928,48 92.5,48 L92.5,48 C96.6421356,48 100,51.3540569 100,55.4928801 L100,70.5071199 C100,74.6453233 96.6337072,78 92.5,78 L85,78 L85,55.4928801 Z" id="Layer-3"></path>
                <path d="M50,78 L50,86.5" id="Layer-4"></path>
                <path d="M50,97.5 L50,102" id="Layer-5"></path>
                <path d="M20,102 L20,102 L20,102 C20,99.2385763 24.485214,97 30.0088711,97 L69.9911289,97 C75.5188758,97 80,99.2379691 80,102 L80,102" id="Layer-6"></path>
                <circle id="Layer-7" cx="20" cy="106" r="4"></circle>
                <circle id="Layer-8" cx="80" cy="106" r="4"></circle>
                <circle id="Layer-9" cx="50" cy="106" r="4"></circle>
                <path d="M44,92 C44,89.2385763 46.2289849,87 49.0021863,87 L50.9978137,87 C53.7604449,87 56,89.2441952 56,92 L56,97 L44,97 L44,92 Z" id="Layer-10"></path>
                <path d="M15,20.0000633 C15,8.95433332 23.9544592,0 35.0006272,0 L64.9993728,0 C76.0454142,0 85,8.95973771 85,20.0000633 L85,68 L15,68 L15,20.0000633 Z" id="Layer-11"></path>
                <path d="M44.3431458,29.3431458 L55.6568542,40.6568542" id="Layer-12"></path>
                <path d="M44.3431458,40.6568542 L55.6568542,29.3431458" id="Layer-13"></path>
            </g>
        </g>
    </g>
</svg>