<?xml version="1.0" encoding="UTF-8"?>
<svg width="104px" height="103px" viewBox="0 0 104 103" version="1.1" xmlns="http://www.w3.org/2000/svg" xmlns:xlink="http://www.w3.org/1999/xlink">
    <!-- Generator: Sketch 46 (44423) - http://www.bohemiancoding.com/sketch -->
    <title>office-31</title>
    <desc>Created with Sketch.</desc>
    <defs></defs>
    <g id="ALL" stroke="none" stroke-width="1" fill="none" fill-rule="evenodd" stroke-linecap="round" stroke-linejoin="round">
        <g id="Secondary" transform="translate(-4020.000000, -6881.000000)" stroke="#868E96" stroke-width="3.5">
            <g id="office-31" transform="translate(4022.000000, 6883.000000)">
                <path d="M58.3613585,55.7103101 L54.271696,78.8399269 L7.72887378,99.1061793 L0.594485505,92.1076841 L20.5134889,45.7247332 L44.0922245,41.7129691 L58.3613585,55.7103101 L58.3613585,55.7103101 L58.3613585,55.7103101 L58.3613585,55.7103101 L58.3613585,55.7103101 Z M34.0063274,66.26511 C36.0571831,68.2769018 39.3825063,68.2766772 41.4336445,66.2646082 C43.4847828,64.2525393 43.4850118,60.9905556 41.4341561,58.9787638 C39.3833004,56.966972 36.0579772,56.9671967 34.006839,58.9792656 C31.9557007,60.9913346 31.9554717,64.2533182 34.0063274,66.26511 L34.0063274,66.26511 L34.0063274,66.26511 L34.0063274,66.26511 Z" id="Layer-1"></path>
                <path d="M5.31040973,94.4169023 L33.9783361,66.2950316" id="Layer-2"></path>
                <polygon id="Layer-3" points="47.8481689 32.1531304 68.1030932 52.0222466 61.3505216 58.6461977 41.0955974 38.7770815"></polygon>
                <path d="M65.1558357,1.8717704 C66.7843498,-0.212688018 69.6427625,-0.393533971 71.5428909,1.47040152 L98.4243586,27.8398412 C100.323318,29.7026297 100.186952,32.5644441 98.118069,34.2332606 L76.194556,51.9173533 C73.709157,53.9221428 69.8511751,53.7392859 67.5711311,51.5026713 L48.3754147,32.6725876 C46.0982277,30.4387756 45.8356923,26.6010851 47.7973802,24.0901722 L65.1558357,1.8717704 L65.1558357,1.8717704 Z" id="Layer-4"></path>
            </g>
        </g>
    </g>
</svg>