<?xml version="1.0" encoding="UTF-8"?>
<svg width="95px" height="104px" viewBox="0 0 95 104" version="1.1" xmlns="http://www.w3.org/2000/svg" xmlns:xlink="http://www.w3.org/1999/xlink">
    <!-- Generator: Sketch 46 (44423) - http://www.bohemiancoding.com/sketch -->
    <title>office-37</title>
    <desc>Created with Sketch.</desc>
    <defs></defs>
    <g id="ALL" stroke="none" stroke-width="1" fill="none" fill-rule="evenodd" stroke-linecap="round" stroke-linejoin="round">
        <g id="Secondary" transform="translate(-5807.000000, -6881.000000)" stroke="#868E96" stroke-width="3.5">
            <g id="office-37" transform="translate(5809.000000, 6883.000000)">
                <path d="M82.9010989,0 L90.989011,0 L90.989011,100 L0,100 L0,0 L8.08791209,0 C8.08791209,3.86599325 11.2563585,7 15.1648352,7 C19.0733119,7 22.2417582,3.86599325 22.2417582,8.8817842e-16 L28.3076923,0 C28.3076923,3.86599325 31.4761387,7 35.3846154,7 C39.2930921,7 42.4615385,3.86599325 42.4615385,8.8817842e-16 L48.5274725,0 C48.5274725,3.86599325 51.6959189,7 55.6043956,7 C59.5128723,7 62.6813187,3.86599325 62.6813187,8.8817842e-16 L68.7472527,0 C68.7472527,3.86599325 71.9156991,7 75.8241758,7 C79.7326525,7 82.9010989,3.86599325 82.9010989,8.8817842e-16 L82.9010989,0 Z" id="Layer-1"></path>
                <path d="M15.1648352,100 L90.989011,100 L90.989011,0 L82.9010989,0 L82.9010989,8.8817842e-16 C82.9010989,3.86599325 79.7326525,7 75.8241758,7 C71.9156991,7 68.7472527,3.86599325 68.7472527,0 L62.6813187,8.8817842e-16 C62.6813187,3.86599325 59.5128723,7 55.6043956,7 C51.6959189,7 48.5274725,3.86599325 48.5274725,0 L42.4615385,8.8817842e-16 C42.4615385,3.86599325 39.2930921,7 35.3846154,7 C31.4761387,7 28.3076923,3.86599325 28.3076923,0 L22.2417582,8.8817842e-16 C22.2417582,3.86599325 19.0733119,7 15.1648352,7 L15.1648352,100 L15.1648352,100 Z" id="Layer-2"></path>
                <path d="M15.1648352,42.5 L91.0114719,42.5" id="Layer-3"></path>
                <path d="M15.1648352,56.5 L91.0114719,56.5" id="Layer-4"></path>
                <path d="M15.1648352,85.5 L91.0114719,85.5" id="Layer-5"></path>
                <path d="M15.1648352,70.5 L91.0114719,70.5" id="Layer-6"></path>
                <path d="M15.1648352,28.5 L90.989011,28.5" id="Layer-7"></path>
            </g>
        </g>
    </g>
</svg>