<?xml version="1.0" encoding="UTF-8"?>
<svg width="94px" height="104px" viewBox="0 0 94 104" version="1.1" xmlns="http://www.w3.org/2000/svg" xmlns:xlink="http://www.w3.org/1999/xlink">
    <!-- Generator: Sketch 46 (44423) - http://www.bohemiancoding.com/sketch -->
    <title>office-18</title>
    <desc>Created with Sketch.</desc>
    <defs></defs>
    <g id="ALL" stroke="none" stroke-width="1" fill="none" fill-rule="evenodd" stroke-linecap="round" stroke-linejoin="round">
        <g id="Secondary" transform="translate(-9665.000000, -6565.000000)" stroke="#868E96" stroke-width="3.5">
            <g id="office-18" transform="translate(9667.000000, 6567.000000)">
                <path d="M80,20 L80,90 L5,90 C3.36418217,90 1.91184014,90.7855533 0.999633813,92 L0,92 L0,4.99528504 C0,2.2285847 2.24052752,0 5.00435829,0 L79.5,0 L90,0 L90,20 L80,20 L80,20 Z" id="Layer-1"></path>
                <path d="M59.5785345,66 C59.0252371,56.7776998 47.0760436,58.1198267 45.2973701,53.3381189 C45.1491474,51.7015769 44.803601,49.3967497 44.803601,49.3967497 L44.803601,49.3967497 L47.5848516,44.3032922 C47.5848516,44.3032922 49.0009095,43.4853642 49.269944,41.2407027 C49.4151211,40.0356311 48.8084332,39.1307923 48.4571655,38.9175952 C49.4053852,36.0658293 51.3085256,26.1654816 40.289268,26 C31.3004695,26.1654816 30.0907374,31.3338675 32.0612883,38.9175952 C31.7110358,39.1307923 31.1644286,40.0356311 31.3085905,41.2407027 C31.5786402,43.4853642 33.1646015,44.3032922 33.1646015,44.3032922 L35.6717545,49.1701356 C35.6717545,49.1701356 35.4821788,51.7015769 35.333956,53.3381189 C33.5552825,58.1198267 21.5543126,56.7776998 21,66" id="Layer-2"></path>
                <rect id="Layer-3" x="80" y="20" width="10" height="20"></rect>
                <rect id="Layer-4" x="80" y="40" width="10" height="20"></rect>
                <rect id="Layer-5" x="80" y="60" width="10" height="20"></rect>
                <path d="M5,90 C2.23857625,90 0,92.2385763 0,95 C0,97.7614237 2.23857625,100 5,100 L80,100 L80,90 L5,90 L5,90 Z" id="Layer-6"></path>
            </g>
        </g>
    </g>
</svg>