<?xml version="1.0" encoding="UTF-8"?>
<svg width="94px" height="114px" viewBox="0 0 94 114" version="1.1" xmlns="http://www.w3.org/2000/svg" xmlns:xlink="http://www.w3.org/1999/xlink">
    <!-- Generator: Sketch 46 (44423) - http://www.bohemiancoding.com/sketch -->
    <title>office-1</title>
    <desc>Created with Sketch.</desc>
    <defs></defs>
    <g id="ALL" stroke="none" stroke-width="1" fill="none" fill-rule="evenodd" stroke-linecap="round" stroke-linejoin="round">
        <g id="Secondary" transform="translate(-4531.000000, -6565.000000)" stroke="#868E96" stroke-width="3.5">
            <g id="office-1" transform="translate(4533.000000, 6567.000000)">
                <rect id="Layer-1" x="0" y="10" width="90" height="100"></rect>
                <path d="M25,18 L8,18 L8,102 L82,102 L82,18 L65,18 L65,19.002848 C65,20.6581293 63.6576906,22 61.9934988,22 L28.0065012,22 C26.3460564,22 25,20.6583772 25,19.002848 L25,18 L25,18 Z" id="Layer-2"></path>
                <path d="M55,10 C55,4.4771525 50.5228475,0 45,0 C39.4771525,0 35,4.4771525 35,10 L55,10 L55,10 Z" id="Layer-3"></path>
                <path d="M25,10 L65,10 L65,19.002848 C65,20.6581293 63.6576906,22 61.9934988,22 L28.0065012,22 C26.3460564,22 25,20.6583772 25,19.002848 L25,10 Z" id="Layer-4"></path>
                <path d="M50,10 C50,7.23857625 47.7614237,5 45,5 C42.2385763,5 40,7.23857625 40,10 L50,10 L50,10 Z" id="Layer-5"></path>
            </g>
        </g>
    </g>
</svg>