<?xml version="1.0" encoding="UTF-8"?>
<svg width="98px" height="104px" viewBox="0 0 98 104" version="1.1" xmlns="http://www.w3.org/2000/svg" xmlns:xlink="http://www.w3.org/1999/xlink">
    <!-- Generator: Sketch 46 (44423) - http://www.bohemiancoding.com/sketch -->
    <title>office-10</title>
    <desc>Created with Sketch.</desc>
    <defs></defs>
    <g id="ALL" stroke="none" stroke-width="1" fill="none" fill-rule="evenodd" stroke-linecap="round" stroke-linejoin="round">
        <g id="Secondary" transform="translate(-7201.000000, -6565.000000)" stroke="#868E96" stroke-width="3.5">
            <g id="office-10" transform="translate(7203.000000, 6567.000000)">
                <path d="M57.8437796,6.67192853 L7.70237018,56.7480213 C-2.19608948,66.6335867 -2.19760492,82.653779 7.69530294,92.5337999 C17.590386,102.415993 33.6309477,102.410661 43.5277587,92.5267419 L93.6691681,42.4506491 M85.0701672,33.8628498 L46.3932617,72.4911857 C41.2453381,77.6324034 32.9029637,77.6364568 27.7575205,72.4977164 C22.6132084,67.3601055 22.6114496,59.0321491 27.7640597,53.886251 L55.6033636,26.0832119 M85.0701672,33.8628498 C92.9906233,25.9545241 93.3132598,13.4581119 85.7946498,5.94929609 C78.2743867,-1.56117076 65.762009,-1.23598621 57.8437796,6.67192853 M85.0701672,33.8628498 L85.0701672,33.8628498" id="Layer-1"></path>
            </g>
        </g>
    </g>
</svg>