<?xml version="1.0" encoding="UTF-8"?>
<svg width="56px" height="56px" viewBox="0 0 56 56" version="1.1" xmlns="http://www.w3.org/2000/svg" xmlns:xlink="http://www.w3.org/1999/xlink">
    <!-- Generator: Sketch 46.2 (44496) - http://www.bohemiancoding.com/sketch -->
    <title>wolf-b</title>
    <desc>Created with Sketch.</desc>
    <defs></defs>
    <g id="Page-1" stroke="none" stroke-width="1" fill="none" fill-rule="evenodd">
        <g id="wolf-b" fill-rule="nonzero" fill="#000000">
            <path d="M40.4198373,23.3154509 C40.8001808,22.9293591 45.5953465,17.8356448 46.280172,17.134079 C46.5184927,16.8895779 46.7076254,16.8508978 46.8337137,17.1986643 C47.0179966,17.7075389 47.1901552,18.2235109 47.3262889,18.7476446 C47.5265065,19.5176989 47.6903518,20.2976895 47.8576614,21.0209018 C48.3194075,21.1209734 51.1750999,21.8126029 52.1256116,22.1582402 C53.3563582,22.6057234 54.5586996,23.138019 55.7606951,23.6642819 C56.0880404,23.8076469 56.0561719,23.9857885 55.8064195,24.2324188 C55.3935154,24.6405122 49.8923938,29.0692119 49.4926527,29.3009379 C49.6170088,29.3722656 53.4339511,29.6834811 54.4991195,29.8151355 C54.8759987,29.8616227 54.9854603,30.1895168 54.8354708,30.5394124 C54.2427867,31.9233811 50.7802078,35.8279471 49.9862674,36.6405851 C49.8882375,36.7413664 43.4400668,30.5394113 41.403949,28.6692808 C41.3547611,28.6859593 40.9179542,29.3204558 40.9941618,29.4130753 C41.5508209,30.0908651 49.0638139,36.9514457 49.9869601,38.0341351 C50.3226179,38.4276789 51.3247434,40.2616149 51.4012969,40.7782961 C51.4958625,41.4181158 51.4903208,42.0902278 51.4172308,42.7353699 C51.3119262,43.6672423 51.2048895,44.6200515 50.9211912,45.5047269 C50.5238743,46.7442656 48.0797014,48.1200728 47.9179342,48.1903354 C47.6065236,48.326249 47.3609291,48.1580432 47.3730527,47.809567 C47.3893334,47.3287265 47.3533085,46.8329822 47.4596517,46.3730786 C47.5434799,46.0118274 50.2568026,40.7822003 50.4407396,40.1689956 C50.4788426,40.0412446 50.3343956,39.7509659 50.2086542,39.6977367 C49.9000143,39.5667913 43.0531429,40.2204509 42.4230478,40.4713396 C42.1660216,40.5738945 42.1213366,40.7417455 42.2772154,40.9614059 C42.7843391,41.6757466 46.444364,46.0331192 46.6487379,46.2346814 C46.5739159,46.8595964 46.5015194,47.4153136 46.4426319,47.9728046 C46.4010645,48.3677679 46.2961059,48.4557739 45.9490172,48.2978594 C44.3978541,47.5931002 42.8536187,46.8709526 41.3007234,46.1700968 C40.6477665,45.8755597 33.4932948,42.6615588 32.2227127,42.0788725 C31.6362636,41.8102405 31.0435793,41.5550934 30.4502024,41.3024301 C30.1671965,41.1817769 29.8027874,41.3620472 29.8356951,41.6533908 C29.9257581,42.4532537 30.4502024,44.5138921 30.4502024,44.5138921 L32.3663611,43.0363707 L32.7565097,45.4717247 L34.7173855,44.2419994 L35.2194991,46.6449713 L36.9796683,45.3190656 L37.425933,47.809567 L39.3523384,46.3730786 L40.0017374,48.909881 L41.7752566,47.5376744 L42.6498823,50.0012059 L44.1869381,48.4234745 L45.0248316,50.5132738 L46.3684035,48.9650197 L47.2389972,50.7847445 L48.1367508,49.0483288 C48.1367508,49.0483288 48.864289,50.2957469 48.864289,51.1577068 C48.864289,52.0196659 48.5445374,53.138889 47.3262889,54.3019917 C46.1080411,55.4650943 44.9359043,55.4563654 44.9359043,55.4563654 C44.5222615,55.5162578 43.8641541,55.461045 43.4517785,55.3284772 L22.9967863,48.7527584 C21.3763976,48.231848 18.9672558,46.9652258 17.6021976,45.9135008 C17.6021976,45.9135008 0.993395429,33.1089623 0.405509425,32.7282121 C-0.180246893,32.3488627 -0.127248263,31.8307616 0.537486466,31.5426123 C1.20637793,31.2523338 6.67182059,29.4815636 6.82111743,29.4130749 C6.22739393,28.9900772 2.44751628,26.0738069 1.10523019,24.9829557 C0.857556765,24.7817479 0.728697315,24.4811783 1.07440089,24.247678 C1.67886266,23.8395847 2.28193886,23.4197808 2.92554333,23.0847895 C4.24288894,22.3988378 5.57755428,21.7455336 6.92226517,21.1181345 C7.74287828,20.7355913 9.80433751,20.1136783 9.85722656,19.8544922 C10.1695313,18.3240234 11.8398438,11.0637796 12.677988,7.92642914 C12.8728922,7.19686149 14.3137895,2.64294201 14.7896205,1.08039751 C14.9374599,0.594919155 15.6462436,0.643991797 15.8618098,0.89907022 C16.3483417,1.47478114 19.7036,5.99135703 20.0628131,6.48710168 C20.4722537,7.05239967 23.1505907,11.070522 23.5548354,11.4921002 C23.6733029,11.6155927 24.0335552,11.5123274 24.2801894,11.4864223 C25.6848269,11.3384441 26.3187806,11.1996873 29.3975278,11.0637796 C32.476275,10.9278719 34.6318999,11.0151632 34.9419246,11.0637796 C35.3087584,11.1212675 35.4594409,10.9314154 35.5893396,10.6375882 C36.1934551,9.26994328 36.766395,7.88597466 37.425933,6.54671881 C37.9978342,5.3852497 39.7537173,2.30822606 40.0017374,1.90368135 C40.2719259,1.46365031 40.8442199,1.48887934 41.1178258,1.92994133 C42.0361231,3.41026631 42.8455961,4.98926305 44.3133332,8.87786094 C45.7810702,12.7664588 46.1412667,13.989604 46.280172,14.7156552 C46.3833985,15.2536287 45.9611408,15.7870162 45.6750177,16.1216528 C45.2039181,16.6734659 40.285089,22.1241733 39.8998964,22.588335 C40.0363769,22.7792517 40.2029938,23.0120424 40.4198373,23.3154509 Z M22.0732391,28.1843231 L22.0732391,33.3561208 C22.0732391,34.085526 22.3928867,34.1884317 22.7871919,33.5815636 L27.6904039,26.0351189 C28.0860569,25.4261766 27.8341554,24.936287 27.1307765,24.936287 L23.6560186,24.9362871 L23.6560186,19.7644894 C23.6560186,19.0350841 23.336371,18.9321784 22.9420657,19.5390465 L18.0388537,27.0854913 C17.6432008,27.6944336 17.8951022,28.1843231 18.5984811,28.1843231 L22.0732391,28.1843231 Z M43.8723017,25.9045461 C44.6360665,25.8627496 45.0349361,25.4076795 44.9925741,24.6263409 C44.9426635,23.7068179 44.4305503,23.1301969 43.6965645,23.1677284 C43.2679167,23.1894796 42.7302193,24.0156002 42.8011015,24.655769 C42.8908572,25.4652564 43.1676752,26.0691732 43.8723017,25.9045461 Z" id="Logo"></path>
        </g>
    </g>
</svg>