<?xml version="1.0" encoding="UTF-8"?>
<svg width="98px" height="103px" viewBox="0 0 98 103" version="1.1" xmlns="http://www.w3.org/2000/svg" xmlns:xlink="http://www.w3.org/1999/xlink">
    <!-- Generator: Sketch 46 (44423) - http://www.bohemiancoding.com/sketch -->
    <title>science-32</title>
    <desc>Created with Sketch.</desc>
    <defs></defs>
    <g id="ALL" stroke="none" stroke-width="1" fill="none" fill-rule="evenodd" stroke-linecap="round" stroke-linejoin="round">
        <g id="Secondary" transform="translate(-6026.000000, -2912.000000)" stroke="#868E96" stroke-width="3.5">
            <g id="science-32" transform="translate(6028.000000, 2914.000000)">
                <path d="M93.9091797,7.15966798 L93.9091797,87.428627 L57.9264744,87.4286257 C51.8919492,87.4286257 47,92.3131526 47,98.3642226 L47,91.5032112 L47,90.0064223 C47,84.469499 51.4762906,80 56.9980749,80 L87,80 L87,7.15966798 L93.9091797,7.15966798 Z" id="Layer-1"></path>
                <path d="M47,9.99677052 C47,4.48558331 51.4729022,0 56.9905068,0 L87,0 L87,80 L56.9980749,80 C51.4762906,80 47,84.469499 47,90.0064223 L47,91.5032112 L47,9.99677052 Z" id="Layer-2"></path>
                <path d="M0.0908203125,7.15966798 L0.0908203125,87.428627 L36.0735256,87.4286257 C42.1080508,87.4286257 47,92.3131526 47,98.3642226 L47,91.5032112 L47,90.0064223 C47,84.469499 42.5237094,80 37.0019251,80 L7,80 L7,7.15966798 L0.0908203125,7.15966798 L0.0908203125,7.15966798 Z" id="Layer-3"></path>
                <path d="M47,9.99677052 C47,4.48558331 42.5270978,0 37.0094932,0 L7,0 L7,80 L37.0019251,80 C42.5237094,80 47,84.469499 47,90.0064223 L47,91.5032112 L47,9.99677052 L47,9.99677052 Z" id="Layer-4"></path>
            </g>
        </g>
    </g>
</svg>