<?xml version="1.0" encoding="UTF-8"?>
<svg width="104px" height="104px" viewBox="0 0 104 104" version="1.1" xmlns="http://www.w3.org/2000/svg" xmlns:xlink="http://www.w3.org/1999/xlink">
    <!-- Generator: Sketch 46 (44423) - http://www.bohemiancoding.com/sketch -->
    <title>science-31</title>
    <desc>Created with Sketch.</desc>
    <defs></defs>
    <g id="ALL" stroke="none" stroke-width="1" fill="none" fill-rule="evenodd" stroke-linecap="round" stroke-linejoin="round">
        <g id="Secondary" transform="translate(-5726.000000, -2912.000000)" stroke="#868E96" stroke-width="3.5">
            <g id="science-31" transform="translate(5728.000000, 2914.000000)">
                <rect id="Layer-1" x="0" y="0" width="100" height="10" rx="3"></rect>
                <path d="M19.5,10.5 L19.5,79.5651855" id="Layer-2"></path>
                <circle id="Layer-3" cx="19" cy="90" r="10"></circle>
                <path d="M40.5,10.5 L40.5,79.5651855" id="Layer-4"></path>
                <circle id="Layer-5" cx="40" cy="90" r="10"></circle>
                <path d="M61.5,10.5 L61.5,79.5651855" id="Layer-6"></path>
                <circle id="Layer-7" cx="61" cy="90" r="10"></circle>
                <path d="M80.4826693,10.6540318 L88.8995981,79.204416" id="Layer-8"></path>
                <path d="M90.8937024,99.5478471 C96.3753835,98.8747813 100.273536,93.8853732 99.6004705,88.4036921 C98.9274047,82.9220111 93.9379966,79.0238583 88.4563156,79.696924 C82.9746345,80.3699898 79.0764817,85.359398 79.7495475,90.841079 C80.4226133,96.32276 85.4120214,100.220913 90.8937024,99.5478471 L90.8937024,99.5478471 Z" id="Layer-9"></path>
            </g>
        </g>
    </g>
</svg>