<?xml version="1.0" encoding="UTF-8"?>
<svg width="104px" height="104px" viewBox="0 0 104 104" version="1.1" xmlns="http://www.w3.org/2000/svg" xmlns:xlink="http://www.w3.org/1999/xlink">
    <!-- Generator: Sketch 46 (44423) - http://www.bohemiancoding.com/sketch -->
    <title>science-11</title>
    <desc>Created with Sketch.</desc>
    <defs></defs>
    <g id="ALL" stroke="none" stroke-width="1" fill="none" fill-rule="evenodd" stroke-linecap="round" stroke-linejoin="round">
        <g id="Secondary" transform="translate(-9329.000000, -2602.000000)" stroke="#868E96" stroke-width="3.5">
            <g id="science-11" transform="translate(9331.000000, 2604.000000)">
                <path d="M50,0 L50,50" id="Layer-1"></path>
                <polygon id="Layer-2" points="50 0 73 0 73 28 50 28"></polygon>
                <polygon id="Layer-3" points="73 4 100 4 89.9436773 18 100 32 73 32"></polygon>
                <path d="M0,100 C0,89.7979083 3.05551365,80.30947 8.30133971,72.3998864 C7.48894623,72.551507 7,72.2552931 7,71.3500941 C7,65.2650021 16.9254882,56 23.0105802,56 C23.9196183,56 24.1997549,56.4783625 24.0186036,57.2718778 C31.5903025,52.6579445 40.4847531,50 50,50 C67.6731629,50 83.2047301,59.1692611 92.0969827,73.0100645 C92.1579888,72.3232519 92.46567,72.0145473 93.1047257,72.2858103 C96.9694331,73.9262813 100.775479,82.4863816 99.1350083,86.351089 C98.9278364,86.8391554 98.6151793,86.953462 98.2347681,86.7839318 C99.3855831,90.9937663 100,95.4251308 100,100 L1.42108547e-14,100 L0,100 Z" id="Layer-4"></path>
                <path d="M64.880566,72.5925593 C68.7602204,74.0046381 72.6862171,73.0038066 73.6495251,70.3571397 C74.6128331,67.7104728 72.2486672,64.4202094 68.3690127,63.0081306 C64.4893583,61.5960519 60.5633615,62.5968834 59.6000536,65.2435503 C58.6367456,67.8902172 61.0009115,71.1804806 64.880566,72.5925593 L64.880566,72.5925593 Z" id="Layer-5"></path>
                <path d="M32.4449527,77.0825883 C35.0292209,75.2730642 36.0573413,72.2825453 34.7413237,70.4030775 C33.4253062,68.5236097 30.2634999,68.4669091 27.6792316,70.2764332 C25.0949633,72.0859573 24.066843,75.0764762 25.3828605,76.955944 C26.6988781,78.8354118 29.8606844,78.8921124 32.4449527,77.0825883 L32.4449527,77.0825883 Z" id="Layer-6"></path>
                <path d="M67.106179,100 C66.7503807,94.9857176 61.0740694,91 54.1238755,91 C47.1736816,91 41.4973703,94.9857176 41.141572,100 L67.106179,100 L67.106179,100 Z" id="Layer-7"></path>
            </g>
        </g>
    </g>
</svg>