<?xml version="1.0" encoding="UTF-8"?>
<svg width="103px" height="84px" viewBox="0 0 103 84" version="1.1" xmlns="http://www.w3.org/2000/svg" xmlns:xlink="http://www.w3.org/1999/xlink">
    <!-- Generator: Sketch 46 (44423) - http://www.bohemiancoding.com/sketch -->
    <title>science-27</title>
    <desc>Created with Sketch.</desc>
    <defs></defs>
    <g id="ALL" stroke="none" stroke-width="1" fill="none" fill-rule="evenodd" stroke-linecap="round" stroke-linejoin="round">
        <g id="Secondary" transform="translate(-4525.000000, -2912.000000)" stroke="#868E96" stroke-width="3.5">
            <g id="science-27" transform="translate(4527.000000, 2914.000000)">
                <path d="M94.326488,80 C102.053888,80 98.1360118,75.1807229 98.1360118,75.1807229 L94.326488,70.3614458 L90.5169642,75.1807229 C90.5169642,75.1807229 86.5990885,80 94.326488,80 Z" id="Layer-1"></path>
                <path d="M95.375744,28.9156627 C95.375744,28.9156627 76.6683373,40.1935344 68.234747,45.3190889 C60.8090547,49.8320886 47.797896,57.8313253 47.797896,57.8313253 L0.13764881,28.9156627 L47.797896,0 L95.375744,28.9156627 Z" id="Layer-2"></path>
                <path d="M94.2857143,28.9156627 L94.2857143,70.6598268" id="Layer-3"></path>
                <path d="M80,38.1958314 L80,58.7302334 C80,58.7302334 73.3451451,75.8509036 47.6190476,75.8509036 C21.8929501,75.8509036 15.2380952,58.7302334 15.2380952,58.7302334 L15.2380952,38.0771639 L47.797896,57.8313253 C47.797896,57.8313253 60.8090547,49.8320886 68.234747,45.3190889 C71.2742535,43.4718144 75.6482426,40.8254055 80,38.1958314 L80,38.1958314 Z" id="Layer-4"></path>
            </g>
        </g>
    </g>
</svg>