<?xml version="1.0" encoding="UTF-8"?>
<svg width="104px" height="104px" viewBox="0 0 104 104" version="1.1" xmlns="http://www.w3.org/2000/svg" xmlns:xlink="http://www.w3.org/1999/xlink">
    <!-- Generator: Sketch 46 (44423) - http://www.bohemiancoding.com/sketch -->
    <title>science-3</title>
    <desc>Created with Sketch.</desc>
    <defs></defs>
    <g id="ALL" stroke="none" stroke-width="1" fill="none" fill-rule="evenodd" stroke-linecap="round" stroke-linejoin="round">
        <g id="Secondary" transform="translate(-6939.000000, -2602.000000)" stroke="#868E96" stroke-width="3.5">
            <g id="science-3" transform="translate(6941.000000, 2604.000000)">
                <path d="M25.2440976,37.6044621 C17.4800062,42.0545968 11.4562836,45.9434139 8.82281152,48.576886 C-2.94093717,60.3406347 -2.94093717,79.4134398 8.82281152,91.1771885 C20.3312562,102.685633 38.8349486,102.935396 50.6470235,91.9264783 C50.6581798,91.9346432 50.6638436,91.9387737 50.6638436,91.9387737 L50.7235026,91.8549542 C50.9594377,91.6335462 51.1926781,91.4076243 51.423114,91.1771885 C53.5976269,89.0026755 56.6280529,84.5166389 60.1236623,78.6479437 L91.3269005,34.808104 C91.3269005,34.808104 86.394816,35.3964537 79.4213155,36.3346911 L100,3.55271368e-14 L62.5371296,22.3349697 C63.558721,15.8421975 64.2083904,11.3314123 64.2083904,11.3314123 L25.2440976,37.6044621 L25.2440976,37.6044621 Z" id="Layer-1"></path>
                <circle id="Layer-2" cx="30.2172228" cy="69.7827772" r="19.2172228"></circle>
            </g>
        </g>
    </g>
</svg>