<?xml version="1.0" encoding="UTF-8"?>
<svg width="104px" height="103px" viewBox="0 0 104 103" version="1.1" xmlns="http://www.w3.org/2000/svg" xmlns:xlink="http://www.w3.org/1999/xlink">
    <!-- Generator: Sketch 46 (44423) - http://www.bohemiancoding.com/sketch -->
    <title>science-25</title>
    <desc>Created with Sketch.</desc>
    <defs></defs>
    <g id="ALL" stroke="none" stroke-width="1" fill="none" fill-rule="evenodd" stroke-linecap="round" stroke-linejoin="round">
        <g id="Secondary" transform="translate(-3963.000000, -2912.000000)" stroke="#868E96" stroke-width="3.5">
            <g id="science-25" transform="translate(3965.000000, 2914.000000)">
                <path d="M0,99 L100,99" id="Layer-1"></path>
                <path d="M56.5656175,27.4356752 C62.4335101,33.3035677 70.6094897,34.6869748 78.0294513,27.2670133 C85.4494128,19.8470517 83.4356752,0.565617539 83.4356752,0.565617539 C83.4356752,0.565617539 64.2362094,-1.36615169 56.8162478,6.05380986 C49.3962863,13.4737714 50.697725,21.5677827 56.5656175,27.4356752 L56.5656175,27.4356752 Z" id="Layer-2"></path>
                <path d="M41.3826262,27.4206868 C44.1072834,24.6960296 44.7496452,20.899651 41.3043109,17.4543166 C37.8589765,14.0089823 28.9059668,14.9440274 28.9059668,14.9440274 C28.9059668,14.9440274 28.0089823,23.8589765 31.4543166,27.3043109 C34.899651,30.7496452 38.657969,30.1453441 41.3826262,27.4206868 L41.3826262,27.4206868 Z" id="Layer-3"></path>
                <path d="M50.0812616,49.5448227 C50.0812616,49.5448227 48.9394531,34.1796875 41,28" id="Layer-4"></path>
                <path d="M50.1046258,64.8311462 L50.1046258,47.5406751 C50.1046258,41.6117142 53.2269149,33.1572519 57.0909761,28.6424738 L71.5771483,11.7167969" id="Layer-5"></path>
                <path d="M10.205027,81.3029082 C12.8532175,72.2990606 22.6077722,65 32.0008855,65 L67.9991145,65 C77.3884443,65 87.1452509,72.293853 89.794973,81.3029082 L95,99 L5,99 L10.205027,81.3029082 Z" id="Layer-6"></path>
            </g>
        </g>
    </g>
</svg>