<?xml version="1.0" encoding="UTF-8"?>
<svg width="103px" height="104px" viewBox="0 0 103 104" version="1.1" xmlns="http://www.w3.org/2000/svg" xmlns:xlink="http://www.w3.org/1999/xlink">
    <!-- Generator: Sketch 46 (44423) - http://www.bohemiancoding.com/sketch -->
    <title>science-22</title>
    <desc>Created with Sketch.</desc>
    <defs></defs>
    <g id="ALL" stroke="none" stroke-width="1" fill="none" fill-rule="evenodd" stroke-linecap="round" stroke-linejoin="round">
        <g id="Secondary" transform="translate(-3064.000000, -2912.000000)" stroke="#868E96" stroke-width="3.5">
            <g id="science-22" transform="translate(3065.000000, 2914.000000)">
                <path d="M41.4816905,0.0683721349 L12.8940397,28.939069 C-3.10350712,45.0950074 -3.0971428,71.2678462 12.8914351,87.4147269 C28.8835285,103.565158 54.8037858,103.56043 70.7938022,87.4120965 L99.3814531,58.5413996 L84.9065124,43.9231428 L56.2152651,72.8984619 C48.2223757,80.9704888 35.2639646,80.9711181 27.2679179,72.8959026 C19.273629,64.8224623 19.2691496,51.7373529 27.2653838,43.6619481 L55.9566312,14.686629 L41.4816905,0.0683721349 L41.4816905,0.0683721349 Z" id="Layer-1"></path>
                <polygon id="Layer-2" points="34.2891735 7.33210226 41.4816905 0.0683721349 55.9566312 14.686629 48.7641141 21.9503591"></polygon>
                <polygon id="Layer-3" points="77.7139953 51.1868729 84.9065124 43.9231428 99.3814531 58.5413996 92.188936 65.8051298"></polygon>
            </g>
        </g>
    </g>
</svg>