<?xml version="1.0" encoding="UTF-8"?>
<svg width="99px" height="101px" viewBox="0 0 99 101" version="1.1" xmlns="http://www.w3.org/2000/svg" xmlns:xlink="http://www.w3.org/1999/xlink">
    <!-- Generator: Sketch 46 (44423) - http://www.bohemiancoding.com/sketch -->
    <title>science-12</title>
    <desc>Created with Sketch.</desc>
    <defs></defs>
    <g id="ALL" stroke="none" stroke-width="1" fill="none" fill-rule="evenodd" stroke-linecap="round" stroke-linejoin="round">
        <g id="Secondary" transform="translate(-9630.000000, -2603.000000)" stroke="#868E96" stroke-width="3.5">
            <g id="science-12" transform="translate(9631.000000, 2604.000000)">
                <path d="M42.797118,3.08581925 C44.62867,2.87189459 46.4919664,2.76190476 48.3809524,2.76190476 C74.6802262,2.76190476 96,24.0816786 96,50.3809524 C96,76.6802262 74.6802262,98 48.3809524,98 C22.0816786,98 0.761904762,76.6802262 0.761904762,50.3809524 C0.761904762,36.3198704 6.85632733,23.682217 16.5477944,14.9653703" id="Layer-1"></path>
                <path d="M48.3809524,62.2857143 C41.8061339,62.2857143 36.4761905,56.9557708 36.4761905,50.3809524 C36.4761905,43.8061339 41.8061339,38.4761905 48.3809524,38.4761905 C54.9557708,38.4761905 60.2857143,43.8061339 60.2857143,50.3809524 C60.2857143,56.9557708 54.9557708,62.2857143 48.3809524,62.2857143 Z M78.1428571,55.5238095 C74.1979661,55.5238095 71,52.3258435 71,48.3809524 C71,44.4360613 74.1979661,41.2380952 78.1428571,41.2380952 C82.0877482,41.2380952 85.2857143,44.4360613 85.2857143,48.3809524 C85.2857143,52.3258435 82.0877482,55.5238095 78.1428571,55.5238095 Z" id="Layer-2"></path>
                <path d="M75.5757122,62.4911634 C70.9367951,72.8926465 60.5055625,80.1428571 48.3809524,80.1428571 C31.9439063,80.1428571 18.6190476,66.8179985 18.6190476,50.3809524 C18.6190476,33.9439063 31.9439063,20.6190476 48.3809524,20.6190476 C60.100755,20.6190476 70.238367,27.3932109 75.0918523,37.2396012" id="Layer-3"></path>
                <path d="M31.4033737,14.5529269 C27.8280882,16.2201099 23.5782278,14.6732872 21.9110448,11.0980017 C20.2438617,7.52271623 21.7906844,3.27285581 25.3659699,1.60567281 C28.9412554,-0.0615102003 33.1911158,1.48531249 34.8582989,5.06059799 C36.5254819,8.63588348 34.9786592,12.8857439 31.4033737,14.5529269 L31.4033737,14.5529269 Z" id="Layer-4"></path>
            </g>
        </g>
    </g>
</svg>