<?xml version="1.0" encoding="UTF-8"?>
<svg width="66px" height="104px" viewBox="0 0 66 104" version="1.1" xmlns="http://www.w3.org/2000/svg" xmlns:xlink="http://www.w3.org/1999/xlink">
    <!-- Generator: Sketch 46 (44423) - http://www.bohemiancoding.com/sketch -->
    <title>science-26</title>
    <desc>Created with Sketch.</desc>
    <defs></defs>
    <g id="ALL" stroke="none" stroke-width="1" fill="none" fill-rule="evenodd" stroke-linecap="round" stroke-linejoin="round">
        <g id="Secondary" transform="translate(-4263.000000, -2912.000000)" stroke="#868E96" stroke-width="3.5">
            <g id="science-26" transform="translate(4265.000000, 2914.000000)">
                <path d="M31,0 C48.1208272,0 62,13.8791728 62,31 C62,40.5351543 57.6950358,49.0648303 50.9227002,54.7514354 L50.9227002,54.7514354 C50.7681359,54.9130256 50.6104262,55.0683882 50.449707,55.2163086 C47.4360352,57.9899902 48,62 48,62 L31,62 L14,62 C14,62 14.5639648,57.9899902 11.550293,55.2163086 C11.3895738,55.0683882 11.2318641,54.9130256 11.0772998,54.7514354 C4.30496415,49.0648303 0,40.5351543 0,31 C0,13.8791728 13.8791728,0 31,0 L31,0 Z" id="Layer-1"></path>
                <path d="M9.23234165,24.3877435 C8.43298601,26.7796221 8,29.3392464 8,32 M32,8 C23.2722547,8 15.632617,12.6587421 11.432198,19.625115" id="Layer-2"></path>
                <path d="M43.5617315,78 L43.5617313,89 C43.4744028,90.4789865 43.5617313,93.1779776 43.5617313,93.1779776 C43.5617313,93.1779776 38.6345407,100 34.2109375,100 L27.9770508,100 C23.5755264,100 18,93.1779776 18,93.1779776 C18,93.1779776 18.0888092,90.5040618 18,89 L18,78" id="Layer-3"></path>
                <path d="M14,62 C14.0510315,64.2272826 14.0264034,66.8381003 14.0264034,70.0301339 C14.0264034,71.8789063 14.0264034,78 20.919014,78 L31,78 L41.080986,78 C47.9735966,78 47.9735966,71.8789063 47.9735966,70.0301339 C47.9735966,66.8381003 47.9489685,64.2272826 48,62 L14,62 Z" id="Layer-4"></path>
                <path d="M19.6965833,85.9412998 L42.3088842,85.9412998" id="Layer-5"></path>
                <path d="M18.8371297,93.4318658 L42.5,93.4318658" id="Layer-6"></path>
            </g>
        </g>
    </g>
</svg>