<?xml version="1.0" encoding="UTF-8"?>
<svg width="103px" height="94px" viewBox="0 0 103 94" version="1.1" xmlns="http://www.w3.org/2000/svg" xmlns:xlink="http://www.w3.org/1999/xlink">
    <!-- Generator: Sketch 46 (44423) - http://www.bohemiancoding.com/sketch -->
    <title>science-9</title>
    <desc>Created with Sketch.</desc>
    <defs></defs>
    <g id="ALL" stroke="none" stroke-width="1" fill="none" fill-rule="evenodd" stroke-linecap="round" stroke-linejoin="round">
        <g id="Secondary" transform="translate(-8730.000000, -2602.000000)" stroke="#868E96" stroke-width="3.5">
            <g id="science-9" transform="translate(8731.000000, 2604.000000)">
                <path d="M47.0180844,41.3850117 C46.0553159,42.2953848 45.4545455,43.5784091 45.4545455,45 C45.4545455,47.7558048 47.7157336,50 50.5050505,50 C53.2886917,50 55.5555556,47.7614237 55.5555556,45 C55.5555556,44.6964787 55.528126,44.3991636 55.4755825,44.1103694 C53.8722326,44.5146678 52.2319037,43.560045 51.8037962,41.9783032 L51.3089007,40.149798 L51.3333932,40.240291 L47.0180844,41.3850117 L47.0180844,41.3850117 Z" id="Layer-1"></path>
                <path d="M87.7102464,0.775909946 C89.3256712,0.347386716 90.9866253,1.29830485 91.4187641,2.89494095 L99.8903201,34.1950559 C100.323053,35.7938877 99.371528,37.4354641 97.7488674,37.8659068 L94.2326769,38.7986456 C92.6172522,39.2271688 90.9562981,38.2762507 90.5241593,36.6796146 L82.0526032,5.37949963 C81.6198702,3.78066789 82.5713953,2.13909144 84.194056,1.70864873 L87.7102464,0.775909946 L87.7102464,0.775909946 L87.7102464,0.775909946 Z M82.5238984,7.12080829 L90.0528641,34.9383059 L55.5124036,44.1008436 C53.897422,44.5292492 52.2351815,43.5721557 51.8037962,41.9783032 L45.8436798,19.9572804 C45.410454,18.3566281 46.3706742,16.7111633 47.9834379,16.2833459 L82.5238984,7.12080829 L82.5238984,7.12080829 L82.5238984,7.12080829 Z M46.3140827,21.6952926 L51.3333932,40.240291 L13.8687499,50.1785258 L8.84943943,31.6335273 L46.3140827,21.6952926 L46.3140827,21.6952926 L46.3140827,21.6952926 Z M10.104267,36.2697769 L12.6139223,45.5422761 L3.24776145,48.0268348 L0.738106218,38.7543356 L10.104267,36.2697769 L10.104267,36.2697769 L10.104267,36.2697769 Z" id="Layer-2"></path>
                <path d="M50.5050505,50 L50.5050505,90" id="Layer-3"></path>
                <path d="M50.5050505,50 L70.2020202,89.5" id="Layer-4"></path>
                <path d="M50.5050505,50 L30.8080808,89.5" id="Layer-5"></path>
            </g>
        </g>
    </g>
</svg>