<?xml version="1.0" encoding="UTF-8"?>
<svg width="72px" height="104px" viewBox="0 0 72 104" version="1.1" xmlns="http://www.w3.org/2000/svg" xmlns:xlink="http://www.w3.org/1999/xlink">
    <!-- Generator: Sketch 46 (44423) - http://www.bohemiancoding.com/sketch -->
    <title>sports-32</title>
    <desc>Created with Sketch.</desc>
    <defs></defs>
    <g id="ALL" stroke="none" stroke-width="1" fill="none" fill-rule="evenodd" stroke-linecap="round" stroke-linejoin="round">
        <g id="Secondary" transform="translate(-3040.000000, -4438.000000)" stroke="#868E96" stroke-width="3.5">
            <g id="sports-32" transform="translate(3042.000000, 4440.000000)">
                <path d="M68,32.500025 C68,35.8958409 62.5473457,38.3895925 61.5526746,41.4553947 C60.5225373,44.6320799 63.4315654,49.8466195 61.507278,52.4915935 C60.5553688,53.7990799 58.6639128,54.1868662 56.6666667,54.4716753 C54.5838966,54.7664172 52.3852032,54.9478436 51.0226983,55.940317 C48.4361074,57.8245164 47.7158423,63.5756322 44.7036587,64.7773034 C44.6406304,64.8050748 44.5751702,64.830211 44.50971,64.8502794 C41.4446312,65.8478206 37.3950145,61.4696669 34,61.4696669 C30.6049855,61.4696669 26.5553688,65.8478206 23.49029,64.8529146 C23.4248298,64.8328462 23.3593696,64.8075074 23.2963413,64.7799387 C20.2841577,63.5758349 19.5638926,57.8247191 16.9773017,55.940317 C15.6147968,54.9478436 13.4161034,54.7664172 11.3333333,54.4716753 C9.33608717,54.1870689 7.44483388,53.7990799 6.49272201,52.4915935 C4.56863727,49.8466195 7.47746266,44.6320799 6.44732544,41.4553947 C5.45245163,38.3895925 7.10542736e-15,35.8956382 7.10542736e-15,32.500025 C7.10542736e-15,29.1044119 5.45265429,26.6104576 6.44732544,23.5446553 C7.47746266,20.3679701 4.56843461,15.1534305 6.49272201,12.5084565 C8.43443844,9.83814356 14.3076189,11.0045431 16.9773017,9.05973304 C19.6192196,7.13519414 20.3143545,1.1799483 23.4900874,0.14713539 C26.5551661,-0.847973257 30.6047829,3.53038316 33.9997973,3.53038316 C37.3948118,3.53038316 41.4444285,-0.847770546 44.5095073,0.14713539 C47.6854428,1.1799483 48.380375,7.13519414 51.022293,9.05973304 C53.6919757,11.0045431 59.5651562,9.83814356 61.5068727,12.5084565 C63.4309574,15.1534305 60.522132,20.3679701 61.5522692,23.5446553 C62.5475484,26.6104576 68,29.1042092 68,32.500025 L68,32.500025 Z" id="Layer-1"></path>
                <path d="M33.5,53 C44.8218374,53 54,43.8218374 54,32.5 C54,21.1781626 44.8218374,12 33.5,12 C22.1781626,12 13,21.1781626 13,32.5 C13,43.8218374 22.1781626,53 33.5,53 L33.5,53 Z" id="Layer-2"></path>
                <polygon id="Layer-3" points="33.5455726 20 37.3465423 28.0053728 46.0911452 29.1671493 39.6953509 35.2764191 41.2992427 44 33.5455726 39.7702962 25.7919026 44 27.3957944 35.2764191 21 29.1671493 29.744603 28.0053728"></polygon>
                <path d="M54,54.8609333 L54,100 L34,79.848416 L14,100 L14,54.8609333 C15.1470454,55.0708742 16.1987028,55.3731714 16.9773017,55.940317 C19.5638926,57.8247191 20.2841577,63.5758349 23.2963413,64.7799387 C23.3593696,64.8075074 23.4248298,64.8328462 23.49029,64.8529146 C26.5553688,65.8478206 30.6049855,61.4696669 34,61.4696669 C37.3950145,61.4696669 41.4446312,65.8478206 44.50971,64.8502794 C44.5751702,64.830211 44.6406304,64.8050748 44.7036587,64.7773034 C47.7158423,63.5756322 48.4361074,57.8245164 51.0226983,55.940317 C51.8012972,55.3731714 52.8529546,55.0708742 54,54.8609333 L54,54.8609333 Z" id="Layer-4"></path>
            </g>
        </g>
    </g>
</svg>