<?xml version="1.0" encoding="UTF-8"?>
<svg width="104px" height="104px" viewBox="0 0 104 104" version="1.1" xmlns="http://www.w3.org/2000/svg" xmlns:xlink="http://www.w3.org/1999/xlink">
    <!-- Generator: Sketch 46 (44423) - http://www.bohemiancoding.com/sketch -->
    <title>sports-27</title>
    <desc>Created with Sketch.</desc>
    <defs></defs>
    <g id="ALL" stroke="none" stroke-width="1" fill="none" fill-rule="evenodd" stroke-linecap="round" stroke-linejoin="round">
        <g id="Secondary" transform="translate(-1577.000000, -4438.000000)" stroke="#868E96" stroke-width="3.5">
            <g id="sports-27" transform="translate(1579.000000, 4440.000000)">
                <path d="M32.4284992,79.311961 C39.3069414,83.9138569 47.5774283,86.5974355 56.4746986,86.5974355 C80.3879201,86.5974355 99.7734164,67.2119393 99.7734164,43.2987178 L99.7734164,43.2987178 C99.7734164,19.3854963 80.3879201,0 56.4746986,0 C32.5614771,0 13.1759809,19.3854963 13.1759809,43.2987178 C13.1759809,52.2013598 15.8628009,60.4764614 20.4697927,67.3573744" id="Layer-1"></path>
                <path d="M43.7985996,67.7699092 C47.5932322,69.739535 51.9039981,70.8524472 56.4746986,70.8524472 C71.6922032,70.8524472 84.0284281,58.5162223 84.0284281,43.2987178 L84.0284281,43.2987178 C84.0284281,28.0812132 71.6922032,15.7449883 56.4746986,15.7449883 C41.257194,15.7449883 28.9209692,28.0812132 28.9209692,43.2987178 C28.9209692,47.6186182 29.9150984,51.7063273 31.6870603,55.3455484" id="Layer-2"></path>
                <path d="M56.4746986,55.107459 C62.9964863,55.107459 68.2834398,49.8205054 68.2834398,43.2987178 L68.2834398,43.2987178 C68.2834398,36.7769301 62.9964863,31.4899765 56.4746986,31.4899765 C49.952911,31.4899765 44.6659574,36.7769301 44.6659574,43.2987178" id="Layer-3"></path>
                <path d="M46.3937213,53.2970021 L1.94155577,97.7491676" id="Layer-4"></path>
                <polygon id="Layer-5" points="42.7907027 49.6939835 54.5823999 45.1083235 49.9967399 56.9000207"></polygon>
                <polyline id="Layer-6" points="9.19495764 99.3861988 9.19495764 90.4957657 0.304524534 90.4957657"></polyline>
                <polyline id="Layer-7" points="15.9165351 92.6646214 15.9165351 83.7741883 7.02610198 83.7741883"></polyline>
            </g>
        </g>
    </g>
</svg>