<?xml version="1.0" encoding="UTF-8"?>
<svg width="104px" height="104px" viewBox="0 0 104 104" version="1.1" xmlns="http://www.w3.org/2000/svg" xmlns:xlink="http://www.w3.org/1999/xlink">
    <!-- Generator: Sketch 46 (44423) - http://www.bohemiancoding.com/sketch -->
    <title>sports-28</title>
    <desc>Created with Sketch.</desc>
    <defs></defs>
    <g id="ALL" stroke="none" stroke-width="1" fill="none" fill-rule="evenodd" stroke-linecap="round" stroke-linejoin="round">
        <g id="Secondary" transform="translate(-1877.000000, -4438.000000)" stroke="#868E96" stroke-width="3.5">
            <g id="sports-28" transform="translate(1879.000000, 4440.000000)">
                <polygon id="Layer-1" points="13.0777934 58.6223812 21.5102915 50.1898831 13.0777934 41.757385 0.104270187 41.757385 0.104270187 58.6223809"></polygon>
                <path d="M70.8326861,35.2462882 C63.5594455,3.81555027 33.7323428,0 33.7323428,0 L33.7323428,100 C33.7323428,100 63.5584821,96.1845734 70.8323337,64.7552401 C68.7265464,64.0853919 67.2012893,62.1151859 67.2012893,59.7743988 L67.2012893,40.2256012 C67.2012893,37.8939794 68.7294781,35.9190213 70.8326869,35.2462916 L70.8326861,35.2462882 Z" id="Layer-2"></path>
                <path d="M84.324981,50.1898831 L77.6294038,50.1898831 M66.8942941,50.1898831 L0.324981028,50.1898831" id="Layer-3"></path>
                <polyline id="Layer-4" points="84.324981 43.3550198 99.8587611 50.1898831 84.324981 57.0247463 84.324981 43.3550198"></polyline>
                <polyline id="Layer-5" points="3.32707847 58.6223812 11.7595766 50.1898831 3.32707847 41.757385"></polyline>
                <rect id="Layer-6" x="67.2012893" y="35" width="10.4327505" height="30" rx="5.21637527"></rect>
            </g>
        </g>
    </g>
</svg>