<?xml version="1.0" encoding="UTF-8"?>
<svg width="93px" height="104px" viewBox="0 0 93 104" version="1.1" xmlns="http://www.w3.org/2000/svg" xmlns:xlink="http://www.w3.org/1999/xlink">
    <!-- Generator: Sketch 46 (44423) - http://www.bohemiancoding.com/sketch -->
    <title>sports-45</title>
    <desc>Created with Sketch.</desc>
    <defs></defs>
    <g id="ALL" stroke="none" stroke-width="1" fill="none" fill-rule="evenodd" stroke-linecap="round" stroke-linejoin="round">
        <g id="Secondary" transform="translate(-6717.000000, -4438.000000)" stroke="#868E96" stroke-width="3.5">
            <g id="sports-45" transform="translate(6718.000000, 4440.000000)">
                <path d="M89.9399072,55.0965244 C89.9399072,30.4897782 70.0141186,10.542069 45.4344127,10.542069 C20.8547068,10.542069 0.928918179,30.4897782 0.928918179,55.0965244 C0.928918179,79.7032707 20.8547068,99.6509799 45.4344127,99.6509799 C70.0141186,99.6509799 89.9399072,79.7032707 89.9399072,55.0965244 Z" id="Layer-1"></path>
                <path d="M45.7558594,91.6123917 C65.9658398,91.6123917 82.349266,75.210942 82.349266,54.9787283 C82.349266,34.7465147 65.9658398,18.345065 45.7558594,18.345065 C25.545879,18.345065 9.16245278,34.7465147 9.16245278,54.9787283 C9.16245278,75.210942 25.545879,91.6123917 45.7558594,91.6123917 Z" id="Layer-2"></path>
                <path d="M45.4945055,59.9009901 C48.2255839,59.9009901 50.4395604,57.684578 50.4395604,54.950495 C50.4395604,52.2164121 48.2255839,50 45.4945055,50 C42.7634271,50 40.5494505,52.2164121 40.5494505,54.950495 C40.5494505,57.684578 42.7634271,59.9009901 45.4945055,59.9009901 L45.4945055,59.9009901 Z" id="Layer-3"></path>
                <path d="M45.4945055,30.2375232 L45.4945055,50.0395034" id="Layer-4"></path>
                <path d="M45.4945055,59.9404935 L45.4945055,67.8612856" id="Layer-5"></path>
                <path d="M45.608731,0.99009901 L45.608731,9.9009901" id="Layer-6"></path>
                <path d="M50.0592804,0 L41.1581815,0" id="Layer-7"></path>
                <path d="M83.9215931,17.6696274 L77.6275657,23.9705789" id="Layer-8"></path>
                <path d="M87.7679431,20.1199975 L81.4739157,13.8190459" id="Layer-9"></path>
            </g>
        </g>
    </g>
</svg>