<?xml version="1.0" encoding="UTF-8"?>
<svg width="104px" height="104px" viewBox="0 0 104 104" version="1.1" xmlns="http://www.w3.org/2000/svg" xmlns:xlink="http://www.w3.org/1999/xlink">
    <!-- Generator: Sketch 46 (44423) - http://www.bohemiancoding.com/sketch -->
    <title>sports-1</title>
    <desc>Created with Sketch.</desc>
    <defs></defs>
    <g id="ALL" stroke="none" stroke-width="1" fill="none" fill-rule="evenodd" stroke-linecap="round" stroke-linejoin="round">
        <g id="Secondary" transform="translate(-3143.000000, -4137.000000)" stroke="#868E96" stroke-width="3.5">
            <g id="sports-1" transform="translate(3145.000000, 4139.000000)">
                <path d="M49.7508831,99.5017662 C77.2275371,99.5017662 99.5017662,77.2275371 99.5017662,49.7508831 C99.5017662,22.2742291 77.2275371,0 49.7508831,0 C22.2742291,0 0,22.2742291 0,49.7508831 C0,77.2275371 22.2742291,99.5017662 49.7508831,99.5017662 Z" id="Layer-1"></path>
                <path d="M98.019802,49.7508831 L0.99009901,49.7508831" id="Layer-2"></path>
                <path d="M49.4266539,1.65537834 L49.4266539,98.6850813" id="Layer-3"></path>
                <path d="M83.4846152,13.5365665 C83.4846152,13.5365665 67.0192695,24.269695 67.0192695,49.6751803 C67.0192695,75.0806656 83.4846152,85.8137942 83.4846152,85.8137942" id="Layer-4"></path>
                <path d="M15.373561,13.5365665 C15.373561,13.5365665 31.8389067,24.269695 31.8389067,49.6751803 C31.8389067,75.0806656 15.373561,85.8137942 15.373561,85.8137942" id="Layer-5"></path>
            </g>
        </g>
    </g>
</svg>