<?xml version="1.0" encoding="UTF-8"?>
<svg width="82px" height="104px" viewBox="0 0 82 104" version="1.1" xmlns="http://www.w3.org/2000/svg" xmlns:xlink="http://www.w3.org/1999/xlink">
    <!-- Generator: Sketch 46 (44423) - http://www.bohemiancoding.com/sketch -->
    <title>sports-14</title>
    <desc>Created with Sketch.</desc>
    <defs></defs>
    <g id="ALL" stroke="none" stroke-width="1" fill="none" fill-rule="evenodd" stroke-linecap="round" stroke-linejoin="round">
        <g id="Secondary" transform="translate(-7045.000000, -4137.000000)" stroke="#868E96" stroke-width="3.5">
            <g id="sports-14" transform="translate(7047.000000, 4139.000000)">
                <path d="M30,100 C46.5685425,100 60,86.5685425 60,70 C60,53.4314575 46.5685425,40 30,40 C13.4314575,40 0,53.4314575 0,70 C0,86.5685425 13.4314575,100 30,100 Z" id="Layer-1"></path>
                <circle id="Layer-2" cx="30.2800644" cy="52.560874" r="4.17538114"></circle>
                <circle id="Layer-3" cx="38.6308267" cy="63.986301" r="4.17538114"></circle>
                <circle id="Layer-4" cx="21.9293021" cy="63.986301" r="4.17538114"></circle>
                <path d="M48.3764872,93.714755 C50.1603723,97.6917126 51.7,100 51.7,100 L69.1,100 C69.1,100 77.8,86.9456416 77.8,69.4611923 C77.8,51.9779273 69.1011786,39.1321751 69.1,39.1304348 L69.1,30.4347826 C69.1,21.7391304 73.45,17.3913043 73.45,10.8695652 C73.45,6.06708913 69.1,0 60.4,0 C51.7,0 47.35,6.03360715 47.35,10.8695652 C47.35,17.3913043 51.7,21.7391304 51.7,30.4347826 L51.7,39.1304348 C51.7,39.1304348 49.9749179,41.6755115 48.0610855,46.0438074 C55.3130111,51.5197986 60,60.2125468 60,70 C60,79.6448236 55.4486198,88.2266155 48.376485,93.71475 L48.3764872,93.714755 Z" id="Layer-5"></path>
                <polygon id="Layer-6" points="52 30 69 30 69 38 52 38"></polygon>
            </g>
        </g>
    </g>
</svg>