<?xml version="1.0" encoding="UTF-8"?>
<svg width="104px" height="84px" viewBox="0 0 104 84" version="1.1" xmlns="http://www.w3.org/2000/svg" xmlns:xlink="http://www.w3.org/1999/xlink">
    <!-- Generator: Sketch 46 (44423) - http://www.bohemiancoding.com/sketch -->
    <title>sports-25</title>
    <desc>Created with Sketch.</desc>
    <defs></defs>
    <g id="ALL" stroke="none" stroke-width="1" fill="none" fill-rule="evenodd" stroke-linecap="round" stroke-linejoin="round">
        <g id="Secondary" transform="translate(-976.000000, -4438.000000)" stroke="#868E96" stroke-width="3.5">
            <g id="sports-25" transform="translate(978.000000, 4440.000000)">
                <path d="M31.0906426,52.6971504 C31.0906426,54.7120528 29.5314671,56.6413551 26.700267,58.1296009 C23.7318509,59.6898531 19.7702839,60.54922 15.5453213,60.54922 C11.3203587,60.54922 7.35879172,59.6898531 4.3903756,58.1296009 C1.55917554,56.6413551 3.55271368e-15,54.7120528 3.55271368e-15,52.6971504 L7.10542736e-15,46 C0.865087037,47.1088323 2.13293922,48.1184706 3.76418852,48.9758859 C6.9221768,50.6358705 11.1061563,51.5500835 15.5453213,51.5500835 C19.9844863,51.5500835 24.1684658,50.6358705 27.3264541,48.9758859 C28.9577034,48.1184033 30.2254883,47.1088323 31.0906426,46 L31.0906426,52.6971504 Z" id="Layer-1"></path>
                <path d="M26.700267,49.8549909 C23.7318509,51.4152431 19.7702839,52.27461 15.5453213,52.27461 C11.3203587,52.27461 7.35879172,51.4152431 4.3903756,49.8549909 C1.55917554,48.366745 -1.77635684e-15,46.4374428 -1.77635684e-15,44.4225404 C-1.77635684e-15,42.4076379 1.55917554,40.4783357 4.3903756,38.9900899 C7.35879172,37.4298376 11.3203587,36.5704707 15.5453213,36.5704707 C19.7702839,36.5704707 23.7318509,37.4298376 26.700267,38.9900899 C29.5314671,40.4783357 31.0906426,42.4076379 31.0906426,44.4225404 C31.0906426,46.4374428 29.5314671,48.366745 26.700267,49.8549909 L26.700267,49.8549909 Z" id="Layer-2"></path>
                <path d="M31.1204323,67.9329158 L49.6205575,67.9329158 C50.8052471,67.9329158 52.2749817,67.1182941 52.9039336,66.1158225 L91.2970709,4.85695771 C92.8258493,2.41781598 95.810555,0.444302153 97.9628351,0.44775394 C100.115297,0.453022457 100.646872,2.44724701 99.1493415,4.90564608 L54.4917557,78.1687361 C53.8733408,79.1799281 52.4139616,80 51.2292719,80 L25.2207832,80 C22.8512222,80 21.774083,78.2730164 22.8148876,76.1447172 L24.9446402,71.7860185 C25.9868982,69.6580827 28.7490546,67.9329158 31.1204323,67.9329158 L31.1204323,67.9329158 Z" id="Layer-3"></path>
            </g>
        </g>
    </g>
</svg>