<?xml version="1.0" encoding="UTF-8"?>
<svg width="73px" height="104px" viewBox="0 0 73 104" version="1.1" xmlns="http://www.w3.org/2000/svg" xmlns:xlink="http://www.w3.org/1999/xlink">
    <!-- Generator: Sketch 46 (44423) - http://www.bohemiancoding.com/sketch -->
    <title>sports-47</title>
    <desc>Created with Sketch.</desc>
    <defs></defs>
    <g id="ALL" stroke="none" stroke-width="1" fill="none" fill-rule="evenodd" stroke-linecap="round" stroke-linejoin="round">
        <g id="Secondary" transform="translate(-7306.000000, -4438.000000)" stroke="#868E96" stroke-width="3.5">
            <g id="sports-47" transform="translate(7308.000000, 4440.000000)">
                <path d="M68.3302987,30.67398 C67.8493078,28.6446881 66.4103065,26.9247501 64.4810474,26.0728304 L36.5937227,13.7543673 L40.499016,2.90261576 C40.810557,2.03764314 40.5374071,1.07259824 39.8168032,0.4913088 C39.0961994,-0.0895455464 38.0834707,-0.162206727 37.284761,0.309873397 L23.726112,8.33044944 C16.9957692,12.3120211 11.7882701,18.1357929 8.66712436,25.1721798 C5.65232615,31.967523 4.08403094,38.882953 4.00504252,45.7265919 C3.86868821,57.5620975 6.5260528,66.1926794 8.53474154,70.9996298 L49.7066828,70.9996298 C49.7066828,70.9996298 50.7811901,62.6331517 48.8850268,59.3216293 L39.6001367,43.1055683 L40.8445352,43.5106435 C41.3798031,43.6846822 41.9362522,43.7730069 42.498438,43.7730069 C44.0371677,43.7730069 45.4955852,43.1138351 46.4999295,41.9647442 C47.3198205,41.0262402 48.5117072,40.4875903 49.7684615,40.4875903 C50.2441571,40.4875903 50.7149987,40.5650375 51.1664241,40.7177565 L57.8102769,42.9641618 C58.523379,43.2056406 59.2673705,43.3274677 60.0201875,43.3274677 C61.9322368,43.3274677 63.7679453,42.5290649 65.0564715,41.1358847 L67.2187243,38.797674 C68.7340663,37.1608395 69.3324367,34.89529 68.8205565,32.7372094 L68.3302987,30.67398 Z" id="Layer-1"></path>
                <path d="M6.36043211,78 C5.29586173,78 4.43256108,78.9753287 4.43256108,80.1780453 L4.43256108,86.8219547 L1.92787103,86.8219547 C0.863300648,86.8219547 0,87.7972834 0,89 L0,97.8219547 C0,99.0246713 0.863300648,100 1.92787103,100 L56.072129,100 C57.1370849,100 58,99.0246713 58,97.8219547 L58,89 C58,87.7972834 57.1370849,86.8219547 56.072129,86.8219547 L53.5674389,86.8219547 L53.5674389,80.1780453 C53.5674389,78.9753287 52.7045238,78 51.6395679,78 L6.36043211,78 Z" id="Layer-2"></path>
            </g>
        </g>
    </g>
</svg>