<?xml version="1.0" encoding="UTF-8"?>
<svg width="102px" height="104px" viewBox="0 0 102 104" version="1.1" xmlns="http://www.w3.org/2000/svg" xmlns:xlink="http://www.w3.org/1999/xlink">
    <!-- Generator: Sketch 46 (44423) - http://www.bohemiancoding.com/sketch -->
    <title>sports-43</title>
    <desc>Created with Sketch.</desc>
    <defs></defs>
    <g id="ALL" stroke="none" stroke-width="1" fill="none" fill-rule="evenodd" stroke-linecap="round" stroke-linejoin="round">
        <g id="Secondary" transform="translate(-6118.000000, -4438.000000)" stroke="#868E96" stroke-width="3.5">
            <g id="sports-43" transform="translate(6120.000000, 4440.000000)">
                <path d="M86.0636344,36.0318172 C86.0636344,16.1319941 69.9316403,0 50.0318172,0 C30.1319941,0 14,16.1319941 14,36.0318172 C14,55.9316403 30.1319941,72.0636344 50.0318172,72.0636344 C69.9316403,72.0636344 86.0636344,55.9316403 86.0636344,36.0318172 L86.0636344,36.0318172 Z" id="Layer-1"></path>
                <path d="M84.8973004,28.423176 C84.8973004,28.423176 75.6061087,18.3011546 64.9517274,14.8369738 C54.2973461,11.3727931 44.4673306,12.3773542 44.4673306,12.3773542" id="Layer-2"></path>
                <path d="M50.2599837,33.2631642 C50.2599837,33.2631642 45.0269605,41.8979576 38.0804051,47.4169073 C31.1338496,52.9358571 20.7129927,56.2573145 20.7129927,56.2573145" id="Layer-3"></path>
                <path d="M50.4924441,33.245588 C50.4924441,33.245588 60.0318891,33.4367788 68.2847176,36.6931974 C76.537546,39.949616 84.0615511,47.0200371 84.0615511,47.0200371" id="Layer-4"></path>
                <path d="M70.7394925,38.1801956 C70.7394925,38.1801956 66.7696118,46.2558148 58.0118226,55.5847759 C49.2540335,64.9137369 35.7626046,68.3932196 35.7626046,68.3932196" id="Layer-5"></path>
                <path d="M27.2887272,8.3012495 C27.2887272,8.3012495 24.6901942,21.2611844 27.7761127,32.031212 C30.8620311,42.8012397 36.5802353,48.1936699 36.5802353,48.1936699" id="Layer-6"></path>
                <path d="M50.2307397,33.4127445 C50.2307397,33.4127445 45.457303,25.7013373 44.1510301,16.9259689 C42.8447571,8.15060059 43.9029863,1.21500938 43.9029863,1.21500938" id="Layer-7"></path>
                <path d="M98,97.1171999 C95.9555147,99.0390666 93.3323559,100 90.7091972,100 C88.0860385,100 85.4631474,99.0390666 83.4191971,97.1171999 C80.6644123,94.5266009 76.3485738,94.5271381 73.593789,97.1171999 C69.5058884,100.960933 63.1008866,100.960665 59.0135211,97.1171999 C56.2587363,94.5268695 51.9434329,94.5268695 49.1883805,97.1171999 C45.1007475,100.960933 38.6960132,100.960933 34.6081127,97.1171999 C31.8535954,94.5271381 27.5377569,94.5268695 24.7829721,97.1171999 C20.695339,100.960933 14.2906048,100.960933 10.2027042,97.1171999 C7.44818693,94.5271381 3.13234846,94.5268695 0.377563633,97.1171999 M0,85.8830015 C4.08790056,82.0395366 10.4920998,82.0392681 14.5802679,85.8830015 C17.3350527,88.4733319 21.6508912,88.4730634 24.405676,85.8830015 C28.4935765,82.0395366 34.8977757,82.0392681 38.9859438,85.8830015 C41.7407287,88.4733319 46.0565671,88.4730634 48.811352,85.8830015 C52.898985,82.0389995 59.3034517,82.0389995 63.3916198,85.8830015 C66.1466722,88.4736005 70.4625106,88.4730634 73.2170279,85.8830015 C77.304661,82.0395366 83.7096627,82.0392681 87.7972958,85.8830015 C90.5526157,88.4736005 94.8681866,88.4733319 97.6224364,85.8830015" id="Layer-8"></path>
            </g>
        </g>
    </g>
</svg>