<?xml version="1.0" encoding="UTF-8"?>
<svg width="86px" height="104px" viewBox="0 0 86 104" version="1.1" xmlns="http://www.w3.org/2000/svg" xmlns:xlink="http://www.w3.org/1999/xlink">
    <!-- Generator: Sketch 46 (44423) - http://www.bohemiancoding.com/sketch -->
    <title>sports-39</title>
    <desc>Created with Sketch.</desc>
    <defs></defs>
    <g id="ALL" stroke="none" stroke-width="1" fill="none" fill-rule="evenodd" stroke-linecap="round" stroke-linejoin="round">
        <g id="Secondary" transform="translate(-4936.000000, -4438.000000)" stroke="#868E96" stroke-width="3.5">
            <g id="sports-39" transform="translate(4938.000000, 4440.000000)">
                <path d="M0,13.7659574 L15.7630604,13.7659574 L15.7630604,25.8512155 C15.7630604,30.874696 16.935104,35.6106221 19,39.7659574 C10.7334189,38.5890776 0.697409287,32.2252548 0,21.8643263 L0,13.7659574 Z" id="Layer-1"></path>
                <path d="M81.5789474,21.8643263 C81.5789466,32.2252548 70.8455285,38.5890776 62.5789474,39.7659574 C64.6438433,35.6106221 65.815887,30.874696 65.815887,25.8512155 L65.815887,13.7659574 L81.5789474,13.7659574 L81.5789474,21.8643263 Z" id="Layer-2"></path>
                <path d="M41,52.1276596 C27.3166449,52.1276596 16.1842105,41.2748429 16.1842105,27.935178 L16.1842105,7.44680851 L65.8157895,7.44680851 L65.8157895,27.935178 C65.8157895,41.2748429 54.6833551,52.1276596 41,52.1276596 L41,52.1276596 Z" id="Layer-3"></path>
                <rect id="Layer-4" x="12.9473684" y="0" width="56.1052632" height="7.44680851" rx="3.72340426"></rect>
                <ellipse id="Layer-5" cx="41" cy="58.5106383" rx="6.47368421" ry="6.38297872"></ellipse>
                <path d="M44.2270654,85.4979309 C44.2270654,88.1104695 45.4439305,90.5142875 47.4736842,92.4176279 L34.5263158,92.4176279 C36.5560695,90.5142875 37.7729346,88.1104695 37.7729346,85.4979309 L37.7729346,67.4219878 C37.7729346,66.0982074 39.2206433,65.0212766 41.0001898,65.0212766 C42.7797364,65.0212766 44.2270654,66.0982074 44.2270654,67.4219878 L44.2270654,85.4979309 L44.2270654,85.4979309 L44.2270654,85.4979309 Z M57.0836875,92.4176279 C57.1389752,92.4176279 57.1842105,92.4693259 57.1842105,92.5325123 L57.1842105,99.8851156 C57.1842105,99.948302 57.1389752,100 57.0836875,100 L24.9163125,100 C24.8610248,100 24.8157895,99.948302 24.8157895,99.8851156 L24.8157895,92.5325123 C24.8157895,92.4693259 24.8610248,92.4176279 24.9163125,92.4176279 L57.0836875,92.4176279 L57.0836875,92.4176279 L57.0836875,92.4176279 Z" id="Layer-6"></path>
            </g>
        </g>
    </g>
</svg>