<?xml version="1.0" encoding="UTF-8"?>
<svg width="104px" height="85px" viewBox="0 0 104 85" version="1.1" xmlns="http://www.w3.org/2000/svg" xmlns:xlink="http://www.w3.org/1999/xlink">
    <!-- Generator: Sketch 46 (44423) - http://www.bohemiancoding.com/sketch -->
    <title>sports-21</title>
    <desc>Created with Sketch.</desc>
    <defs></defs>
    <g id="ALL" stroke="none" stroke-width="1" fill="none" fill-rule="evenodd" stroke-linecap="round" stroke-linejoin="round">
        <g id="Secondary" transform="translate(-9037.000000, -4138.000000)" stroke="#868E96" stroke-width="3.5">
            <g id="sports-21" transform="translate(9039.000000, 4139.000000)">
                <path d="M35.4495947,81.5663698 C49.9421537,81.5663698 61.7330201,69.7755035 61.7330201,55.2834254 C61.7330201,53.5552463 61.5646753,51.8289911 61.2332766,50.1522774 C60.8566654,48.2495007 62.0528751,46.3895317 63.9402602,45.9422157 L99.6216515,37.4864994 L99.6216515,29 L35.4495947,29 C20.9570356,29 9.16616931,40.7908663 9.16616931,55.2834254 C9.16616931,69.7759844 20.9570356,81.5663698 35.4495947,81.5663698 L35.4495947,81.5663698 L35.4495947,81.5663698 Z" id="Layer-1"></path>
                <path d="M37,29 L51,29 L51,36 C51,39.8659932 47.8581267,43 44,43 L44,43 C40.1340068,43 37,39.8581267 37,36 L37,29 Z" id="Layer-2"></path>
                <path d="M44.2749168,0.758052601 L44.2749168,15.7580526" id="Layer-3"></path>
                <path d="M25.9818465,5.76286207 L33.4818465,18.7532431" id="Layer-4"></path>
                <path d="M62.5679872,5.76286207 L55.0679872,18.7532431" id="Layer-5"></path>
                <path d="M12.7249858,68.47908 C11.3976306,69.4859648 9.74264956,70.0834455 7.94811946,70.0834455 C3.57877331,70.0834455 0.0367184099,66.5413906 0.0367184099,62.1720444 C0.0367184099,57.8026983 3.57877331,54.2606434 7.94811946,54.2606434 C8.36795225,54.2606434 8.78014705,54.2933454 9.18229558,54.3563412 C9.17157447,54.6640713 9.16616931,54.9731291 9.16616931,55.2834254 C9.16616931,60.0896596 10.4629467,64.5987047 12.7249858,68.47908 L12.7249858,68.47908 Z" id="Layer-6"></path>
            </g>
        </g>
    </g>
</svg>