<?xml version="1.0" encoding="UTF-8"?>
<svg width="68px" height="104px" viewBox="0 0 68 104" version="1.1" xmlns="http://www.w3.org/2000/svg" xmlns:xlink="http://www.w3.org/1999/xlink">
    <!-- Generator: Sketch 46 (44423) - http://www.bohemiancoding.com/sketch -->
    <title>sports-48</title>
    <desc>Created with Sketch.</desc>
    <defs></defs>
    <g id="ALL" stroke="none" stroke-width="1" fill="none" fill-rule="evenodd" stroke-linecap="round" stroke-linejoin="round">
        <g id="Secondary" transform="translate(-7575.000000, -4438.000000)" stroke="#868E96" stroke-width="3.5">
            <g id="sports-48" transform="translate(7577.000000, 4440.000000)">
                <path d="M57.8989419,90.2392494 L57.8510452,90.2392494 C59.1481806,89.0506679 59.9733677,87.3654481 59.9733677,85.4779774 C59.9733677,81.884449 57.0289548,78.9708104 53.397471,78.9708104 L52.0792774,78.9708104 L44.8260129,43.1623923 C47.837729,42.5683058 50.1093161,39.9390442 50.1093161,36.7841346 C50.1093161,35.3685827 49.6404645,34.0674353 48.8652387,33 L15.1863742,33 C14.4111484,34.0674353 13.9422968,35.3685827 13.9422968,36.7841346 C13.9422968,39.9390442 16.2138839,42.5683058 19.2256,43.1623923 L11.9723355,78.9708104 L10.6541419,78.9708104 C7.02265806,78.9708104 4.07824516,81.884449 4.07824516,85.4779774 C4.07824516,87.3654481 4.90343226,89.0506679 6.20056774,90.2392494 L6.15225806,90.2392494 C2.81310968,90.2392494 0.104877419,92.9191759 0.104877419,96.2236286 L0.104877419,98.7321525 C0.104877419,99.431246 0.67963871,100 1.38590968,100 L62.6654968,100 C63.3721806,100 63.9467355,99.431246 63.9467355,98.7321525 L63.9467355,96.2236286 C63.9469419,92.9191759 61.2385032,90.2392494 57.8989419,90.2392494 L57.8989419,90.2392494 Z" id="Layer-1"></path>
                <path d="M58.8093935,1.29002079 C58.8093935,0.578794179 57.9422968,0 56.8780387,0 L47.7043613,0 C46.6351484,0 45.7717677,0.578794179 45.7717677,1.29002079 L45.7717677,11.9814969 L38.5455484,11.9814969 L38.5455484,1.29002079 C38.5455484,0.578794179 37.6801032,0 36.6158452,0 L27.4359742,0 C26.3733677,0 25.506271,0.578794179 25.506271,1.29002079 L25.506271,11.9814969 L18.2800516,11.9814969 L18.2800516,1.29002079 C18.2800516,0.578794179 17.4162581,0 16.3470452,0 L7.17378065,0 C6.10787097,0 5.24242581,0.578794179 5.24242581,1.29002079 L5.24242581,25.1432432 L58.8093935,25.1432432 L58.8093935,1.29002079 L58.8093935,1.29002079 Z" id="Layer-2"></path>
            </g>
        </g>
    </g>
</svg>