<?xml version="1.0" encoding="UTF-8"?>
<svg width="104px" height="103px" viewBox="0 0 104 103" version="1.1" xmlns="http://www.w3.org/2000/svg" xmlns:xlink="http://www.w3.org/1999/xlink">
    <!-- Generator: Sketch 46 (44423) - http://www.bohemiancoding.com/sketch -->
    <title>sports-46</title>
    <desc>Created with Sketch.</desc>
    <defs></defs>
    <g id="ALL" stroke="none" stroke-width="1" fill="none" fill-rule="evenodd" stroke-linecap="round" stroke-linejoin="round">
        <g id="Secondary" transform="translate(-7006.000000, -4438.000000)" stroke="#868E96" stroke-width="3.5">
            <g id="sports-46" transform="translate(7008.000000, 4440.000000)">
                <path d="M65.1655868,83.4956821 C63.9597557,83.9637391 62.8143315,85.1233129 62.8143315,86.3701239 L62.8143315,96.1049811 C62.8143315,97.7249508 64.7479862,99.20517 66.235413,99.20517 L92.711609,99.20517 C94.3477784,99.20517 95.5377198,97.7249508 95.5377198,96.1049811 L95.5377198,94.3227025 L95.5377198,86.3701239 C95.5377198,85.2046508 94.9218112,84.1154041 93.9669378,83.5959468 C91.4214529,85.2512961 88.3890367,86.2228539 85.1257326,86.2228539 L73.8212894,86.2228539 C70.5472061,86.2228539 67.5934261,85.2119959 65.1655868,83.4956821 L65.1655868,83.4956821 Z" id="Layer-1"></path>
                <path d="M6.8135355,45.8719197 C5.60770446,46.3399768 4.46228022,47.4995505 4.46228022,48.7463615 L4.46228022,58.4812187 C4.46228022,60.1011884 6.39593499,61.5814076 7.88336173,61.5814076 L34.3595577,61.5814076 C35.9957271,61.5814076 37.1856685,60.1011884 37.1856685,58.4812187 L37.1856685,56.6989401 L37.1856685,48.7463615 C37.1856685,47.5808885 36.5697599,46.4916417 35.6148866,45.9721844 C33.0694016,47.6275337 30.0369854,48.5990915 26.7736813,48.5990915 L15.4692381,48.5990915 C12.1951548,48.5990915 9.2413748,47.5882335 6.8135355,45.8719197 L6.8135355,45.8719197 Z" id="Layer-2"></path>
                <path d="M62.5867887,82.2441139 C65.4422511,84.7102725 69.1545546,86.2228539 73.2263187,86.2228539 L84.5307619,86.2228539 C93.4553223,86.2228539 100,78.7120852 100,69.8758868 L100,54.4125395 C100,45.576341 93.4553223,37.6237624 84.5307619,37.6237624 L73.2263187,37.6237624 C64.3017582,37.6237624 56.8646245,45.576341 56.8646245,54.4125395 L56.8646245,64.5732672 L53.5846911,67.8141071 C51.3535509,70.6122366 52.3947497,75.1776058 56.1133165,77.9757353 L62.5867887,82.2441139 L62.5867887,82.2441139 Z" id="Layer-3"></path>
                <path d="M86.0569221,92.9077648 L72.2951292,92.9077648" id="Layer-4"></path>
                <path d="M82.3893391,44.1280597 C90.7020884,44.1280597 93.4884953,51.1143675 93.4884953,59.3448125" id="Layer-5"></path>
                <path d="M37.4132113,44.6203515 C34.5577489,47.0865101 30.8454454,48.5990915 26.7736813,48.5990915 L15.4692381,48.5990915 C6.54467766,48.5990915 0,41.0883228 0,32.2521244 L0,16.7887771 C0,7.95257861 6.54467766,0 15.4692381,0 L26.7736813,0 C35.6982418,0 43.1353755,7.95257861 43.1353755,16.7887771 L43.1353755,26.9495048 L46.4153089,30.1903447 C48.6464491,32.9884743 47.6052503,37.5538435 43.8866835,40.351973 L37.4132113,44.6203515 L37.4132113,44.6203515 Z" id="Layer-6"></path>
                <path d="M13.9430779,55.2840024 L27.7048708,55.2840024" id="Layer-7"></path>
                <path d="M17.6106609,6.50429733 C9.29791156,6.50429733 6.51150466,13.4906051 6.51150466,21.7210501" id="Layer-8"></path>
            </g>
        </g>
    </g>
</svg>