<?xml version="1.0" encoding="UTF-8"?>
<svg width="161px" height="50px" viewBox="0 0 161 50" version="1.1" xmlns="http://www.w3.org/2000/svg" xmlns:xlink="http://www.w3.org/1999/xlink">
    <!-- Generator: Sketch 46 (44423) - http://www.bohemiancoding.com/sketch -->
    <title>airbnb</title>
    <desc>Created with Sketch.</desc>
    <defs></defs>
    <g id="Symbols" stroke="none" stroke-width="1" fill="none" fill-rule="evenodd">
        <g id="Testimonials/Testimonials-5" transform="translate(-575.000000, -72.000000)" fill="#868E96">
            <path d="M659.35902,84.562878 C659.35902,86.3644379 657.909224,87.8155768 656.109331,87.8155768 C654.309437,87.8155768 652.858229,86.3644379 652.858229,84.562878 C652.858229,82.761318 654.258617,81.3101792 656.109331,81.3101792 C657.958633,81.3596338 659.35902,82.8107726 659.35902,84.562878 L659.35902,84.562878 Z M645.957932,91.1191432 L645.957932,91.9203075 C645.957932,91.9203075 644.407906,89.9181032 641.108807,89.9181032 C635.658307,89.9181032 631.407735,94.0722885 631.407735,99.8273894 C631.407735,105.533036 635.607486,109.738089 641.108807,109.738089 C644.458727,109.738089 645.957932,107.685017 645.957932,107.685017 L645.957932,108.537049 C645.957932,108.936924 646.25862,109.237891 646.658126,109.237891 L650.708239,109.237891 L650.708239,90.418301 L646.658126,90.418301 C646.25862,90.418301 645.957932,90.7687221 645.957932,91.1191432 L645.957932,91.1191432 Z M645.957932,103.181823 C645.208329,104.282541 643.707712,105.233482 641.907819,105.233482 C638.707538,105.233482 636.258271,103.231278 636.258271,99.8273894 C636.258271,96.4249138 638.707538,94.4227095 641.907819,94.4227095 C643.658304,94.4227095 645.257738,95.4231052 645.957932,96.4743684 L645.957932,103.181823 L645.957932,103.181823 Z M653.709473,109.236478 L658.509188,109.236478 L658.509188,90.418301 L653.709473,90.418301 L653.709473,109.236478 Z M725.41299,89.9181032 C722.113891,89.9181032 720.563865,91.9203075 720.563865,91.9203075 L720.563865,81.3596338 L715.762738,81.3596338 L715.762738,109.237891 L719.812851,109.237891 C720.212357,109.237891 720.513045,108.886057 720.513045,108.537049 L720.513045,107.685017 C720.513045,107.685017 722.06307,109.738089 725.363581,109.738089 C730.814081,109.738089 735.064653,105.533036 735.064653,99.8273894 C735.064653,94.1217431 730.814081,89.9181032 725.41299,89.9181032 L725.41299,89.9181032 Z M724.613978,105.182615 C722.763264,105.182615 721.313468,104.231674 720.563865,103.130956 L720.563865,96.4249138 C721.313468,95.4231052 722.912902,94.373255 724.613978,94.373255 C727.814259,94.373255 730.263526,96.3740462 730.263526,99.7779348 C730.263526,103.181823 727.814259,105.182615 724.613978,105.182615 L724.613978,105.182615 Z M713.262651,98.076697 L713.262651,109.287345 L708.462935,109.287345 L708.462935,98.6263494 C708.462935,95.5234273 707.462053,94.2729328 704.761507,94.2729328 C703.311711,94.2729328 701.812505,95.0232295 700.862444,96.1239473 L700.862444,109.237891 L696.061317,109.237891 L696.061317,90.418301 L699.861562,90.418301 C700.26248,90.418301 700.561756,90.7687221 700.561756,91.1191432 L700.561756,91.9203075 C701.962144,90.4691686 703.811446,89.9181032 705.66216,89.9181032 C707.762741,89.9181032 709.511814,90.5186232 710.912202,91.7196631 C712.613277,93.1213474 713.262651,94.9229074 713.262651,98.076697 L713.262651,98.076697 Z M684.410713,89.9181032 C681.110202,89.9181032 679.560177,91.9203075 679.560177,91.9203075 L679.560177,81.3596338 L674.760461,81.3596338 L674.760461,109.237891 L678.810574,109.237891 C679.21008,109.237891 679.510768,108.886057 679.510768,108.537049 L679.510768,107.685017 C679.510768,107.685017 681.060794,109.738089 684.361304,109.738089 C689.811805,109.738089 694.062376,105.533036 694.062376,99.8273894 C694.111785,94.1217431 689.861213,89.9181032 684.410713,89.9181032 L684.410713,89.9181032 Z M683.61029,105.182615 C681.760987,105.182615 680.311191,104.231674 679.560177,103.130956 L679.560177,96.4249138 C680.311191,95.4231052 681.910626,94.373255 683.61029,94.373255 C686.810571,94.373255 689.261249,96.3740462 689.261249,99.7779348 C689.261249,103.181823 686.810571,105.182615 683.61029,105.182615 L683.61029,105.182615 Z M670.610119,89.9181032 C672.059915,89.9181032 672.810929,90.1682021 672.810929,90.1682021 L672.810929,94.6233539 C672.810929,94.6233539 668.810225,93.2711242 666.310138,96.1239473 L666.310138,109.287345 L661.509011,109.287345 L661.509011,90.418301 L665.559124,90.418301 C665.960041,90.418301 666.259318,90.7687221 666.259318,91.1191432 L666.259318,91.9203075 C667.15997,90.8690443 669.109502,89.9181032 670.610119,89.9181032 L670.610119,89.9181032 Z M620.756601,107.53524 C620.506734,106.93472 620.256866,106.284745 620.006999,105.73368 C619.607493,104.833607 619.206576,103.981575 618.856479,103.181823 L618.80707,103.130956 C615.356921,95.6237495 611.655494,88.0162211 607.75643,80.5090149 L607.605381,80.2080484 C607.205875,79.4577517 606.806369,78.6565874 606.405452,77.856836 C605.905717,76.9553496 605.405981,76.0044085 604.605558,75.1029221 C603.006124,73.1021308 600.705083,72 598.255817,72 C595.75573,72 593.50551,73.1021308 591.855255,75.0040129 C591.10424,75.9040864 590.555097,76.8550274 590.055361,77.7565139 C589.654444,78.5562652 589.254938,79.3574295 588.855432,80.1091392 L588.704383,80.4086927 C584.854728,87.9158989 581.103892,95.5234273 577.653743,103.030634 L577.604334,103.130956 C577.254237,103.93212 576.85332,104.782739 576.453814,105.684225 C576.203947,106.233878 575.954079,106.834398 575.704212,107.485785 C575.053427,109.3368 574.85438,111.088905 575.104247,112.890465 C575.653391,116.644775 578.153478,119.797151 581.603627,121.198836 C582.903785,121.749901 584.254764,122 585.65374,122 C586.054657,122 586.554392,121.949132 586.953898,121.899678 C588.604153,121.699034 590.305229,121.149381 591.955484,120.19844 C594.005245,119.046855 595.954777,117.395071 598.155587,114.992992 C600.354987,117.395071 602.355339,119.046855 604.355691,120.19844 C606.005946,121.149381 607.70561,121.699034 609.355865,121.899678 C609.755371,121.949132 610.256518,122 610.656023,122 C612.056411,122 613.456799,121.749901 614.706136,121.198836 C618.207105,119.797151 620.656372,116.593907 621.206928,112.890465 C621.606433,111.13836 621.407386,109.387667 620.756601,107.53524 L620.756601,107.53524 Z M598.204996,110.137964 C595.50445,106.734076 593.755378,103.532244 593.155413,100.829198 C592.905545,99.6776126 592.854725,98.677217 593.004363,97.7757305 C593.104593,96.9759792 593.405281,96.2737241 593.804786,95.6746171 C594.754848,94.3223874 596.355694,93.4717685 598.204996,93.4717685 C600.05571,93.4717685 601.705965,94.2729328 602.605206,95.6746171 C603.006124,96.2737241 603.3054,96.9759792 603.405629,97.7757305 C603.555268,98.677217 603.505859,99.7270672 603.255991,100.829198 C602.656027,103.481377 600.905542,106.684621 598.204996,110.137964 L598.204996,110.137964 Z M618.156285,112.490589 C617.806188,115.093314 616.057115,117.345617 613.606437,118.346013 C612.406508,118.84621 611.10635,118.9974 609.806191,118.84621 C608.555442,118.696434 607.306104,118.296558 606.005946,117.544848 C604.206053,116.544453 602.406159,114.992992 600.305578,112.691234 C603.606088,108.635958 605.60644,104.932516 606.356043,101.630362 C606.70614,100.078901 606.755549,98.677217 606.60591,97.3758549 C606.405452,96.1239473 605.955125,94.9737749 605.256343,93.9719663 C603.706317,91.7196631 601.106001,90.418301 598.204996,90.418301 C595.305403,90.418301 592.705087,91.7705307 591.155061,93.9719663 C590.454867,94.9737749 590.004541,96.1239473 589.805494,97.3758549 C589.605035,98.677217 589.654444,100.128356 590.055361,101.630362 C590.804964,104.932516 592.854725,108.686825 596.105826,112.740688 C594.054654,115.042446 592.205352,116.593907 590.405458,117.595716 C589.1053,118.346013 587.854551,118.747301 586.605213,118.897078 C585.254234,119.046855 583.954076,118.84621 582.804967,118.39688 C580.354289,117.395071 578.603805,115.142768 578.253708,112.540044 C578.104069,111.28955 578.204299,110.037642 578.704034,108.635958 C578.855084,108.13576 579.10354,107.635562 579.354819,107.035042 C579.704916,106.233878 580.104422,105.383259 580.503927,104.53264 L580.554748,104.432318 C584.004896,96.9759792 587.704912,89.3670378 591.554567,81.9601537 L591.705617,81.6606002 C592.105122,80.9088905 592.504628,80.1091392 592.905545,79.3574295 C593.305051,78.5562652 593.755378,77.8059685 594.304521,77.1559939 C595.354812,75.9549539 596.7552,75.3035664 598.305226,75.3035664 C599.855251,75.3035664 601.255639,75.9549539 602.30593,77.1559939 C602.855074,77.8059685 603.3054,78.5562652 603.706317,79.3574295 C604.105823,80.1091392 604.505329,80.9088905 604.906246,81.6606002 L605.055885,81.9601537 C608.85613,89.4179054 612.556146,97.0254338 616.006295,104.483185 L616.006295,104.53264 C616.4058,105.333804 616.755897,106.233878 617.156815,107.035042 C617.406682,107.635562 617.65655,108.13576 617.806188,108.635958 C618.207105,109.93732 618.356744,111.189227 618.156285,112.490589 L618.156285,112.490589 Z" id="airbnb"></path>
        </g>
    </g>
</svg>