<?xml version="1.0" encoding="UTF-8"?>
<svg width="135px" height="40px" viewBox="0 0 135 40" version="1.1" xmlns="http://www.w3.org/2000/svg" xmlns:xlink="http://www.w3.org/1999/xlink">
    <!-- Generator: Sketch 45.2 (43514) - http://www.bohemiancoding.com/sketch -->
    <title>google-play</title>
    <desc>Created with Sketch.</desc>
    <defs>
        <linearGradient x1="91.488428%" y1="4.9481245%" x2="-38.3517333%" y2="71.9074222%" id="linearGradient-1">
            <stop stop-color="#00A0FF" offset="0%"></stop>
            <stop stop-color="#00A1FF" offset="1%"></stop>
            <stop stop-color="#00BEFF" offset="26%"></stop>
            <stop stop-color="#00D2FF" offset="51%"></stop>
            <stop stop-color="#00DFFF" offset="76%"></stop>
            <stop stop-color="#00E3FF" offset="100%"></stop>
        </linearGradient>
        <linearGradient x1="107.684729%" y1="50%" x2="-130.640394%" y2="50%" id="linearGradient-2">
            <stop stop-color="#FFE000" offset="0%"></stop>
            <stop stop-color="#FFBD00" offset="41%"></stop>
            <stop stop-color="#FFA500" offset="78%"></stop>
            <stop stop-color="#FF9C00" offset="100%"></stop>
        </linearGradient>
        <linearGradient x1="86.219293%" y1="17.8768889%" x2="-50.1497903%" y2="194.702638%" id="linearGradient-3">
            <stop stop-color="#FF3A44" offset="0%"></stop>
            <stop stop-color="#C31162" offset="100%"></stop>
        </linearGradient>
        <linearGradient x1="-18.7537448%" y1="-54.0521474%" x2="42.1210306%" y2="24.9170664%" id="linearGradient-4">
            <stop stop-color="#32A071" offset="0%"></stop>
            <stop stop-color="#2DA771" offset="7%"></stop>
            <stop stop-color="#15CF74" offset="48%"></stop>
            <stop stop-color="#06E775" offset="80%"></stop>
            <stop stop-color="#00F076" offset="100%"></stop>
        </linearGradient>
    </defs>
    <g id="Symbols" stroke="none" stroke-width="1" fill="none" fill-rule="evenodd">
        <g id="Artboard" transform="translate(-179.000000, -28.000000)" fill-rule="nonzero">
            <g id="google-play" transform="translate(179.000000, 28.000000)">
                <rect id="Rectangle-path" fill="#000000" x="0" y="0" width="135" height="40" rx="4"></rect>
                <g id="Group" transform="translate(41.000000, 6.000000)" stroke="#FFFFFF" stroke-width="0.2" fill="#FFFFFF">
                    <path d="M6.42,4.24 C6.45435356,4.98123105 6.18326762,5.7041269 5.67,6.24 C5.09644975,6.83580321 4.29648381,7.1594258 3.47,7.13 C2.20234025,7.12007876 1.06414821,6.35121618 0.581691829,5.17891267 C0.099235452,4.00660917 0.366535519,2.65932246 1.26,1.76 C1.840533,1.16732597 2.64057888,0.841515426 3.47,0.86 C3.89275763,0.858591432 4.31133592,0.94366832 4.7,1.11 C5.06185448,1.25595356 5.38398405,1.48555656 5.64,1.78 L5.11,2.31 C4.70534681,1.82867645 4.09788485,1.56568987 3.47,1.6 C2.83884937,1.59690387 2.23367934,1.85108766 1.79403603,2.30393914 C1.35439271,2.75679062 1.11822833,3.36921739 1.14,4 C1.12660191,4.95318969 1.68797653,5.82083951 2.56293328,6.1992583 C3.43789003,6.5776771 4.45459256,6.39254565 5.14,5.73 C5.4477095,5.39653661 5.62518299,4.96350129 5.64,4.51 L3.47,4.51 L3.47,3.79 L6.38,3.79 C6.40667314,3.93851412 6.42005941,4.08910965 6.42,4.24 L6.42,4.24 Z" id="Shape"></path>
                    <polygon id="Shape" points="11 1.74 8.3 1.74 8.3 3.64 10.76 3.64 10.76 4.36 8.3 4.36 8.3 6.26 11 6.26 11 7 7.5 7 7.5 1 11 1"></polygon>
                    <polygon id="Shape" points="14.28 7 13.51 7 13.51 1.74 11.83 1.74 11.83 1 16 1 16 1.74 14.28 1.74"></polygon>
                    <polygon id="Shape" points="18.94 7 18.94 1 19.71 1 19.71 7"></polygon>
                    <polygon id="Shape" points="23.13 7 22.36 7 22.36 1.74 20.68 1.74 20.68 1 24.8 1 24.8 1.74 23.13 1.74"></polygon>
                    <path d="M32.61,6.22 C31.3929898,7.43022788 29.4270102,7.43022788 28.21,6.22 C27.0302689,4.97123387 27.0302689,3.01876613 28.21,1.77 C28.7919984,1.18374669 29.5839158,0.854032967 30.41,0.854032967 C31.2360842,0.854032967 32.0280016,1.18374669 32.61,1.77 C33.7947655,3.01675984 33.7947655,4.97324016 32.61,6.22 L32.61,6.22 Z M28.78,5.72 C29.6813239,6.61756507 31.1386761,6.61756507 32.04,5.72 C32.9251983,4.74417114 32.9251983,3.25582886 32.04,2.28 C31.1386761,1.38243493 29.6813239,1.38243493 28.78,2.28 C27.8948017,3.25582886 27.8948017,4.74417114 28.78,5.72 L28.78,5.72 Z" id="Shape"></path>
                    <polygon id="Shape" points="34.58 7 34.58 1 35.52 1 38.44 5.67 38.44 5.67 38.44 4.51 38.44 1 39.21 1 39.21 7 38.41 7 35.36 2.11 35.36 2.11 35.36 3.27 35.36 7"></polygon>
                </g>
                <path d="M68.14,21.75 C65.795425,21.7610334 63.9026739,23.6686811 63.9100209,26.0132706 C63.9173678,28.3578601 65.8220372,30.2536083 68.1666353,30.2499478 C70.5112334,30.2462873 72.409974,28.344601 72.41,26 C72.426473,24.8643738 71.9812316,23.7707097 71.1762551,22.9695037 C70.3712787,22.1682976 69.2755364,21.7281956 68.14,21.75 L68.14,21.75 Z M68.14,28.58 C67.0832273,28.6539053 66.088673,28.0743135 65.6320213,27.1184371 C65.1753697,26.1625607 65.3494358,25.0246828 66.0709659,24.249038 C66.7924959,23.4733932 67.9148379,23.2176324 68.9011878,23.6040831 C69.8875378,23.9905338 70.5374189,24.9406494 70.54,26 C70.5725428,26.6626719 70.3360327,27.3103928 69.8841403,27.7961771 C69.432248,28.2819613 68.8032921,28.5646164 68.14,28.58 L68.14,28.58 Z M58.83,21.75 C56.4840995,21.7555198 54.5863275,23.6607469 54.5900052,26.006651 C54.5936829,28.3525551 56.4974192,30.2518225 58.8433255,30.2499869 C61.1892318,30.2481513 63.0899935,28.345907 63.09,26 C63.106473,24.8643738 62.6612316,23.7707097 61.8562551,22.9695037 C61.0512787,22.1682976 59.9555364,21.7281956 58.82,21.75 L58.83,21.75 Z M58.83,28.58 C57.7726757,28.658073 56.7752215,28.0813713 56.3153517,27.1260966 C55.8554819,26.1708219 56.0268227,25.0314615 56.7473134,24.2536934 C57.467804,23.4759253 58.5907575,23.2180976 59.5783538,23.6036927 C60.5659501,23.9892877 61.2171215,24.9398011 61.22,26 C61.2525428,26.6626719 61.0160327,27.3103928 60.5641403,27.7961771 C60.112248,28.2819613 59.4832921,28.5646164 58.82,28.58 L58.83,28.58 Z M47.74,23.06 L47.74,24.86 L52.06,24.86 C51.9922634,25.7078038 51.6398446,26.5077945 51.06,27.13 C50.1860229,28.0202246 48.9765432,28.499658 47.73,28.45 C45.0790332,28.45 42.93,26.3009668 42.93,23.65 C42.93,20.9990332 45.0790332,18.85 47.73,18.85 C48.9477957,18.8301388 50.123762,19.2940521 51,20.14 L52.27,18.87 C51.0749196,17.6598581 49.4407184,16.9852541 47.74,17 C45.3189608,16.905779 43.0403936,18.1436718 41.801854,20.2260571 C40.5633145,22.3084423 40.5633145,24.9015577 41.801854,26.9839429 C43.0403936,29.0663282 45.3189608,30.304221 47.74,30.21 C49.471765,30.2882543 51.1527407,29.6136762 52.35,28.36 C53.3976757,27.2089216 53.9570431,25.6957612 53.91,24.14 C53.9132269,23.7609882 53.8797372,23.3825548 53.81,23.01 L47.74,23.06 Z M93.05,24.46 C92.5160796,22.8892101 91.0679278,21.811053 89.41,21.75 C88.3043635,21.7478383 87.2471451,22.2034076 86.4893794,23.0085336 C85.7316138,23.8136596 85.3408955,24.8965231 85.41,26 C85.385441,27.1292961 85.8211644,28.2200283 86.6170522,29.0215741 C87.4129399,29.8231198 88.5005582,30.2665588 89.63,30.25 C91.0508585,30.257659 92.3806434,29.5514455 93.17,28.37 L91.72,27.37 C91.279746,28.1039422 90.4858563,28.552167 89.63,28.55 C88.7435914,28.5837851 87.9266413,28.0721998 87.57,27.26 L93.26,24.91 L93.05,24.46 Z M87.25,25.88 C87.2090519,25.2551643 87.4213257,24.640145 87.8389667,24.1735911 C88.2566076,23.7070373 88.8444602,23.4282216 89.47,23.4 C90.1293698,23.3565516 90.7510664,23.7106826 91.05,24.3 L87.25,25.88 Z M82.63,30 L84.5,30 L84.5,17.5 L82.63,17.5 L82.63,30 Z M79.57,22.7 L79.5,22.7 C78.9299621,22.0626768 78.1150572,21.69888 77.26,21.7 C74.9901469,21.8100717 73.2063371,23.6824796 73.2063371,25.955 C73.2063371,28.2275204 74.9901469,30.0999283 77.26,30.21 C78.117829,30.2244237 78.9380159,29.8582688 79.5,29.21 L79.56,29.21 L79.56,29.82 C79.56,31.45 78.69,32.32 77.29,32.32 C76.336303,32.2976774 75.4907281,31.7010334 75.15,30.81 L73.52,31.49 C74.1476816,33.016811 75.6392308,34.0098583 77.29,34 C79.48,34 81.29,32.71 81.29,29.57 L81.29,22 L79.57,22 L79.57,22.7 Z M77.43,28.58 C76.0928876,28.4621598 75.0673763,27.342295 75.0673763,26 C75.0673763,24.657705 76.0928876,23.5378402 77.43,23.42 C78.0761196,23.4531575 78.6814859,23.7457702 79.1088498,24.2314965 C79.5362137,24.7172228 79.749373,25.3549169 79.7,26 C79.7551348,26.6480494 79.5426575,27.2904311 79.1119703,27.7777877 C78.6812831,28.2651443 78.0699104,28.5550138 77.42,28.58 L77.43,28.58 Z M101.81,17.5 L97.34,17.5 L97.34,30 L99.21,30 L99.21,25.26 L101.82,25.26 C103.272684,25.3643638 104.661974,24.648509 105.42013,23.404973 C106.178286,22.161437 106.178286,20.598563 105.42013,19.355027 C104.661974,18.111491 103.272684,17.3956362 101.82,17.5 L101.81,17.5 Z M101.81,23.5 L99.2,23.5 L99.2,19.24 L101.85,19.24 C103.034651,19.24 103.995,20.2003492 103.995,21.385 C103.995,22.5696508 103.034651,23.53 101.85,23.53 L101.81,23.5 Z M113.34,21.7 C111.948713,21.6168389 110.640687,22.367088 110.01,23.61 L111.67,24.3 C112.004406,23.6836682 112.671125,23.3228556 113.37,23.38 C113.849528,23.3239946 114.331454,23.4629701 114.707528,23.7657102 C115.083603,24.0684503 115.322299,24.5095749 115.37,24.99 L115.37,25.12 C114.769393,24.8019991 114.099592,24.6371252 113.42,24.64 C111.63,24.64 109.82,25.64 109.82,27.45 C109.855688,28.2297088 110.20524,28.9618295 110.789131,29.4797974 C111.373022,29.9977652 112.141598,30.2575326 112.92,30.2 C113.879229,30.2688831 114.799569,29.8087132 115.32,29 L115.38,29 L115.38,30 L117.18,30 L117.18,25.19 C117.18,23 115.52,21.73 113.39,21.73 L113.34,21.7 Z M113.11,28.55 C112.5,28.55 111.65,28.24 111.65,27.49 C111.65,26.49 112.71,26.16 113.65,26.16 C114.244042,26.1453419 114.831131,26.2903874 115.35,26.58 C115.220696,27.699415 114.286524,28.5525405 113.16,28.58 L113.11,28.55 Z M123.74,22 L121.6,27.42 L121.54,27.42 L119.32,22 L117.32,22 L120.65,29.58 L118.75,33.79 L120.7,33.79 L125.82,22 L123.74,22 Z M106.93,30 L108.8,30 L108.8,17.5 L106.93,17.5 L106.93,30 Z" id="Shape" fill="#FFFFFF"></path>
                <g id="Group" transform="translate(9.000000, 7.000000)">
                    <path d="M1.44,0.54 C1.11406496,0.931108335 0.94955365,1.43179492 0.98,1.94 L0.98,24.06 C0.94955365,24.5682051 1.11406496,25.0688917 1.44,25.46 L1.51,25.53 L13.9,13.15 L13.9,12.86 L1.51,0.47 L1.44,0.54 Z" id="Shape" fill="url(#linearGradient-1)"></path>
                    <path d="M18,17.28 L13.9,13.15 L13.9,12.86 L18,8.72 L18.09,8.77 L23,11.56 C24.4,12.35 24.4,13.65 23,14.45 L18.11,17.23 L18,17.28 Z" id="Shape" fill="url(#linearGradient-2)"></path>
                    <path d="M18.12,17.22 L13.9,13 L1.44,25.46 C2.02871773,25.9775224 2.90242896,26.0027256 3.52,25.52 L18.13,17.22" id="Shape" fill="url(#linearGradient-3)"></path>
                    <path d="M18.12,8.78 L3.51,0.48 C2.89242896,-0.0027256091 2.01871773,0.0224775995 1.43,0.54 L13.9,13 L18.12,8.78 Z" id="Shape" fill="url(#linearGradient-4)"></path>
                    <g transform="translate(0.000000, 17.000000)" id="Shape" fill="#000000">
                        <path d="M18,0.13 L3.51,8.38 C2.91703854,8.82333645 2.10296146,8.82333645 1.51,8.38 L1.51,8.38 L1.44,8.45 L1.44,8.45 L1.51,8.52 L1.51,8.52 C2.10184579,8.96667925 2.91815421,8.96667925 3.51,8.52 L18.12,0.22 L18,0.13 Z" opacity="0.2"></path>
                        <path d="M1.44,8.32 C1.11406496,7.92889166 0.94955365,7.42820508 0.98,6.92 L0.98,7.07 C0.94955365,7.57820508 1.11406496,8.07889166 1.44,8.47 L1.51,8.4 L1.44,8.32 Z" opacity="0.12"></path>
                    </g>
                    <path d="M23,14.3 L18,17.13 L18.09,17.22 L23,14.44 C23.5670701,14.1736132 23.9484684,13.6243997 24,13 L24,13 C23.8860295,13.5648379 23.516706,14.0449585 23,14.3 Z" id="Shape" fill="#000000" opacity="0.12"></path>
                    <path d="M3.51,0.62 L23,11.7 C23.516706,11.9550415 23.8860295,12.4351621 24,13 L24,13 C23.9484684,12.3756003 23.5670701,11.8263868 23,11.56 L3.51,0.48 C2.11,-0.31 0.97,0.35 0.97,1.95 L0.97,2.1 C1,0.49 2.12,-0.17 3.51,0.62 Z" id="Shape" fill="#FFFFFF" opacity="0.25"></path>
                </g>
            </g>
        </g>
    </g>
</svg>