<?xml version="1.0" encoding="UTF-8"?>
<svg width="55px" height="55px" viewBox="0 0 55 55" version="1.1" xmlns="http://www.w3.org/2000/svg" xmlns:xlink="http://www.w3.org/1999/xlink">
    <!-- Generator: Sketch 46 (44423) - http://www.bohemiancoding.com/sketch -->
    <title>js</title>
    <desc>Created with Sketch.</desc>
    <defs></defs>
    <g id="Symbols" stroke="none" stroke-width="1" fill="none" fill-rule="evenodd">
        <g id="Testimonials/Testimonials-5" transform="translate(-1233.000000, -70.000000)" fill-rule="nonzero" fill="#868E96">
            <path d="M1233,70 L1288,70 L1288,125 L1233,125 L1233,70 Z M1269.81051,112.882974 L1265.58564,115.343857 C1267.1119,118.367354 1270.23116,120.674157 1275.05933,120.674157 C1279.99727,120.674157 1283.67416,118.103216 1283.67416,113.410369 C1283.67416,109.057379 1281.18016,107.121249 1276.76297,105.222099 L1275.46328,104.663888 C1273.23273,103.695382 1272.26675,103.062332 1272.26675,101.498637 C1272.26675,100.233417 1273.23186,99.2649119 1274.7546,99.2649119 C1276.24749,99.2649119 1277.20908,99.8962011 1278.10042,101.498637 L1282.14878,98.8924776 C1280.43635,95.8725026 1278.06003,94.7191011 1274.7546,94.7191011 C1270.11172,94.7191011 1267.14088,97.6950532 1267.14088,101.604292 C1267.14088,105.848105 1269.63312,107.855552 1273.38466,109.457988 L1274.68435,110.017079 C1277.0554,111.056902 1278.46925,111.689952 1278.46925,113.477284 C1278.46925,114.968782 1277.09316,116.048225 1274.93902,116.048225 C1272.37476,116.048225 1270.92491,114.707285 1269.81051,112.882974 Z M1251.44538,113.33465 L1247.21348,115.903389 C1248.43941,118.504706 1250.84998,120.664472 1255.0125,120.664472 C1259.61937,120.664472 1262.77551,118.207991 1262.77551,112.810776 L1262.77551,95.0166963 L1257.57675,95.0166963 L1257.57675,112.74034 C1257.57675,115.345618 1256.49924,116.015648 1254.7912,116.015648 C1253.005,116.015648 1252.26207,114.787407 1251.44538,113.33465 Z" id="js"></path>
        </g>
    </g>
</svg>