<?xml version="1.0" encoding="UTF-8"?>
<svg width="69px" height="50px" viewBox="0 0 69 50" version="1.1" xmlns="http://www.w3.org/2000/svg" xmlns:xlink="http://www.w3.org/1999/xlink">
    <!-- Generator: Sketch 46 (44423) - http://www.bohemiancoding.com/sketch -->
    <title>cnbc</title>
    <desc>Created with Sketch.</desc>
    <defs></defs>
    <g id="Symbols" stroke="none" stroke-width="1" fill="none" fill-rule="evenodd">
        <g id="Testimonials/Testimonials-5" transform="translate(-822.000000, -72.000000)" fill="#868E96">
            <path d="M833.929372,114.308884 C833.678303,113.088298 832.679779,112.764459 831.561971,112.660931 C827.951728,112.325588 827.311552,115.030332 827.311552,116.172397 C827.311552,118.126184 827.880708,119.741629 831.425183,119.741629 C832.078863,119.741629 833.88361,119.067193 833.88361,117.971642 L838.981012,117.971642 C838.775456,121.221536 833.324206,122 830.946802,122 C826.020697,122 821.803286,121.080747 822.007092,116.216159 C822.152632,112.743953 825.425783,110.307283 831.936824,110.459575 C835.566323,110.544098 839.052282,111.67816 839.067286,114.308884 L833.929372,114.308884 Z M884.985419,114.308884 C884.73435,113.088298 883.735575,112.764459 882.618018,112.660931 C879.007525,112.325338 878.367849,115.030332 878.367849,116.172147 C878.367849,118.125934 878.936755,119.741379 882.48173,119.741379 C883.13466,119.741379 884.938906,119.066943 884.938906,117.971392 L890.037059,117.971392 C889.832503,121.221286 884.380253,121.99975 882.002599,121.99975 C877.076493,121.99975 872.859083,121.080497 873.063139,116.215909 C873.208679,112.743703 876.48258,110.307033 882.992121,110.459325 C886.622119,110.543848 890.108329,111.67791 890.123583,114.308634 L884.985419,114.308634 L884.985419,114.308884 Z M839.977286,110.691889 L846.594607,110.691889 L852.24066,118.626572 L852.286423,118.626572 L852.286423,110.691889 L856.52759,110.691889 L856.52759,121.70967 L850.187846,121.70967 L844.264716,113.774987 L844.218203,113.774987 L844.218203,121.70967 L839.977036,121.70967 L839.977036,110.691889 L839.977286,110.691889 Z M857.83645,110.691889 L865.874411,110.691889 C869.737224,110.691889 872.009349,111.773686 872.009349,113.407886 C872.009349,114.372902 871.058338,115.564729 868.937754,115.915326 L868.937754,115.946084 C871.491207,116.098376 872.433716,117.716572 872.433716,118.686588 C872.433716,120.628623 870.218356,121.70942 865.897668,121.70942 L857.83645,121.70942 L857.83645,110.691889 L857.83645,110.691889 Z M862.48948,114.972817 L863.821847,114.972817 C865.874161,114.972817 866.962961,114.812523 866.962961,113.957787 C866.962961,113.042536 866.056962,112.736701 864.209703,112.736701 L862.48948,112.736701 L862.48948,114.972817 L862.48948,114.972817 Z M862.48948,119.400785 L862.48948,119.400785 L862.48948,117.065142 L864.209703,117.065142 C866.056962,117.065142 867.202777,117.370976 867.202777,118.286728 C867.202777,119.140963 866.295277,119.400785 863.821847,119.400785 L862.48948,119.400785 Z M878.931003,93.8044927 L859.984791,106.474729 L866.365546,91.3080559 L869.392629,84.2451127 C870.618967,81.9624847 872.927852,80.5073343 875.447045,80.4670733 C877.860209,80.4670733 880.000548,81.6288929 881.357421,83.7114659 C882.754305,85.7940388 882.832327,89.1987256 881.435693,91.308306 C880.81002,92.2955776 879.883516,93.17682 878.931003,93.8044927 Z M869.497408,81.8422016 L860.12858,103.991045 L859.710966,101.574881 L856.89269,83.417385 C856.774908,82.30908 857.231283,81.374823 858.118027,80.760654 L859.462647,79.9596837 C859.541169,79.6791065 859.149561,79.5858308 858.966511,79.4923051 L856.331036,79.4657978 C856.161989,76.8485777 857.309805,74.4729241 859.527665,73.0442811 C861.250389,71.9222224 863.873111,71.6288917 865.791138,72.5366414 C868.283574,73.5514206 870.018301,76.2084016 870.057562,78.9183972 C870.044809,79.9196727 869.875262,80.9477055 869.497408,81.8422016 Z M851.503958,104.071818 L842.27892,81.868959 C841.286897,79.4923051 841.704261,76.3681956 843.400728,74.4454166 C845.214227,72.4293619 847.771681,71.5748768 850.407656,72.2563143 C852.63877,72.8034648 854.726344,74.9395525 855.274745,77.2224306 C855.535567,78.0771657 855.496056,79.1046984 855.444292,80.0394556 L851.503958,104.071818 Z M831.788283,93.0035224 C829.896263,91.3615706 829.04828,89.1717181 829.321855,86.6347702 C829.59568,84.071565 831.618737,81.5616244 834.032401,80.7874114 C836.511583,80.0129483 839.212076,80.6271173 841.013321,82.4828779 C841.77003,83.2040763 842.239409,84.0583113 842.630766,84.9393037 L851.543468,106.51449 L831.788283,93.0035224 Z M829.763226,108.765109 C827.297798,108.485782 825.397525,107.156666 824.238706,104.896294 C823.065133,102.614417 823.369967,99.3765257 824.947901,97.352969 C826.667124,95.2926521 829.155059,94.256117 831.661749,94.7647569 C832.68328,94.9295523 833.540015,95.3691732 834.345487,95.8753125 L853.525264,108.77011 L829.763226,108.765109 Z M881.833802,108.765109 L858.072515,108.77011 L877.251541,95.8753125 C878.057263,95.3691732 878.913499,94.9295523 879.93478,94.7647569 C882.441969,94.256117 884.929904,95.2926521 886.649627,97.352969 C888.227311,99.3765257 888.532395,102.614417 887.358822,104.896294 C886.199253,107.156666 884.300231,108.485782 881.833802,108.765109 Z" id="cnbc"></path>
        </g>
    </g>
</svg>