<?xml version="1.0" encoding="UTF-8"?>
<svg width="104px" height="104px" viewBox="0 0 104 104" version="1.1" xmlns="http://www.w3.org/2000/svg" xmlns:xlink="http://www.w3.org/1999/xlink">
    <!-- Generator: Sketch 46 (44423) - http://www.bohemiancoding.com/sketch -->
    <title>weather-26</title>
    <desc>Created with Sketch.</desc>
    <defs></defs>
    <g id="ALL" stroke="none" stroke-width="1" fill="none" fill-rule="evenodd" stroke-linecap="round" stroke-linejoin="round">
        <g id="Secondary" transform="translate(-8706.000000, -2282.000000)" stroke="#868E96" stroke-width="3.5">
            <g id="weather-26" transform="translate(8708.000000, 2284.000000)">
                <path d="M90.3694074,12.8111351 C90.3703704,12.7566486 90.3703704,12.7031351 90.3703704,12.6486486 C90.3703704,5.67437838 84.7543704,0 77.8518519,0 C73.1564444,0 68.9271111,2.61243243 66.7748889,6.74854054 C65.757037,6.156 64.5957037,5.83783784 63.4074074,5.83783784 C59.6913333,5.83783784 56.6666667,8.89394595 56.6666667,12.6486486 C56.6666667,12.7702703 56.6695556,12.8918919 56.6762963,13.0135135 C51.5966667,14.3221622 48,18.9398919 48,24.3243243 C48,30.7624865 53.1836296,36 59.5555556,36 L89.4074074,36 C89.5335556,36 89.6548889,35.9737297 89.7646667,35.9250811 C95.6185185,35.2556757 100,30.3158919 100,24.3243243 C100,18.6314595 95.839037,13.7471351 90.3694074,12.8111351 L90.3694074,12.8111351 Z" id="Layer-1"></path>
                <path d="M47.248046,94.9657591 C47.8292066,94.9885155 48.4132621,95 49,95 C73.300529,95 93,75.300529 93,51 C93,45.6754554 92.0542245,40.5718086 90.3215032,35.847889 C90.1374593,35.8779143 89.9518154,35.9036801 89.7646667,35.9250811 C89.6548889,35.9737297 89.5335556,36 89.4074074,36 L59.5555556,36 C53.1836296,36 48,30.7624865 48,24.3243243 C48,18.9398919 51.5966667,14.3221622 56.6762963,13.0135135 C56.6695556,12.8918919 56.6666667,12.7702703 56.6666667,12.6486486 C56.6666667,10.8637725 57.3501731,9.23676297 58.46654,8.0208714 C55.4173931,7.35232833 52.2498419,7 49,7 C24.699471,7 5,26.699471 5,51 C5,58.7220432 6.98924176,65.9794742 10.4832397,72.2878073 C12.4781773,68.5472054 16.3861707,66 20.8703704,66 C25.2948889,66 29.2802222,68.4672973 31.3082778,72.3736216 C32.2674074,71.814 33.3617407,71.5135135 34.4814815,71.5135135 C37.9831667,71.5135135 40.8333333,74.3998378 40.8333333,77.9459459 C40.8333333,78.0608108 40.8306111,78.1756757 40.8242593,78.2905405 C45.6108333,79.5264865 49,83.8876757 49,88.972973 C49,91.1809407 48.3559264,93.2393878 47.2480432,94.9657634 L47.248046,94.9657591 Z" id="Layer-2"></path>
                <path d="M9.07407407,77.9459459 C9.07407407,71.3591351 14.3660741,66 20.8703704,66 C25.2948889,66 29.2802222,68.4672973 31.3082778,72.3736216 C32.2674074,71.814 33.3617407,71.5135135 34.4814815,71.5135135 C37.9831667,71.5135135 40.8333333,74.3998378 40.8333333,77.9459459 C40.8333333,78.0608108 40.8306111,78.1756757 40.8242593,78.2905405 C45.6108333,79.5264865 49,83.8876757 49,88.972973 C49,95.0534595 44.1154259,100 38.1111111,100 L9.98148148,100 C9.86261111,100 9.74827778,99.9751892 9.64483333,99.9292432 C4.1287037,99.297027 0,94.6316757 0,88.972973 C0,83.5963784 3.92090741,78.9834054 9.07498148,78.0994054 C9.07407407,78.0479459 9.07407407,77.9974054 9.07407407,77.9459459 Z" id="Layer-3"></path>
            </g>
        </g>
    </g>
</svg>