<?xml version="1.0" encoding="UTF-8"?>
<svg width="104px" height="81px" viewBox="0 0 104 81" version="1.1" xmlns="http://www.w3.org/2000/svg" xmlns:xlink="http://www.w3.org/1999/xlink">
    <!-- Generator: Sketch 46 (44423) - http://www.bohemiancoding.com/sketch -->
    <title>weather-45</title>
    <desc>Created with Sketch.</desc>
    <defs></defs>
    <g id="ALL" stroke="none" stroke-width="1" fill="none" fill-rule="evenodd" stroke-linecap="round" stroke-linejoin="round">
        <g id="Secondary" transform="translate(-4539.000000, -2602.000000)" stroke="#868E96" stroke-width="3.5">
            <g id="weather-45" transform="translate(4541.000000, 2604.000000)">
                <path d="M18.5185185,23.5405405 C18.5185185,10.5606486 29.3185185,0 42.5925926,0 C51.6222222,0 59.7555556,4.86202703 63.8944444,12.5597838 C65.8518519,11.457 68.0851852,10.8648649 70.3703704,10.8648649 C77.5166667,10.8648649 83.3333333,16.5526216 83.3333333,23.5405405 C83.3333333,23.7668919 83.3277778,23.9932432 83.3148148,24.2195946 C93.0833333,26.6551351 100,35.2492432 100,45.2702703 C100,45.2702703 0,45.2702703 0,45.2702703 C0,34.6752162 8.00185185,25.5849459 18.5203704,23.8429459 C18.5185185,23.7415405 18.5185185,23.6419459 18.5185185,23.5405405 Z" id="Layer-1"></path>
                <path d="M5,55 L59,55" id="Layer-2"></path>
                <path d="M9,66 L91,66" id="Layer-3"></path>
                <path d="M25,77 L49,77" id="Layer-4"></path>
                <path d="M57,77 L69,77" id="Layer-5"></path>
                <path d="M67,55 L95,55" id="Layer-6"></path>
            </g>
        </g>
    </g>
</svg>