<?xml version="1.0" encoding="UTF-8"?>
<svg width="104px" height="98px" viewBox="0 0 104 98" version="1.1" xmlns="http://www.w3.org/2000/svg" xmlns:xlink="http://www.w3.org/1999/xlink">
    <!-- Generator: Sketch 46 (44423) - http://www.bohemiancoding.com/sketch -->
    <title>weather-23</title>
    <desc>Created with Sketch.</desc>
    <defs></defs>
    <g id="ALL" stroke="none" stroke-width="1" fill="none" fill-rule="evenodd" stroke-linecap="round" stroke-linejoin="round">
        <g id="Secondary" transform="translate(-7806.000000, -2282.000000)" stroke="#868E96" stroke-width="3.5">
            <g id="weather-23" transform="translate(7808.000000, 2284.000000)">
                <path d="M57.5,74 L11,74" id="Layer-1"></path>
                <path d="M56,84 L23,84" id="Layer-2"></path>
                <path d="M64.5,94 L44,94" id="Layer-3"></path>
                <path d="M37.5,94 L34.5,94" id="Layer-4"></path>
                <path d="M75,84 L62,84" id="Layer-5"></path>
                <path d="M88.5,74 L64.5,74" id="Layer-6"></path>
                <path d="M73.0914123,64 C75.5717084,59.9177867 77,55.125691 77,50 C77,35.0883118 64.9116882,23 50,23 C35.0883118,23 23,35.0883118 23,50 C23,55.125691 24.4282916,59.9177867 26.9085877,64 L73.0914123,64 L73.0914123,64 Z" id="Layer-7"></path>
                <path d="M50,0 L50,16" id="Layer-8"></path>
                <path d="M100,50 L84,50" id="Layer-9"></path>
                <path d="M16,50 L0,50" id="Layer-10"></path>
                <path d="M85.3553391,14.6446609 L74.0416306,25.9583694" id="Layer-11"></path>
                <path d="M25.9583694,25.9583694 L14.6446609,14.6446609" id="Layer-12"></path>
            </g>
        </g>
    </g>
</svg>