<?xml version="1.0" encoding="UTF-8"?>
<svg width="104px" height="72px" viewBox="0 0 104 72" version="1.1" xmlns="http://www.w3.org/2000/svg" xmlns:xlink="http://www.w3.org/1999/xlink">
    <!-- Generator: Sketch 46 (44423) - http://www.bohemiancoding.com/sketch -->
    <title>weather-44</title>
    <desc>Created with Sketch.</desc>
    <defs></defs>
    <g id="ALL" stroke="none" stroke-width="1" fill="none" fill-rule="evenodd" stroke-linecap="round" stroke-linejoin="round">
        <g id="Secondary" transform="translate(-4239.000000, -2602.000000)" stroke="#868E96" stroke-width="3.5">
            <g id="weather-44" transform="translate(4241.000000, 2604.000000)">
                <path d="M13,38 L65,38" id="Layer-1"></path>
                <path d="M74,38 L100,38" id="Layer-2"></path>
                <path d="M31,48 L89.7531597,48 C95.2742622,48 99.75,52.4701998 99.75,57.9871795 L99.75,57.9871795 C99.75,63.5029464 95.2787238,67.974359 89.7547293,67.974359 L89.9862753,67.974359 C84.4660397,67.974359 79.9910046,63.5070987 79.9910046,58.9871795 L79.9910046,58.9871795" id="Layer-3"></path>
                <path d="M19,16.974359 L54.2217273,16.974359 C57.5315538,16.974359 60.2146983,14.2870791 60.2146983,10.9871795 L60.2146983,10.9871795 C60.2146983,7.68055156 57.5268274,5 54.2226683,5 L54.361477,5 C51.0521702,5 48.3694469,7.67806231 48.3694469,10.387693 L48.3694469,10.387693" id="Layer-4"></path>
                <path d="M0,28 L16.2787552,28" id="Layer-5"></path>
                <path d="M26.295681,28 L86.0067374,28 C93.7350029,28 100,21.7336865 100,14 L100,14 C100,6.2680135 93.7283213,0 86.0086837,0 L85.2509594,0 C77.5237688,0 71.2596431,6.2629354 71.2596431,14 L71.2596431,14" id="Layer-6"></path>
            </g>
        </g>
    </g>
</svg>