<?xml version="1.0" encoding="UTF-8"?>
<svg width="124px" height="104px" viewBox="0 0 124 104" version="1.1" xmlns="http://www.w3.org/2000/svg" xmlns:xlink="http://www.w3.org/1999/xlink">
    <!-- Generator: Sketch 46 (44423) - http://www.bohemiancoding.com/sketch -->
    <title>weather-29</title>
    <desc>Created with Sketch.</desc>
    <defs></defs>
    <g id="ALL" stroke="none" stroke-width="1" fill="none" fill-rule="evenodd" stroke-linecap="round" stroke-linejoin="round">
        <g id="Secondary" transform="translate(-9606.000000, -2282.000000)" stroke="#868E96" stroke-width="3.5">
            <g id="weather-29" transform="translate(9608.000000, 2284.000000)">
                <path d="M58.6675925,75.5786888 C55.9470292,76.5002714 53.0318735,77 50,77 C35.0883118,77 23,64.9116882 23,50 C23,35.0883118 35.0883118,23 50,23 C53.0318735,23 55.9470292,23.4997286 58.6675925,24.4213112 C52.080376,30.9454943 48,39.9962357 48,50 C48,60.0037643 52.080376,69.0545057 58.6675988,75.578695 L58.6675925,75.5786888 Z" id="Layer-1"></path>
                <path d="M50,0 L50,16" id="Layer-2"></path>
                <path d="M50,84 L50,100" id="Layer-3"></path>
                <path d="M16,50 L0,50" id="Layer-4"></path>
                <path d="M25.9583694,74.0416306 L14.6446609,85.3553391" id="Layer-5"></path>
                <path d="M25.9583694,25.9583694 L14.6446609,14.6446609" id="Layer-6"></path>
                <circle id="Layer-7" cx="84" cy="50" r="36"></circle>
            </g>
        </g>
    </g>
</svg>