<?xml version="1.0" encoding="UTF-8"?>
<svg width="98px" height="103px" viewBox="0 0 98 103" version="1.1" xmlns="http://www.w3.org/2000/svg" xmlns:xlink="http://www.w3.org/1999/xlink">
    <!-- Generator: Sketch 46 (44423) - http://www.bohemiancoding.com/sketch -->
    <title>weather-38</title>
    <desc>Created with Sketch.</desc>
    <defs></defs>
    <g id="ALL" stroke="none" stroke-width="1" fill="none" fill-rule="evenodd" stroke-linecap="round" stroke-linejoin="round">
        <g id="Secondary" transform="translate(-2455.000000, -2602.000000)" stroke="#868E96" stroke-width="3.5">
            <g id="weather-38" transform="translate(2457.000000, 2604.000000)">
                <path d="M10,14.5 L10,98.5" id="Layer-1"></path>
                <circle id="Layer-2" cx="10" cy="7" r="7"></circle>
                <path d="M5.55111512e-17,99 L20,99" id="Layer-3"></path>
                <polygon id="Layer-4" points="28 42 10 32 28 22"></polygon>
                <path d="M92.8544464,20.4680878 C93.4871182,20.5409409 94,21.0974143 94,21.7151257 L94,42.2848743 C94,42.9007412 93.4878856,43.4589707 92.8544464,43.5319122 L28,51 L28,13 L92.8544464,20.4680878 L92.8544464,20.4680878 L92.8544464,20.4680878 L92.8544464,20.4680878 Z" id="Layer-5"></path>
                <path d="M72,45.9333333 L92.8544464,43.5319122 C93.4878856,43.4589707 94,42.9007412 94,42.2848743 L94,21.7151257 C94,21.0974143 93.4871182,20.5409409 92.8544464,20.4680878 L72,18.0666667 L72,45.9333333 L72,45.9333333 L72,45.9333333 Z" id="Layer-6"></path>
                <polygon id="Layer-7" points="72 45.9333333 50 48.4666667 50 15.5333333 72 18.0666667 72 45.9333333"></polygon>
            </g>
        </g>
    </g>
</svg>