<?xml version="1.0" encoding="UTF-8"?>
<svg width="104px" height="104px" viewBox="0 0 104 104" version="1.1" xmlns="http://www.w3.org/2000/svg" xmlns:xlink="http://www.w3.org/1999/xlink">
    <!-- Generator: Sketch 46 (44423) - http://www.bohemiancoding.com/sketch -->
    <title>weather-20</title>
    <desc>Created with Sketch.</desc>
    <defs></defs>
    <g id="ALL" stroke="none" stroke-width="1" fill="none" fill-rule="evenodd" stroke-linecap="round" stroke-linejoin="round">
        <g id="Secondary" transform="translate(-6906.000000, -2282.000000)" stroke="#868E96" stroke-width="3.5">
            <g id="weather-20" transform="translate(6908.000000, 2284.000000)">
                <path d="M11.1122222,74.2345946 C11.1111111,74.1740541 11.1111111,74.1145946 11.1111111,74.0540541 C11.1111111,66.3048649 17.5911111,60 25.5555556,60 C30.9733333,60 35.8533333,62.9027027 38.3366667,67.4983784 C39.5111111,66.84 40.8511111,66.4864865 42.2222222,66.4864865 C46.51,66.4864865 50,69.8821622 50,74.0540541 C50,74.1891892 49.9966667,74.3243243 49.9888889,74.4594595 C55.85,75.9135135 60,81.0443243 60,87.027027 C60,94.1805405 54.0188889,100 46.6666667,100 L12.2222222,100 C12.0766667,100 11.9366667,99.9708108 11.81,99.9167568 C5.05555556,99.172973 0,93.6843243 0,87.027027 C0,80.7016216 4.80111111,75.2745946 11.1122222,74.2345946 L11.1122222,74.2345946 L11.1122222,74.2345946 Z" id="Layer-1"></path>
                <path d="M49.5860935,13.0046245 C50.4652215,5.69069922 56.7770268,0 64.4074074,0 C70.0057778,0 75.0484444,3.04783784 77.6145556,7.8732973 C78.8281481,7.182 80.2128148,6.81081081 81.6296296,6.81081081 C86.0603333,6.81081081 89.6666667,10.3762703 89.6666667,14.7567568 C89.6666667,14.8986486 89.6632222,15.0405405 89.6551852,15.1824324 C95.7116667,16.7091892 100,22.0965405 100,28.3783784 C100,33.791642 96.7898653,38.4773542 92.152766,40.6725552 C89.6459526,38.5970796 86.6462263,37.0502003 83.3148148,36.2195946 C83.3277778,35.9932432 83.3333333,35.7668919 83.3333333,35.5405405 C83.3333333,28.5526216 77.5166667,22.8648649 70.3703704,22.8648649 C68.0851852,22.8648649 65.8518519,23.457 63.8944444,24.5597838 C60.8625315,18.9208481 55.6871244,14.8036184 49.5860935,13.0046245 L49.5860935,13.0046245 Z" id="Layer-2"></path>
                <path d="M57.1561909,79 L77.7777778,79 C90.0314815,79 100,69.2524054 100,57.2702703 C100,47.2492432 93.0833333,38.6551351 83.3148148,36.2195946 C83.3277778,35.9932432 83.3333333,35.7668919 83.3333333,35.5405405 C83.3333333,28.5526216 77.5166667,22.8648649 70.3703704,22.8648649 C68.0851852,22.8648649 65.8518519,23.457 63.8944444,24.5597838 C59.7555556,16.862027 51.6222222,12 42.5925926,12 C29.3185185,12 18.5185185,22.5606486 18.5185185,35.5405405 C18.5185185,35.6419459 18.5185185,35.7415405 18.5203704,35.8429459 C8.00185185,37.5849459 0,46.6752162 0,57.2702703 C0,64.4462196 3.48940066,70.8115216 8.97727363,74.7697885 C9.66506164,74.5357401 10.3784355,74.3555144 11.1122222,74.2345946 C11.1111111,74.1740541 11.1111111,74.1145946 11.1111111,74.0540541 C11.1111111,66.3048649 17.5911111,60 25.5555556,60 C30.9733333,60 35.8533333,62.9027027 38.3366667,67.4983784 C39.5111111,66.84 40.8511111,66.4864865 42.2222222,66.4864865 C46.51,66.4864865 50,69.8821622 50,74.0540541 C50,74.1891892 49.9966667,74.3243243 49.9888889,74.4594595 C52.8995398,75.1815484 55.3882042,76.8103826 57.1561909,79 L57.1561909,79 Z" id="Layer-3"></path>
            </g>
        </g>
    </g>
</svg>