<?xml version="1.0" encoding="UTF-8"?>
<svg width="104px" height="104px" viewBox="0 0 104 104" version="1.1" xmlns="http://www.w3.org/2000/svg" xmlns:xlink="http://www.w3.org/1999/xlink">
    <!-- Generator: Sketch 46 (44423) - http://www.bohemiancoding.com/sketch -->
    <title>weather-24</title>
    <desc>Created with Sketch.</desc>
    <defs></defs>
    <g id="ALL" stroke="none" stroke-width="1" fill="none" fill-rule="evenodd" stroke-linecap="round" stroke-linejoin="round">
        <g id="Secondary" transform="translate(-8106.000000, -2282.000000)" stroke="#868E96" stroke-width="3.5">
            <g id="weather-24" transform="translate(8108.000000, 2284.000000)">
                <path d="M50,0 L50,16" id="Layer-1"></path>
                <path d="M100,50 L84,50" id="Layer-2"></path>
                <path d="M16,50 L0,50" id="Layer-3"></path>
                <path d="M85.3553391,14.6446609 L74.0416306,25.9583694" id="Layer-4"></path>
                <path d="M25.9583694,74.0416306 L14.6446609,85.3553391" id="Layer-5"></path>
                <path d="M25.9583694,25.9583694 L14.6446609,14.6446609" id="Layer-6"></path>
                <path d="M45.4086481,71.0139189 C45.4074074,70.9458108 45.4074074,70.8789189 45.4074074,70.8108108 C45.4074074,62.092973 52.6434074,55 61.537037,55 C67.5868889,55 73.0362222,58.2655405 75.8092778,63.4356757 C77.1207407,62.695 78.6170741,62.2972973 80.1481481,62.2972973 C84.9361667,62.2972973 88.8333333,66.1174324 88.8333333,70.8108108 C88.8333333,70.9628378 88.8296111,71.1148649 88.8209259,71.2668919 C95.3658333,72.9027027 100,78.6748649 100,85.4054054 C100,93.4531081 93.3210926,100 85.1111111,100 L46.6481481,100 C46.4856111,100 46.3292778,99.9671622 46.1878333,99.9063514 C38.6453704,99.0695946 33,92.8948649 33,85.4054054 C33,78.2893243 38.3612407,72.1839189 45.4086481,71.0139189 L45.4086481,71.0139189 L45.4086481,71.0139189 Z" id="Layer-7"></path>
                <path d="M74.4921999,61.3789783 C76.1014828,57.9210132 77,54.0654366 77,50 C77,35.0883118 64.9116882,23 50,23 C35.0883118,23 23,35.0883118 23,50 C23,60.7007556 29.2250223,69.9475794 38.2512915,74.3166958 C40.2508152,72.6373901 42.7057143,71.4626559 45.4086481,71.0139189 C45.4074074,70.9458108 45.4074074,70.8789189 45.4074074,70.8108108 C45.4074074,62.092973 52.6434074,55 61.537037,55 C66.7394888,55 71.4978688,57.4148031 74.4921985,61.3789814 L74.4921999,61.3789783 Z" id="Layer-8"></path>
            </g>
        </g>
    </g>
</svg>