<?xml version="1.0" encoding="UTF-8"?>
<svg width="82px" height="104px" viewBox="0 0 82 104" version="1.1" xmlns="http://www.w3.org/2000/svg" xmlns:xlink="http://www.w3.org/1999/xlink">
    <!-- Generator: Sketch 46 (44423) - http://www.bohemiancoding.com/sketch -->
    <title>weather-34</title>
    <desc>Created with Sketch.</desc>
    <defs></defs>
    <g id="ALL" stroke="none" stroke-width="1" fill="none" fill-rule="evenodd" stroke-linecap="round" stroke-linejoin="round">
        <g id="Secondary" transform="translate(-1306.000000, -2602.000000)" stroke="#868E96" stroke-width="3.5">
            <g id="weather-34" transform="translate(1308.000000, 2604.000000)">
                <path d="M25,72.8767371 C25,87.8565695 36.8658692,100 51.5033089,100 C66.1407487,100 78,87.8565695 78,72.8767371 C78,57.8969046 51.4966911,19 51.4966911,19 C51.4966911,19 25,57.8969046 25,72.8767371 L25,72.8767371 Z" id="Layer-1"></path>
                <path d="M37.6221768,67.1717441 C37.6221768,67.1717441 35.6090714,72.5682762 37.6456392,78.2744657 C39.682207,83.9806553 43.8165637,85.7023824 43.8165637,85.7023824" id="Layer-2"></path>
                <path d="M0,25.2755063 C0,32.303082 5.59710811,38 12.5015608,38 C19.4060135,38 25,32.303082 25,25.2755063 C25,18.2479306 12.4984392,-3.55271368e-15 12.4984392,-3.55271368e-15 C12.4984392,-3.55271368e-15 0,18.2479306 0,25.2755063 L0,25.2755063 Z" id="Layer-3"></path>
            </g>
        </g>
    </g>
</svg>