<?xml version="1.0" encoding="UTF-8"?>
<svg width="104px" height="104px" viewBox="0 0 104 104" version="1.1" xmlns="http://www.w3.org/2000/svg" xmlns:xlink="http://www.w3.org/1999/xlink">
    <!-- Generator: Sketch 46 (44423) - http://www.bohemiancoding.com/sketch -->
    <title>weather-18</title>
    <desc>Created with Sketch.</desc>
    <defs></defs>
    <g id="ALL" stroke="none" stroke-width="1" fill="none" fill-rule="evenodd" stroke-linecap="round" stroke-linejoin="round">
        <g id="Secondary" transform="translate(-6306.000000, -2282.000000)" stroke="#868E96" stroke-width="3.5">
            <g id="weather-18" transform="translate(6308.000000, 2284.000000)">
                <path d="M15.1851852,31.3243243 C15.1851852,20.6691892 24.0411852,12 34.9259259,12 C42.3302222,12 48.9995556,15.9912162 52.3934444,22.3102703 C53.9985185,21.405 55.8298519,20.9189189 57.7037037,20.9189189 C63.5636667,20.9189189 68.3333333,25.587973 68.3333333,31.3243243 C68.3333333,31.5101351 68.3287778,31.6959459 68.3181481,31.8817568 C76.3283333,33.8810811 82,40.9359459 82,49.1621622 C82,58.9982432 73.8258148,67 63.7777778,67 C63.7777778,67 16.3134444,66.9598649 16.1403333,66.8855405 C6.90925926,65.8628378 0,58.3159459 0,49.1621622 C0,40.4647297 6.56151852,33.0025676 15.1867037,31.5725676 C15.1851852,31.4893243 15.1851852,31.4075676 15.1851852,31.3243243 Z" id="Layer-1"></path>
                <path d="M80.4797198,42 L86.2222222,42 C93.8195185,42 100,35.8895676 100,28.3783784 C100,22.0965405 95.7116667,16.7091892 89.6551852,15.1824324 C89.6632222,15.0405405 89.6666667,14.8986486 89.6666667,14.7567568 C89.6666667,10.3762703 86.0603333,6.81081081 81.6296296,6.81081081 C80.2128148,6.81081081 78.8281481,7.182 77.6145556,7.8732973 C75.0484444,3.04783784 70.0057778,0 64.4074074,0 C56.1774815,0 49.4814815,6.62010811 49.4814815,14.7567568 C49.4814815,14.8203243 49.4814815,14.8827568 49.4826296,14.9463243 C48.4934633,15.1119569 47.5401944,15.383565 46.6346902,15.7483662 C48.9997851,17.4521675 50.9804778,19.6794792 52.3934444,22.3102703 C53.9985185,21.405 55.8298519,20.9189189 57.7037037,20.9189189 C63.5636667,20.9189189 68.3333333,25.587973 68.3333333,31.3243243 C68.3333333,31.5101351 68.3287778,31.6959459 68.3181481,31.8817568 C73.8582085,33.2645435 78.2796435,37.0656374 80.4797198,42 L80.4797198,42 Z" id="Layer-2"></path>
                <path d="M16,85 C18.209139,85 20,83.209139 20,81 C20,78.790861 18.209139,77 16,77 C13.790861,77 12,78.790861 12,81 C12,83.209139 13.790861,85 16,85 Z" id="Layer-3"></path>
                <circle id="Layer-4" cx="41" cy="81" r="4"></circle>
                <circle id="Layer-5" cx="66" cy="81" r="4"></circle>
                <circle id="Layer-6" cx="29" cy="96" r="4"></circle>
                <circle id="Layer-7" cx="54" cy="96" r="4"></circle>
            </g>
        </g>
    </g>
</svg>