<?xml version="1.0" encoding="UTF-8"?>
<svg width="104px" height="104px" viewBox="0 0 104 104" version="1.1" xmlns="http://www.w3.org/2000/svg" xmlns:xlink="http://www.w3.org/1999/xlink">
    <!-- Generator: Sketch 46 (44423) - http://www.bohemiancoding.com/sketch -->
    <title>weather-43</title>
    <desc>Created with Sketch.</desc>
    <defs></defs>
    <g id="ALL" stroke="none" stroke-width="1" fill="none" fill-rule="evenodd" stroke-linecap="round" stroke-linejoin="round">
        <g id="Secondary" transform="translate(-3939.000000, -2602.000000)" stroke="#868E96" stroke-width="3.5">
            <g id="weather-43" transform="translate(3941.000000, 2604.000000)">
                <ellipse id="Layer-1" cx="49.5" cy="28.5" rx="47.5" ry="15.5"></ellipse>
                <ellipse id="Layer-2" cx="50" cy="15.5" rx="50" ry="15.5"></ellipse>
                <path d="M9,45.8545154 C9.04395723,47.1132859 9.54992023,48.2798234 10.4654735,49.3536436 C11.5228982,50.5938598 13.1266861,51.710398 15.1960842,52.7025119 C16.7692968,53.4567437 18.6116066,54.1390651 20.6875333,54.7491483 C22.8965534,55.3983455 25.3701064,55.9657448 28.0654408,56.450951 C30.1503483,56.8262699 32.3679566,57.1524094 34.698479,57.4291867 M42.0932684,58.1171374 C44.7553149,58.3025049 47.5195236,58.4333904 50.3630792,58.509583 C53.2513302,58.5869733 56.0508855,58.5250636 58.7384895,58.3423224 M64.9980286,57.6759149 C67.1077897,57.3667087 69.1239193,56.9815704 71.0323114,56.5317023 M77.5272441,54.6103416 C85.8508471,51.5780861 90.8894648,47.2048813 90.7426271,43" id="Layer-3"></path>
                <path d="M8.80453953,59.7053204 C8.94035754,67.4863293 28.3219015,73.5396286 49.5943391,73.8239705 C70.8667767,74.1083124 90.720353,66.0588542 90.584535,58.2778452" id="Layer-4"></path>
                <path d="M12,74.5950454 C12.0911187,77.2043448 14.9778751,79.7238321 19.6449856,81.8227168 C24.3978499,83.9601666 30.9970942,85.6614153 38.3704354,86.5771012 M47.4047862,87.2729769 C49.4893821,87.3371147 51.5989011,87.3355824 53.7130124,87.261756 M62.8728657,86.4412633 C66.9437348,85.8275876 70.4782383,84.9195569 73.4628034,83.803618 C81.4502914,80.8170694 86.4989036,77.3413995 86.3484741,73.0336603" id="Layer-5"></path>
                <path d="M17.9918415,91.9805085 C19.8411855,93.4242509 21.9331895,94.6142222 24.2961494,95.5778721 C26.4410794,96.452606 28.8092701,97.140857 31.4218854,97.6631556 C32.9723985,97.9731251 34.609,98.2246447 36.3361139,98.422006 M44.9182786,99.8314301 C47.1835649,99.9548495 49.5840444,100.006325 52.1272865,99.9932011 C55.6230088,99.9751615 58.8499546,99.815127 61.8536639,99.4621715 M71.343702,96.6839861 C74.4396466,95.5607551 77.2370708,94.1424922 79.8025891,92.3368486" id="Layer-6"></path>
            </g>
        </g>
    </g>
</svg>