<?xml version="1.0" encoding="UTF-8"?>
<svg width="124px" height="124px" viewBox="0 0 124 124" version="1.1" xmlns="http://www.w3.org/2000/svg" xmlns:xlink="http://www.w3.org/1999/xlink">
    <!-- Generator: Sketch 46 (44423) - http://www.bohemiancoding.com/sketch -->
    <title>weather-11</title>
    <desc>Created with Sketch.</desc>
    <defs></defs>
    <g id="ALL" stroke="none" stroke-width="1" fill="none" fill-rule="evenodd" stroke-linecap="round" stroke-linejoin="round">
        <g id="Secondary" transform="translate(-4126.000000, -2282.000000)" stroke="#868E96" stroke-width="3.5">
            <g id="weather-11" transform="translate(4128.000000, 2284.000000)">
                <path d="M82.5585234,0.0852582409 L83.3397959,11.2579756" id="Layer-1"></path>
                <path d="M119.914742,32.5585234 L108.742024,33.3397959" id="Layer-2"></path>
                <path d="M107.962066,8.58516469 L100.614205,17.037912" id="Layer-3"></path>
                <path d="M111.414835,57.962066 L102.962088,50.6142049" id="Layer-4"></path>
                <path d="M67.037912,19.3857951 L58.5851647,12.037934" id="Layer-5"></path>
                <path d="M27.87481,87 L20.3703704,87 C20.1277778,87 19.8944444,86.9511081 19.6833333,86.8605676 C8.42592593,85.6147297 0,76.4212432 0,65.2702703 C0,54.6752162 8.00185185,45.5849459 18.5203704,43.8429459 C18.5185185,43.7415405 18.5185185,43.6419459 18.5185185,43.5405405 C18.5185185,30.5606486 29.3185185,20 42.5925926,20 C51.6222222,20 59.7555556,24.862027 63.8944444,32.5597838 C65.8518519,31.457 68.0851852,30.8648649 70.3703704,30.8648649 C77.5166667,30.8648649 83.3333333,36.5526216 83.3333333,43.5405405 C83.3333333,43.7668919 83.3277778,43.9932432 83.3148148,44.2195946 C93.0833333,46.6551351 100,55.2492432 100,65.2702703 C100,77.2524054 90.0314815,87 77.7777778,87 L73.87481,87" id="Layer-6"></path>
                <polygon id="Layer-7" points="45.7336371 92.4789681 38.6436633 120 67 86.4077888 54.4063418 86.4077886 56.5040054 60 33 92.4789687"></polygon>
                <path d="M94.7400822,51.2016251 C100.629182,47.654731 104.366432,41.0102823 103.853961,33.6816026 C103.12583,23.2688478 94.0943575,15.4179087 83.6816026,16.1460395 C74.9310391,16.7579385 67.9896842,23.2338334 66.4286994,31.465573 C67.6939582,31.0706685 69.0231534,30.8648649 70.3703704,30.8648649 C77.5166667,30.8648649 83.3333333,36.5526216 83.3333333,43.5405405 C83.3333333,43.7668919 83.3277778,43.9932432 83.3148148,44.2195946 C87.886899,45.3595317 91.8342451,47.8485892 94.7400822,51.2016251 L94.7400822,51.2016251 Z" id="Layer-8"></path>
            </g>
        </g>
    </g>
</svg>