<?xml version="1.0" encoding="UTF-8"?>
<svg width="104px" height="104px" viewBox="0 0 104 104" version="1.1" xmlns="http://www.w3.org/2000/svg" xmlns:xlink="http://www.w3.org/1999/xlink">
    <!-- Generator: Sketch 46 (44423) - http://www.bohemiancoding.com/sketch -->
    <title>web-3</title>
    <desc>Created with Sketch.</desc>
    <defs></defs>
    <g id="ALL" stroke="none" stroke-width="1" fill="none" fill-rule="evenodd" stroke-linecap="round" stroke-linejoin="round">
        <g id="Secondary" transform="translate(-5712.000000, -7802.000000)" stroke="#868E96" stroke-width="3.5">
            <g id="web-3" transform="translate(5714.000000, 7804.000000)">
                <path d="M39.7270452,78.9542689 C61.3916426,78.9542689 78.9542689,61.3916426 78.9542689,39.7270452 C78.9542689,18.0624478 61.3916426,0.499821508 39.7270452,0.499821508 C18.0624478,0.499821508 0.499821508,18.0624478 0.499821508,39.7270452 C0.499821508,61.3916426 18.0624478,78.9542689 39.7270452,78.9542689 L39.7270452,78.9542689 Z" id="Layer-1"></path>
                <path d="M39.7270452,78.9542689 C61.3916426,78.9542689 78.9542689,61.3916426 78.9542689,39.7270452 C78.9542689,18.0624478 61.3916426,0.499821508 39.7270452,0.499821508 C18.0624478,0.499821508 0.499821508,18.0624478 0.499821508,39.7270452 C0.499821508,61.3916426 18.0624478,78.9542689 39.7270452,78.9542689 L39.7270452,78.9542689 Z" id="Layer-2"></path>
                <path d="M98.5678807,98.5678807 L68.1509691,68.1509691" id="Layer-3"></path>
                <path d="M73.8891838,78.0864182 C72.7077292,76.9049636 72.7117198,74.9854565 73.8927188,73.8044575 L73.8927188,73.8044575 C75.0761257,72.6210506 76.9987906,72.6250337 78.1746795,73.8009226 L98.860306,94.4865491 C100.041761,95.6680038 100.03777,97.5875109 98.8567711,98.7685098 L98.8567711,98.7685098 C97.6733641,99.9519168 95.7506992,99.9479336 94.5748104,98.7720448 L73.8891838,78.0864182 L73.8891838,78.0864182 Z" id="Layer-4"></path>
                <path d="M40.4040404,66.6666667 C54.9084884,66.6666667 66.6666667,54.9084884 66.6666667,40.4040404 C66.6666667,25.8995924 54.9084884,14.1414141 40.4040404,14.1414141 C25.8995924,14.1414141 14.1414141,25.8995924 14.1414141,40.4040404 C14.1414141,54.9084884 25.8995924,66.6666667 40.4040404,66.6666667 L40.4040404,66.6666667 Z" id="Layer-5"></path>
                <path d="M40.4040404,14.1414141 L40.4040404,66.6666667" id="Layer-6"></path>
                <path d="M64.6464646,32.3232323 L16.1616162,32.3232323" id="Layer-7"></path>
                <path d="M64.6464646,48.4848485 L16.1616162,48.4848485" id="Layer-8"></path>
                <path d="M40.4040404,14.1414141 C40.4040404,14.1414141 53.6138236,24.2865948 53.6138236,40.4040404 C53.6138236,56.521486 40.4040404,66.6666667 40.4040404,66.6666667" id="Layer-9"></path>
                <path d="M40.4825105,14.1414141 C40.4825105,14.1414141 27.2727273,24.2865948 27.2727273,40.4040404 C27.2727273,56.521486 40.4825105,66.6666667 40.4825105,66.6666667" id="Layer-10"></path>
            </g>
        </g>
    </g>
</svg>