<?xml version="1.0" encoding="UTF-8"?>
<svg width="104px" height="104px" viewBox="0 0 104 104" version="1.1" xmlns="http://www.w3.org/2000/svg" xmlns:xlink="http://www.w3.org/1999/xlink">
    <!-- Generator: Sketch 46 (44423) - http://www.bohemiancoding.com/sketch -->
    <title>web-27</title>
    <desc>Created with Sketch.</desc>
    <defs></defs>
    <g id="ALL" stroke="none" stroke-width="1" fill="none" fill-rule="evenodd" stroke-linecap="round" stroke-linejoin="round">
        <g id="Secondary" transform="translate(-3407.000000, -8103.000000)" stroke="#868E96" stroke-width="3.5">
            <g id="web-27" transform="translate(3409.000000, 8105.000000)">
                <path d="M12.2445409,41.8529185 C11.8577979,42.0980953 11.1292283,43.636993 11.4588404,44.987204 C11.949036,46.9952239 13.6926492,47.778929 13.6926492,47.778929 C13.6926492,47.778929 16.4204382,51.4869322 16.4204382,53.64334 C16.4204382,55.7997478 16.4204382,56.6375203 15.6894324,58.4365206 C14.9584267,60.2355208 0.609176145,62.3920389 0,72.9976841 L20.8853481,72.9976841 L42,73 C41.3908239,62.3943548 27.0415733,60.2378367 26.3105676,58.4388365 C25.5795618,56.6398362 25.5795618,55.8020637 25.5795618,53.6456559 C25.5795618,51.4892481 28.3073508,47.7812449 28.3073508,47.7812449 C28.3073508,47.7812449 30.050964,46.9975398 30.5411596,44.9895199 C30.8707717,43.6393089 30.1422021,42.1004112 29.7554591,41.8552344 C30.7892287,38.6077864 32.8538888,27.4122883 21.1146519,27.0087812 C21.0624695,27.0011526 21.0105564,27.0025144 20.9589085,27.0040837 C9.14611121,27.4099724 11.2107713,38.6054705 12.2445409,41.8529185 Z" id="Layer-1"></path>
                <path d="M12.2445409,41.8529185 C11.8577979,42.0980953 11.1292283,43.636993 11.4588404,44.987204 C11.949036,46.9952239 13.6926492,47.778929 13.6926492,47.778929 C13.6926492,47.778929 16.4204382,51.4869322 16.4204382,53.64334 C16.4204382,55.7997478 16.4204382,56.6375203 15.6894324,58.4365206 C14.9584267,60.2355208 0.609176145,62.3920389 0,72.9976841 L20.8853481,72.9976841 L42,73 C41.3908239,62.3943548 27.0415733,60.2378367 26.3105676,58.4388365 C25.5795618,56.6398362 25.5795618,55.8020637 25.5795618,53.6456559 C25.5795618,51.4892481 28.3073508,47.7812449 28.3073508,47.7812449 C28.3073508,47.7812449 30.050964,46.9975398 30.5411596,44.9895199 C30.8707717,43.6393089 30.1422021,42.1004112 29.7554591,41.8552344 C30.7892287,38.6077864 32.8538888,27.4122883 21.1146519,27.0087812 C21.0624695,27.0011526 21.0105564,27.0025144 20.9589085,27.0040837 C9.14611121,27.4099724 11.2107713,38.6054705 12.2445409,41.8529185 Z" id="Layer-2"></path>
                <path d="M70.2445409,41.8529185 C69.8577979,42.0980953 69.1292283,43.636993 69.4588404,44.987204 C69.949036,46.9952239 71.6926492,47.778929 71.6926492,47.778929 C71.6926492,47.778929 74.4204382,51.4869322 74.4204382,53.64334 C74.4204382,55.7997478 74.4204382,56.6375203 73.6894324,58.4365206 C72.9584267,60.2355208 58.6091761,62.3920389 58,72.9976841 L78.8853481,72.9976841 L100,73 C99.3908239,62.3943548 85.0415733,60.2378367 84.3105676,58.4388365 C83.5795618,56.6398362 83.5795618,55.8020637 83.5795618,53.6456559 C83.5795618,51.4892481 86.3073508,47.7812449 86.3073508,47.7812449 C86.3073508,47.7812449 88.050964,46.9975398 88.5411596,44.9895199 C88.8707717,43.6393089 88.1422021,42.1004112 87.7554591,41.8552344 C88.7892287,38.6077864 90.8538888,27.4122883 79.1146519,27.0087812 C79.0624695,27.0011526 79.0105564,27.0025144 78.9589085,27.0040837 C67.1461112,27.4099724 69.2107713,38.6054705 70.2445409,41.8529185 Z" id="Layer-3"></path>
                <path d="M70.2445409,41.8529185 C69.8577979,42.0980953 69.1292283,43.636993 69.4588404,44.987204 C69.949036,46.9952239 71.6926492,47.778929 71.6926492,47.778929 C71.6926492,47.778929 74.4204382,51.4869322 74.4204382,53.64334 C74.4204382,55.7997478 74.4204382,56.6375203 73.6894324,58.4365206 C72.9584267,60.2355208 58.6091761,62.3920389 58,72.9976841 L78.8853481,72.9976841 L100,73 C99.3908239,62.3943548 85.0415733,60.2378367 84.3105676,58.4388365 C83.5795618,56.6398362 83.5795618,55.8020637 83.5795618,53.6456559 C83.5795618,51.4892481 86.3073508,47.7812449 86.3073508,47.7812449 C86.3073508,47.7812449 88.050964,46.9975398 88.5411596,44.9895199 C88.8707717,43.6393089 88.1422021,42.1004112 87.7554591,41.8552344 C88.7892287,38.6077864 90.8538888,27.4122883 79.1146519,27.0087812 C79.0624695,27.0011526 79.0105564,27.0025144 78.9589085,27.0040837 C67.1461112,27.4099724 69.2107713,38.6054705 70.2445409,41.8529185 Z" id="Layer-4"></path>
                <path d="" id="Layer-5"></path>
                <path d="M21,14 C21,14 29.1223221,1.94289029e-16 50,0 C70.8776779,-1.94289029e-16 78.5,14 78.5,14" id="Layer-6"></path>
                <polyline id="Layer-7" points="70.386039 8.56801948 76.75 14.9319805 83.113961 8.56801948"></polyline>
                <path d="M79,86 C79,86 70.8776779,100 50,100 C29.1223221,100 21.5,86 21.5,86" id="Layer-8"></path>
                <polyline id="Layer-9" points="30 86 21 86 21 95"></polyline>
            </g>
        </g>
    </g>
</svg>