<?xml version="1.0" encoding="UTF-8"?>
<svg width="104px" height="104px" viewBox="0 0 104 104" version="1.1" xmlns="http://www.w3.org/2000/svg" xmlns:xlink="http://www.w3.org/1999/xlink">
    <!-- Generator: Sketch 46 (44423) - http://www.bohemiancoding.com/sketch -->
    <title>web-28</title>
    <desc>Created with Sketch.</desc>
    <defs></defs>
    <g id="ALL" stroke="none" stroke-width="1" fill="none" fill-rule="evenodd" stroke-linecap="round" stroke-linejoin="round">
        <g id="Secondary" transform="translate(-3707.000000, -8103.000000)" stroke="#868E96" stroke-width="3.5">
            <g id="web-28" transform="translate(3709.000000, 8105.000000)">
                <path d="M11.0783942,72.2384709 C10.7284838,72.456998 10.0693018,73.8286242 10.3675222,75.0320731 C10.8110326,76.82183 12.3885874,77.5203498 12.3885874,77.5203498 C12.3885874,77.5203498 14.8565869,80.8253092 14.8565869,82.7473248 C14.8565869,84.6693404 14.8565869,85.4160507 14.1952008,87.0195075 C13.5338146,88.6229642 0.551159369,90.5450781 0,99.9979358 L18.8962673,99.9979358 L38,100 C37.4488406,90.5471423 24.4661854,88.6250284 23.8047992,87.0215716 C23.1434131,85.4181149 23.1434131,84.6714046 23.1434131,82.749389 C23.1434131,80.8273733 25.6114126,77.522414 25.6114126,77.522414 C25.6114126,77.522414 27.1889674,76.8238941 27.6324778,75.0341373 C27.9306982,73.8306884 27.2715162,72.4590621 26.9216058,72.240535 C27.8569212,69.3460705 29.724947,59.3674743 19.1037327,59.0078267 C19.05652,59.0010273 19.009551,59.0022411 18.962822,59.0036398 C8.275053,59.3654102 10.1430788,69.3440063 11.0783942,72.2384709 Z" id="Layer-1"></path>
                <path d="M11.0783942,72.2384709 C10.7284838,72.456998 10.0693018,73.8286242 10.3675222,75.0320731 C10.8110326,76.82183 12.3885874,77.5203498 12.3885874,77.5203498 C12.3885874,77.5203498 14.8565869,80.8253092 14.8565869,82.7473248 C14.8565869,84.6693404 14.8565869,85.4160507 14.1952008,87.0195075 C13.5338146,88.6229642 0.551159369,90.5450781 0,99.9979358 L18.8962673,99.9979358 L38,100 C37.4488406,90.5471423 24.4661854,88.6250284 23.8047992,87.0215716 C23.1434131,85.4181149 23.1434131,84.6714046 23.1434131,82.749389 C23.1434131,80.8273733 25.6114126,77.522414 25.6114126,77.522414 C25.6114126,77.522414 27.1889674,76.8238941 27.6324778,75.0341373 C27.9306982,73.8306884 27.2715162,72.4590621 26.9216058,72.240535 C27.8569212,69.3460705 29.724947,59.3674743 19.1037327,59.0078267 C19.05652,59.0010273 19.009551,59.0022411 18.962822,59.0036398 C8.275053,59.3654102 10.1430788,69.3440063 11.0783942,72.2384709 Z" id="Layer-2"></path>
                <path d="M73.0783942,72.2384709 C72.7284838,72.456998 72.0693018,73.8286242 72.3675222,75.0320731 C72.8110326,76.82183 74.3885874,77.5203498 74.3885874,77.5203498 C74.3885874,77.5203498 76.8565869,80.8253092 76.8565869,82.7473248 C76.8565869,84.6693404 76.8565869,85.4160507 76.1952008,87.0195075 C75.5338146,88.6229642 62.5511594,90.5450781 62,99.9979358 L80.8962673,99.9979358 L100,100 C99.4488406,90.5471423 86.4661854,88.6250284 85.8047992,87.0215716 C85.1434131,85.4181149 85.1434131,84.6714046 85.1434131,82.749389 C85.1434131,80.8273733 87.6114126,77.522414 87.6114126,77.522414 C87.6114126,77.522414 89.1889674,76.8238941 89.6324778,75.0341373 C89.9306982,73.8306884 89.2715162,72.4590621 88.9216058,72.240535 C89.8569212,69.3460705 91.724947,59.3674743 81.1037327,59.0078267 C81.05652,59.0010273 81.009551,59.0022411 80.962822,59.0036398 C70.275053,59.3654102 72.1430788,69.3440063 73.0783942,72.2384709 Z" id="Layer-3"></path>
                <path d="M73.0783942,72.2384709 C72.7284838,72.456998 72.0693018,73.8286242 72.3675222,75.0320731 C72.8110326,76.82183 74.3885874,77.5203498 74.3885874,77.5203498 C74.3885874,77.5203498 76.8565869,80.8253092 76.8565869,82.7473248 C76.8565869,84.6693404 76.8565869,85.4160507 76.1952008,87.0195075 C75.5338146,88.6229642 62.5511594,90.5450781 62,99.9979358 L80.8962673,99.9979358 L100,100 C99.4488406,90.5471423 86.4661854,88.6250284 85.8047992,87.0215716 C85.1434131,85.4181149 85.1434131,84.6714046 85.1434131,82.749389 C85.1434131,80.8273733 87.6114126,77.522414 87.6114126,77.522414 C87.6114126,77.522414 89.1889674,76.8238941 89.6324778,75.0341373 C89.9306982,73.8306884 89.2715162,72.4590621 88.9216058,72.240535 C89.8569212,69.3460705 91.724947,59.3674743 81.1037327,59.0078267 C81.05652,59.0010273 81.009551,59.0022411 80.962822,59.0036398 C70.275053,59.3654102 72.1430788,69.3440063 73.0783942,72.2384709 Z" id="Layer-4"></path>
                <path d="M42.0783942,13.2384709 C41.7284838,13.456998 41.0693018,14.8286242 41.3675222,16.0320731 C41.8110326,17.82183 43.3885874,18.5203498 43.3885874,18.5203498 C43.3885874,18.5203498 45.8565869,21.8253092 45.8565869,23.7473248 C45.8565869,25.6693404 45.8565869,26.4160507 45.1952008,28.0195075 C44.5338146,29.6229642 31.5511594,31.5450781 31,40.9979358 L49.8962673,40.9979358 L69,41 C68.4488406,31.5471423 55.4661854,29.6250284 54.8047992,28.0215716 C54.1434131,26.4181149 54.1434131,25.6714046 54.1434131,23.749389 C54.1434131,21.8273733 56.6114126,18.522414 56.6114126,18.522414 C56.6114126,18.522414 58.1889674,17.8238941 58.6324778,16.0341373 C58.9306982,14.8306884 58.2715162,13.4590621 57.9216058,13.240535 C58.8569212,10.3460705 60.724947,0.367474344 50.1037327,0.0078266812 C50.05652,0.00102733882 50.009551,0.00224106347 49.962822,0.00363983025 C39.275053,0.365410173 41.1430788,10.3440063 42.0783942,13.2384709 Z" id="Layer-5"></path>
                <path d="M42.0783942,13.2384709 C41.7284838,13.456998 41.0693018,14.8286242 41.3675222,16.0320731 C41.8110326,17.82183 43.3885874,18.5203498 43.3885874,18.5203498 C43.3885874,18.5203498 45.8565869,21.8253092 45.8565869,23.7473248 C45.8565869,25.6693404 45.8565869,26.4160507 45.1952008,28.0195075 C44.5338146,29.6229642 31.5511594,31.5450781 31,40.9979358 L49.8962673,40.9979358 L69,41 C68.4488406,31.5471423 55.4661854,29.6250284 54.8047992,28.0215716 C54.1434131,26.4181149 54.1434131,25.6714046 54.1434131,23.749389 C54.1434131,21.8273733 56.6114126,18.522414 56.6114126,18.522414 C56.6114126,18.522414 58.1889674,17.8238941 58.6324778,16.0341373 C58.9306982,14.8306884 58.2715162,13.4590621 57.9216058,13.240535 C58.8569212,10.3460705 60.724947,0.367474344 50.1037327,0.0078266812 C50.05652,0.00102733882 50.009551,0.00224106347 49.962822,0.00363983025 C39.275053,0.365410173 41.1430788,10.3440063 42.0783942,13.2384709 Z" id="Layer-6"></path>
                <path d="M50,65 L63,73" id="Layer-7"></path>
                <polyline id="Layer-8" points="50 52 50 65 37 73"></polyline>
            </g>
        </g>
    </g>
</svg>