<?xml version="1.0" encoding="UTF-8"?>
<svg width="104px" height="104px" viewBox="0 0 104 104" version="1.1" xmlns="http://www.w3.org/2000/svg" xmlns:xlink="http://www.w3.org/1999/xlink">
    <!-- Generator: Sketch 46 (44423) - http://www.bohemiancoding.com/sketch -->
    <title>web-16</title>
    <desc>Created with Sketch.</desc>
    <defs></defs>
    <g id="ALL" stroke="none" stroke-width="1" fill="none" fill-rule="evenodd" stroke-linecap="round" stroke-linejoin="round">
        <g id="Secondary" transform="translate(-9602.000000, -7802.000000)" stroke="#868E96" stroke-width="3.5">
            <g id="web-16" transform="translate(9604.000000, 7804.000000)">
                <rect id="Layer-1" x="0" y="0" width="100" height="100" rx="3"></rect>
                <rect id="Layer-2" x="0" y="0" width="100" height="100" rx="3"></rect>
                <rect id="Layer-3" x="8" y="25" width="84" height="50"></rect>
                <path d="M62.6820663,48.5531643 C63.1706405,48.7995879 63.1750206,49.196921 62.6820663,49.4455672 L41.8846417,59.935792 C41.3960676,60.1822289 41,59.9272721 41,59.3744617 L41,38.6248581 C41,38.068407 41.3916875,37.8148709 41.8846417,38.0635038 L62.6820663,48.5531643 Z" id="Layer-4"></path>
                <circle id="Layer-5" cx="13" cy="87" r="5"></circle>
                <path d="M18,87 L92,87" id="Layer-6"></path>
                <path d="M0,3.00947762 C0,1.34738902 1.33801252,0 2.99280137,0 L97.0071986,0 C98.6600772,0 100,1.33663106 100,3.00947762 L100,16 L0,16 L0,3.00947762 Z" id="Layer-7"></path>
                <path d="M8,8 L23.2800007,8" id="Layer-8"></path>
            </g>
        </g>
    </g>
</svg>