<?xml version="1.0" encoding="UTF-8"?>
<svg width="98px" height="98px" viewBox="0 0 98 98" version="1.1" xmlns="http://www.w3.org/2000/svg" xmlns:xlink="http://www.w3.org/1999/xlink">
    <!-- Generator: Sketch 46 (44423) - http://www.bohemiancoding.com/sketch -->
    <title>web-49</title>
    <desc>Created with Sketch.</desc>
    <defs></defs>
    <g id="ALL" stroke="none" stroke-width="1" fill="none" fill-rule="evenodd" stroke-linecap="round" stroke-linejoin="round">
        <g id="Secondary" transform="translate(-419.000000, -8405.000000)" stroke="#868E96" stroke-width="3.5">
            <g id="web-49" transform="translate(420.000000, 8406.000000)">
                <rect id="Layer-1" transform="translate(48.000000, 47.752241) rotate(-315.000000) translate(-48.000000, -47.752241) " x="44.2765957" y="28.0713902" width="7.44680851" height="39.3617021" rx="3.72340426"></rect>
                <path d="M40.7298287,49.7567238 L35.6988217,44.7257168 C33.3496089,42.376504 29.5512915,42.3769883 27.2082618,44.720018 L2.59450765,69.3337721 C0.250482414,71.6777974 0.254029366,75.478155 2.60020643,77.8243321 L18.1756679,93.3997936 C20.5248807,95.7490064 24.3231981,95.7485221 26.6662279,93.4054924 L51.279982,68.7917382 C53.6240072,66.447713 53.6204603,62.6473553 51.2742832,60.3011783 L45.9955175,55.0224126 L40.7298287,60.2881014 L42.8753564,62.4336291 C44.0438134,63.6020861 44.0357632,65.5045795 42.867964,66.6723786 L24.5468682,84.9934744 C23.3743285,86.1660141 21.4716667,86.1644147 20.3081187,85.0008668 L10.9991332,75.6918813 C9.8306762,74.5234243 9.83872647,72.6209309 11.0065256,71.4531318 L29.3276214,53.132036 C30.5001611,51.9594963 32.402823,51.9610956 33.5663709,53.1246436 L35.4641399,55.0224126 L40.7298287,49.7567238 L40.7298287,49.7567238 Z" id="Layer-2"></path>
                <path d="M55.0224126,45.9955175 L60.3011783,51.2742832 C62.6503911,53.623496 66.4487085,53.6230117 68.7917382,51.279982 L93.4054924,26.6662279 C95.7495176,24.3222026 95.7459706,20.521845 93.3997936,18.1756679 L77.8243321,2.60020643 C75.4751193,0.250993635 71.6768019,0.251477934 69.3337721,2.59450765 L44.720018,27.2082618 C42.3759928,29.552287 42.3795397,33.3526447 44.7257168,35.6988217 L49.7567238,40.7298287 L55.0224126,35.4641399 L53.1246436,33.5663709 C51.9561866,32.3979139 51.9642368,30.4954205 53.132036,29.3276214 L71.4531318,11.0065256 C72.6256715,9.83398589 74.5283333,9.83558526 75.6918813,10.9991332 L85.0008668,20.3081187 C86.1693238,21.4765757 86.1612735,23.3790691 84.9934744,24.5468682 L66.6723786,42.867964 C65.4998389,44.0405037 63.597177,44.0389044 62.4336291,42.8753564 L60.2881014,40.7298287 L55.0224126,45.9955175 L55.0224126,45.9955175 Z" id="Layer-3"></path>
            </g>
        </g>
    </g>
</svg>