<?xml version="1.0" encoding="UTF-8"?>
<svg width="103px" height="104px" viewBox="0 0 103 104" version="1.1" xmlns="http://www.w3.org/2000/svg" xmlns:xlink="http://www.w3.org/1999/xlink">
    <!-- Generator: Sketch 46 (44423) - http://www.bohemiancoding.com/sketch -->
    <title>web-5</title>
    <desc>Created with Sketch.</desc>
    <defs></defs>
    <g id="ALL" stroke="none" stroke-width="1" fill="none" fill-rule="evenodd" stroke-linecap="round" stroke-linejoin="round">
        <g id="Secondary" transform="translate(-6312.000000, -7802.000000)" stroke="#868E96" stroke-width="3.5">
            <g id="web-5" transform="translate(6314.000000, 7804.000000)">
                <path d="M51.2505478,60.9322837 C50.3977457,62.4873557 49.7240958,64.1355843 49.2510971,65.8411383 L45.2810382,66.2998477 C43.9839612,66.4503616 43.0165093,67.5468018 43.0093185,68.8438761 L43.0092036,74.8921114 C43.0091789,76.1963517 43.983827,77.2855172 45.2808983,77.4359818 L49.2222752,77.8945409 C49.7023021,79.6789762 50.3974583,81.3916025 51.2931971,83.0039705 L48.7921488,86.1642926 C47.9823537,87.1890683 48.0683198,88.6509624 48.9855703,89.5682129 L53.2636839,93.8463265 C54.1809344,94.763577 55.6429002,94.8494714 56.6676042,94.039748 L59.7132662,91.6246958 C61.4116261,92.6207591 63.2246489,93.3875033 65.1165039,93.9177629 L65.5607332,97.7301493 C65.7111978,99.0272206 66.8076012,99.9946307 68.1046753,100.001772 L74.1529106,100.001657 C75.4571509,100.001633 76.5464251,99.0270147 76.696939,97.7299377 L77.141312,93.9748637 C79.0189259,93.4731255 80.8247394,92.742215 82.5088043,91.774752 L85.3537252,94.032037 C86.3785417,94.8418648 87.8403674,94.7557715 88.7576528,93.8384861 L93.0359289,89.56021 C93.9532143,88.6429246 94.0392359,87.1810273 93.2294798,86.1562824 L91.0080249,83.3471916 C91.9754157,81.6917196 92.713635,79.9217368 93.2297047,78.0872628 L96.7339626,77.6787254 C98.0310396,77.5282115 98.9984914,76.4317713 99.0056822,75.134697 L99.0057968,69.100794 C99.0058216,67.7965537 98.0312452,66.7073165 96.7341738,66.5568519 L93.3302574,66.162778 C92.8214975,64.2064272 92.0546828,62.3360035 91.0443598,60.5803862 L93.2157571,57.8357074 C94.0255522,56.8109317 93.9395861,55.3490376 93.0223356,54.4317871 L88.7442219,50.1536735 C87.8269714,49.236423 86.3650773,49.1504569 85.3403017,49.960252 L82.5956229,52.1316492 C80.7969375,51.0925908 78.8692565,50.3115165 76.8555765,49.8027577 L76.4471727,46.2698507 C76.2967081,44.9727794 75.2003046,44.0053693 73.9032306,43.9982277 L67.8549953,43.9983426 C66.550755,43.9983674 65.4614808,44.9729853 65.3109669,46.2700623 L64.8737605,50.0036377 C63.0248823,50.5339683 61.2548273,51.3007806 59.6065927,52.2897413 L56.6685133,49.9536304 C55.6437684,49.1438743 54.181871,49.2298959 53.2645857,50.1471813 L48.9863095,54.4254574 C48.0690242,55.3427428 47.9830025,56.8046402 48.7927586,57.829385 L51.2505478,60.9322837 L51.2505478,60.9322837 Z" id="Layer-2"></path>
                <circle id="Layer-3" cx="71" cy="72" r="6"></circle>
                <path d="M43.1659725,75.7769039 C42.7837255,75.9213699 42.370518,76 41.9409338,76 L33.7287923,76 C31.9680651,76 30.4824516,74.679218 30.2761163,72.9181752 L29.643355,67.4837075 C27.2361108,66.7958001 24.9251564,65.8191093 22.7517588,64.5669804 L18.5287648,67.91021 C17.139441,69.0108617 15.1586229,68.9009341 13.9068559,67.6489428 L8.10195856,61.8430051 C6.86394727,60.5910138 6.74014614,58.6098407 7.84060062,57.2202679 L11.2107425,52.9690007 C10.0277539,50.8777625 9.09236759,48.6489428 8.41833922,46.3375742 L3.08127255,45.7183201 C1.32054538,45.5119479 0,44.0260681 0,42.2650253 L0,34.051412 C0,32.2903693 1.32054538,30.8044895 3.08127255,30.5981173 L8.14336316,30.0202752 C8.77612448,27.4887762 9.73902215,25.0535844 11.0045448,22.7697321 L7.84073817,18.7661115 C6.74028369,17.3765387 6.85032914,15.3953657 8.10209611,14.1433744 L13.9069935,8.33743664 C15.1587605,7.09920348 17.1395785,6.97538016 18.5289023,8.07603186 L22.3117146,11.0753077 C24.7327144,9.63070239 27.3325382,8.53005069 30.056163,7.80086894 L30.6063902,3.08182476 C30.8127255,1.32078204 32.298339,0 34.0590662,0 L42.2712077,0 C44.0319349,0 45.5175484,1.32078204 45.7238837,3.08182476 L46.2741109,7.80086894 C48.9288198,8.51629254 51.4600026,9.5756698 53.8259798,10.9652426 L57.4712352,8.07603186 C58.860559,6.97538016 60.8413771,7.08544533 62.0931441,8.33743664 L67.8842858,14.1296162 C69.1222971,15.3816075 69.2460982,17.3627806 68.1456437,18.7523534 L65.1744166,22.5083273 C66.4398017,24.7646633 67.4300732,27.1723389 68.0904834,29.6900797 L72.9187275,30.2541636 C74.6794546,30.4605358 76,31.9464156 76,33.7074584 L76,41.9210717 C76,42.8271417 75.6504641,43.6603711 75.0712411,44.2839686 C74.7195016,44.1028441 74.3218155,44.0005324 73.9032306,43.9982277 L67.8549953,43.9983426 C66.550755,43.9983674 65.4614808,44.9729853 65.3109669,46.2700623 L64.8737605,50.0036377 C63.0248823,50.5339683 61.2548273,51.3007806 59.6065927,52.2897413 L56.6685133,49.9536304 C55.6437684,49.1438743 54.181871,49.2298959 53.2645857,50.1471813 L48.9863095,54.4254574 C48.0690242,55.3427428 47.9830025,56.8046402 48.7927586,57.829385 L51.2505478,60.9322837 C50.3977457,62.4873557 49.7240958,64.1355843 49.2510971,65.8411383 L45.2810382,66.2998477 C43.9839612,66.4503616 43.0165093,67.5468018 43.0093185,68.8438761 L43.0092036,74.8921114 C43.0091978,75.2024713 43.0643837,75.5006524 43.1659725,75.7769039 L43.1659725,75.7769039 Z" id="Layer-4"></path>
                <circle id="Layer-5" cx="38" cy="38" r="10"></circle>
            </g>
        </g>
    </g>
</svg>