<?xml version="1.0" encoding="UTF-8"?>
<svg width="104px" height="104px" viewBox="0 0 104 104" version="1.1" xmlns="http://www.w3.org/2000/svg" xmlns:xlink="http://www.w3.org/1999/xlink">
    <!-- Generator: Sketch 46 (44423) - http://www.bohemiancoding.com/sketch -->
    <title>web-29</title>
    <desc>Created with Sketch.</desc>
    <defs></defs>
    <g id="ALL" stroke="none" stroke-width="1" fill="none" fill-rule="evenodd" stroke-linecap="round" stroke-linejoin="round">
        <g id="Secondary" transform="translate(-4007.000000, -8103.000000)" stroke="#868E96" stroke-width="3.5">
            <g id="web-29" transform="translate(4009.000000, 8105.000000)">
                <path d="M14.1079566,64.1099881 C13.6623577,64.3924767 12.8229119,66.1655691 13.2026855,67.7212597 C13.7674808,70.0348668 15.7764429,70.9378389 15.7764429,70.9378389 C15.7764429,70.9378389 18.919356,75.2101386 18.919356,77.6947158 C18.919356,80.179293 18.919356,81.1445605 18.0771033,83.2173388 C17.2348507,85.290117 0.701882631,87.7748212 0,99.9944694 L24.063751,99.9944694 L48.3917021,99.9971378 C47.6898194,87.7774896 31.1568514,85.2927853 30.3145987,83.2200071 C29.4723461,81.1472289 29.4723461,80.1819614 29.4723461,77.6973842 C29.4723461,75.2128069 32.6152591,70.9405073 32.6152591,70.9405073 C32.6152591,70.9405073 34.6242213,70.0375352 35.1890166,67.723928 C35.5687901,66.1682374 34.7293443,64.395145 34.2837455,64.1126564 C35.4748376,60.3710008 37.8537047,47.4717339 24.327951,47.0068197 C24.2678273,46.9980302 24.2080139,46.9995992 24.1485061,47.0014074 C10.5379973,47.4690656 12.9168644,60.3683324 14.1079566,64.1099881 Z" id="Layer-1"></path>
                <path d="M49.5481688,47.4596858 L48.0021239,47.4596858 C44.6811374,47.4596858 42,44.7739432 42,41.4609118 L42,5.99877398 C42,2.68762011 44.6872424,0 48.0021239,0 L93.9978761,0 C97.3188626,0 100,2.68499457 100,5.99710323 L100,12.0648989 L100,41.4554427 C100,44.7702729 97.3127576,47.4596858 93.9978761,47.4596858 L59.246026,47.4596858 C57.2775493,58 48.3194755,58.0000003 48.3194754,58 C48.3194754,57.9999997 50.3540687,53.3491387 49.5481688,47.4596858 L49.5481688,47.4596858 Z" id="Layer-2"></path>
                <path d="M58,20.4210526 C58,31.5526315 70.3684211,36.5 70.3684211,36.5 C70.3684211,36.5 82.7368421,31.5526315 82.7368421,20.4210526 C82.7368421,20.3557184 82.7323302,20.2928937 82.7234796,20.2325061 C82.7323438,20.0903535 82.7368421,19.9470179 82.7368421,19.8026316 C82.7368421,16.0456419 79.6912002,13 75.9342105,13 C73.6334891,13 71.5995334,14.1421599 70.3684211,15.8904021 C69.1373087,14.1421599 67.103353,13 64.8026316,13 C61.0456419,13 58,16.0456419 58,19.8026316 C58,19.9471379 58.0045058,20.0905919 58.0133846,20.2328606 C58.0045188,20.2931599 58,20.355867 58,20.4210526 Z" id="Layer-3"></path>
            </g>
        </g>
    </g>
</svg>