<?xml version="1.0" encoding="UTF-8"?>
<svg width="104px" height="104px" viewBox="0 0 104 104" version="1.1" xmlns="http://www.w3.org/2000/svg" xmlns:xlink="http://www.w3.org/1999/xlink">
    <!-- Generator: Sketch 46 (44423) - http://www.bohemiancoding.com/sketch -->
    <title>web-18</title>
    <desc>Created with Sketch.</desc>
    <defs></defs>
    <g id="ALL" stroke="none" stroke-width="1" fill="none" fill-rule="evenodd" stroke-linecap="round" stroke-linejoin="round">
        <g id="Secondary" transform="translate(-701.000000, -8103.000000)" stroke="#868E96" stroke-width="3.5">
            <g id="web-18" transform="translate(703.000000, 8105.000000)">
                <rect id="Layer-1" x="0" y="0" width="100" height="100" rx="3"></rect>
                <rect id="Layer-2" x="0" y="0" width="100" height="100" rx="3"></rect>
                <path d="M51,32 C30.5654643,32 14,48.5654643 14,69 L29.54,69 C29.54,57.1479693 39.1479693,47.54 51,47.54 C62.8520307,47.54 72.46,57.1479693 72.46,69 L88,69 C88,48.5654643 71.4345357,32 51,32 Z" id="Layer-3"></path>
                <path d="M51,32 L51,47" id="Layer-4"></path>
                <path d="M77.6066017,44 L67,54.6066017" id="Layer-5"></path>
                <path d="M24,44 L34.6066017,54.6066017" id="Layer-6"></path>
                <path d="M60,59 L51,75" id="Layer-7"></path>
                <circle id="Layer-8" cx="51" cy="75" r="6"></circle>
                <path d="M0,3.00947762 C0,1.34738902 1.33801252,0 2.99280137,0 L97.0071986,0 C98.6600772,0 100,1.33663106 100,3.00947762 L100,16 L0,16 L0,3.00947762 Z" id="Layer-9"></path>
                <path d="M7,8 L22.2800007,8" id="Layer-10"></path>
            </g>
        </g>
    </g>
</svg>