<?xml version="1.0" encoding="UTF-8"?>
<svg width="105px" height="104px" viewBox="0 0 105 104" version="1.1" xmlns="http://www.w3.org/2000/svg" xmlns:xlink="http://www.w3.org/1999/xlink">
    <!-- Generator: Sketch 46 (44423) - http://www.bohemiancoding.com/sketch -->
    <title>web-23</title>
    <desc>Created with Sketch.</desc>
    <defs></defs>
    <g id="ALL" stroke="none" stroke-width="1" fill="none" fill-rule="evenodd" stroke-linecap="round" stroke-linejoin="round">
        <g id="Secondary" transform="translate(-2206.000000, -8103.000000)" stroke="#868E96" stroke-width="3.5">
            <g id="web-23" transform="translate(2208.000000, 8105.000000)">
                <path d="M68.2660405,39.3997232 L5.99306484,39.3997232 C2.68768095,39.3997232 0,36.711014 0,33.3943232 L0,6.00539992 C0,2.67712742 2.68318653,0 5.99306484,0 L94.0069352,0 C97.312319,0 100,2.68870913 100,6.00539992 L100,33.3943232 C100,36.7225957 97.3168135,39.3997232 94.0069352,39.3997232 L76.3166244,39.3997232 C74.6825122,48.1500015 67.2460524,48.1500018 67.2460524,48.1500015 C67.2460524,48.1500012 68.9350506,44.2889847 68.2660405,39.3997232 L68.2660405,39.3997232 Z" id="Layer-1"></path>
                <circle id="Layer-2" cx="38" cy="21" r="4"></circle>
                <circle id="Layer-3" cx="51" cy="21" r="4"></circle>
                <path d="M64,25 C66.209139,25 68,23.209139 68,21 C68,18.790861 66.209139,17 64,17 C61.790861,17 60,18.790861 60,21 C60,23.209139 61.790861,25 64,25 Z" id="Layer-4"></path>
                <path d="M11.6614676,70.2071395 C11.2931409,70.4416564 10.5992651,71.9136455 10.9131813,73.2051516 C11.3800343,75.1258663 13.0406183,75.8754973 13.0406183,75.8754973 C13.0406183,75.8754973 15.6385125,79.422283 15.6385125,81.4849339 C15.6385125,83.5475849 15.6385125,84.3489324 14.9423166,86.0697153 C14.2461207,87.7904982 0.580167757,89.8532546 0,99.9977848 L19.8908077,99.9977848 L40,100 C39.4198322,89.8554698 25.7538793,87.7927134 25.0576834,86.0719305 C24.3614875,84.3511476 24.3614875,83.5498001 24.3614875,81.4871492 C24.3614875,79.4244982 26.9593817,75.8777126 26.9593817,75.8777126 C26.9593817,75.8777126 28.6199657,75.1280815 29.0868187,73.2073668 C29.4007349,71.9158607 28.7068591,70.4438716 28.3385324,70.2093547 C29.3230749,67.1031 31.2894179,56.3943627 20.1091923,56.0083994 C20.0594947,56.0011025 20.0100537,56.002405 19.9608653,56.0039062 C8.71058211,56.3921475 10.6769251,67.1008848 11.6614676,70.2071395 Z" id="Layer-5"></path>
                <path d="M72.6614676,70.2071395 C72.2931409,70.4416564 71.5992651,71.9136455 71.9131813,73.2051516 C72.3800343,75.1258663 74.0406183,75.8754973 74.0406183,75.8754973 C74.0406183,75.8754973 76.6385125,79.422283 76.6385125,81.4849339 C76.6385125,83.5475849 76.6385125,84.3489324 75.9423166,86.0697153 C75.2461207,87.7904982 61.5801678,89.8532546 61,99.9977848 L101,100 C100.419832,89.8554698 86.7538793,87.7927134 86.0576834,86.0719305 C85.3614875,84.3511476 85.3614875,83.5498001 85.3614875,81.4871492 C85.3614875,79.4244982 87.9593817,75.8777126 87.9593817,75.8777126 C87.9593817,75.8777126 89.6199657,75.1280815 90.0868187,73.2073668 C90.4007349,71.9158607 89.7068591,70.4438716 89.3385324,70.2093547 C90.3230749,67.1031 92.2894179,56.3943627 81.1091923,56.0083994 C81.0594947,56.0011025 81.0100537,56.002405 80.9608653,56.0039062 C69.7105821,56.3921475 71.6769251,67.1008848 72.6614676,70.2071395 Z" id="Layer-6"></path>
                <path d="M67.4730031,90.4357789 C62.6365075,86.7672496 56.316455,85.3941317 55.8163359,84.1726483 C55.0157106,82.2172132 55.0157106,81.306591 55.0157106,78.9626695 C55.0157106,76.618748 58.0032889,72.5883097 58.0032889,72.5883097 C58.0032889,72.5883097 59.9129605,71.7364563 60.4498415,69.5538259 C60.8108452,68.0862054 60.012888,66.4134904 59.5893123,66.146994 C60.7215362,62.6171591 62.9828306,50.4481394 50.1255711,50.0095447 C50.0684189,50.0012529 50.0115618,50.002733 49.9549951,50.0044388 C37.0171694,50.4456222 39.2784638,62.6146418 40.4106877,66.1444767 C39.987112,66.4109731 39.1891548,68.0836881 39.5501585,69.5513087 C40.0870395,71.733939 41.9967111,72.5857924 41.9967111,72.5857924 C41.9967111,72.5857924 44.9842894,76.6162307 44.9842894,78.9601522 C44.9842894,81.3040737 44.9842894,82.214696 44.1836641,84.170131 C43.6987482,85.3544822 37.7423643,86.6813889 32.9719826,90.1050032 C36.4087423,92.1058721 39.7195901,95.1157545 39.9998558,99.9974827 L49.8744289,99.9974827 L61.0364369,99.9986977 L61,99.9977848 C61.2641987,95.3781353 64.2420482,92.4344351 67.4730031,90.4357789 L67.4730031,90.4357789 Z" id="Layer-7"></path>
            </g>
        </g>
    </g>
</svg>