<?xml version="1.0" encoding="UTF-8"?>
<svg width="104px" height="104px" viewBox="0 0 104 104" version="1.1" xmlns="http://www.w3.org/2000/svg" xmlns:xlink="http://www.w3.org/1999/xlink">
    <!-- Generator: Sketch 46 (44423) - http://www.bohemiancoding.com/sketch -->
    <title>web-40</title>
    <desc>Created with Sketch.</desc>
    <defs></defs>
    <g id="ALL" stroke="none" stroke-width="1" fill="none" fill-rule="evenodd" stroke-linecap="round" stroke-linejoin="round">
        <g id="Secondary" transform="translate(-7307.000000, -8103.000000)" stroke="#868E96" stroke-width="3.5">
            <g id="web-40" transform="translate(7309.000000, 8105.000000)">
                <rect id="Layer-5" x="31" y="20" width="40" height="30" rx="3"></rect>
                <path d="M41,20 L41,10 C41,4.4771525 45.4759382,0 51,0 C56.5228475,0 61,4.47593818 61,10 L61,20 L41,20 Z" id="Layer-6"></path>
                <path d="M51,35.9501244 L51,40.0001246" id="Layer-7"></path>
                <circle id="Layer-8" cx="51" cy="32" r="4"></circle>
                <path d="M31,30 L10.4603448,30 C7.53965517,30 5.17241379,32.368425 5.17241379,35.290575 L5.17241379,93.1 L41.5396552,93.1 C41.8982759,94.1005 42.8465517,94.825 43.9655172,94.825 L57.7586207,94.825 C58.8775862,94.825 59.8275862,94.1005 60.1844828,93.1 L94.8275862,93.1 L94.8275862,35.290575 C94.8275862,32.368425 92.4603448,30 89.5396552,30 L71,30 L71,46.9999809 C71,48.6568457 69.6576906,50 67.9934988,50 L34.0065012,50 C32.3460564,50 31,48.6526814 31,46.9999809 L31,30 Z" id="Layer-9"></path>
                <path d="M60.1844828,93.1 C59.8258621,94.1005 58.8775862,94.825 57.7586207,94.825 L43.9655172,94.825 C42.8465517,94.825 41.8965517,94.1005 41.5396552,93.1 L0.996551724,93.1 C0.446551724,93.1 0,93.546775 0,94.09705 L0,99.00295 C0,99.553225 0.446551724,100 0.996551724,100 L99.0034483,100 C99.5534483,100 100,99.553225 100,99.00295 L100,94.09705 C100,93.546775 99.5534483,93.1 99.0034483,93.1 L60.1844828,93.1 L60.1844828,93.1 Z" id="Layer-1"></path>
                <path d="M29.955992,70.125402 L73.955992,70.125402" id="Layer-2"></path>
                <path d="M19.955992,79.7008162 L83.955992,79.7008162" id="Layer-3"></path>
                <path d="M39,60.5499878 L63,60.5499878" id="Layer-4"></path>
            </g>
        </g>
    </g>
</svg>