<?xml version="1.0" encoding="UTF-8"?>
<svg width="104px" height="104px" viewBox="0 0 104 104" version="1.1" xmlns="http://www.w3.org/2000/svg" xmlns:xlink="http://www.w3.org/1999/xlink">
    <!-- Generator: Sketch 46 (44423) - http://www.bohemiancoding.com/sketch -->
    <title>baby-4</title>
    <desc>Created with Sketch.</desc>
    <defs></defs>
    <g id="ALL" stroke="none" stroke-width="1" fill="none" fill-rule="evenodd" stroke-linecap="round" stroke-linejoin="round">
        <g id="Secondary" transform="translate(-1866.000000, -8404.000000)" stroke="#868E96" stroke-width="3.5">
            <g id="baby-4" transform="translate(1868.000000, 8406.000000)">
                <rect id="Layer-1" x="0" y="50" width="50" height="50" rx="6"></rect>
                <rect id="Layer-2" x="50" y="50" width="50" height="50" rx="6"></rect>
                <rect id="Layer-3" x="34" y="0" width="50" height="50" rx="6"></rect>
                <path d="M54,23.5789474 L58.7698953,23.5789474 C60.1515271,23.5789474 61.2562677,23.2351973 62.0841502,22.5476867 C62.9120327,21.8601762 63.3259678,20.9271401 63.3259678,19.7485506 C63.3259678,18.4390068 62.9421869,17.4868735 62.1746137,16.8921223 C61.4070405,16.2973711 60.2392502,16 58.6712078,16 L54,16 L54,23.5789474 L54,23.5789474 Z M54,23.5789474 L54,31.7780906 L59.5328129,31.7780906 C61.0920151,31.7780906 62.3224864,31.4156003 63.2242638,30.6906088 C64.1260412,29.9656173 64.5769231,28.9668131 64.5769231,27.6941662 C64.5769231,24.9506733 62.9130233,23.5789474 59.5851739,23.5789474 L54,23.5789474 L54,23.5789474 Z" id="Layer-4"></path>
                <polyline id="Layer-5" points="18 84.5620609 24.0765027 68 25.9125683 68 32 84.5620609"></polyline>
                <path d="M20.3333333,79.3333333 L29.9441997,79.3333333 L20.3333333,79.3333333 Z" id="Layer-6"></path>
                <polyline id="Layer-7" points="84 83 76 76 84 69"></polyline>
                <polyline id="Layer-8" points="68 83 76 76 68 69"></polyline>
            </g>
        </g>
    </g>
</svg>