<?xml version="1.0" encoding="UTF-8"?>
<svg width="70px" height="103px" viewBox="0 0 70 103" version="1.1" xmlns="http://www.w3.org/2000/svg" xmlns:xlink="http://www.w3.org/1999/xlink">
    <!-- Generator: Sketch 46 (44423) - http://www.bohemiancoding.com/sketch -->
    <title>baby-25</title>
    <desc>Created with Sketch.</desc>
    <defs></defs>
    <g id="ALL" stroke="none" stroke-width="1" fill="none" fill-rule="evenodd" stroke-linecap="round" stroke-linejoin="round">
        <g id="Secondary" transform="translate(-8141.000000, -8404.000000)" stroke="#868E96" stroke-width="3.5">
            <g id="baby-25" transform="translate(8143.000000, 8406.000000)">
                <path d="M32.7283761,0 C17.1031727,0 4.66456473,12.1600687 1.3921875,29.7202478 C1.3921875,29.7202478 0,36.4439306 0,49.5283019 C0,62.6126732 1.3921875,69.3363578 1.3921875,69.3363578 C4.68850446,86.9279739 17.1066075,99.0566038 32.7283761,99.0566038 C48.3501448,99.0566038 60.7682478,86.9279739 64.0645647,69.3363578 C64.0645647,69.3363578 65.4567522,62.6126732 65.4567522,49.5283019 C65.4567522,36.4439306 64.0645647,29.7202478 64.0645647,29.7202478 C60.7921875,12.1600687 48.3535796,0 32.7283761,0 L32.7283761,0 Z" id="Layer-1"></path>
                <path d="M0,49.6873917 C0,62.771763 1.3921875,69.4954477 1.3921875,69.4954477 C4.68850446,87.0870637 17.1066075,99.2156936 32.7283761,99.2156936 C47.591406,99.2156936 59.5544127,88.2366113 63.5203888,72.0192614 C63.5203888,72.0192614 43.4220703,66.7311704 27.0371652,59.2309862 C10.65226,51.7308019 0.151216872,42.4528302 0.151216872,42.4528302 C0.0583744439,44.5955692 0,47.0081286 0,49.6873917 Z" id="Layer-2"></path>
                <path d="M32.9721706,98.7171509 C48.5939392,98.7171509 61.0120423,86.588521 64.3083592,68.9969049 C64.3083592,68.9969049 65.7005467,62.2732203 65.7005467,49.188849 C65.7005467,45.9142979 65.6133509,43.0381309 65.4826033,40.5660377 C65.4826033,40.5660377 51.6737068,52.3608343 35.4545383,60.1162155 C19.2353698,67.8715967 1.88571429,70.2387099 1.88571429,70.2387099 C5.52287769,87.1567583 17.7207387,98.7171509 32.9721706,98.7171509 Z" id="Layer-3"></path>
                <ellipse id="Layer-4" cx="33" cy="27.3584906" rx="17.9142857" ry="17.9245283"></ellipse>
                <path d="M30.1714286,25.9433962 C30.1714286,24.1198145 28.6939682,22.6415094 26.8714286,22.6415094 C25.0488889,22.6415094 23.5714286,24.1198145 23.5714286,25.9433962" id="Layer-5"></path>
                <path d="M42.4285714,25.9433962 C42.4285714,24.1198145 40.9511111,22.6415094 39.1285714,22.6415094 C37.3060318,22.6415094 35.8285714,24.1198145 35.8285714,25.9433962" id="Layer-6"></path>
            </g>
        </g>
    </g>
</svg>