<?xml version="1.0" encoding="UTF-8"?>
<svg width="104px" height="90px" viewBox="0 0 104 90" version="1.1" xmlns="http://www.w3.org/2000/svg" xmlns:xlink="http://www.w3.org/1999/xlink">
    <!-- Generator: Sketch 46 (44423) - http://www.bohemiancoding.com/sketch -->
    <title>baby-15</title>
    <desc>Created with Sketch.</desc>
    <defs></defs>
    <g id="ALL" stroke="none" stroke-width="1" fill="none" fill-rule="evenodd" stroke-linecap="round" stroke-linejoin="round">
        <g id="Secondary" transform="translate(-5180.000000, -8404.000000)" stroke="#868E96" stroke-width="3.5">
            <g id="baby-15" transform="translate(5182.000000, 8406.000000)">
                <path d="M10.5963232,39.439629 C9.66295988,39.0284311 8.63000634,38.8 7.54339119,38.8 C3.37729127,38.8 0,42.1578644 0,46.3 C0,50.4421356 3.37729127,53.8 7.54339119,53.8 C8.66757844,53.8 9.73432897,53.5554987 10.6927833,53.1170632 C14.0696937,71.8130767 30.5131322,86 50.2892746,86 C69.987302,86 86.3789017,71.9249308 89.8451389,53.338397 C90.658863,53.6369534 91.5385849,53.8 92.4566088,53.8 C96.6227087,53.8 100,50.4421356 100,46.3 C100,42.1578644 96.6227087,38.8 92.4566088,38.8 C91.5764153,38.8 90.731432,38.9498857 89.9460701,39.2253862 C88.2736171,29.4779925 83.0540656,20.9331779 75.6548331,14.9504943 C74.5053983,31.138797 62.6599727,22.8138061 55.9866609,16.7370536 C56.7202199,15.5408396 57.1428571,14.1353056 57.1428571,12.6315789 C57.1428571,10.9171185 56.593462,9.3303009 55.6602442,8.03582713 C56.1659817,7.56923184 56.704636,7.08634047 57.2687264,6.59976918 C55.0018458,6.20554903 52.6697034,6 50.2892746,6 C47.6400899,6 45.0507102,6.25458308 42.5445346,6.74048495 C42.7935639,6.95683571 43.037404,7.17221498 43.2753939,7.38550799 C42.0277927,8.78017475 41.2698413,10.6178282 41.2698413,12.6315789 C41.2698413,14.4336074 41.8767917,16.0946211 42.8984316,17.4233711 C36.2310754,23.3049625 25.4498883,30.311099 24.0557287,15.6726051 C17.0641033,21.6565175 12.1645183,29.9895989 10.5963232,39.439629 Z" id="Layer-1"></path>
                <path d="M40.4761905,40 C40.4761905,36.9479001 37.9888835,34.4736842 34.9206349,34.4736842 C31.8523863,34.4736842 29.3650794,36.9479001 29.3650794,40" id="Layer-2"></path>
                <path d="M70.6349206,40 C70.6349206,36.9479001 68.1476137,34.4736842 65.0793651,34.4736842 C62.0111165,34.4736842 59.5238095,36.9479001 59.5238095,40" id="Layer-3"></path>
                <path d="M61.1111111,53.4210526 C61.1111111,59.5252525 56.1364972,64.4736842 50,64.4736842 C43.8635028,64.4736842 38.8888889,59.5252525 38.8888889,53.4210526" id="Layer-4"></path>
                <ellipse id="Layer-5" cx="49.2063492" cy="12.6315789" rx="7.93650794" ry="7.89473684"></ellipse>
                <path d="M57.5396825,12.6315789 L66.2698413,12.6315789" id="Layer-6"></path>
                <path d="M31.7460317,12.6315789 L40.4761905,12.6315789" id="Layer-7"></path>
                <path d="M55.9866609,16.7370536 C63.0052888,23.1282528 75.7451501,32.0063841 75.7451501,12.2368421 C75.7451501,-7.84321812 62.6019384,1.63139484 55.6602442,8.03582713 C56.593462,9.3303009 57.1428571,10.9171185 57.1428571,12.6315789 C57.1428571,14.1353056 56.7202199,15.5408396 55.9866609,16.7370536 L55.9866609,16.7370536 Z" id="Layer-8"></path>
                <path d="M42.8984316,17.4233711 C35.7599029,23.7206061 23.9055614,31.3069423 23.9055614,12.2368421 C23.9055614,-7.1730169 36.1860669,1.0318604 43.2753939,7.38550799 C42.0277927,8.78017475 41.2698413,10.6178282 41.2698413,12.6315789 C41.2698413,14.4336074 41.8767917,16.0946211 42.8984316,17.4233711 L42.8984316,17.4233711 Z" id="Layer-9"></path>
            </g>
        </g>
    </g>
</svg>