<?xml version="1.0" encoding="UTF-8"?>
<svg width="103px" height="104px" viewBox="0 0 103 104" version="1.1" xmlns="http://www.w3.org/2000/svg" xmlns:xlink="http://www.w3.org/1999/xlink">
    <!-- Generator: Sketch 46 (44423) - http://www.bohemiancoding.com/sketch -->
    <title>baby-37</title>
    <desc>Created with Sketch.</desc>
    <defs></defs>
    <g id="ALL" stroke="none" stroke-width="1" fill="none" fill-rule="evenodd" stroke-linecap="round" stroke-linejoin="round">
        <g id="Secondary" transform="translate(-2188.000000, -8712.000000)" stroke="#868E96" stroke-width="3.5">
            <g id="baby-37" transform="translate(2190.000000, 8714.000000)">
                <rect id="Layer-1" x="17" y="0" width="82" height="100" rx="3"></rect>
                <path d="M0,25 C0,21.1340068 3.13787336,18 7.00042026,18 L17,18 L17,32 L7.00042026,32 C3.13419491,32 0,28.8581267 0,25 Z M0,49 C0,45.1340068 3.13787336,42 7.00042026,42 L17,42 L17,56 L7.00042026,56 C3.13419491,56 0,52.8581267 0,49 Z M0,73 C0,69.1340068 3.13787336,66 7.00042026,66 L17,66 L17,80 L7.00042026,80 C3.13419491,80 0,76.8581267 0,73 Z" id="Layer-2"></path>
                <rect id="Layer-3" x="25" y="43" width="66" height="48"></rect>
                <polyline id="Layer-4" points="50 76 56.9445746 58 59.0429352 58 66 76"></polyline>
                <path d="M52,71 L63,71 L52,71 Z" id="Layer-5"></path>
                <path d="M25,11 L56.9186602,11" id="Layer-6"></path>
                <path d="M25,21 L76.9199982,21" id="Layer-7"></path>
                <path d="M25,31 L46.9200001,31" id="Layer-8"></path>
            </g>
        </g>
    </g>
</svg>