<?xml version="1.0" encoding="UTF-8"?>
<svg width="104px" height="76px" viewBox="0 0 104 76" version="1.1" xmlns="http://www.w3.org/2000/svg" xmlns:xlink="http://www.w3.org/1999/xlink">
    <!-- Generator: Sketch 46 (44423) - http://www.bohemiancoding.com/sketch -->
    <title>baby-12</title>
    <desc>Created with Sketch.</desc>
    <defs></defs>
    <g id="ALL" stroke="none" stroke-width="1" fill="none" fill-rule="evenodd" stroke-linecap="round" stroke-linejoin="round">
        <g id="Secondary" transform="translate(-4279.000000, -8404.000000)" stroke="#868E96" stroke-width="3.5">
            <g id="baby-12" transform="translate(4281.000000, 8406.000000)">
                <path d="M9.09090909,58.3630923 L9.09090909,15.6964256 C9.09090909,10.7872278 5.02077045,6.8075367 0,6.8075367 L0,0.585314479 L90.9090909,0.585314479 L90.9090909,6.8075367 C85.8883205,6.8075367 81.8181818,10.7872278 81.8181818,15.6964256 L81.8181818,58.3630923 L81.8181818,62.8075367 C81.8181818,67.7167345 77.7522102,71.6964256 72.7359411,71.6964256 L18.1731499,71.6964256 C13.1571668,71.6964256 9.09090909,67.7178139 9.09090909,62.8075367 L9.09090909,58.3630923 L9.09090909,58.3630923 Z" id="Layer-1"></path>
                <path d="M81.8181818,27.2519811 L90.9090909,27.2519811 C95.9298614,27.2519811 100,31.3311019 100,36.3359253 L100,44.8347036 C100,49.8516275 95.9309653,53.9186478 90.9090909,53.9186478 L81.8181818,53.9186478 L81.8181818,27.2519811 Z" id="Layer-2"></path>
                <path d="M37.6366846,22.8060572 C39.2087609,20.1499781 42.1462213,18.3630923 45.5105164,18.3630923 C48.8748116,18.3630923 51.812272,20.1499781 53.3843483,22.8060572 C56.5228963,22.809221 59.5742853,24.403162 61.2564329,27.2519811 C62.9385804,30.1008003 62.8246519,33.4816272 61.2581801,36.14087 C62.8246519,38.8001129 62.9385804,42.1809397 61.2564329,45.0297589 C59.5742853,47.8785781 56.5228963,49.472519 53.3843483,49.4756829 C51.812272,52.1317619 48.8748116,53.9186478 45.5105164,53.9186478 C42.1462213,53.9186478 39.2087609,52.1317619 37.6366846,49.4756829 C34.4981365,49.472519 31.4467476,47.8785781 29.7646,45.0297589 C28.0824524,42.1809397 28.196381,38.8001129 29.7628528,36.14087 C28.196381,33.4816272 28.0824524,30.1008003 29.7646,27.2519811 C31.4467476,24.403162 34.4981365,22.809221 37.6366846,22.8060572 L37.6366846,22.8060572 Z" id="Layer-3"></path>
            </g>
        </g>
    </g>
</svg>