<?xml version="1.0" encoding="UTF-8"?>
<svg width="104px" height="104px" viewBox="0 0 104 104" version="1.1" xmlns="http://www.w3.org/2000/svg" xmlns:xlink="http://www.w3.org/1999/xlink">
    <!-- Generator: Sketch 46 (44423) - http://www.bohemiancoding.com/sketch -->
    <title>baby-22</title>
    <desc>Created with Sketch.</desc>
    <defs></defs>
    <g id="ALL" stroke="none" stroke-width="1" fill="none" fill-rule="evenodd" stroke-linecap="round" stroke-linejoin="round">
        <g id="Secondary" transform="translate(-7239.000000, -8404.000000)" stroke="#868E96" stroke-width="3.5">
            <g id="baby-22" transform="translate(7241.000000, 8406.000000)">
                <path d="M73.2231526,5.70891141 C66.2839241,2.06296591 58.3828778,0 50,0 C41.6171222,0 33.7160759,2.06296591 26.7768474,5.70891141 C24.029767,2.23162608 19.7754956,0 15,0 C6.71572875,0 0,6.71572875 0,15 C0,19.7754956 2.23162608,24.029767 5.70891141,26.7768474 C2.06296591,33.7160759 0,41.6171222 0,50 C0,77.6142375 22.3857625,100 50,100 C77.6142375,100 100,77.6142375 100,50 C100,41.6171222 97.9370341,33.7160759 94.2910886,26.7768474 C97.7683739,24.029767 100,19.7754956 100,15 C100,6.71572875 93.2842712,0 85,0 C80.2245044,0 75.970233,2.23162608 73.2231526,5.70891141 L73.2231526,5.70891141 Z" id="Layer-1"></path>
                <path d="M50,1.5 L50,51.5" id="Layer-2"></path>
                <path d="M25,42 C28.8659932,42 32,38.8659932 32,35 C32,31.1340068 28.8659932,28 25,28 C21.1340068,28 18,31.1340068 18,35 C18,38.8659932 21.1340068,42 25,42 Z" id="Layer-3"></path>
                <path d="M75,42 C78.8659932,42 82,38.8659932 82,35 C82,31.1340068 78.8659932,28 75,28 C71.1340068,28 68,31.1340068 68,35 C68,38.8659932 71.1340068,42 75,42 Z" id="Layer-4"></path>
                <ellipse id="Layer-5" cx="50" cy="62" rx="15" ry="10"></ellipse>
                <path d="M38,84 C38,84 43.778556,85.9978448 50,85.9978448 C56.221444,85.9978448 62,84 62,84" id="Layer-6"></path>
            </g>
        </g>
    </g>
</svg>