<?xml version="1.0" encoding="UTF-8"?>
<svg width="64px" height="104px" viewBox="0 0 64 104" version="1.1" xmlns="http://www.w3.org/2000/svg" xmlns:xlink="http://www.w3.org/1999/xlink">
    <!-- Generator: Sketch 46 (44423) - http://www.bohemiancoding.com/sketch -->
    <title>baby-30</title>
    <desc>Created with Sketch.</desc>
    <defs></defs>
    <g id="ALL" stroke="none" stroke-width="1" fill="none" fill-rule="evenodd" stroke-linecap="round" stroke-linejoin="round">
        <g id="Secondary" transform="translate(-9573.000000, -8404.000000)" stroke="#868E96" stroke-width="3.5">
            <g id="baby-30" transform="translate(9575.000000, 8406.000000)">
                <path d="M0,20 L49.9911289,20 C55.5188758,20 60,24.4725688 60,29.9904648 L60,90.0095352 C60,95.5271165 55.514786,100 49.9911289,100 L10.0088711,100 C4.48112423,100 0,95.5274312 0,90.0095352 L0,20 Z" id="Layer-1"></path>
                <path d="M30,92.9995871 C31.6568542,92.9995871 33,91.6565337 33,89.9997935 C33,88.3430533 31.6568542,87 30,87 C28.3431458,87 27,88.3430533 27,89.9997935 C27,91.6565337 28.3431458,92.9995871 30,92.9995871 Z" id="Layer-2"></path>
                <path d="M30,72.9995871 C31.6568542,72.9995871 33,71.6565337 33,69.9997935 C33,68.3430533 31.6568542,67 30,67 C28.3431458,67 27,68.3430533 27,69.9997935 C27,71.6565337 28.3431458,72.9995871 30,72.9995871 Z" id="Layer-3"></path>
                <path d="M40,82.9995871 C41.6568542,82.9995871 43,81.6565337 43,79.9997935 C43,78.3430533 41.6568542,77 40,77 C38.3431458,77 37,78.3430533 37,79.9997935 C37,81.6565337 38.3431458,82.9995871 40,82.9995871 Z" id="Layer-4"></path>
                <path d="M20,82.9995871 C21.6568542,82.9995871 23,81.6565337 23,79.9997935 C23,78.3430533 21.6568542,77 20,77 C18.3431458,77 17,78.3430533 17,79.9997935 C17,81.6565337 18.3431458,82.9995871 20,82.9995871 Z" id="Layer-5"></path>
                <rect id="Layer-6" x="10" y="30" width="40" height="30" rx="3"></rect>
                <path d="M27,45.5 C27,43.5670034 25.4329966,42 23.5,42 C21.5670034,42 20,43.5670034 20,45.5" id="Layer-7"></path>
                <path d="M40,45.5 C40,43.5670034 38.4329966,42 36.5,42 C34.5670034,42 33,43.5670034 33,45.5" id="Layer-8"></path>
                <path d="M10,20 L10,5.00443555 C10,2.2303666 7.76142375,0 5,0 C2.24419519,0 0,2.24056212 0,5.00443555 L0,20 L10,20 Z" id="Layer-9"></path>
            </g>
        </g>
    </g>
</svg>