<?xml version="1.0" encoding="UTF-8"?>
<svg width="87px" height="105px" viewBox="0 0 87 105" version="1.1" xmlns="http://www.w3.org/2000/svg" xmlns:xlink="http://www.w3.org/1999/xlink">
    <!-- Generator: Sketch 46 (44423) - http://www.bohemiancoding.com/sketch -->
    <title>baby-39</title>
    <desc>Created with Sketch.</desc>
    <defs></defs>
    <g id="ALL" stroke="none" stroke-width="1" fill="none" fill-rule="evenodd" stroke-linecap="round" stroke-linejoin="round">
        <g id="Secondary" transform="translate(-2787.000000, -8712.000000)" stroke="#868E96" stroke-width="3.5">
            <g id="baby-39" transform="translate(2789.000000, 8714.000000)">
                <path d="M41.2454907,0 C64.0245628,0 82.4909814,28.460326 82.4909814,56.2438509 C82.4909814,84.0273759 64.0245628,100.614 41.2454907,100.614 C18.4664186,100.614 0,84.0273759 0,56.2438509 C0,28.460326 18.4664186,0 41.2454907,0 Z M27,46.8286197 C27,56.5438873 33.4570141,60.0303099 41.4226479,60.0303099 C49.3882817,60.0303099 55.8452958,56.5438873 55.8452958,46.8286197 C55.8452958,37.1133521 49.2376225,23 41.4226479,23 C33.6076733,23 27,37.1133521 27,46.8286197 Z" id="Layer-1"></path>
                <circle id="Layer-2" cx="41.5" cy="10.5" r="4.5"></circle>
                <path d="M11.292059,88.0183228 C13.7106136,79.4114 19.2455377,71 25.5,71 C30.2213063,71 34.532599,75.793058 37.4028891,81.8451414 C39.0074151,80.6776742 40.7247223,80 42.5,80 C44.8785023,80 47.1529454,81.2164535 49.19151,83.1975099 C52.0913837,79.4669736 55.5533632,77 59.2263757,77 C64.1007242,77 68.6034192,81.3446309 71.9139577,87.2213668 C64.3640176,95.8754576 53.4207834,100.614 41.2454907,100.614 C29.4492914,100.614 18.8096216,96.165945 11.292059,88.0183228 Z" id="Layer-3"></path>
            </g>
        </g>
    </g>
</svg>