<?xml version="1.0" encoding="UTF-8"?>
<svg width="104px" height="84px" viewBox="0 0 104 84" version="1.1" xmlns="http://www.w3.org/2000/svg" xmlns:xlink="http://www.w3.org/1999/xlink">
    <!-- Generator: Sketch 46 (44423) - http://www.bohemiancoding.com/sketch -->
    <title>baby-34</title>
    <desc>Created with Sketch.</desc>
    <defs></defs>
    <g id="ALL" stroke="none" stroke-width="1" fill="none" fill-rule="evenodd" stroke-linecap="round" stroke-linejoin="round">
        <g id="Secondary" transform="translate(-1306.000000, -8712.000000)" stroke="#868E96" stroke-width="3.5">
            <g id="baby-34" transform="translate(1308.000000, 8714.000000)">
                <path d="M100,0 L0,0 L0,29.5006781 C0,57.3906835 22.3857625,80 50,80 C77.6142375,80 100,57.3906835 100,29.5006781 L100,0 Z" id="Layer-1"></path>
                <path d="M39.9899579,78.9877707 C43.2241701,79.6515381 46.5717936,80 50,80 C53.4282064,80 56.7758299,79.6515381 60.0100421,78.9877707 C60.4812858,55.2568866 77.4857241,35.5807948 99.9782515,31.0046009 C99.9927169,30.5050791 100,30.0037376 100,29.5006781 L100,0 L0,0 L0,29.5006781 C0,30.0037376 0.00728305309,30.5050791 0.0217484751,31.0046009 C22.5142759,35.5807948 39.5187142,55.2568866 39.9899579,78.9877707 L39.9899579,78.9877707 Z" id="Layer-2"></path>
            </g>
        </g>
    </g>
</svg>