<?xml version="1.0" encoding="UTF-8"?>
<svg width="104px" height="104px" viewBox="0 0 104 104" version="1.1" xmlns="http://www.w3.org/2000/svg" xmlns:xlink="http://www.w3.org/1999/xlink">
    <!-- Generator: Sketch 46 (44423) - http://www.bohemiancoding.com/sketch -->
    <title>baby-7</title>
    <desc>Created with Sketch.</desc>
    <defs></defs>
    <g id="ALL" stroke="none" stroke-width="1" fill="none" fill-rule="evenodd" stroke-linecap="round" stroke-linejoin="round">
        <g id="Secondary" transform="translate(-2778.000000, -8404.000000)" stroke="#868E96" stroke-width="3.5">
            <g id="baby-7" transform="translate(2780.000000, 8406.000000)">
                <path d="M37.3510199,26.5385689 C37.0863572,15.9702211 42.2744378,0.737374151 61.6224676,0.0223246782 C77.1674521,-0.5551351 83.6561326,10.1768611 85.5467922,19.8123091 C85.5467922,19.8123091 99.0822985,28.9488638 99.5147318,29.307109 C100.256874,29.9132333 100.89328,36.4257573 95.4395489,40.0015258 C91.6523044,42.4849156 87.4167134,41.362295 85.2278144,41.362295 C84.054608,41.362295 82.7831407,41.2377346 81.5768515,40.9839233 C80.2234177,43.1822314 78.9954024,44.8802133 78.5959395,46.0664033 C77.5817282,49.115787 92.3465503,59.1410724 92.3465503,74.7361347 C92.3465503,90.3275487 81.4771092,100 64.336248,100 L37.1767178,100 C22.0706981,100 2.21062498,84.4127554 0,51.8019131 C14.092796,64.3475916 20.8836661,46.6063386 51.2290243,48.5143532 C46.3460959,45.195523 37.69123,39.9337596 37.3510199,26.5385689 L37.3510199,26.5385689 Z" id="Layer-1"></path>
                <path d="M42.3539718,87.1844406 C30.52568,85.1809209 20.1963767,72.9744388 20.1963767,66.3092947 C20.1963767,63.047687 34.2469959,63.047687 46.2275696,63.047687 C62.5185342,63.047687 67.9201818,68.4507667 67.9201818,75.1162167 C67.9201818,81.7816667 55.8344058,89.4675354 42.3539718,87.1844406 L42.3539718,87.1844406 Z" id="Layer-2"></path>
                <path d="M69,22 C69,18.6862915 66.3137085,16 63,16 C59.6862915,16 57,18.6862915 57,22" id="Layer-3"></path>
            </g>
        </g>
    </g>
</svg>