<?xml version="1.0" encoding="UTF-8"?>
<svg width="104px" height="105px" viewBox="0 0 104 105" version="1.1" xmlns="http://www.w3.org/2000/svg" xmlns:xlink="http://www.w3.org/1999/xlink">
    <!-- Generator: Sketch 46 (44423) - http://www.bohemiancoding.com/sketch -->
    <title>baby-13</title>
    <desc>Created with Sketch.</desc>
    <defs></defs>
    <g id="ALL" stroke="none" stroke-width="1" fill="none" fill-rule="evenodd" stroke-linecap="round" stroke-linejoin="round">
        <g id="Secondary" transform="translate(-4579.000000, -8404.000000)" stroke="#868E96" stroke-width="3.5">
            <g id="baby-13" transform="translate(4581.000000, 8406.000000)">
                <path d="M88.8000409,36.8585854 C88.3332776,35.5253412 87.8000586,34.2585527 87.1999906,32.9919609 C90.7333531,27.5252861 90.1332851,20.1252991 85.3333307,15.3253447 C80.5333763,10.5253903 73.1333893,9.92532228 67.6667145,13.4586848 C66.4001227,12.8586168 65.1333343,12.3253978 63.80009,11.8586345 C62.4666492,5.45843317 56.8000173,0.658478788 50.0000983,0.658478788 C43.2001793,0.658478788 37.5333508,5.45843317 36.2001066,11.8584379 C34.8668624,12.3252012 33.6000739,12.8584202 32.3334821,13.4584882 C26.8668073,9.92512566 19.4668203,10.5251937 14.6668659,15.3251481 C9.86691152,20.1251025 9.26684349,27.5250895 12.8002061,32.9917643 C12.200138,34.2583561 11.666919,35.5251445 11.2001557,36.8583887 C4.79995439,38.1918296 0,43.8584615 0,50.6585771 C0,57.4586927 4.79995439,63.1253246 11.1999591,64.4585688 C11.6667224,65.791813 12.1999414,67.0586015 12.8000094,68.3251933 C9.26664687,73.7918681 9.8667149,81.1918551 14.6666693,85.9918095 C19.4666237,90.7917639 26.8666107,91.3918319 32.3332855,87.8584694 C33.5998773,88.4585374 34.8666657,88.9917564 36.19991,89.4585197 C37.5331542,95.8585244 43.1999827,100.658479 49.9999017,100.658479 C56.7998207,100.658479 62.4666492,95.8585244 63.7998934,89.4585197 C65.1331376,88.9917564 66.3999261,88.4585374 67.6665179,87.8584694 C73.1331927,91.3918319 80.5331797,90.7917639 85.3331341,85.9918095 C90.1330885,81.1918551 90.7331565,73.7918681 87.1997939,68.3251933 C87.799862,67.0586015 88.333081,65.791813 88.7998443,64.4585688 C95.2000456,63.125128 100,57.4584961 100,50.6585771 C100,43.8586581 95.2000456,38.1918296 88.8000409,36.8585854 Z" id="Layer-1"></path>
                <path d="M29.0227823,45.3112521 C29.0076916,45.4138892 29,45.5206248 29,45.6315789 C29,64.5789472 50.0526316,73 50.0526316,73 C50.0526316,73 71.1052632,64.5789472 71.1052632,45.6315789 C71.1052632,45.5203718 71.0975833,45.4134361 71.0825185,45.3106486 C71.0976064,45.0686869 71.1052632,44.8247113 71.1052632,44.5789474 C71.1052632,38.1840713 65.9211918,33 59.5263158,33 C55.6101942,33 52.1481419,34.944102 50.0526316,37.9198334 C47.9571212,34.944102 44.495069,33 40.5789474,33 C34.1840713,33 29,38.1840713 29,44.5789474 C29,44.8249156 29.0076695,45.0690925 29.0227823,45.3112521 L29.0227823,45.3112521 Z" id="Layer-2"></path>
            </g>
        </g>
    </g>
</svg>