<?xml version="1.0" encoding="UTF-8"?>
<svg width="103px" height="103px" viewBox="0 0 103 103" version="1.1" xmlns="http://www.w3.org/2000/svg" xmlns:xlink="http://www.w3.org/1999/xlink">
    <!-- Generator: Sketch 46 (44423) - http://www.bohemiancoding.com/sketch -->
    <title>baby-29</title>
    <desc>Created with Sketch.</desc>
    <defs></defs>
    <g id="ALL" stroke="none" stroke-width="1" fill="none" fill-rule="evenodd" stroke-linecap="round" stroke-linejoin="round">
        <g id="Secondary" transform="translate(-9274.000000, -8404.000000)" stroke="#868E96" stroke-width="3.5">
            <g id="baby-29" transform="translate(9275.000000, 8406.000000)">
                <path d="M6.74396824,93.3440995 C14.4465828,101.046714 26.9349884,101.046714 34.637603,93.3440995 C42.3402175,85.6414849 42.3402175,73.1530793 34.637603,65.4504648 C26.9349884,57.7478502 14.4465828,57.7478502 6.74396824,65.4504648 C-0.958646292,73.1530793 -0.958646292,85.6414849 6.74396824,93.3440995 L6.74396824,93.3440995 L6.74396824,93.3440995 L6.74396824,93.3440995 Z" id="Layer-1"></path>
                <path d="M69.1739961,37.2261798 L79.9647594,48.0169431 L93.9115767,34.0701257 C101.615885,26.3658176 101.614191,13.8791055 93.9115767,6.17649097 C86.2072686,-1.52781716 73.7205566,-1.52612356 66.017942,6.17649097 L52.0711247,20.1233083 L63.3533484,31.405532 C64.8068347,30.8195888 67.7120456,29.6465973 68.3455608,27.6906998 C69.1284502,25.2736283 69.7431073,21.8265236 69.8919123,20.9575229 C70.0789551,19.3067335 70.7866988,17.7319665 72.0231832,16.4954821 C75.0630198,13.4556455 80.1474313,13.6115079 83.3795341,16.8436107 C83.4105553,16.8746319 83.4412931,16.9058237 83.4717474,16.9371827 C83.5031064,16.9676371 83.5342983,16.9983749 83.5653195,17.0293961 C86.7974222,20.2614988 86.9532847,25.3459103 83.913448,28.385747 C82.6769637,29.6222313 81.1021967,30.3299751 79.4514073,30.5170179 C78.5824066,30.6658228 75.1353019,31.2804799 72.7182304,32.0633694 C70.7623328,32.6968846 69.7045596,35.7173137 69.1739961,37.2261798 L69.1739961,37.2261798 L69.1739961,37.2261798 L69.1739961,37.2261798 Z" id="Layer-2"></path>
                <path d="M34.8325818,93.1464131 L34.9477269,93.2615582 L79.7544933,48.4547919 L51.7502643,20.450563 L7.04879567,65.1520316 C14.7726109,57.7491692 27.0357852,57.848647 34.637603,65.4504648 C42.2746667,73.0875285 42.3396596,85.4292738 34.8325818,93.1464131 L34.8325818,93.1464131 L34.8325818,93.1464131 Z" id="Layer-3"></path>
            </g>
        </g>
    </g>
</svg>