<?xml version="1.0" encoding="UTF-8"?>
<svg width="106px" height="104px" viewBox="0 0 106 104" version="1.1" xmlns="http://www.w3.org/2000/svg" xmlns:xlink="http://www.w3.org/1999/xlink">
    <!-- Generator: Sketch 46 (44423) - http://www.bohemiancoding.com/sketch -->
    <title>baby-6</title>
    <desc>Created with Sketch.</desc>
    <defs></defs>
    <g id="ALL" stroke="none" stroke-width="1" fill="none" fill-rule="evenodd" stroke-linecap="round" stroke-linejoin="round">
        <g id="Secondary" transform="translate(-2476.000000, -8404.000000)" stroke="#868E96" stroke-width="3.5">
            <g id="baby-6" transform="translate(2478.000000, 8406.000000)">
                <path d="M67,63.9968697 C67,62.3417443 68.3416228,61 69.997152,61 L76.002848,61 C77.6581293,61 79,62.3473909 79,63.9968697 L79,70 L67,70 L67,63.9968697 Z" id="Layer-1"></path>
                <path d="M48,63.9968697 C48,62.3417443 49.3416228,61 50.997152,61 L57.002848,61 C58.6581293,61 60,62.3473909 60,63.9968697 L60,70 L48,70 L48,63.9968697 Z" id="Layer-2"></path>
                <path d="M29,63.9968697 C29,62.3417443 30.3416228,61 31.997152,61 L38.002848,61 C39.6581293,61 41,62.3473909 41,63.9968697 L41,70 L29,70 L29,63.9968697 Z" id="Layer-3"></path>
                <path d="M10,63.9968697 C10,62.3417443 11.3416228,61 12.997152,61 L19.002848,61 C20.6581293,61 22,62.3473909 22,63.9968697 L22,70 L10,70 L10,63.9968697 Z" id="Layer-4"></path>
                <path d="M53.2345373,7.21602206 C53.8012185,5.65907841 55.5178301,4.85451897 57.07957,5.4229458 L99.3659623,20.8139339 C100.922834,21.3805889 101.724118,23.1060188 101.158861,24.6590494 L92.9503906,47.2116363 C92.3837095,48.7685799 90.6670979,49.5731394 89.105358,49.0047125 L46.8189657,33.6137244 C45.2620939,33.0470695 44.4608101,31.3216395 45.026067,29.768609 L53.2345373,7.21602206 L53.2345373,7.21602206 Z" id="Layer-5"></path>
                <path d="M66.0527421,2.23633776 C66.6188284,0.681028613 68.338445,-0.120936552 69.8941336,0.4452878 L75.5376417,2.49935679 C77.0930974,3.06549635 77.8932085,4.79057647 77.3290536,6.34057948 L75.2758621,11.9816767 L63.9995507,7.87743502 L66.0527421,2.23633776 L66.0527421,2.23633776 Z" id="Layer-6"></path>
                <path d="M83.9069019,8.73472048 C84.4729882,7.17941134 86.1926048,6.37744617 87.7482934,6.94367052 L93.3918015,8.99773951 C94.9472572,9.56387908 95.7473683,11.2889592 95.1832134,12.8389622 L93.1300219,18.4800595 L81.8537104,14.3758177 L83.9069019,8.73472048 L83.9069019,8.73472048 Z" id="Layer-7"></path>
                <rect id="Layer-8" x="0" y="70" width="89" height="30" rx="3"></rect>
            </g>
        </g>
    </g>
</svg>