<?xml version="1.0" encoding="UTF-8"?>
<svg width="104px" height="104px" viewBox="0 0 104 104" version="1.1" xmlns="http://www.w3.org/2000/svg" xmlns:xlink="http://www.w3.org/1999/xlink">
    <!-- Generator: Sketch 46 (44423) - http://www.bohemiancoding.com/sketch -->
    <title>baby-8</title>
    <desc>Created with Sketch.</desc>
    <defs></defs>
    <g id="ALL" stroke="none" stroke-width="1" fill="none" fill-rule="evenodd" stroke-linecap="round" stroke-linejoin="round">
        <g id="Secondary" transform="translate(-3078.000000, -8404.000000)" stroke="#868E96" stroke-width="3.5">
            <g id="baby-8" transform="translate(3080.000000, 8406.000000)">
                <path d="M48.1751442,51.6396103 C59.890873,63.3553391 78.8858223,63.3553391 90.6015511,51.6396103 C102.31728,39.9238816 102.31728,20.9289322 90.6015511,9.21320344 C78.8858223,-2.50252532 59.890873,-2.50252532 48.1751442,9.21320344 C36.4594155,20.9289322 36.4594155,39.9238816 48.1751442,51.6396103 L48.1751442,51.6396103 Z" id="Layer-1"></path>
                <path d="M94.4198508,46.9726287 C93.3272772,48.6217338 92.0545106,50.1866508 90.6015511,51.6396103 C78.8858223,63.3553391 59.890873,63.3553391 48.1751442,51.6396103 C36.4594155,39.9238816 36.4594155,20.9289322 48.1751442,9.21320344 C49.6281037,7.76024393 51.1930207,6.48747735 52.8421258,5.39490368 C48.352465,13.8155437 52.0545106,27.2347054 62.3172798,37.4974747 C72.5800491,47.7602439 85.9992108,51.4622896 94.4198508,46.9726287 L94.4198508,46.9726287 Z" id="Layer-2"></path>
                <path d="M18.8302128,68.2566197 C34.1074712,52.9793613 45.0176345,48.4821006 45.0176345,48.4821006 L51.6010639,55.0655299 C51.6010639,55.0655299 47.1600593,65.3826173 31.5581349,80.9845417 C15.9562104,96.5864662 4.54038715,99.9287348 4.54038715,99.9287348 L0.0112200931,95.3995677 C0.0112200931,95.3995677 3.55295442,83.533878 18.8302128,68.2566197 L18.8302128,68.2566197 Z" id="Layer-3"></path>
                <path d="M21.3163788,90.0917307 C11.208124,97.9765876 4.54038715,99.9287348 4.54038715,99.9287348 L0.0112200931,95.3995677 C0.0112200931,95.3995677 2.05937412,88.537743 9.75901822,78.531914 C11.680481,80.8624926 13.5815325,83.0449477 15.1756697,84.6390848 C16.7965568,86.259972 18.9870877,88.1702252 21.3163788,90.0917307 L21.3163788,90.0917307 Z" id="Layer-4"></path>
            </g>
        </g>
    </g>
</svg>