<?xml version="1.0" encoding="UTF-8"?>
<svg width="104px" height="104px" viewBox="0 0 104 104" version="1.1" xmlns="http://www.w3.org/2000/svg" xmlns:xlink="http://www.w3.org/1999/xlink">
    <!-- Generator: Sketch 46 (44423) - http://www.bohemiancoding.com/sketch -->
    <title>baby-2</title>
    <desc>Created with Sketch.</desc>
    <defs></defs>
    <g id="ALL" stroke="none" stroke-width="1" fill="none" fill-rule="evenodd" stroke-linecap="round" stroke-linejoin="round">
        <g id="Secondary" transform="translate(-1266.000000, -8404.000000)" stroke="#868E96" stroke-width="3.5">
            <g id="baby-2" transform="translate(1268.000000, 8406.000000)">
                <path d="M34.1311814,35.9527625 L34.7662149,35.317729 C40.632838,38.1202495 47.8722254,37.0919113 52.7314224,32.2327143 C56.0508355,28.9133012 56.7559043,24.8086024 57.3266223,20.1386746 C57.6478444,15.222 59.6873578,10.3965861 63.4451624,6.63878147 C71.663266,-1.5793221 84.9874445,-1.5793221 93.2055481,6.63878147 C101.423652,14.856885 101.423652,28.1810635 93.2055481,36.3991671 C89.4477434,40.1569717 84.6223295,42.1964851 79.7056549,42.5177072 C75.2598745,43.1730709 70.9310283,43.793494 67.6116153,47.1129071 C62.7524183,51.9721041 61.72408,59.2114916 64.5266005,65.0781147 L63.8915671,65.7131481 L34.1311814,35.9527625 L34.1311814,35.9527625 Z" id="Layer-1"></path>
                <path d="M67.6884579,13.8408953 C70.5250409,9.62794948 73.9503664,8.00354767 77.6427993,7.79386543 C79.4546121,7.69097799 81.3307363,7.92871185 83.2331734,8.36838973" id="Layer-2"></path>
                <path d="M15.4524176,24.7154702 C17.5073232,22.6605646 20.8431837,22.6647648 22.8971323,24.7187134 L74.9809469,76.802528 C77.0376437,78.8592248 77.0349144,82.1965185 74.9841901,84.2472428 L74.9841901,84.2472428 C72.9292845,86.3021484 69.593424,86.2979482 67.5394753,84.2439996 L15.4556608,32.160185 C13.398964,30.1034882 13.4016932,26.7661945 15.4524176,24.7154702 L15.4524176,24.7154702 L15.4524176,24.7154702 Z" id="Layer-3"></path>
                <path d="M37.0326851,53.7372093 L45.962451,62.6669752 L38.5234581,70.1059681 C36.0562024,72.5732238 32.0520827,72.569316 29.5912135,70.1084468 L29.5912135,70.1084468 C27.1253268,67.64256 27.1191867,63.6507078 29.5936923,61.1762022 L37.0326851,53.7372093 L37.0326851,53.7372093 Z" id="Layer-4"></path>
                <path d="M40.0148783,68.6145479 L40.151679,68.7491452 C44.2434274,76.6710861 42.968437,86.6472794 36.3267077,93.2890087 C28.1070852,101.508631 14.780444,101.508631 6.56082146,93.2890087 C-1.65880107,85.0693862 -1.65880107,71.7427449 6.56082146,63.5231224 C13.1175458,56.966398 22.9239274,55.639918 30.7955173,59.5436824 L31.012613,59.7572814 L29.5936923,61.1762022 C27.1191867,63.6507078 27.1253268,67.64256 29.5912135,70.1084468 C32.0520827,72.569316 36.0562024,72.5732238 38.5234581,70.1059681 L40.0148783,68.6145479 L40.0148783,68.6145479 Z" id="Layer-5"></path>
            </g>
        </g>
    </g>
</svg>