<?xml version="1.0" encoding="UTF-8"?>
<svg width="104px" height="74px" viewBox="0 0 104 74" version="1.1" xmlns="http://www.w3.org/2000/svg" xmlns:xlink="http://www.w3.org/1999/xlink">
    <!-- Generator: Sketch 46 (44423) - http://www.bohemiancoding.com/sketch -->
    <title>baby-35</title>
    <desc>Created with Sketch.</desc>
    <defs></defs>
    <g id="ALL" stroke="none" stroke-width="1" fill="none" fill-rule="evenodd" stroke-linecap="round" stroke-linejoin="round">
        <g id="Secondary" transform="translate(-1606.000000, -8712.000000)" stroke="#868E96" stroke-width="3.5">
            <g id="baby-35" transform="translate(1608.000000, 8714.000000)">
                <circle id="Layer-1" cx="50" cy="35" r="35"></circle>
                <path d="M84.1903645,27.4808498 C85.9151316,21.871292 89.4264578,17.0547155 94.0550618,13.7083577 C96.5393718,11.9121358 100,13.7436443 100,16.8264687 L100,53.9484453 C100,57.0312697 96.5393718,58.8626086 94.0550618,57.0663866 C89.3351064,53.6539396 85.7770396,48.7130785 84.0904846,42.9615713 C84.6854422,40.4039551 85,37.738712 85,35 C85,32.4188248 84.7205895,29.9029094 84.1903645,27.4808498 Z" id="Layer-2"></path>
                <path d="M15.9095154,42.9615713 C14.2229604,48.7130785 10.6648936,53.6539396 5.94493817,57.0663866 C3.46062819,58.8626086 0,57.0312697 0,53.9484453 L0,16.8264687 C0,13.7436443 3.46062819,11.9121358 5.94493817,13.7083577 C10.5735422,17.0547155 14.0848684,21.871292 15.8096355,27.4808498 C15.2794105,29.9029094 15,32.4188248 15,35 C15,37.738712 15.3145578,40.4039551 15.9095154,42.9615713 Z" id="Layer-3"></path>
            </g>
        </g>
    </g>
</svg>