<?xml version="1.0" encoding="UTF-8"?>
<svg width="104px" height="104px" viewBox="0 0 104 104" version="1.1" xmlns="http://www.w3.org/2000/svg" xmlns:xlink="http://www.w3.org/1999/xlink">
    <!-- Generator: Sketch 46 (44423) - http://www.bohemiancoding.com/sketch -->
    <title>baby-11</title>
    <desc>Created with Sketch.</desc>
    <defs></defs>
    <g id="ALL" stroke="none" stroke-width="1" fill="none" fill-rule="evenodd" stroke-linecap="round" stroke-linejoin="round">
        <g id="Secondary" transform="translate(-3979.000000, -8404.000000)" stroke="#868E96" stroke-width="3.5">
            <g id="baby-11" transform="translate(3981.000000, 8406.000000)">
                <path d="M11.8331301,5.23390756 L11.8331301,30.4591328" id="Line"></path>
                <path d="M83.0508475,5.57878369 L83.0508475,30.1643701" id="Line-Copy"></path>
                <path d="M46.4763604,1.07427919 L46.4763604,72.2454504" id="Line"></path>
                <path d="M11.8331301,5.23390756 C11.8331301,5.23390756 29.8555432,0.173378285 47.5155565,0.173378285 C65.1755699,0.173378285 83.1979829,5.23390756 83.1979829,5.23390756" id="Line"></path>
                <path d="M4.70052502,56.0935864 C-1.08351564,50.5987478 -1.78781978,41.4089431 4.36098019,35.5675831 C9.91329673,30.2928824 18.3396164,29.5521404 24.1809658,33.5038818 C21.9234827,34.0595843 19.7601943,35.1963146 17.9602554,36.9062565 C12.8490894,41.7618642 13.6032934,49.4008535 18.4112546,53.9684166 C20.1025972,55.5751921 22.1940299,56.5878406 24.4172647,57.0141531 C18.311064,61.3074579 9.9213604,61.05338 4.70052502,56.0935864 Z" id="Oval-352"></path>
                <path d="M87.8749186,42.2698594 L84.7802824,32.3738632 C83.7870536,29.1977261 82.1765283,29.1975026 81.1832296,32.3738632 L78.0885934,42.2698594 L69.532555,42.8078163 C66.0582715,43.0262602 65.4883854,44.822125 68.2766546,46.8179251 L75.1318846,51.724793 L72.434214,60.3513766 C71.4409852,63.5275137 72.8998916,64.4936976 75.6929287,62.5089096 L82.981756,57.3293233 L90.2705833,62.5089096 C93.0633652,64.4935162 94.5225967,63.5277371 93.529298,60.3513766 L90.8316274,51.724793 L97.6868574,46.8179251 C100.469464,44.8261783 99.9128407,43.0267381 96.4309568,42.8078163 L87.8749186,42.2698594 L87.8749186,42.2698594 Z" id="Rectangle-781-Copy-5"></path>
                <ellipse id="Oval-22" cx="46.4763604" cy="85.7589639" rx="13.3809099" ry="13.5135135"></ellipse>
            </g>
        </g>
    </g>
</svg>