<?xml version="1.0" encoding="UTF-8"?>
<svg width="94px" height="112px" viewBox="0 0 94 112" version="1.1" xmlns="http://www.w3.org/2000/svg" xmlns:xlink="http://www.w3.org/1999/xlink">
    <!-- Generator: Sketch 46 (44423) - http://www.bohemiancoding.com/sketch -->
    <title>business-40</title>
    <desc>Created with Sketch.</desc>
    <defs></defs>
    <g id="ALL" stroke="none" stroke-width="1" fill="none" fill-rule="evenodd" stroke-linecap="round" stroke-linejoin="round">
        <g id="Secondary" transform="translate(-6573.000000, -5351.000000)" stroke="#868E96" stroke-width="3.5">
            <g id="business-40" transform="translate(6575.000000, 5353.000000)">
                <rect id="Layer-1" x="5.11389416" y="8" width="80" height="100"></rect>
                <rect id="Layer-2" x="45.1138942" y="0" width="30" height="8"></rect>
                <path d="M44.8436239,43 C45.6265882,43 46.2713098,43.5839953 46.3547563,44.3345938 C46.4320769,44.7825902 46.9973301,47.8563277 48.4217522,50.7824219 C49.7589932,53.5294259 52.0767675,57.0162422 52.6660992,57.8899767 C53.8638739,59.4676623 54.5733536,61.4270819 54.5733536,63.55 C54.5733536,68.7690909 50.2852701,73 44.9956509,73 C44.944882,73 44.8942054,72.9996103 44.8436239,72.9988336 C44.7930424,72.9996103 44.7423658,73 44.6915969,73 C39.4019777,73 35.1138942,68.7690909 35.1138942,63.55 C35.1138942,61.4270819 35.8233739,59.4676623 37.0211486,57.8899767 C37.6104803,57.0162422 39.9282546,53.5294259 41.2654956,50.7824219 C42.6899176,47.8563277 43.2551709,44.7825902 43.3324915,44.3345938 C43.415938,43.5839953 44.0606596,43 44.8436239,43 L44.8436239,43 Z" id="Layer-3"></path>
                <path d="M0.113894156,8 L90.1138942,8" id="Layer-4"></path>
                <path d="M0.113894156,108 L90.1138942,108" id="Layer-5"></path>
                <path d="M0.113894156,28 L90.1138942,28" id="Layer-6"></path>
                <path d="M0.113894156,88 L90.1138942,88" id="Layer-7"></path>
            </g>
        </g>
    </g>
</svg>