<?xml version="1.0" encoding="UTF-8"?>
<svg width="84px" height="114px" viewBox="0 0 84 114" version="1.1" xmlns="http://www.w3.org/2000/svg" xmlns:xlink="http://www.w3.org/1999/xlink">
    <!-- Generator: Sketch 46 (44423) - http://www.bohemiancoding.com/sketch -->
    <title>business-37</title>
    <desc>Created with Sketch.</desc>
    <defs></defs>
    <g id="ALL" stroke="none" stroke-width="1" fill="none" fill-rule="evenodd" stroke-linecap="round" stroke-linejoin="round">
        <g id="Secondary" transform="translate(-5690.000000, -5351.000000)" stroke="#868E96" stroke-width="3.5">
            <g id="business-37" transform="translate(5692.000000, 5353.000000)">
                <path d="M22.6037291,10.8250284 C22.3332007,10.349557 22.4550674,9.66590527 22.8618665,9.31033815 L32.7657167,0.653773174 C33.1788104,0.29270422 33.9577376,0 34.5136105,0 L44.9903594,0 C45.5426008,0 46.3219975,0.29820606 46.7347321,0.669245499 L56.3296479,9.29486583 C56.740797,9.66447991 56.8526958,10.3643358 56.5907144,10.8379118 L46.4736657,29.1261996 C46.2066996,29.6087862 45.5462323,30 44.9903594,30 L34.5136105,30 C33.9613691,30 33.2961424,29.6176475 33.0238541,29.1390829 L22.6037291,10.8250284 Z" id="Layer-1"></path>
                <path d="M40.1138942,110 C62.2052841,110 80.1138942,92.09139 80.1138942,70 C80.1138942,47.90861 62.2052841,30 40.1138942,30 C18.0225042,30 0.113894156,47.90861 0.113894156,70 C0.113894156,92.09139 18.0225042,110 40.1138942,110 L40.1138942,110 L40.1138942,110 Z M40.1138942,100 C56.6824366,100 70.1138942,86.5685425 70.1138942,70 C70.1138942,53.4314575 56.6824366,40 40.1138942,40 C23.5453517,40 10.1138942,53.4314575 10.1138942,70 C10.1138942,86.5685425 23.5453517,100 40.1138942,100 L40.1138942,100 L40.1138942,100 Z" id="Layer-2"></path>
                <path d="M24.1138942,10 L56.6138942,10" id="Layer-3"></path>
                <path d="M40.1138942,10.5 L40.1138942,27.5" id="Layer-4"></path>
                <path d="M46.1138942,1 L40.1138942,11" id="Layer-5"></path>
                <path d="M34.1138942,1 L40.1138942,11" id="Layer-6"></path>
                <path d="M24.1138942,10 L56.6138942,10" id="Layer-7"></path>
                <path d="M40.1138942,10.5 L40.1138942,27.5" id="Layer-8"></path>
                <path d="M46.1138942,1 L40.1138942,11" id="Layer-9"></path>
                <path d="M34.1138942,1 L40.1138942,11" id="Layer-10"></path>
            </g>
        </g>
    </g>
</svg>