<?xml version="1.0" encoding="UTF-8"?>
<svg width="71px" height="114px" viewBox="0 0 71 114" version="1.1" xmlns="http://www.w3.org/2000/svg" xmlns:xlink="http://www.w3.org/1999/xlink">
    <!-- Generator: Sketch 46 (44423) - http://www.bohemiancoding.com/sketch -->
    <title>business-34</title>
    <desc>Created with Sketch.</desc>
    <defs></defs>
    <g id="ALL" stroke="none" stroke-width="1" fill="none" fill-rule="evenodd" stroke-linecap="round" stroke-linejoin="round">
        <g id="Secondary" transform="translate(-4821.000000, -5351.000000)" stroke="#868E96" stroke-width="3.5">
            <g id="business-34" transform="translate(4823.000000, 5353.000000)">
                <path d="M6.96633748,7.39395363 L6.96633748,0.573415655 L17.9200542,0.573415655 L17.9200542,7.32926911 C20.4333713,7.31936348 22.9687583,7.31237797 25.3359653,7.30926739 L25.3359653,0.573415655 L36.289682,0.573415655 L36.289682,7.35036112 C36.5776455,7.35659091 36.7934458,7.36356671 36.9285087,7.37133155 C52.5424587,8.42671108 63.1563989,18.1681441 63.1563989,32.7262442 C63.1563989,40.6067443 60.2958743,47.2548438 55.2959118,51.7763335 C62.4215307,56.7069154 66.3120868,64.6308511 66.3120868,74.4110693 C66.3120868,90.1986465 54.0054288,101.01797 37.9684403,101.95482 C37.7242801,101.974436 36.7415819,101.993932 35.2428432,102.012921 L35.2428432,109.809098 L24.2891265,109.809098 L24.2891265,102.103011 C21.8780509,102.11795 19.3474613,102.131892 16.8732154,102.14453 L16.8732154,109.809098 L5.91949871,109.809098 L5.91949871,102.194868 C2.64827617,102.208427 0.497949755,102.216107 0.497949755,102.216107 L0.497949755,7.50172815 C0.452683481,7.46515477 3.08960399,7.42681694 6.96633748,7.39395363 L6.96633748,7.39395363 L6.96633748,7.39395363 Z M11.4516664,18.3499577 C11.4516664,18.3499577 33.8055132,18.2097828 36.2482525,18.3499577 C46.3943724,19.0360377 52.2026822,24.3668819 52.2026822,32.7262442 C52.2026822,40.3690778 48.2428437,45.4015803 41.3131146,46.7833953 C41.0684706,46.8321783 11.7036699,46.7437584 11.4516664,46.7833955 L11.4516664,18.3499577 L11.4516664,18.3499577 Z M11.4516664,57.7904199 L40.6129843,57.7904212 C50.4706929,59.2569932 55.3583701,65.0914224 55.3583701,74.4110693 C55.3583701,83.864191 47.9788287,90.3518697 37.2131867,90.9816443 C35.6659497,91.104654 11.4516664,91.216108 11.4516664,91.216108 L11.4516664,57.7904199 L11.4516664,57.7904199 Z" id="Layer-1"></path>
            </g>
        </g>
    </g>
</svg>