<?xml version="1.0" encoding="UTF-8"?>
<svg width="104px" height="104px" viewBox="0 0 104 104" version="1.1" xmlns="http://www.w3.org/2000/svg" xmlns:xlink="http://www.w3.org/1999/xlink">
    <!-- Generator: Sketch 46 (44423) - http://www.bohemiancoding.com/sketch -->
    <title>business-49</title>
    <desc>Created with Sketch.</desc>
    <defs></defs>
    <g id="ALL" stroke="none" stroke-width="1" fill="none" fill-rule="evenodd" stroke-linecap="round" stroke-linejoin="round">
        <g id="Secondary" transform="translate(-9279.000000, -5352.000000)" stroke="#868E96" stroke-width="3.5">
            <g id="business-49" transform="translate(9280.000000, 5353.000000)">
                <path d="M58.1997523,43.9141419 C62.1110329,42.04595 66.4903162,41 71.1138942,41 C87.6824366,41 101.113894,54.4314575 101.113894,71 C101.113894,87.5685425 87.6824366,101 71.1138942,101 C54.5453517,101 41.1138942,87.5685425 41.1138942,71 C41.1138942,66.376422 42.1598441,61.9971387 44.028036,58.0858581 C50.2215072,55.1275961 55.2414903,50.107613 58.1997523,43.9141419 L58.1997523,43.9141419 Z" id="Layer-1"></path>
                <circle id="Layer-2" cx="31.1138942" cy="31" r="30"></circle>
                <path d="M71.0972345,0.983340323 L101.11813,31.0042362" id="Layer-3"></path>
                <polyline id="Layer-4" points="101.113894 21 101.113894 31 91.1138942 31"></polyline>
                <path d="M30.9027655,101.01666 L0.881869623,70.9957638" id="Layer-5"></path>
                <polyline id="Layer-6" points="0.886105844 81 0.886105844 71 10.8861058 71"></polyline>
                <path d="M77.4935692,71 L64.8433101,71 C61.3476702,71 58.5138942,68.1679518 58.5138942,64.6727273 L58.5138942,64.6727273 L58.5138942,64.6727273 C58.5138942,61.178271 61.3496088,58.3454545 64.8433101,58.3454545 L77.4935692,58.3454545 C80.989209,58.3454545 83.8229851,61.1775027 83.8229851,64.6727273 L83.8229851,64.6727273" id="Layer-7"></path>
                <path d="M64.8433101,71 L77.4935692,71 C80.989209,71 83.8229851,73.8320482 83.8229851,77.3272727 L83.8229851,77.3272727 C83.8229851,80.821729 80.9872705,83.6545455 77.4935692,83.6545455 L64.8433101,83.6545455 C61.3476702,83.6545455 58.5138942,80.8224973 58.5138942,77.3272727 L58.5138942,77.3272727 L58.5138942,77.3272727" id="Layer-8"></path>
                <path d="M71.3266214,53.6 L71.3266214,88.4" id="Layer-9"></path>
                <path d="M40.3336913,22.8757812 C40.3336913,17.7605469 38.246289,14.1280273 31.7520507,14.1280273 C25.2578124,14.1280273 21.8170923,17.7954143 21.8170923,22.4791038 C21.8170923,25.0616989 22.6925482,27.1627932 23.8744138,29.0887964 L24.4434602,30.0080251 C25.9317353,32.4155291 26.7196457,34.2539866 26.7196457,36.4426265 C26.7196457,40.9949976 22.5007461,43.5775934 19.1302406,44.540595 C19.1302406,44.540595 24.8215135,42.640069 28.1626092,42.9649452 C30.5288359,43.1950287 32.4671874,44.540596 36.0789062,44.540596 C39.6906249,44.540596 42.099121,42.964946 42.099121,42.964946" id="Layer-10"></path>
                <path d="M19.5940594,31.5306931 L31.4752475,31.5306931" id="Layer-11"></path>
            </g>
        </g>
    </g>
</svg>