<?xml version="1.0" encoding="UTF-8"?>
<svg width="104px" height="104px" viewBox="0 0 104 104" version="1.1" xmlns="http://www.w3.org/2000/svg" xmlns:xlink="http://www.w3.org/1999/xlink">
    <!-- Generator: Sketch 46 (44423) - http://www.bohemiancoding.com/sketch -->
    <title>business-20</title>
    <desc>Created with Sketch.</desc>
    <defs></defs>
    <g id="ALL" stroke="none" stroke-width="1" fill="none" fill-rule="evenodd" stroke-linecap="round" stroke-linejoin="round">
        <g id="Secondary" transform="translate(-701.000000, -5351.000000)" stroke="#868E96" stroke-width="3.5">
            <g id="business-20" transform="translate(703.000000, 5353.000000)">
                <path d="M50.0000002,0 C50.0000002,0 -0.596048143,26.8392012 0.00531855987,26.8693396 L0.00531856014,34 L99.9946818,34 L99.9946818,26.8692428 C100.59603,26.8391655 50.0000002,0 50.0000002,0 L50.0000002,0 L50.0000002,0 Z M50,21.8181818 C52.5103852,21.8181818 54.5454545,19.7831125 54.5454545,17.2727273 C54.5454545,14.762342 52.5103852,12.7272727 50,12.7272727 C47.4896148,12.7272727 45.4545455,14.762342 45.4545455,17.2727273 C45.4545455,19.7831125 47.4896148,21.8181818 50,21.8181818 L50,21.8181818 L50,21.8181818 Z" id="Layer-1"></path>
                <rect id="Layer-2" x="41" y="34" width="18" height="47.9057173"></rect>
                <rect id="Layer-3" x="11" y="34" width="18" height="47.9057173"></rect>
                <rect id="Layer-4" x="71" y="34" width="18" height="47.9057173"></rect>
                <polygon id="Layer-5" points="91.4 90.1492537 91.4 82 8.6 82 8.6 90.1492537 5 90.1492537 5 100 95 100 95 90.1492537"></polygon>
                <circle id="Layer-6" cx="50" cy="17.2727273" r="4.54545455"></circle>
                <circle id="Layer-7" cx="50" cy="17.2727273" r="4.54545455"></circle>
            </g>
        </g>
    </g>
</svg>