<?xml version="1.0" encoding="UTF-8"?>
<svg width="104px" height="104px" viewBox="0 0 104 104" version="1.1" xmlns="http://www.w3.org/2000/svg" xmlns:xlink="http://www.w3.org/1999/xlink">
    <!-- Generator: Sketch 46 (44423) - http://www.bohemiancoding.com/sketch -->
    <title>business-23</title>
    <desc>Created with Sketch.</desc>
    <defs></defs>
    <g id="ALL" stroke="none" stroke-width="1" fill="none" fill-rule="evenodd" stroke-linecap="round" stroke-linejoin="round">
        <g id="Secondary" transform="translate(-1613.000000, -5351.000000)" stroke="#868E96" stroke-width="3.5">
            <g id="business-23" transform="translate(1615.000000, 5353.000000)">
                <circle id="Layer-1" cx="50.1138942" cy="50" r="50"></circle>
                <path d="M60.7466858,50 L39.6629207,50 C33.8368542,50 29.1138942,45.2799197 29.1138942,39.4545455 L29.1138942,39.4545455 L29.1138942,39.4545455 C29.1138942,33.6304517 33.8400852,28.9090909 39.6629207,28.9090909 L60.7466858,28.9090909 C66.5727523,28.9090909 71.2957123,33.6291712 71.2957123,39.4545455 L71.2957123,39.4545455" id="Layer-2"></path>
                <path d="M39.6629207,50 L60.7466858,50 C66.5727523,50 71.2957123,54.7200803 71.2957123,60.5454545 L71.2957123,60.5454545 C71.2957123,66.3695483 66.5695213,71.0909091 60.7466858,71.0909091 L39.6629207,71.0909091 C33.8368542,71.0909091 29.1138942,66.3708288 29.1138942,60.5454545 L29.1138942,60.5454545 L29.1138942,60.5454545" id="Layer-3"></path>
                <path d="M50.4684396,21 L50.4684396,79" id="Layer-4"></path>
            </g>
        </g>
    </g>
</svg>