<?xml version="1.0" encoding="UTF-8"?>
<svg width="104px" height="94px" viewBox="0 0 104 94" version="1.1" xmlns="http://www.w3.org/2000/svg" xmlns:xlink="http://www.w3.org/1999/xlink">
    <!-- Generator: Sketch 46 (44423) - http://www.bohemiancoding.com/sketch -->
    <title>business-7</title>
    <desc>Created with Sketch.</desc>
    <defs></defs>
    <g id="ALL" stroke="none" stroke-width="1" fill="none" fill-rule="evenodd" stroke-linecap="round" stroke-linejoin="round">
        <g id="Secondary" transform="translate(-6433.000000, -5041.000000)" stroke="#868E96" stroke-width="3.5">
            <g id="business-7" transform="translate(6435.000000, 5043.000000)">
                <path d="M25.1138942,32.9959374 C25.1138942,31.3413269 23.7697856,30 22.1231419,30 L3.10464638,30 C1.45289954,30 0.113894156,31.3373097 0.113894156,32.9959374 L0.113894156,90 L25.1138942,90 L25.1138942,32.9959374 L25.1138942,32.9959374 Z" id="Layer-1"></path>
                <path d="M50.1138942,2.99446106 C50.1138942,1.34066588 48.7697856,0 47.1231419,0 L28.1046464,0 C26.4528995,0 25.1138942,1.34209558 25.1138942,2.99446106 L25.1138942,90 L50.1138942,90 L50.1138942,2.99446106 L50.1138942,2.99446106 Z" id="Layer-2"></path>
                <path d="M75.1138942,53.0065012 C75.1138942,51.3460564 73.7697856,50 72.1231419,50 L53.1046464,50 C51.4528995,50 50.1138942,51.3423094 50.1138942,53.0065012 L50.1138942,90 L75.1138942,90 L75.1138942,53.0065012 L75.1138942,53.0065012 Z" id="Layer-3"></path>
                <path d="M100.113894,23.0078125 C100.113894,21.3466435 98.7697856,20 97.1231419,20 L78.1046464,20 C76.4528995,20 75.1138942,21.3358366 75.1138942,23.0078125 L75.1138942,90 L100.113894,90 L100.113894,23.0078125 L100.113894,23.0078125 Z" id="Layer-4"></path>
            </g>
        </g>
    </g>
</svg>