<?xml version="1.0" encoding="UTF-8"?>
<svg width="110px" height="109px" viewBox="0 0 110 109" version="1.1" xmlns="http://www.w3.org/2000/svg" xmlns:xlink="http://www.w3.org/1999/xlink">
    <!-- Generator: Sketch 46 (44423) - http://www.bohemiancoding.com/sketch -->
    <title>business-19</title>
    <desc>Created with Sketch.</desc>
    <defs></defs>
    <g id="ALL" stroke="none" stroke-width="1" fill="none" fill-rule="evenodd" stroke-linecap="round" stroke-linejoin="round">
        <g id="Secondary" transform="translate(-413.000000, -5351.000000)" stroke="#868E96" stroke-width="3.5">
            <g id="business-19" transform="translate(415.000000, 5353.000000)">
                <path d="M76.9936669,48.0054854 C81.564273,53.4418359 87.9565188,59.9535356 95.8807348,59.9535356 L105.886106,59.9535356 L105.886106,100 L5.88610584,100 L5.88610584,20 L16.2235082,20 C21.2400756,20 28.4393285,20 35.665891,27.5722338 C42.8924535,35.1444677 46.7669652,43.2654708 55.8861058,39.9200323 C57.9698952,39.1555755 59.6568149,38.6798941 61.120399,38.4436014 C61.0411405,38.950777 61,39.470584 61,40 C61,45.5228475 65.4771525,50 71,50 C73.2483692,50 75.3234322,49.2579878 76.9936669,48.0054854 L76.9936669,48.0054854 L76.9936669,48.0054854 Z" id="Layer-1"></path>
                <path d="M71,50 C65.4771525,50 61,45.5228475 61,40 C61,34.4771525 65.4771525,30 71,30 C76.5228475,30 81,34.4771525 81,40 C81,45.5228475 76.5228475,50 71,50 L71,50 Z" id="Layer-2"></path>
                <polyline id="Layer-3" points="105 100 5 100 5 0 5 0"></polyline>
                <path d="M5.11389416,10 L0.113894156,10" id="Layer-4"></path>
                <path d="M5.11389416,30 L0.113894156,30" id="Layer-5"></path>
                <path d="M5.11389416,50 L0.113894156,50" id="Layer-6"></path>
                <path d="M5.11389416,70 L0.113894156,70" id="Layer-7"></path>
                <path d="M5.11389416,90 L0.113894156,90" id="Layer-8"></path>
                <path d="M95.1138942,105 L95.1138942,100" id="Layer-9"></path>
                <path d="M75.1138942,105 L75.1138942,100" id="Layer-10"></path>
                <path d="M55.1138942,105 L55.1138942,100" id="Layer-11"></path>
                <path d="M35.1138942,105 L35.1138942,100" id="Layer-12"></path>
                <path d="M15.1138942,105 L15.1138942,100" id="Layer-13"></path>
                <path d="M70,50 L70,100" id="Layer-14"></path>
                <path d="M69.8861058,0 L69.8861058,30.1833115" id="Layer-15"></path>
            </g>
        </g>
    </g>
</svg>