<?xml version="1.0" encoding="UTF-8"?>
<svg width="80px" height="114px" viewBox="0 0 80 114" version="1.1" xmlns="http://www.w3.org/2000/svg" xmlns:xlink="http://www.w3.org/1999/xlink">
    <!-- Generator: Sketch 46 (44423) - http://www.bohemiancoding.com/sketch -->
    <title>business-33</title>
    <desc>Created with Sketch.</desc>
    <defs></defs>
    <g id="ALL" stroke="none" stroke-width="1" fill="none" fill-rule="evenodd" stroke-linecap="round" stroke-linejoin="round">
        <g id="Secondary" transform="translate(-4545.000000, -5351.000000)" stroke="#868E96" fill-rule="nonzero" stroke-width="3.5">
            <g id="business-33" transform="translate(4547.000000, 5353.000000)">
                <path d="M34.1608145,94.5732864 C37.3227965,94.8807332 39.9766009,95.5738438 44.1271517,96.9768411 C44.3130104,97.0396663 44.5063419,97.1053073 44.7354914,97.1833334 C45.0368461,97.2860174 45.0368461,97.2860174 45.3355398,97.3878723 C50.6555155,99.2014086 53.158063,99.8019832 56.4755193,99.8019832 C59.5447302,99.8019832 62.7353752,98.9868155 65.8148905,97.6108586 C66.91408,97.1197302 67.9140571,96.5942253 68.7870768,96.0743915 C69.283057,95.7790634 69.6044815,95.5675722 69.7255988,95.4810652 L75.5377433,103.618569 C75.1992677,103.860323 74.647634,104.223287 73.9032177,104.666545 C72.70891,105.377688 71.3664765,106.083159 69.8942994,106.740942 C65.6270529,108.647589 61.1086411,109.801983 56.4755193,109.801983 C51.7468767,109.801983 48.4117856,109.00161 42.1089467,106.853024 C41.8089545,106.750727 41.8089545,106.750727 41.5121969,106.649609 C41.2895126,106.573784 41.102863,106.510412 40.9248857,106.450251 C37.4451973,105.274023 35.4065178,104.741568 33.1930551,104.526348 C30.6589785,104.279954 27.2899493,104.487361 23.3384008,105.099 C20.469879,105.543004 17.3947418,106.182741 14.2253734,106.967175 C11.9319158,107.534817 9.72583697,108.143882 7.69216906,108.752174 C6.98321837,108.964229 6.3480414,109.160513 5.7970788,109.335752 C5.47370597,109.438603 5.25502781,109.509964 5.15142046,109.54456 L2.19421403,99.9943481 C14.8497218,96.3786417 23.8668531,88.2230277 23.8668531,77.8087551 C23.8668531,74.5504237 23.2574544,71.5025185 21.8164634,68 L5.11389416,68 L0.113894156,68 L0.113894156,58 L5.11389416,58 L16.4139033,58 L15.1207812,55.9111493 C10.1129384,47.7505654 7.52431706,40.0622989 7.52431706,31.2636792 C7.52431706,13.1016761 21.3515719,0 39.6646001,0 C59.520139,0 70.6338715,12.7596717 72.0842297,33.2451151 L62.1091987,33.9513418 C61.0016889,18.3084277 53.7650103,10 39.6646001,10 C26.7574787,10 17.5243171,18.7486558 17.5243171,31.2636792 C17.5243171,38.0185584 19.5311014,43.9787552 23.6336215,50.6641343 L25.5321702,53.7308928 C26.4507429,55.2167564 27.2863374,56.6346895 28.042365,58 L44.7195297,58 L49.7195297,58 L49.7195297,68 L44.7195297,68 L32.4308381,68 C33.4112494,71.2567214 33.8668531,74.4227934 33.8668531,77.8087551 C33.8668531,84.2259911 31.816635,89.8950618 28.2812424,94.681029 C28.2812424,94.681029 32.2526429,94.3877504 34.1608145,94.5732864 Z" id="Layer-1"></path>
            </g>
        </g>
    </g>
</svg>