<?xml version="1.0" encoding="UTF-8"?>
<svg width="112px" height="114px" viewBox="0 0 112 114" version="1.1" xmlns="http://www.w3.org/2000/svg" xmlns:xlink="http://www.w3.org/1999/xlink">
    <!-- Generator: Sketch 46 (44423) - http://www.bohemiancoding.com/sketch -->
    <title>business-2</title>
    <desc>Created with Sketch.</desc>
    <defs></defs>
    <g id="ALL" stroke="none" stroke-width="1" fill="none" fill-rule="evenodd" stroke-linecap="round" stroke-linejoin="round">
        <g id="Secondary" transform="translate(-4924.000000, -5041.000000)" stroke="#868E96" stroke-width="3.5">
            <g id="business-2" transform="translate(4926.000000, 5043.000000)">
                <path d="M52.6383021,20.0313254 C53.5115404,18.2048631 54.0004934,16.1595321 54.0004934,14 C54.0004934,6.2680135 47.7324799,0 40.0004934,0 C32.2685069,0 26.0004934,6.2680135 26.0004934,14 C26.0004934,17.8425764 27.5485711,21.3235798 30.0550676,23.8533513 C35.7545798,21.3977051 42.5702074,20 50.580754,20 C51.2755763,20 51.9614085,20.0105157 52.6383021,20.0313254 L52.6383021,20.0313254 Z" id="Layer-1"></path>
                <path d="M20.6224485,95.5289362 L24.1727445,107.13613 C24.6567918,108.718654 26.3912387,109.998981 28.0477072,109.998981 L34.4392205,109.998981 C36.0889763,109.998981 37.8869675,108.733216 38.4401531,107.171817 L40.347729,101.787569 C43.4738682,102.138518 46.8772777,102.321076 50.580754,102.321076 C54.8799769,102.321076 58.77483,102.075061 62.3009757,101.605193 L64.8738544,107.266109 C65.5569927,108.769168 67.4575266,109.998981 69.1124564,109.998981 L75.1168768,109.998981 C76.7604535,109.998981 78.4063679,108.685046 78.7677718,107.064225 L80.6723895,98.5224133 C81.4854713,98.4560577 82.2377108,98.2747977 82.9143002,97.9684848 C88.7761337,95.3146524 97.0706674,89.7835457 101.792966,81.9972053 C105.02006,81.8995125 107.610572,79.2523799 107.610572,76.0011513 L107.610572,58.9619674 C107.610572,55.6427926 104.923189,52.9631197 101.608134,52.9631197 L100.836648,52.9631197 C97.8215846,47.7703428 93.8101745,44.1554857 90.0442997,40.8371066 L94.9270977,27.4370992 C95.4918685,25.8871814 94.6282894,24.4347652 92.9932661,24.2066862 C92.9932661,24.2066862 87.357893,22.9939449 80.0076997,24.6196599 C78.4329233,24.9679687 76.9309678,25.4933391 75.5429163,26.1039118 C69.0532322,22.2688697 60.7868384,20 50.580754,20 C20.6777741,20 7.42590089,39.4769155 6.72589642,60.7567725 C6.36231976,60.6809055 5.98552958,60.6410242 5.5994224,60.6410242 C2.56984881,60.6410242 0.113894156,63.0963919 0.113894156,66.1252415 C0.113894156,69.1540912 2.56984881,71.6094589 5.5994224,71.6094589 C6.14636747,71.6094589 6.67461658,71.5294311 7.17309371,71.3804488 C8.36045624,81.3874477 11.9989941,89.9618231 20.6224485,95.5289362 Z" id="Layer-2"></path>
            </g>
        </g>
    </g>
</svg>