<?xml version="1.0" encoding="UTF-8"?>
<svg width="104px" height="103px" viewBox="0 0 104 103" version="1.1" xmlns="http://www.w3.org/2000/svg" xmlns:xlink="http://www.w3.org/1999/xlink">
    <!-- Generator: Sketch 46 (44423) - http://www.bohemiancoding.com/sketch -->
    <title>business-28</title>
    <desc>Created with Sketch.</desc>
    <defs></defs>
    <g id="ALL" stroke="none" stroke-width="1" fill="none" fill-rule="evenodd" stroke-linecap="round" stroke-linejoin="round">
        <g id="Secondary" transform="translate(-3118.000000, -5351.000000)" stroke="#868E96" stroke-width="3.5">
            <g id="business-28" transform="translate(3120.000000, 5353.000000)">
                <path d="M44.4462563,33.8835184 L56.3374126,33.8835184 L56.3374126,83.5042692 C56.3374126,91.5964783 63.0307142,98.1574798 71.2860459,98.1574798 L84.3957723,98.1574798 C92.6510167,98.1574798 99.3444056,91.5971477 99.3444056,83.5042692 L99.3444056,68.4032385 L89.1171329,68.4032385 L89.1171329,83.5042692 C89.1171329,86.0589126 87.0032828,88.1307418 84.3957723,88.1307418 L71.2860459,88.1307418 C68.6787115,88.1307418 66.5646853,86.0585015 66.5646853,83.5042692 L66.5646853,33.8835184 L94.2307692,33.8835184 L99.3444056,33.8835184 L99.3444056,23.8567805 L94.2307692,23.8567805 L6.81818182,23.8567805 L1.70454545,23.8567805 L1.70454545,33.8835184 L6.81818182,33.8835184 L34.2045181,33.8835184 C34.1379323,35.2857061 34.030641,36.7762538 33.8753292,38.3335036 C33.3547995,43.5526473 32.3822202,48.7140795 30.8638023,53.4837967 C29.5467204,57.621069 27.8694147,61.2859873 25.8182472,64.3584387 C24.3312436,66.5858269 22.7299714,68.7880466 21.0307398,70.9576936 C17.420901,75.5668805 13.5436965,79.8187861 9.66958295,83.6018971 C8.3176901,84.9220341 7.06598233,86.0865047 5.94827643,87.082047 C5.56227982,87.4258548 5.22229086,87.7226475 4.93253227,87.9707904 C4.76676695,88.1127482 4.65958613,88.2028741 4.61520944,88.2395446 L0.705209235,91.4705541 L7.29646868,99.1372212 L11.2064689,95.9062116 C11.5221156,95.6453785 12.0729003,95.1736986 12.8254997,94.5033571 C14.0560534,93.4073011 15.4209777,92.1375045 16.8869964,90.7059224 C21.0640587,86.626979 25.2380299,82.0496264 29.1426218,77.064087 C30.9939961,74.7001782 32.7438192,72.2936574 34.3755629,69.8494624 C36.9854613,65.940086 39.0443319,61.4414469 40.626631,56.4710635 C42.3737314,50.9829996 43.4700495,45.164891 44.0540595,39.3092556 C44.2525658,37.3189118 44.3773348,35.49531 44.4462563,33.8835184 L44.4462563,33.8835184 Z" id="Layer-1"></path>
                <polygon id="Layer-2" points="17.7447552 10.4980804 83.3041958 10.4980804 88.4178322 10.4980804 88.4178322 0.471342383 83.3041958 0.471342383 17.7447552 0.471342383 12.6311189 0.471342383 12.6311189 10.4980804"></polygon>
            </g>
        </g>
    </g>
</svg>