<?xml version="1.0" encoding="UTF-8"?>
<svg width="104px" height="114px" viewBox="0 0 104 114" version="1.1" xmlns="http://www.w3.org/2000/svg" xmlns:xlink="http://www.w3.org/1999/xlink">
    <!-- Generator: Sketch 46 (44423) - http://www.bohemiancoding.com/sketch -->
    <title>business-44</title>
    <desc>Created with Sketch.</desc>
    <defs></defs>
    <g id="ALL" stroke="none" stroke-width="1" fill="none" fill-rule="evenodd" stroke-linecap="round" stroke-linejoin="round">
        <g id="Secondary" transform="translate(-7766.000000, -5351.000000)" stroke="#868E96" stroke-width="3.5">
            <g id="business-44" transform="translate(7768.000000, 5353.000000)">
                <rect id="Layer-1" x="76.1138942" y="10" width="14" height="85"></rect>
                <polygon id="Layer-2" points="83.1138942 110 90.1138942 95 76.1138942 95"></polygon>
                <path d="M79.1138942,4.009763 C79.1138942,1.79523205 80.9092503,0 83.1138942,0 L83.1138942,0 C85.3230332,0 87.1138942,1.7877996 87.1138942,4.009763 L87.1138942,10 L79.1138942,10 L79.1138942,4.009763 Z" id="Layer-3"></path>
                <polygon id="Layer-9" points="76.1138942 30 0.113894156 30 0.113894156 90 76.1138942 90 76.1138942 30"></polygon>
                <path d="M83.1138942,13 L83.1138942,27" id="Layer-4"></path>
                <path d="M10.1138942,40 L40.1305568,40" id="Layer-5"></path>
                <path d="M10.1138942,80 L30.1138942,80" id="Layer-6"></path>
                <path d="M53.1138942,40 L60.1138942,40" id="Layer-7"></path>
                <path d="M10.1138942,70 L60.1138942,70" id="Layer-8"></path>
                <polygon id="Layer-10" points="90 30 100 30 100 90 90 90 90 30"></polygon>
            </g>
        </g>
    </g>
</svg>