<?xml version="1.0" encoding="UTF-8"?>
<svg width="104px" height="98px" viewBox="0 0 104 98" version="1.1" xmlns="http://www.w3.org/2000/svg" xmlns:xlink="http://www.w3.org/1999/xlink">
    <!-- Generator: Sketch 46 (44423) - http://www.bohemiancoding.com/sketch -->
    <title>business-3</title>
    <desc>Created with Sketch.</desc>
    <defs></defs>
    <g id="ALL" stroke="none" stroke-width="1" fill="none" fill-rule="evenodd" stroke-linecap="round" stroke-linejoin="round">
        <g id="Secondary" transform="translate(-5232.000000, -5041.000000)" stroke="#868E96" stroke-width="3.5">
            <g id="business-3" transform="translate(5234.000000, 5043.000000)">
                <path d="M40,54 C40,65.045695 31.045695,74 20,74 C8.954305,74 0,65.045695 0,54 L40,54 L40,54 Z" id="Layer-1"></path>
                <path d="M100,54 C100,65.045695 91.045695,74 80,74 C68.954305,74 60,65.045695 60,54 L100,54 L100,54 Z" id="Layer-2"></path>
                <path d="M50.1138942,4.48920688 L50.1138942,93.5" id="Layer-3"></path>
                <path d="M75.1138942,4 L25.1138942,4" id="Layer-4"></path>
                <path d="M69.1138942,94 L29.1138942,94" id="Layer-5"></path>
                <circle id="Layer-6" cx="20.1138942" cy="4" r="4"></circle>
                <circle id="Layer-7" cx="80.1138942" cy="4" r="4"></circle>
                <path d="M21.5011567,7.75289181 L40,54 L0,54 L18.5302866,7.67428341 C19.0159232,7.88387298 19.5513472,8 20.1138942,8 C20.6016272,8 21.0689717,7.91270687 21.5011567,7.75289181 Z" id="Layer-8"></path>
                <path d="M81.5011567,7.75289181 L100,54 L60,54 L78.5302866,7.67428341 C79.0159232,7.88387298 79.5513472,8 80.1138942,8 C80.6016272,8 81.0689717,7.91270687 81.5011567,7.75289181 Z" id="Layer-9"></path>
            </g>
        </g>
    </g>
</svg>