<?xml version="1.0" encoding="UTF-8"?>
<svg width="109px" height="109px" viewBox="0 0 109 109" version="1.1" xmlns="http://www.w3.org/2000/svg" xmlns:xlink="http://www.w3.org/1999/xlink">
    <!-- Generator: Sketch 46 (44423) - http://www.bohemiancoding.com/sketch -->
    <title>business-18</title>
    <desc>Created with Sketch.</desc>
    <defs></defs>
    <g id="ALL" stroke="none" stroke-width="1" fill="none" fill-rule="evenodd" stroke-linecap="round" stroke-linejoin="round">
        <g id="Secondary" transform="translate(-9757.000000, -5041.000000)" stroke="#868E96" stroke-width="3.5">
            <g id="business-18" transform="translate(9759.000000, 5043.000000)">
                <path d="M34.0063331,48.0054854 C29.435727,53.4418359 23.0434812,59.9535356 15.1192652,59.9535356 L5.11389416,59.9535356 L5.11389416,100 L105.113894,100 L105.113894,20 L94.7764918,20 C89.7599244,20 82.5606715,20 75.334109,27.5722338 C68.1075465,35.1444677 64.2330348,43.2654708 55.1138942,39.9200323 C53.0301048,39.1555755 51.3431851,38.6798941 49.879601,38.4436014 C49.9588595,38.950777 50,39.470584 50,40 C50,45.5228475 45.5228475,50 40,50 C37.7516308,50 35.6765678,49.2579878 34.0063331,48.0054854 L34.0063331,48.0054854 Z" id="Layer-1"></path>
                <path d="M40,50 C45.5228475,50 50,45.5228475 50,40 C50,34.4771525 45.5228475,30 40,30 C34.4771525,30 30,34.4771525 30,40 C30,45.5228475 34.4771525,50 40,50 Z" id="Layer-2"></path>
                <polyline id="Layer-3" points="105.113894 100 5.11389416 100 5.11389416 0 5.11389416 0"></polyline>
                <path d="M5.11389416,10 L0.113894156,10" id="Layer-4"></path>
                <path d="M5.11389416,30 L0.113894156,30" id="Layer-5"></path>
                <path d="M5.11389416,50 L0.113894156,50" id="Layer-6"></path>
                <path d="M5.11389416,70 L0.113894156,70" id="Layer-7"></path>
                <path d="M5.11389416,90 L0.113894156,90" id="Layer-8"></path>
                <path d="M95.1138942,105 L95.1138942,100" id="Layer-9"></path>
                <path d="M75.1138942,105 L75.1138942,100" id="Layer-10"></path>
                <path d="M55.1138942,105 L55.1138942,100" id="Layer-11"></path>
                <path d="M35.1138942,105 L35.1138942,100" id="Layer-12"></path>
                <path d="M15.1138942,105 L15.1138942,100" id="Layer-13"></path>
                <path d="M40,50 L40,100" id="Layer-14"></path>
                <path d="M40.1138942,0 L40.1138942,30.1833115" id="Layer-15"></path>
            </g>
        </g>
    </g>
</svg>