<?xml version="1.0" encoding="UTF-8"?>
<svg width="104px" height="104px" viewBox="0 0 104 104" version="1.1" xmlns="http://www.w3.org/2000/svg" xmlns:xlink="http://www.w3.org/1999/xlink">
    <!-- Generator: Sketch 46 (44423) - http://www.bohemiancoding.com/sketch -->
    <title>business-21</title>
    <desc>Created with Sketch.</desc>
    <defs></defs>
    <g id="ALL" stroke="none" stroke-width="1" fill="none" fill-rule="evenodd" stroke-linecap="round" stroke-linejoin="round">
        <g id="Secondary" transform="translate(-1012.000000, -5351.000000)" stroke="#868E96" stroke-width="3.5">
            <g id="business-21" transform="translate(1014.000000, 5353.000000)">
                <path d="M50,100 C77.6142375,100 100,77.6142375 100,50 C100,22.3857625 77.6142375,0 50,0 C22.3857625,0 0,22.3857625 0,50 C0,77.6142375 22.3857625,100 50,100 Z" id="Layer-1"></path>
                <path d="M32.7692308,27.1538462 L67.3846154,27.1538462" id="Layer-2"></path>
                <path d="M27,38.6923077 L73.1538462,38.6923077" id="Layer-3"></path>
                <path d="M73.1538462,59.9832481 L73.1538462,68.1160592 C73.1538462,70.983319 70.82864,73.3076923 67.9609678,73.3076923 L61.0390322,73.3076923 C58.1710847,73.3076923 55.8461538,70.9827293 55.8461538,68.1160592 L55.8461538,39.1204927 L55.8461538,43.8839408" id="Layer-4"></path>
                <path d="M44.3076923,38.6923077 C44.3076923,38.6923077 44.5082632,51.3125 39.2911659,59.2835036 C34.0740685,67.2545072 27.5769231,72.7307692 27.5769231,72.7307692" id="Layer-5"></path>
            </g>
        </g>
    </g>
</svg>