<?xml version="1.0" encoding="UTF-8"?>
<svg width="114px" height="94px" viewBox="0 0 114 94" version="1.1" xmlns="http://www.w3.org/2000/svg" xmlns:xlink="http://www.w3.org/1999/xlink">
    <!-- Generator: Sketch 46 (44423) - http://www.bohemiancoding.com/sketch -->
    <title>communications-40</title>
    <desc>Created with Sketch.</desc>
    <defs></defs>
    <g id="ALL" stroke="none" stroke-width="1" fill="none" fill-rule="evenodd" stroke-linecap="round" stroke-linejoin="round">
        <g id="Secondary" transform="translate(-1346.000000, -5041.000000)" stroke="#868E96" stroke-width="3.5">
            <g id="communications-40" transform="translate(1348.000000, 5043.000000)">
                <path d="M100,60 L100,0 L0,0 L0,80 L70,80 L70,63.0000191 C70,61.3431543 71.3423094,60 73.0065012,60 L100,60 L100,60 Z" id="Layer-1"></path>
                <polyline id="Layer-2" points="56.205036 44.9640288 50 50 43.794964 44.9640288 0 80"></polyline>
                <polygon id="Layer-3" points="0 0 0 10.1449275 50 50 100 10.1449275 100 0"></polygon>
                <rect id="Layer-4" x="70" y="60" width="40" height="30" rx="3"></rect>
                <path d="M80,60 L80,50 C80,44.4771525 84.4759382,40 90,40 C95.5228475,40 100,44.4759382 100,50 L100,60 L80,60 Z" id="Layer-5"></path>
                <path d="M90,76.9501244 L90,80.0001246" id="Layer-6"></path>
                <circle id="Layer-7" cx="90" cy="72" r="4"></circle>
                <polyline id="Layer-8" points="73.0065012 60 56.205036 44.9640288 56.205036 44.9640288"></polyline>
            </g>
        </g>
    </g>
</svg>