<?xml version="1.0" encoding="UTF-8"?>
<svg width="104px" height="104px" viewBox="0 0 104 104" version="1.1" xmlns="http://www.w3.org/2000/svg" xmlns:xlink="http://www.w3.org/1999/xlink">
    <!-- Generator: Sketch 46 (44423) - http://www.bohemiancoding.com/sketch -->
    <title>communications-16</title>
    <desc>Created with Sketch.</desc>
    <defs></defs>
    <g id="ALL" stroke="none" stroke-width="1" fill="none" fill-rule="evenodd" stroke-linecap="round" stroke-linejoin="round">
        <g id="Secondary" transform="translate(-3706.000000, -4740.000000)" stroke="#868E96" stroke-width="3.5">
            <g id="communications-16" transform="translate(3708.000000, 4742.000000)">
                <path d="M86.9859159,81.8270445 L94.0069352,81.8270445 C97.312319,81.8270445 100,79.1405954 100,75.8266924 L100,6.00035205 C100,2.68760658 97.3168135,0 94.0069352,0 L5.99306484,0 C2.68768095,0 0,2.68644912 0,6.00035205 L0,75.8266924 C0,79.1394379 2.68318653,81.8270445 5.99306484,81.8270445 L70.2654724,81.8270445 C73.6593977,100 89.1043527,100.000001 89.1043527,100 C89.1043527,99.9999994 85.5964334,91.9812737 86.9859159,81.8270445 Z" id="Layer-1" transform="translate(50.000000, 50.000000) scale(-1, 1) translate(-50.000000, -50.000000) "></path>
                <path d="M29.0227823,32.3112521 C29.0076916,32.4138892 29,32.5206248 29,32.6315789 C29,51.5789472 50.0526316,60 50.0526316,60 C50.0526316,60 71.1052632,51.5789472 71.1052632,32.6315789 C71.1052632,32.5203718 71.0975833,32.4134361 71.0825185,32.3106486 C71.0976064,32.0686869 71.1052632,31.8247113 71.1052632,31.5789474 C71.1052632,25.1840713 65.9211918,20 59.5263158,20 C55.6101942,20 52.1481419,21.944102 50.0526316,24.9198334 C47.9571212,21.944102 44.495069,20 40.5789474,20 C34.1840713,20 29,25.1840713 29,31.5789474 C29,31.8249156 29.0076695,32.0690925 29.0227823,32.3112521 L29.0227823,32.3112521 Z" id="Layer-2"></path>
            </g>
        </g>
    </g>
</svg>