<?xml version="1.0" encoding="UTF-8"?>
<svg width="114px" height="104px" viewBox="0 0 114 104" version="1.1" xmlns="http://www.w3.org/2000/svg" xmlns:xlink="http://www.w3.org/1999/xlink">
    <!-- Generator: Sketch 46 (44423) - http://www.bohemiancoding.com/sketch -->
    <title>communications-22</title>
    <desc>Created with Sketch.</desc>
    <defs></defs>
    <g id="ALL" stroke="none" stroke-width="1" fill="none" fill-rule="evenodd" stroke-linecap="round" stroke-linejoin="round">
        <g id="Secondary" transform="translate(-5527.000000, -4740.000000)" stroke="#868E96" stroke-width="3.5">
            <g id="communications-22" transform="translate(5529.000000, 4742.000000)">
                <circle id="Layer-1" cx="85" cy="75" r="25"></circle>
                <circle id="Layer-2" cx="85" cy="75" r="25"></circle>
                <path d="M99,75.5 L72,75.5" id="Layer-3"></path>
                <path d="M100,54.9981691 L100,6.00035205 C100,2.68644912 97.312319,0 94.0069352,0 L5.99306484,0 C2.68318653,0 0,2.68760658 0,6.00035205 L0,75.8266924 C0,79.1405954 2.68768095,81.8270445 5.99306484,81.8270445 L13.0140841,81.8270445 C14.4035666,91.9812737 10.8956473,99.9999994 10.8956473,100 C10.8956473,100.000001 26.3406023,100 29.7345276,81.8270445 L60.9435652,81.8270445 C60.3289275,79.6569995 60,77.3669123 60,75 C60,61.1928813 71.1928813,50 85,50 C90.6280296,50 95.8216973,51.8597241 100,54.9981691 L100,54.9981691 Z" id="Layer-4"></path>
            </g>
        </g>
    </g>
</svg>