<?xml version="1.0" encoding="UTF-8"?>
<svg width="114px" height="104px" viewBox="0 0 114 104" version="1.1" xmlns="http://www.w3.org/2000/svg" xmlns:xlink="http://www.w3.org/1999/xlink">
    <!-- Generator: Sketch 46 (44423) - http://www.bohemiancoding.com/sketch -->
    <title>communications-30</title>
    <desc>Created with Sketch.</desc>
    <defs></defs>
    <g id="ALL" stroke="none" stroke-width="1" fill="none" fill-rule="evenodd" stroke-linecap="round" stroke-linejoin="round">
        <g id="Secondary" transform="translate(-8010.000000, -4740.000000)" stroke="#868E96" stroke-width="3.5">
            <g id="communications-30" transform="translate(8012.000000, 4742.000000)">
                <path d="M90,86.9501244 L90,90.0001246" id="Layer-1"></path>
                <rect id="Layer-4" x="70" y="70" width="40" height="30" rx="3"></rect>
                <circle id="Layer-2" cx="90" cy="82" r="4"></circle>
                <path d="M100,70 L100,6.00035205 C100,2.68644912 97.312319,0 94.0069352,0 L5.99306484,0 C2.68318653,0 0,2.68760658 0,6.00035205 L0,75.8266924 C0,79.1405954 2.68768095,81.8270445 5.99306484,81.8270445 L13.0140841,81.8270445 C14.4035666,91.9812737 10.8956473,99.9999994 10.8956473,100 C10.8956473,100.000001 26.3406023,100 29.7345276,81.8270445 L70,81.8270445 L70,73.0000191 C70,71.3431543 71.3423094,70 73.0065012,70 L100,70 L100,70 Z" id="Layer-3"></path>
                <path d="M80,70 L80,60 C80,54.4771525 84.4759382,50 90,50 C95.5228475,50 100,54.4759382 100,60 L100,70 L80,70 Z" id="Layer-5"></path>
            </g>
        </g>
    </g>
</svg>