<?xml version="1.0" encoding="UTF-8"?>
<svg width="124px" height="99px" viewBox="0 0 124 99" version="1.1" xmlns="http://www.w3.org/2000/svg" xmlns:xlink="http://www.w3.org/1999/xlink">
    <!-- Generator: Sketch 46 (44423) - http://www.bohemiancoding.com/sketch -->
    <title>communications-37</title>
    <desc>Created with Sketch.</desc>
    <defs></defs>
    <g id="ALL" stroke="none" stroke-width="1" fill="none" fill-rule="evenodd" stroke-linecap="round" stroke-linejoin="round">
        <g id="Secondary" transform="translate(-406.000000, -5041.000000)" stroke="#868E96" stroke-width="3.5">
            <g id="communications-37" transform="translate(408.000000, 5043.000000)">
                <path d="M100,48.386211 L100,0 L0,0 L0,80 L76.9932644,80 C72.4834574,76.4157533 69.5919048,70.8828503 69.5919048,64.6745889 C69.5919048,53.8690177 78.351551,45.1093715 89.1571222,45.1093715 C93.1676781,45.1093715 96.8963935,46.3160741 100,48.386211 L100,48.386211 Z" id="Layer-1"></path>
                <polyline id="Layer-2" points="56.205036 44.9640288 50 50 43.794964 44.9640288 0 80"></polyline>
                <polygon id="Layer-3" points="0 0 0 10.1449275 50 50 100 10.1449275 100 0"></polygon>
                <path d="M89.1571222,84.2398063 C99.9626934,84.2398063 108.72234,75.4801601 108.72234,64.6745889 C108.72234,53.8690177 99.9626934,45.1093715 89.1571222,45.1093715 C78.351551,45.1093715 69.5919048,53.8690177 69.5919048,64.6745889 C69.5919048,75.4801601 78.351551,84.2398063 89.1571222,84.2398063 Z" id="Layer-4"></path>
                <path d="M119.591905,95.1093715 L103.278502,78.7959683" id="Layer-5"></path>
                <polyline id="Layer-6" points="71.1788702 56.9430961 56.205036 44.9640288 56.205036 44.9640288"></polyline>
            </g>
        </g>
    </g>
</svg>