<?xml version="1.0" encoding="UTF-8"?>
<svg width="103px" height="103px" viewBox="0 0 103 103" version="1.1" xmlns="http://www.w3.org/2000/svg" xmlns:xlink="http://www.w3.org/1999/xlink">
    <!-- Generator: Sketch 46 (44423) - http://www.bohemiancoding.com/sketch -->
    <title>communications-14</title>
    <desc>Created with Sketch.</desc>
    <defs></defs>
    <g id="ALL" stroke="none" stroke-width="1" fill="none" fill-rule="evenodd" stroke-linecap="round" stroke-linejoin="round">
        <g id="Secondary" transform="translate(-3106.000000, -4741.000000)" stroke="#868E96" stroke-width="3.5">
            <g id="communications-14" transform="translate(3108.000000, 4742.000000)">
                <path d="M26.7431127,51.855746 C24.4214312,49.5108477 28.7458524,41.6222195 28.7458524,41.6222195 C30.0717806,38.5906774 29.4201482,34.0978192 27.2757067,31.5698297 L17.672684,20.2492406 C15.5348168,17.7290012 11.91872,17.5877866 9.60671073,19.9229159 L2.99141899,26.6043606 C-1.07811645,30.7145914 0.458663469,38.5830533 2.5685524,43.93918 C2.5685524,43.93918 5.24232043,52.9204374 26.0943951,73.9810328 C46.9464698,95.0416283 55.8388038,97.742134 55.8388038,97.742134 C61.1418996,99.8731218 68.9324559,101.42527 73.0019914,97.3150387 L79.6172831,90.6335941 C81.9292924,88.2984647 81.7894759,84.646207 79.2941894,82.486961 L68.0856853,72.7879081 C65.5827254,70.6220222 61.134351,69.9638735 58.1328242,71.3030609 C58.1328242,71.3030609 49.9807946,75.3258046 47.6591131,72.9809063 L37.3718661,62.5907871 L26.7431127,51.855746 L26.7431127,51.855746 Z" id="Layer-1"></path>
                <path d="M50.4950495,50 L99.0511502,0.958337971" id="Layer-2"></path>
                <polyline id="Layer-3" points="69.9087556 50 50.4950495 50 50.4950495 30.3921569"></polyline>
            </g>
        </g>
    </g>
</svg>