<?xml version="1.0" encoding="UTF-8"?>
<svg width="104px" height="104px" viewBox="0 0 104 104" version="1.1" xmlns="http://www.w3.org/2000/svg" xmlns:xlink="http://www.w3.org/1999/xlink">
    <!-- Generator: Sketch 46 (44423) - http://www.bohemiancoding.com/sketch -->
    <title>communications-17</title>
    <desc>Created with Sketch.</desc>
    <defs></defs>
    <g id="ALL" stroke="none" stroke-width="1" fill="none" fill-rule="evenodd" stroke-linecap="round" stroke-linejoin="round">
        <g id="Secondary" transform="translate(-4006.000000, -4740.000000)" stroke="#868E96" stroke-width="3.5">
            <g id="communications-17" transform="translate(4008.000000, 4742.000000)">
                <path d="M0,30 L0,5.99464628 C0,2.68389456 2.67986017,0 5.99842118,0 L64.0015788,0 C67.3144154,0 70,2.68585548 70,5.99464628 L70,51.2842849 C70,54.5950366 67.3201398,57.2789311 64.0015788,57.2789311 L60.8901411,57.2789311 L60.8901411,57.2789311 C59.9175034,64.3868916 62.3730469,69.9999996 62.3730469,70 C62.3730469,70.0000004 51.5615784,70 49.1858307,57.2789311 L40,57.2789311" id="Layer-1" transform="translate(35.000000, 35.000000) scale(-1, 1) translate(-35.000000, -35.000000) "></path>
                <path d="M35.9984212,87.2789311 C32.6798602,87.2789311 30,84.5950366 30,81.2842849 L30,35.9946463 C30,32.6858555 32.6855846,30 35.9984212,30 L94.0015788,30 C97.3201398,30 100,32.6838946 100,35.9946463 L100,81.2842849 C100,84.5930756 97.3144154,87.2789311 94.0015788,87.2789311 L50.8141693,87.2789311 C48.4384216,100 37.6269531,100 37.6269531,100 C37.6269531,99.9999996 40.0824966,94.3868916 39.1098589,87.2789311 L35.9984212,87.2789311 Z" id="Layer-2" transform="translate(65.000000, 65.000000) scale(-1, 1) translate(-65.000000, -65.000000) "></path>
            </g>
        </g>
    </g>
</svg>