<?xml version="1.0" encoding="UTF-8"?>
<svg width="100px" height="104px" viewBox="0 0 100 104" version="1.1" xmlns="http://www.w3.org/2000/svg" xmlns:xlink="http://www.w3.org/1999/xlink">
    <!-- Generator: Sketch 46 (44423) - http://www.bohemiancoding.com/sketch -->
    <title>communications-42</title>
    <desc>Created with Sketch.</desc>
    <defs></defs>
    <g id="ALL" stroke="none" stroke-width="1" fill="none" fill-rule="evenodd" stroke-linecap="round" stroke-linejoin="round">
        <g id="Secondary" transform="translate(-1956.000000, -5041.000000)" stroke="#868E96" stroke-width="3.5">
            <g id="communications-42" transform="translate(1958.000000, 5043.000000)">
                <path d="M66.40625,25.9114583 L64.1927083,34.6354167 L58.0729167,64.7135417 C58.4635417,73.828125 64.7135417,76.6927083 71.2239583,76.6927083 C83.59375,76.6927083 95.8333333,65.4947917 95.8333333,42.7083333 C95.8333333,17.4479167 78.6458333,0 53.515625,0 C27.734375,0 0,20.4427083 0,54.6875 C0,85.2864583 21.875,100 43.75,100 C56.1197917,100 66.6666667,97.9166667 80.7291667,88.4114583" id="Layer-1"></path>
                <path d="M39.9335944,75.6943359 C53.6621104,76.4233401 58.9278028,59.138427 61.2085297,47.601928 C63.4892566,36.0654289 59.5175784,24.4755859 49.225586,23.828125 C38.9335937,23.1806641 28.9375,33.0439454 26.1728518,47.1376945 C23.4082036,61.2314435 26.2050784,74.9653317 39.9335944,75.6943359 L39.9335944,75.6943359 Z" id="Layer-2"></path>
            </g>
        </g>
    </g>
</svg>