<?xml version="1.0" encoding="UTF-8"?>
<svg width="114px" height="94px" viewBox="0 0 114 94" version="1.1" xmlns="http://www.w3.org/2000/svg" xmlns:xlink="http://www.w3.org/1999/xlink">
    <!-- Generator: Sketch 46 (44423) - http://www.bohemiancoding.com/sketch -->
    <title>communications-35</title>
    <desc>Created with Sketch.</desc>
    <defs></defs>
    <g id="ALL" stroke="none" stroke-width="1" fill="none" fill-rule="evenodd" stroke-linecap="round" stroke-linejoin="round">
        <g id="Secondary" transform="translate(-9540.000000, -4740.000000)" stroke="#868E96" stroke-width="3.5">
            <g id="communications-35" transform="translate(9542.000000, 4742.000000)">
                <path d="M100,44.9981691 L100,0 L0,0 L0,80 L64.9981691,80 C61.8597241,75.8216973 60,70.6280296 60,65 C60,51.1928813 71.1928813,40 85,40 C90.6280296,40 95.8216973,41.8597241 100,44.9981691 L100,44.9981691 Z" id="Layer-1"></path>
                <polyline id="Layer-2" points="56.205036 44.9640288 50 50 43.794964 44.9640288 0 80"></polyline>
                <polygon id="Layer-3" points="0 0 0 10.1449275 50 50 100 10.1449275 100 0"></polygon>
                <path d="M85,90 C98.8071187,90 110,78.8071187 110,65 C110,51.1928813 98.8071187,40 85,40 C71.1928813,40 60,51.1928813 60,65 C60,78.8071187 71.1928813,90 85,90 Z" id="Layer-4"></path>
                <polyline id="Layer-5" points="74.4301488 64.4901185 81.8930097 72.0221983 95.4138365 58.4574237"></polyline>
                <polyline id="Layer-6" points="64.0985551 51.2788441 56.205036 44.9640288 56.205036 44.9640288"></polyline>
            </g>
        </g>
    </g>
</svg>