<?xml version="1.0" encoding="UTF-8"?>
<svg width="104px" height="94px" viewBox="0 0 104 94" version="1.1" xmlns="http://www.w3.org/2000/svg" xmlns:xlink="http://www.w3.org/1999/xlink">
    <!-- Generator: Sketch 46 (44423) - http://www.bohemiancoding.com/sketch -->
    <title>communications-46</title>
    <desc>Created with Sketch.</desc>
    <defs></defs>
    <g id="ALL" stroke="none" stroke-width="1" fill="none" fill-rule="evenodd" stroke-linecap="round" stroke-linejoin="round">
        <g id="Secondary" transform="translate(-3153.000000, -5041.000000)" stroke="#868E96" stroke-width="3.5">
            <g id="communications-46" transform="translate(3155.000000, 5043.000000)">
                <path d="M65.1816406,16.1082401 C68.4978276,16.1082401 70.9875243,24.7747484 70.9875243,24.7747484 C72.1841997,27.865321 75.8265116,30.57687 79.1455827,30.8329159 L94.0087141,31.9795151 C97.31761,32.2347761 100,29.7520937 100,26.4497221 L100,17.0007324 C100,11.1879883 93.338623,6.72167969 88.0444336,4.44116211 C88.0444336,4.44116211 79.7841797,0 50,0 C20.2158203,0 11.9555664,4.44116211 11.9555664,4.44116211 C6.66137695,6.72167969 0,11.1879883 0,17.0007324 L0,26.4497221 C2.27373675e-13,29.7520937 2.68239005,32.2347761 5.99128586,31.9795151 L20.8544173,30.8329159 C24.1734884,30.57687 27.8158003,27.865321 29.0124757,24.7747484 C29.0124757,24.7747484 31.9899654,16.1082401 35.3061523,16.1082401 L50,16.10824 L65.1816406,16.1082401 L65.1816406,16.1082401 L65.1816406,16.1082401 Z" id="Layer-1"></path>
                <rect id="Layer-2" x="44" y="82" width="12" height="8"></rect>
                <rect id="Layer-3" x="23" y="82" width="12" height="8"></rect>
                <rect id="Layer-4" x="65" y="82" width="12" height="8"></rect>
                <rect id="Layer-5" x="44" y="66" width="12" height="8"></rect>
                <rect id="Layer-6" x="23" y="66" width="12" height="8"></rect>
                <rect id="Layer-7" x="65" y="66" width="12" height="8"></rect>
                <rect id="Layer-8" x="44" y="50" width="12" height="8"></rect>
                <rect id="Layer-9" x="23" y="50" width="12" height="8"></rect>
                <rect id="Layer-10" x="65" y="50" width="12" height="8"></rect>
            </g>
        </g>
    </g>
</svg>