<?xml version="1.0" encoding="UTF-8"?>
<svg width="104px" height="104px" viewBox="0 0 104 104" version="1.1" xmlns="http://www.w3.org/2000/svg" xmlns:xlink="http://www.w3.org/1999/xlink">
    <!-- Generator: Sketch 46 (44423) - http://www.bohemiancoding.com/sketch -->
    <title>communications-18</title>
    <desc>Created with Sketch.</desc>
    <defs></defs>
    <g id="ALL" stroke="none" stroke-width="1" fill="none" fill-rule="evenodd" stroke-linecap="round" stroke-linejoin="round">
        <g id="Secondary" transform="translate(-4306.000000, -4740.000000)" stroke="#868E96" stroke-width="3.5">
            <g id="communications-18" transform="translate(4308.000000, 4742.000000)">
                <path d="M86.9859159,81.8270445 L94.0069352,81.8270445 C97.312319,81.8270445 100,79.1405954 100,75.8266924 L100,6.00035205 C100,2.68760658 97.3168135,0 94.0069352,0 L5.99306484,0 C2.68768095,0 0,2.68644912 0,6.00035205 L0,75.8266924 C0,79.1394379 2.68318653,81.8270445 5.99306484,81.8270445 L70.2654724,81.8270445 C73.6593977,100 89.1043527,100.000001 89.1043527,100 C89.1043527,99.9999994 85.5964334,91.9812737 86.9859159,81.8270445 Z" id="Layer-1" transform="translate(50.000000, 50.000000) scale(-1, 1) translate(-50.000000, -50.000000) "></path>
                <path d="M38,31 C38,27.1340068 34.8659932,24 31,24 C27.1340068,24 24,27.1340068 24,31" id="Layer-2"></path>
                <path d="M78,31 C78,27.1340068 74.8659932,24 71,24 C67.1340068,24 64,27.1340068 64,31" id="Layer-3"></path>
                <path d="M64.3934347,50.0889859 C62.6440864,55.8261868 57.3094663,60 51,60 C44.6702449,60 39.3216156,55.799301 37.5898009,50.0335917" id="Layer-4"></path>
            </g>
        </g>
    </g>
</svg>