<?xml version="1.0" encoding="UTF-8"?>
<svg width="114px" height="104px" viewBox="0 0 114 104" version="1.1" xmlns="http://www.w3.org/2000/svg" xmlns:xlink="http://www.w3.org/1999/xlink">
    <!-- Generator: Sketch 46 (44423) - http://www.bohemiancoding.com/sketch -->
    <title>communications-27</title>
    <desc>Created with Sketch.</desc>
    <defs></defs>
    <g id="ALL" stroke="none" stroke-width="1" fill="none" fill-rule="evenodd" stroke-linecap="round" stroke-linejoin="round">
        <g id="Secondary" transform="translate(-7080.000000, -4740.000000)" stroke="#868E96" stroke-width="3.5">
            <g id="communications-27" transform="translate(7082.000000, 4742.000000)">
                <path d="M67.2066803,84.0828623 C66.7924053,83.27155 66.4318976,82.4282113 66.1298553,81.5575441 L60,78.689209 L60,71.6599121 L65.9965083,68.840382 C66.3238064,67.8282757 66.7295888,66.8514692 67.2066803,65.9171377 L64.9605317,59.6841293 L69.9309952,54.7136658 L76.119214,57.0898459 C76.9954028,56.6530732 77.9081525,56.2787041 78.851643,55.9725587 L81.6599121,50 L88.689209,50 L91.3715161,56.0262629 C92.3267892,56.3453949 93.2499621,56.7346502 94.1349247,57.1879188 L100.315871,54.9605317 L105.286334,59.9309952 L102.929727,66.0682401 C103.37903,66.9669179 103.762645,67.9041578 104.074282,68.8736672 L110,71.6599121 L110,78.689209 L103.997214,81.3610664 C103.718559,82.1922979 103.386793,82.9991703 103.005945,83.7776525 L105.286334,90.0690048 L100.315871,95.0394683 L94.1349247,92.8120812 C93.3005422,93.2394432 92.4321923,93.6099002 91.5349964,93.918331 L88.689209,100 L81.6599121,100 L78.851643,94.0274413 C77.9638885,93.7393812 77.1033501,93.3909198 76.2748762,92.9869057 L69.9309952,95.2863342 L64.9605317,90.3158707 L67.2066803,84.0828623 L67.2066803,84.0828623 Z" id="Layer-1"></path>
                <path d="M85,80 C87.7614237,80 90,77.7614237 90,75 C90,72.2385763 87.7614237,70 85,70 C82.2385763,70 80,72.2385763 80,75 C80,77.7614237 82.2385763,80 85,80 Z" id="Layer-2"></path>
                <path d="M100,55.0743599 L100,37.4082031 L100,6.00035205 C100,2.68644912 97.312319,0 94.0069352,0 L5.99306484,0 C2.68318653,0 0,2.68760658 0,6.00035205 L0,75.8266924 C0,79.1405954 2.68768095,81.8270445 5.99306484,81.8270445 L13.0140841,81.8270445 C14.4035666,91.9812737 10.8956473,99.9999994 10.8956473,100 C10.8956473,100.000001 26.3406023,100 29.7345276,81.8270445 L66.2255282,81.8270445 C66.1930142,81.7375073 66.1611215,81.6476721 66.1298553,81.5575441 L60,78.689209 L60,71.6599121 L65.9965083,68.840382 C66.3238064,67.8282757 66.7295888,66.8514692 67.2066803,65.9171377 L64.9605317,59.6841293 L69.9309952,54.7136658 L76.119214,57.0898459 C76.9954028,56.6530732 77.9081525,56.2787041 78.851643,55.9725587 L81.6599121,50 L88.689209,50 L91.3715161,56.0262629 C92.3267892,56.3453949 93.2499621,56.7346502 94.1349247,57.1879188 L100,55.0743599 L100,55.0743599 Z" id="Layer-3"></path>
            </g>
        </g>
    </g>
</svg>