<?xml version="1.0" encoding="UTF-8"?>
<svg width="104px" height="104px" viewBox="0 0 104 104" version="1.1" xmlns="http://www.w3.org/2000/svg" xmlns:xlink="http://www.w3.org/1999/xlink">
    <!-- Generator: Sketch 46 (44423) - http://www.bohemiancoding.com/sketch -->
    <title>communications-2</title>
    <desc>Created with Sketch.</desc>
    <defs></defs>
    <g id="ALL" stroke="none" stroke-width="1" fill="none" fill-rule="evenodd" stroke-linecap="round" stroke-linejoin="round">
        <g id="Secondary" transform="translate(-8744.000000, -4438.000000)" stroke="#868E96" stroke-width="3.5">
            <g id="communications-2" transform="translate(8746.000000, 4440.000000)">
                <path d="M27.0105439,51.855746 C24.6656456,49.5108477 29.033311,41.6222195 29.033311,41.6222195 C30.3724984,38.5906774 29.7143497,34.0978192 27.5484638,31.5698297 L17.8494109,20.2492406 C15.6901649,17.7290012 12.0379072,17.5877866 9.70277784,19.9229159 L3.02133318,26.6043606 C-1.08889762,30.7145914 0.463250104,38.5830533 2.59423792,43.93918 C2.59423792,43.93918 5.29474363,52.9204374 26.3553391,73.9810328 C47.4159345,95.0416283 56.3971919,97.742134 56.3971919,97.742134 C61.7533186,99.8731218 69.6217805,101.42527 73.7320113,97.3150387 L80.413456,90.6335941 C82.7485853,88.2984647 82.6073707,84.646207 80.0871313,82.486961 L68.7665422,72.7879081 C66.2385527,70.6220222 61.7456945,69.9638735 58.7141524,71.3030609 C58.7141524,71.3030609 50.4806025,75.3258046 48.1357042,72.9809063 L37.7455848,62.5907871 L27.0105439,51.855746 L27.0105439,51.855746 Z" id="Layer-1"></path>
                <path d="M100,0 L49.9775051,50.0224953" id="Layer-2"></path>
                <polyline id="Layer-3" points="80 0 100 0 100 20"></polyline>
            </g>
        </g>
    </g>
</svg>