<?xml version="1.0" encoding="UTF-8"?>
<svg width="104px" height="88px" viewBox="0 0 104 88" version="1.1" xmlns="http://www.w3.org/2000/svg" xmlns:xlink="http://www.w3.org/1999/xlink">
    <!-- Generator: Sketch 46 (44423) - http://www.bohemiancoding.com/sketch -->
    <title>devices-10</title>
    <desc>Created with Sketch.</desc>
    <defs></defs>
    <g id="ALL" stroke="none" stroke-width="1" fill="none" fill-rule="evenodd" stroke-linecap="round" stroke-linejoin="round">
        <g id="Secondary" transform="translate(-7263.000000, -3515.000000)" stroke="#868E96" stroke-width="3.5">
            <g id="devices-10" transform="translate(7265.000000, 3517.000000)">
                <path d="M80,15 L80,12 C80,10.3431458 81.3486445,9 83.0003297,9 L86.9996703,9 C88.6567066,9 90,10.3465171 90,12 L90,15 L80,15 Z" id="Layer-1"></path>
                <path d="M25.9150391,15 L2.99280137,15 C1.33801252,15 0,16.3472699 0,18.0092117 L0,80.9907883 C0,82.6526374 1.33992281,84 2.99280137,84 L97.0071986,84 C98.6619875,84 100,82.6527301 100,80.9907883 L100,18.0092117 C100,16.3473626 98.6600772,15 97.0071986,15 L74.1300781,15 L66.840385,2.58127749 C66.0035603,1.15566268 63.9831051,0 62.327553,0 L37.7852399,0 C36.1391629,0 34.10401,1.1556773 33.2607619,2.58127749 L25.9150391,15 L25.9150391,15 Z" id="Layer-2"></path>
                <path d="M10,27 C11.6568542,27 13,25.6568542 13,24 C13,22.3431458 11.6568542,21 10,21 C8.34314575,21 7,22.3431458 7,24 C7,25.6568542 8.34314575,27 10,27 Z" id="Layer-3"></path>
                <path d="M20,27 C21.6568542,27 23,25.6568542 23,24 C23,22.3431458 21.6568542,21 20,21 C18.3431458,21 17,22.3431458 17,24 C17,25.6568542 18.3431458,27 20,27 Z" id="Layer-4"></path>
                <rect id="Layer-5" x="10" y="34" width="50" height="40"></rect>
                <circle id="Layer-6" cx="80" cy="62" r="12"></circle>
                <path d="M80,57 L80,67" id="Layer-7"></path>
                <path d="M85,62 L75,62" id="Layer-8"></path>
            </g>
        </g>
    </g>
</svg>