<?xml version="1.0" encoding="UTF-8"?>
<svg width="104px" height="104px" viewBox="0 0 104 104" version="1.1" xmlns="http://www.w3.org/2000/svg" xmlns:xlink="http://www.w3.org/1999/xlink">
    <!-- Generator: Sketch 46 (44423) - http://www.bohemiancoding.com/sketch -->
    <title>devices-25</title>
    <desc>Created with Sketch.</desc>
    <defs></defs>
    <g id="ALL" stroke="none" stroke-width="1" fill="none" fill-rule="evenodd" stroke-linecap="round" stroke-linejoin="round">
        <g id="Secondary" transform="translate(-2126.000000, -3815.000000)" stroke="#868E96" stroke-width="3.5">
            <g id="devices-25" transform="translate(2128.000000, 3817.000000)">
                <path d="M0,53.9906363 C0,49.025245 4.02323995,45 9.00537044,45 L20,45 L20,80 L9.00537044,80 C4.03184168,80 0,75.9679736 0,71.0093637 L0,53.9906363 L0,53.9906363 Z" id="Layer-1"></path>
                <rect id="Layer-2" x="20" y="42" width="8" height="40" rx="4"></rect>
                <rect id="Layer-3" x="72" y="42" width="8" height="40" rx="4"></rect>
                <path d="M80,45 L90.9946296,45 C95.9681583,45 100,49.0320264 100,53.9906363 L100,71.0093637 C100,75.974755 95.9767601,80 90.9946296,80 L80,80 L80,45 Z" id="Layer-4"></path>
                <path d="M90,40 C90,17.90861 72.09139,0 50,0 C27.90861,0 10,17.90861 10,40 L10,44.0629646" id="Layer-5"></path>
                <path d="M90,40 L90,43" id="Layer-6"></path>
                <path d="M89.8081055,80 L89.8081055,85 C89.8081055,87.7614237 87.5718211,90 84.8027833,90 L60,90" id="Layer-7"></path>
                <path d="M50,100 L50,95 C50,92.2385763 52.2362844,90 55.0053221,90 L72.6313477,90" id="Layer-8"></path>
            </g>
        </g>
    </g>
</svg>