<?xml version="1.0" encoding="UTF-8"?>
<svg width="104px" height="94px" viewBox="0 0 104 94" version="1.1" xmlns="http://www.w3.org/2000/svg" xmlns:xlink="http://www.w3.org/1999/xlink">
    <!-- Generator: Sketch 46 (44423) - http://www.bohemiancoding.com/sketch -->
    <title>devices-7</title>
    <desc>Created with Sketch.</desc>
    <defs></defs>
    <g id="ALL" stroke="none" stroke-width="1" fill="none" fill-rule="evenodd" stroke-linecap="round" stroke-linejoin="round">
        <g id="Secondary" transform="translate(-6363.000000, -3515.000000)" stroke="#868E96" stroke-width="3.5">
            <g id="devices-7" transform="translate(6365.000000, 3517.000000)">
                <rect id="Layer-1" x="0" y="0" width="100" height="90" rx="3"></rect>
                <circle id="Layer-2" cx="42" cy="45" r="34"></circle>
                <rect id="Layer-3" x="83" y="10" width="10" height="10" rx="5"></rect>
                <path d="M77.7758049,69.12369 C78.9486865,67.9508084 80.8463252,67.9468302 82.0219929,69.122498 L83.4338512,70.5343562 C84.6060745,71.7065795 84.607144,73.6060594 83.4326592,74.7805443 L77.7805443,80.4326592 C76.6076627,81.6055408 74.710024,81.609519 73.5343562,80.4338512 L72.122498,79.0219929 C70.9502747,77.8497697 70.9492052,75.9502897 72.12369,74.7758049 L77.7758049,69.12369 L77.7758049,69.12369 Z" id="Layer-4"></path>
                <polyline id="Layer-5" points="88 22 88 64.5632324 82.8400384 69.7185111"></polyline>
                <circle id="Layer-6" cx="42" cy="45" r="10"></circle>
                <circle id="Layer-7" cx="42" cy="45" r="3"></circle>
            </g>
        </g>
    </g>
</svg>