<?xml version="1.0" encoding="UTF-8"?>
<svg width="105px" height="104px" viewBox="0 0 105 104" version="1.1" xmlns="http://www.w3.org/2000/svg" xmlns:xlink="http://www.w3.org/1999/xlink">
    <!-- Generator: Sketch 46 (44423) - http://www.bohemiancoding.com/sketch -->
    <title>devices-2</title>
    <desc>Created with Sketch.</desc>
    <defs></defs>
    <g id="ALL" stroke="none" stroke-width="1" fill="none" fill-rule="evenodd" stroke-linecap="round" stroke-linejoin="round">
        <g id="Secondary" transform="translate(-4874.000000, -3515.000000)" stroke="#868E96" stroke-width="3.5">
            <g id="devices-2" transform="translate(4876.000000, 3517.000000)">
                <path d="M91.5161938,78.4171767 C97.1000077,70.347695 100.371095,60.5558492 100.371095,50 C100.371095,39.554091 97.1677902,29.8563539 91.689908,21.835516 L97.0193273,16.5060967 C100.92457,12.6008537 101.241153,6.58578644 97.726434,3.07106781 C94.2117154,-0.443650814 88.1966481,-0.127068324 84.2914052,3.77817459 L79.0396175,9.02996225 C70.9224897,3.33951755 61.0367854,0 50.371095,0 C39.5577983,0 29.546226,3.43259071 21.3665838,9.26756671 L15.8771916,3.77817459 C11.9719487,-0.127068324 5.95688142,-0.443650814 2.4421628,3.07106781 C-1.07255583,6.58578644 -0.75597334,12.6008537 3.14926958,16.5060967 L8.82073867,22.1775657 C3.4842413,30.1313994 0.371094984,39.7021425 0.371094984,50 C0.371094984,60.4079364 3.55115301,70.0731305 8.99263327,78.0769465 L3.14926958,83.9203102 C-0.75597334,87.8255531 -1.07255583,93.8406204 2.4421628,97.3553391 C5.95688142,100.870058 11.9719487,100.553475 15.8771916,96.6482323 L21.6161252,90.9092987 C29.7494673,96.6367114 39.6675121,100 50.371095,100 C60.9269442,100 70.71879,96.7289127 78.7882717,91.1450988 L84.2914052,96.6482323 C88.1966481,100.553475 94.2117154,100.870058 97.726434,97.3553391 C101.241153,93.8406204 100.92457,87.8255531 97.0193273,83.9203102 L91.5161938,78.4171767 L91.5161938,78.4171767 Z" id="Layer-1"></path>
                <circle id="Layer-2" cx="50" cy="50" r="40"></circle>
                <circle id="Layer-3" cx="50" cy="50" r="10"></circle>
                <path d="M90,93 C91.6568542,93 93,91.6568542 93,90 C93,88.3431458 91.6568542,87 90,87 C88.3431458,87 87,88.3431458 87,90 C87,91.6568542 88.3431458,93 90,93 L90,93 L90,93 L90,93 L90,93 Z M10,93 C11.6568542,93 13,91.6568542 13,90 C13,88.3431458 11.6568542,87 10,87 C8.34314575,87 7,88.3431458 7,90 C7,91.6568542 8.34314575,93 10,93 L10,93 L10,93 L10,93 L10,93 Z M90,13 C91.6568542,13 93,11.6568542 93,10 C93,8.34314575 91.6568542,7 90,7 C88.3431458,7 87,8.34314575 87,10 C87,11.6568542 88.3431458,13 90,13 L90,13 L90,13 L90,13 L90,13 Z M10,13 C11.6568542,13 13,11.6568542 13,10 C13,8.34314575 11.6568542,7 10,7 C8.34314575,7 7,8.34314575 7,10 C7,11.6568542 8.34314575,13 10,13 L10,13 L10,13 L10,13 L10,13 Z" id="Layer-4"></path>
            </g>
        </g>
    </g>
</svg>