<?xml version="1.0" encoding="UTF-8"?>
<svg width="104px" height="104px" viewBox="0 0 104 104" version="1.1" xmlns="http://www.w3.org/2000/svg" xmlns:xlink="http://www.w3.org/1999/xlink">
    <!-- Generator: Sketch 46 (44423) - http://www.bohemiancoding.com/sketch -->
    <title>devices-30</title>
    <desc>Created with Sketch.</desc>
    <defs></defs>
    <g id="ALL" stroke="none" stroke-width="1" fill="none" fill-rule="evenodd" stroke-linecap="round" stroke-linejoin="round">
        <g id="Secondary" transform="translate(-3618.000000, -3815.000000)" stroke="#868E96" stroke-width="3.5">
            <g id="devices-30" transform="translate(3620.000000, 3817.000000)">
                <path d="M0,10.0000638 C0,4.47718108 4.47473288,0 10.0000638,0 L89.9999362,0 C95.5228189,0 100,4.47473288 100,10.0000638 L100,95.0067709 C100,97.7644552 97.7711504,100 95.0067709,100 L4.99322906,100 C2.2355448,100 0,97.7711504 0,95.0067709 L0,10.0000638 Z" id="Layer-1"></path>
                <path d="M100,30 L100,10.0000638 C100,4.47473288 95.5228189,0 89.9999362,0 L10.0000638,0 C4.47473288,0 0,4.47718108 0,10.0000638 L0,30 L100,30 L100,30 Z" id="Layer-2"></path>
                <circle id="Layer-3" cx="10" cy="10" r="2"></circle>
                <circle id="Layer-4" cx="20" cy="10" r="2"></circle>
                <circle id="Layer-5" cx="20" cy="20" r="2"></circle>
                <circle id="Layer-6" cx="10" cy="20" r="2"></circle>
                <path d="M10,59.9980749 C10,54.4762906 14.4725688,50 19.9904648,50 L80.0095352,50 C85.5271165,50 90,54.4811691 90,59.9980749 L90,100 L10,100 L10,59.9980749 Z" id="Layer-7"></path>
                <path d="M10,80 L89.0569382,80" id="Layer-8"></path>
                <path d="M60,50 L60,56.9996703 C60,58.6567066 58.656688,60 57.0057979,60 L42.9942021,60 C41.3405499,60 40,58.6513555 40,56.9996703 L40,50 L60,50 Z" id="Layer-9"></path>
                <rect id="Layer-10" x="60" y="10" width="30" height="10" rx="1"></rect>
                <path d="M40,90 L60,90" id="Layer-11"></path>
            </g>
        </g>
    </g>
</svg>