<?xml version="1.0" encoding="UTF-8"?>
<svg width="101px" height="101px" viewBox="0 0 101 101" version="1.1" xmlns="http://www.w3.org/2000/svg" xmlns:xlink="http://www.w3.org/1999/xlink">
    <!-- Generator: Sketch 46 (44423) - http://www.bohemiancoding.com/sketch -->
    <title>devices-32</title>
    <desc>Created with Sketch.</desc>
    <defs></defs>
    <g id="ALL" stroke="none" stroke-width="1" fill="none" fill-rule="evenodd" stroke-linecap="round" stroke-linejoin="round">
        <g id="Secondary" transform="translate(-4219.000000, -3816.000000)" stroke="#868E96" stroke-width="3.5">
            <g id="devices-32" transform="translate(4220.000000, 3817.000000)">
                <path d="M43.1315092,18.8323877 C44.3026509,17.6612459 46.205685,17.6654841 47.3783299,18.838129 L80.1973855,51.6571846 C81.3716981,52.8314972 81.3784154,54.7287168 80.2031268,55.9040053 L56.9837487,79.1233835 C55.8126069,80.2945252 53.9095728,80.290287 52.736928,79.1176422 L19.9178723,46.2985865 C18.7435598,45.124274 18.7368424,43.2270544 19.912131,42.0517658 L43.1315092,18.8323877 L43.1315092,18.8323877 Z" id="Layer-1"></path>
                <polygon id="Layer-2" points="50.0576289 21.5174281 70.652972 0.922084921 98.1134296 28.3825424 77.5180864 48.9778856"></polygon>
                <polygon id="Layer-3" points="68.5934377 15.3388251 72.7125064 19.4578937 68.5934377 23.5769624 64.4743691 19.4578937"></polygon>
                <polygon id="Layer-4" points="79.5776207 26.3230081 83.6966894 30.4420768 79.5776207 34.5611454 75.4585521 30.4420768"></polygon>
                <path d="M26.71624,66.827183 L32.2083315,72.3192745 L7.49393728,97.0336687 C5.97732841,98.5502776 3.51534146,98.5471995 2.00182824,97.0336862 L2.00182824,97.0336862 C0.485229054,95.5170871 0.489048639,93.0543743 2.00184577,91.5415772 L26.71624,66.827183 L26.71624,66.827183 Z" id="Layer-5"></path>
                <polygon id="Layer-6" points="22.5971714 62.7081143 36.3274001 76.4383431 43.1925145 69.5732287 29.4622858 55.843 22.5971714 62.7081143"></polygon>
            </g>
        </g>
    </g>
</svg>