<?xml version="1.0" encoding="UTF-8"?>
<svg width="96px" height="104px" viewBox="0 0 96 104" version="1.1" xmlns="http://www.w3.org/2000/svg" xmlns:xlink="http://www.w3.org/1999/xlink">
    <!-- Generator: Sketch 46 (44423) - http://www.bohemiancoding.com/sketch -->
    <title>devices-26</title>
    <desc>Created with Sketch.</desc>
    <defs></defs>
    <g id="ALL" stroke="none" stroke-width="1" fill="none" fill-rule="evenodd" stroke-linecap="round" stroke-linejoin="round">
        <g id="Secondary" transform="translate(-2426.000000, -3815.000000)" stroke="#868E96" stroke-width="3.5">
            <g id="devices-26" transform="translate(2428.000000, 3817.000000)">
                <path d="M89.7537245,94.9142625 C93.1674682,97.7230377 92.3494431,100 87.9415862,100 L9.94472014,100 L3.94230804,100 C-0.480086598,100 -1.30570779,97.7295773 2.11598393,94.9142625 L19.0121123,81.0123904 C26.5309809,86.6560892 35.8749843,90 46,90 C56.0944259,90 65.4125516,86.676264 72.9196894,81.0634799 L89.7537245,94.9142625 Z" id="Layer-1"></path>
                <circle id="Layer-2" cx="46" cy="45" r="45"></circle>
                <circle id="Layer-3" cx="46" cy="45" r="22.5"></circle>
                <circle id="Layer-4" cx="46" cy="45" r="11.25"></circle>
                <circle id="Layer-5" cx="46" cy="5" r="5"></circle>
                <path d="M68.5,45 L91,45" id="Layer-6"></path>
                <path d="M1,45 L23.5,45" id="Layer-7"></path>
            </g>
        </g>
    </g>
</svg>