<?xml version="1.0" encoding="UTF-8"?>
<svg width="104px" height="99px" viewBox="0 0 104 99" version="1.1" xmlns="http://www.w3.org/2000/svg" xmlns:xlink="http://www.w3.org/1999/xlink">
    <!-- Generator: Sketch 46 (44423) - http://www.bohemiancoding.com/sketch -->
    <title>devices-49</title>
    <desc>Created with Sketch.</desc>
    <defs></defs>
    <g id="ALL" stroke="none" stroke-width="1" fill="none" fill-rule="evenodd" stroke-linecap="round" stroke-linejoin="round">
        <g id="Secondary" transform="translate(-9225.000000, -3815.000000)" stroke="#868E96" stroke-width="3.5">
            <g id="devices-49" transform="translate(9227.000000, 3817.000000)">
                <path d="M72.3655713,94.7311425 L72.3655713,94.7311425 C88.7514011,86.5222581 100,69.5747546 100,50 C100,22.3857625 77.6142375,0 50,0 C22.3857625,0 0,22.3857625 0,50 C0,69.5747546 11.2485989,86.5222581 27.6344287,94.7311425" id="Layer-1"></path>
                <path d="M67.892457,85.784914 L67.892457,85.784914 C81.0011209,79.2178065 90,65.6598037 90,50 C90,27.90861 72.09139,10 50,10 C27.90861,10 10,27.90861 10,50 C10,65.6598037 18.9988791,79.2178065 32.107543,85.784914" id="Layer-2"></path>
                <path d="M63.4193428,76.8386855 L63.4193428,76.8386855 C73.2508406,71.9133549 80,61.7448527 80,50 C80,33.4314575 66.5685425,20 50,20 C33.4314575,20 20,33.4314575 20,50 C20,61.7448527 26.7491594,71.9133549 36.5806572,76.8386855" id="Layer-3"></path>
                <path d="M58.9462285,67.892457 C65.5005604,64.6089032 70,57.8299018 70,50 C70,38.954305 61.045695,30 50,30 C38.954305,30 30,38.954305 30,50 C30,57.8299018 34.4994396,64.6089032 41.0537715,67.892457" id="Layer-4"></path>
                <path d="M50,55 C52.7614237,55 55,52.7614237 55,50 C55,47.2385763 52.7614237,45 50,45 C47.2385763,45 45,47.2385763 45,50 C45,52.7614237 47.2385763,55 50,55 Z" id="Layer-5"></path>
            </g>
        </g>
    </g>
</svg>