<?xml version="1.0" encoding="UTF-8"?>
<svg width="64px" height="104px" viewBox="0 0 64 104" version="1.1" xmlns="http://www.w3.org/2000/svg" xmlns:xlink="http://www.w3.org/1999/xlink">
    <!-- Generator: Sketch 46 (44423) - http://www.bohemiancoding.com/sketch -->
    <title>devices-23</title>
    <desc>Created with Sketch.</desc>
    <defs></defs>
    <g id="ALL" stroke="none" stroke-width="1" fill="none" fill-rule="evenodd" stroke-linecap="round" stroke-linejoin="round">
        <g id="Secondary" transform="translate(-1606.000000, -3815.000000)" stroke="#868E96" stroke-width="3.5">
            <g id="devices-23" transform="translate(1608.000000, 3817.000000)">
                <path d="M0,19.9961498 C0,8.95258123 8.95019024,0 19.9999784,0 L40.0000216,0 C51.0457046,0 60,8.96233823 60,19.9961498 L60,69.9967027 C60,86.5670662 46.5721855,100 30,100 L30,100 C13.4314575,100 0,86.5654753 0,69.9967027 L0,19.9961498 Z" id="Layer-1"></path>
                <path d="M30,24 L30,30 L60,30 L60,20.0018531 C60,8.95513468 51.0498098,0 40.0000216,0 L30,0 L30,6 C32.209139,6 34,7.79171562 34,9.9947834 L34,20.0052166 C34,22.2114745 32.2046438,24 30,24 L30,24 Z" id="Layer-2"></path>
                <path d="M30,24 L30,30 L0,30 L0,20.0018531 C0,8.95513468 8.95019024,0 19.9999784,0 L30,0 L30,6 C27.790861,6 26,7.79171562 26,9.9947834 L26,20.0052166 C26,22.2114745 27.7953562,24 30,24 L30,24 Z" id="Layer-3"></path>
                <rect id="Layer-4" x="26" y="6" width="8" height="18" rx="4"></rect>
            </g>
        </g>
    </g>
</svg>