<?xml version="1.0" encoding="UTF-8"?>
<svg width="104px" height="104px" viewBox="0 0 104 104" version="1.1" xmlns="http://www.w3.org/2000/svg" xmlns:xlink="http://www.w3.org/1999/xlink">
    <!-- Generator: Sketch 46 (44423) - http://www.bohemiancoding.com/sketch -->
    <title>devices-53</title>
    <desc>Created with Sketch.</desc>
    <defs></defs>
    <g id="ALL" stroke="none" stroke-width="1" fill="none" fill-rule="evenodd" stroke-linecap="round" stroke-linejoin="round">
        <g id="Secondary" transform="translate(-1006.000000, -4137.000000)" stroke="#868E96" stroke-width="3.5">
            <g id="devices-53" transform="translate(1008.000000, 4139.000000)">
                <rect id="Layer-1" x="15" y="15" width="70" height="70" rx="6"></rect>
                <path d="M15,30 L0,30" id="Layer-2"></path>
                <path d="M15,44 L0,44" id="Layer-3"></path>
                <path d="M15,57 L0,57" id="Layer-4"></path>
                <path d="M15,70 L0,70" id="Layer-5"></path>
                <path d="M100,30 L85,30" id="Layer-6"></path>
                <path d="M100,44 L85,44" id="Layer-7"></path>
                <path d="M100,57 L85,57" id="Layer-8"></path>
                <path d="M100,70 L85,70" id="Layer-9"></path>
                <path d="M70,100 L70,85" id="Layer-10"></path>
                <path d="M56,100 L56,85" id="Layer-11"></path>
                <path d="M43,100 L43,85" id="Layer-12"></path>
                <path d="M30,100 L30,85" id="Layer-13"></path>
                <path d="M70,15 L70,-3.55271368e-15" id="Layer-14"></path>
                <path d="M56,15 L56,-3.55271368e-15" id="Layer-15"></path>
                <path d="M43,15 L43,-3.55271368e-15" id="Layer-16"></path>
                <path d="M30,15 L30,-3.55271368e-15" id="Layer-17"></path>
                <rect id="Layer-18" x="26" y="26" width="48" height="48" rx="3"></rect>
                <path d="M40,54 L60,54" id="Layer-19"></path>
                <path d="M45,46 L55,46" id="Layer-20"></path>
            </g>
        </g>
    </g>
</svg>