<?xml version="1.0" encoding="UTF-8"?>
<svg width="103px" height="103px" viewBox="0 0 103 103" version="1.1" xmlns="http://www.w3.org/2000/svg" xmlns:xlink="http://www.w3.org/1999/xlink">
    <!-- Generator: Sketch 46 (44423) - http://www.bohemiancoding.com/sketch -->
    <title>devices-13</title>
    <desc>Created with Sketch.</desc>
    <defs></defs>
    <g id="ALL" stroke="none" stroke-width="1" fill="none" fill-rule="evenodd" stroke-linecap="round" stroke-linejoin="round">
        <g id="Secondary" transform="translate(-8158.000000, -3516.000000)" stroke="#868E96" stroke-width="3.5">
            <g id="devices-13" transform="translate(8160.000000, 3517.000000)">
                <path d="M0.858993537,85.5461466 C0.482565042,85.1697181 0.477109185,84.5648628 0.861336869,84.1806351 L6.90450503,78.1374669 C7.28222772,77.7597442 7.88722473,77.7523318 8.27001653,78.1351236 L21.8648764,91.7299835 C22.2413049,92.106412 22.2467608,92.7112673 21.8625331,93.095495 L15.8193649,99.1386631 C15.4416423,99.5163858 14.8366452,99.5237983 14.4538534,99.1410065 L0.858993537,85.5461466 L0.858993537,85.5461466 Z" id="Layer-1"></path>
                <path d="M3.7787359,73.6438429 C3.40444597,73.269553 3.40685669,72.6602984 3.77855527,72.2885998 L24.6565618,51.4105933 C25.0307519,51.0364032 25.6366926,51.0356617 26.0118049,51.410774 L48.589226,73.9881951 C48.963516,74.362485 48.9611053,74.9717396 48.5894067,75.3434382 L27.7114002,96.2214447 C27.33721,96.5956349 26.7312693,96.5963764 26.3561571,96.2212641 L3.7787359,73.6438429 L3.7787359,73.6438429 Z" id="Layer-2"></path>
                <path d="M3.7787359,73.6438429 C3.40444597,73.269553 3.40072376,72.6664313 3.78495145,72.2822037 L9.82811961,66.2390355 C10.2058423,65.8613128 10.8146466,65.8577077 11.1897589,66.2328199 L33.7671801,88.8102411 C34.14147,89.184531 34.1451922,89.7876527 33.7609645,90.1718804 L27.7177963,96.2150486 C27.3400737,96.5927712 26.7312693,96.5963764 26.3561571,96.2212641 L3.7787359,73.6438429 L3.7787359,73.6438429 Z" id="Layer-3"></path>
                <path d="M23.0235348,48.4225038 C22.6474027,48.0463718 22.6407605,47.4431834 23.0172801,47.0666637 L58.7228096,11.3611342 C59.0954874,10.9884565 59.7034367,10.9921758 60.0786497,11.3673889 L88.6326111,39.9213503 C89.0087432,40.2974823 89.0153855,40.9006707 88.6388658,41.2771904 L52.9333363,76.9827199 C52.5606585,77.3553976 51.9527093,77.3516783 51.5774962,76.9764652 L23.0235348,48.4225038 L23.0235348,48.4225038 Z" id="Layer-4"></path>
                <path d="M39.4762286,50.0531517 C40.7041271,48.8252532 40.6949949,46.8253042 39.4558313,45.5861406 C38.2166677,44.346977 36.2167187,44.3378448 34.9888202,45.5657433 C33.7609217,46.7936418 33.7700539,48.7935908 35.0092175,50.0327544 C36.2483811,51.271918 38.2483301,51.2810502 39.4762286,50.0531517 L39.4762286,50.0531517 Z" id="Layer-5"></path>
                <path d="M57.6951731,8.98391226 C56.5701262,7.85886527 56.5668323,6.03809759 57.702808,4.90212181 L61.0244057,1.58052415 C62.1536693,0.451260526 63.9842098,0.450902904 65.1061961,1.57288927 L98.4271107,34.8938039 C99.5521577,36.0188509 99.5554516,37.8396185 98.4194759,38.9755943 L95.0978782,42.297192 C93.9686146,43.4264556 92.1380741,43.4268132 91.0160877,42.3048269 L57.6951731,8.98391226 L57.6951731,8.98391226 Z" id="Layer-6"></path>
                <polygon id="Layer-7" points="44.5755564 25.5083875 59.3976024 10.6863415 89.3136585 40.6023976 74.4916125 55.4244436"></polygon>
                <polygon id="Layer-8" points="44.5755564 25.5083875 59.3976024 10.6863415 66.8766164 18.1653555 52.0545704 32.9874015"></polygon>
                <polygon id="Layer-9" points="52.0545704 32.9874015 66.8766164 18.1653555 74.3556304 25.6443696 59.5335845 40.4664155"></polygon>
                <polygon id="Layer-10" points="59.5335845 40.4664155 74.3556304 25.6443696 81.8346445 33.1233836 67.0125985 47.9454296"></polygon>
                <path d="M59.6695665,70.2464896 L52.1905525,62.7674756" id="Layer-11"></path>
            </g>
        </g>
    </g>
</svg>