<?xml version="1.0" encoding="UTF-8"?>
<svg width="69px" height="104px" viewBox="0 0 69 104" version="1.1" xmlns="http://www.w3.org/2000/svg" xmlns:xlink="http://www.w3.org/1999/xlink">
    <!-- Generator: Sketch 46 (44423) - http://www.bohemiancoding.com/sketch -->
    <title>devices-40</title>
    <desc>Created with Sketch.</desc>
    <defs></defs>
    <g id="ALL" stroke="none" stroke-width="1" fill="none" fill-rule="evenodd" stroke-linecap="round" stroke-linejoin="round">
        <g id="Secondary" transform="translate(-6590.000000, -3815.000000)" stroke="#868E96" stroke-width="3.5">
            <g id="devices-40" transform="translate(6592.000000, 3817.000000)">
                <rect id="Layer-1" x="0" y="18" width="60" height="64" rx="8"></rect>
                <path d="M53,18 C53,18 46.6717129,16.5058594 45.9914038,12.3242188 C45.5182896,9.41613893 44.9212683,4.66625977 44.7033453,2.55395508 C44.4854224,0.441650391 42.6793405,0 41.7938916,0 L30,0 L18.2061084,0 C17.3206595,0 15.5145776,0.441650391 15.2966547,2.55395508 C15.0787317,4.66625977 14.4817104,9.41613893 14.0085962,12.3242188 C13.3282871,16.5058594 7,18 7,18 L53,18 Z" id="Layer-2"></path>
                <path d="M53,82 C53,82 46.6717129,83.4941406 45.9914038,87.6757812 C45.5182896,90.5838611 44.9212683,95.3337402 44.7033453,97.4460449 C44.4854224,99.5583496 42.6793405,100 41.7938916,100 L30,100 L18.2061084,100 C17.3206595,100 15.5145776,99.5583496 15.2966547,97.4460449 C15.0787317,95.3337402 14.4817104,90.5838611 14.0085962,87.6757812 C13.3282871,83.4941406 7,82 7,82 L53,82 Z" id="Layer-3"></path>
                <rect id="Layer-4" x="60" y="30" width="5" height="12"></rect>
            </g>
        </g>
    </g>
</svg>