<?xml version="1.0" encoding="UTF-8"?>
<svg width="104px" height="104px" viewBox="0 0 104 104" version="1.1" xmlns="http://www.w3.org/2000/svg" xmlns:xlink="http://www.w3.org/1999/xlink">
    <!-- Generator: Sketch 46 (44423) - http://www.bohemiancoding.com/sketch -->
    <title>e-commerce-36</title>
    <desc>Created with Sketch.</desc>
    <defs></defs>
    <g id="ALL" stroke="none" stroke-width="1" fill="none" fill-rule="evenodd" stroke-linecap="round" stroke-linejoin="round">
        <g id="Secondary" transform="translate(-6153.000000, -1972.000000)" stroke="#868E96" stroke-width="3.5">
            <g id="e-commerce-36" transform="translate(6155.000000, 1974.000000)">
                <path d="M80,55 L97.0071986,55 C98.6619875,55 100,53.6586014 100,52.0039024 L100,2.99609755 C100,1.34590009 98.6600772,9.94760432e-15 97.0071986,1.0658141e-14 L2.99280137,5.10728955e-14 C1.33801252,5.17842534e-14 0,1.34139856 0,2.99609755 L0,52.0039024 C0,53.6540999 1.33992281,55 2.99280137,55 L20,55 L20,20 L80,20 L80,55 L80,55 Z" id="Layer-1"></path>
                <path d="M80,35 L82.5097494,35 C86.6390176,35 90,31.6421356 90,27.5 C90,23.3662928 86.6465006,20 82.5097494,20 L17.4902506,20 C13.3609824,20 10,23.3578644 10,27.5 C10,31.6337072 13.3534994,35 17.4902506,35 L20,35 L20,20 L80,20 L80,35 L80,35 Z" id="Layer-2"></path>
                <path d="M10,10 L25,10" id="Layer-3"></path>
                <path d="M85,10 L90,10" id="Layer-4"></path>
                <path d="M20,20 L20,94.0033657 C20,97.3152154 22.6946371,100 26.0000383,100 L73.9999617,100 C77.3136914,100 80,97.3153812 80,94.0033657 L80,20 L20,20 L20,20 Z" id="Layer-5"></path>
                <path d="M44.245371,77 C45.3432817,78.3695979 46,80.1081066 46,82 C46,86.418278 42.418278,90 38,90 C33.581722,90 30,86.418278 30,82 C30,80.1081066 30.6567183,78.3695979 31.754629,77 C30.6567183,75.6304021 30,73.8918934 30,72 C30,67.581722 33.581722,64 38,64 C42.418278,64 46,67.581722 46,72 C46,73.8918934 45.3432817,75.6304021 44.245371,77 L44.245371,77 L44.245371,77 Z" id="Layer-6"></path>
                <path d="M57,20 L57,90" id="Layer-7"></path>
                <path d="M32,20 L32,28" id="Layer-8"></path>
                <path d="M32,37 L32,50" id="Layer-9"></path>
                <path d="M41,20 L41,50" id="Layer-10"></path>
                <path d="M68,20 L68,29" id="Layer-11"></path>
            </g>
        </g>
    </g>
</svg>