<?xml version="1.0" encoding="UTF-8"?>
<svg width="104px" height="104px" viewBox="0 0 104 104" version="1.1" xmlns="http://www.w3.org/2000/svg" xmlns:xlink="http://www.w3.org/1999/xlink">
    <!-- Generator: Sketch 46 (44423) - http://www.bohemiancoding.com/sketch -->
    <title>e-commerce-22</title>
    <desc>Created with Sketch.</desc>
    <defs></defs>
    <g id="ALL" stroke="none" stroke-width="1" fill="none" fill-rule="evenodd" stroke-linecap="round" stroke-linejoin="round">
        <g id="Secondary" transform="translate(-1936.000000, -1973.000000)" stroke="#868E96" stroke-width="3.5">
            <g id="e-commerce-22" transform="translate(1938.000000, 1974.000000)">
                <path d="M10,17 L97.3207377,17 C98.9805241,17 100.17221,18.3250651 99.9795757,19.9843135 L94.4010668,68.0345458 C94.0185688,71.3291752 91.0131413,74 87.714447,74 L16.7076399,74 L10,17 Z" id="Layer-1"></path>
                <rect id="Layer-2" x="20" y="6.33333333" width="20" height="10.6666667" rx="1"></rect>
                <rect id="Layer-3" x="40" y="1" width="50" height="16" rx="1"></rect>
                <polyline id="Layer-4" points="83.3920898 81 17.5581055 81 16.4350586 71.7973633"></polyline>
                <polyline id="Layer-5" points="10.0366209 18.3857422 8.57636302 7.12988281 0.0366209064 0.9453125"></polyline>
                <path d="M30,31 L80,31" id="Layer-6" stroke-dasharray="1,6"></path>
                <path d="M30,41 L80,41" id="Layer-7" stroke-dasharray="1,6"></path>
                <path d="M30,50 L80,50" id="Layer-8" stroke-dasharray="1,6"></path>
                <path d="M30,60 L80,60" id="Layer-9" stroke-dasharray="1,6"></path>
                <path d="M20,101 C25.5228475,101 30,96.5228475 30,91 C30,85.4771525 25.5228475,81 20,81 C14.4771525,81 10,85.4771525 10,91 C10,96.5228475 14.4771525,101 20,101 Z" id="Layer-10"></path>
                <path d="M20,94 C21.6568542,94 23,92.6568542 23,91 C23,89.3431458 21.6568542,88 20,88 C18.3431458,88 17,89.3431458 17,91 C17,92.6568542 18.3431458,94 20,94 Z" id="Layer-11"></path>
                <circle id="Layer-12" cx="83" cy="91" r="10"></circle>
                <path d="M83,94 C84.6568542,94 86,92.6568542 86,91 C86,89.3431458 84.6568542,88 83,88 C81.3431458,88 80,89.3431458 80,91 C80,92.6568542 81.3431458,94 83,94 Z" id="Layer-13"></path>
            </g>
        </g>
    </g>
</svg>