<?xml version="1.0" encoding="UTF-8"?>
<svg width="104px" height="104px" viewBox="0 0 104 104" version="1.1" xmlns="http://www.w3.org/2000/svg" xmlns:xlink="http://www.w3.org/1999/xlink">
    <!-- Generator: Sketch 46 (44423) - http://www.bohemiancoding.com/sketch -->
    <title>e-commerce-13</title>
    <desc>Created with Sketch.</desc>
    <defs></defs>
    <g id="ALL" stroke="none" stroke-width="1" fill="none" fill-rule="evenodd" stroke-linecap="round" stroke-linejoin="round">
        <g id="Secondary" transform="translate(-8792.000000, -1662.000000)" stroke="#868E96" stroke-width="3.5">
            <g id="e-commerce-13" transform="translate(8794.000000, 1664.000000)">
                <path d="M39.9286799,9.22822302 C40.3069284,4.06822947 44.5908156,0 49.8198041,0 C55.0148018,0 59.2769455,4.01551074 59.7030576,9.1277354 C59.8664303,9.16615668 60.0294389,9.20552936 60.1920773,9.24584732 C62.9246501,4.83391853 68.6300406,3.24451074 73.2628603,5.72107738 C77.836597,8.16606009 79.7270722,13.6984127 77.7442047,18.404613 C77.8692887,18.5136863 77.9937278,18.6234828 78.1175177,18.7339982 C82.5322633,16.1237012 88.2727178,17.3252953 91.2609257,21.6158583 C94.2532261,25.9122975 93.4065605,31.7566585 89.442941,35.0321778 C89.5042562,35.189348 89.5646684,35.346974 89.6241709,35.5050495 C94.7582346,35.2617148 99.2884188,39.0384811 99.9250536,44.2513513 C100.558969,49.441956 97.1045742,54.1899233 92.0992482,55.2300826 C92.0811898,55.3965509 92.0621763,55.5627308 92.0422135,55.7286166 C96.7263013,57.9198413 98.9876825,63.4165799 97.1082235,68.3390797 C95.2506927,73.2041472 90.0139867,75.7650111 85.1235947,74.3540529 C85.0304689,74.4926569 84.9365522,74.6306797 84.8418512,74.7681146 C87.945539,78.8548414 87.4556936,84.7205569 83.5883187,88.2214913 C79.7072037,91.7348639 73.8257571,91.5981522 70.1096605,88.0308449 C69.9624619,88.1107734 69.8147388,88.1898506 69.6664976,88.2680701 C70.5264253,93.358061 67.3508215,98.3331227 62.2854752,99.60285 C57.2327557,100.869412 52.1186468,97.9931368 50.4877003,93.1152637 C50.3335621,93.1169246 50.1792263,93.1177572 50.0246971,93.1177572 C50.0135217,93.1177572 50.0023473,93.1177528 49.9911738,93.1177441 C48.395629,98.0538724 43.2476151,100.976305 38.1617975,99.7014459 C33.1296954,98.4400519 29.9626123,93.5218006 30.7643646,88.466868 C30.6152676,88.3901335 30.4666828,88.312536 30.3186168,88.2340819 C26.606873,91.8694221 20.674135,92.0308902 16.7678049,88.4946917 C12.9257216,85.0166525 12.4171359,79.204661 15.4538415,75.1217204 C15.3578099,74.9853235 15.2625569,74.8483333 15.1680888,74.7107565 C10.2501303,76.1839994 4.95629797,73.6215389 3.0864829,68.7242978 C1.2193085,63.8339727 3.43901998,58.3768911 8.06095451,56.1572245 C8.03930308,55.9914287 8.01860097,55.8253325 7.99885385,55.6589414 C2.94064525,54.6608053 -0.563102414,49.8847859 0.0749463731,44.6603381 C0.707419561,39.4815443 5.18270442,35.7201403 10.2752225,35.9097822 C10.3331219,35.7510828 10.3919333,35.59283 10.4516518,35.4350268 C6.4212608,32.1720529 5.54385891,26.2793927 8.55568352,21.95492 C11.5243298,17.6924442 17.2093068,16.4786272 21.612222,19.0222867 C21.7348731,18.9105434 21.8581788,18.7995131 21.9821327,18.6892025 C19.9346227,13.9630786 21.8197454,8.37366802 26.4236864,5.91253903 C31.0263134,3.45211251 36.6875765,5.00483609 39.4406661,9.35140953 C39.6029626,9.30940183 39.7656359,9.26833761 39.9286799,9.22822302 L39.9286799,9.22822302 Z" id="Layer-1"></path>
                <circle id="Layer-2" cx="37.5" cy="37.5" r="7.5"></circle>
                <circle id="Layer-3" cx="62.5" cy="62.5" r="7.5"></circle>
                <path d="M69.5,30.5 L30.5,69.5" id="Layer-4"></path>
            </g>
        </g>
    </g>
</svg>