<?xml version="1.0" encoding="UTF-8"?>
<svg width="102px" height="113px" viewBox="0 0 102 113" version="1.1" xmlns="http://www.w3.org/2000/svg" xmlns:xlink="http://www.w3.org/1999/xlink">
    <!-- Generator: Sketch 46 (44423) - http://www.bohemiancoding.com/sketch -->
    <title>e-commerce-20</title>
    <desc>Created with Sketch.</desc>
    <defs></defs>
    <g id="ALL" stroke="none" stroke-width="1" fill="none" fill-rule="evenodd" stroke-linecap="round" stroke-linejoin="round">
        <g id="Secondary" transform="translate(-1336.000000, -1972.000000)" stroke="#868E96" stroke-width="3.5">
            <g id="e-commerce-20" transform="translate(1338.000000, 1974.000000)">
                <path d="M49.0196078,109.039216 C76.0923897,109.039216 98.0392157,87.0923897 98.0392157,60.0196078 C98.0392157,32.946826 76.0923897,11 49.0196078,11 C21.946826,11 0,32.946826 0,60.0196078 C0,87.0923897 21.946826,109.039216 49.0196078,109.039216 Z" id="Layer-1"></path>
                <path d="M49,11 L49,19" id="Layer-2"></path>
                <path d="M49,100.215686 L49,108.215686" id="Layer-3"></path>
                <path d="M90,59.9607843 L98,59.9607843" id="Layer-4"></path>
                <path d="M0,59.9607843 L8,59.9607843" id="Layer-5"></path>
                <circle id="Layer-6" cx="49" cy="5" r="5"></circle>
                <polyline id="Layer-7" points="69.0666663 74 69.0666667 64.8444444 69.0666667 64.8444444 69.0666667 44 68.3111111 44 52 65.0666667 52 65.7777778 73.1808268 65.7777782"></polyline>
                <path d="M47.034375,74 L27.1756955,74 L37.0146413,64.5124451 C42.1976574,59.5490483 44.8330893,56.1229868 44.8330893,52.2576867 C44.8330893,47.7335286 42.0219619,44 36.3557833,44 C31.3923865,44 27.6149341,47.5578331 27.0439239,53.0483163 L27,53.4875549" id="Layer-8"></path>
            </g>
        </g>
    </g>
</svg>