<?xml version="1.0" encoding="UTF-8"?>
<svg width="114px" height="84px" viewBox="0 0 114 84" version="1.1" xmlns="http://www.w3.org/2000/svg" xmlns:xlink="http://www.w3.org/1999/xlink">
    <!-- Generator: Sketch 46 (44423) - http://www.bohemiancoding.com/sketch -->
    <title>e-commerce-12</title>
    <desc>Created with Sketch.</desc>
    <defs></defs>
    <g id="ALL" stroke="none" stroke-width="1" fill="none" fill-rule="evenodd" stroke-linecap="round" stroke-linejoin="round">
        <g id="Secondary" transform="translate(-8482.000000, -1662.000000)" stroke="#868E96" stroke-width="3.5">
            <g id="e-commerce-12" transform="translate(8484.000000, 1664.000000)">
                <path d="M100,10 L100,5.99842118 C100,2.67986017 97.3168135,0 94.0069352,0 L5.99306484,0 C2.68768095,0 0,2.68558464 0,5.99842118 L0,64.0015788 C0,67.3201398 2.68318653,70 5.99306484,70 L10,70 L10,15.9984212 C10,12.6855846 12.687681,10 15.9930648,10 L100,10 L100,10 Z" id="Layer-1"></path>
                <rect id="Layer-2" x="10" y="10" width="100" height="70" rx="6"></rect>
                <path d="M83.5,52.1932863 C85.2383358,50.8208979 87.4449045,50 89.8461538,50 C95.4539682,50 100,54.4771525 100,60 C100,65.5228475 95.4539682,70 89.8461538,70 C87.4449045,70 85.2383358,69.1791021 83.5,67.8067137 C81.7616642,69.1791021 79.5550955,70 77.1538462,70 C71.5460318,70 67,65.5228475 67,60 C67,54.4771525 71.5460318,50 77.1538462,50 C79.5550955,50 81.7616642,50.8208979 83.5,52.1932863 L83.5,52.1932863 Z" id="Layer-3"></path>
                <path d="M20,38 L100,38" id="Layer-4" stroke-dasharray="1,6"></path>
                <path d="M20,68 L32,68" id="Layer-5"></path>
                <path d="M38,68 L50,68" id="Layer-6"></path>
                <path d="M20,58 L50,58" id="Layer-7"></path>
                <path d="M20,22 L29,22" id="Layer-8"></path>
            </g>
        </g>
    </g>
</svg>