<?xml version="1.0" encoding="UTF-8"?>
<svg width="104px" height="104px" viewBox="0 0 104 104" version="1.1" xmlns="http://www.w3.org/2000/svg" xmlns:xlink="http://www.w3.org/1999/xlink">
    <!-- Generator: Sketch 46 (44423) - http://www.bohemiancoding.com/sketch -->
    <title>e-commerce-35</title>
    <desc>Created with Sketch.</desc>
    <defs></defs>
    <g id="ALL" stroke="none" stroke-width="1" fill="none" fill-rule="evenodd" stroke-linecap="round" stroke-linejoin="round">
        <g id="Secondary" transform="translate(-5853.000000, -1972.000000)" stroke="#868E96" stroke-width="3.5">
            <g id="e-commerce-35" transform="translate(5855.000000, 1974.000000)">
                <path d="M80,55 L97.0071986,55 C98.6619875,55 100,53.6586014 100,52.0039024 L100,2.99609755 C100,1.34590009 98.6600772,9.94760432e-15 97.0071986,1.0658141e-14 L2.99280137,5.10728955e-14 C1.33801252,5.17842534e-14 0,1.34139856 0,2.99609755 L0,52.0039024 C0,53.6540999 1.33992281,55 2.99280137,55 L20,55 L20,20 L80,20 L80,55 L80,55 Z" id="Layer-1"></path>
                <path d="M80,35 L82.5097494,35 C86.6390176,35 90,31.6421356 90,27.5 C90,23.3662928 86.6465006,20 82.5097494,20 L17.4902506,20 C13.3609824,20 10,23.3578644 10,27.5 C10,31.6337072 13.3534994,35 17.4902506,35 L20,35 L20,20 L80,20 L80,35 L80,35 Z" id="Layer-2"></path>
                <path d="M10,10 L25,10" id="Layer-3"></path>
                <path d="M85,10 L90,10" id="Layer-4"></path>
                <polygon id="Layer-5" points="80 20 80 100 20 100 20 20"></polygon>
                <path d="M30,80 L30,20.1728516 L70,20.1728516 L70,80 C64.4771525,80 60,84.4771525 60,90 L40,90 C40,84.4771525 35.5228475,80 30,80 L30,80 L30,80 Z" id="Layer-6"></path>
                <path d="M30,50 C30,58.2842712 38.954305,65 50,65 C61.045695,65 70,58.2842712 70,50 C70,41.7157288 61.045695,35 50,35 C38.954305,35 30,41.7157288 30,50 L30,50 Z" id="Layer-7"></path>
                <path d="M47,25 C47,26.6568542 48.3431458,28 50,28 C51.6568542,28 53,26.6568542 53,25 C53,23.3431458 51.6568542,22 50,22 C48.3431458,22 47,23.3431458 47,25 L47,25 Z" id="Layer-8"></path>
                <path d="M47,75 C47,76.6568542 48.3431458,78 50,78 C51.6568542,78 53,76.6568542 53,75 C53,73.3431458 51.6568542,72 50,72 C48.3431458,72 47,73.3431458 47,75 L47,75 Z" id="Layer-9"></path>
            </g>
        </g>
    </g>
</svg>