<?xml version="1.0" encoding="UTF-8"?>
<svg width="104px" height="114px" viewBox="0 0 104 114" version="1.1" xmlns="http://www.w3.org/2000/svg" xmlns:xlink="http://www.w3.org/1999/xlink">
    <!-- Generator: Sketch 46 (44423) - http://www.bohemiancoding.com/sketch -->
    <title>e-commerce-25</title>
    <desc>Created with Sketch.</desc>
    <defs></defs>
    <g id="ALL" stroke="none" stroke-width="1" fill="none" fill-rule="evenodd" stroke-linecap="round" stroke-linejoin="round">
        <g id="Secondary" transform="translate(-2839.000000, -1972.000000)" stroke="#868E96" stroke-width="3.5">
            <g id="e-commerce-25" transform="translate(2841.000000, 1974.000000)">
                <path d="M30.0196345,26 L10,26 L16.7076399,83 L87.714447,83 C91.0131413,83 94.0185688,80.3291752 94.4010668,77.0345458 L99.9795757,28.9843135 C100.17221,27.3250651 98.9805241,26 97.3207377,26 L79.9803655,26 C79.4554575,39.3435373 68.4722038,50 55,50 C41.5277962,50 30.5445425,39.3435373 30.0196348,26.0000077 L30.0196345,26 Z" id="Layer-1"></path>
                <polyline id="Layer-2" points="83.3920898 90 17.5581055 90 16.4350586 80.7973633"></polyline>
                <polyline id="Layer-3" points="10.0366209 27.3857422 8.57636302 16.1298828 0.0366209064 9.9453125"></polyline>
                <path d="M30,50 L80,50" id="Layer-4" stroke-dasharray="1,6"></path>
                <path d="M30,59 L80,59" id="Layer-5" stroke-dasharray="1,6"></path>
                <path d="M30,69 L80,69" id="Layer-6" stroke-dasharray="1,6"></path>
                <path d="M20,110 C25.5228475,110 30,105.522847 30,100 C30,94.4771525 25.5228475,90 20,90 C14.4771525,90 10,94.4771525 10,100 C10,105.522847 14.4771525,110 20,110 Z" id="Layer-7"></path>
                <path d="M20,103 C21.6568542,103 23,101.656854 23,100 C23,98.3431458 21.6568542,97 20,97 C18.3431458,97 17,98.3431458 17,100 C17,101.656854 18.3431458,103 20,103 Z" id="Layer-8"></path>
                <circle id="Layer-9" cx="83" cy="100" r="10"></circle>
                <path d="M83,103 C84.6568542,103 86,101.656854 86,100 C86,98.3431458 84.6568542,97 83,97 C81.3431458,97 80,98.3431458 80,100 C80,101.656854 81.3431458,103 83,103 Z" id="Layer-10"></path>
                <circle id="Layer-11" cx="55" cy="25" r="25"></circle>
                <polyline id="Layer-12" points="44 26 55 37 66 26"></polyline>
                <path d="M55,35 L55,13.4941868" id="Layer-13"></path>
            </g>
        </g>
    </g>
</svg>