<?xml version="1.0" encoding="UTF-8"?>
<svg width="104px" height="104px" viewBox="0 0 104 104" version="1.1" xmlns="http://www.w3.org/2000/svg" xmlns:xlink="http://www.w3.org/1999/xlink">
    <!-- Generator: Sketch 46 (44423) - http://www.bohemiancoding.com/sketch -->
    <title>e-commerce-41</title>
    <desc>Created with Sketch.</desc>
    <defs></defs>
    <g id="ALL" stroke="none" stroke-width="1" fill="none" fill-rule="evenodd" stroke-linecap="round" stroke-linejoin="round">
        <g id="Secondary" transform="translate(-7661.000000, -1972.000000)" stroke="#868E96" stroke-width="3.5">
            <g id="e-commerce-41" transform="translate(7663.000000, 1974.000000)">
                <path d="M100,100 L-2.84217094e-14,100 L3.41788952,10 L96.5821105,10 L100,100 L100,100 L100,100 L100,100 L100,100 L100,100 Z M65,30 C67.7614237,30 70,27.7614237 70,25 C70,22.2385763 67.7614237,20 65,20 C62.2385763,20 60,22.2385763 60,25 C60,27.7614237 62.2385763,30 65,30 L65,30 L65,30 L65,30 L65,30 L65,30 Z M35,30 C37.7614237,30 40,27.7614237 40,25 C40,22.2385763 37.7614237,20 35,20 C32.2385763,20 30,22.2385763 30,25 C30,27.7614237 32.2385763,30 35,30 L35,30 L35,30 L35,30 L35,30 L35,30 Z" id="Layer-1"></path>
                <polygon id="Layer-2" points="97 10 3 10 11.5215089 0 88.4784911 0"></polygon>
                <path d="M65,30 L65,45 C65,53.2842712 58.2860927,60 50,60 L50,60 C41.7157288,60 35,53.2860927 35,45 L35,30 L35,30" id="Layer-3"></path>
            </g>
        </g>
    </g>
</svg>