<?xml version="1.0" encoding="UTF-8"?>
<svg width="104px" height="104px" viewBox="0 0 104 104" version="1.1" xmlns="http://www.w3.org/2000/svg" xmlns:xlink="http://www.w3.org/1999/xlink">
    <!-- Generator: Sketch 46 (44423) - http://www.bohemiancoding.com/sketch -->
    <title>e-commerce-46</title>
    <desc>Created with Sketch.</desc>
    <defs></defs>
    <g id="ALL" stroke="none" stroke-width="1" fill="none" fill-rule="evenodd" stroke-linecap="round" stroke-linejoin="round">
        <g id="Secondary" transform="translate(-9201.000000, -1972.000000)" stroke="#868E96" stroke-width="3.5">
            <g id="e-commerce-46" transform="translate(9203.000000, 1974.000000)">
                <path d="M100,40 L100,9.9926892 C100,4.4806999 95.5228475,0 90,0 C84.4759382,0 80,4.47387935 80,9.9926892 L80,40 L100,40 L100,40 Z" id="Layer-1"></path>
                <path d="M91.5032112,0 L9.99677052,0 C4.48558331,0 0,4.47718108 0,10.0000638 L0,100 L10.0163574,90.0191877 L20.0400391,100 L30.0554199,90.0191877 L40.0144043,100 L50.0490723,90.0191877 L60.045166,100 L70.1040039,90.0191877 L79.9106445,100 L80,100 L80,9.9931138 C80,4.47406944 84.469499,0 90.0064223,0 L91.5032112,0 L91.5032112,0 Z" id="Layer-2"></path>
                <path d="M10,20 L37,20" id="Layer-3"></path>
                <path d="M62,40 L70,40" id="Layer-4"></path>
                <path d="M62,50 L70,50" id="Layer-5"></path>
                <path d="M62,60 L70,60" id="Layer-6"></path>
                <path d="M62,70 L70,70" id="Layer-7"></path>
                <path d="M10,40 L37,40" id="Layer-8"></path>
                <path d="M10,50 L32,50" id="Layer-9"></path>
                <path d="M10,60 L37,60" id="Layer-10"></path>
                <path d="M10,70 L32,70" id="Layer-11"></path>
            </g>
        </g>
    </g>
</svg>