<?xml version="1.0" encoding="UTF-8"?>
<svg width="104px" height="114px" viewBox="0 0 104 114" version="1.1" xmlns="http://www.w3.org/2000/svg" xmlns:xlink="http://www.w3.org/1999/xlink">
    <!-- Generator: Sketch 46 (44423) - http://www.bohemiancoding.com/sketch -->
    <title>e-commerce-6</title>
    <desc>Created with Sketch.</desc>
    <defs></defs>
    <g id="ALL" stroke="none" stroke-width="1" fill="none" fill-rule="evenodd" stroke-linecap="round" stroke-linejoin="round">
        <g id="Secondary" transform="translate(-6682.000000, -1662.000000)" stroke="#868E96" stroke-width="3.5">
            <g id="e-commerce-6" transform="translate(6684.000000, 1664.000000)">
                <path d="M0,30 L70,30 L70,4.38626541 C70,1.0889465 68.1217694,-0.741386332 65.8048546,0.285398485 L0,29.4480699" id="Layer-1"></path>
                <path d="M54.9981691,100 L0,100 L0,30 L86.0020607,30 C88.2100616,30 90,31.800691 90,34.0021821 L90,64.9981691 C85.8216973,61.8597241 80.6280296,60 75,60 C61.1928813,60 50,71.1928813 50,85 C50,90.6280296 51.8597241,95.8216973 54.9981691,100 L54.9981691,100 Z" id="Layer-2"></path>
                <path d="M50.5024757,90 L0.502475739,90" id="Layer-3" stroke-dasharray="1,6"></path>
                <path d="M0,40 L90,40" id="Layer-4" stroke-dasharray="1,6"></path>
                <circle id="Layer-5" cx="75" cy="85" r="25"></circle>
                <path d="M89,85 L62,85" id="Layer-6"></path>
            </g>
        </g>
    </g>
</svg>