<?xml version="1.0" encoding="UTF-8"?>
<svg width="124px" height="114px" viewBox="0 0 124 114" version="1.1" xmlns="http://www.w3.org/2000/svg" xmlns:xlink="http://www.w3.org/1999/xlink">
    <!-- Generator: Sketch 46 (44423) - http://www.bohemiancoding.com/sketch -->
    <title>e-commerce-47</title>
    <desc>Created with Sketch.</desc>
    <defs></defs>
    <g id="ALL" stroke="none" stroke-width="1" fill="none" fill-rule="evenodd" stroke-linecap="round" stroke-linejoin="round">
        <g id="Secondary" transform="translate(-9501.000000, -1972.000000)" stroke="#868E96" stroke-width="3.5">
            <g id="e-commerce-47" transform="translate(9503.000000, 1974.000000)">
                <path d="M49.4999094,20 L74.0015788,20 C77.3144154,20 80,22.6946371 80,26.0000383 L80,80 L10,80 L10,45.0018309 C14.1783027,48.1402759 19.3719704,50 25,50 C38.8071187,50 50,38.8071187 50,25 C50,23.2876708 49.8278487,21.6155497 49.4999094,20 L49.4999094,20 Z" id="Layer-1"></path>
                <path d="M110,100 L116.993499,100 C118.657691,100 120,98.6609946 120,97.0092478 L120,77.9907522 C120,76.3441086 119.155648,73.957052 118.114087,72.6705105 L101.646363,52.3294895 C100.604351,51.0423902 98.4167731,50 96.7592633,50 L80,50 L80,100 L90,100 C90,94.4771525 94.4771525,90 100,90 C105.522847,90 110,94.4771525 110,100 L110,100 Z" id="Layer-2"></path>
                <path d="M90,63.0056033 C90,61.3456544 91.3500634,60 93.0016477,60 L107.577148,60 L120,74.8652344 L120,77.9570312 L93.0000191,77.9570312 C91.3431543,77.9570312 90,76.6073354 90,74.951428 L90,63.0056033 Z" id="Layer-3"></path>
                <path d="M21,100 L15.9984212,100 C12.6798602,100 10,97.3134132 10,93.9993405 L10,80 L80,80 L80,100 L41,100 C41,94.4771525 36.5228475,90 31,90 C25.4771525,90 21,94.4771525 21,100 L21,100 Z" id="Layer-4"></path>
                <circle id="Layer-5" cx="31" cy="100" r="10"></circle>
                <circle id="Layer-6" cx="100" cy="100" r="10"></circle>
                <path d="M25,50 C38.8071187,50 50,38.8071187 50,25 C50,11.1928813 38.8071187,0 25,0 C11.1928813,0 0,11.1928813 0,25 C0,38.8071187 11.1928813,50 25,50 Z" id="Layer-7"></path>
                <polyline id="Layer-8" points="25 10 25 25 40 25"></polyline>
            </g>
        </g>
    </g>
</svg>