<?xml version="1.0" encoding="UTF-8"?>
<svg width="112px" height="84px" viewBox="0 0 112 84" version="1.1" xmlns="http://www.w3.org/2000/svg" xmlns:xlink="http://www.w3.org/1999/xlink">
    <!-- Generator: Sketch 46 (44423) - http://www.bohemiancoding.com/sketch -->
    <title>e-commerce-38</title>
    <desc>Created with Sketch.</desc>
    <defs></defs>
    <g id="ALL" stroke="none" stroke-width="1" fill="none" fill-rule="evenodd" stroke-linecap="round" stroke-linejoin="round">
        <g id="Secondary" transform="translate(-6753.000000, -1972.000000)" stroke="#868E96" stroke-width="3.5">
            <g id="e-commerce-38" transform="translate(6755.000000, 1974.000000)">
                <path d="M8,43.0504956 L8,74.0033657 C8,77.3153812 10.6831865,80 13.9930648,80 L102.006935,80 C105.312319,80 108,77.3152154 108,74.0033657 L108,5.99663433 C108,2.68461881 105.316813,0 102.006935,0 L13.9930648,0 C10.687681,0 8,2.68478464 8,5.99663433 L8,15.949505 C12.2513087,16.3097759 17.4325345,19.9225515 21.4443435,23.326828 L21.4443435,23.326828 C19.7289521,25.0217378 18.6666667,27.3712012 18.6666667,29.9677419 C18.6666667,32.3068181 19.528731,34.4453864 20.9537335,36.0855568 C17.0164196,39.3633685 12.0799734,42.7047441 8,43.0504956 L8,43.0504956 Z" id="Layer-1"></path>
                <path d="M68,68 L81,68" id="Layer-2"></path>
                <path d="M68,58 L98,58" id="Layer-3"></path>
                <path d="M56.4975493,30 L107.505051,30" id="Layer-4"></path>
                <path d="M28,20.6518764 L28,0" id="Layer-5"></path>
                <path d="M28,79.5284691 L28,40" id="Layer-6"></path>
                <path d="M21.3300857,23.4066892 C13.1161468,16.436637 1.00976649e-09,8.59255398 0,29.5798617 C-9.89984983e-10,50.1540556 12.6048728,43.0207207 20.8394757,36.1654181 C19.4144731,34.5252477 18.5524089,32.3866794 18.5524089,30.0476032 C18.5524089,27.4510625 19.6146942,25.1015991 21.3300857,23.4066892 L21.3300857,23.4066892 Z" id="Layer-7"></path>
                <path d="M35,23.2758165 C43.2228022,16.339647 56.1753986,8.72381394 56.1753986,29.5798617 C56.1753986,50.0890219 43.6500863,43.0655398 35.4141405,36.230433 C36.915652,34.5722928 37.829705,32.3763173 37.829705,29.9677419 C37.829705,27.34505 36.7459142,24.9744374 35,23.2758165 L35,23.2758165 Z" id="Layer-8"></path>
                <path d="M8,30 L18.6481712,30" id="Layer-9"></path>
                <path d="M38,30 L48.6481712,30" id="Layer-10"></path>
                <ellipse id="Layer-11" cx="28.0606061" cy="29.9677419" rx="9.39393939" ry="9.35483871"></ellipse>
            </g>
        </g>
    </g>
</svg>