<?xml version="1.0" encoding="UTF-8"?>
<svg width="104px" height="104px" viewBox="0 0 104 104" version="1.1" xmlns="http://www.w3.org/2000/svg" xmlns:xlink="http://www.w3.org/1999/xlink">
    <!-- Generator: Sketch 46 (44423) - http://www.bohemiancoding.com/sketch -->
    <title>e-commerce-9</title>
    <desc>Created with Sketch.</desc>
    <defs></defs>
    <g id="ALL" stroke="none" stroke-width="1" fill="none" fill-rule="evenodd" stroke-linecap="round" stroke-linejoin="round">
        <g id="Secondary" transform="translate(-7582.000000, -1662.000000)" stroke="#868E96" stroke-width="3.5">
            <g id="e-commerce-9" transform="translate(7584.000000, 1664.000000)">
                <path d="M90,40 L90,6.0000383 C90,2.69463714 87.3093059,0 83.9901666,0 L6.0098334,0 C2.69352123,0 0,2.68630865 0,6.0000383 L0,53.9999617 C0,57.3053629 2.69069406,60 6.0098334,60 L10,60 L10,46.0000383 C10,42.6863086 12.6935212,40 16.0098334,40 L90,40 L90,40 Z" id="Layer-1"></path>
                <rect id="Layer-2" x="10" y="40" width="90" height="60" rx="6"></rect>
                <path d="M77,75.754629 C78.3695979,74.6567183 80.1081066,74 82,74 C86.418278,74 90,77.581722 90,82 C90,86.418278 86.418278,90 82,90 C80.1081066,90 78.3695979,89.3432817 77,88.245371 C75.6304021,89.3432817 73.8918934,90 72,90 C67.581722,90 64,86.418278 64,82 C64,77.581722 67.581722,74 72,74 C73.8918934,74 75.6304021,74.6567183 77,75.754629 L77,75.754629 Z" id="Layer-3"></path>
                <path d="M20,63 L93,63" id="Layer-4" stroke-dasharray="1,6"></path>
                <path d="M20,88 L32,88" id="Layer-5"></path>
                <path d="M38,88 L50,88" id="Layer-6"></path>
                <path d="M20,79 L50,79" id="Layer-7"></path>
                <path d="M20,52 L29,52" id="Layer-8"></path>
                <rect id="Layer-9" x="0" y="14" width="90" height="12"></rect>
            </g>
        </g>
    </g>
</svg>