<?xml version="1.0" encoding="UTF-8"?>
<svg width="104px" height="114px" viewBox="0 0 104 114" version="1.1" xmlns="http://www.w3.org/2000/svg" xmlns:xlink="http://www.w3.org/1999/xlink">
    <!-- Generator: Sketch 46 (44423) - http://www.bohemiancoding.com/sketch -->
    <title>e-commerce-1</title>
    <desc>Created with Sketch.</desc>
    <defs></defs>
    <g id="ALL" stroke="none" stroke-width="1" fill="none" fill-rule="evenodd" stroke-linecap="round" stroke-linejoin="round">
        <g id="Secondary" transform="translate(-5187.000000, -1662.000000)" stroke="#868E96" stroke-width="3.5">
            <g id="e-commerce-1" transform="translate(5189.000000, 1664.000000)">
                <path d="M95,87.1428571 L95,35.0005729 C95,32.2425087 92.7617514,30 90.0007318,30 L9.99926819,30 C7.24718554,30 5,32.2388327 5,35.0005729 L5,87.1428571 L95,87.1428571 L95,87.1428571 Z" id="Layer-1"></path>
                <rect id="Layer-2" x="0" y="87" width="100" height="22.8571429" rx="5"></rect>
                <rect id="Layer-3" x="55" y="0" width="30" height="20" rx="3"></rect>
                <path d="M70,20.5 L70,29.5553856" id="Layer-4"></path>
                <rect id="Layer-5" x="15" y="41" width="15" height="15"></rect>
                <rect id="Layer-6" x="15" y="56" width="15" height="15"></rect>
                <rect id="Layer-7" x="30" y="41" width="15" height="15"></rect>
                <rect id="Layer-8" x="30" y="56" width="15" height="15"></rect>
                <rect id="Layer-9" x="55" y="41" width="30" height="15"></rect>
                <circle id="Layer-10" cx="50" cy="98" r="4"></circle>
            </g>
        </g>
    </g>
</svg>