<?xml version="1.0" encoding="UTF-8"?>
<svg width="16px" height="16px" viewBox="0 0 16 16" version="1.1" xmlns="http://www.w3.org/2000/svg" xmlns:xlink="http://www.w3.org/1999/xlink">
    <!-- Generator: Sketch 46.2 (44496) - http://www.bohemiancoding.com/sketch -->
    <title>Combined-Shape</title>
    <desc>Created with Sketch.</desc>
    <defs></defs>
    <g id="Page-1" stroke="none" stroke-width="1" fill="none" fill-rule="evenodd">
        <g id="logo-black" fill-rule="nonzero" fill="#000000">
            <path d="M3.92888449,5.85259961 L3.92888449,5.85259961 L9.99312243,1.76357314 C9.99312243,1.76357314 9.89201065,2.4656127 9.73301446,3.47612034 L15.5635774,0 L12.3607978,5.65497782 C13.446124,5.50895455 14.2137328,5.41738627 14.2137328,5.41738627 L9.35739261,12.2404337 C8.81335073,13.1538127 8.34170803,13.8520004 8.00327603,14.1904324 C7.96741197,14.2262966 7.93111139,14.261458 7.89439145,14.2959171 L7.88510637,14.3089624 C7.88510637,14.3089624 7.88422488,14.3083195 7.88248855,14.3070488 C6.04410714,16.0204303 3.1642706,15.9815582 1.37314489,14.1904324 C-0.457715259,12.3595723 -0.457715259,9.39116149 1.37314489,7.56030135 C1.78300737,7.1504389 2.7205141,6.54519978 3.92888449,5.85259961 Z M4.70288069,13.8515841 C6.35470218,13.8515841 7.69376806,12.5125181 7.69376806,10.8606967 C7.69376806,9.2088752 6.35470218,7.86980932 4.70288069,7.86980932 C3.0510592,7.86980932 1.71199331,9.2088752 1.71199331,10.8606967 C1.71199331,12.5125181 3.0510592,13.8515841 4.70288069,13.8515841 Z" id="Combined-Shape" transform="translate(7.781789, 7.781789) scale(-1, 1) translate(-7.781789, -7.781789) "></path>
        </g>
    </g>
</svg>