<?xml version="1.0" encoding="UTF-8"?>
<svg width="94px" height="114px" viewBox="0 0 94 114" version="1.1" xmlns="http://www.w3.org/2000/svg" xmlns:xlink="http://www.w3.org/1999/xlink">
    <!-- Generator: Sketch 46 (44423) - http://www.bohemiancoding.com/sketch -->
    <title>files-2</title>
    <desc>Created with Sketch.</desc>
    <defs></defs>
    <g id="ALL" stroke="none" stroke-width="1" fill="none" fill-rule="evenodd" stroke-linecap="round" stroke-linejoin="round">
        <g id="Secondary" transform="translate(-3620.000000, -8712.000000)" stroke="#868E96" stroke-width="3.5">
            <g id="files-2" transform="translate(3622.000000, 8714.000000)">
                <path d="M44.9981691,100 L2.70108432e-07,100 L0,0 L59.7695312,0 L60,0.23014612 L60,0.23014612 L60,20 L79.7975682,20 L80,20.2021484 L80,64.9981691 C75.8216973,61.8597241 70.6280296,60 65,60 C51.1928813,60 40,71.1928813 40,85 C40,90.6280296 41.8597241,95.8216973 44.9981691,100 L44.9981691,100 Z" id="Layer-1"></path>
                <circle id="Layer-2" cx="65" cy="85" r="25"></circle>
                <polygon id="Layer-3" points="60 0 80 20 60 20"></polygon>
                <path d="M65.5,71.5 L65.5,98.5" id="Layer-4"></path>
                <path d="M79,85 L52,85" id="Layer-5"></path>
            </g>
        </g>
    </g>
</svg>