<?xml version="1.0" encoding="UTF-8"?>
<svg width="104px" height="94px" viewBox="0 0 104 94" version="1.1" xmlns="http://www.w3.org/2000/svg" xmlns:xlink="http://www.w3.org/1999/xlink">
    <!-- Generator: Sketch 46 (44423) - http://www.bohemiancoding.com/sketch -->
    <title>files-43</title>
    <desc>Created with Sketch.</desc>
    <defs></defs>
    <g id="ALL" stroke="none" stroke-width="1" fill="none" fill-rule="evenodd" stroke-linecap="round" stroke-linejoin="round">
        <g id="Secondary" transform="translate(-6539.000000, -9023.000000)" stroke="#868E96" stroke-width="3.5">
            <g id="files-43" transform="translate(6541.000000, 9025.000000)">
                <path d="M0.152597605,86.1596064 L9.4005955,45.5316162 C10.1556935,41.6461182 12.9154933,40 15.6851787,40 L90,40 L90,40 L90,40 L90,12.9900874 C90,11.3383447 88.6593341,10 87.0055389,10 L30,10 L26.2273507,2.66668016 C25.4658163,1.18640065 23.5131511,0 21.8573185,0 L2.99815028,0 C1.33633795,0 0,1.34329338 0,3.00032973 L0,10 L0,87.0099126" id="Layer-1"></path>
                <path d="M96.1217826,40 C98.9004621,40 100.566102,42.1987915 99.8229746,46.1691284 L90.6516901,86.1596064 C90.1691635,88.2805972 87.5164395,90 84.746754,90 L4.23358794,90 C1.45490842,90 -0.406102165,88.2788868 0.0760353348,86.1596064 L9.32403323,45.5316162 C10.0791312,41.6461182 12.838931,40 15.6086165,40 L96.1217826,40 Z" id="Layer-2"></path>
            </g>
        </g>
    </g>
</svg>