<?xml version="1.0" encoding="UTF-8"?>
<svg width="114px" height="104px" viewBox="0 0 114 104" version="1.1" xmlns="http://www.w3.org/2000/svg" xmlns:xlink="http://www.w3.org/1999/xlink">
    <!-- Generator: Sketch 46 (44423) - http://www.bohemiancoding.com/sketch -->
    <title>files-19</title>
    <desc>Created with Sketch.</desc>
    <defs></defs>
    <g id="ALL" stroke="none" stroke-width="1" fill="none" fill-rule="evenodd" stroke-linecap="round" stroke-linejoin="round">
        <g id="Secondary" transform="translate(-8701.000000, -8712.000000)" stroke="#868E96" stroke-width="3.5">
            <g id="files-19" transform="translate(8703.000000, 8714.000000)">
                <path d="M100,63.8161888 L100,4.99926819 C100,2.24718554 97.7644552,0 95.0067709,0 L4.99322906,0 C2.22884957,0 0,2.23824861 0,4.99926819 L0,85.0007318 C0,87.7528145 2.2355448,90 4.99322906,90 L50.412154,90 C50.1430416,88.9471494 50,87.844074 50,86.7076923 C50,85.4208999 50.1834132,84.1768142 50.5255991,83 L7,83 L7,7 L93,7 L93,58.9850433 C95.738194,59.9718408 98.142924,61.6533996 100,63.8161888 L100,63.8161888 Z" id="Layer-1"></path>
                <path d="M93,58.9850433 L93,51.6435446 L61.2530189,18 L20,55.3529134 L46.0885571,83 L50.5255991,83 C51.6762572,79.0427619 54.6222442,75.8461998 58.4266343,74.3443566 L58.4266343,74.3443566 C58.2028522,73.5326676 58.0833333,72.6779407 58.0833333,71.7953846 C58.0833333,66.496 62.3925926,62.2 67.7083333,62.2 C70.1377693,62.2 72.356978,63.0973205 74.0506736,64.577646 C77.094384,60.5809361 81.9115234,58 87.3333333,58 C89.3228954,58 91.2310349,58.3475391 93,58.9850433 L93,58.9850433 Z" id="Layer-2"></path>
                <polygon id="Layer-3" points="46.1888545 83 7 42 7.00000089 82.9999997"></polygon>
                <path d="M25.45,32.0285714 C21.8877634,32.0285714 19,29.1120264 19,25.5142857 C19,21.9165451 21.8877634,19 25.45,19 C29.0122366,19 31.9,21.9165451 31.9,25.5142857 C31.9,29.1120264 29.0122366,32.0285714 25.45,32.0285714 L25.45,32.0285714 Z" id="Layer-4"></path>
                <path d="M58.4266343,74.3443566 C53.4908844,76.292822 50,81.0938416 50,86.7076923 C50,93.8259691 55.6125923,99.6373883 62.6666667,99.9836737 L62.6666667,100 L96,100 L96,99.9836737 C96.2208519,99.9945154 96.4431168,100 96.6666667,100 C104.030463,100 110,94.0488311 110,86.7076923 C110,82.0553439 107.602502,77.9612381 103.972018,75.5863032 C103.990587,75.2650257 104,74.941301 104,74.6153846 C104,65.4389611 96.5380792,58 87.3333333,58 C81.9115234,58 77.094384,60.5809361 74.0506736,64.577646 C72.356978,63.0973205 70.1377693,62.2 67.7083333,62.2 C62.3925926,62.2 58.0833333,66.496 58.0833333,71.7953846 C58.0833333,72.6779407 58.2028522,73.5326676 58.4266343,74.3443566 L58.4266343,74.3443566 Z" id="Layer-5"></path>
            </g>
        </g>
    </g>
</svg>