<?xml version="1.0" encoding="UTF-8"?>
<svg width="114px" height="104px" viewBox="0 0 114 104" version="1.1" xmlns="http://www.w3.org/2000/svg" xmlns:xlink="http://www.w3.org/1999/xlink">
    <!-- Generator: Sketch 46 (44423) - http://www.bohemiancoding.com/sketch -->
    <title>files-29</title>
    <desc>Created with Sketch.</desc>
    <defs></defs>
    <g id="ALL" stroke="none" stroke-width="1" fill="none" fill-rule="evenodd" stroke-linecap="round" stroke-linejoin="round">
        <g id="Secondary" transform="translate(-2266.000000, -9023.000000)" stroke="#868E96" stroke-width="3.5">
            <g id="files-29" transform="translate(2268.000000, 9025.000000)">
                <path d="M100,63.8161888 L100,2.99446106 C100,1.34209558 98.6600772,0 97.0071986,0 L2.99280137,0 C1.33801252,0 0,1.34066588 0,2.99446106 L0,87.0055389 C0,88.6579044 1.33992281,90 2.99280137,90 L50.412154,90 C50.1430416,88.9471494 50,87.844074 50,86.7076923 C50,81.0938416 53.4908844,76.292822 58.4266343,74.3443566 L58.4266343,74.3443566 C58.2028522,73.5326676 58.0833333,72.6779407 58.0833333,71.7953846 C58.0833333,66.496 62.3925926,62.2 67.7083333,62.2 C70.1377693,62.2 72.356978,63.0973205 74.0506736,64.577646 C77.094384,60.5809361 81.9115234,58 87.3333333,58 C92.402553,58 96.9431906,60.2561652 100,63.8161888 L100,63.8161888 Z" id="Layer-1"></path>
                <path d="M0,3.00947762 C0,1.34738902 1.33801252,0 2.99280137,0 L97.0071986,0 C98.6600772,0 100,1.33663106 100,3.00947762 L100,16 L0,16 L0,3.00947762 Z" id="Layer-2"></path>
                <path d="M7,8 L22.2800007,8" id="Layer-3"></path>
                <path d="M58.4266343,74.3443566 C53.4908844,76.292822 50,81.0938416 50,86.7076923 C50,93.8259691 55.6125923,99.6373883 62.6666667,99.9836737 L62.6666667,100 L96,100 L96,99.9836737 C96.2208519,99.9945154 96.4431168,100 96.6666667,100 C104.030463,100 110,94.0488311 110,86.7076923 C110,82.0553439 107.602502,77.9612381 103.972018,75.5863032 C103.990587,75.2650257 104,74.941301 104,74.6153846 C104,65.4389611 96.5380792,58 87.3333333,58 C81.9115234,58 77.094384,60.5809361 74.0506736,64.577646 C72.356978,63.0973205 70.1377693,62.2 67.7083333,62.2 C62.3925926,62.2 58.0833333,66.496 58.0833333,71.7953846 C58.0833333,72.6779407 58.2028522,73.5326676 58.4266343,74.3443566 L58.4266343,74.3443566 Z" id="Layer-5"></path>
            </g>
        </g>
    </g>
</svg>