<?xml version="1.0" encoding="UTF-8"?>
<svg width="114px" height="103px" viewBox="0 0 114 103" version="1.1" xmlns="http://www.w3.org/2000/svg" xmlns:xlink="http://www.w3.org/1999/xlink">
    <!-- Generator: Sketch 46 (44423) - http://www.bohemiancoding.com/sketch -->
    <title>files-37</title>
    <desc>Created with Sketch.</desc>
    <defs></defs>
    <g id="ALL" stroke="none" stroke-width="1" fill="none" fill-rule="evenodd" stroke-linecap="round" stroke-linejoin="round">
        <g id="Secondary" transform="translate(-4736.000000, -9023.000000)" stroke="#868E96" stroke-width="3.5">
            <g id="files-37" transform="translate(4738.000000, 9025.000000)">
                <path d="M100,25 L100,12.9900874 C100,11.3383447 98.6600772,10 97.0071986,10 L30,10 L26.2273507,2.66668016 C25.4658163,1.18640065 23.5131511,0 21.8573185,0 L2.99815028,0 C1.33633795,0 0,1.34329338 0,3.00032973 L0,10 L0,25 L100,25 L100,25 Z" id="Layer-1"></path>
                <path d="M100,54.0743599 L100,12.9900874 C100,11.3383447 98.6600772,10 97.0071986,10 L30,10 L26.2273507,2.66668016 C25.4658163,1.18640065 23.5131511,0 21.8573185,0 L2.99815028,0 C1.33633795,0 0,1.34329338 0,3.00032973 L0,10 L0,87.0099126 C0,88.6616553 1.33992281,90 2.99280137,90 L65.6446609,90 L64.9605317,89.3158707 L67.2066803,83.0828623 L67.2066803,83.0828623 C66.7924053,82.27155 66.4318976,81.4282113 66.1298553,80.5575441 L60,77.689209 L60,70.6599121 L65.9965083,67.840382 C66.3238064,66.8282757 66.7295888,65.8514692 67.2066803,64.9171377 L64.9605317,58.6841293 L69.9309952,53.7136658 L76.119214,56.0898459 C76.9954028,55.6530732 77.9081525,55.2787041 78.851643,54.9725587 L81.6599121,49 L88.689209,49 L91.3715161,55.0262629 C92.3267892,55.3453949 93.2499621,55.7346502 94.1349247,56.1879188 L100,54.0743599 Z" id="Layer-2"></path>
                <path d="M67.2066803,83.0828623 C66.7924053,82.27155 66.4318976,81.4282113 66.1298553,80.5575441 L60,77.689209 L60,70.6599121 L65.9965083,67.840382 C66.3238064,66.8282757 66.7295888,65.8514692 67.2066803,64.9171377 L64.9605317,58.6841293 L69.9309952,53.7136658 L76.119214,56.0898459 C76.9954028,55.6530732 77.9081525,55.2787041 78.851643,54.9725587 L81.6599121,49 L88.689209,49 L91.3715161,55.0262629 C92.3267892,55.3453949 93.2499621,55.7346502 94.1349247,56.1879188 L100.315871,53.9605317 L105.286334,58.9309952 L102.929727,65.0682401 C103.37903,65.9669179 103.762645,66.9041578 104.074282,67.8736672 L110,70.6599121 L110,77.689209 L103.997214,80.3610664 C103.718559,81.1922979 103.386793,81.9991703 103.005945,82.7776525 L105.286334,89.0690048 L100.315871,94.0394683 L94.1349247,91.8120812 C93.3005422,92.2394432 92.4321923,92.6099002 91.5349964,92.918331 L88.689209,99 L81.6599121,99 L78.851643,93.0274413 C77.9638885,92.7393812 77.1033501,92.3909198 76.2748762,91.9869057 L69.9309952,94.2863342 L64.9605317,89.3158707 L67.2066803,83.0828623 L67.2066803,83.0828623 L67.2066803,83.0828623 Z M85,79 C87.7614237,79 90,76.7614237 90,74 C90,71.2385763 87.7614237,69 85,69 C82.2385763,69 80,71.2385763 80,74 C80,76.7614237 82.2385763,79 85,79 L85,79 Z" id="Layer-3"></path>
            </g>
        </g>
    </g>
</svg>