<?xml version="1.0" encoding="UTF-8"?>
<svg width="94px" height="114px" viewBox="0 0 94 114" version="1.1" xmlns="http://www.w3.org/2000/svg" xmlns:xlink="http://www.w3.org/1999/xlink">
    <!-- Generator: Sketch 46 (44423) - http://www.bohemiancoding.com/sketch -->
    <title>files-6</title>
    <desc>Created with Sketch.</desc>
    <defs></defs>
    <g id="ALL" stroke="none" stroke-width="1" fill="none" fill-rule="evenodd" stroke-linecap="round" stroke-linejoin="round">
        <g id="Secondary" transform="translate(-4780.000000, -8712.000000)" stroke="#868E96" stroke-width="3.5">
            <g id="files-6" transform="translate(4782.000000, 8714.000000)">
                <path d="M60,0.23014612 L59.7695312,0 L0,0 L2.70108432e-07,100 L80,100 L80,20.2021484 L79.7975682,20 L60,20 L60,0.23014612 L60,0.23014612 L60,0.23014612 Z M60,100 C71.045695,100 80,91.045695 80,80 C80,68.954305 71.045695,60 60,60 C48.954305,60 40,68.954305 40,80 C40,91.045695 48.954305,100 60,100 L60,100 Z" id="Layer-1"></path>
                <polygon id="Layer-2" points="60 0 80 20 60 20"></polygon>
                <path d="M60,100 C71.045695,100 80,91.045695 80,80 C80,68.954305 71.045695,60 60,60 C48.954305,60 40,68.954305 40,80 C40,91.045695 48.954305,100 60,100 Z" id="Layer-3"></path>
                <path d="M90,110 L74.4919376,94.4919376" id="Layer-4"></path>
            </g>
        </g>
    </g>
</svg>