<?xml version="1.0" encoding="UTF-8"?>
<svg width="104px" height="94px" viewBox="0 0 104 94" version="1.1" xmlns="http://www.w3.org/2000/svg" xmlns:xlink="http://www.w3.org/1999/xlink">
    <!-- Generator: Sketch 46 (44423) - http://www.bohemiancoding.com/sketch -->
    <title>files-31</title>
    <desc>Created with Sketch.</desc>
    <defs></defs>
    <g id="ALL" stroke="none" stroke-width="1" fill="none" fill-rule="evenodd" stroke-linecap="round" stroke-linejoin="round">
        <g id="Secondary" transform="translate(-2886.000000, -9023.000000)" stroke="#868E96" stroke-width="3.5">
            <g id="files-31" transform="translate(2888.000000, 9025.000000)">
                <path d="M30,10 L97.0071986,10 C98.6600772,10 100,11.3383447 100,12.9900874 L100,87.0099126 C100,88.6612923 98.6619875,90 97.0071986,90 L2.99280137,90 C1.33992281,90 0,88.6616553 0,87.0099126 L0,10 L0,3.00032973 C0,1.34329338 1.33633795,0 2.99815028,0 L21.8573185,0 C23.5131511,0 25.4658163,1.18640065 26.2273507,2.66668016 L30,10 L30,10 Z" id="Layer-1"></path>
                <path d="M100,25 L100,12.9900874 C100,11.3383447 98.6600772,10 97.0071986,10 L30,10 L26.2273507,2.66668016 C25.4658163,1.18640065 23.5131511,0 21.8573185,0 L2.99815028,0 C1.33633795,0 0,1.34329338 0,3.00032973 L0,10 L0,25 L100,25 L100,25 Z" id="Layer-2"></path>
            </g>
        </g>
    </g>
</svg>