<?xml version="1.0" encoding="UTF-8"?>
<svg width="104px" height="104px" viewBox="0 0 104 104" version="1.1" xmlns="http://www.w3.org/2000/svg" xmlns:xlink="http://www.w3.org/1999/xlink">
    <!-- Generator: Sketch 46 (44423) - http://www.bohemiancoding.com/sketch -->
    <title>food-42</title>
    <desc>Created with Sketch.</desc>
    <defs></defs>
    <g id="ALL" stroke="none" stroke-width="1" fill="none" fill-rule="evenodd" stroke-linecap="round" stroke-linejoin="round">
        <g id="Secondary" transform="translate(-8231.000000, -6263.000000)" stroke="#868E96" stroke-width="3.5">
            <g id="food-42" transform="translate(8233.000000, 6265.000000)">
                <path d="M24.5084947,78.7581273 C33.7195092,90.0496573 36.6929546,97.3479833 49.8399569,99.6175911 C60.261121,101.416629 74.1931739,96.6385316 78.4234246,90.0965231 C83.6402075,82.0288602 81.561836,76.3297917 83.6402075,71.2657128 C88.5574364,59.2845847 99.4091118,61.0576062 99.4091124,44.415227 C99.4091131,21.6249945 76.9788741,24.8334091 70.3778478,18.4156348 C63.7768215,11.9978604 62.5072877,0 49.8399569,0 C37.1726262,0 35.0131406,11.5241209 24.5084941,18.4156348 C14.0038476,25.3071486 5.80720268e-14,27.1812189 5.67888328e-14,48.4402782 C5.80878504e-14,69.6993375 15.2974801,67.4665973 24.5084947,78.7581273 Z" id="Layer-1"></path>
                <path d="M26.7923325,26.1800388 C25.0096894,27.3495317 23.096175,28.3313707 21.1960611,29.3266967 M14.4057493,33.5230078 C13.2465316,34.4729909 12.1841976,35.555453 11.2696562,36.8413704 C9.22634372,39.714429 7.92079208,43.6031091 7.92079208,49.2990142" id="Layer-2"></path>
                <ellipse id="Layer-3" cx="49.5049505" cy="50" rx="17.8217822" ry="18"></ellipse>
                <path d="M49.5049505,40 C48.5468647,40 47.620563,40.1374445 46.7443198,40.3938762 C46.0149598,40.6073227 45.3202825,40.9032086 44.6708269,41.2708896 C42.3222342,42.6005152 40.565016,44.869023 39.8975651,47.5730363 M40.8379128,54.8383206 C41.2348001,55.5620214 41.7179637,56.2307589 42.2733814,56.8303707" id="Layer-4"></path>
            </g>
        </g>
    </g>
</svg>