<?xml version="1.0" encoding="UTF-8"?>
<svg width="102px" height="102px" viewBox="0 0 102 102" version="1.1" xmlns="http://www.w3.org/2000/svg" xmlns:xlink="http://www.w3.org/1999/xlink">
    <!-- Generator: Sketch 46 (44423) - http://www.bohemiancoding.com/sketch -->
    <title>food-39</title>
    <desc>Created with Sketch.</desc>
    <defs></defs>
    <g id="ALL" stroke="none" stroke-width="1" fill="none" fill-rule="evenodd" stroke-linecap="round" stroke-linejoin="round">
        <g id="Secondary" transform="translate(-7352.000000, -6264.000000)" stroke="#868E96" stroke-width="3.5">
            <g id="food-39" transform="translate(7353.000000, 6265.000000)">
                <path d="M31.6369317,95.4501889 C56.7383779,105.591832 85.3085464,93.4645145 95.4501889,68.3630683 C105.591832,43.2616221 93.4645145,14.6914536 68.3630683,4.54981105 C43.2616221,-5.59183153 14.6914536,6.53548546 4.54981105,31.6369317 C-5.59183153,56.7383779 6.53548546,85.3085464 31.6369317,95.4501889 L31.6369317,95.4501889 Z" id="Layer-1"></path>
                <path d="M88.814397,50.1614995 C89.2171001,44.523579 86.2149334,40.1497551 83.1828938,35.9146973 L50,50 L83.4236623,63.5040361 C86.1864738,60.5728524 88.4116939,55.7994199 88.814397,50.1614995 L88.814397,50.1614995 Z" id="Layer-2"></path>
                <path d="M11.1825585,49.8372705 C10.7798554,55.475191 13.7820221,59.8490148 16.8140617,64.0840727 L49.9969555,49.9987699 L16.5732932,36.4947338 C13.8104817,39.4259175 11.5852616,44.19935 11.1825585,49.8372705 L11.1825585,49.8372705 L11.1825585,49.8372705 Z" id="Layer-3"></path>
                <path d="M77.331726,77.5601207 C81.6030919,73.858263 82.5729999,68.64265 83.4236623,63.5040361 L50,50 L64.0853027,83.1828938 C68.1115654,83.0638367 73.0603601,81.2619784 77.331726,77.5601207 L77.331726,77.5601207 Z" id="Layer-4"></path>
                <path d="M22.666991,22.4368567 C18.3956251,26.1387144 17.4257171,31.3543274 16.5750547,36.4929413 L49.998717,49.9969774 L35.9134143,16.8140837 C31.8871516,16.9331408 26.9383569,18.734999 22.666991,22.4368567 L22.666991,22.4368567 L22.666991,22.4368567 Z" id="Layer-5"></path>
                <path d="M49.8385005,88.814397 C55.476421,89.2171001 59.8502449,86.2149334 64.0853027,83.1828938 L50,50 L36.4959639,83.4236623 C39.4271476,86.1864738 44.2005801,88.4116939 49.8385005,88.814397 L49.8385005,88.814397 Z" id="Layer-6"></path>
                <path d="M50.1627295,11.1825585 C44.524809,10.7798554 40.1509852,13.7820221 35.9159273,16.8140617 L50.0012301,49.9969555 L63.5052662,16.5732932 C60.5740825,13.8104817 55.80065,11.5852616 50.1627295,11.1825585 L50.1627295,11.1825585 L50.1627295,11.1825585 Z" id="Layer-7"></path>
                <path d="M22.4398793,77.331726 C26.141737,81.6030919 31.35735,82.5729999 36.4959639,83.4236623 L50,50 L16.8171062,64.0853027 C16.9361633,68.1115654 18.7380216,73.0603601 22.4398793,77.331726 L22.4398793,77.331726 Z" id="Layer-8"></path>
                <path d="M77.5631433,22.666991 C73.8612856,18.3956251 68.6456726,17.4257171 63.5070587,16.5750547 L50.0030226,49.998717 L83.1859163,35.9134143 C83.0668592,31.8871516 81.265001,26.9383569 77.5631433,22.666991 L77.5631433,22.666991 L77.5631433,22.666991 Z" id="Layer-9"></path>
            </g>
        </g>
    </g>
</svg>