<?xml version="1.0" encoding="UTF-8"?>
<svg width="104px" height="104px" viewBox="0 0 104 104" version="1.1" xmlns="http://www.w3.org/2000/svg" xmlns:xlink="http://www.w3.org/1999/xlink">
    <!-- Generator: Sketch 46 (44423) - http://www.bohemiancoding.com/sketch -->
    <title>food-3</title>
    <desc>Created with Sketch.</desc>
    <defs></defs>
    <g id="ALL" stroke="none" stroke-width="1" fill="none" fill-rule="evenodd" stroke-linecap="round" stroke-linejoin="round">
        <g id="Secondary" transform="translate(-6386.000000, -5962.000000)" stroke="#868E96" stroke-width="3.5">
            <g id="food-3" transform="translate(6388.000000, 5964.000000)">
                <path d="M36,20 L36,15 C36,6.71572875 42.2680135,0 50,0 C57.7319865,0 64,6.71572875 64,15 L64,20 L84.9956417,20 C87.7557794,20 90,22.2385763 90,25 L90,30 L10,30 L10,25 C10,22.2441952 12.2405275,20 15.0043583,20 L36,20 L36,20 L36,20 Z M56,20 L56,14 C56,10.6862915 53.3137085,8 50,8 C46.6862915,8 44,10.6862915 44,14 L44,20 L56,20 L56,20 L56,20 Z" id="Layer-1"></path>
                <path d="M90.0795104,50.5661392 L90.0795104,94.0015788 C90.0795104,97.3144154 87.3893834,100 84.0869551,100 L15.907926,100 C12.5983291,100 9.91537071,97.3201398 9.91537071,94.0015788 L9.91537071,50.5661392 L2.50128919,46.2856172 C0.108740974,44.9042788 -0.708704979,41.8409528 0.669197424,39.4543558 C2.0499093,37.0628927 5.10909371,36.2442284 7.50128919,37.6253632 L9.91537071,39.0191338 L9.91537071,30 L90.0795104,30 L90.0795104,39.0191338 L92.4935919,37.6253632 C94.8857874,36.2442284 97.9449718,37.0628927 99.3256837,39.4543558 C100.703586,41.8409528 99.8861401,44.9042788 97.4935919,46.2856172 L90.0795104,50.5661392 L90.0795104,50.5661392 Z" id="Layer-2"></path>
                <path d="M20,39 L20,77" id="Layer-3"></path>
                <path d="M20,91 L20,87" id="Layer-4"></path>
            </g>
        </g>
    </g>
</svg>