<?xml version="1.0" encoding="UTF-8"?>
<svg width="104px" height="104px" viewBox="0 0 104 104" version="1.1" xmlns="http://www.w3.org/2000/svg" xmlns:xlink="http://www.w3.org/1999/xlink">
    <!-- Generator: Sketch 46 (44423) - http://www.bohemiancoding.com/sketch -->
    <title>food-36</title>
    <desc>Created with Sketch.</desc>
    <defs></defs>
    <g id="ALL" stroke="none" stroke-width="1" fill="none" fill-rule="evenodd" stroke-linecap="round" stroke-linejoin="round">
        <g id="Secondary" transform="translate(-6451.000000, -6263.000000)" stroke="#868E96" stroke-width="3.5">
            <g id="food-36" transform="translate(6453.000000, 6265.000000)">
                <circle id="Layer-1" cx="50" cy="50" r="50"></circle>
                <circle id="Layer-2" cx="50" cy="50" r="42"></circle>
                <circle id="Layer-3" cx="50" cy="50" r="10"></circle>
                <path d="M50,24 L50,30 M63,27.4833395 L60,32.6794919 M72.5166605,37 L67.3205081,40 M76,50 L70,50 M72.5166605,63 L67.3205081,60 M63,72.5166605 L60,67.3205081 M50,76 L50,70 M37,72.5166605 L40,67.3205081 M27.4833395,63 L32.6794919,60 M24,50 L30,50 M27.4833395,37 L32.6794919,40 M37,27.4833395 L40,32.6794919" id="Layer-4"></path>
            </g>
        </g>
    </g>
</svg>