<?xml version="1.0" encoding="UTF-8"?>
<svg width="104px" height="104px" viewBox="0 0 104 104" version="1.1" xmlns="http://www.w3.org/2000/svg" xmlns:xlink="http://www.w3.org/1999/xlink">
    <!-- Generator: Sketch 46 (44423) - http://www.bohemiancoding.com/sketch -->
    <title>food-5</title>
    <desc>Created with Sketch.</desc>
    <defs></defs>
    <g id="ALL" stroke="none" stroke-width="1" fill="none" fill-rule="evenodd" stroke-linecap="round" stroke-linejoin="round">
        <g id="Secondary" transform="translate(-6986.000000, -5962.000000)" stroke="#868E96" stroke-width="3.5">
            <g id="food-5" transform="translate(6988.000000, 5964.000000)">
                <path d="M36.8504316,72.6244293 L12.2250429,99.3046737 C10.9864935,100.646573 6.71931137,100.178952 3.27011508,96.7297559 C-0.179081217,93.2805596 -0.646410283,89.0131025 0.695194547,87.7748253 L27.3754619,63.1494154 C29.9800482,66.813439 33.1864207,70.0198262 36.8504316,72.6244293 L36.8504316,72.6244293 Z" id="Layer-1"></path>
                <circle id="Layer-2" cx="10" cy="90" r="3"></circle>
                <path d="M60,80 C82.09139,80 100,62.09139 100,40 C100,17.90861 82.09139,0 60,0 C37.90861,0 20,17.90861 20,40 C20,62.09139 37.90861,80 60,80 Z" id="Layer-3"></path>
                <path d="M60,70 C76.5685425,70 90,56.5685425 90,40 C90,23.4314575 76.5685425,10 60,10 C43.4314575,10 30,23.4314575 30,40 C30,56.5685425 43.4314575,70 60,70 Z" id="Layer-4"></path>
            </g>
        </g>
    </g>
</svg>