<?xml version="1.0" encoding="UTF-8"?>
<svg width="101px" height="103px" viewBox="0 0 101 103" version="1.1" xmlns="http://www.w3.org/2000/svg" xmlns:xlink="http://www.w3.org/1999/xlink">
    <!-- Generator: Sketch 46 (44423) - http://www.bohemiancoding.com/sketch -->
    <title>food-35</title>
    <desc>Created with Sketch.</desc>
    <defs></defs>
    <g id="ALL" stroke="none" stroke-width="1" fill="none" fill-rule="evenodd" stroke-linecap="round" stroke-linejoin="round">
        <g id="Secondary" transform="translate(-6154.000000, -6263.000000)" stroke="#868E96" stroke-width="3.5">
            <g id="food-35" transform="translate(6155.000000, 6265.000000)">
                <path d="M13.6652219,85.8728301 C31.684831,103.892439 62.1738328,102.618996 81.7643133,83.0285159 C101.354794,63.4380354 102.628237,32.9490336 84.6086275,14.9294244 C66.5890183,-3.09018475 36.1000166,-1.81674192 16.509536,17.7737386 C-3.08094448,37.3642191 -4.35438732,67.8532209 13.6652219,85.8728301 L13.6652219,85.8728301 Z" id="Layer-1"></path>
                <path d="M13.6652219,85.8728301 C25.6782946,97.8859029 51.2980366,91.7432002 70.8885171,72.1527197 C90.4789976,52.5622392 96.6217003,26.9424972 84.6086275,14.9294244 C72.5955547,2.91635164 46.9758128,9.0590543 27.3853323,28.6495348 C7.79485173,48.2400153 1.65214907,73.8597573 13.6652219,85.8728301 L13.6652219,85.8728301 Z" id="Layer-2"></path>
                <path d="M13.6652219,85.8728301 C17.6695795,89.8771877 36.796975,77.2421386 56.3874555,57.6516581 C75.977936,38.0611775 88.6129851,18.933782 84.6086275,14.9294244 C80.6042699,10.9250668 61.4768744,23.5601159 41.8863939,43.1505964 C22.2959134,62.741077 9.66086426,81.8684725 13.6652219,85.8728301 L13.6652219,85.8728301 Z" id="Layer-3"></path>
                <path d="M85.0095122,14.9390424 C86.345232,13.772362 88.8992101,11.2264457 89.9650242,8.02475752 C91.4403513,3.59289853 87.8777584,0.030305652 87.8777584,0.030305652" id="Layer-4"></path>
            </g>
        </g>
    </g>
</svg>