<?xml version="1.0" encoding="UTF-8"?>
<svg width="104px" height="104px" viewBox="0 0 104 104" version="1.1" xmlns="http://www.w3.org/2000/svg" xmlns:xlink="http://www.w3.org/1999/xlink">
    <!-- Generator: Sketch 46 (44423) - http://www.bohemiancoding.com/sketch -->
    <title>food-51</title>
    <desc>Created with Sketch.</desc>
    <defs></defs>
    <g id="ALL" stroke="none" stroke-width="1" fill="none" fill-rule="evenodd" stroke-linecap="round" stroke-linejoin="round">
        <g id="Secondary" transform="translate(-1606.000000, -6565.000000)" stroke="#868E96" stroke-width="3.5">
            <g id="food-51" transform="translate(1608.000000, 6567.000000)">
                <path d="M3.20626084,68.1446387 C-0.778680912,64.159697 -0.77770985,57.6978588 3.20416788,53.715981 L53.715981,3.20416788 C57.6997669,-0.779617962 64.1588208,-0.779557091 68.1446387,3.20626084 L75.360014,10.4216362 L10.4216362,75.360014 L3.20626084,68.1446387 L3.20626084,68.1446387 Z" id="Layer-1"></path>
                <path d="M10.4216362,89.7907647 C6.43669441,85.8058229 6.4407174,79.3409328 10.4249011,75.3567491 L75.3567491,10.4249011 C79.343494,6.43815617 85.8049467,6.43581823 89.7907647,10.4216362 L89.7907647,10.4216362 C93.7757064,14.4065779 93.7716834,20.871468 89.7874997,24.8556517 L24.8556517,89.7874997 C20.8689068,93.7742446 14.4074541,93.7765826 10.4216362,89.7907647 L10.4216362,89.7907647 L10.4216362,89.7907647 Z" id="Layer-2"></path>
                <path d="M32.0677621,97.00614 C36.0527039,100.991082 42.5145421,100.990111 46.4964198,97.0082329 L97.0082329,46.4964198 C100.992019,42.5126339 100.991958,36.05358 97.00614,32.0677621 L89.7907647,24.8523868 L24.8523868,89.7907647 L32.0677621,97.00614 L32.0677621,97.00614 Z" id="Layer-3"></path>
                <path d="M23.2039131,73.9334977 C25.3840424,71.7533684 30.949562,72.0688155 33.5858799,69.5140803 C35.9337936,67.2388245 35.1886831,61.9731391 37.687863,59.4495477 C40.1915537,56.9214016 45.5516572,57.4720008 48.1913778,54.9085822 C50.5783554,52.5906009 49.9673204,47.2243335 52.2736315,44.8637793 C54.6577391,42.4235989 60.0909919,42.9010175 62.4364592,40.6635004 C65.1025438,38.1201225 64.6471479,32.6690592 66.8594,30.2780108 C69.4381115,27.4908853 74.5861961,28.0850517 76.8576975,26.2422624" id="Layer-4"></path>
            </g>
        </g>
    </g>
</svg>