<?xml version="1.0" encoding="UTF-8"?>
<svg width="84px" height="94px" viewBox="0 0 84 94" version="1.1" xmlns="http://www.w3.org/2000/svg" xmlns:xlink="http://www.w3.org/1999/xlink">
    <!-- Generator: Sketch 46 (44423) - http://www.bohemiancoding.com/sketch -->
    <title>food-26</title>
    <desc>Created with Sketch.</desc>
    <defs></defs>
    <g id="ALL" stroke="none" stroke-width="1" fill="none" fill-rule="evenodd" stroke-linecap="round" stroke-linejoin="round">
        <g id="Secondary" transform="translate(-3572.000000, -6263.000000)" stroke="#868E96" stroke-width="3.5">
            <g id="food-26" transform="translate(3574.000000, 6265.000000)">
                <path d="M46.0727499,49 C44.0695531,51.2870135 43.0967742,54.4312768 43.0967742,57.9805623 L43.0967742,76.8612284 C43.0967742,84.0036108 48.8737452,89.7813779 56,89.7813779 L40,89.7813771 L24,89.7813779 C31.1262548,89.7813779 36.9032258,84.0036108 36.9032258,76.8612284 L36.9032258,57.9805623 C36.9032258,54.6480553 36.0456462,51.6726066 34.2827775,49.42854 C36.2594748,50.1309251 38.2150433,50.466491 40.0693359,50.3801304 C41.97332,50.2914556 44.0057588,49.8163333 46.0727499,49 L46.0727499,49 Z" id="Layer-1"></path>
                <path d="M79.9999965,3.55271368e-15 C79.9999965,3.55271368e-15 47.3546441,48.6465378 45.4160156,49.2122573 C43.7756685,49.6909341 41.5228698,49.8919218 40,49.9536487 C38.2217781,50.0257259 35.9557299,49.7835312 34.0611576,49.2122573 C32.6944488,48.800151 -1.85319706e-08,3.55271385e-15 -1.85319706e-08,3.55271385e-15 L60.7882812,3.55271368e-15 L79.9999965,3.55271368e-15 Z" id="Layer-2"></path>
                <path d="M66.445925,20 C57.2244769,33.4896324 46.5020309,48.8953425 45.4160156,49.2122573 C43.7756685,49.6909341 41.5228698,49.8919218 40,49.9536487 C38.2217781,50.0257259 35.9557299,49.7835312 34.0611576,49.2122573 C33.2945873,48.9811119 22.6724633,33.5273244 13.4916642,20 L66.445925,20 L66.445925,20 Z" id="Layer-3"></path>
            </g>
        </g>
    </g>
</svg>