<?xml version="1.0" encoding="UTF-8"?>
<svg width="105px" height="107px" viewBox="0 0 105 107" version="1.1" xmlns="http://www.w3.org/2000/svg" xmlns:xlink="http://www.w3.org/1999/xlink">
    <!-- Generator: Sketch 46 (44423) - http://www.bohemiancoding.com/sketch -->
    <title>food-52</title>
    <desc>Created with Sketch.</desc>
    <defs></defs>
    <g id="ALL" stroke="none" stroke-width="1" fill="none" fill-rule="evenodd" stroke-linecap="round" stroke-linejoin="round">
        <g id="Secondary" transform="translate(-1907.000000, -6565.000000)" stroke="#868E96" stroke-width="3.5">
            <g id="food-52" transform="translate(1908.000000, 6567.000000)">
                <path d="M7.46241587,64.7221454 C7.37568128,64.8457907 7.28863074,64.9700609 7.20125974,65.094963 C-3.66671548,80.6313871 0.727548671,94.8999629 9.23627918,100.453054 C17.7450097,106.006145 26.0844523,102.14576 35.1682547,93.061958 C35.3254239,92.9047888 35.480204,92.7462602 35.6381884,92.5920243 L63.7244934,64.5001427 L91.816375,36.4138377 C91.970611,36.2558533 92.1291395,36.1010732 92.2863087,35.943904 C101.370111,26.8601016 103.912116,15.2456696 98.5478593,7.43707373 C93.1836026,-0.371522125 79.8557378,-2.8910662 64.3193137,7.97690902 C64.1372895,8.10423782 63.9566075,8.23088602 63.7772457,8.35686758 C60.8703584,6.13669817 53.5916427,6.80772583 48.6314841,11.7678845 C44.0727157,16.3266529 41.898695,21.7540357 43.1992008,24.7703403 C43.1213129,24.8430823 43.0435214,24.9158653 42.9658165,24.9886958 C42.9627613,24.9856244 42.9597014,24.9825565 42.956637,24.979492 C39.8348086,21.8576636 33.096137,23.5348513 27.9053928,28.7255955 C22.7146486,33.9163398 21.0374609,40.6550113 24.1592893,43.7768397 C24.1628374,43.7803878 24.1663901,43.7839297 24.1699475,43.7874653 C24.0667652,43.8976304 23.9636755,44.0079732 23.8606603,44.1185223 C20.8457044,42.8118714 15.4136347,44.9857339 10.851473,49.5478956 C5.87503016,54.5243384 5.21592692,61.8345868 7.46241587,64.7221454 L7.46241587,64.7221454 Z" id="Layer-1"></path>
                <path d="M26.8909164,38.9045514 C26.8909164,38.9045514 29.0500873,41.6807677 30.8878872,45.3635235 C32.7256871,49.0462794 34.0378437,54.9204083 34.0378437,54.9204083" id="Layer-2" transform="translate(30.464380, 46.912480) rotate(-45.000000) translate(-30.464380, -46.912480) "></path>
                <path d="M10.7251025,62.7201635 C10.7251025,62.7201635 11.9326345,64.2727826 12.9604374,66.3323904 C13.9882403,68.3919983 14.7220733,71.6771474 14.7220733,71.6771474" id="Layer-3" transform="translate(12.723588, 67.198655) rotate(-45.000000) translate(-12.723588, -67.198655) "></path>
                <path d="M42.4299842,20.0099632 C43.5218868,22.3682108 45.226444,25.0026697 45.7127828,27.1000206 C46.6886187,31.3083425 47.0075337,33.1874229 47.0075337,33.1874229" id="Layer-4" transform="translate(44.718759, 26.598693) rotate(-45.000000) translate(-44.718759, -26.598693) "></path>
            </g>
        </g>
    </g>
</svg>