<?xml version="1.0" encoding="UTF-8"?>
<svg width="84px" height="104px" viewBox="0 0 84 104" version="1.1" xmlns="http://www.w3.org/2000/svg" xmlns:xlink="http://www.w3.org/1999/xlink">
    <!-- Generator: Sketch 46 (44423) - http://www.bohemiancoding.com/sketch -->
    <title>food-32</title>
    <desc>Created with Sketch.</desc>
    <defs></defs>
    <g id="ALL" stroke="none" stroke-width="1" fill="none" fill-rule="evenodd" stroke-linecap="round" stroke-linejoin="round">
        <g id="Secondary" transform="translate(-5274.000000, -6264.000000)" stroke="#868E96" stroke-width="3.5">
            <g id="food-32" transform="translate(5276.000000, 6265.000000)">
                <path d="M54.5810587,13.4450098 C47.7081114,15.946558 39.9796039,12.0484769 39.9796039,12.0484769 C39.9796039,12.0484769 43.3943459,4.09458472 50.2672932,1.59303647 C57.1402405,-0.908511772 64.8687479,2.98956935 64.8687479,2.98956935 C64.8687479,2.98956935 61.454006,10.9434615 54.5810587,13.4450098 L54.5810587,13.4450098 Z" id="Layer-1"></path>
                <path d="M30.0970322,9.34371042 C33.6760581,11.8497713 38.7382054,10.7954305 38.7382054,10.7954305 C38.7382054,10.7954305 37.9976054,5.67796218 34.4185795,3.17190128 C30.8395536,0.665840391 25.7774063,1.72018121 25.7774063,1.72018121 C25.7774063,1.72018121 26.5180063,6.83764953 30.0970322,9.34371042 L30.0970322,9.34371042 Z" id="Layer-2"></path>
                <path d="M40,11 L40,21.1980391" id="Layer-3"></path>
                <path d="M64.9968789,45.6009002 C73.619737,50.9534057 80,58.9239481 80,68.5 C80,84.3512062 67.3774414,101 46.2612305,101 C43.7017065,101 40,99.4407436 40,99.4407436 C40,99.4407436 36.9323056,101 34.6630859,101 C12.5716959,101 0,86.4492544 0,68.5 C0,58.9239481 6.38026296,50.9534057 15.0031211,45.6009002 C15.2163322,31.9778356 26.3261607,21 40,21 C53.6738393,21 64.7836678,31.9778356 64.9968789,45.6009002 L64.9968789,45.6009002 Z" id="Layer-4"></path>
                <path d="M70.4008789,75.3818359 C68.1647759,81.2910008 63.7369581,86.2741059 58,89.907203" id="Layer-5"></path>
                <path d="M23.4172136,45.0627979 C24.8016008,39.0096185 28.2240407,33.9392627 33.2815304,31.3855134 M13.1188994,58.9918962 C15.1978165,56.3025084 17.8140012,54.1493907 20.5576848,52.2705271" id="Layer-6"></path>
            </g>
        </g>
    </g>
</svg>