<?xml version="1.0" encoding="UTF-8"?>
<svg width="94px" height="104px" viewBox="0 0 94 104" version="1.1" xmlns="http://www.w3.org/2000/svg" xmlns:xlink="http://www.w3.org/1999/xlink">
    <!-- Generator: Sketch 46 (44423) - http://www.bohemiancoding.com/sketch -->
    <title>food-11</title>
    <desc>Created with Sketch.</desc>
    <defs></defs>
    <g id="ALL" stroke="none" stroke-width="1" fill="none" fill-rule="evenodd" stroke-linecap="round" stroke-linejoin="round">
        <g id="Secondary" transform="translate(-8741.000000, -5962.000000)" stroke="#868E96" stroke-width="3.5">
            <g id="food-11" transform="translate(8743.000000, 5964.000000)">
                <path d="M90,40 C90,47.7184236 90,38.1494141 90,59.765625 C90,81.3818359 75.6875,90 75.6875,90 L14.6074219,90 C14.6074219,90 5.55111512e-17,80.2939453 5.55111512e-17,59.765625 C1.07755227e-09,59.765625 5.55111512e-17,47.766504 5.55111512e-17,40 L90,40 Z" id="Layer-1"></path>
                <path d="M15.2099609,51.821289 C20.1805954,51.821289 24.934082,58.0966794 29.8994141,58.0966794 C34.8647461,58.0966794 39.5068359,51.821289 45,51.821289 C50.4931641,51.821289 55.1955109,58.0966794 60.0200195,58.0966794 C64.8445282,58.0966794 69.9796753,51.821289 75.0664062,51.821289 C80.1531372,51.821289 90,58.8291025 90,58.8291025 C90,58.8291025 90,38.1494141 90,59.765625 C90,81.3818359 75.6875,90 75.6875,90 L14.6074219,90 C14.6074219,90 5.55111512e-17,80.2939453 5.55111512e-17,59.765625 C1.07755227e-09,59.765625 5.55111512e-17,58.8291022 5.55111512e-17,58.8291022 C5.55111512e-17,58.8291022 10.2393265,51.821289 15.2099609,51.821289 Z" id="Layer-2"></path>
                <path d="M75.0859375,90 L77.0429688,95 C78.1238073,97.7614237 76.7568866,100 73.9997976,100 L16.0002024,100 C13.2386668,100 11.878392,97.7558048 12.9570313,95 L14.9140625,90 L75.0859375,90 Z" id="Layer-3"></path>
                <path d="M45,0 C45,0 75,10.72227 75,40 L15,40 C15,10.6114455 45,0 45,0 Z" id="Layer-4"></path>
                <path d="M45,0 C45,0 60,10.72227 60,40 L30,40 C30,10.6114455 45,0 45,0 Z" id="Layer-5"></path>
                <path d="M45,0 L45,40.0124969" id="Layer-6"></path>
            </g>
        </g>
    </g>
</svg>