<?xml version="1.0" encoding="UTF-8"?>
<svg width="84px" height="104px" viewBox="0 0 84 104" version="1.1" xmlns="http://www.w3.org/2000/svg" xmlns:xlink="http://www.w3.org/1999/xlink">
    <!-- Generator: Sketch 46 (44423) - http://www.bohemiancoding.com/sketch -->
    <title>food-27</title>
    <desc>Created with Sketch.</desc>
    <defs></defs>
    <g id="ALL" stroke="none" stroke-width="1" fill="none" fill-rule="evenodd" stroke-linecap="round" stroke-linejoin="round">
        <g id="Secondary" transform="translate(-3852.000000, -6263.000000)" stroke="#868E96" stroke-width="3.5">
            <g id="food-27" transform="translate(3854.000000, 6265.000000)">
                <path d="M2.71184404,0 L76.7316692,0 C78.3830489,0 79.5908692,1.33801252 79.4289941,2.99280137 L70.2322956,97.0071986 C70.0706073,98.6600772 68.928488,100 67.6806882,100 L11.762825,100 C10.5152994,100 9.37309279,98.6619875 9.21121765,97.0071986 L0.014519138,2.99280137 C-0.147169137,1.33992281 1.06010134,0 2.71184404,0 Z" id="Layer-1"></path>
                <path d="M78.0871106,20 L70.5540943,97.0071986 C70.392406,98.6600772 69.2502867,100 68.0024869,100 L12.0846237,100 C10.8370981,100 9.69489147,98.6619875 9.53301632,97.0071986 L2,20 L78.0871106,20 L78.0871106,20 Z" id="Layer-2"></path>
                <path d="M9,94.1351767 C9,94.1351767 21.0683594,92 39,92 C56.9316406,92 69,94.1351767 69,94.1351767 M67,100 L11,100" id="Layer-3"></path>
                <path d="M39.5,15 C41.9852814,15 44,12.9852814 44,10.5 C44,8.01471863 41.9852814,6 39.5,6 C37.0147186,6 35,8.01471863 35,10.5 C35,12.9852814 37.0147186,15 39.5,15 L39.5,15 L39.5,15 Z M42,56 C43.6568542,56 45,54.6568542 45,53 C45,51.3431458 43.6568542,50 42,50 C40.3431458,50 39,51.3431458 39,53 C39,54.6568542 40.3431458,56 42,56 L42,56 L42,56 Z M31.5,39 C33.4329966,39 35,37.4329966 35,35.5 C35,33.5670034 33.4329966,32 31.5,32 C29.5670034,32 28,33.5670034 28,35.5 C28,37.4329966 29.5670034,39 31.5,39 L31.5,39 L31.5,39 Z M36,71 C37.6568542,71 39,69.6568542 39,68 C39,66.3431458 37.6568542,65 36,65 C34.3431458,65 33,66.3431458 33,68 C33,69.6568542 34.3431458,71 36,71 L36,71 L36,71 Z M39,83 C40.1045695,83 41,82.1045695 41,81 C41,79.8954305 40.1045695,79 39,79 C37.8954305,79 37,79.8954305 37,81 C37,82.1045695 37.8954305,83 39,83 L39,83 L39,83 Z" id="Layer-4"></path>
            </g>
        </g>
    </g>
</svg>