<?xml version="1.0" encoding="UTF-8"?>
<svg width="104px" height="103px" viewBox="0 0 104 103" version="1.1" xmlns="http://www.w3.org/2000/svg" xmlns:xlink="http://www.w3.org/1999/xlink">
    <!-- Generator: Sketch 46 (44423) - http://www.bohemiancoding.com/sketch -->
    <title>food-22</title>
    <desc>Created with Sketch.</desc>
    <defs></defs>
    <g id="ALL" stroke="none" stroke-width="1" fill="none" fill-rule="evenodd" stroke-linecap="round" stroke-linejoin="round">
        <g id="Secondary" transform="translate(-2430.000000, -6263.000000)" stroke="#868E96" stroke-width="3.5">
            <g id="food-22" transform="translate(2432.000000, 6265.000000)">
                <path d="M71.5967981,15.1861368 L58.2145412,1.80387997 C57.017186,0.606524715 55.076158,0.605887985 53.879361,1.80268496 L1.60983928,54.0722067 C0.413397319,55.2686486 0.413577323,57.20993 1.61103429,58.4073869 L41.2996089,98.0959615 C42.4969641,99.2933168 44.4379922,99.2939535 45.6347891,98.0971565 L97.9043108,45.8276348 C99.1007528,44.6311929 99.1005728,42.6899115 97.9031158,41.4924546 L84.319889,27.9092278 L96.9865439,15.2425729 C100.387132,11.762806 100.330997,6.15300227 96.8420101,2.66401581 C93.3530236,-0.824970651 87.7432198,-0.881106511 84.2638643,2.51989328 L71.5967981,15.1861368 L71.5967981,15.1861368 Z" id="Layer-1"></path>
                <path d="M92.7455136,11.0015426 C93.9166418,9.83041441 93.9166418,7.93164046 92.7455136,6.76051228 C91.5743854,5.58938409 89.6756115,5.58938409 88.5044833,6.76051228 C87.3333551,7.93164046 87.3333551,9.83041441 88.5044833,11.0015426 C89.6756115,12.1726708 91.5743854,12.1726708 92.7455136,11.0015426 L92.7455136,11.0015426 Z" id="Layer-2"></path>
                <path d="M87.7976449,44.2229467 L43.973665,88.0469267" id="Layer-3"></path>
                <polyline id="Layer-4" points="11.4590992 55.5323609 11.4590992 55.5323609 55.2830791 11.708381"></polyline>
            </g>
        </g>
    </g>
</svg>