<?xml version="1.0" encoding="UTF-8"?>
<svg width="103px" height="103px" viewBox="0 0 103 103" version="1.1" xmlns="http://www.w3.org/2000/svg" xmlns:xlink="http://www.w3.org/1999/xlink">
    <!-- Generator: Sketch 46 (44423) - http://www.bohemiancoding.com/sketch -->
    <title>food-54</title>
    <desc>Created with Sketch.</desc>
    <defs></defs>
    <g id="ALL" stroke="none" stroke-width="1" fill="none" fill-rule="evenodd" stroke-linecap="round" stroke-linejoin="round">
        <g id="Secondary" transform="translate(-2508.000000, -6565.000000)" stroke="#868E96" stroke-width="3.5">
            <g id="food-54" transform="translate(2510.000000, 6567.000000)">
                <path d="M23.9957223,96.7450371 C22.7208618,97.0840131 21.3813879,97.26467 19.9996154,97.26467 L15.7766118,97.26467 C7.21352784,97.26467 0.271776739,90.3252911 0.271776739,81.7609285 C0.271776739,73.1984486 7.2115894,66.2571871 15.7766118,66.2571871 L19.9996154,66.2571871 C21.0533017,66.2571871 22.082439,66.3622581 23.0771145,66.5624987 L23.9957223,96.7450371 L23.9957223,96.7450371 Z" id="Layer-1"></path>
                <path d="M56.2935559,93.0529226 C51.7844121,95.2684401 46.7057502,97.3239779 41.9755867,98.2452358 C29.2936512,100.7152 24.0239741,97.6733023 24.0239741,97.6733023 L23.0404457,65.3576781 L45.0832201,59.4500297 L56.2935559,93.0529226 L56.2935559,93.0529226 Z" id="Layer-2"></path>
                <path d="M96.6889584,24.051801 C97.0279344,22.7769406 97.2085912,21.4374666 97.2085912,20.0556941 L97.2085912,15.8326905 C97.2085912,7.26960654 90.2692124,0.327855446 81.7048498,0.327855446 C73.1423699,0.327855446 66.2011084,7.26766811 66.2011084,15.8326905 L66.2011084,20.0556941 C66.2011084,21.1093804 66.3061794,22.1385177 66.50642,23.1331932 L96.6889584,24.051801 L96.6889584,24.051801 Z" id="Layer-3"></path>
                <path d="M92.9564919,56.4316624 C95.1873716,51.9021432 97.2623086,46.7905338 98.1891571,42.0316654 C100.659121,29.3497299 97.6172236,24.0800529 97.6172236,24.0800529 L65.3015994,23.0965244 L59.37046,45.2269489 L92.9564938,56.4316602 L92.9564919,56.4316624 Z" id="Layer-4"></path>
                <path d="M94.5926662,53.5831696 C86.942353,47.817709 77.4231652,44.3997007 67.1056588,44.3997007 C56.816139,44.3997007 47.3206127,47.7991912 39.6809478,53.5363045 L57.949404,90.0961533 L76.3476279,90.0961533 L94.5926662,53.5831696 L94.5926662,53.5831696 Z" id="Layer-5" transform="translate(67.136807, 67.247927) rotate(-225.000000) translate(-67.136807, -67.247927) "></path>
            </g>
        </g>
    </g>
</svg>