<?xml version="1.0" encoding="UTF-8"?>
<svg width="105px" height="105px" viewBox="0 0 105 105" version="1.1" xmlns="http://www.w3.org/2000/svg" xmlns:xlink="http://www.w3.org/1999/xlink">
    <!-- Generator: Sketch 46 (44423) - http://www.bohemiancoding.com/sketch -->
    <title>food-43</title>
    <desc>Created with Sketch.</desc>
    <defs></defs>
    <g id="ALL" stroke="none" stroke-width="1" fill="none" fill-rule="evenodd" stroke-linecap="round" stroke-linejoin="round">
        <g id="Secondary" transform="translate(-8531.000000, -6264.000000)" stroke="#868E96" stroke-width="3.5">
            <g id="food-43" transform="translate(8533.000000, 6265.000000)">
                <path d="M28.5173079,65.7030382 L13.3286281,80.891718 C13.1208288,80.6145496 12.8908917,80.3487199 12.6388167,80.0966449 C9.76853984,77.226368 5.1149016,77.226368 2.24462476,80.0966449 C-0.625652076,82.9669217 -0.625652076,87.6205599 2.24462476,90.4908368 C4.13512421,92.3813362 6.7992743,93.0266637 9.21794957,92.4268193 C8.61810516,94.8454946 9.26343267,97.5096447 11.1539321,99.4001441 C14.024209,102.270421 18.6778472,102.270421 21.548124,99.4001441 C24.4184009,96.5298673 24.4184009,91.8762291 21.548124,89.0059522 C21.296049,88.7538772 21.0302193,88.5239401 20.7530509,88.3161408 L35.9417307,73.127461 C34.5360749,72.1009187 33.1994947,70.9596318 31.9423159,69.702453 C30.6851371,68.4452742 29.5438502,67.108694 28.5173079,65.7030382 L28.5173079,65.7030382 Z" id="Layer-1"></path>
                <path d="M98.7621206,62.2780307 C78.2601432,82.7800077 48.3438977,86.1040348 31.9423159,69.702453 C15.540734,53.300871 18.8647613,23.3846252 39.3667387,2.88264781 L39.3667387,2.88264781 C33.2161455,9.03324104 41.5262138,27.3153912 57.9277957,43.7169732 C74.3293777,60.1185551 92.6115279,68.4286234 98.7621211,62.2780302 L98.7621206,62.2780307 Z" id="Layer-2"></path>
                <path d="M80.2010641,21.4437048 C63.7994822,5.04212285 45.517332,-3.26794542 39.3667387,2.88264781 C33.2161455,9.03324104 41.5262138,27.3153912 57.9277957,43.7169732 C74.3293777,60.1185551 92.6115279,68.4286234 98.7621211,62.2780302 C104.912714,56.1274369 96.6026461,37.8452867 80.2010641,21.4437048 L80.2010641,21.4437048 Z" id="Layer-3"></path>
                <path d="M72.7766413,28.8681276 C69.4963249,25.5878112 65.1750894,24.590603 63.1248917,26.6408008 C61.0746939,28.6909985 62.0719021,33.012234 65.3522185,36.2925504 C68.6325349,39.5728668 72.9537704,40.570075 75.0039682,38.5198772 C77.0541659,36.4696795 76.0569577,32.148444 72.7766413,28.8681276 L72.7766413,28.8681276 Z" id="Layer-4"></path>
                <path d="M32.630988,26.7531891 C31.4890265,29.4362625 30.6538641,32.1828478 30.1299921,34.9345571 M29.6563395,45.389949 C29.9480952,48.1785102 30.5858172,50.8912162 31.5746255,53.461506 C33.0080788,57.1875972 35.1793628,60.6143917 38.1040764,63.5391052" id="Layer-5"></path>
            </g>
        </g>
    </g>
</svg>