<?xml version="1.0" encoding="UTF-8"?>
<svg width="104px" height="103px" viewBox="0 0 104 103" version="1.1" xmlns="http://www.w3.org/2000/svg" xmlns:xlink="http://www.w3.org/1999/xlink">
    <!-- Generator: Sketch 46 (44423) - http://www.bohemiancoding.com/sketch -->
    <title>food-49</title>
    <desc>Created with Sketch.</desc>
    <defs></defs>
    <g id="ALL" stroke="none" stroke-width="1" fill="none" fill-rule="evenodd" stroke-linecap="round" stroke-linejoin="round">
        <g id="Secondary" transform="translate(-1006.000000, -6566.000000)" stroke="#868E96" stroke-width="3.5">
            <g id="food-49" transform="translate(1008.000000, 6567.000000)">
                <path d="M7.41012959,22.7891983 C5.63771639,14.7372011 13.3871902,6.32426042 24.7190638,3.99836925 C36.0509374,1.67247807 46.6740608,6.31440412 48.446474,14.3664013 L7.41012959,22.7891983 Z M7.72968212,37.8264172 C9.21000446,29.7195945 19.6588904,24.7224949 31.0679221,26.665083 C42.4769538,28.607671 50.5257631,36.7543281 49.0454407,44.8611508 L7.72968212,37.8264172 Z M49.054253,21.1454463 C57.0128736,18.1954031 66.8302323,24.2703648 70.9819373,34.7142531 C75.1336423,45.1581414 72.0475275,56.0160682 64.0889068,58.9661114 L49.054253,21.1454463 Z M88.2241285,28.0825022 C96.4187274,30.3515168 100.473107,40.9083965 97.2798388,51.6619529 C94.0865705,62.4155093 84.8548802,69.2935894 76.6602812,67.0245748 L88.2241285,28.0825022 Z M36.3696471,75.33493 C29.7446048,80.5154221 18.463668,77.6672678 11.1729696,68.9733991 C3.88227122,60.2795304 3.3426504,49.0321387 9.96769277,43.8516465 L36.3696471,75.33493 Z M39.5947052,51.5891237 C48.014587,50.3013734 56.3094081,58.214583 58.1217068,69.2637722 C59.9340054,80.3129613 54.577501,90.3140267 46.1576192,91.601777 L39.5947052,51.5891237 Z M98.5721361,69.6654723 C102.442331,77.0001343 97.2118328,87.0631968 86.8894916,92.1419516 C76.5671503,97.2207064 65.0618266,95.3919323 61.1916317,88.0572704 L98.5721361,69.6654723 Z M97.7955674,13.998856 C95.020152,21.7822548 83.8903711,25.1394372 72.9365059,21.4973327 C61.9826406,17.8552282 55.352697,8.5930278 58.1281124,0.809629 L97.7955674,13.998856 Z M40.2990832,90.4169498 C37.5236679,98.2003486 26.393887,101.557531 15.4400217,97.9154265 C4.4861565,94.273322 -2.1437871,85.0111216 0.63162823,77.2277228 L40.2990832,90.4169498 Z" id="Layer-1"></path>
            </g>
        </g>
    </g>
</svg>