<?xml version="1.0" encoding="UTF-8"?>
<svg width="104px" height="97px" viewBox="0 0 104 97" version="1.1" xmlns="http://www.w3.org/2000/svg" xmlns:xlink="http://www.w3.org/1999/xlink">
    <!-- Generator: Sketch 46 (44423) - http://www.bohemiancoding.com/sketch -->
    <title>food-53</title>
    <desc>Created with Sketch.</desc>
    <defs></defs>
    <g id="ALL" stroke="none" stroke-width="1" fill="none" fill-rule="evenodd" stroke-linecap="round" stroke-linejoin="round">
        <g id="Secondary" transform="translate(-2208.000000, -6565.000000)" stroke="#868E96" stroke-width="3.5">
            <g id="food-53" transform="translate(2210.000000, 6567.000000)">
                <path d="M18.9236328,81.91737 C19.6009679,88.0961667 24.5165374,93 30.1827979,93 L79.8172021,93 C85.6889735,93 90.7566191,87.7331688 91.1334074,81.2362032 L93.4419886,41.4293089 C97.4009097,38.7817851 100,34.3240588 100,29.271154 C100,22.8692242 95.7352628,17.9341002 89.9451077,15.7276495 C89.9814404,16.1450093 90,16.5692493 90,17 C90,22.1536915 87.4009097,26.700333 83.4419886,29.400665 L81.1334074,70.0015591 C80.7566191,76.628115 75.6889735,82 69.8172021,82 L20.1827979,82 C19.7583759,82 19.3381657,81.9719382 18.9236328,81.91737 L18.9236328,81.91737 Z" id="Layer-1"></path>
                <path d="M81.1334074,70.0015591 C80.7566191,76.628115 75.6889735,82 69.8172021,82 L20.1827979,82 C14.3098186,82 9.24330336,76.6267521 8.86659256,70.0015591 L6.55801144,29.400665 C2.59909027,26.700333 0,22.1536915 0,17 C0,8.71572875 6.55801153,2.98046875 15,2 C15.3522509,1.9590889 30.3266538,0.404296875 44.9999974,0.404296875 C59.6733411,0.404296875 74.6471605,1.96358517 75,2 C83.1352539,2.83959961 90,8.71572875 90,17 C90,22.1536915 87.4009097,26.700333 83.4419886,29.400665 L81.1334074,70.0015591 Z" id="Layer-2"></path>
                <path d="M12.5609666,15.8679724 L78.5609666,15.8679724" id="Layer-3" stroke-dasharray="1,6"></path>
                <path d="M20,28.8480682 L76,28.8480682" id="Layer-4" stroke-dasharray="1,6"></path>
                <path d="M20,40.8480682 L76,40.8480682" id="Layer-5" stroke-dasharray="1,6"></path>
                <path d="M20,52.8480682 L76,52.8480682" id="Layer-6" stroke-dasharray="1,6"></path>
                <path d="M20,64.8480682 L76,64.8480682" id="Layer-7" stroke-dasharray="1,6"></path>
            </g>
        </g>
    </g>
</svg>