<?xml version="1.0" encoding="UTF-8"?>
<svg width="95px" height="104px" viewBox="0 0 95 104" version="1.1" xmlns="http://www.w3.org/2000/svg" xmlns:xlink="http://www.w3.org/1999/xlink">
    <!-- Generator: Sketch 46 (44423) - http://www.bohemiancoding.com/sketch -->
    <title>food-31</title>
    <desc>Created with Sketch.</desc>
    <defs></defs>
    <g id="ALL" stroke="none" stroke-width="1" fill="none" fill-rule="evenodd" stroke-linecap="round" stroke-linejoin="round">
        <g id="Secondary" transform="translate(-4983.000000, -6264.000000)" stroke="#868E96" stroke-width="3.5">
            <g id="food-31" transform="translate(4985.000000, 6265.000000)">
                <path d="M76.7180961,85.720299 C69.1658603,95.8183369 60.647519,101 56.7838976,101 C53.0711633,101 48.937156,97.7095172 45.2200367,97.6752674 C41.5029174,97.7095172 37.3689101,101 33.6561757,101 C27.0454815,101 6.80784077,85.8303983 1.09838698,56.8200435 C-3.65454589,32.6698754 8.07532993,25.9659824 16.0589776,22.4578565 C24.0274146,18.9564143 43.1315438,22.8622429 45.2200366,22.862243 C47.3085293,22.8622431 66.4126587,18.9564143 74.3810958,22.4578565 C81.3575442,25.5234051 91.1946132,31.029242 90.3941521,48.4842487 C88.9801795,48.1672562 87.5096222,48 86,48 C74.954305,48 66,56.954305 66,68 C66,75.6955061 70.3463046,82.3758784 76.7180961,85.720299 L76.7180961,85.720299 Z" id="Layer-1"></path>
                <path d="M8.00182782,47.7449468 C7.9824443,49.4988309 8.1166073,51.4293235 8.43399116,53.557329 C8.54222462,54.2830161 8.67176537,55.0316726 8.82379024,55.8041275 M25.2182113,29 C23.2241256,29.1202592 21.4146147,29.4303225 20.0442332,30.0324872 C16.9034913,31.4125729 12.9897224,33.4520991 10.4924282,37.6934781 C10.0830464,38.3887678 9.71172976,39.1432281 9.38812355,39.9636538" id="Layer-2"></path>
                <path d="M45.4306641,21 C45.4306641,21 46.6347656,13.2324219 43.5429688,7.11621094 C40.4511719,1 33,1 33,1" id="Layer-3"></path>
                <path d="M60.0563673,13.6104443 C52.9915493,15.5034566 45.6321914,10.9466251 45.6321914,10.9466251 C45.6321914,10.9466251 49.7271666,3.3206142 56.7919845,1.42760192 C63.8568025,-0.465410347 71.2161605,4.09142121 71.2161605,4.09142121 C71.2161605,4.09142121 67.1211853,11.7174321 60.0563673,13.6104443 L60.0563673,13.6104443 Z" id="Layer-4"></path>
            </g>
        </g>
    </g>
</svg>