<?xml version="1.0" encoding="UTF-8"?>
<svg width="104px" height="104px" viewBox="0 0 104 104" version="1.1" xmlns="http://www.w3.org/2000/svg" xmlns:xlink="http://www.w3.org/1999/xlink">
    <!-- Generator: Sketch 46 (44423) - http://www.bohemiancoding.com/sketch -->
    <title>food-37</title>
    <desc>Created with Sketch.</desc>
    <defs></defs>
    <g id="ALL" stroke="none" stroke-width="1" fill="none" fill-rule="evenodd" stroke-linecap="round" stroke-linejoin="round">
        <g id="Secondary" transform="translate(-6751.000000, -6263.000000)" stroke="#868E96" stroke-width="3.5">
            <g id="food-37" transform="translate(6753.000000, 6265.000000)">
                <path d="M74.25,47.5 C80.4632034,47.5 85.5,42.4632034 85.5,36.25 C85.5,30.0367966 80.4632034,25 74.25,25 C68.0367966,25 63,30.0367966 63,36.25 C63,42.4632034 68.0367966,47.5 74.25,47.5 Z" id="Layer-1"></path>
                <path d="M77,80 C81.9705627,80 86,75.9705627 86,71 C86,66.0294373 81.9705627,62 77,62 C72.0294373,62 68,66.0294373 68,71 C68,75.9705627 72.0294373,80 77,80 Z" id="Layer-2"></path>
                <path d="M88.25,65.5 C94.4632034,65.5 99.5,60.4632034 99.5,54.25 C99.5,48.0367966 94.4632034,43 88.25,43 C82.0367966,43 77,48.0367966 77,54.25 C77,60.4632034 82.0367966,65.5 88.25,65.5 Z" id="Layer-3"></path>
                <path d="M56.25,32.5 C62.4632034,32.5 67.5,27.4632034 67.5,21.25 C67.5,15.0367966 62.4632034,10 56.25,10 C50.0367966,10 45,15.0367966 45,21.25 C45,27.4632034 50.0367966,32.5 56.25,32.5 Z" id="Layer-4"></path>
                <path d="M45.25,52.5 C51.4632034,52.5 56.5,47.4632034 56.5,41.25 C56.5,35.0367966 51.4632034,30 45.25,30 C39.0367966,30 34,35.0367966 34,41.25 C34,47.4632034 39.0367966,52.5 45.25,52.5 Z" id="Layer-5"></path>
                <path d="M36.25,73.5 C42.4632034,73.5 47.5,68.4632034 47.5,62.25 C47.5,56.0367966 42.4632034,51 36.25,51 C30.0367966,51 25,56.0367966 25,62.25 C25,68.4632034 30.0367966,73.5 36.25,73.5 Z" id="Layer-6"></path>
                <path d="M33.75,32.5 C39.9632034,32.5 45,27.4632034 45,21.25 C45,15.0367966 39.9632034,10 33.75,10 C27.5367966,10 22.5,15.0367966 22.5,21.25 C22.5,27.4632034 27.5367966,32.5 33.75,32.5 Z" id="Layer-7"></path>
                <path d="M63.25,67.5 C69.4632034,67.5 74.5,62.4632034 74.5,56.25 C74.5,50.0367966 69.4632034,45 63.25,45 C57.0367966,45 52,50.0367966 52,56.25 C52,62.4632034 57.0367966,67.5 63.25,67.5 Z" id="Layer-8"></path>
                <path d="M56.25,88.75 C62.4632034,88.75 67.5,83.7132034 67.5,77.5 C67.5,71.2867966 62.4632034,66.25 56.25,66.25 C50.0367966,66.25 45,71.2867966 45,77.5 C45,83.7132034 50.0367966,88.75 56.25,88.75 Z" id="Layer-9"></path>
                <path d="M22.5,55 C28.7132034,55 33.75,49.9632034 33.75,43.75 C33.75,37.5367966 28.7132034,32.5 22.5,32.5 C16.2867966,32.5 11.25,37.5367966 11.25,43.75 C11.25,49.9632034 16.2867966,55 22.5,55 Z" id="Layer-10"></path>
                <path d="M11.25,77.5 C17.4632034,77.5 22.5,72.4632034 22.5,66.25 C22.5,60.0367966 17.4632034,55 11.25,55 C5.03679656,55 0,60.0367966 0,66.25 C0,72.4632034 5.03679656,77.5 11.25,77.5 Z" id="Layer-11"></path>
                <path d="M34.875,97.75 C41.0882034,97.75 46.125,92.7132034 46.125,86.5 C46.125,80.2867966 41.0882034,75.25 34.875,75.25 C28.6617966,75.25 23.625,80.2867966 23.625,86.5 C23.625,92.7132034 28.6617966,97.75 34.875,97.75 Z" id="Layer-12"></path>
                <path d="M11.25,100 C17.4632034,100 22.5,94.9632034 22.5,88.75 C22.5,82.5367966 17.4632034,77.5 11.25,77.5 C5.03679656,77.5 0,82.5367966 0,88.75 C0,94.9632034 5.03679656,100 11.25,100 Z" id="Layer-13"></path>
                <path d="M99.8505859,0 C99.8505859,0 98.8740234,8.18261719 92.1181641,16.9804688 C88.8903646,21.1838867 83.8974728,24.3426946 79.5629474,26.4955544" id="Layer-14"></path>
                <path d="M86.7605558,9.14699311 C84.7511767,3.31133228 78.0906346,0.313119618 78.0906346,0.313119618 C78.0906346,0.313119618 74.6879399,6.77638259 76.697319,12.6120434 C78.7066982,18.4477043 85.3672403,21.4459169 85.3672403,21.4459169 C85.3672403,21.4459169 88.769935,14.9826539 86.7605558,9.14699311 L86.7605558,9.14699311 Z" id="Layer-15"></path>
            </g>
        </g>
    </g>
</svg>