<?xml version="1.0" encoding="UTF-8"?>
<svg width="104px" height="94px" viewBox="0 0 104 94" version="1.1" xmlns="http://www.w3.org/2000/svg" xmlns:xlink="http://www.w3.org/1999/xlink">
    <!-- Generator: Sketch 46 (44423) - http://www.bohemiancoding.com/sketch -->
    <title>gaming-12</title>
    <desc>Created with Sketch.</desc>
    <defs></defs>
    <g id="ALL" stroke="none" stroke-width="1" fill="none" fill-rule="evenodd" stroke-linecap="round" stroke-linejoin="round">
        <g id="Secondary" transform="translate(-3634.000000, -5661.000000)" stroke="#868E96" stroke-width="3.5">
            <g id="gaming-12" transform="translate(3636.000000, 5663.000000)">
                <path d="M26.5584502,64.8181818 L73.2791848,64.8181818 L73.2791848,64.8181818 C72.795269,62.9347832 72.9358099,60.7692339 73.7369716,59.253341 C75.4473883,56.0161453 78.9734566,54.6136871 82.1057216,55.0909881 C85.2379866,55.5682892 88.1494716,59.0340805 89.0161383,61.8203441 C89.3281977,62.8232526 89.5442202,63.8240784 89.6761405,64.8181818 L95.2833333,64.8181818 C98.0416667,64.8181818 100,62.4659091 100,59.6933636 C100,33.8037273 81.8104167,0 50,0 C18.1895833,0 0,31.8863636 0,59.4591818 C0,62.3237273 2.13958333,64.8181818 4.99375,64.8181818 L10.1614944,64.8181818 C10.2934147,63.8240784 10.5094372,62.8232526 10.8214967,61.8203441 C11.6881633,59.0340805 14.5996484,55.5682892 17.7319133,55.0909881 C20.8641783,54.6136871 24.3902467,56.0161453 26.1006633,59.253341 C26.901825,60.7692339 27.0423659,62.9347832 26.5584502,64.8181818 L26.5584502,64.8181818 Z" id="Layer-1"></path>
                <path d="M89.0161383,61.8203441 C88.1494716,59.0340805 85.2379866,55.5682892 82.1057216,55.0909881 C78.9734566,54.6136871 75.4473883,56.0161453 73.7369716,59.253341 C72.4557216,61.6776179 72.8640549,65.7634364 74.8140549,67.6995484 C79.0619716,71.9192795 78.3869716,79.6575217 78.3869716,90 C78.3869716,90 93.4661383,76.1219231 89.0161383,61.8203441 Z" id="Layer-2"></path>
                <ellipse id="Layer-3" cx="65.0141509" cy="46.1" rx="9.01415094" ry="9.1"></ellipse>
                <ellipse id="Layer-4" cx="49.0141509" cy="19.1" rx="9.01415094" ry="9.1"></ellipse>
                <ellipse id="Layer-5" cx="34.0141509" cy="46.1" rx="9.01415094" ry="9.1"></ellipse>
                <path d="M42.9107628,47.5733354 C44.8700348,48.4890215 47.0527944,49 49.3537736,49 C51.7724005,49 54.0604098,48.4354337 56.0955468,47.4297201 C56.0325974,46.9956773 56,46.5516817 56,46.1 C56,41.3140542 59.6597666,37.3910334 64.3081793,37.0274973 C64.5694224,35.8943324 64.7075472,34.7134502 64.7075472,33.5 C64.7075472,28.1342145 62.0067365,23.4052448 57.9026214,20.6229543 C57.1848168,24.9237255 53.4784818,28.2 49.0141509,28.2 C44.6985373,28.2 41.0912595,25.1383704 40.2072824,21.0492664 C36.4406291,23.8738958 34,28.3992137 34,33.5 C34,34.7064817 34.1365429,35.8807683 34.3948792,37.0079702 C39.1966721,37.2093861 43.0283019,41.202969 43.0283019,46.1 C43.0283019,46.6016266 42.988097,47.0937733 42.9107628,47.5733354 Z" id="Layer-6"></path>
                <path d="M54.108498,64.8181818 C54.2620439,65.0433131 54.431288,65.2506719 54.6160716,65.4361274 C58.4003769,69.2360565 57.7990454,76.2044558 57.7990454,85.5180074 C57.7990454,85.5180074 68.1535782,75.8849755 67.9982702,64.8181818 L54.108498,64.8181818 L54.108498,64.8181818 Z" id="Layer-7"></path>
                <path d="M45.891502,64.8181818 C45.7379561,65.0433131 45.568712,65.2506719 45.3839284,65.4361274 C41.5996231,69.2360565 42.2009546,76.2044558 42.2009546,85.5180074 C42.2009546,85.5180074 31.8464218,75.8849755 32.0017298,64.8181818 L45.891502,64.8181818 Z" id="Layer-8"></path>
                <path d="M26.0161383,61.8203441 C25.1494716,59.0340805 22.2379866,55.5682892 19.1057216,55.0909881 C15.9734566,54.6136871 12.4473883,56.0161453 10.7369716,59.253341 C9.4557216,61.6776179 9.86405493,65.7634364 11.8140549,67.6995484 C16.0619716,71.9192795 15.3869716,79.6575217 15.3869716,90 C15.3869716,90 30.4661383,76.1219231 26.0161383,61.8203441 Z" id="Layer-9" transform="translate(18.418817, 72.500000) scale(-1, 1) translate(-18.418817, -72.500000) "></path>
            </g>
        </g>
    </g>
</svg>