<?xml version="1.0" encoding="UTF-8"?>
<svg width="103px" height="96px" viewBox="0 0 103 96" version="1.1" xmlns="http://www.w3.org/2000/svg" xmlns:xlink="http://www.w3.org/1999/xlink">
    <!-- Generator: Sketch 46 (44423) - http://www.bohemiancoding.com/sketch -->
    <title>gaming-23</title>
    <desc>Created with Sketch.</desc>
    <defs></defs>
    <g id="ALL" stroke="none" stroke-width="1" fill="none" fill-rule="evenodd" stroke-linecap="round" stroke-linejoin="round">
        <g id="Secondary" transform="translate(-6906.000000, -5661.000000)" stroke="#868E96" stroke-width="3.5">
            <g id="gaming-23" transform="translate(6908.000000, 5663.000000)">
                <circle id="Layer-1" cx="22.9073858" cy="68.9073858" r="7.33036345"></circle>
                <path d="M30.2377492,68.9077573 L45.8147716,68.9077573 C45.8147716,56.2551478 35.5588808,46 22.9073858,46 C10.2558907,46 0,56.2551478 0,68.9077573 L0,68.9077573 L15.5770223,68.9077573 C15.5770223,64.8589378 18.8589378,61.5770223 22.9073858,61.5770223 C26.9558337,61.5770223 30.2377492,64.8589378 30.2377492,68.9073858 L30.2377492,68.9077573 Z" id="Layer-2"></path>
                <path d="M-1.13686838e-13,68.9073858 C-1.13686838e-13,81.5599952 10.2558907,91.815143 22.9073858,91.815143 C35.5588808,91.815143 45.8147716,81.5599952 45.8147716,68.9073858 L30.2377492,68.9073858 C30.2377492,72.9562052 26.9558337,76.2381207 22.9073858,76.2381207 C18.8589378,76.2381207 15.5770223,72.9562052 15.5770223,68.9077573 L-1.13686838e-13,68.9073858 L-1.13686838e-13,68.9073858 Z" id="Layer-3"></path>
                <circle id="Layer-4" cx="76.5631766" cy="68.5631766" r="7.22021652"></circle>
                <path d="M83.7833931,68.5635425 L99.1263532,68.5635425 C99.1263532,56.1010527 89.0245688,46 76.5631766,46 C64.1017845,46 54,56.1010527 54,68.5635425 L54,68.5635425 L69.3429601,68.5635425 C69.3429601,64.5755611 72.5755611,61.3429601 76.5631766,61.3429601 C80.5507921,61.3429601 83.7833931,64.5755611 83.7833931,68.5631766 L83.7833931,68.5635425 Z" id="Layer-5"></path>
                <path d="M54,68.5631766 C54,81.0256664 64.1017845,91.1267191 76.5631766,91.1267191 C89.0245688,91.1267191 99.1263532,81.0256664 99.1263532,68.5631766 L83.7833931,68.5631766 C83.7833931,72.551158 80.5507921,75.783759 76.5631766,75.783759 C72.5755611,75.783759 69.3429601,72.551158 69.3429601,68.5635425 L54,68.5631766 L54,68.5631766 Z" id="Layer-6"></path>
                <circle id="Layer-7" cx="50.7069195" cy="22.7069195" r="7.26621422"></circle>
                <path d="M57.9731337,22.7072877 L73.4138389,22.7072877 C73.4138389,10.1654033 63.2476992,0 50.7069195,0 C38.1661397,0 28,10.1654033 28,22.7072877 L28,22.7072877 L43.4407052,22.7072877 C43.4407052,18.6939001 46.6939001,15.4407052 50.7069195,15.4407052 C54.7199388,15.4407052 57.9731337,18.6939001 57.9731337,22.7069195 L57.9731337,22.7072877 Z" id="Layer-8"></path>
                <path d="M28,22.7069195 C28,35.2488038 38.1661397,45.4142071 50.7069195,45.4142071 C63.2476992,45.4142071 73.4138389,35.2488038 73.4138389,22.7069195 L57.9731337,22.7069195 C57.9731337,26.720307 54.7199388,29.9735019 50.7069195,29.9735019 C46.6939001,29.9735019 43.4407052,26.720307 43.4407052,22.7072877 L28,22.7069195 L28,22.7069195 Z" id="Layer-9"></path>
            </g>
        </g>
    </g>
</svg>