<?xml version="1.0" encoding="UTF-8"?>
<svg width="104px" height="104px" viewBox="0 0 104 104" version="1.1" xmlns="http://www.w3.org/2000/svg" xmlns:xlink="http://www.w3.org/1999/xlink">
    <!-- Generator: Sketch 46 (44423) - http://www.bohemiancoding.com/sketch -->
    <title>gaming-37</title>
    <desc>Created with Sketch.</desc>
    <defs></defs>
    <g id="ALL" stroke="none" stroke-width="1" fill="none" fill-rule="evenodd" stroke-linecap="round" stroke-linejoin="round">
        <g id="Secondary" transform="translate(-1606.000000, -5962.000000)" stroke="#868E96" stroke-width="3.5">
            <g id="gaming-37" transform="translate(1608.000000, 5964.000000)">
                <path d="M46,34 L46,4.50003516 C46,2.01867187 48.0186719,0 50.5000352,0 L95.4999648,0 C97.9813281,0 100,2.01867187 100,4.50003516 L100,49.4999648 C100,51.9813281 97.9813281,54 95.5000703,54 L57.2500176,54 L64,54 L64,34 L46,34 L46,34 Z" id="Layer-1"></path>
                <circle id="Layer-2" cx="92.98" cy="7.56" r="2.7"></circle>
                <circle id="Layer-3" cx="53.56" cy="7.56" r="2.7"></circle>
                <circle id="Layer-4" cx="92.98" cy="46.98" r="2.7"></circle>
                <rect id="Layer-5" x="0" y="34" width="64" height="20"></rect>
                <rect id="Layer-6" x="8" y="54" width="50" height="46"></rect>
                <path d="M64.9,23.0980901 C64.9,18.5325373 68.633004,14.8381749 73.2137792,14.9025774 C77.5662183,14.963467 81.2324778,18.6285556 81.2933674,22.9821656 C81.3343509,25.9224331 79.827332,28.5125852 77.5346025,29.9915011 C74.6833275,31.8299002 73.0966837,31.6003931 73.0966837,34.9926492 L73.0966837,35.18" id="Layer-7"></path>
                <circle id="Layer-8" cx="73.1080065" cy="42.4999999" r="2.07999992"></circle>
                <path d="M48,81 L48,99.1100006" id="Layer-9"></path>
                <path d="M48,65 L48,73" id="Layer-10"></path>
            </g>
        </g>
    </g>
</svg>