<?xml version="1.0" encoding="UTF-8"?>
<svg width="104px" height="104px" viewBox="0 0 104 104" version="1.1" xmlns="http://www.w3.org/2000/svg" xmlns:xlink="http://www.w3.org/1999/xlink">
    <!-- Generator: Sketch 46 (44423) - http://www.bohemiancoding.com/sketch -->
    <title>gaming-5</title>
    <desc>Created with Sketch.</desc>
    <defs></defs>
    <g id="ALL" stroke="none" stroke-width="1" fill="none" fill-rule="evenodd" stroke-linecap="round" stroke-linejoin="round">
        <g id="Secondary" transform="translate(-1533.000000, -5661.000000)" stroke="#868E96" stroke-width="3.5">
            <g id="gaming-5" transform="translate(1535.000000, 5663.000000)">
                <path d="M65.816897,82.8094053 C68.6651441,82.8094053 71.4196217,83.8389053 73.5830169,85.7102625 L86.8674374,98.9433101 C87.890529,99.8291196 91.3874914,99.9812625 92.5244459,99.2526672 C108.425066,89.0929053 95.0449628,51.998191 88.2743776,43 C87.8308554,42.4105536 84.9423128,37.8662183 80.6732243,35.5243579 C76.2429552,33.09408 69.6832326,33.8057477 69.1758527,34.1475244 C69.1758527,34.1475244 63.5764769,38.9999998 62.7643665,38.9999998 L50,39 L37.6910851,38.9999998 C36.8789747,38.9999998 30.8241473,34.1475244 30.8241473,34.1475244 C30.3435408,33.8243257 24.2424967,32.8530763 20.0492596,35.129706 C15.5352788,37.5804767 12.1843316,42.3903698 11.7256224,43 C4.95503722,51.998191 -8.42506568,89.0929053 7.47555405,99.2526672 C8.6141831,99.979572 12.1111454,99.8274291 13.1325626,98.9433101 L26.4169831,85.7102625 C28.5803783,83.8389053 31.3348559,82.8094053 34.183103,82.8094053 L50,82.8094063 L65.816897,82.8094053 Z" id="Layer-1"></path>
                <circle id="Layer-2" cx="62.0694915" cy="69.381619" r="7.5"></circle>
                <circle id="Layer-3" cx="24.0864407" cy="51.4768571" r="7.5"></circle>
                <polygon id="Layer-4" points="41.6701088 65.6745517 41.668665 59.9140714 35.894502 59.9140714 35.8959458 65.6745517 30.120339 65.6745519 30.120339 71.4335917 35.8945019 71.4335918 35.894502 77.1940721 41.668665 77.1940721 41.6686649 71.4335918 47.4442718 71.4335917 47.4442718 65.6745519"></polygon>
                <path d="M73,63 C74.9329966,63 76.5,61.4329966 76.5,59.5 C76.5,57.5670034 74.9329966,56 73,56 C71.0670034,56 69.5,57.5670034 69.5,59.5 C69.5,61.4329966 71.0670034,63 73,63 L73,63 Z M73,48 C74.9329966,48 76.5,46.4329966 76.5,44.5 C76.5,42.5670034 74.9329966,41 73,41 C71.0670034,41 69.5,42.5670034 69.5,44.5 C69.5,46.4329966 71.0670034,48 73,48 L73,48 Z M62,52 C62,53.9329966 63.5670034,55.5 65.5,55.5 C67.4329966,55.5 69,53.9329966 69,52 C69,50.0670034 67.4329966,48.5 65.5,48.5 C63.5670034,48.5 62,50.0670034 62,52 L62,52 Z M77,52 C77,53.9329966 78.5670034,55.5 80.5,55.5 C82.4329966,55.5 84,53.9329966 84,52 C84,50.0670034 82.4329966,48.5 80.5,48.5 C78.5670034,48.5 77,50.0670034 77,52 L77,52 Z" id="Layer-5"></path>
                <path d="M81,0 L81,14.4444444 C81,17.4308333 78.6247059,19.8611111 75.7058824,19.8611111 C72.7870588,19.8611111 70.4117647,17.4308333 70.4117647,14.4444444 L70.4117647,9.93055556 C70.4117647,4.45611111 67.3594696,1.89379653e-08 60.7058824,0 C54.0522951,-1.89379653e-08 51,4.45611146 51,9.9305559 L51,39" id="Layer-6"></path>
            </g>
        </g>
    </g>
</svg>