<?xml version="1.0" encoding="UTF-8"?>
<svg width="104px" height="104px" viewBox="0 0 104 104" version="1.1" xmlns="http://www.w3.org/2000/svg" xmlns:xlink="http://www.w3.org/1999/xlink">
    <!-- Generator: Sketch 46 (44423) - http://www.bohemiancoding.com/sketch -->
    <title>gaming-4</title>
    <desc>Created with Sketch.</desc>
    <defs></defs>
    <g id="ALL" stroke="none" stroke-width="1" fill="none" fill-rule="evenodd" stroke-linecap="round" stroke-linejoin="round">
        <g id="Secondary" transform="translate(-1233.000000, -5661.000000)" stroke="#868E96" stroke-width="3.5">
            <g id="gaming-4" transform="translate(1235.000000, 5663.000000)">
                <path d="M63.6983946,64.0300632 C62.6095696,61.7492909 62,59.1958317 62,56.5 C62,46.8350169 69.8350169,39 79.5,39 C89.1649831,39 97,46.8350169 97,56.5 C97,66.1649831 89.1649831,74 79.5,74 C76.4141448,74 73.5148382,73.2012906 70.9975322,71.7993236 C70.8967949,67.7076989 67.7240135,64.3782098 63.6983946,64.0300632 L63.6983946,64.0300632 Z" id="Layer-1"></path>
                <path d="M29.0024678,71.7993236 C26.4851618,73.2012906 23.5858552,74 20.5,74 C10.8350169,74 3,66.1649831 3,56.5 C3,46.8350169 10.8350169,39 20.5,39 C30.1649831,39 38,46.8350169 38,56.5 C38,59.1958317 37.3904304,61.7492909 36.3016054,64.0300632 C32.2759865,64.3782098 29.1032051,67.7076989 29.0024678,71.7993236 L29.0024678,71.7993236 Z" id="Layer-2"></path>
                <path d="M80,68 C78.0670034,68 76.5,66.4329966 76.5,64.5 C76.5,62.5670034 78.0670034,61 80,61 C81.9329966,61 83.5,62.5670034 83.5,64.5 C83.5,66.4329966 81.9329966,68 80,68 Z M80,53 C78.0670034,53 76.5,51.4329966 76.5,49.5 C76.5,47.5670034 78.0670034,46 80,46 C81.9329966,46 83.5,47.5670034 83.5,49.5 C83.5,51.4329966 81.9329966,53 80,53 Z M69,57 C69,55.0670034 70.5670034,53.5 72.5,53.5 C74.4329966,53.5 76,55.0670034 76,57 C76,58.9329966 74.4329966,60.5 72.5,60.5 C70.5670034,60.5 69,58.9329966 69,57 Z M84,57 C84,55.0670034 85.5670034,53.5 87.5,53.5 C89.4329966,53.5 91,55.0670034 91,57 C91,58.9329966 89.4329966,60.5 87.5,60.5 C85.5670034,60.5 84,58.9329966 84,57 Z" id="Layer-3"></path>
                <circle id="Layer-4" cx="37" cy="72" r="8"></circle>
                <path d="M9,53.1300001 L14.5750935,53.1300001 L17.2600002,56.6297139 L14.5750935,60.1300001 L9,60.1300001 L9,53.1300001 Z M32.2600002,53.1300001 L32.2600002,60.1300001 L26.6849067,60.1300001 L24,56.6297139 L26.6849067,53.1300001 L32.2600002,53.1300001 Z M24.1300001,45 L24.1300001,50.5750935 L20.6302863,53.2600002 L17.1300001,50.5750935 L17.1300001,45 L24.1300001,45 Z M17.1300001,68.2600002 L17.1300001,62.6849067 L20.6297139,60 L24.1300001,62.6849067 L24.1300001,68.2600002 L17.1300001,68.2600002 Z" id="Layer-5"></path>
                <path d="M43,57 L46,57" id="Layer-6"></path>
                <path d="M54,57 L57,57" id="Layer-7"></path>
                <path d="M80,0 L80,14.4444444 C80,17.4308333 77.6247059,19.8611111 74.7058824,19.8611111 C71.7870588,19.8611111 69.4117647,17.4308333 69.4117647,14.4444444 L69.4117647,9.93055556 C69.4117647,4.45611111 66.3594696,1.89379653e-08 59.7058824,0 C53.0522951,-1.89379653e-08 50,4.45611146 50,9.9305559 L50,39" id="Layer-8"></path>
                <path d="M63,80 C67.418278,80 71,76.418278 71,72 C71,67.581722 67.418278,64 63,64 C58.581722,64 55,67.581722 55,72 C55,76.418278 58.581722,80 63,80 Z" id="Layer-9"></path>
                <path d="M70.6005325,74.5033105 L71.9331146,77.4694271 L76.3614221,87.3650746 C77.7646104,90.5004746 81.043778,97.7721559 83.9748871,98.9344644 C85.3825813,99.4925627 86.8986228,99.7729559 88.4371939,99.7729559 C89.7551791,99.7729559 91.0895496,99.5672102 92.3864389,99.1546847 C95.1975262,98.2603627 97.6008267,96.4669627 99.1537349,94.1049186 C100.895687,91.4558644 99.5094211,82.2681492 98.8783857,78.8864746 L96.3119249,61.3752429 C94.2008169,68.6679927 87.473087,74 79.5,74 C76.4141448,74 73.5148382,73.2012906 70.9975322,71.7993236 C70.8910357,67.4737763 67.3511898,64 63,64 C59.2054905,64 56.0280025,66.6417826 55.206443,70.1864406 L53.9603838,70.1864407 L46.0387498,70.1864407 L44.793557,70.1864406 C43.9719975,66.6417826 40.7945095,64 37,64 C36.7646907,64 36.5317543,64.0101593 36.3016054,64.0300632 C37.3904304,61.7492909 38,59.1958317 38,56.5 C38,46.8350169 30.1649831,39 20.5,39 C16.0976123,39 12.0749044,40.6256023 8.99939242,43.3092907 C9.77605407,42.4640173 10.6417828,41.7031763 11.5813823,41.0420746 L12.0389392,36.2739424 C12.2177428,34.4075492 13.7532417,33.0002068 15.6105051,33.0002068 L25.655867,33.0002068 C27.5131304,33.0002068 29.0488341,34.4075492 29.2276377,36.2739424 L29.6202683,40.3656983 L70.3800942,40.3656983 L70.7727248,36.2737356 C70.9515284,34.4073424 72.4870273,33 74.3442907,33 L84.3896526,33 C86.246916,33 87.7826197,34.4073424 87.9614233,36.2737356 L88.4189803,41.0424881 C89.3576464,41.7030328 90.2225664,42.4631377 90.998592,43.3075322 C87.9233382,40.6248922 83.901426,39 79.5,39 C69.8350169,39 62,46.8350169 62,56.5 C62,59.1958317 62.6095696,61.7492909 63.6983946,64.0300632 C67.7240135,64.3782098 70.8967949,67.7076989 70.9975322,71.7993236 Z M29.3280249,74.2747144 L28.0668383,77.4700475 L23.6389404,87.3652814 C22.2353425,90.5013017 18.9551508,97.7727763 16.0236321,98.9350847 C14.6163475,99.4929763 13.1001012,99.7731627 11.5619398,99.7731627 C10.2433401,99.7731627 8.90856,99.5674169 7.61085146,99.1542712 C4.8001737,98.2595356 2.39728282,96.4659288 0.845193916,94.1040915 C-0.895734523,91.4550373 0.491555923,82.2675288 1.12300091,78.8864746 L3.68806617,61.375212 C5.79916411,68.6679776 12.5269018,74 20.5,74 C23.5858552,74 26.4851618,73.2012906 29.0024678,71.7993236 C29.0008258,71.8660165 29,71.9329118 29,72 C29,72.7902345 29.1145771,73.5537082 29.3280249,74.2747144 Z" id="Layer-10"></path>
            </g>
        </g>
    </g>
</svg>