<?xml version="1.0" encoding="UTF-8"?>
<svg width="104px" height="104px" viewBox="0 0 104 104" version="1.1" xmlns="http://www.w3.org/2000/svg" xmlns:xlink="http://www.w3.org/1999/xlink">
    <!-- Generator: Sketch 46 (44423) - http://www.bohemiancoding.com/sketch -->
    <title>gaming-38</title>
    <desc>Created with Sketch.</desc>
    <defs></defs>
    <g id="ALL" stroke="none" stroke-width="1" fill="none" fill-rule="evenodd" stroke-linecap="round" stroke-linejoin="round">
        <g id="Secondary" transform="translate(-1906.000000, -5962.000000)" stroke="#868E96" stroke-width="3.5">
            <g id="gaming-38" transform="translate(1908.000000, 5964.000000)">
                <rect id="Layer-1" x="80" y="60" width="20" height="20"></rect>
                <rect id="Layer-2" x="0" y="80" width="20" height="20"></rect>
                <rect id="Layer-3" x="0" y="60" width="20" height="20"></rect>
                <rect id="Layer-4" x="20" y="80" width="20" height="20"></rect>
                <rect id="Layer-5" x="40" y="80" width="20" height="20"></rect>
                <rect id="Layer-6" x="80" y="20" width="20" height="20"></rect>
                <rect id="Layer-7" x="40" y="60" width="20" height="20"></rect>
                <rect id="Layer-8" x="60" y="80" width="20" height="20"></rect>
                <rect id="Layer-9" x="60" y="60" width="20" height="20"></rect>
                <rect id="Layer-10" x="80" y="80" width="20" height="20"></rect>
                <rect id="Layer-11" x="80" y="40" width="20" height="20"></rect>
                <rect id="Layer-12" x="10" y="20" width="20" height="20"></rect>
                <rect id="Layer-13" x="10" y="0" width="20" height="20"></rect>
                <rect id="Layer-14" x="30" y="0" width="20" height="20"></rect>
                <rect id="Layer-15" x="50" y="0" width="20" height="20"></rect>
            </g>
        </g>
    </g>
</svg>