<?xml version="1.0" encoding="UTF-8"?>
<svg width="104px" height="104px" viewBox="0 0 104 104" version="1.1" xmlns="http://www.w3.org/2000/svg" xmlns:xlink="http://www.w3.org/1999/xlink">
    <!-- Generator: Sketch 46 (44423) - http://www.bohemiancoding.com/sketch -->
    <title>gaming-13</title>
    <desc>Created with Sketch.</desc>
    <defs></defs>
    <g id="ALL" stroke="none" stroke-width="1" fill="none" fill-rule="evenodd" stroke-linecap="round" stroke-linejoin="round">
        <g id="Secondary" transform="translate(-3934.000000, -5661.000000)" stroke="#868E96" stroke-width="3.5">
            <g id="gaming-13" transform="translate(3936.000000, 5663.000000)">
                <path d="M17,50 L83,50 L83,45 L93,45 L93,50 L100,50 L100,4.00718972 C100,1.79407995 98.2004701,0 96.0026765,0 L3.99732351,0 C1.78966269,0 0,1.79426827 0,4.00718972 L0,50 L7,50 L7,45 L17,45 L17,50 L17,50 Z" id="Layer-1"></path>
                <path d="M17,50 L83,50 L83,55 L93,55 L93,50 L100,50 L100,95.9928103 C100,98.2059201 98.2004701,100 96.0026765,100 L3.99732351,100 C1.78966269,100 0,98.2057317 0,95.9928103 L0,50 L7,50 L7,55 L17,55 L17,50 L17,50 Z" id="Layer-2"></path>
                <rect id="Layer-3" x="29" y="58" width="42" height="32"></rect>
                <rect id="Layer-4" x="24" y="9" width="52" height="32"></rect>
                <path d="M86,83 C87.6568542,83 89,81.6568542 89,80 C89,78.3431458 87.6568542,77 86,77 C84.3431458,77 83,78.3431458 83,80 C83,81.6568542 84.3431458,83 86,83 L86,83 Z M86,69 C87.6568542,69 89,67.6568542 89,66 C89,64.3431458 87.6568542,63 86,63 C84.3431458,63 83,64.3431458 83,66 C83,67.6568542 84.3431458,69 86,69 L86,69 Z M76,73 C76,74.6568542 77.3431458,76 79,76 C80.6568542,76 82,74.6568542 82,73 C82,71.3431458 80.6568542,70 79,70 C77.3431458,70 76,71.3431458 76,73 L76,73 Z M90,73 C90,74.6568542 91.3431458,76 93,76 C94.6568542,76 96,74.6568542 96,73 C96,71.3431458 94.6568542,70 93,70 C91.3431458,70 90,71.3431458 90,73 L90,73 Z" id="Layer-5"></path>
                <polygon id="Layer-6" points="17.3338056 70.6671389 17.3323888 65 11.6661944 65 11.6676113 70.6671389 6 70.6671391 6 76.3328609 11.6661944 76.3328611 11.6661944 82 17.3323888 82 17.3323887 76.3328611 23 76.3328609 23 70.6671391"></polygon>
                <rect id="Layer-7" x="83" y="45" width="10" height="10"></rect>
                <path d="M38.7977852,16 L30,24.7977852" id="Layer-8"></path>
                <path d="M50.7977852,16 L33.5160951,33.2816901" id="Layer-9"></path>
                <rect id="Layer-10" x="7" y="45" width="10" height="10"></rect>
            </g>
        </g>
    </g>
</svg>