<?xml version="1.0" encoding="UTF-8"?>
<svg width="104px" height="104px" viewBox="0 0 104 104" version="1.1" xmlns="http://www.w3.org/2000/svg" xmlns:xlink="http://www.w3.org/1999/xlink">
    <!-- Generator: Sketch 46 (44423) - http://www.bohemiancoding.com/sketch -->
    <title>gaming-35</title>
    <desc>Created with Sketch.</desc>
    <defs></defs>
    <g id="ALL" stroke="none" stroke-width="1" fill="none" fill-rule="evenodd" stroke-linecap="round" stroke-linejoin="round">
        <g id="Secondary" transform="translate(-1006.000000, -5962.000000)" stroke="#868E96" stroke-width="3.5">
            <g id="gaming-35" transform="translate(1008.000000, 5964.000000)">
                <path d="M19,79.5553471 C16.0448794,79.5088945 14.2433802,79.4488229 14.1216797,79.3716797 C4.22324219,73.1099609 -2.62901029e-13,65.8199219 0.0017578125,54.9117187 C0.018359375,46.3449219 2.375,37.4583984 6.81660156,29.2097656 C7.25507812,28.3980469 10.2865852,22.9345875 11,22 C11.7134148,21.0654125 22.6599609,0 50,0 C77.3400391,0 85.2984375,17.5699219 88.8533203,22.3017578 C94.3166016,29.8701172 97.9466797,38.4333984 99.35,47.0683594 C99.4966797,47.9767578 99.9984375,54.0517578 99.9984375,54.9152344 C100.000195,65.8369141 95.7601562,73.1351563 85.8234375,79.4035156 C85.5484375,79.5767578 85.2417969,79.6601562 84.9367187,79.6601562 C84.8487586,79.6601562 83.018881,79.6653338 80,79.6720608 L80,73.0278483 C79.9998014,72.4229167 79.7168424,71.859668 79.2458398,71.5255697 C78.8137565,71.216862 68.4336296,64 49.4998014,64 C30.5659733,64 20.1876335,71.216862 19.7539616,71.5255697 C19.282959,71.859668 19,72.4229167 19,73.0278483 L19,79.5553471 L19,79.5553471 Z" id="Layer-1"></path>
                <path d="M34,34.6666016 C34,25.4765625 41.4767578,18 50.6666016,18 C59.8564453,18 67.3332031,25.4767578 67.3332031,34.6666016 C67.3332031,43.8564453 59.8566406,51.3332031 50.6666016,51.3332031 C41.4765625,51.3332031 34,43.8564453 34,34.6666016 L34,34.6666016 Z" id="Layer-2"></path>
                <path d="M79.2458398,71.5255697 C78.8137565,71.216862 68.4336296,64 49.4998014,64 C30.5659733,64 20.1876335,71.216862 19.7539616,71.5255697 C19.282959,71.859668 19,72.4229167 19,73.0278483 L19,83.8611816 C19,89.9297526 22.9616243,100.111182 49.5,100.111182 C76.0367871,100.111182 80,89.9297526 80,83.8611816 L80,73.0278483 C79.9998014,72.4229167 79.7168424,71.859668 79.2458398,71.5255697 L79.2458398,71.5255697 Z" id="Layer-3"></path>
                <path d="M41,75 L41,83" id="Layer-4"></path>
                <path d="M59,75 L59,83" id="Layer-5"></path>
                <path d="M87.9290359,21 C88.2984127,21.4392064 88.6078272,21.8272025 88.8533203,22.1539736 C94.3166016,29.722333 97.9466797,38.2856142 99.35,46.9205752 C99.4260888,47.3917988 99.5977264,49.2533154 99.7453077,51.05645 C99.0641813,51.1415663 98.3704164,51.1854189 97.6666016,51.1854189 C88.4765625,51.1854189 81,43.7086611 81,34.5188173 C81,28.9609052 83.7346513,24.0297034 87.9290359,21 L87.9290359,21 Z" id="Layer-6"></path>
                <path d="M11.818029,21 C11.4486523,21.4392064 11.1392377,21.8272025 10.8937446,22.1539736 C5.43046338,29.722333 1.80038525,38.2856142 0.397064942,46.9205752 C0.320976156,47.3917988 0.149338563,49.2533154 0.00175726401,51.05645 C0.682883651,51.1415663 1.37664858,51.1854189 2.08046338,51.1854189 C11.2705024,51.1854189 18.7470649,43.7086611 18.7470649,34.5188173 C18.7470649,28.9609052 16.0124137,24.0297034 11.818029,21 L11.818029,21 L11.818029,21 Z" id="Layer-7"></path>
            </g>
        </g>
    </g>
</svg>