<?xml version="1.0" encoding="UTF-8"?>
<svg width="102px" height="104px" viewBox="0 0 102 104" version="1.1" xmlns="http://www.w3.org/2000/svg" xmlns:xlink="http://www.w3.org/1999/xlink">
    <!-- Generator: Sketch 46 (44423) - http://www.bohemiancoding.com/sketch -->
    <title>gaming-27</title>
    <desc>Created with Sketch.</desc>
    <defs></defs>
    <g id="ALL" stroke="none" stroke-width="1" fill="none" fill-rule="evenodd" stroke-linecap="round" stroke-linejoin="round">
        <g id="Secondary" transform="translate(-8092.000000, -5661.000000)" stroke="#868E96" stroke-width="3.5">
            <g id="gaming-27" transform="translate(8093.000000, 5663.000000)">
                <polygon id="Layer-1" points="19.1435561 74.3063639 26.1446134 81.3774317 14.165804 93.4760291 7.16474678 86.4049613"></polygon>
                <polygon id="Layer-2" points="17.9831197 59.7106781 40.3865029 82.3380951 33.3854456 89.4091629 10.9820625 66.7817459"></polygon>
                <path d="M3.2808995,97.1873375 C5.98750351,99.9210076 9.67566991,100.628114 12.3822739,97.8944443 C15.0888779,95.1607743 14.3887722,91.4357262 11.6821682,88.7020561 C8.97556419,85.9683861 5.28739778,85.2612793 2.58079378,87.9949494 C-0.125810222,90.7286194 0.574295502,94.4536675 3.2808995,97.1873375 L3.2808995,97.1873375 Z" id="Layer-3"></path>
                <polygon id="Layer-4" transform="translate(83.345320, 83.891197) scale(-1, 1) translate(-83.345320, -83.891197) " points="85.834196 74.3063639 92.8352532 81.3774317 80.8564439 93.4760291 73.8553866 86.4049613"></polygon>
                <polygon id="Layer-5" transform="translate(74.315717, 74.559921) scale(-1, 1) translate(-74.315717, -74.559921) " points="66.6145544 59.7106781 89.0179375 82.3380951 82.0168803 89.4091629 59.6134971 66.7817459"></polygon>
                <path d="M88.3178318,97.1873375 C91.0244358,99.9210076 94.7126022,100.628114 97.4192062,97.8944443 C100.12581,95.1607743 99.4257045,91.4357262 96.7191005,88.7020561 C94.0124965,85.9683861 90.3243301,85.2612793 87.6177261,87.9949494 C84.9111221,90.7286194 85.6112278,94.4536675 88.3178318,97.1873375 L88.3178318,97.1873375 Z" id="Layer-6" transform="translate(92.518466, 92.944697) scale(-1, 1) translate(-92.518466, -92.944697) "></path>
                <polygon id="Layer-7" transform="translate(39.127829, 38.670504) scale(-1, 1) translate(-39.127829, -38.670504) " points="52.5644515 4.23596166 77.3276414 0.189073698 73.1220477 24.9991339 14.4845545 77.1519342 0.928017109 63.4598282"></polygon>
                <polygon id="Layer-8" transform="translate(39.127829, 35.359985) scale(-1, 1) translate(-39.127829, -35.359985) " points="77.2766587 0.4898358 77.3276414 0.189073698 52.5644515 4.23596166 0.928017109 63.4598282 7.92907353 70.5308968 77.2766587 0.4898358"></polygon>
                <path d="M50,64.9037701 L36.228896,77.1519342 L22.6723586,63.4598282 L33.8990872,50.5834497 L33.8990872,50.5834497 L22.6723586,63.4598282 L29.673415,70.5308968 L42.1540265,57.9254792 L50,64.9037701 Z M66.1009128,50.5834497 L58.2915489,41.6265817 L99.0210002,0.4898358 L99.0719829,0.189073698 L74.308793,4.23596166 L50,32.1166767 L50,32.1166767 L74.308793,4.23596166 L99.0719829,0.189073698 L94.8663892,24.9991339 L66.1009128,50.5834497 Z" id="Layer-9"></path>
            </g>
        </g>
    </g>
</svg>