<?xml version="1.0" encoding="UTF-8"?>
<svg width="104px" height="104px" viewBox="0 0 104 104" version="1.1" xmlns="http://www.w3.org/2000/svg" xmlns:xlink="http://www.w3.org/1999/xlink">
    <!-- Generator: Sketch 46 (44423) - http://www.bohemiancoding.com/sketch -->
    <title>gaming-45</title>
    <desc>Created with Sketch.</desc>
    <defs></defs>
    <g id="ALL" stroke="none" stroke-width="1" fill="none" fill-rule="evenodd" stroke-linecap="round" stroke-linejoin="round">
        <g id="Secondary" transform="translate(-4006.000000, -5962.000000)" stroke="#868E96" stroke-width="3.5">
            <g id="gaming-45" transform="translate(4008.000000, 5964.000000)">
                <path d="M99.0344828,59.7758621 C99.1068966,59.4137931 99.1655172,59.05 99.2293103,58.687931 C99.3362069,58.0810345 99.4344828,57.4724138 99.5189655,56.8586207 C99.5672414,56.5086207 99.612069,56.1586207 99.6534483,55.8086207 C99.7310345,55.1465517 99.7913793,54.4793103 99.8413793,53.8103448 C99.8637931,53.5103448 99.8931034,53.212069 99.9103448,52.912069 C99.9637931,51.9465517 100,50.9775862 100,50 C100,49.0224138 99.9637931,48.0534483 99.9086207,47.0913793 C99.8913793,46.7913793 99.862069,46.4931034 99.8396552,46.1931034 C99.787931,45.5224138 99.7275862,44.8568966 99.6517241,44.1948276 C99.6103448,43.8431034 99.5655172,43.4948276 99.5172414,43.1448276 C99.4327586,42.5310345 99.3344828,41.9224138 99.2275862,41.3155172 C99.1637931,40.9517241 99.1034483,40.587931 99.0327586,40.2275862 C98.9068966,39.5931034 98.762069,38.9672414 98.612069,38.3413793 C98.5465517,38.0637931 98.4965517,37.7810345 98.4258621,37.5051724 L98.0931034,36.2068966 L98.05,36.2068966 C93.3068966,19.7103448 80.2896552,6.69310345 63.7931034,1.95 L63.7931034,1.90689655 L62.4982759,1.57413793 C62.2396552,1.50862069 61.9775862,1.46206897 61.7172414,1.4 C61.062069,1.24137931 60.4051724,1.09137931 59.7396552,0.95862069 C59.4258621,0.896551724 59.112069,0.844827586 58.7965517,0.789655172 C58.1051724,0.665517241 57.4103448,0.556896552 56.7086207,0.462068966 C56.4586207,0.429310345 56.2068966,0.396551724 55.9568966,0.365517241 C55.1086207,0.263793103 54.2534483,0.184482759 53.3931034,0.125862069 C53.2862069,0.118965517 53.1793103,0.10862069 53.0724138,0.101724138 C52.0551724,0.0413793103 51.0327586,0 50,0 C48.9672414,0 47.9448276,0.0413793103 46.9275862,0.103448276 C46.8206897,0.110344828 46.7137931,0.120689655 46.6068966,0.127586207 C45.7465517,0.186206897 44.8913793,0.265517241 44.0431034,0.367241379 C43.7913793,0.396551724 43.5413793,0.429310345 43.2913793,0.463793103 C42.5913793,0.55862069 41.8948276,0.668965517 41.2034483,0.79137931 C40.887931,0.846551724 40.5741379,0.898275862 40.2603448,0.960344828 C39.5948276,1.09137931 38.937931,1.24310345 38.2827586,1.40172414 C38.0241379,1.4637931 37.7603448,1.50862069 37.5017241,1.57586207 L36.2068966,1.90689655 L36.2068966,1.95 C19.7103448,6.69310345 6.69310345,19.7103448 1.95,36.2068966 L1.90689655,36.2068966 L1.57413793,37.5017241 C1.50344828,37.7775862 1.45344828,38.0586207 1.38793103,38.3344828 C1.23793103,38.962069 1.09137931,39.5896552 0.965517241,40.2258621 C0.894827586,40.5862069 0.834482759,40.9465517 0.772413793,41.3086207 C0.665517241,41.9172414 0.567241379,42.5275862 0.482758621,43.1431034 C0.434482759,43.4931034 0.389655172,43.8413793 0.348275862,44.1931034 C0.270689655,44.8568966 0.210344828,45.5258621 0.160344828,46.1982759 C0.137931034,46.4965517 0.110344828,46.7913793 0.0931034483,47.0896552 C0.0362068966,48.0534483 0,49.0224138 0,50 C0,50.9775862 0.0362068966,51.9465517 0.0913793103,52.912069 C0.10862069,53.2103448 0.136206897,53.5068966 0.15862069,53.8034483 C0.20862069,54.4758621 0.270689655,55.1431034 0.346551724,55.8086207 C0.387931034,56.1586207 0.432758621,56.5086207 0.481034483,56.8586207 C0.565517241,57.4741379 0.663793103,58.0844828 0.770689655,58.6931034 C0.834482759,59.0551724 0.893103448,59.4155172 0.963793103,59.7758621 C1.08965517,60.412069 1.2362069,61.0396552 1.3862069,61.6672414 C1.45172414,61.9448276 1.50172414,62.2241379 1.57241379,62.5 L1.90689655,63.7931034 L1.95,63.7931034 C6.69310345,80.2896552 19.7103448,93.3068966 36.2068966,98.05 L36.2068966,98.0931034 L37.5017241,98.4258621 C37.7775862,98.4965517 38.0586207,98.5465517 38.3344828,98.612069 C38.962069,98.762069 39.5896552,98.9086207 40.2258621,99.0344828 C40.5844828,99.1051724 40.9465517,99.1655172 41.3086207,99.2275862 C41.9172414,99.3344828 42.5275862,99.4327586 43.1431034,99.5172414 C43.4931034,99.5655172 43.8413793,99.6103448 44.1931034,99.6517241 C44.8568966,99.7293103 45.5258621,99.7896552 46.1982759,99.8413793 C46.4948276,99.8637931 46.7913793,99.8913793 47.0896552,99.9086207 C48.0534483,99.9637931 49.0224138,100 50,100 C50.9775862,100 51.9465517,99.9637931 52.912069,99.9086207 C53.2103448,99.8913793 53.5068966,99.8637931 53.8034483,99.8413793 C54.4758621,99.7913793 55.1431034,99.7293103 55.8086207,99.6517241 C56.1586207,99.6103448 56.5086207,99.5655172 56.8586207,99.5172414 C57.4741379,99.4327586 58.0844828,99.3344828 58.6931034,99.2275862 C59.0551724,99.1637931 59.4155172,99.1051724 59.7758621,99.0344828 C60.412069,98.9086207 61.0396552,98.762069 61.6672414,98.612069 C61.9431034,98.5465517 62.2241379,98.4965517 62.5,98.4258621 L63.7931034,98.0931034 L63.7931034,98.05 C80.2896552,93.3068966 93.3068966,80.2896552 98.05,63.7931034 L98.0931034,63.7931034 L98.4258621,62.4982759 C98.4965517,62.2224138 98.5465517,61.9396552 98.612069,61.662069 C98.762069,61.0362069 98.9068966,60.4103448 99.0344828,59.7758621 L99.0344828,59.7758621 Z" id="Layer-1"></path>
                <path d="M51.3517241,77.0409483 C50.1758621,77.1064655 48.9982759,77.1064655 47.8206897,77.0409483 C33.4327586,76.1237069 22,64.1599138 22,49.5443966 C22,34.925431 33.4396552,22.9581897 47.8327586,22.0478448 C49.0017241,21.9840517 50.1706897,21.9840517 51.3396552,22.0478448 C65.7327586,22.9581897 77.1724138,34.925431 77.1724138,49.5443966 C77.1724138,64.1599138 65.7396552,76.1237069 51.3517241,77.0409483 L51.3517241,77.0409483 Z" id="Layer-2"></path>
                <path d="M50.8566634,53.4972436 C50.8566634,53.4972436 52.6933128,60.7469508 50.0705824,63.5886103 C47.4478521,66.4302699 42,65.0932061 42,65.0932061" id="Layer-3"></path>
                <ellipse id="Layer-4" cx="57" cy="50.0952381" rx="6" ry="6.0952381"></ellipse>
                <ellipse id="Layer-5" cx="45" cy="50.0952381" rx="6" ry="6.0952381"></ellipse>
                <ellipse id="Layer-6" cx="51" cy="39.0952381" rx="6" ry="6.0952381"></ellipse>
                <path d="M40,23.7090586 L40,1.01271638 C40.0866448,0.994926737 40.1734213,0.977459309 40.2603448,0.960344828 C40.5741379,0.898275862 40.887931,0.846551724 41.2034483,0.79137931 C41.8948276,0.668965517 42.5913793,0.55862069 43.2913793,0.463793103 C43.5413793,0.429310345 43.7913793,0.396551724 44.0431035,0.367241379 C44.8913793,0.265517241 45.7465517,0.186206897 46.6068966,0.127586207 C46.7137931,0.120689655 46.8206897,0.110344828 46.9275862,0.103448276 C47.9448276,0.0413793103 48.9672414,0 50,0 C51.0327586,0 52.0551724,0.0413793103 53.0724138,0.101724138 C53.1793103,0.10862069 53.2862069,0.118965517 53.3931035,0.125862069 C54.2534483,0.184482759 55.1086207,0.263793103 55.9568966,0.365517241 C56.2068966,0.396551724 56.4586207,0.429310345 56.7086207,0.462068966 C57.4103448,0.556896552 58.1051724,0.665517241 58.7965517,0.789655172 C59.112069,0.844827586 59.4258621,0.896551724 59.7396552,0.95862069 C59.8265787,0.975960361 59.9133552,0.993594156 60,1.01150286 L60,1.01150286 L60,24.0315964 C57.2990962,22.9282929 54.3855071,22.240491 51.3396552,22.0478448 C50.1706897,21.9840517 49.0017241,21.9840517 47.8327586,22.0478448 C45.095569,22.2209685 42.4651939,22.7939762 40,23.7090586 L40,23.7090586 Z" id="Layer-7"></path>
                <path d="M75.4674644,40 L98.9872836,40 C99.0050733,40.0866448 99.0225407,40.1734213 99.0396552,40.2603448 C99.1017241,40.5741379 99.1534483,40.887931 99.2086207,41.2034483 C99.3310345,41.8948276 99.4413793,42.5913793 99.5362069,43.2913793 C99.5706897,43.5413793 99.6034483,43.7913793 99.6327586,44.0431035 C99.7344828,44.8913793 99.8137931,45.7465517 99.8724138,46.6068966 C99.8793103,46.7137931 99.8896552,46.8206897 99.8965517,46.9275862 C99.9586207,47.9448276 100,48.9672414 100,50 C100,51.0327586 99.9586207,52.0551724 99.8982759,53.0724138 C99.8913793,53.1793103 99.8810345,53.2862069 99.8741379,53.3931035 C99.8155172,54.2534483 99.7362069,55.1086207 99.6344828,55.9568966 C99.6034483,56.2068966 99.5706897,56.4586207 99.537931,56.7086207 C99.4431034,57.4103448 99.3344828,58.1051724 99.2103448,58.7965517 C99.1551724,59.112069 99.1034483,59.4258621 99.0413793,59.7396552 C99.0240396,59.8265787 99.0064058,59.9133552 98.9884971,60 L98.9884971,60 L75.1111839,60 C76.4394667,56.7756446 77.1724138,53.2450208 77.1724138,49.5443966 C77.1724138,46.1894042 76.5699059,42.9740737 75.4674644,40 L75.4674644,40 Z" id="Layer-8"></path>
                <path d="M40,75.3801902 L40,98.9872836 C40.0866448,99.0050733 40.1734213,99.0225407 40.2603448,99.0396552 C40.5741379,99.1017241 40.887931,99.1534483 41.2034483,99.2086207 C41.8948276,99.3310345 42.5913793,99.4413793 43.2913793,99.5362069 C43.5413793,99.5706897 43.7913793,99.6034483 44.0431035,99.6327586 C44.8913793,99.7344828 45.7465517,99.8137931 46.6068966,99.8724138 C46.7137931,99.8793103 46.8206897,99.8896552 46.9275862,99.8965517 C47.9448276,99.9586207 48.9672414,100 50,100 C51.0327586,100 52.0551724,99.9586207 53.0724138,99.8982759 C53.1793103,99.8913793 53.2862069,99.8810345 53.3931035,99.8741379 C54.2534483,99.8155172 55.1086207,99.7362069 55.9568966,99.6344828 C56.2068966,99.6034483 56.4586207,99.5706897 56.7086207,99.537931 C57.4103448,99.4431034 58.1051724,99.3344828 58.7965517,99.2103448 C59.112069,99.1551724 59.4258621,99.1034483 59.7396552,99.0413793 C59.8265787,99.0240396 59.9133552,99.0064058 60,98.9884971 L60,98.9884971 L60,75.0576394 C57.3026888,76.1595126 54.3932355,76.8470496 51.3517241,77.0409483 C50.1758621,77.1064655 48.9982759,77.1064655 47.8206897,77.0409483 C45.087811,76.8667252 42.4615495,76.2939633 40,75.3801902 L40,75.3801902 Z" id="Layer-9"></path>
                <path d="M23.7049494,40 L1.01271638,40 C0.994926737,40.0866448 0.977459309,40.1734213 0.960344828,40.2603448 C0.898275862,40.5741379 0.846551724,40.887931 0.79137931,41.2034483 C0.668965517,41.8948276 0.55862069,42.5913793 0.463793103,43.2913793 C0.429310345,43.5413793 0.396551724,43.7913793 0.367241379,44.0431035 C0.265517241,44.8913793 0.186206897,45.7465517 0.127586207,46.6068966 C0.120689655,46.7137931 0.110344828,46.8206897 0.103448276,46.9275862 C0.0413793103,47.9448276 0,48.9672414 0,50 C0,51.0327586 0.0413793103,52.0551724 0.101724138,53.0724138 C0.10862069,53.1793103 0.118965517,53.2862069 0.125862069,53.3931035 C0.184482759,54.2534483 0.263793103,55.1086207 0.365517241,55.9568966 C0.396551724,56.2068966 0.429310345,56.4586207 0.462068966,56.7086207 C0.556896552,57.4103448 0.665517241,58.1051724 0.789655172,58.7965517 C0.844827586,59.112069 0.896551724,59.4258621 0.95862069,59.7396552 C0.975960361,59.8265787 0.993594156,59.9133552 1.01150286,60 L1.01150286,60 L24.0612299,60 C22.7329471,56.7756446 22,53.2450208 22,49.5443966 C22,46.1894042 22.6025079,42.9740737 23.7049494,40 L23.7049494,40 Z" id="Layer-10"></path>
            </g>
        </g>
    </g>
</svg>