<?xml version="1.0" encoding="UTF-8"?>
<svg width="105px" height="105px" viewBox="0 0 105 105" version="1.1" xmlns="http://www.w3.org/2000/svg" xmlns:xlink="http://www.w3.org/1999/xlink">
    <!-- Generator: Sketch 46 (44423) - http://www.bohemiancoding.com/sketch -->
    <title>gaming-44</title>
    <desc>Created with Sketch.</desc>
    <defs></defs>
    <g id="ALL" stroke="none" stroke-width="1" fill="none" fill-rule="evenodd" stroke-linecap="round" stroke-linejoin="round">
        <g id="Secondary" transform="translate(-3705.000000, -5962.000000)" stroke="#868E96" stroke-width="3.5">
            <g id="gaming-44" transform="translate(3707.000000, 5964.000000)">
                <path d="M23.7777184,0.20286695 C23.2948667,-0.0676223166 22.7055299,-0.0676223166 22.2226782,0.20286695 C21.315274,0.711244512 0,12.8237894 0,27.6321383 C0,34.9302113 5.9796272,40.8675397 13.3294824,40.8675397 C14.8095665,40.8675397 16.248405,40.6320223 17.6101062,40.1730402 C16.5291927,42.4262612 15.1016571,44.5148967 13.3846088,46.337785 C12.9517278,46.7973599 12.8343363,47.4691374 13.0855778,48.0474589 C13.3368193,48.6257804 13.9089044,49 14.5412715,49 L31.5824654,49 C32.2148326,49 32.7869176,48.6255828 33.0381591,48.0474589 C33.2895989,47.4691374 33.1720092,46.7973599 32.7391282,46.337785 C31.0345725,44.5281347 29.6141756,42.454713 28.5356416,40.2180888 C29.8560972,40.6470385 31.2459565,40.8673421 32.6707159,40.8673421 C40.0205711,40.8673421 46,34.9300138 46,27.6319407 C46.0001983,12.8237894 24.6851226,0.711244512 23.7777184,0.20286695 L23.7777184,0.20286695 Z" id="Layer-1"></path>
                <path d="M0,70.5789474 C0,90.9473682 22.631579,100 22.631579,100 C22.631579,100 45.2631579,90.9473682 45.2631579,70.5789474 C45.2631579,70.4593997 45.254902,70.3444438 45.2387074,70.2339473 C45.2549269,69.9738384 45.2631579,69.7115646 45.2631579,69.4473684 C45.2631579,62.5728767 39.6902812,57 32.8157895,57 C28.6059587,57 24.8842526,59.0899096 22.631579,62.2888209 C20.3789053,59.0899096 16.6571992,57 12.4473684,57 C5.57287667,57 0,62.5728767 0,69.4473684 C0,69.7117843 0.00824466881,69.9742745 0.0244909557,70.234596 C0.00826844517,70.3449309 0,70.4596716 0,70.5789474 Z" id="Layer-2"></path>
                <path d="M77,0 C83.8369633,7.92991872 92.0700813,16.1630367 100,23 C92.0700813,29.8369633 83.8369633,38.0700813 77,46 C70.1630367,38.0700813 61.9299187,29.8369633 54,23 C61.9299187,16.1630367 70.1630367,7.92991872 77,0 L77,0 Z" id="Layer-3"></path>
                <path d="M90.4015944,71.5057544 C86.5888924,71.2873742 82.9830766,73.131216 80.91286,76.275853 C81.0373785,75.8057933 81.1769784,75.3397993 81.331273,74.878258 C81.4374231,74.5607548 81.6777593,74.2935875 82.0081973,74.1257367 C85.7773953,72.2102631 88.0564317,68.2430217 87.8145488,64.0186802 C87.5055727,58.6236424 83.0372151,54.2269974 77.6419293,54.0090043 C74.7172916,53.890715 71.9477219,54.941186 69.8419286,56.966237 C67.7351685,58.9922559 66.5750583,61.7183307 66.5750583,64.6424579 C66.5750583,68.6724255 68.8117508,72.3086116 72.412346,74.1321255 C72.7338899,74.2951363 72.9686189,74.5566892 73.0730288,74.8689653 C73.2284835,75.3334105 73.3690502,75.8026957 73.4943421,76.2756594 C71.4241255,73.1314096 67.8169563,71.2867934 64.005801,71.5057544 C58.6174759,71.8151265 54.2264589,76.2894049 54.0089383,81.6916059 C53.8911871,84.6194114 54.94012,87.3931117 56.9625788,89.5014105 C58.9860043,91.6108709 61.7085895,92.772468 64.6287802,92.772468 C68.2427167,92.772468 71.544777,90.9628933 73.4984025,87.9802991 C72.5260368,91.6517204 70.642598,95.0685583 68.018042,97.855617 C67.5946018,98.3053486 67.4785908,98.9641678 67.7233741,99.5318016 C67.9681573,100.099435 68.5261703,100.467081 69.1435423,100.467081 L71.6147703,100.467081 L82.7924318,100.467081 L85.2636598,100.467081 C85.8810318,100.467081 86.4392381,100.099435 86.683828,99.5318016 C86.9284179,98.9641678 86.8126003,98.3055422 86.3891601,97.855617 C83.7646041,95.0685583 81.8813586,91.6515268 80.9087996,87.9802991 C82.8624251,90.9628933 86.1646787,92.772468 89.7786153,92.772468 C92.6988059,92.772468 95.4213912,91.6108709 97.4448167,89.5014105 C99.4672754,87.3929181 100.516208,84.6194114 100.398264,81.6916059 C100.180937,76.2894049 95.7897262,71.8151265 90.4015944,71.5057544 L90.4015944,71.5057544 Z" id="Layer-4"></path>
            </g>
        </g>
    </g>
</svg>