<?xml version="1.0" encoding="UTF-8"?>
<svg width="104px" height="104px" viewBox="0 0 104 104" version="1.1" xmlns="http://www.w3.org/2000/svg" xmlns:xlink="http://www.w3.org/1999/xlink">
    <!-- Generator: Sketch 46 (44423) - http://www.bohemiancoding.com/sketch -->
    <title>gaming-15</title>
    <desc>Created with Sketch.</desc>
    <defs></defs>
    <g id="ALL" stroke="none" stroke-width="1" fill="none" fill-rule="evenodd" stroke-linecap="round" stroke-linejoin="round">
        <g id="Secondary" transform="translate(-4534.000000, -5661.000000)" stroke="#868E96" stroke-width="3.5">
            <g id="gaming-15" transform="translate(4536.000000, 5663.000000)">
                <path d="M26.3804095,18.4152443 C26.1934825,11.3522649 29.8577383,1.17193342 43.5229327,0.694055532 C54.5020989,0.308130827 59.084947,7.48047877 60.4202887,13.9199877 C60.4202887,13.9199877 69.9801936,20.0260792 70.2856141,20.2654996 C70.8097767,20.6705812 71.2592598,25.022995 67.4073796,27.4127327 C64.7325113,29.0724179 61.7409832,28.3221544 60.1949999,28.3221544 C59.3663836,28.3221544 58.4683672,28.2389089 57.616385,28.0692831 C56.660477,29.5384441 55.7931501,30.67323 55.511016,31.4659778 C54.7946953,33.503925 65.2228457,40.203968 65.2228457,50.6263731 C65.2228457,61.0463402 57.5459387,67.510579 45.439631,67.510579 L26.2573027,67.510579 C15.5881701,67.510579 1.56132797,57.0933984 2.27373675e-13,35.2991018 C9.95350942,43.6835598 14.749789,31.8268244 36.1822151,33.1019781 C32.7334833,30.883956 26.6206942,27.3674435 26.3804095,18.4152443 L26.3804095,18.4152443 Z" id="Layer-1"></path>
                <path d="M29.9139119,58.9457556 C21.5597844,57.6067745 14.2643678,49.4490064 14.2643678,44.9945943 C14.2643678,42.8148148 24.1880885,42.8148148 32.6497701,42.8148148 C44.1558098,42.8148148 47.9709044,46.425771 47.9709044,50.8803874 C47.9709044,55.3350039 39.4349201,60.4715808 29.9139119,58.9457556 L29.9139119,58.9457556 Z" id="Layer-2"></path>
                <ellipse id="Layer-3" cx="48.3088235" cy="13.9135802" rx="2.9984787" ry="3"></ellipse>
                <circle id="Layer-4" cx="72.5" cy="72.5" r="27.5"></circle>
                <path d="M72.5,45 L72.5,55" id="Layer-5"></path>
                <path d="M72.5,90 L72.5,100" id="Layer-6"></path>
                <path d="M100,72.5 L90,72.5" id="Layer-7"></path>
                <path d="M55,72.5 L45,72.5" id="Layer-8"></path>
                <circle id="Layer-9" cx="72.5" cy="72.5" r="2.5"></circle>
            </g>
        </g>
    </g>
</svg>