<?xml version="1.0" encoding="UTF-8"?>
<svg width="104px" height="103px" viewBox="0 0 104 103" version="1.1" xmlns="http://www.w3.org/2000/svg" xmlns:xlink="http://www.w3.org/1999/xlink">
    <!-- Generator: Sketch 46 (44423) - http://www.bohemiancoding.com/sketch -->
    <title>gaming-32</title>
    <desc>Created with Sketch.</desc>
    <defs></defs>
    <g id="ALL" stroke="none" stroke-width="1" fill="none" fill-rule="evenodd" stroke-linecap="round" stroke-linejoin="round">
        <g id="Secondary" transform="translate(-9582.000000, -5661.000000)" stroke="#868E96" stroke-width="3.5">
            <g id="gaming-32" transform="translate(9584.000000, 5663.000000)">
                <path d="M95.9140139,24.8253801 L85.4170442,14.3284104 L74.8029028,3.71426896 C73.455428,2.36679421 71.6513876,1.57285481 69.7483573,1.49002653 L38.0219734,0.352081005 C33.6096144,0.193820791 30.0339625,3.64251027 30.0355335,8.06056323 L30.035484,7.92125147 C30.0370541,12.3367889 33.620171,15.9162892 38.0423693,15.9162892 L58.4332058,15.9162892 C60.4534078,15.9162892 62.3907815,16.7183094 63.8190644,18.1465922 L72.7099735,27.0375013 L81.4816906,35.8092185 C82.9099735,37.2375013 83.7119937,39.174875 83.7119937,41.195077 L83.7119937,61.5859135 C83.7119937,66.0064241 87.2889784,69.5912279 91.7070314,69.5927989 L91.5677196,69.5927493 C95.983257,69.5943194 99.4344599,66.0186101 99.2762018,61.6063094 L98.1382563,29.8799255 C98.055428,27.9768952 97.2614886,26.1728548 95.9140139,24.8253801 Z" id="Layer-1"></path>
                <path d="M85.4170442,14.3284104 L90.1827007,19.0940669 L92.6796704,16.5970972 C93.9443169,15.3324508 94.6534078,13.6193195 94.6534078,11.8314407 L94.6534078,11.8314407 C94.6534078,8.10820835 91.635226,5.09204673 87.9140139,5.09204673 L87.9140139,5.09204673 C86.1261351,5.09204673 84.4130038,5.80315784 83.1483573,7.06578411 L80.6513876,9.5627538 L85.4170442,14.3284104 L85.4170442,14.3284104 L85.4170442,14.3284104 L85.4170442,14.3284104 Z" id="Layer-2"></path>
                <path d="M72.7079533,27.0375013 L67.9422967,22.2718447 L2.51199367,87.7021477 C-0.120329561,90.334471 -0.120329561,94.6011376 2.51199367,97.2334609 L2.51199367,97.2334609 C5.1443169,99.8657841 9.41098357,99.8657841 12.0433068,97.2334609 L77.47563,31.8031578 L72.7079533,27.0375013 L72.7079533,27.0375013 L72.7079533,27.0375013 L72.7079533,27.0375013 Z" id="Layer-3"></path>
                <polygon id="Layer-4" points="28.6950676 62.0196919 37.9803081 71.3049324 17.2670792 92.0181614 7.98183864 82.7329208"></polygon>
            </g>
        </g>
    </g>
</svg>