<?xml version="1.0" encoding="UTF-8"?>
<svg width="104px" height="104px" viewBox="0 0 104 104" version="1.1" xmlns="http://www.w3.org/2000/svg" xmlns:xlink="http://www.w3.org/1999/xlink">
    <!-- Generator: Sketch 46 (44423) - http://www.bohemiancoding.com/sketch -->
    <title>gaming-9</title>
    <desc>Created with Sketch.</desc>
    <defs></defs>
    <g id="ALL" stroke="none" stroke-width="1" fill="none" fill-rule="evenodd" stroke-linecap="round" stroke-linejoin="round">
        <g id="Secondary" transform="translate(-2733.000000, -5661.000000)" stroke="#868E96" stroke-width="3.5">
            <g id="gaming-9" transform="translate(2735.000000, 5663.000000)">
                <circle id="Layer-1" cx="50" cy="18" r="18"></circle>
                <circle id="Layer-2" cx="50" cy="82" r="18"></circle>
                <circle id="Layer-3" cx="82" cy="50" r="18"></circle>
                <circle id="Layer-4" cx="18" cy="50" r="18"></circle>
                <polygon id="Layer-5" points="50 7 60 25 40 25"></polygon>
                <path d="M82,60 C87.5228475,60 92,55.5228475 92,50 C92,44.4771525 87.5228475,40 82,40 C76.4771525,40 72,44.4771525 72,50 C72,55.5228475 76.4771525,60 82,60 Z" id="Layer-6"></path>
                <rect id="Layer-7" x="9" y="41" width="18" height="18"></rect>
                <path d="M49.9572981,71.3527527 L49.9572981,92.4831874" id="Layer-8" transform="translate(49.957298, 81.917970) rotate(-315.000000) translate(-49.957298, -81.917970) "></path>
                <path d="M60.5225155,81.91797 L39.3920807,81.91797" id="Layer-9" transform="translate(49.957298, 81.917970) rotate(-315.000000) translate(-49.957298, -81.917970) "></path>
            </g>
        </g>
    </g>
</svg>