<?xml version="1.0" encoding="UTF-8"?>
<svg width="104px" height="104px" viewBox="0 0 104 104" version="1.1" xmlns="http://www.w3.org/2000/svg" xmlns:xlink="http://www.w3.org/1999/xlink">
    <!-- Generator: Sketch 46 (44423) - http://www.bohemiancoding.com/sketch -->
    <title>gaming-18</title>
    <desc>Created with Sketch.</desc>
    <defs></defs>
    <g id="ALL" stroke="none" stroke-width="1" fill="none" fill-rule="evenodd" stroke-linecap="round" stroke-linejoin="round">
        <g id="Secondary" transform="translate(-5434.000000, -5661.000000)" stroke="#868E96" stroke-width="3.5">
            <g id="gaming-18" transform="translate(5436.000000, 5663.000000)">
                <path d="M10.0168876,86.9338696 C-6.75937585,69.5123652 0.0828979012,38.1831245 16.8591614,20.7616201 C16.8591614,20.7616201 34.7862744,-1.86614392 55.9746027,0.794817813 C77.1629311,3.45577955 85.3916972,18.4312353 91.3150814,31.3144978 C97.2384656,44.1977602 107.165416,69.5154416 90.3891528,86.9338696 C73.6128893,104.355374 26.7901887,104.355374 10.0168876,86.9338696 Z" id="Layer-1"></path>
                <path d="M66.5837048,70.4903812 C66.5837048,80.3730939 56.2943874,88.4230769 43.6437042,88.4230769 C30.9930211,88.4230769 18.7037037,80.3730939 18.7037037,70.4903812 C18.7037037,64.9152553 19.8995758,59.9356204 25.0158462,56.6538462 C24.9276024,57.2778896 31.2195445,64.4893073 43.8588688,64.4893073 C56.4981931,64.4893073 61.200911,58.229593 61.1949558,58.0649659 C65.171528,61.2836122 66.5837048,65.6638412 66.5837048,70.4903812 Z" id="Layer-2"></path>
                <path d="M38.4351511,87.9755423 C40.1432067,88.2683777 41.8899832,88.4230769 43.6437042,88.4230769 C56.2943874,88.4230769 66.5837048,80.3730939 66.5837048,70.4903812 C66.5837048,70.1740209 66.5776377,69.8595781 66.565179,69.5472542 C64.9338335,69.1888837 63.2389748,69 61.5,69 C50.0689616,69 40.5441845,77.1616749 38.4351511,87.9755423 L38.4351511,87.9755423 Z" id="Layer-3"></path>
                <path d="M85.57269,41 C86.795737,43.6601069 88.2503559,47.039438 89.4389944,50.8085201 M90.9291099,60.6106565 C91.548846,66.9079782 90.3900782,73.4427729 85.6929145,79.2590175 M80.5908132,84.6237721 L80.5908132,84.6237721 C79.3812512,85.4587104 78.0810421,86.1446308 76.7231172,86.6798074" id="Layer-4"></path>
                <path d="M63.264001,34.7653325 C65.3527893,39.9352649 65.1170388,45.8677536 59.4852775,46.6592462 C53.8535161,47.4507389 50.5830637,43.3815192 50.5830637,43.3815192 L59.9871357,29.7047448 C59.9871357,29.7047448 62.4356434,32.7150755 63.264001,34.7653325 L63.264001,34.7653325 Z" id="Layer-5" transform="translate(57.527968, 38.233056) rotate(5.000000) translate(-57.527968, -38.233056) "></path>
                <path d="M26.647885,31.8087742 C23.9446099,36.6856116 23.4556147,42.6026111 28.948939,44.0745431 C34.4422634,45.5464752 38.1842515,41.9061547 38.1842515,41.9061547 L30.5170555,27.1852569 C30.5170555,27.1852569 27.7199316,29.874751 26.647885,31.8087742 L26.647885,31.8087742 L26.647885,31.8087742 Z" id="Layer-6" transform="translate(31.435360, 35.805145) rotate(5.000000) translate(-31.435360, -35.805145) "></path>
            </g>
        </g>
    </g>
</svg>