<?xml version="1.0" encoding="UTF-8"?>
<svg width="104px" height="103px" viewBox="0 0 104 103" version="1.1" xmlns="http://www.w3.org/2000/svg" xmlns:xlink="http://www.w3.org/1999/xlink">
    <!-- Generator: Sketch 46 (44423) - http://www.bohemiancoding.com/sketch -->
    <title>gaming-43</title>
    <desc>Created with Sketch.</desc>
    <defs></defs>
    <g id="ALL" stroke="none" stroke-width="1" fill="none" fill-rule="evenodd" stroke-linecap="round" stroke-linejoin="round">
        <g id="Secondary" transform="translate(-3405.000000, -5962.000000)" stroke="#868E96" stroke-width="3.5">
            <g id="gaming-43" transform="translate(3407.000000, 5964.000000)">
                <path d="M99.4766167,15.8973519 C99.7615906,14.8338148 99.1317501,13.7409815 98.060887,13.4540446 L49.822326,0.528561125 C48.7554662,0.242696898 47.6586446,0.876647864 47.3746145,1.93666246 L27.1055599,77.5818042 C26.820586,78.6453413 27.4504265,79.7381745 28.5212895,80.0251114 L76.7598506,92.9505949 C77.8267104,93.2364591 78.923532,92.6025082 79.2075621,91.5424936 L99.4766167,15.8973519 L99.4766167,15.8973519 Z" id="Layer-1"></path>
                <path d="M62.6205641,16.8526637 L76.9923787,16.8526637 C78.2074866,16.8526637 79.1925263,17.8223555 79.1925263,19.048005 L79.1925263,62.403234 M65.5322678,77.0346973 L50.5506718,77.0346973 C49.339602,77.0346973 48.357836,76.0559681 48.357836,74.8451129 L48.357836,30.5560701 L48.357836,34.9329453" id="Layer-2" transform="translate(63.775181, 46.943680) scale(-1, 1) rotate(-15.000000) translate(-63.775181, -46.943680) "></path>
                <polyline id="Layer-3" transform="translate(84.253854, 22.505293) scale(-1, 1) rotate(-15.000000) translate(-84.253854, -22.505293) " points="79.3865975 28.1093216 83.6117259 16.9012637 84.8883833 16.9012637 89.1211108 28.1093216"></polyline>
                <path d="M80.1553063,24.4584871 L86.8379567,24.4584871 L80.1553063,24.4584871 Z" id="Layer-4" transform="translate(83.496632, 24.958487) scale(-1, 1) rotate(-15.000000) translate(-83.496632, -24.958487) "></path>
                <polyline id="Layer-5" transform="translate(42.844691, 69.989525) scale(-1, 1) rotate(-15.000000) translate(-42.844691, -69.989525) " points="37.9774346 75.5935541 42.2025629 64.3854963 43.4792204 64.3854963 47.7119479 75.5935541"></polyline>
                <path d="M38.7461433,71.9427197 L45.4287938,71.9427197 L38.7461433,71.9427197 Z" id="Layer-6" transform="translate(42.087469, 72.442720) scale(-1, 1) rotate(-15.000000) translate(-42.087469, -72.442720) "></path>
                <path d="M53.699923,45.9056724 C53.699923,54.4990584 63.2481298,58.3183412 63.2481298,58.3183412 C63.2481298,58.3183412 72.7963366,54.4990584 72.7963366,45.9056724 C72.7963366,45.8552355 72.7928534,45.8067359 72.786021,45.7601177 C72.7928639,45.6503784 72.7963366,45.5397257 72.7963366,45.428262 C72.7963366,42.5279311 70.4451538,40.1767483 67.5448228,40.1767483 C65.7687057,40.1767483 64.1985272,41.058476 63.2481298,42.4080887 C62.2977324,41.058476 60.7275538,40.1767483 58.9514367,40.1767483 C56.0511058,40.1767483 53.699923,42.5279311 53.699923,45.428262 C53.699923,45.5398184 53.7034014,45.6505624 53.7102556,45.7603914 C53.7034114,45.8069414 53.699923,45.8553502 53.699923,45.9056724 Z" id="Layer-7" transform="translate(63.248130, 49.247545) scale(-1, 1) rotate(-15.000000) translate(-63.248130, -49.247545) "></path>
                <path d="M46.169935,6.19469027 L23.2388024,6.19469027 C22.1343078,6.19469027 21.2389381,7.0909182 21.2389381,8.18832606 L21.2389381,86.5019394 C21.2389381,87.6029941 22.1301633,88.4955752 23.2388024,88.4955752 L60.9166537,88.4955752 L28.5445471,79.8214954 C27.4569037,79.5300622 26.8171936,78.4201044 27.1066331,77.3399018 L46.169935,6.19469027 L46.169935,6.19469027 Z" id="Layer-8"></path>
                <path d="M46.0763071,6.54411451 L46.1457394,6.52288693 L27.1055599,77.5818042 C27.0697144,77.7155811 27.0483431,77.8498215 27.0405028,77.9828634 C27.0281505,77.7718426 27.0489224,77.5552807 27.1066331,77.3399018 L46.0763071,6.54411451 L46.0763071,6.54411451 Z M21.2389381,14.1376603 L2.10357279,19.9879285 C1.0473394,20.3108515 0.453124738,21.4296993 0.773975744,22.4791557 L23.6706604,97.3708366 C23.9925776,98.4237804 25.105826,99.0167909 26.1660228,98.6926562 L59.5191719,88.4955752 L23.2388024,88.4955752 C22.1301633,88.4955752 21.2389381,87.6029941 21.2389381,86.5019394 L21.2389381,14.1376603 L21.2389381,14.1376603 Z" id="Layer-9"></path>
            </g>
        </g>
    </g>
</svg>