<?xml version="1.0" encoding="UTF-8"?>
<svg width="104px" height="104px" viewBox="0 0 104 104" version="1.1" xmlns="http://www.w3.org/2000/svg" xmlns:xlink="http://www.w3.org/1999/xlink">
    <!-- Generator: Sketch 46 (44423) - http://www.bohemiancoding.com/sketch -->
    <title>gaming-40</title>
    <desc>Created with Sketch.</desc>
    <defs></defs>
    <g id="ALL" stroke="none" stroke-width="1" fill="none" fill-rule="evenodd" stroke-linecap="round" stroke-linejoin="round">
        <g id="Secondary" transform="translate(-2506.000000, -5962.000000)" stroke="#868E96" stroke-width="3.5">
            <g id="gaming-40" transform="translate(2508.000000, 5964.000000)">
                <path d="M66.1391362,50 L49.7825997,50 L49.7825997,34.2857261 L43.3261005,34.2857261 C38.1754171,34.2857261 34,30.1283851 34,25 C34,19.8716149 38.1754171,15.7142739 43.3261005,15.7142739 L49.7825997,15.7142739 L49.7825997,0 L100,0 L100,50 L84.791338,50 L84.7913372,43.2857261 C84.7913372,38.157341 80.6159201,34 75.4652367,34 C70.3145533,34 66.1391362,38.157341 66.1391362,43.2857261 L66.1391362,50 L66.1391362,50 Z" id="Layer-1"></path>
                <path d="M50,33.8608638 L50,50.2174003 L34.2857261,50.2174003 L34.2857261,56.6738995 C34.2857261,61.8245829 30.1283851,66 25,66 C19.8716149,66 15.7142739,61.8245829 15.7142739,56.6738995 L15.7142739,50.2174003 L0,50.2174003 L0,0 L50,0 L50,15.208662 L43.2857261,15.2086628 C38.157341,15.2086628 34,19.3840799 34,24.5347633 C34,29.6854467 38.157341,33.8608638 43.2857261,33.8608638 L50,33.8608638 L50,33.8608638 Z" id="Layer-2"></path>
                <path d="M33.8608638,50 L50.2174003,50 L50.2174003,65.7142739 L56.6738995,65.7142739 C61.8245829,65.7142739 66,69.8716149 66,75 C66,80.1283851 61.8245829,84.2857261 56.6738995,84.2857261 L50.2174003,84.2857261 L50.2174003,100 L0,100 L0,50 L15.208662,50 L15.2086628,56.7142739 C15.2086628,61.842659 19.3840799,66 24.5347633,66 C29.6854467,66 33.8608638,61.842659 33.8608638,56.7142739 L33.8608638,50 L33.8608638,50 Z" id="Layer-3"></path>
                <path d="M50,66.1391362 L50,49.7825997 L65.7142739,49.7825997 L65.7142739,43.3261005 C65.7142739,38.1754171 69.8716149,34 75,34 C80.1283851,34 84.2857261,38.1754171 84.2857261,43.3261005 L84.2857261,49.7825997 L100,49.7825997 L100,100 L50,100 L50,84.791338 L56.7142739,84.7913372 C61.842659,84.7913372 66,80.6159201 66,75.4652367 C66,70.3145533 61.842659,66.1391362 56.7142739,66.1391362 L50,66.1391362 L50,66.1391362 Z" id="Layer-4"></path>
            </g>
        </g>
    </g>
</svg>