<?xml version="1.0" encoding="UTF-8"?>
<svg width="104px" height="104px" viewBox="0 0 104 104" version="1.1" xmlns="http://www.w3.org/2000/svg" xmlns:xlink="http://www.w3.org/1999/xlink">
    <!-- Generator: Sketch 46 (44423) - http://www.bohemiancoding.com/sketch -->
    <title>gaming-19</title>
    <desc>Created with Sketch.</desc>
    <defs></defs>
    <g id="ALL" stroke="none" stroke-width="1" fill="none" fill-rule="evenodd" stroke-linecap="round" stroke-linejoin="round">
        <g id="Secondary" transform="translate(-5734.000000, -5661.000000)" stroke="#868E96" stroke-width="3.5">
            <g id="gaming-19" transform="translate(5736.000000, 5663.000000)">
                <circle id="Layer-1" cx="50" cy="50" r="50"></circle>
                <path d="M50,0 L50,10" id="Layer-2"></path>
                <path d="M50,90 L50,100" id="Layer-3"></path>
                <path d="M95,45 L95,55" id="Layer-4" transform="translate(95.000000, 50.000000) rotate(-270.000000) translate(-95.000000, -50.000000) "></path>
                <path d="M5,44.7272727 L5,54.7272727" id="Layer-5" transform="translate(5.000000, 49.727273) rotate(-270.000000) translate(-5.000000, -49.727273) "></path>
                <polygon id="Layer-6" points="80.6646684 66.6699916 80.6646684 46.6350642 63.4438589 46.6350642 63.4438589 66.6699916 61.2260274 66.6699915 61.2260274 73.0468092 82.7520398 73.0468092 82.7520389 66.6699915"></polygon>
                <path d="M64.6164384,46.612766 L64.6164384,40.5709184 C64.6164384,36.1095138 68.3835616,30 72.1506849,30 C75.9178082,30 79.6849315,36.1094315 79.6849315,40.5709184 L79.6849315,46.6126837 L64.6164384,46.612766 Z" id="Layer-7"></path>
                <polygon id="Layer-8" points="36.6646684 66.6699916 36.6646684 46.6350642 19.4438589 46.6350642 19.4438589 66.6699916 17.2260274 66.6699915 17.2260274 73.0468092 38.7520398 73.0468092 38.7520389 66.6699915"></polygon>
                <path d="M20.6164384,46.612766 L20.6164384,40.5709184 C20.6164384,36.1095138 24.3835616,30 28.1506849,30 C31.9178082,30 35.6849315,36.1094315 35.6849315,40.5709184 L35.6849315,46.6126837 L20.6164384,46.612766 Z" id="Layer-9"></path>
                <polygon id="Layer-10" points="58.6646684 66.6699916 58.6646684 46.6350642 41.4438589 46.6350642 41.4438589 66.6699916 39.2260274 66.6699915 39.2260274 73.0468092 60.7520398 73.0468092 60.7520389 66.6699915"></polygon>
                <path d="M42.6164384,46.612766 L42.6164384,40.5709184 C42.6164384,36.1095138 46.3835616,30 50.1506849,30 C53.9178082,30 57.6849315,36.1094315 57.6849315,40.5709184 L57.6849315,46.6126837 L42.6164384,46.612766 Z" id="Layer-11"></path>
            </g>
        </g>
    </g>
</svg>