<?xml version="1.0" encoding="UTF-8"?>
<svg width="104px" height="104px" viewBox="0 0 104 104" version="1.1" xmlns="http://www.w3.org/2000/svg" xmlns:xlink="http://www.w3.org/1999/xlink">
    <!-- Generator: Sketch 46 (44423) - http://www.bohemiancoding.com/sketch -->
    <title>gaming-46</title>
    <desc>Created with Sketch.</desc>
    <defs></defs>
    <g id="ALL" stroke="none" stroke-width="1" fill="none" fill-rule="evenodd" stroke-linecap="round" stroke-linejoin="round">
        <g id="Secondary" transform="translate(-4306.000000, -5962.000000)" stroke="#868E96" stroke-width="3.5">
            <g id="gaming-46" transform="translate(4308.000000, 5964.000000)">
                <rect id="Layer-1" x="0" y="42" width="100" height="58" rx="5"></rect>
                <rect id="Layer-2" x="33" y="42" width="34" height="58"></rect>
                <path d="M80.7169891,81.7197596 C80.8261176,77.6021319 85.9337904,64.8906367 84.9490045,64.8906367 L74.0092036,64.8906367 L74,59 L94.1667449,59 L95,62.349784 C92.6451916,64.8456048 88.709429,71.2657776 88.1125094,81.7197596 L80.7169891,81.7197596 Z" id="Layer-3"></path>
                <path d="M46.7169891,81.7197596 C46.8261176,77.6021319 51.9337904,64.8906367 50.9490045,64.8906367 L40.0092036,64.8906367 L40,59 L60.1667449,59 L61,62.349784 C58.6451916,64.8456048 54.709429,71.2657776 54.1125094,81.7197596 L46.7169891,81.7197596 Z" id="Layer-4"></path>
                <path d="M12.7169891,81.7197596 C12.8261176,77.6021319 17.9337904,64.8906367 16.9490045,64.8906367 L6.00920361,64.8906367 L6,59 L26.1667449,59 L27,62.349784 C24.6451916,64.8456048 20.709429,71.2657776 20.1125094,81.7197596 L12.7169891,81.7197596 Z" id="Layer-5"></path>
                <path d="M85.3137085,30 L81.0710678,34.2426407" id="Layer-6"></path>
                <path d="M70.6568542,24.728651 L66.6568542,33.3889051" id="Layer-7"></path>
                <path d="M17,31 L20.5355339,34.5355339" id="Layer-8"></path>
                <path d="M32,23 L34.5881905,32.6592583" id="Layer-9"></path>
                <path d="M51.0705524,18.7274066 L51.0705524,32.7274066" id="Layer-10"></path>
                <polygon id="Layer-11" points="12.0228404 0 15.6654364 7.67181558 24.0456809 8.78518473 17.9163779 14.6399016 19.4534409 23 12.0228404 18.9465339 4.59223995 23 6.12930293 14.6399016 0 8.78518473 8.38024451 7.67181558"></polygon>
                <polygon id="Layer-12" points="89.9530876 0 92.9970307 6.41096914 100 7.34135846 94.8780349 12.2338652 96.1624848 19.2199993 89.9530876 15.8327116 83.7436904 19.2199993 85.0281404 12.2338652 79.9061752 7.34135846 86.9091445 6.41096914"></polygon>
            </g>
        </g>
    </g>
</svg>