<?xml version="1.0" encoding="UTF-8"?>
<svg width="104px" height="104px" viewBox="0 0 104 104" version="1.1" xmlns="http://www.w3.org/2000/svg" xmlns:xlink="http://www.w3.org/1999/xlink">
    <!-- Generator: Sketch 46 (44423) - http://www.bohemiancoding.com/sketch -->
    <title>gaming-49</title>
    <desc>Created with Sketch.</desc>
    <defs></defs>
    <g id="ALL" stroke="none" stroke-width="1" fill="none" fill-rule="evenodd" stroke-linecap="round" stroke-linejoin="round">
        <g id="Secondary" transform="translate(-5206.000000, -5962.000000)" stroke="#868E96" stroke-width="3.5">
            <g id="gaming-49" transform="translate(5208.000000, 5964.000000)">
                <path d="M0.0243485665,13.1576507 C0.00822037281,13.2673441 0,13.3814177 0,13.5 C0,33.7499998 22.5,42.75 22.5,42.75 C22.5,42.75 45,33.7499998 45,13.5 C45,13.3811474 44.9917921,13.2668598 44.9756917,13.1570057 C44.9918169,12.8984091 45,12.6376602 45,12.375 C45,5.54047622 39.4595238,0 32.625,0 C28.439645,0 24.7395767,2.07775901 22.5,5.25807195 C20.2604233,2.07775901 16.560355,0 12.375,0 C5.54047622,0 0,5.54047622 0,12.375 C0,12.6378785 0.00819673469,12.8988426 0.0243485665,13.1576507 L0.0243485665,13.1576507 Z" id="Layer-1"></path>
                <path d="M0.0243485665,70.1576507 C0.00822037281,70.2673441 0,70.3814177 0,70.5 C0,90.7499998 22.5,99.75 22.5,99.75 C22.5,99.75 45,90.7499998 45,70.5 C45,70.3811474 44.9917921,70.2668598 44.9756917,70.1570057 C44.9918169,69.8984091 45,69.6376602 45,69.375 C45,62.5404762 39.4595238,57 32.625,57 C28.439645,57 24.7395767,59.077759 22.5,62.2580719 C20.2604233,59.077759 16.560355,57 12.375,57 C5.54047622,57 0,62.5404762 0,69.375 C0,69.6378785 0.00819673469,69.8988426 0.0243485665,70.1576507 L0.0243485665,70.1576507 Z" id="Layer-2"></path>
                <path d="M55.0243486,13.1576507 C55.0082204,13.2673441 55,13.3814177 55,13.5 C55,33.7499998 77.5,42.75 77.5,42.75 C77.5,42.75 100,33.7499998 100,13.5 C100,13.3811474 99.9917921,13.2668598 99.9756917,13.1570057 C99.9918169,12.8984091 100,12.6376602 100,12.375 C100,5.54047622 94.4595238,0 87.625,0 C83.439645,0 79.7395767,2.07775901 77.5,5.25807195 C75.2604233,2.07775901 71.560355,0 67.375,0 C60.5404762,0 55,5.54047622 55,12.375 C55,12.6378785 55.0081967,12.8988426 55.0243486,13.1576507 L55.0243486,13.1576507 Z" id="Layer-3"></path>
                <path d="M77.9122919,55.5481228 L77.9122919,66.5823264" id="Layer-4"></path>
                <path d="M78.0232558,88.4883721 L78.0232558,99.5225757" id="Layer-5"></path>
                <path d="M99.4518772,77.9122919 L88.4176736,77.9122919" id="Layer-6"></path>
                <path d="M66.5116279,78.0232558 L55.4774243,78.0232558" id="Layer-7"></path>
                <path d="M89.4126755,60.6532914 L89.4126755,71.687495" id="Layer-8" transform="translate(89.412676, 66.170393) rotate(-315.000000) translate(-89.412676, -66.170393) "></path>
                <path d="M66.1988652,84.0240284 L66.1988652,95.0582321" id="Layer-9" transform="translate(66.198865, 89.541130) rotate(-315.000000) translate(-66.198865, -89.541130) "></path>
                <path d="M93.9767109,89.2594175 L82.9425072,89.2594175" id="Layer-10" transform="translate(88.459609, 89.782673) rotate(-315.000000) translate(-88.459609, -89.782673) "></path>
                <path d="M70.6059738,66.0456071 L59.5717702,66.0456071" id="Layer-11" transform="translate(65.088872, 66.568863) rotate(-315.000000) translate(-65.088872, -66.568863) "></path>
            </g>
        </g>
    </g>
</svg>