<?xml version="1.0" encoding="UTF-8"?>
<svg width="95px" height="104px" viewBox="0 0 95 104" version="1.1" xmlns="http://www.w3.org/2000/svg" xmlns:xlink="http://www.w3.org/1999/xlink">
    <!-- Generator: Sketch 46 (44423) - http://www.bohemiancoding.com/sketch -->
    <title>gaming-21</title>
    <desc>Created with Sketch.</desc>
    <defs></defs>
    <g id="ALL" stroke="none" stroke-width="1" fill="none" fill-rule="evenodd" stroke-linecap="round" stroke-linejoin="round">
        <g id="Secondary" transform="translate(-6314.000000, -5661.000000)" stroke="#868E96" stroke-width="3.5">
            <g id="gaming-21" transform="translate(6316.000000, 5663.000000)">
                <path d="M64.5617031,45.6666667 L26.2571488,45.6666667 C19.7140591,45.6666667 14.4096386,38.9507992 14.4096386,30.6666667 C14.4096386,22.3825342 19.7140591,15.6666667 26.2571488,15.6666667 L64.5621283,15.6666667 C71.105218,15.6666667 76.4096386,22.3825342 76.4096386,30.6666667 C76.4096386,38.9507992 71.105218,45.6666667 64.5617031,45.6666667 L64.5617031,45.6666667 Z" id="Layer-1"></path>
                <rect id="Layer-2" x="23.2771084" y="25.6666667" width="44" height="10" rx="5"></rect>
                <path d="M30.112866,45.6666667 C31.3917262,47.4941825 35.6858566,53.9276517 35.6858566,57.9176859 C35.6858566,62.6058207 35.6858566,64.4271785 34.0971922,68.338292 C32.5085278,72.2494055 1.32389723,76.93778 -1.42108547e-14,99.9949651 L45.3892601,99.9949651 L91.2768565,100 C89.9529593,76.9428149 58.7683287,72.2544404 57.1796643,68.3433269 C55.5909999,64.4322134 55.5909999,62.6108555 55.5909999,57.9227208 C55.5909999,53.9290138 59.8930393,47.4873715 61.1675143,45.6666667 L30.112866,45.6666667 L30.112866,45.6666667 Z M66.0928792,15.7907234 C64.7991739,7.95834765 59.8108763,0.491620136 45.8875965,0.0128680152 C45.7741906,-0.00371677862 45.6613701,-0.000756290392 45.5491259,0.0026555482 C31.5747699,0.482990063 26.5366908,7.91373174 25.2091956,15.7245453 C25.5544791,15.6862293 25.9040099,15.6666667 26.2571488,15.6666667 L64.5621283,15.6666667 C65.0808385,15.6666667 65.591764,15.7088738 66.0928792,15.7907234 L66.0928792,15.7907234 Z" id="Layer-3"></path>
            </g>
        </g>
    </g>
</svg>