<?xml version="1.0" encoding="UTF-8"?>
<svg width="69px" height="104px" viewBox="0 0 69 104" version="1.1" xmlns="http://www.w3.org/2000/svg" xmlns:xlink="http://www.w3.org/1999/xlink">
    <!-- Generator: Sketch 46 (44423) - http://www.bohemiancoding.com/sketch -->
    <title>gestures-2</title>
    <desc>Created with Sketch.</desc>
    <defs></defs>
    <g id="ALL" stroke="none" stroke-width="1" fill="none" fill-rule="evenodd" stroke-linecap="round" stroke-linejoin="round">
        <g id="Secondary" transform="translate(-9122.000000, -9023.000000)" stroke="#868E96" stroke-width="3.5">
            <g id="gestures-2" transform="translate(9124.000000, 9025.000000)">
                <path d="M4.09469793,12.6171912 L4.09469793,20.7737784" id="Layer-1" transform="translate(4.094698, 16.695485) scale(-1, 1) rotate(-270.000000) translate(-4.094698, -16.695485) "></path>
                <path d="M10.6636925,27.3540776 L4.92459889,33.1216557" id="Layer-2" transform="translate(7.794146, 30.237867) scale(-1, 1) rotate(-270.000000) translate(-7.794146, -30.237867) "></path>
                <path d="M10.6636925,0.326994756 L4.92459889,6.09457289" id="Layer-3" transform="translate(7.794146, 3.210784) rotate(-270.000000) translate(-7.794146, -3.210784) "></path>
                <path d="M50.1538196,12.6171912 L50.1538196,20.7737784" id="Layer-4" transform="translate(50.153820, 16.695485) rotate(-270.000000) translate(-50.153820, -16.695485) "></path>
                <path d="M49.3239186,27.3540776 L43.5848249,33.1216557" id="Layer-5" transform="translate(46.454372, 30.237867) rotate(-270.000000) translate(-46.454372, -30.237867) "></path>
                <path d="M49.3239186,0.326994756 L43.5848249,6.09457289" id="Layer-6" transform="translate(46.454372, 3.210784) scale(-1, 1) rotate(-270.000000) translate(-46.454372, -3.210784) "></path>
                <path d="M59.3684799,86.3677416 C59.0215362,87.9835874 58.7440295,90.6278282 58.748697,92.2900855 L58.767518,98.9927559 C58.76908,99.5490405 58.3320901,99.9999983 57.7664906,99.9999983 L20.7503523,100 C20.1959381,100 19.7383116,99.5493729 19.7283806,99.0026242 L19.5501918,89.1924563 L2.98087326,55.5297255 C0.0678164202,50.6889154 4.17327963,46.1447834 8.36543658,46.1451533 C10.2201685,46.1451533 19.8299674,61.2841051 20.7464967,61.2841051 C22.2551883,61.2841051 21.5910085,53.9272198 21.5910085,52.0816749 L21.5910085,18.8211736 C21.5910085,14.7390752 23.9050922,12.6982109 27.0367147,12.6982109 C30.1683371,12.6982109 32.7134392,14.7390752 32.7134392,18.8211736 L33.4312207,42.6459934 C33.4312207,42.6459934 62.8555939,47.0393916 64.2401224,55.3448989 C65.085688,60.416936 59.3684799,86.3677416 59.3684799,86.3677416 Z" id="Layer-7"></path>
            </g>
        </g>
    </g>
</svg>