<?xml version="1.0" encoding="UTF-8"?>
<svg width="103px" height="104px" viewBox="0 0 103 104" version="1.1" xmlns="http://www.w3.org/2000/svg" xmlns:xlink="http://www.w3.org/1999/xlink">
    <!-- Generator: Sketch 46 (44423) - http://www.bohemiancoding.com/sketch -->
    <title>gestures-10</title>
    <desc>Created with Sketch.</desc>
    <defs></defs>
    <g id="ALL" stroke="none" stroke-width="1" fill="none" fill-rule="evenodd" stroke-linecap="round" stroke-linejoin="round">
        <g id="Secondary" transform="translate(-1907.000000, -9323.000000)" stroke="#868E96" stroke-width="3.5">
            <g id="gestures-10" transform="translate(1908.000000, 9325.000000)">
                <polyline id="Layer-1" transform="translate(14.745642, 69.195810) rotate(-630.000000) translate(-14.745642, -69.195810) " points="7.74564209 55.1958105 21.7456421 69.1958105 7.74564209 83.1958105"></polyline>
                <polyline id="Layer-2" transform="translate(14.745642, 7.195810) scale(-1, -1) rotate(-630.000000) translate(-14.745642, -7.195810) " points="7.74564209 -6.80418954 21.7456421 7.19581046 7.74564209 21.1958105"></polyline>
                <path d="M14.7456421,76.1958105 L14.7456421,0.19581046" id="Layer-3" transform="translate(14.745642, 38.195810) rotate(-360.000000) translate(-14.745642, -38.195810) "></path>
                <path d="M94.3684799,86.3677416 C94.0215362,87.9835874 93.7440295,90.6278282 93.748697,92.2900855 L93.767518,98.9927559 C93.76908,99.5490405 93.3320901,99.9999983 92.7664906,99.9999983 L55.7503523,100 C55.1959381,100 54.7383116,99.5493729 54.7283806,99.0026242 L54.5501918,89.1924563 L37.9808733,55.5297255 C35.0678164,50.6889154 39.1732796,46.1447834 43.3654366,46.1451533 C45.2201685,46.1451533 54.8299674,61.2841051 55.7464967,61.2841051 C57.2551883,61.2841051 56.5910085,53.9272198 56.5910085,52.0816749 L56.5910085,18.8211736 C56.5910085,14.7390752 58.9050922,12.6982109 62.0367147,12.6982109 C65.1683371,12.6982109 67.7134392,14.7390752 67.7134392,18.8211736 L68.4312207,42.6459934 C68.4312207,42.6459934 97.8555939,47.0393916 99.2401224,55.3448989 C100.085688,60.416936 94.3684799,86.3677416 94.3684799,86.3677416 Z" id="Layer-4"></path>
            </g>
        </g>
    </g>
</svg>