<?xml version="1.0" encoding="UTF-8"?>
<svg width="104px" height="98px" viewBox="0 0 104 98" version="1.1" xmlns="http://www.w3.org/2000/svg" xmlns:xlink="http://www.w3.org/1999/xlink">
    <!-- Generator: Sketch 46 (44423) - http://www.bohemiancoding.com/sketch -->
    <title>gestures-33</title>
    <desc>Created with Sketch.</desc>
    <defs></defs>
    <g id="ALL" stroke="none" stroke-width="1" fill="none" fill-rule="evenodd" stroke-linecap="round" stroke-linejoin="round">
        <g id="Secondary" transform="translate(-8520.000000, -9323.000000)" stroke="#868E96" stroke-width="3.5">
            <g id="gestures-33" transform="translate(8522.000000, 9325.000000)">
                <polyline id="Layer-1" transform="translate(7.000000, 14.000000) rotate(-540.000000) translate(-7.000000, -14.000000) " points="-1.0658141e-14 7.10542736e-15 14 14 4.61852778e-14 28"></polyline>
                <path d="M15,29 L15,-1" id="Layer-2" transform="translate(15.000000, 14.000000) rotate(-270.000000) translate(-15.000000, -14.000000) "></path>
                <path d="M87.5,26.5 L87.5,1.5" id="Layer-3" transform="translate(87.500000, 14.000000) rotate(-270.000000) translate(-87.500000, -14.000000) "></path>
                <path d="M78.3398692,81.0455528 C78.0087267,82.6708844 77.7444629,85.3381245 77.7495481,86.9799508 L77.7672422,92.6927774 C77.7689565,93.2462814 77.3320901,93.6949852 76.7664906,93.6949852 L39.7503523,93.6949869 C39.1959381,93.6949869 38.7383116,93.2443598 38.7283806,92.6976111 L38.5501918,82.8874432 L21.9808733,49.2247124 C19.0678164,44.3839023 23.1732796,39.8397703 27.3654366,39.8401402 C29.2201685,39.8401402 38.8299674,54.979092 39.7464967,54.979092 C41.2551883,54.979092 40.5910085,47.6222067 40.5910085,45.7766617 L40.5910085,12.5161605 C40.5910085,8.43406207 43.3232332,6.38700434 46.3633919,6.38700434 C49.4035506,6.38700434 51.7134392,8.43406207 51.7134392,12.5161605 L52.4312207,37.3409802 L53.574234,37.34098 L53.8102989,9.5161603 C53.8102989,9.5161603 54.1921043,5 59.3075523,5 C64.4230003,5 64.1362917,11.3976849 64.1362917,11.3976849 L65.4229987,36.9647954 C65.4229987,36.9647954 82.5173416,42.8155344 83.2531433,48.4054316 C83.988945,53.9953287 78.3398692,81.0455528 78.3398692,81.0455528 Z" id="Layer-4"></path>
            </g>
        </g>
    </g>
</svg>