<?xml version="1.0" encoding="UTF-8"?>
<svg width="103px" height="99px" viewBox="0 0 103 99" version="1.1" xmlns="http://www.w3.org/2000/svg" xmlns:xlink="http://www.w3.org/1999/xlink">
    <!-- Generator: Sketch 46 (44423) - http://www.bohemiancoding.com/sketch -->
    <title>gestures-8</title>
    <desc>Created with Sketch.</desc>
    <defs></defs>
    <g id="ALL" stroke="none" stroke-width="1" fill="none" fill-rule="evenodd" stroke-linecap="round" stroke-linejoin="round">
        <g id="Secondary" transform="translate(-1306.000000, -9323.000000)" stroke="#868E96" stroke-width="3.5">
            <g id="gestures-8" transform="translate(1308.000000, 9325.000000)">
                <polyline id="Layer-1" transform="translate(92.166892, 14.000000) scale(-1, 1) rotate(-540.000000) translate(-92.166892, -14.000000) " points="85.1668924 7.10542736e-15 99.1668924 14 85.1668924 28"></polyline>
                <path d="M76.1668924,37 L76.1668924,-9" id="Layer-2" transform="translate(76.166892, 14.000000) scale(-1, 1) rotate(-270.000000) translate(-76.166892, -14.000000) "></path>
                <path d="M11.0194215,25 L11.0194215,3" id="Layer-3" transform="translate(11.019421, 14.000000) scale(-1, 1) rotate(-270.000000) translate(-11.019421, -14.000000) "></path>
                <path d="M69.3684799,81.3677416 C69.0215362,82.9835874 68.7440295,85.6278282 68.748697,87.2900855 L68.767518,93.9927559 C68.76908,94.5490405 68.3320901,94.9999983 67.7664906,94.9999983 L30.7503523,95 C30.1959381,95 29.7383116,94.5493729 29.7283806,94.0026242 L29.5501918,84.1924563 L12.9808733,50.5297255 C10.0678164,45.6889154 14.1732796,41.1447834 18.3654366,41.1451533 C20.2201685,41.1451533 29.8299674,56.2841051 30.7464967,56.2841051 C32.2551883,56.2841051 31.5910085,48.9272198 31.5910085,47.0816749 L31.5910085,13.8211736 C31.5910085,9.73907518 33.9050922,7.69821095 37.0367147,7.69821095 C40.1683371,7.69821095 42.7134392,9.73907518 42.7134392,13.8211736 L43.4312207,37.6459934 C43.4312207,37.6459934 72.8555939,42.0393916 74.2401224,50.3448989 C75.085688,55.416936 69.3684799,81.3677416 69.3684799,81.3677416 Z" id="Layer-4"></path>
            </g>
        </g>
    </g>
</svg>