<?xml version="1.0" encoding="UTF-8"?>
<svg width="104px" height="104px" viewBox="0 0 104 104" version="1.1" xmlns="http://www.w3.org/2000/svg" xmlns:xlink="http://www.w3.org/1999/xlink">
    <!-- Generator: Sketch 46 (44423) - http://www.bohemiancoding.com/sketch -->
    <title>gestures-11</title>
    <desc>Created with Sketch.</desc>
    <defs></defs>
    <g id="ALL" stroke="none" stroke-width="1" fill="none" fill-rule="evenodd" stroke-linecap="round" stroke-linejoin="round">
        <g id="Secondary" transform="translate(-2206.000000, -9323.000000)" stroke-width="3.5" stroke="#868E96">
            <g id="gestures-11" transform="translate(2208.000000, 9325.000000)">
                <g id="Group">
                    <path d="M75.3800735,93.0887888 C90.1152593,84.3907612 100,68.349733 100,50 C100,22.3857625 77.6142375,0 50,0 C22.3857625,0 0,22.3857625 0,50 C0,68.2295377 9.75566982,84.1805167 24.3309949,92.9169224 L24.3309949,92.9169224" id="Layer-1"></path>
                    <path d="M38.4444444,62 C38.4444444,62 38.4444444,52 50,52 C61.5555556,52 61.5555556,62 61.5555556,62 L63,100 L37,100 L38.4444444,62 Z" id="Layer-2"></path>
                    <path d="M56.1810291,67.474177 L44,67.474177 L44,62.7370885 C44,60.125282 46.1280088,58 48.7452687,58 L51.4365395,58 C54.0534098,58 56.1814186,60.125282 56.1814186,62.7370885 L56.1810291,67.474177 L56.1810291,67.474177 Z" id="Layer-3"></path>
                    <path d="M45,73 L55.3224927,73" id="Layer-4"></path>
                    <path d="M62.4196553,84.7324715 C75.6187978,79.7215862 85,66.9563417 85,52 C85,32.6700338 69.3299662,17 50,17 C30.6700338,17 15,32.6700338 15,52 C15,66.9563417 24.3812022,79.7215862 37.5803447,84.7324715 L38.4444444,62 C38.4444444,62 38.4444444,52 50,52 C61.5555556,52 61.5555556,62 61.5555556,62 L62.4196553,84.7324715 L62.4196553,84.7324715 Z" id="Layer-5"></path>
                    <path d="M61.8349378,69.3499017 C67.3683427,65.5680933 71,59.2081561 71,52 C71,40.4020203 61.5979797,31 50,31 C38.4020203,31 29,40.4020203 29,52 C29,59.2081561 32.6316573,65.5680933 38.1650622,69.3499017 L38.4444444,62 C38.4444444,62 38.4444444,52 50,52 C61.5555556,52 61.5555556,62 61.5555556,62 L61.8349378,69.3499017 L61.8349378,69.3499017 Z" id="Layer-6"></path>
                </g>
            </g>
        </g>
    </g>
</svg>