<?xml version="1.0" encoding="UTF-8"?>
<svg width="103px" height="99px" viewBox="0 0 103 99" version="1.1" xmlns="http://www.w3.org/2000/svg" xmlns:xlink="http://www.w3.org/1999/xlink">
    <!-- Generator: Sketch 46 (44423) - http://www.bohemiancoding.com/sketch -->
    <title>gestures-5</title>
    <desc>Created with Sketch.</desc>
    <defs></defs>
    <g id="ALL" stroke="none" stroke-width="1" fill="none" fill-rule="evenodd" stroke-linecap="round" stroke-linejoin="round">
        <g id="Secondary" transform="translate(-417.000000, -9323.000000)" stroke="#868E96" stroke-width="3.5">
            <g id="gestures-5" transform="translate(418.000000, 9325.000000)">
                <polyline id="Layer-1" transform="translate(7.833108, 14.000000) rotate(-540.000000) translate(-7.833108, -14.000000) " points="0.833107597 7.10542736e-15 14.8331076 14 0.833107597 28"></polyline>
                <path d="M24.8331076,38 L24.8331076,-10" id="Layer-2" transform="translate(24.833108, 14.000000) rotate(-270.000000) translate(-24.833108, -14.000000) "></path>
                <path d="M89,25 L89,3" id="Layer-3" transform="translate(89.000000, 14.000000) rotate(-270.000000) translate(-89.000000, -14.000000) "></path>
                <path d="M95.0432981,81.3677416 C94.6963543,82.9835874 94.4188476,85.6278282 94.4235152,87.2900855 L94.4423361,93.9927559 C94.4438981,94.5490405 94.0069082,94.9999983 93.4413087,94.9999983 L56.4251704,95 C55.8707562,95 55.4131297,94.5493729 55.4031987,94.0026242 L55.2250099,84.1924563 L38.6556914,50.5297255 C35.7426345,45.6889154 39.8480977,41.1447834 44.0402547,41.1451533 C45.8949866,41.1451533 55.5047855,56.2841051 56.4213148,56.2841051 C57.9300064,56.2841051 57.2658266,48.9272198 57.2658266,47.0816749 L57.2658266,13.8211736 C57.2658266,9.73907518 59.5799104,7.69821095 62.7115328,7.69821095 C65.8431552,7.69821095 68.3882573,9.73907518 68.3882573,13.8211736 L69.1060388,37.6459934 C69.1060388,37.6459934 98.530412,42.0393916 99.9149405,50.3448989 C100.760506,55.416936 95.0432981,81.3677416 95.0432981,81.3677416 Z" id="Layer-4"></path>
            </g>
        </g>
    </g>
</svg>