<?xml version="1.0" encoding="UTF-8"?>
<svg width="104px" height="104px" viewBox="0 0 104 104" version="1.1" xmlns="http://www.w3.org/2000/svg" xmlns:xlink="http://www.w3.org/1999/xlink">
    <!-- Generator: Sketch 46 (44423) - http://www.bohemiancoding.com/sketch -->
    <title>gestures-44</title>
    <desc>Created with Sketch.</desc>
    <defs></defs>
    <g id="ALL" stroke="none" stroke-width="1" fill="none" fill-rule="evenodd" stroke-linecap="round" stroke-linejoin="round">
        <g id="Secondary" transform="translate(-2500.000000, -9624.000000)" stroke="#868E96" stroke-width="3.5">
            <g id="gestures-44" transform="translate(2502.000000, 9626.000000)">
                <path d="" id="Layer-1"></path>
                <path d="M0,23.8636364 C0,23.8636364 13.9911706,3.31174482e-16 49.954181,0 C85.9171914,-3.31174482e-16 99.047083,23.8636364 99.047083,23.8636364" id="Layer-2"></path>
                <polyline id="Layer-3" points="84.4458684 23.9446927 99.8678338 23.8636364 99.9488901 8.44167098"></polyline>
                <path d="M80.3785954,67.611285 L85.1314074,72.3374802 C85.5258646,72.7297283 85.5357414,73.3576021 85.1358021,73.7575414 L58.9614409,99.931905 C58.5694109,100.323935 57.9271786,100.328884 57.5335466,99.9492969 L50.4707119,93.1384592 L14.9512892,81.0515915 C9.46847727,79.6884641 9.15829159,73.5722767 12.1228558,70.6082356 C13.4343493,69.2967421 30.9343588,73.2064436 31.5824428,72.5583596 C32.6492489,71.4915535 26.9774994,66.7590961 25.672502,65.4540987 L2.153776,41.9353727 C-0.732703463,39.0488932 -0.5395081,35.96948 1.67488336,33.7550885 C3.88927483,31.540697 7.13204273,31.184147 10.0185222,34.0706265 L27.3727619,50.40977 C27.3727619,50.40977 51.2855374,32.7101978 58.1374275,37.6040689 C62.3218045,40.5926355 76.6291185,62.9853027 76.6291185,62.9853027 C77.5263677,64.3732045 79.1999015,66.439192 80.3785954,67.611285 Z" id="Layer-4" transform="translate(42.715764, 66.115009) scale(-1, 1) translate(-42.715764, -66.115009) "></path>
            </g>
        </g>
    </g>
</svg>