<?xml version="1.0" encoding="UTF-8"?>
<svg width="105px" height="104px" viewBox="0 0 105 104" version="1.1" xmlns="http://www.w3.org/2000/svg" xmlns:xlink="http://www.w3.org/1999/xlink">
    <!-- Generator: Sketch 46 (44423) - http://www.bohemiancoding.com/sketch -->
    <title>gestures-46</title>
    <desc>Created with Sketch.</desc>
    <defs></defs>
    <g id="ALL" stroke="none" stroke-width="1" fill="none" fill-rule="evenodd" stroke-linecap="round" stroke-linejoin="round">
        <g id="Secondary" transform="translate(-3077.000000, -9624.000000)" stroke="#868E96" stroke-width="3.5">
            <g id="gestures-46" transform="translate(3079.000000, 9626.000000)">
                <path d="M94.4107836,88.0631213 C94.0404762,89.6787501 93.7449142,92.3297875 93.7506289,93.9847625 L93.7668976,98.6962378 C93.7688022,99.2478307 93.3320901,99.6949852 92.7664906,99.6949852 L55.7503523,99.6949869 C55.1959381,99.6949869 54.7383116,99.2443598 54.7283806,98.6976111 L54.5501918,88.8874432 L37.9808733,55.2247124 C35.0678164,50.3839023 39.1732796,45.8397703 43.3654366,45.8401402 C45.2201685,45.8401402 54.8299674,60.979092 55.7464967,60.979092 C57.2551883,60.979092 56.5910085,53.6222067 56.5910085,51.7766617 L56.5910085,19.5161605 C56.5910085,15.4340621 59.3232332,13.3870043 62.3633919,13.3870043 C65.4035506,13.3870043 67.7134392,15.4340621 67.7134392,19.5161605 L68.4312207,45.3409802 L68.8102989,16.5161603 C68.8102989,16.5161603 69.1921043,12 74.3075523,12 C79.4230003,12 79.1362917,18.3976849 79.1362917,18.3976849 L79.7738838,45.3409805 L79.9029961,17.6606727 C79.9029961,17.6606727 80.4685249,13.3870044 84.7345276,13.3870044 C89.0005302,13.3870044 89.2143898,17.6606727 89.2143898,17.6606727 L90.2143898,45.3409805 L90.1968231,26.1412153 C90.1968231,26.1412153 90.7685814,22.2551346 94.9305458,22.3851089 C99.0925102,22.5150833 99.3142509,27.2255993 99.3142509,27.2255993 C99.3142509,27.2255993 100.141464,53.5570004 100.253143,54.4054316 C100.988945,59.9953287 94.4107836,88.0631213 94.4107836,88.0631213 Z" id="Layer-1"></path>
                <path d="M17.5,35 C27.1649831,35 35,27.1649831 35,17.5 C35,7.83501688 27.1649831,0 17.5,0 C7.83501688,0 0,7.83501688 0,17.5 C0,27.1649831 7.83501688,35 17.5,35 Z" id="Layer-2"></path>
                <polyline id="Layer-3" points="17.5 7 17.5 17.5 28 17.5"></polyline>
            </g>
        </g>
    </g>
</svg>