<?xml version="1.0" encoding="UTF-8"?>
<svg width="104px" height="104px" viewBox="0 0 104 104" version="1.1" xmlns="http://www.w3.org/2000/svg" xmlns:xlink="http://www.w3.org/1999/xlink">
    <!-- Generator: Sketch 46 (44423) - http://www.bohemiancoding.com/sketch -->
    <title>gestures-30</title>
    <desc>Created with Sketch.</desc>
    <defs></defs>
    <g id="ALL" stroke="none" stroke-width="1" fill="none" fill-rule="evenodd" stroke-linecap="round" stroke-linejoin="round">
        <g id="Secondary" transform="translate(-7693.000000, -9323.000000)" stroke="#868E96" stroke-width="3.5">
            <g id="gestures-30" transform="translate(7695.000000, 9325.000000)">
                <polyline id="Layer-1" transform="translate(71.000000, 79.000000) scale(-1, 1) rotate(-180.000000) translate(-71.000000, -79.000000) " points="64 65 78 79 64 93"></polyline>
                <path d="M60,97 L60,61" id="Layer-2" transform="translate(60.000000, 79.000000) scale(-1, 1) rotate(90.000000) translate(-60.000000, -79.000000) "></path>
                <circle id="Layer-3" transform="translate(21.000000, 79.000000) scale(-1, -1) rotate(-90.000000) translate(-21.000000, -79.000000) " cx="21" cy="79" r="21"></circle>
                <circle id="Layer-4" transform="translate(21.000000, 79.000000) scale(-1, -1) rotate(-90.000000) translate(-21.000000, -79.000000) " cx="21" cy="79" r="14"></circle>
                <polyline id="Layer-5" transform="translate(71.000000, 21.000000) scale(-1, 1) rotate(-180.000000) translate(-71.000000, -21.000000) " points="64 7 78 21 64 35"></polyline>
                <path d="M60,39 L60,3" id="Layer-6" transform="translate(60.000000, 21.000000) scale(-1, 1) rotate(90.000000) translate(-60.000000, -21.000000) "></path>
                <circle id="Layer-7" transform="translate(21.000000, 21.000000) scale(-1, -1) rotate(-90.000000) translate(-21.000000, -21.000000) " cx="21" cy="21" r="21"></circle>
                <circle id="Layer-8" transform="translate(21.000000, 21.000000) scale(-1, -1) rotate(-90.000000) translate(-21.000000, -21.000000) " cx="21" cy="21" r="14"></circle>
                <path d="M100,100 L100,0" id="Layer-9"></path>
            </g>
        </g>
    </g>
</svg>