<?xml version="1.0" encoding="UTF-8"?>
<svg width="104px" height="105px" viewBox="0 0 104 105" version="1.1" xmlns="http://www.w3.org/2000/svg" xmlns:xlink="http://www.w3.org/1999/xlink">
    <!-- Generator: Sketch 46 (44423) - http://www.bohemiancoding.com/sketch -->
    <title>gestures-38</title>
    <desc>Created with Sketch.</desc>
    <defs></defs>
    <g id="ALL" stroke="none" stroke-width="1" fill="none" fill-rule="evenodd" stroke-linecap="round" stroke-linejoin="round">
        <g id="Secondary" transform="translate(-701.000000, -9624.000000)" stroke="#868E96" stroke-width="3.5">
            <g id="gestures-38" transform="translate(703.000000, 9626.000000)">
                <circle id="Layer-1" cx="17.5" cy="17.5" r="17.5"></circle>
                <path d="M27.3,17.5 L8.4,17.5" id="Layer-2"></path>
                <path d="M93.7402827,89.5952782 C93.7798638,94.7973214 93.7712396,99.303694 93.7712396,99.303694 C93.7707462,99.8549257 93.3320901,100.301787 92.7664906,100.301787 L55.7503523,100.301789 C55.1959381,100.301789 54.7383116,99.851162 54.7283806,99.3044132 L54.5501918,89.4942453 C54.5501918,89.4942453 48.2736893,82.1876261 44.6354381,78.5343165 C40.7505831,74.6333825 31.9808733,67.8315146 31.9808733,67.8315146 C29.0678164,62.9907045 33.1732796,58.4465725 37.3654366,58.4469424 C39.9598074,58.4467433 55.3217139,67.5858942 55.7464967,67.5858942 C57.2551883,67.5858942 56.5910085,54.2290089 56.5910085,52.3834639 L47.5910085,20.1229626 C47.5910085,16.0408642 50.6120652,14 53.6522239,14 C56.6923825,14 58.8706474,15.9940302 60.7134392,20.1229626 L69.4312207,42.9477824 C69.4312207,42.9477824 97.8555939,47.3411806 99.2401224,55.6466879 C100.085688,60.718725 99.2401237,78.8655167 93.7402827,89.5952782 Z" id="Layer-3"></path>
            </g>
        </g>
    </g>
</svg>