<?xml version="1.0" encoding="UTF-8"?>
<svg width="104px" height="104px" viewBox="0 0 104 104" version="1.1" xmlns="http://www.w3.org/2000/svg" xmlns:xlink="http://www.w3.org/1999/xlink">
    <!-- Generator: Sketch 46 (44423) - http://www.bohemiancoding.com/sketch -->
    <title>gestures-3</title>
    <desc>Created with Sketch.</desc>
    <defs></defs>
    <g id="ALL" stroke="none" stroke-width="1" fill="none" fill-rule="evenodd" stroke-linecap="round" stroke-linejoin="round">
        <g id="Secondary" transform="translate(-9387.000000, -9023.000000)" stroke="#868E96" stroke-width="3.5">
            <g id="gestures-3" transform="translate(9389.000000, 9025.000000)">
                <circle id="Layer-1" cx="16.4708931" cy="16.4708931" r="16.4708931"></circle>
                <path d="M25.6945933,17.4708931 L15.9045933,17.4708931" id="Layer-2"></path>
                <path d="M15.9708931,7.68089316 L15.9708931,17.4708931" id="Layer-3"></path>
                <path d="M95.0432981,86.3677416 C94.6963543,87.9835874 94.4188476,90.6278282 94.4235152,92.2900855 L94.4423361,98.9927559 C94.4438981,99.5490405 94.0069082,99.9999983 93.4413087,99.9999983 L56.4251704,100 C55.8707562,100 55.4131297,99.5493729 55.4031987,99.0026242 L55.2250099,89.1924563 L38.6556914,55.5297255 C35.7426345,50.6889154 39.8480977,46.1447834 44.0402547,46.1451533 C45.8949866,46.1451533 55.5047855,61.2841051 56.4213148,61.2841051 C57.9300064,61.2841051 57.2658266,53.9272198 57.2658266,52.0816749 L57.2658266,18.8211736 C57.2658266,14.7390752 59.5799104,12.6982109 62.7115328,12.6982109 C65.8431552,12.6982109 68.3882573,14.7390752 68.3882573,18.8211736 L69.1060388,42.6459934 C69.1060388,42.6459934 98.530412,47.0393916 99.9149405,55.3448989 C100.760506,60.416936 95.0432981,86.3677416 95.0432981,86.3677416 Z" id="Layer-4"></path>
                <path d="M57.2658266,32.3151177 C50.824517,30.0599111 46.2048477,23.9276938 46.2048477,16.7164951 C46.2048477,7.59128471 53.6022922,0.19384013 62.7275026,0.19384013 C71.8527129,0.19384013 79.2501575,7.59128471 79.2501575,16.7164951 C79.2501575,23.7021722 74.9149193,29.6753001 68.788081,32.0922408 L68.3882573,18.8211736 C68.3882573,14.7390752 65.8431552,12.6982109 62.7115328,12.6982109 C59.5799104,12.6982109 57.2658266,14.7390752 57.2658266,18.8211736 L57.2658266,32.3151177 Z" id="Layer-5"></path>
            </g>
        </g>
    </g>
</svg>