<?xml version="1.0" encoding="UTF-8"?>
<svg width="67px" height="104px" viewBox="0 0 67 104" version="1.1" xmlns="http://www.w3.org/2000/svg" xmlns:xlink="http://www.w3.org/1999/xlink">
    <!-- Generator: Sketch 46 (44423) - http://www.bohemiancoding.com/sketch -->
    <title>gestures-1</title>
    <desc>Created with Sketch.</desc>
    <defs></defs>
    <g id="ALL" stroke="none" stroke-width="1" fill="none" fill-rule="evenodd" stroke-linecap="round" stroke-linejoin="round">
        <g id="Secondary" transform="translate(-8859.000000, -9023.000000)" stroke="#868E96" stroke-width="3.5">
            <g id="gestures-1" transform="translate(8861.000000, 9025.000000)">
                <path d="M57.8317653,86.3610914 C57.4848215,87.9769371 57.2073148,90.6211779 57.2119824,92.2834353 L57.2308033,98.9861056 C57.2323653,99.5423902 56.7953755,99.993348 56.2297759,99.9933481 L19.2136376,99.9933498 C18.6592235,99.9933498 18.2015969,99.5427227 18.1916659,98.995974 L18.0134771,89.1858061 L1.44415858,55.5230753 C-1.46889826,50.6822652 2.63656495,46.1381332 6.8287219,46.1385031 C8.6834538,46.1385031 18.2932527,61.2774549 19.209782,61.2774549 C20.7184736,61.2774549 20.0542938,53.9205696 20.0542938,52.0750246 L20.0542938,18.8145234 C20.0542938,14.732425 22.3683776,12.6915607 25.5,12.6915607 C28.6316224,12.6915607 31.1767245,14.732425 31.1767245,18.8145234 L31.894506,42.6393431 C31.894506,42.6393431 61.3188792,47.0327413 62.7034077,55.3382487 C63.5489734,60.4102858 57.8317653,86.3610914 57.8317653,86.3610914 Z" id="Layer-1"></path>
                <path d="M20.0542938,32.2394259 C13.7236171,29.9251056 9.20484766,23.8485079 9.20484766,16.7164951 C9.20484766,7.59128471 16.6022922,0.19384013 25.7275026,0.19384013 C34.8527129,0.19384013 42.2501575,7.59128471 42.2501575,16.7164951 C42.2501575,23.7813054 37.8161444,29.8104966 31.5791817,32.1730049 L31.1767245,18.8145234 C31.1767245,14.732425 28.6316224,12.6915607 25.5,12.6915607 C22.3683776,12.6915607 20.0542938,14.732425 20.0542938,18.8145234 L20.0542938,32.2394259 Z" id="Layer-2"></path>
            </g>
        </g>
    </g>
</svg>