<?xml version="1.0" encoding="UTF-8"?>
<svg width="99px" height="102px" viewBox="0 0 99 102" version="1.1" xmlns="http://www.w3.org/2000/svg" xmlns:xlink="http://www.w3.org/1999/xlink">
    <!-- Generator: Sketch 46 (44423) - http://www.bohemiancoding.com/sketch -->
    <title>gestures-40</title>
    <desc>Created with Sketch.</desc>
    <defs></defs>
    <g id="ALL" stroke="none" stroke-width="1" fill="none" fill-rule="evenodd" stroke-linecap="round" stroke-linejoin="round">
        <g id="Secondary" transform="translate(-1303.000000, -9624.000000)" stroke="#868E96" stroke-width="3.5">
            <g id="gestures-40" transform="translate(1305.000000, 9626.000000)">
                <polyline id="Layer-1" points="0.0413872117 38.5263636 11.2794754 32.5509662 17.2548728 43.7890543"></polyline>
                <path d="M4.55492615,54.5459756 L10.4023602,35.4198804" id="Layer-2"></path>
                <polyline id="Layer-3" points="8.34229382 11.3753215 14.3176913 22.6134097 25.5557794 16.6380122"></polyline>
                <path d="M21.0422405,0.618400274 L15.1948064,19.7444954" id="Layer-4"></path>
                <path d="M88.7402827,86.5952782 C88.7798638,91.7973214 88.7712396,96.303694 88.7712396,96.303694 C88.7707462,96.8549257 88.3320901,97.3017873 87.7664906,97.3017874 L50.7503523,97.3017891 C50.1959381,97.3017891 49.7383116,96.851162 49.7283806,96.3044132 L49.5501918,86.4942453 C49.5501918,86.4942453 43.2736893,79.1876261 39.6354381,75.5343165 C35.7505831,71.6333825 26.9808733,64.8315146 26.9808733,64.8315146 C24.0678164,59.9907045 28.1732796,55.4465725 32.3654366,55.4469424 C34.9598074,55.4467433 50.3217139,64.5858942 50.7464967,64.5858942 C52.2551883,64.5858942 51.5910085,51.2290089 51.5910085,49.3834639 L42.5910085,17.1229626 C42.5910085,13.0408642 45.6120652,11 48.6522239,11 C51.6923825,11 53.8706474,12.9940302 55.7134392,17.1229626 L64.4312207,39.9477824 C64.4312207,39.9477824 92.8555939,44.3411806 94.2401224,52.6466879 C95.085688,57.718725 94.2401237,75.8655167 88.7402827,86.5952782 Z" id="Layer-5"></path>
            </g>
        </g>
    </g>
</svg>