<?xml version="1.0" encoding="UTF-8"?>
<svg width="104px" height="105px" viewBox="0 0 104 105" version="1.1" xmlns="http://www.w3.org/2000/svg" xmlns:xlink="http://www.w3.org/1999/xlink">
    <!-- Generator: Sketch 46 (44423) - http://www.bohemiancoding.com/sketch -->
    <title>gestures-42</title>
    <desc>Created with Sketch.</desc>
    <defs></defs>
    <g id="ALL" stroke="none" stroke-width="1" fill="none" fill-rule="evenodd" stroke-linecap="round" stroke-linejoin="round">
        <g id="Secondary" transform="translate(-1899.000000, -9624.000000)" stroke="#868E96" stroke-width="3.5">
            <g id="gestures-42" transform="translate(1901.000000, 9626.000000)">
                <path d="" id="Layer-1" transform="translate(6.111603, 29.322961) rotate(-90.000000) translate(-6.111603, -29.322961) "></path>
                <path d="M-37.5917233,62.4082767 C-37.5917233,62.4082767 -23.6005527,38.5446403 12.3624577,38.5446403 C48.3254681,38.5446403 61.4553597,62.4082767 61.4553597,62.4082767" id="Layer-2" transform="translate(11.931818, 50.476459) rotate(-90.000000) translate(-11.931818, -50.476459) "></path>
                <polyline id="Layer-3" points="23.9446927 15.5541316 23.8636364 0.132166178 8.44167098 0.0511098812"></polyline>
                <path d="M96.7539474,75.0319766 L100.019928,80.8851396 C100.290986,81.3709198 100.127415,81.9771933 99.6327301,82.2514014 L67.2576869,100.197183 C66.7727854,100.465968 66.1540678,100.293703 65.8803129,99.82032 L60.9684017,91.3265415 L30.1565335,69.9174188 C25.2618452,67.0958288 26.6495253,61.1310734 30.3162478,59.0989989 C31.9384328,58.199807 47.6828619,66.7817097 48.4844764,66.3373675 C49.8040078,65.6059393 45.6564143,59.4934631 44.7616764,57.8793131 L28.6366654,28.7890232 C26.6576248,25.2187395 27.6921374,22.3118694 30.4311161,20.7936287 C33.1700948,19.275388 36.3855219,19.8264781 38.3645625,23.3967618 L50.5428501,43.8864314 C50.5428501,43.8864314 78.4079485,33.4637648 83.6454743,40.0566924 C86.843995,44.0828577 94.4248124,69.5517012 94.4248124,69.5517012 C94.9047461,71.1331534 95.9439866,73.5803964 96.7539474,75.0319766 Z" id="Layer-4"></path>
            </g>
        </g>
    </g>
</svg>