<?xml version="1.0" encoding="UTF-8"?>
<svg width="104px" height="104px" viewBox="0 0 104 104" version="1.1" xmlns="http://www.w3.org/2000/svg" xmlns:xlink="http://www.w3.org/1999/xlink">
    <!-- Generator: Sketch 46 (44423) - http://www.bohemiancoding.com/sketch -->
    <title>gestures-49</title>
    <desc>Created with Sketch.</desc>
    <defs></defs>
    <g id="ALL" stroke="none" stroke-width="1" fill="none" fill-rule="evenodd" stroke-linecap="round" stroke-linejoin="round">
        <g id="Secondary" transform="translate(-3979.000000, -9624.000000)" stroke="#868E96" stroke-width="3.5">
            <g id="gestures-49" transform="translate(3981.000000, 9626.000000)">
                <path d="M65.018747,94.8065137 C65.018747,94.7796619 65.018747,94.7796619 65.018747,94.8065137 C65.018747,94.7796619 65.018747,94.7796619 65.018747,94.8065137 L65.018747,94.8065137 L65.018747,94.8065137 Z" id="Layer-1"></path>
                <circle id="Layer-2" cx="82.5" cy="82.5" r="17.5"></circle>
                <path d="M69.5131373,64.3511444 L69.5131359,73.4732309 C69.5131358,74.0301464 69.0634559,74.4816156 68.5138836,74.4816156 L31.667496,74.4816151 C31.1156243,74.4816151 30.668244,74.03325 30.6682441,73.4732305 L30.6682457,64.3511444 C30.6682457,64.3511444 22.9711435,51.6320919 20.7502735,50.3771714 C16.7982388,48.1440425 -4.24727119,48.250102 -4.24727119,48.250102 C-4.24727119,48.250102 -9.5069318,38.7791409 -1.23304301,36.0580527 C7.04084578,33.3369645 22.7717156,34.3275041 22.7717156,34.3275041 L23.6915869,12.1876508 C23.6915869,7.99253861 27.7557518,5.89517259 30.8285029,5.89517259 C33.901254,5.89517259 60.8532387,11.6610615 67.4343469,14.768878 C74.015455,17.8766945 74.4816156,27.5833785 74.4816156,27.5833785 L69.5131373,64.3511444 Z" id="Layer-3" transform="translate(34.293221, 40.188394) scale(1, -1) rotate(-270.000000) translate(-34.293221, -40.188394) "></path>
                <path d="M70.8327381,95.1672619 L94.1672619,71.8327381" id="Layer-4"></path>
            </g>
        </g>
    </g>
</svg>