<?xml version="1.0" encoding="UTF-8"?>
<svg width="104px" height="104px" viewBox="0 0 104 104" version="1.1" xmlns="http://www.w3.org/2000/svg" xmlns:xlink="http://www.w3.org/1999/xlink">
    <!-- Generator: Sketch 46 (44423) - http://www.bohemiancoding.com/sketch -->
    <title>gestures-37</title>
    <desc>Created with Sketch.</desc>
    <defs></defs>
    <g id="ALL" stroke="none" stroke-width="1" fill="none" fill-rule="evenodd" stroke-linecap="round" stroke-linejoin="round">
        <g id="Secondary" transform="translate(-416.000000, -9624.000000)" stroke="#868E96" stroke-width="3.5">
            <g id="gestures-37" transform="translate(418.000000, 9626.000000)">
                <path d="M93.7402827,88.5952782 C93.7798638,93.7973214 93.7712396,98.303694 93.7712396,98.303694 C93.7707462,98.8549257 93.3320901,99.3017873 92.7664906,99.3017874 L55.7503523,99.3017891 C55.1959381,99.3017891 54.7383116,98.851162 54.7283806,98.3044132 L54.5501918,88.4942453 C54.5501918,88.4942453 48.2736893,81.1876261 44.6354381,77.5343165 C40.7505831,73.6333825 31.9808733,66.8315146 31.9808733,66.8315146 C29.0678164,61.9907045 33.1732796,57.4465725 37.3654366,57.4469424 C39.9598074,57.4467433 55.3217139,66.5858942 55.7464967,66.5858942 C57.2551883,66.5858942 56.5910085,53.2290089 56.5910085,51.3834639 L47.5910085,19.1229626 C47.5910085,15.0408642 50.6120652,13 53.6522239,13 C56.6923825,13 58.8706474,14.9940302 60.7134392,19.1229626 L69.4312207,41.9477824 C69.4312207,41.9477824 97.8555939,46.3411806 99.2401224,54.6466879 C100.085688,59.718725 99.2401237,77.8655167 93.7402827,88.5952782 Z" id="Layer-1"></path>
                <circle id="Layer-2" cx="17.5" cy="17.5" r="17.5"></circle>
                <path d="M17.85,8.05 L17.85,26.95" id="Layer-3"></path>
                <path d="M27.3,17.5 L8.4,17.5" id="Layer-4"></path>
            </g>
        </g>
    </g>
</svg>