<?xml version="1.0" encoding="UTF-8"?>
<svg width="89px" height="104px" viewBox="0 0 89 104" version="1.1" xmlns="http://www.w3.org/2000/svg" xmlns:xlink="http://www.w3.org/1999/xlink">
    <!-- Generator: Sketch 46 (44423) - http://www.bohemiancoding.com/sketch -->
    <title>gestures-17</title>
    <desc>Created with Sketch.</desc>
    <defs></defs>
    <g id="ALL" stroke="none" stroke-width="1" fill="none" fill-rule="evenodd" stroke-linecap="round" stroke-linejoin="round">
        <g id="Secondary" transform="translate(-3876.000000, -9323.000000)" stroke="#868E96" stroke-width="3.5">
            <g id="gestures-17" transform="translate(3878.000000, 9325.000000)">
                <path d="M34.9444444,48.5416667 C34.9444444,48.5416667 34.9444444,35 50.5,35 C66.0555556,35 66.0555556,48.5416667 66.0555556,48.5416667 L68,100 L33,100 L34.9444444,48.5416667 Z" id="Layer-1"></path>
                <path d="M58.820616,55.9546147 L42.4230769,55.9546147 L42.4230769,49.5398073 C42.4230769,46.0029861 45.2877041,43.125 48.8109386,43.125 L52.4338031,43.125 C55.9565132,43.125 58.8211404,46.0029861 58.8211404,49.5398073 L58.820616,55.9546147 L58.820616,55.9546147 Z" id="Layer-2"></path>
                <path d="M43.7692308,63.4375 L57.664894,63.4375" id="Layer-3"></path>
                <path d="M17.5,35 C27.1649831,35 35,27.1649831 35,17.5 C35,7.83501688 27.1649831,0 17.5,0 C7.83501688,0 0,7.83501688 0,17.5 C0,27.1649831 7.83501688,35 17.5,35 Z" id="Layer-4"></path>
                <polyline id="Layer-5" points="17.5 7 17.5 17.5 28 17.5"></polyline>
                <path d="M15.2427854,34.855772 C15.0824566,36.2148664 15,37.5978038 15,39 C15,52.6152998 22.7743155,64.414811 34.1259847,70.2015717 L34.9444444,48.5416667 C34.9444444,48.5416667 34.9444444,35 50.5,35 C66.0555556,35 66.0555556,48.5416667 66.0555556,48.5416667 L66.854381,69.6820107 C77.6709142,63.7275658 85,52.2196827 85,39 C85,19.6700338 69.3299662,4 50,4 C43.6617974,4 37.7170933,5.68476751 32.5892886,8.63090166 C34.1212433,11.2316506 35,14.263203 35,17.5 C35,27.1649831 27.1649831,35 17.5,35 C16.7351426,35 15.9817457,34.950932 15.2427854,34.855772 Z" id="Layer-6"></path>
            </g>
        </g>
    </g>
</svg>