<?xml version="1.0" encoding="UTF-8"?>
<svg width="103px" height="104px" viewBox="0 0 103 104" version="1.1" xmlns="http://www.w3.org/2000/svg" xmlns:xlink="http://www.w3.org/1999/xlink">
    <!-- Generator: Sketch 46 (44423) - http://www.bohemiancoding.com/sketch -->
    <title>healthcare-9</title>
    <desc>Created with Sketch.</desc>
    <defs></defs>
    <g id="ALL" stroke="none" stroke-width="1" fill="none" fill-rule="evenodd" stroke-linecap="round" stroke-linejoin="round">
        <g id="Secondary" transform="translate(-9315.000000, -6881.000000)" stroke="#868E96" stroke-width="3.5">
            <g id="healthcare-9" transform="translate(9317.000000, 6883.000000)">
                <path d="M49.5238095,25.5850727 C49.5238095,31.5962404 53.9417326,36.628147 59.8665328,37.9159542" id="Layer-1"></path>
                <path d="M49.5238095,25.5850727 C49.5238095,31.5113904 45.2297277,36.4858972 39.4310701,37.8591903" id="Layer-2"></path>
                <path d="M49.5238095,25.9013283 L49.5238095,0.423243709" id="Layer-3"></path>
                <path d="M0,62.9958348 C1.32513554e-08,43.8303161 8.41059438,32.3133333 8.41059438,32.3133333 C12.2830232,24.9990604 22.1228907,18.5270388 30.3801768,17.8583469 L32.3900248,17.6955853 C36.2410425,17.383722 39.3629092,20.2700266 39.3629092,24.130472 L39.3629092,34.6066193 L39.3629092,34.6066193 C39.3629092,40.0264463 41.1932044,48.5112643 43.4454881,53.5456972 L42.7686997,52.0329014 C43.8982822,54.5578086 44.8139898,58.8391052 44.8139898,61.5980623 L44.8139898,83.5558219 C44.8139898,90.1868034 39.4953404,96.275363 32.9185076,97.1571384 L13.3342843,99.7828531 C6.76459087,100.663671 1.08591048,96.020194 0.720454846,89.394931 C0.720454846,89.394931 -1.32513547e-08,82.1613536 0,62.9958348 Z" id="Layer-4"></path>
                <path d="M99.0997041,62.9959057 C99.0997041,43.8303869 90.6891097,32.3134041 90.6891097,32.3134041 C86.8166809,24.9991312 76.9768134,18.5271096 68.7195272,17.8584177 L66.7096792,17.6956561 C62.8586615,17.3837928 59.7367948,20.2700974 59.7367948,24.1305429 L59.7367948,34.6066901 L59.7367948,34.6066901 C59.7367948,40.0265171 57.9064997,48.5113351 55.654216,53.545768 L56.3310043,52.0329722 C55.2014218,54.5578794 54.2857143,58.839176 54.2857143,61.5981331 L54.2857143,83.5558927 C54.2857143,90.1868742 59.6043637,96.2754339 66.1811965,97.1572093 L85.7654198,99.7829239 C92.3351132,100.663742 98.0137936,96.0202648 98.3792492,89.3950018 C98.3792492,89.3950018 99.0997041,82.1614244 99.0997041,62.9959057 L99.0997041,62.9959057 Z" id="Layer-5"></path>
            </g>
        </g>
    </g>
</svg>