<?xml version="1.0" encoding="UTF-8"?>
<svg width="104px" height="104px" viewBox="0 0 104 104" version="1.1" xmlns="http://www.w3.org/2000/svg" xmlns:xlink="http://www.w3.org/1999/xlink">
    <!-- Generator: Sketch 46 (44423) - http://www.bohemiancoding.com/sketch -->
    <title>healthcare-29</title>
    <desc>Created with Sketch.</desc>
    <defs></defs>
    <g id="ALL" stroke="none" stroke-width="1" fill="none" fill-rule="evenodd" stroke-linecap="round" stroke-linejoin="round">
        <g id="Secondary" transform="translate(-5672.000000, -7191.000000)" stroke="#868E96" stroke-width="3.5">
            <g id="healthcare-29" transform="translate(5674.000000, 7193.000000)">
                <path d="M4.91977834,71.0932871 C10.387806,81.4900997 41.5121915,103.980977 70.2383779,71.2496559 C85.7669876,52.9831403 75.7880549,24.1526897 99.2157353,2.68580685 C104.688259,-2.32698546 40.9135537,-0.52744508 14.3414443,25.6848867 C-5.25904346,45.0182951 -0.54824931,60.6964745 4.91977834,71.0932871 L4.91977834,71.0932871 Z" id="Layer-1"></path>
                <path d="M35.3630036,51.6207103 C27.8062363,59.4791055 19.5579512,69.2223594 12.7748411,80.0847281 C8.16672198,87.4640995 4.4826496,93.9054683 1.55558551,99.3908575" id="Layer-2"></path>
                <path d="M22.1937089,67.2078952 C22.1937089,67.2078952 24.9744716,65.4050466 30.6984172,65.4050466 C36.4223628,65.4050466 38.4965825,66.3064709 38.4965825,66.3064709" id="Layer-3"></path>
                <path d="M22.2500125,67.0528611 C22.2500125,67.0528611 24.0528611,64.2720984 24.0528611,58.5481528 C24.0528611,52.8242072 23.1514368,50.7499875 23.1514368,50.7499875" id="Layer-4"></path>
                <path d="M35,52.5805441 C35,52.5805441 37.8012729,51.8988986 41.0610784,51.6299783 C44.3208839,51.361058 46.5753808,51.9898017 46.5753808,51.9898017" id="Layer-5"></path>
                <path d="M35.4807433,51.0612873 C35.4807433,51.0612873 36.1623887,48.2600144 36.431309,45.0002089 C36.7002293,41.7404034 36.0714857,39.4859066 36.0714857,39.4859066" id="Layer-6"></path>
            </g>
        </g>
    </g>
</svg>