<?xml version="1.0" encoding="UTF-8"?>
<svg width="104px" height="104px" viewBox="0 0 104 104" version="1.1" xmlns="http://www.w3.org/2000/svg" xmlns:xlink="http://www.w3.org/1999/xlink">
    <!-- Generator: Sketch 46 (44423) - http://www.bohemiancoding.com/sketch -->
    <title>healthcare-35</title>
    <desc>Created with Sketch.</desc>
    <defs></defs>
    <g id="ALL" stroke="none" stroke-width="1" fill="none" fill-rule="evenodd" stroke-linecap="round" stroke-linejoin="round">
        <g id="Secondary" transform="translate(-7447.000000, -7191.000000)" stroke="#868E96" stroke-width="3.5">
            <g id="healthcare-35" transform="translate(7449.000000, 7193.000000)">
                <circle id="Layer-1" cx="50" cy="50" r="50"></circle>
                <path d="M15.1961265,66.249405 C14.5162057,62.3933826 17.1006562,58.7145617 20.9470117,58.0363455 L76.8024922,48.1875172 C80.6585392,47.5075921 84.3370512,50.0901739 85.0155885,53.9383501 L85.0155885,53.9383501 C85.6955093,57.7943725 83.1110587,61.4731934 79.2647032,62.1514097 L23.4092227,72.0002379 C19.5531757,72.680163 15.8746637,70.0975812 15.1961265,66.249405 L15.1961265,66.249405 L15.1961265,66.249405 Z" id="Layer-2"></path>
                <path d="M73.4758947,49.7374323 C72.3454103,49.3242907 71.0947555,49.1939452 69.8248716,49.41786 L43.9831086,53.9744601 C40.1282546,54.6541748 37.5566281,58.3307345 38.2365489,62.1867569 C38.9150862,66.0349331 42.5916615,68.6178564 46.4453196,67.9383525 L72.2870826,63.3817524 C73.5578625,63.1576797 74.6891891,62.6079284 75.6105474,61.8334317 C73.3100715,60.9945188 71.5074762,58.9854185 71.0516961,56.4005611 C70.5960431,53.8164249 71.6020871,51.3126405 73.4758947,49.7374323 L73.4758947,49.7374323 Z" id="Layer-3"></path>
                <path d="M79.2647478,62.1514018 C83.1207702,61.471481 85.6955093,57.7943725 85.0155885,53.9383501 C84.3356677,50.0823277 80.6585592,47.5075886 76.8025368,48.1875094 C72.9465144,48.8674302 70.3717753,52.5445387 71.0516961,56.4005611 C71.7316169,60.2565835 75.4087254,62.8313226 79.2647478,62.1514018 L79.2647478,62.1514018 Z" id="Layer-4"></path>
                <path d="M58.2569514,31.5947913 L53.5960756,28.9038334 C50.0642839,26.8647525 48.8629709,22.3612829 50.8980176,18.8364786 L54.5827956,12.454256 L55.9975618,13.2710716 C54.9066834,16.5254569 56.2152763,20.2044733 59.3060821,21.9889509 L66.9523076,26.4035012 L75.8868059,31.5618363 C79.4185976,33.6009172 80.6199107,38.1043868 78.584864,41.629191 L74.900086,48.0114137 L73.742754,47.3432277 C74.8336324,44.0888424 73.5250395,40.409826 70.4342337,38.6253485 L58.2569514,31.5947913 L58.2569514,31.5947913 Z" id="Layer-5"></path>
                <path d="M13.4985058,15.4985058 L84.0070953,86.0070953" id="Layer-6"></path>
            </g>
        </g>
    </g>
</svg>