<?xml version="1.0" encoding="UTF-8"?>
<svg width="84px" height="104px" viewBox="0 0 84 104" version="1.1" xmlns="http://www.w3.org/2000/svg" xmlns:xlink="http://www.w3.org/1999/xlink">
    <!-- Generator: Sketch 46 (44423) - http://www.bohemiancoding.com/sketch -->
    <title>healthcare-33</title>
    <desc>Created with Sketch.</desc>
    <defs></defs>
    <g id="ALL" stroke="none" stroke-width="1" fill="none" fill-rule="evenodd" stroke-linecap="round" stroke-linejoin="round">
        <g id="Secondary" transform="translate(-6867.000000, -7191.000000)" stroke="#868E96" stroke-width="3.5">
            <g id="healthcare-33" transform="translate(6869.000000, 7193.000000)">
                <path d="M31.74375,19.33125 C31.9078125,19.3203125 32.0703125,19.315625 32.2328125,19.315625 C36.1015625,19.315625 39.35625,22.3015625 39.6125,26.2140625 L40.2294924,31.4453123 L55.8265612,31.4453123 C57.8406237,31.4453123 58.7924807,32.6611326 58.7924807,34.3706053 C58.7924807,36.0800779 58.0954592,36.8315437 56.2612307,37.3039558 L40.9781248,39.4394539 L40.978125,47.271875 L59.8328125,47.271875 C60.55,47.271875 61.225,47.390625 61.871875,47.60625 C63.5234375,47.89375 65.084375,48.9734375 66.021875,50.6765625 L78.4421875,73.3875 C79.975,76.2203125 79.6542971,79.2583015 77.051758,80.6059578 C74.449219,81.953614 71.7721682,80.0960945 70.6674807,78.082032 L57.5771487,60.192189 L33.3046875,60.1921875 C33.1625,60.1921875 33.01875,60.1921875 32.8734375,60.16875 L32.6578125,60.16875 C32.5671875,60.171875 32.4765625,60.1734375 32.3859375,60.1734375 C28.521875,60.1734375 25.265625,57.178125 25.00625,53.2640625 L23.303125,27.29375 C23.040625,23.215625 26.1328125,19.690625 30.2125,19.4265625 L31.74375,19.33125 Z M31.08125,0.1171875 C35.828125,0.1171875 39.6765625,3.965625 39.6765625,8.7109375 C39.6765625,13.45625 35.828125,17.3046875 31.08125,17.3046875 C26.334375,17.3046875 22.4875,13.4578125 22.4875,8.7109375 C22.4875,3.965625 26.3359375,0.1171875 31.08125,0.1171875 Z" id="Layer-1"></path>
                <path d="M16.5796207,36.7958149 C6.64927274,42.7320574 0,53.5895183 0,66 C0,84.7776815 15.2223185,100 34,100 L34,100 C47.9088438,100 59.8670254,91.6482223 65.1331652,79.6860464" id="Layer-2"></path>
            </g>
        </g>
    </g>
</svg>