<?xml version="1.0" encoding="UTF-8"?>
<svg width="104px" height="84px" viewBox="0 0 104 84" version="1.1" xmlns="http://www.w3.org/2000/svg" xmlns:xlink="http://www.w3.org/1999/xlink">
    <!-- Generator: Sketch 46 (44423) - http://www.bohemiancoding.com/sketch -->
    <title>healthcare-6</title>
    <desc>Created with Sketch.</desc>
    <defs></defs>
    <g id="ALL" stroke="none" stroke-width="1" fill="none" fill-rule="evenodd" stroke-linecap="round" stroke-linejoin="round">
        <g id="Secondary" transform="translate(-8415.000000, -6881.000000)" stroke="#868E96" stroke-width="3.5">
            <g id="healthcare-6" transform="translate(8417.000000, 6883.000000)">
                <path d="M14.986826,79.7874 C3.54449806,79.7874 -0.965811434,36.5296503 0.66567517,25.482066 C2.29716177,14.4344816 2.71824832,4.63540777 24.8450041,2.11558949 C56.7350503,-2.42534904 86.9188557,4.61741118 86.9188557,4.61741118 C94.3046627,5.62577373 100,11.9002662 100,19.4928831 C100,19.9520237 99.9791729,20.4063442 99.9384039,20.8549675 C99.4247868,26.506818 96.4906463,29.564985 90.6720178,33.3441636 C84.4687466,37.2452683 71.5591217,45.2197586 59.4389973,51.7977484 C56.6233051,67.3045064 26.4302342,79.7874 14.986826,79.7874 Z" id="Layer-1"></path>
                <path d="M14.986826,79.7874 C26.9951991,79.7874 59.6502902,66.0415109 59.6502902,49.4800538 C59.6502902,38.8236141 54.040705,29.4654523 45.5879735,24.146858" id="Layer-2"></path>
            </g>
        </g>
    </g>
</svg>