<?xml version="1.0" encoding="UTF-8"?>
<svg width="103px" height="103px" viewBox="0 0 103 103" version="1.1" xmlns="http://www.w3.org/2000/svg" xmlns:xlink="http://www.w3.org/1999/xlink">
    <!-- Generator: Sketch 46 (44423) - http://www.bohemiancoding.com/sketch -->
    <title>healthcare-17</title>
    <desc>Created with Sketch.</desc>
    <defs></defs>
    <g id="ALL" stroke="none" stroke-width="1" fill="none" fill-rule="evenodd" stroke-linecap="round" stroke-linejoin="round">
        <g id="Secondary" transform="translate(-2139.000000, -7191.000000)" stroke="#868E96" stroke-width="3.5">
            <g id="healthcare-17" transform="translate(2141.000000, 7193.000000)">
                <path d="M22.2002445,51.0129285 C21.1024652,52.1107078 21.099601,53.8876955 22.1993779,54.9874724 L44.6595989,77.4476934 C45.7568996,78.5449941 47.5292219,78.5517479 48.6341429,77.4468269 L90.9180545,35.1629152 C92.0158338,34.0651359 92.018698,32.2881482 90.9189211,31.1883713 L68.4587001,8.7281503 C67.3613994,7.6308496 65.5890771,7.62409588 64.4841561,8.72901687 L22.2002445,51.0129285 L22.2002445,51.0129285 Z" id="Layer-1"></path>
                <path d="M65.8110139,60.2699558 L90.9243958,35.1565739 C92.0186729,34.0622968 92.018698,32.2881482 90.9189211,31.1883713 L68.4587001,8.7281503 C67.3613994,7.6308496 65.5857751,7.62739794 64.4904975,8.72267553 L39.3771156,33.8360574 L65.8110139,60.2699558 Z" id="Layer-2"></path>
                <path d="M86.7360381,12.9110333 L99.2293324,0.417739013" id="Layer-3"></path>
                <path d="M13.6040647,86.0430067 L52.5940647,47.0530066" id="Layer-4"></path>
                <path d="M0.387115479,72.8260575 L26.8210138,99.2599559" id="Layer-5"></path>
                <path d="M76.3845733,16.6540235 L82.9930479,23.2624981 L86.2972852,19.9582608 C88.122165,18.1333809 88.1184518,15.1709528 86.2972852,13.3497862 L86.2972852,13.3497862 C84.4724053,11.5249063 81.5099772,11.5286196 79.6888106,13.3497862 L76.3845733,16.6540235 L76.3845733,16.6540235 Z" id="Layer-6"></path>
                <polygon id="Layer-7" points="39.1033836 34.1097894 33.8166039 39.3965691 60.2505023 65.8304675 65.5372819 60.5436878"></polygon>
                <path d="M65.0197607,19.3577919 L81.0184944,35.3565257" id="Layer-8" stroke-dasharray="1,6"></path>
                <path d="M58.4112861,25.9662665 L74.4100198,41.9650003" id="Layer-9" stroke-dasharray="1,6"></path>
                <path d="M51.8028115,32.5747411 L67.8015453,48.5734748" id="Layer-10" stroke-dasharray="1,6"></path>
            </g>
        </g>
    </g>
</svg>