<?xml version="1.0" encoding="UTF-8"?>
<svg width="103px" height="102px" viewBox="0 0 103 102" version="1.1" xmlns="http://www.w3.org/2000/svg" xmlns:xlink="http://www.w3.org/1999/xlink">
    <!-- Generator: Sketch 46 (44423) - http://www.bohemiancoding.com/sketch -->
    <title>healthcare-7</title>
    <desc>Created with Sketch.</desc>
    <defs></defs>
    <g id="ALL" stroke="none" stroke-width="1" fill="none" fill-rule="evenodd" stroke-linecap="round" stroke-linejoin="round">
        <g id="Secondary" transform="translate(-8715.000000, -6881.000000)" stroke="#868E96" stroke-width="3.5">
            <g id="healthcare-7" transform="translate(8717.000000, 6883.000000)">
                <path d="M10.6761391,10.9706433 C11.0982678,12.372409 13.2413339,18.0995042 21.7057258,25.4526058 C27.6188363,30.5893838 34.005174,32.2729503 38.1273478,32.8015396 C38.3215745,39.7465439 39.5586429,43.7442592 47.4394467,51.1232959 C48.4804986,64.855287 43.7699653,77.1892618 30.0980909,72.1366997 C23.757979,69.7936553 14.7508587,65.8991078 5.53017417,72.1366997 C-3.6905104,78.3742916 1.40373696,97.516324 1.40373696,97.516324 L7.90939365,97.516324 C7.90939365,97.516324 8.66024225,83.1744601 14.2238837,83.1744601 C30.0980911,83.1744597 41.7527945,98.4804847 58.6215472,97.516324 C80.5179241,97.2133323 99.182518,76.1324565 99.182518,49.8655504 C99.182518,23.3342242 84.5215808,4.34182571 62.3780885,4.34182571 C51.7687298,4.34182571 44.1674718,8.16406846 40.5230094,15.9885648 C38.0588979,15.854631 35.213792,15.088406 32.6303379,12.8830398 C27.9617288,8.89768064 25.7813157,4.93374668 24.9567261,3.12249577 C24.9821605,5.17121311 22.8380884,7.91961974 19.5203134,9.83513803 C15.993297,11.8714619 12.3143361,12.2884489 10.6761391,10.9706433 L10.6761391,10.9706433 Z" id="Layer-1"></path>
                <path d="M19.5203134,9.83513803 C23.5312425,7.51942702 25.8268155,3.98645727 24.6476191,1.94402924 C23.4684228,-0.0983987951 19.2609947,0.123140835 15.2500656,2.43885185 C11.2391364,4.75456287 8.94356348,8.28753262 10.1227599,10.3299606 C11.3019562,12.3723887 15.5093843,12.1508491 19.5203134,9.83513803 L19.5203134,9.83513803 Z" id="Layer-2"></path>
            </g>
        </g>
    </g>
</svg>