<?xml version="1.0" encoding="UTF-8"?>
<svg width="91px" height="114px" viewBox="0 0 91 114" version="1.1" xmlns="http://www.w3.org/2000/svg" xmlns:xlink="http://www.w3.org/1999/xlink">
    <!-- Generator: Sketch 46 (44423) - http://www.bohemiancoding.com/sketch -->
    <title>healthcare-15</title>
    <desc>Created with Sketch.</desc>
    <defs></defs>
    <g id="ALL" stroke="none" stroke-width="1" fill="none" fill-rule="evenodd" stroke-linecap="round" stroke-linejoin="round">
        <g id="Secondary" transform="translate(-1565.000000, -7191.000000)" stroke="#868E96" stroke-width="3.5">
            <g id="healthcare-15" transform="translate(1567.000000, 7193.000000)">
                <path d="M70.8523971,47.7218531 L70.7592466,48.2556574 C70.1468272,51.7651636 68.6472143,54.9481538 66.5279546,57.6077344 C66.5878359,61.3987105 66.661437,72.013076 65.8665733,82.1236395 C65.0247638,92.8313458 63.0312249,102.92487 62.4486045,104.659895 C61.0911826,108.702253 54.9964561,112.514753 52.4661826,106.757694 C50.1846593,101.56661 51.1238975,92.2660965 49.8104209,82.8843817 C48.4969444,73.5026669 42.2350552,66.8401084 37.862667,66.8401084 L36.862667,66.8465599 C32.4902788,66.8465599 26.2283897,73.5091184 24.9149131,82.8908332 C23.6014365,92.272548 24.5406747,101.573061 22.2591514,106.764146 C19.7288779,112.521204 13.6341514,108.708704 12.2767295,104.666346 C11.6941091,102.931321 9.70057022,92.8377973 8.85876076,82.130091 C8.06389697,72.0195275 8.1374981,61.405162 8.19737944,57.6141859 C6.07811969,54.9546053 4.57850679,51.7716151 3.96608738,48.2621089 L0.299285697,27.2492815 C-1.59908081,16.3705782 5.73150846,8.73203947 16.6717788,10.1833355 C16.6717788,10.1833355 29.495459,12.1648526 36.862667,12.1421711 C37.1028097,12.1493837 37.334039,12.1542832 37.5553498,12.1566862 C37.6560579,12.1544433 37.7585243,12.1517505 37.862667,12.1584011 C40.4907045,12.1584011 43.8130773,11.9062534 47,11.5818507 L47,29.6713787 C47,39.8356894 66.8706958,50 66.8706958,50 C66.8706958,50 68.5125674,49.1601455 70.8523971,47.7218531 L70.8523971,47.7218531 Z" id="Layer-1"></path>
                <path d="M86.7413916,29.6713787 L86.7413916,2.16602658 C86.7413916,2.16602658 77.9508295,1.07853308e-15 67.0482513,0 C56.1456732,-1.02950885e-15 47,2.16602658 47,2.16602658 L47,29.6713787 C47,39.8356894 66.8706958,50 66.8706958,50 C66.8706958,50 86.7413916,39.8356894 86.7413916,29.6713787 L86.7413916,29.6713787 Z" id="Layer-2"></path>
            </g>
        </g>
    </g>
</svg>