<?xml version="1.0" encoding="UTF-8"?>
<svg width="103px" height="83px" viewBox="0 0 103 83" version="1.1" xmlns="http://www.w3.org/2000/svg" xmlns:xlink="http://www.w3.org/1999/xlink">
    <!-- Generator: Sketch 46 (44423) - http://www.bohemiancoding.com/sketch -->
    <title>healthcare-39</title>
    <desc>Created with Sketch.</desc>
    <defs></defs>
    <g id="ALL" stroke="none" stroke-width="1" fill="none" fill-rule="evenodd" stroke-linecap="round" stroke-linejoin="round">
        <g id="Secondary" transform="translate(-8628.000000, -7191.000000)" stroke="#868E96" stroke-width="3.5">
            <g id="healthcare-39" transform="translate(8630.000000, 7193.000000)">
                <path d="M99.2912266,39.6093326 C93.2184873,16.7594942 73.2913854,0 49.6456133,0 C25.9998412,0 6.07273926,16.7594942 2.84217094e-14,39.6093326 C6.07273926,62.459171 25.9998412,79.2186652 49.6456133,79.2186652 C73.2913854,79.2186652 93.2184873,62.459171 99.2912266,39.6093326 L99.2912266,39.6093326 Z" id="Layer-1"></path>
                <path d="M2.80382903,31.5810041 C1.6773752,34.1547752 0.73673287,36.8372348 1.83852933e-13,39.6093326 C0.847709135,42.7989997 1.96538548,45.8699899 3.32545881,48.7932819 C3.58813861,48.8198379 3.85441774,48.8334238 4.12371134,48.8334238 C8.67863711,48.8334238 12.371134,44.9465849 12.371134,40.1519262 C12.371134,35.3572675 8.67863711,31.4704286 4.12371134,31.4704286 C3.67445571,31.4704286 3.23358981,31.5082399 2.80382903,31.5810041 L2.80382903,31.5810041 Z" id="Layer-2"></path>
                <ellipse id="Layer-3" cx="49.4845361" cy="40.1519262" rx="24.742268" ry="26.0444927"></ellipse>
                <ellipse id="Layer-4" cx="49.4845361" cy="40.1519262" rx="8.24742268" ry="8.68149756"></ellipse>
            </g>
        </g>
    </g>
</svg>