<?xml version="1.0" encoding="UTF-8"?>
<svg width="104px" height="104px" viewBox="0 0 104 104" version="1.1" xmlns="http://www.w3.org/2000/svg" xmlns:xlink="http://www.w3.org/1999/xlink">
    <!-- Generator: Sketch 46 (44423) - http://www.bohemiancoding.com/sketch -->
    <title>healthcare-18</title>
    <desc>Created with Sketch.</desc>
    <defs></defs>
    <g id="ALL" stroke="none" stroke-width="1" fill="none" fill-rule="evenodd" stroke-linecap="round" stroke-linejoin="round">
        <g id="Secondary" transform="translate(-2439.000000, -7191.000000)" stroke="#868E96" stroke-width="3.5">
            <g id="healthcare-18" transform="translate(2441.000000, 7193.000000)">
                <path d="M20.2221851,2.05696282 C22.3715808,-0.0924328892 25.858339,-0.0905336894 28.0010703,2.05219757 L98.0735685,72.1246958 C100.220332,74.2714597 100.217757,77.7546273 98.0688032,79.9035809 L79.9035809,98.0688032 C77.7541852,100.218199 74.267427,100.2163 72.1246958,98.0735685 L2.05219757,28.0010703 C-0.0945663649,25.8543063 -0.0919908256,22.3711388 2.05696282,20.2221851 L20.2221851,2.05696282 L20.2221851,2.05696282 Z" id="Layer-1"></path>
                <path d="M79.9035809,2.05696282 C77.7541852,-0.0924328892 74.267427,-0.0905336894 72.1246958,2.05219757 L2.05219757,72.1246958 C-0.0945663649,74.2714597 -0.0919908256,77.7546273 2.05696282,79.9035809 L20.2221851,98.0688032 C22.3715808,100.218199 25.858339,100.2163 28.0010703,98.0735685 L98.0735685,28.0010703 C100.220332,25.8543063 100.217757,22.3711388 98.0688032,20.2221851 L79.9035809,2.05696282 L79.9035809,2.05696282 Z" id="Layer-2"></path>
                <polygon id="Layer-3" points="50.062883 24.1140103 24.1140103 50.062883 50.062883 76.0117557 76.0117557 50.062883"></polygon>
                <path d="M39.0803915,50.0547284 L63.6303907,50.0547284" id="Layer-4" stroke-dasharray="1,6"></path>
                <path d="M46.0803915,40.0547284 L58.6303917,40.0547284" id="Layer-5" stroke-dasharray="1,6"></path>
                <path d="M46.0803915,60.0547284 L58.6303917,60.0547284" id="Layer-6" stroke-dasharray="1,6"></path>
            </g>
        </g>
    </g>
</svg>