<?xml version="1.0" encoding="UTF-8"?>
<svg width="104px" height="104px" viewBox="0 0 104 104" version="1.1" xmlns="http://www.w3.org/2000/svg" xmlns:xlink="http://www.w3.org/1999/xlink">
    <!-- Generator: Sketch 46 (44423) - http://www.bohemiancoding.com/sketch -->
    <title>healthcare-21</title>
    <desc>Created with Sketch.</desc>
    <defs></defs>
    <g id="ALL" stroke="none" stroke-width="1" fill="none" fill-rule="evenodd" stroke-linecap="round" stroke-linejoin="round">
        <g id="Secondary" transform="translate(-3319.000000, -7191.000000)" stroke="#868E96" stroke-width="3.5">
            <g id="healthcare-21" transform="translate(3321.000000, 7193.000000)">
                <path d="M70,30 L70,2.99280137 C70,1.33801252 68.6539436,0 66.9934988,0 L33.0065012,0 C31.3423094,0 30,1.33992281 30,2.99280137 L30,30 L2.99280137,30 C1.33801252,30 0,31.3460564 0,33.0065012 L0,66.9934988 C0,68.6576906 1.33992281,70 2.99280137,70 L30,70 L30,97.0071986 C30,98.6619875 31.3460564,100 33.0065012,100 L66.9934988,100 C68.6576906,100 70,98.6600772 70,97.0071986 L70,70 L97.0071986,70 C98.6619875,70 100,68.6539436 100,66.9934988 L100,33.0065012 C100,31.3423094 98.6600772,30 97.0071986,30 L70,30 L70,30 Z" id="Layer-1"></path>
            </g>
        </g>
    </g>
</svg>