<?xml version="1.0" encoding="UTF-8"?>
<svg width="86px" height="86px" viewBox="0 0 86 86" version="1.1" xmlns="http://www.w3.org/2000/svg" xmlns:xlink="http://www.w3.org/1999/xlink">
    <!-- Generator: Sketch 46 (44423) - http://www.bohemiancoding.com/sketch -->
    <title>healthcare-32</title>
    <desc>Created with Sketch.</desc>
    <defs></defs>
    <g id="ALL" stroke="none" stroke-width="1" fill="none" fill-rule="evenodd" stroke-linecap="round" stroke-linejoin="round">
        <g id="Secondary" transform="translate(-6584.000000, -7192.000000)" stroke="#868E96" stroke-width="3.5">
            <g id="healthcare-32" transform="translate(6585.000000, 7193.000000)">
                <path d="M48.4753708,7.24035793 C56.614851,-0.899122269 69.5431359,-1.16754221 77.3553391,6.64466094 L77.3553391,6.64466094 C85.1658249,14.4551468 84.9095841,27.3746871 76.7596421,35.5246292 L56.1421356,56.1421356 L27.8578644,27.8578644 L48.4753708,7.24035793 L48.4753708,7.24035793 L48.4753708,7.24035793 L48.4753708,7.24035793 Z" id="Layer-1"></path>
                <path d="M7.24035793,48.4753708 C-0.899122269,56.614851 -1.16754221,69.5431359 6.64466094,77.3553391 L6.64466094,77.3553391 C14.4551468,85.1658249 27.3746871,84.9095841 35.5246292,76.7596421 L56.1421356,56.1421356 L27.8578644,27.8578644 L7.24035793,48.4753708 L7.24035793,48.4753708 L7.24035793,48.4753708 L7.24035793,48.4753708 Z" id="Layer-2"></path>
                <path d="M58.5213189,10.2051803 L74.0635256,25.7473871" id="Layer-3"></path>
                <path d="M50.0360375,18.6904617 L65.5782443,34.2326684" id="Layer-4"></path>
                <path d="M41.5507562,27.1757431 L57.0929629,42.7179498" id="Layer-5"></path>
            </g>
        </g>
    </g>
</svg>