<?xml version="1.0" encoding="UTF-8"?>
<svg width="79px" height="104px" viewBox="0 0 79 104" version="1.1" xmlns="http://www.w3.org/2000/svg" xmlns:xlink="http://www.w3.org/1999/xlink">
    <!-- Generator: Sketch 46 (44423) - http://www.bohemiancoding.com/sketch -->
    <title>healthcare-12</title>
    <desc>Created with Sketch.</desc>
    <defs></defs>
    <g id="ALL" stroke="none" stroke-width="1" fill="none" fill-rule="evenodd" stroke-linecap="round" stroke-linejoin="round">
        <g id="Secondary" transform="translate(-714.000000, -7191.000000)" stroke="#868E96" stroke-width="3.5">
            <g id="healthcare-12" transform="translate(716.000000, 7193.000000)">
                <path d="M36.862667,2.14217112 C29.495459,2.16485263 16.6717788,0.183335502 16.6717788,0.183335502 C5.73150846,-1.26796053 -1.59908081,6.37057816 0.299285697,17.2492815 L3.96608738,38.2621089 C4.57850679,41.7716151 6.07811969,44.9546053 8.19737944,47.6141859 C8.1374981,51.405162 8.06389697,62.0195275 8.85876076,72.130091 C9.70057022,82.8377973 11.6941091,92.9313214 12.2767295,94.6663461 C13.6341514,98.7087043 19.7288779,102.521204 22.2591514,96.7641458 C24.5406747,91.5730612 23.6014365,82.272548 24.9149131,72.8908332 C26.2283897,63.5091184 32.4902788,56.8465599 36.862667,56.8465599 L37.862667,56.8401084 C42.2350552,56.8401084 48.4969444,63.5026669 49.8104209,72.8843817 C51.1238975,82.2660965 50.1846593,91.5666097 52.4661826,96.7576943 C54.9964561,102.514753 61.0911826,98.7022528 62.4486045,94.6598946 C63.0312249,92.9248699 65.0247638,82.8313458 65.8665733,72.1236395 C66.661437,62.013076 66.5878359,51.3987105 66.5279546,47.6077344 C68.6472143,44.9481538 70.1468272,41.7651636 70.7592466,38.2556574 L74.4260483,17.24283 C76.3244148,6.36412665 68.9938256,-1.27441203 58.0535552,0.176883999 C58.0535552,0.176883999 45.229875,2.15840112 37.862667,2.15840112 C37.7585243,2.15175049 37.6560579,2.15444334 37.5553498,2.15668622 C37.334039,2.15428318 37.1028097,2.14938365 36.862667,2.14217112 Z" id="Layer-1"></path>
            </g>
        </g>
    </g>
</svg>