<?xml version="1.0" encoding="UTF-8"?>
<svg width="78px" height="104px" viewBox="0 0 78 104" version="1.1" xmlns="http://www.w3.org/2000/svg" xmlns:xlink="http://www.w3.org/1999/xlink">
    <!-- Generator: Sketch 46 (44423) - http://www.bohemiancoding.com/sketch -->
    <title>healthcare-5</title>
    <desc>Created with Sketch.</desc>
    <defs></defs>
    <g id="ALL" stroke="none" stroke-width="1" fill="none" fill-rule="evenodd" stroke-linecap="round" stroke-linejoin="round">
        <g id="Secondary" transform="translate(-8141.000000, -6881.000000)" stroke="#868E96" stroke-width="3.5">
            <g id="healthcare-5" transform="translate(8143.000000, 6883.000000)">
                <path d="M34.9399928,100 C48.9352281,100 58.1939592,87.4819715 61.2170175,68.8238153 C61.976307,64.1375204 63.3714282,61.1726129 66.3779659,56.8677139 C66.6338602,56.5013127 67.6430993,55.07468 67.8867024,54.7262819 C72.1215779,48.6696176 73.9391489,44.1339106 73.9391489,36.9695744 C73.9391489,13.8763999 58.7644809,0 36.9695744,0 C16.5518423,0 0,16.5518423 0,36.9695744 C0,39.9282427 2.39847455,42.3267173 5.35714286,42.3267173 C8.31581116,42.3267173 10.7142857,39.9282427 10.7142857,36.9695744 C10.7142857,22.4691789 22.4691789,10.7142857 36.9695744,10.7142857 C53.050437,10.7142857 63.2248632,20.0182392 63.2248632,36.9695744 C63.2248632,41.5971836 62.1934887,44.170955 59.1059566,48.5867036 C58.8854432,48.9020791 57.8739563,50.3318892 57.5938798,50.7329157 C53.7438592,56.2455523 51.6957555,60.5981763 50.6406556,67.110197 C48.3553655,81.2148873 42.3859257,89.2857143 34.9399928,89.2857143 C26.5579735,89.2857143 19.746409,82.4221107 19.746409,73.9351268 C19.746409,70.9764585 17.3479345,68.5779839 14.3892662,68.5779839 C11.4305979,68.5779839 9.03212331,70.9764585 9.03212331,73.9351268 C9.03212331,88.3212702 20.6223062,100 34.9399928,100 Z" id="Layer-1" fill-rule="nonzero"></path>
                <path d="M22,55.180285 C23.3140195,56.3142574 25.0257154,57 26.8975751,57 C31.0397107,57 34.3975751,53.6421356 34.3975751,49.5 C34.3975751,45.3578644 31.4746552,42.4387207 27.3325195,42.4387207" id="Layer-2"></path>
                <path d="M26.5,42.5 C26.5,42.5 23.8137266,38.3559559 25.2324219,32.6855469 C26.5,27.6191406 32.6101559,22.7662384 40.4609373,24.2265625 C49.800781,25.9638672 51.0273435,34.9228516 51.0273435,34.9228516" id="Layer-3"></path>
            </g>
        </g>
    </g>
</svg>