<?xml version="1.0" encoding="UTF-8"?>
<svg width="104px" height="104px" viewBox="0 0 104 104" version="1.1" xmlns="http://www.w3.org/2000/svg" xmlns:xlink="http://www.w3.org/1999/xlink">
    <!-- Generator: Sketch 46 (44423) - http://www.bohemiancoding.com/sketch -->
    <title>healthcare-2</title>
    <desc>Created with Sketch.</desc>
    <defs></defs>
    <g id="ALL" stroke="none" stroke-width="1" fill="none" fill-rule="evenodd" stroke-linecap="round" stroke-linejoin="round">
        <g id="Secondary" transform="translate(-7289.000000, -6881.000000)" stroke="#868E96" stroke-width="3.5">
            <g id="healthcare-2" transform="translate(7291.000000, 6883.000000)">
                <path d="M50,87.6190476 C74.8751127,82.2330749 88.4615385,70.5632286 88.4615385,49.5238095 C88.4615385,28.4843905 80.6847206,7.02287946 50,11.4285714 C19.3152794,15.8342634 11.5384615,28.4843905 11.5384615,49.5238095 C11.5384615,70.5632286 25.1248873,93.0050203 50,87.6190476 Z" id="Layer-1"></path>
                <path d="M36.4915114,56.5848214 C44.7226784,56.5848214 52.8846154,48.6289654 52.8846154,40.4761905 C52.8846154,32.3234156 48.4307989,24.109003 40.1996319,24.109003 C31.968465,24.109003 23.0769231,32.3234156 23.0769231,40.4761905 C23.0769231,48.6289654 28.2603445,56.5848214 36.4915114,56.5848214 Z" id="Layer-2"></path>
                <path d="M43.2214545,77.2377232 C46.1421304,77.2377232 49.0382412,74.4147363 49.0382412,71.5218764 C49.0382412,68.6290166 47.4578876,65.7142857 44.5372118,65.7142857 C41.616536,65.7142857 38.4615385,68.6290166 38.4615385,71.5218764 C38.4615385,74.4147363 40.3007787,77.2377232 43.2214545,77.2377232 Z" id="Layer-3"></path>
                <path d="M66.5167464,63.9043899 C68.2304924,63.9043899 69.9298246,62.2479642 69.9298246,60.5505395 C69.9298246,58.8531149 69.0025308,57.1428571 67.2887847,57.1428571 C65.5750387,57.1428571 63.7238013,58.8531149 63.7238013,60.5505395 C63.7238013,62.2479642 64.8030003,63.9043899 66.5167464,63.9043899 Z" id="Layer-4"></path>
                <path d="M50,0 L50,10.9863508 M74.1992965,2.82984501 L69.0415172,12.530217 M93.9666937,21.3595838 L84.9672019,27.6610958 M99.5799694,43.5467587 L88.6755092,44.8856581 M96.691233,67.1066976 L86.4345909,63.1695416 M83.1540287,86.5622508 L75.8027251,78.3978011 M61.9675268,97.6048552 L59.3096879,86.9448459 M37.0709348,99.5096171 L39.7287736,88.8496078 M14.9228943,87.5146318 L22.2741979,79.350182 M3.30876705,67.1066976 L13.5654091,63.1695416 M0.420030581,43.5467587 L11.3244908,44.8856581 M7.95464169,20.4072029 L16.9541334,26.7087148 M26.762242,5.68698787 L31.9200213,15.3873599" id="Layer-5"></path>
                <path d="M70.7227626,29.5618963 C70.7227626,29.5618963 66.4997753,31.3931779 67.9090472,36.7109908 C69.318319,42.0288037 64.9504133,44.2282943 64.9504133,44.2282943" id="Layer-6"></path>
            </g>
        </g>
    </g>
</svg>