<?xml version="1.0" encoding="UTF-8"?>
<svg width="102px" height="104px" viewBox="0 0 102 104" version="1.1" xmlns="http://www.w3.org/2000/svg" xmlns:xlink="http://www.w3.org/1999/xlink">
    <!-- Generator: Sketch 46 (44423) - http://www.bohemiancoding.com/sketch -->
    <title>healthcare-34</title>
    <desc>Created with Sketch.</desc>
    <defs></defs>
    <g id="ALL" stroke="none" stroke-width="1" fill="none" fill-rule="evenodd" stroke-linecap="round" stroke-linejoin="round">
        <g id="Secondary" transform="translate(-7148.000000, -7191.000000)" stroke="#868E96" stroke-width="3.5">
            <g id="healthcare-34" transform="translate(7149.000000, 7193.000000)">
                <path d="M57.2088725,1.81917769 C59.104344,-0.0948768908 62.1792791,-0.0930910373 64.0768179,1.82305109 L97.7092115,35.7851741 C99.6068015,37.7013679 99.6023836,40.8125932 97.7130473,42.7204523 L42.7911275,98.1808223 C40.895656,100.094877 37.8207209,100.093091 35.9231821,98.1769489 L2.29078845,64.2148259 C0.39319848,62.2986321 0.39761644,59.1874068 2.28695266,57.2795477 L57.2088725,1.81917769 L57.2088725,1.81917769 Z" id="Layer-1"></path>
                <path d="M73.6946424,26.0730572 L25.7054933,74.5326882" id="Layer-2"></path>
                <path d="M58.1656046,22.5066818 C60.1394139,24.4998421 63.350913,24.4884091 65.3386886,22.4811455 C67.3264642,20.4738818 67.3377862,17.2308975 65.363977,15.2377371 C63.3901678,13.2445768 60.1786687,13.2560098 58.190893,15.2632735 C56.2031174,17.2705371 56.1917954,20.5135215 58.1656046,22.5066818 L58.1656046,22.5066818 Z" id="Layer-3"></path>
                <path d="M77.2263928,41.7543404 C79.200202,43.7475007 82.4117011,43.7360677 84.3994768,41.7288041 C86.3872524,39.7215405 86.3985744,36.4785561 84.4247652,34.4853958 C82.4509559,32.4922355 79.2394568,32.5036685 77.2516812,34.5109321 C75.2639056,36.5181957 75.2525836,39.7611801 77.2263928,41.7543404 L77.2263928,41.7543404 Z" id="Layer-4"></path>
                <path d="M62.8296481,56.2922297 C64.8034573,58.28539 68.0149564,58.273957 70.002732,56.2666934 C71.9905077,54.2594297 72.0018297,51.0164454 70.0280204,49.0232851 C68.0542112,47.0301247 64.8427121,47.0415577 62.8549365,49.0488214 C60.8671608,51.056085 60.8558388,54.2990694 62.8296481,56.2922297 L62.8296481,56.2922297 Z" id="Layer-5"></path>
                <path d="M43.7688599,37.0445711 C45.7426692,39.0377314 48.9541682,39.0262984 50.9419439,37.0190347 C52.9297195,35.0117711 52.9410415,31.7687867 50.9672323,29.7756264 C48.993423,27.7824661 45.781924,27.7938991 43.7941483,29.8011627 C41.8063727,31.8084264 41.7950507,35.0514107 43.7688599,37.0445711 L43.7688599,37.0445711 Z" id="Layer-6"></path>
                <path d="M29.3721152,51.5824603 C31.3459244,53.5756206 34.5574235,53.5641876 36.5451992,51.556924 C38.5329748,49.5496604 38.5442968,46.306676 36.5704876,44.3135157 C34.5966783,42.3203554 31.3851792,42.3317884 29.3974036,44.339052 C27.409628,46.3463157 27.398306,49.5893 29.3721152,51.5824603 L29.3721152,51.5824603 Z" id="Layer-7"></path>
                <path d="M48.4329034,70.830119 C50.4067126,72.8232793 53.6182117,72.8118463 55.6059873,70.8045826 C57.593763,68.797319 57.605085,65.5543346 55.6312757,63.5611743 C53.6574665,61.568014 50.4459674,61.579447 48.4581918,63.5867107 C46.4704161,65.5939743 46.4590941,68.8369587 48.4329034,70.830119 L48.4329034,70.830119 Z" id="Layer-8"></path>
                <path d="M34.0361586,85.3680082 C36.0099679,87.3611686 39.221467,87.3497356 41.2092426,85.3424719 C43.1970182,83.3352083 43.2083402,80.0922239 41.234531,78.0990636 C39.2607218,76.1059033 36.0492227,76.1173363 34.061447,78.1245999 C32.0736714,80.1318636 32.0623494,83.3748479 34.0361586,85.3680082 L34.0361586,85.3680082 Z" id="Layer-9"></path>
                <path d="M14.9753705,66.1203496 C16.9491797,68.1135099 20.1606788,68.1020769 22.1484544,66.0948133 C24.1362301,64.0875496 24.1475521,60.8445653 22.1737428,58.851405 C20.1999336,56.8582447 16.9884345,56.8696777 15.0006589,58.8769413 C13.0128832,60.8842049 13.0015612,64.1271893 14.9753705,66.1203496 L14.9753705,66.1203496 Z" id="Layer-10"></path>
            </g>
        </g>
    </g>
</svg>