<?xml version="1.0" encoding="UTF-8"?>
<svg width="85px" height="104px" viewBox="0 0 85 104" version="1.1" xmlns="http://www.w3.org/2000/svg" xmlns:xlink="http://www.w3.org/1999/xlink">
    <!-- Generator: Sketch 46 (44423) - http://www.bohemiancoding.com/sketch -->
    <title>holidays-20</title>
    <desc>Created with Sketch.</desc>
    <defs></defs>
    <g id="ALL" stroke="none" stroke-width="1" fill="none" fill-rule="evenodd" stroke-linecap="round" stroke-linejoin="round">
        <g id="Secondary" transform="translate(-5310.000000, -7501.000000)" stroke="#868E96" stroke-width="3.5">
            <g id="holidays-20" transform="translate(5311.000000, 7503.000000)">
                <polygon id="Layer-1" points="11.2713726 30 70.1013154 30 77.3507739 52.1052632 4.0834472 52.1052632"></polygon>
                <polygon id="Layer-2" points="11.4101799 30 26.0099826 52.1052632 40.6240954 30 55.4271005 52.1052632 69.866631 30"></polygon>
                <polygon id="Layer-3" points="4.0834472 52.1052632 77.3507739 52.1052632 40.7171106 100"></polygon>
                <path d="M77.3507739,52.1052632 L40.7171106,100 L55.2367772,52.1052632 L77.3507739,52.1052632 Z" id="Layer-5"></path>
                <polygon id="Layer-4" points="4.0834472 52.1052632 26.197444 52.1052632 40.7171106 100"></polygon>
                <path d="M41.5,0.5 L41.5,12.5" id="Layer-6"></path>
                <path d="M62.5933706,3.52741464 L59.2857223,15.062555" id="Layer-7"></path>
                <path d="M82.0720506,12.4214828 L75.5363822,22.4855296" id="Layer-8"></path>
                <path d="M0.927949385,12.4214828 L7.46361781,22.4855296" id="Layer-9"></path>
                <path d="M20.4066294,3.52741464 L23.7142777,15.062555" id="Layer-10"></path>
            </g>
        </g>
    </g>
</svg>