<?xml version="1.0" encoding="UTF-8"?>
<svg width="104px" height="104px" viewBox="0 0 104 104" version="1.1" xmlns="http://www.w3.org/2000/svg" xmlns:xlink="http://www.w3.org/1999/xlink">
    <!-- Generator: Sketch 46 (44423) - http://www.bohemiancoding.com/sketch -->
    <title>holidays-24</title>
    <desc>Created with Sketch.</desc>
    <defs></defs>
    <g id="ALL" stroke="none" stroke-width="1" fill="none" fill-rule="evenodd" stroke-linecap="round" stroke-linejoin="round">
        <g id="Secondary" transform="translate(-6465.000000, -7502.000000)" stroke="#868E96" stroke-width="3.5">
            <g id="holidays-24" transform="translate(6467.000000, 7503.000000)">
                <path d="M0,23.9942021 C0,22.3405499 1.33801252,21 2.99280137,21 L97.0071986,21 C98.6600772,21 100,22.343312 100,23.9942021 L100,41 L0,41 L0,23.9942021 Z" id="Layer-1"></path>
                <rect id="Layer-2" x="5" y="41" width="90" height="60"></rect>
                <path d="M40.060617,2.74568273 C35.6084411,-0.841180365 28.5107241,0.964775477 25.2384491,6.63252199 C18.9828598,21.9443725 49.9637748,20.9076956 49.9637749,20.9076955 C49.963775,20.9076954 46.4880927,7.92393183 40.060617,2.74568273 L40.060617,2.74568273 Z" id="Layer-3"></path>
                <path d="M60.3248883,2.74568273 C64.7770641,-0.841180365 71.8747811,0.964775477 75.1470561,6.63252199 C81.4026454,21.9443725 50.4217304,20.9076956 50.4217303,20.9076955 C50.4217303,20.9076954 53.8974125,7.92393183 60.3248883,2.74568273 L60.3248883,2.74568273 Z" id="Layer-4"></path>
                <path d="M29.0227823,63.3112521 C29.0076916,63.4138892 29,63.5206248 29,63.6315789 C29,82.5789472 50.0526316,91 50.0526316,91 C50.0526316,91 71.1052632,82.5789472 71.1052632,63.6315789 C71.1052632,63.5203718 71.0975833,63.4134361 71.0825185,63.3106486 C71.0976064,63.0686869 71.1052632,62.8247113 71.1052632,62.5789474 C71.1052632,56.1840713 65.9211918,51 59.5263158,51 C55.6101942,51 52.1481419,52.944102 50.0526316,55.9198334 C47.9571212,52.944102 44.495069,51 40.5789474,51 C34.1840713,51 29,56.1840713 29,62.5789474 C29,62.8249156 29.0076695,63.0690925 29.0227823,63.3112521 L29.0227823,63.3112521 Z" id="Layer-5"></path>
            </g>
        </g>
    </g>
</svg>