<?xml version="1.0" encoding="UTF-8"?>
<svg width="104px" height="94px" viewBox="0 0 104 94" version="1.1" xmlns="http://www.w3.org/2000/svg" xmlns:xlink="http://www.w3.org/1999/xlink">
    <!-- Generator: Sketch 46 (44423) - http://www.bohemiancoding.com/sketch -->
    <title>holidays-19</title>
    <desc>Created with Sketch.</desc>
    <defs></defs>
    <g id="ALL" stroke="none" stroke-width="1" fill="none" fill-rule="evenodd" stroke-linecap="round" stroke-linejoin="round">
        <g id="Secondary" transform="translate(-5009.000000, -7501.000000)" stroke="#868E96" stroke-width="3.5">
            <g id="holidays-19" transform="translate(5011.000000, 7503.000000)">
                <path d="M15.4410404,80 L7,27.6065047 L25.3568093,41.4998956 L25.3568093,41.4998956 C27.9966804,43.4978878 31.4553871,42.7862214 33.0890043,39.8980438 L50,10 L67.1741924,39.916965 C68.823025,42.7891856 72.2879206,43.4859057 74.9199478,41.4680003 L93,27.6065047 L84.9390803,80" id="Layer-1"></path>
                <polygon id="Layer-2" points="15.4410404 80 13.3466292 67 86.9391751 67 84.9390803 80"></polygon>
                <circle id="Layer-3" cx="50" cy="5" r="5"></circle>
                <circle id="Layer-4" cx="5" cy="23" r="5"></circle>
                <circle id="Layer-5" cx="95" cy="23" r="5"></circle>
                <rect id="Layer-6" x="11" y="80" width="78" height="10" rx="3"></rect>
                <circle id="Layer-7" cx="50" cy="74" r="2"></circle>
                <circle id="Layer-8" cx="70" cy="74" r="2"></circle>
                <circle id="Layer-9" cx="30" cy="74" r="2"></circle>
                <polygon id="Layer-10" points="56 46.8592346 50 55.8592346 44 46.8592346 50 37.8592346"></polygon>
            </g>
        </g>
    </g>
</svg>