<?xml version="1.0" encoding="UTF-8"?>
<svg width="89px" height="104px" viewBox="0 0 89 104" version="1.1" xmlns="http://www.w3.org/2000/svg" xmlns:xlink="http://www.w3.org/1999/xlink">
    <!-- Generator: Sketch 46 (44423) - http://www.bohemiancoding.com/sketch -->
    <title>holidays-10</title>
    <desc>Created with Sketch.</desc>
    <defs></defs>
    <g id="ALL" stroke="none" stroke-width="1" fill="none" fill-rule="evenodd" stroke-linecap="round" stroke-linejoin="round">
        <g id="Secondary" transform="translate(-2403.000000, -7501.000000)" stroke="#868E96" stroke-width="3.5">
            <g id="holidays-10" transform="translate(2405.000000, 7503.000000)">
                <path d="M32.2119239,24.6374043 L32.2119231,56.303966 C32.2119231,56.303966 6.07715842,67.7113763 1.6416115,76.8794611 C-2.79393542,86.0475459 1.64161146,98.8628589 16.3798934,99.3055904 C31.1181753,99.7483219 68.675025,80.7896876 68.675025,80.7896876 C73.1472764,78.652703 76.7646599,72.89406 76.7646599,67.9778187 L76.7646599,22.7722772 L33.2104736,24.6552871 C32.8723119,24.669907 32.5390516,24.6635596 32.2119239,24.6374043 L32.2119239,24.6374043 Z" id="Layer-1"></path>
                <path d="M32,31.6831683 L39.3404948,37.9066478 L46.6827799,31.6831683 L54,37.9066478 L61.5188151,31.6831683 L68.7139323,37.9066478 L76,31.6831683 M76,40.1697313 L68.7139323,46.316025 L61.5188151,40.1697313 L54,46.316025 L46.6827799,40.1697313 L39.3404948,46.316025 L32,40.1697313" id="Layer-2"></path>
                <path d="M7.42245003,70.2970297 C4.75519216,72.4404387 2.64414109,74.6270219 1.6416115,76.6992075 C-2.79393542,85.8672923 1.64161146,98.6826053 16.3798934,99.1253368 C17.5038635,99.1591004 18.7605438,99.0800278 20.1231559,98.905133 C20.8306528,96.6638867 21.211924,94.279971 21.211924,91.8078863 C21.211924,82.2994769 15.5713534,74.0954495 7.42245003,70.2970297 L7.42245003,70.2970297 Z" id="Layer-3"></path>
                <path d="M61.7722865,84.1150179 C65.8670974,82.1912139 68.463101,80.8807556 68.463101,80.8807556 C72.9353524,78.743771 76.5527359,72.985128 76.5527359,68.0688867 L76.5527359,57.4258141 C76.5351633,57.4257683 76.5175847,57.4257426 76.5,57.4257426 C66.8350169,57.4257426 59,65.183185 59,74.7524752 C59,78.2014868 60.0178172,81.4151282 61.7722865,84.1150179 L61.7722865,84.1150179 Z" id="Layer-4"></path>
                <path d="M25,8.00830604 C25,3.58544074 28.5735893,0 32.9985496,0 L77.0014504,0 C81.4189274,0 85,3.58977425 85,7.99534955 L85,14.502789 C85,18.9184986 81.4264107,22.6526381 77.0014504,22.8439456 L32.9985496,24.7463551 C28.5810726,24.9373391 25,21.5104004 25,17.0838561 L25,8.00830604 Z" id="Layer-5"></path>
            </g>
        </g>
    </g>
</svg>