<?xml version="1.0" encoding="UTF-8"?>
<svg width="84px" height="105px" viewBox="0 0 84 105" version="1.1" xmlns="http://www.w3.org/2000/svg" xmlns:xlink="http://www.w3.org/1999/xlink">
    <!-- Generator: Sketch 46 (44423) - http://www.bohemiancoding.com/sketch -->
    <title>holidays-41</title>
    <desc>Created with Sketch.</desc>
    <defs></defs>
    <g id="ALL" stroke="none" stroke-width="1" fill="none" fill-rule="evenodd" stroke-linecap="round" stroke-linejoin="round">
        <g id="Secondary" transform="translate(-2171.000000, -7802.000000)" stroke="#868E96" stroke-width="3.5">
            <g id="holidays-41" transform="translate(2172.000000, 7804.000000)">
                <path d="M81,8.51150775 L81,0.511507747" id="Layer-1"></path>
                <path d="M81,35.501774 C81,41.0299973 76.5274312,45.5115077 71.0095352,45.5115077 L40.8769531,42.7419746 C40.8769531,23.4119483 58.90861,10.5113991 81,10.5113991 L81,35.501774 Z" id="Layer-2"></path>
                <path d="M1,35.5018051 C1,41.0300112 5.47256878,45.5115077 10.9904648,45.5115077 L40.8671875,42.796664 C40.8671875,23.4666978 23.09139,10.5115077 1,10.5115077 L1,35.5018051 Z" id="Layer-3"></path>
                <path d="M1,8.51150775 L1,0.511507747" id="Layer-4"></path>
                <path d="M1,76.5152759 L1,65.5115077 L81,65.5115077 L81,76.5152759 C66.2117052,76.7383081 53.8178394,86.8385238 50.1228178,100.511508 L31.8771822,100.511508 C28.1821606,86.8385238 15.7882948,76.7383081 1,76.5152759 L1,76.5152759 Z" id="Layer-5"></path>
            </g>
        </g>
    </g>
</svg>