<?xml version="1.0" encoding="UTF-8"?>
<svg width="103px" height="79px" viewBox="0 0 103 79" version="1.1" xmlns="http://www.w3.org/2000/svg" xmlns:xlink="http://www.w3.org/1999/xlink">
    <!-- Generator: Sketch 46 (44423) - http://www.bohemiancoding.com/sketch -->
    <title>holidays-12</title>
    <desc>Created with Sketch.</desc>
    <defs></defs>
    <g id="ALL" stroke="none" stroke-width="1" fill="none" fill-rule="evenodd" stroke-linecap="round" stroke-linejoin="round">
        <g id="Secondary" transform="translate(-2988.000000, -7501.000000)" stroke="#868E96" fill-rule="nonzero" stroke-width="3.5">
            <g id="holidays-12" transform="translate(2990.000000, 7503.000000)">
                <path d="M15.8980574,72.235523 L66.1716986,20.956409 C69.6434506,17.415222 75.2693584,17.4148572 78.7409244,20.9558545 C82.2139366,24.4983269 82.2146655,30.2326944 78.7403807,33.7764648 L72.4148514,40.2285047 C68.9441057,43.7686654 68.9441057,49.5083999 72.4148514,53.0485605 C75.8855971,56.5887212 81.5127878,56.5887212 84.9835335,53.0485605 L91.3090629,46.5965206 C101.725569,35.9716846 101.723381,18.7578483 91.3096066,8.13579868 C80.8961914,-2.48588482 64.0159023,-2.48479028 53.6030164,8.13635326 L3.32937528,59.4154672 C-0.141370458,62.9556279 -0.141370458,68.6953624 3.32937528,72.235523 C6.80012101,75.7756837 12.4273117,75.7756837 15.8980574,72.235523 L15.8980574,72.235523 L15.8980574,72.235523 Z" id="Layer-1"></path>
                <polygon id="Layer-2" points="16.1654823 71.9627496 35.0185055 52.7326659 35.0185055 27.0925544 16.1654823 46.322638"></polygon>
                <path d="M81.3458889,27.3658824 C81.3458598,29.6851848 80.4774708,32.0046329 78.7403807,33.7764648 L72.4148514,40.2285047 C68.9441057,43.7686654 68.9441057,49.5083999 72.4148514,53.0485605 C75.8855971,56.5887212 81.5127878,56.5887212 84.9835335,53.0485605 L91.3090629,46.5965206 C96.5171243,41.2842979 99.1207038,34.3249463 99.1206897,27.3658824 L81.3458889,27.3658824 L81.3458889,27.3658824 L81.3458889,27.3658824 Z" id="Layer-3"></path>
                <path d="M53.8715288,33.5025823 L66.1716986,20.956409 C67.9758079,19.1162175 70.3616258,18.2321901 72.724552,18.3044026 L72.724552,0.171377679 C65.9286706,0.102216511 59.1118212,2.66728269 53.8715282,7.86623914 L53.8715288,33.5025823 L53.8715288,33.5025823 Z" id="Layer-4"></path>
            </g>
        </g>
    </g>
</svg>