<?xml version="1.0" encoding="UTF-8"?>
<svg width="79px" height="104px" viewBox="0 0 79 104" version="1.1" xmlns="http://www.w3.org/2000/svg" xmlns:xlink="http://www.w3.org/1999/xlink">
    <!-- Generator: Sketch 46 (44423) - http://www.bohemiancoding.com/sketch -->
    <title>holidays-39</title>
    <desc>Created with Sketch.</desc>
    <defs></defs>
    <g id="ALL" stroke="none" stroke-width="1" fill="none" fill-rule="evenodd" stroke-linecap="round" stroke-linejoin="round">
        <g id="Secondary" transform="translate(-1595.000000, -7803.000000)" stroke="#868E96" stroke-width="3.5">
            <g id="holidays-39" transform="translate(1597.000000, 7804.000000)">
                <path d="M55.139401,49.4302546 C60.3254481,43.0136594 66.7840762,34.830347 67.8047046,32.6416023 C69.5496561,28.8995419 79.6743463,5.07517096 71.5664958,1.29441814 C63.4586452,-2.48633467 51.5287417,20.2214857 49.6785489,24.1892371 C48.5367867,26.6377539 46.5570989,37.6233467 45.208464,45.6770424 C48.7909075,46.4404647 52.1385103,47.7239619 55.139401,49.4302546 L55.139401,49.4302546 Z" id="Layer-1"></path>
                <path d="M19.5336061,49.5587165 C14.3475591,43.1421212 7.88893091,34.9588088 6.86830251,32.7700641 C5.12335107,29.0280037 -5.00133919,5.2036328 3.10651135,1.42287999 C11.2143619,-2.35787283 23.1442654,20.3499476 24.9944583,24.3176989 C26.1362204,26.7662157 28.1159082,37.7518085 29.4645431,45.8055042 C25.8820996,46.5689265 22.5344969,47.8524237 19.5336061,49.5587165 L19.5336061,49.5587165 Z" id="Layer-2"></path>
                <path d="M37.5,101 C62.1054695,101 69.7,88.463973 69.7,73 C69.7,57.536027 55.2835689,45 37.5,45 C19.7164311,45 5.3,57.536027 5.3,73 C5.3,88.463973 12.8945305,101 37.5,101 Z" id="Layer-3"></path>
                <circle id="Layer-4" cx="23" cy="65" r="2"></circle>
                <circle id="Layer-5" cx="51" cy="65" r="2"></circle>
                <polygon id="Layer-6" points="32 74 42 74 37 82"></polygon>
                <path d="M37,81 L37,85.5" id="Layer-7"></path>
                <path d="M37,86 C37,88.209139 38.790861,90 41,90 L41,90 C43.209139,90 45,88.209139 45,86" id="Layer-8"></path>
                <path d="M37,86 C37,88.209139 35.209139,90 33,90 L33,90 C30.790861,90 29,88.209139 29,86" id="Layer-9"></path>
            </g>
        </g>
    </g>
</svg>