<?xml version="1.0" encoding="UTF-8"?>
<svg width="104px" height="104px" viewBox="0 0 104 104" version="1.1" xmlns="http://www.w3.org/2000/svg" xmlns:xlink="http://www.w3.org/1999/xlink">
    <!-- Generator: Sketch 46 (44423) - http://www.bohemiancoding.com/sketch -->
    <title>holidays-44</title>
    <desc>Created with Sketch.</desc>
    <defs></defs>
    <g id="ALL" stroke="none" stroke-width="1" fill="none" fill-rule="evenodd" stroke-linecap="round" stroke-linejoin="round">
        <g id="Secondary" transform="translate(-3016.000000, -7802.000000)" stroke="#868E96" stroke-width="3.5">
            <g id="holidays-44" transform="translate(3018.000000, 7804.000000)">
                <path d="M53.4198401,52.2342771 L76,100 L24,100 L46.5801599,52.2342771 C47.6170875,52.7253262 48.776467,53 50,53 C51.223533,53 52.3829125,52.7253262 53.4198401,52.2342771 L53.4198401,52.2342771 Z" id="Layer-1"></path>
                <path d="M26.6422696,77.475453 C30.8291166,80.4921152 35.622858,82.7190755 40.805316,83.9381564 C40.2870032,82.7295999 40,81.3983166 40,80 L60,80 C60,81.3983166 59.7129968,82.7295999 59.194684,83.9381564 C64.377142,82.7190755 69.1708834,80.4921152 73.3577304,77.475453 C71.2977433,75.6437391 70,72.9734217 70,70 L81.2268548,70 C85.734681,64.3766744 88.7550026,57.5095461 89.6911145,49.9953203 C84.3111801,49.8320941 80,45.4195121 80,40 L89.6905312,40 C88.7499695,32.4572975 85.7093456,25.5667778 81.1722393,19.9320207 C80.7877311,19.9769168 80.3965612,20 80,20 C74.5959352,20 70.1930685,15.7133613 70.0061789,10.3548628 C66.3700861,8.2506297 62.3720188,6.70238633 58.1282404,5.82639608 C56.3133841,8.35376904 53.348941,10 50,10 C46.651059,10 43.6866159,8.35376904 41.8717596,5.82639608 C37.6279812,6.70238633 33.6299139,8.2506297 29.9938211,10.3548628 C29.8069315,15.7133613 25.4040648,20 20,20 C19.6034388,20 19.2122689,19.9769168 18.8277607,19.9320207 C14.2906544,25.5667778 11.2500305,32.4572975 10.3094688,40 L20,40 C20,45.4195121 15.6888199,49.8320941 10.3088855,49.9953203 C11.2449974,57.5095461 14.265319,64.3766744 18.7731452,70 L30,70 C30,72.9734217 28.7022567,75.6437391 26.6422696,77.475453 L26.6422696,77.475453 Z" id="Layer-2"></path>
                <path d="M30,10 C30,15.5228475 25.5228475,20 20,20 C14.4771525,20 10,15.5228475 10,10 L30,10 L30,10 L30,10 Z M20,40 C20,45.5228475 15.5228475,50 10,50 C4.4771525,50 0,45.5228475 0,40 L20,40 L20,40 L20,40 Z M100,40 C100,45.5228475 95.5228475,50 90,50 C84.4771525,50 80,45.5228475 80,40 L100,40 L100,40 L100,40 Z M90,70 C90,75.5228475 85.5228475,80 80,80 C74.4771525,80 70,75.5228475 70,70 L90,70 L90,70 L90,70 Z M60,80 C60,85.5228475 55.5228475,90 50,90 C44.4771525,90 40,85.5228475 40,80 L60,80 L60,80 L60,80 Z M60,0 C60,5.5228475 55.5228475,10 50,10 C44.4771525,10 40,5.5228475 40,0 L60,0 L60,0 L60,0 Z M90,10 C90,15.5228475 85.5228475,20 80,20 C74.4771525,20 70,15.5228475 70,10 L90,10 L90,10 L90,10 Z M30,70 C30,75.5228475 25.5228475,80 20,80 C14.4771525,80 10,75.5228475 10,70 L30,70 L30,70 L30,70 Z" id="Layer-3"></path>
                <circle id="Layer-4" cx="50" cy="45" r="8"></circle>
            </g>
        </g>
    </g>
</svg>