<?xml version="1.0" encoding="UTF-8"?>
<svg width="104px" height="102px" viewBox="0 0 104 102" version="1.1" xmlns="http://www.w3.org/2000/svg" xmlns:xlink="http://www.w3.org/1999/xlink">
    <!-- Generator: Sketch 46 (44423) - http://www.bohemiancoding.com/sketch -->
    <title>holidays-26</title>
    <desc>Created with Sketch.</desc>
    <defs></defs>
    <g id="ALL" stroke="none" stroke-width="1" fill="none" fill-rule="evenodd" stroke-linecap="round" stroke-linejoin="round">
        <g id="Secondary" transform="translate(-7067.000000, -7501.000000)" stroke="#868E96" stroke-width="3.5">
            <g id="holidays-26" transform="translate(7068.000000, 7503.000000)">
                <path d="M81,90.0000005 L81,28.0090425 C81,22.481201 85.4750951,18 90.9999892,18 L61,18 L61,87.9999043 C61,93.522787 65.4759382,97.9999681 71,98 C76.5228475,98 81,94.418278 81,90.0000005 Z" id="Layer-1"></path>
                <path d="M101,68 L101,28.0070471 C101,22.468177 96.5228475,18 91,18 C85.4759382,18 81,22.4803076 81,28.0070471 L81,68 L101,68 L101,68 Z" id="Layer-2"></path>
                <path d="M61,8.42089844 L1,8.42089844 L1,88.0095352 C1,93.5274312 5.47361428,98 10.9920972,98 L71,98 C65.4759382,97.9999681 61,93.522787 61,87.9999043 L61,18 L61,8.42089844 Z" id="Layer-3"></path>
                <path d="M1,8 L1,0" id="Layer-4"></path>
                <path d="M101,76 L101,68" id="Layer-5"></path>
                <path d="M91,76 L91,68" id="Layer-6"></path>
                <path d="M11,8 L11,0" id="Layer-7"></path>
                <path d="M21,8 L21,0" id="Layer-8"></path>
                <path d="M31,8 L31,0" id="Layer-9"></path>
                <path d="M41,8 L41,0" id="Layer-10"></path>
                <path d="M51,8 L51,0" id="Layer-11"></path>
                <path d="M61,8 L61,0" id="Layer-12"></path>
                <rect id="Layer-13" x="1" y="8" width="60" height="15"></rect>
                <rect id="Layer-14" x="81.1309211" y="53.5" width="19.8690789" height="15"></rect>
            </g>
        </g>
    </g>
</svg>