<?xml version="1.0" encoding="UTF-8"?>
<svg width="84px" height="104px" viewBox="0 0 84 104" version="1.1" xmlns="http://www.w3.org/2000/svg" xmlns:xlink="http://www.w3.org/1999/xlink">
    <!-- Generator: Sketch 46 (44423) - http://www.bohemiancoding.com/sketch -->
    <title>holidays-14</title>
    <desc>Created with Sketch.</desc>
    <defs></defs>
    <g id="ALL" stroke="none" stroke-width="1" fill="none" fill-rule="evenodd" stroke-linecap="round" stroke-linejoin="round">
        <g id="Secondary" transform="translate(-3589.000000, -7501.000000)" stroke="#868E96" stroke-width="3.5">
            <g id="holidays-14" transform="translate(3591.000000, 7503.000000)">
                <path d="M0.447001648,26 C0.152599314,25.0214195 0,24.0196201 0,23 C0,21.308455 0.419993806,19.6659574 1.21068559,18.0971552 C0.45253151,17.245495 0,16.1696494 0,15 C0,12.2385763 2.52233944,10 5.63380282,10 C6.67243858,10 7.64542902,10.2494417 8.48086633,10.6845069 C9.02820314,10.3348002 9.59831369,9.99443389 10.1900823,9.66396573 C10.1576065,9.44673786 10.1408451,9.22510615 10.1408451,9 C10.1408451,6.23857625 12.6631845,4 15.7746479,4 C16.3596208,4 16.9237704,4.07912505 17.45425,4.22597365 C18.4291232,2.32310311 20.5897575,1 23.0985915,1 C25.1274213,1 26.9285443,1.86524882 28.0590281,3.20264381 C29.4974706,1.84663653 31.5387395,1 33.8028169,1 C35.9535034,1 37.9031402,1.76395661 39.3259945,3.00278199 C39.5187924,3.00118935 39.7119221,3.00027874 39.9053744,3.00005477 C40.7747199,1.23412074 42.76018,0 45.0704225,0 C47.67428,0 49.8655542,1.56775045 50.5112243,3.69769551 C51.3082611,3.80594718 52.0953951,3.92620894 52.8718124,4.05806973 C53.827679,3.39509545 55.0308651,3 56.3380282,3 C58.7157835,3 60.7494967,4.30730472 61.5764124,6.15621876 C61.8868243,6.25583231 62.1943022,6.35753237 62.498767,6.46127933 C63.5179996,5.55833021 64.9249688,5 66.4788732,5 C69.5903366,5 72.1126761,7.23857625 72.1126761,10 C72.1126761,10.3418638 72.0740177,10.6757142 72.000369,10.9982958 C72.1498165,11.0977556 72.2974524,11.1979349 72.4432522,11.2988212 C73.0433041,11.1054545 73.6908745,11 74.3661972,11 C77.4776606,11 80,13.2385763 80,16 C80,17.0075412 79.6642136,17.9454784 79.0865417,18.7304745 C79.6848323,20.1061624 80,21.5346783 80,23 C80,24.0196201 79.8474007,25.0214195 79.5529984,26 L0.447001648,26 L0.447001648,26 Z" id="Layer-1"></path>
                <path d="M48.6258523,8.44286211 C49.4774506,7.54628959 50,6.33416877 50,5 C50,2.23857625 47.7614237,0 45,0 C42.2385763,0 40,2.23857625 40,5" id="Layer-2"></path>
                <path d="M27.5596951,11.4887925 C26.6530299,10.5696855 25.3930436,10 24,10 C21.2385763,10 19,12.2385763 19,15" id="Layer-3"></path>
                <path d="M43.3583551,15.4172152 C43.0602485,14.5804763 42.4402276,13.8588856 41.5715929,13.4538346 C39.8497025,12.6509039 37.8029307,13.395868 37,15.1177583" id="Layer-4"></path>
                <path d="M56,14.1409314 C56.69482,13.4365767 57.6604065,13 58.727961,13 C60.8441693,13 62.5596951,14.7155258 62.5596951,16.8317341" id="Layer-5"></path>
                <polygon id="Layer-6" points="80 26 71.9374442 100 8.06255579 100 0 26"></polygon>
                <path d="M59.5616846,100 L20.4383154,100 L15.5,26 L64.5,26 L59.5616846,100 Z M32.8140751,100 L47.1859249,100 L47.7041124,76.8620245 C45.5389496,78.0349371 43.0914205,78.6956522 40.5,78.6956522 C37.4949173,78.6956522 34.6833306,77.8071648 32.2811726,76.2617701 L32.8140751,100 Z M31.5710708,49.2951988 L31,26 L39.2392578,26 L49,26 L48.4450284,48.6384798 C46.1041085,47.1994812 43.3916352,46.3768116 40.5,46.3768116 C37.193565,46.3768116 34.1213796,47.4524305 31.5710708,49.2951988 L31.5710708,49.2951988 L31.5710708,49.2951988 Z" id="Layer-7"></path>
                <circle id="Layer-8" cx="40.5" cy="63" r="16"></circle>
            </g>
        </g>
    </g>
</svg>