<?xml version="1.0" encoding="UTF-8"?>
<svg width="104px" height="104px" viewBox="0 0 104 104" version="1.1" xmlns="http://www.w3.org/2000/svg" xmlns:xlink="http://www.w3.org/1999/xlink">
    <!-- Generator: Sketch 46 (44423) - http://www.bohemiancoding.com/sketch -->
    <title>holidays-2</title>
    <desc>Created with Sketch.</desc>
    <defs></defs>
    <g id="ALL" stroke="none" stroke-width="1" fill="none" fill-rule="evenodd" stroke-linecap="round" stroke-linejoin="round">
        <g id="Secondary" transform="translate(-9491.000000, -7191.000000)" stroke="#868E96" stroke-width="3.5">
            <g id="holidays-2" transform="translate(9493.000000, 7193.000000)">
                <path d="M39.1670055,64.2140012 L62.6356033,41.2055719 C70.4208843,33.5729435 70.4208843,21.1980079 62.6356033,13.5653795 C54.8503224,5.93275118 42.2278881,5.93275118 34.4426071,13.5653795 C27.092947,20.7709287 26.889363,30.2737902 32.9329824,36.1189735 C37.8594519,40.8836874 44.8335459,38.8008471 46.2154202,31.8292562 C46.615473,29.81098 54.0704742,31.231293 53.6704214,33.2495692 C51.1286503,46.0728683 36.8271296,50.3440731 27.5994799,41.4194038 C18.4948586,32.6137234 18.7999718,18.3716995 29.0725126,8.30058099 C39.8236149,-2.23971531 57.2545956,-2.23971531 68.0056979,8.30058099 C78.7568001,18.8408773 78.7568001,35.9300741 68.0056979,46.4703704 L44.5371,69.4787997" id="Layer-1" fill-rule="nonzero"></path>
                <path d="M28.4012508,80.0334611 L27.3432313,78.9961871 C24.2217042,75.9358664 24.2202827,70.9704531 27.3432313,67.9087388 L35.113869,60.2904666 L48.5391052,73.452463 L36.7920235,84.9692098 L21.6886327,99.7764557 L14.9760145,93.1954575 L28.4012508,80.0334611 L28.4012508,80.0334611 Z" id="Layer-2"></path>
                <path d="M100,7.35294118 C95.8578644,7.35294118 92.5,4.06091728 92.5,0 C92.5,4.06091728 89.1421356,7.35294118 85,7.35294118 C89.1421356,7.35294118 92.5,10.6449651 92.5,14.7058824 C92.5,10.6449651 95.8578644,7.35294118 100,7.35294118 L100,7.35294118 Z" id="Layer-3"></path>
                <path d="M89,78.4313725 C83.4771525,78.4313725 79,74.0420074 79,68.627451 C79,74.0420074 74.5228475,78.4313725 69,78.4313725 C74.5228475,78.4313725 79,82.8207377 79,88.2352941 C79,82.8207377 83.4771525,78.4313725 89,78.4313725 L89,78.4313725 Z" id="Layer-4"></path>
                <path d="M15,49.5098039 C10.8578644,49.5098039 7.5,46.21778 7.5,42.1568627 C7.5,46.21778 4.14213562,49.5098039 0,49.5098039 C4.14213562,49.5098039 7.5,52.8018278 7.5,56.8627451 C7.5,52.8018278 10.8578644,49.5098039 15,49.5098039 L15,49.5098039 Z" id="Layer-5"></path>
                <ellipse id="Layer-6" cx="95" cy="49.0196078" rx="5" ry="4.90196078"></ellipse>
                <ellipse id="Layer-7" cx="5" cy="4.90196078" rx="5" ry="4.90196078"></ellipse>
            </g>
        </g>
    </g>
</svg>