<?xml version="1.0" encoding="UTF-8"?>
<svg width="105px" height="105px" viewBox="0 0 105 105" version="1.1" xmlns="http://www.w3.org/2000/svg" xmlns:xlink="http://www.w3.org/1999/xlink">
    <!-- Generator: Sketch 46 (44423) - http://www.bohemiancoding.com/sketch -->
    <title>holidays-25</title>
    <desc>Created with Sketch.</desc>
    <defs></defs>
    <g id="ALL" stroke="none" stroke-width="1" fill="none" fill-rule="evenodd" stroke-linecap="round" stroke-linejoin="round">
        <g id="Secondary" transform="translate(-6765.000000, -7501.000000)" stroke="#868E96" stroke-width="3.5">
            <g id="holidays-25" transform="translate(6767.000000, 7503.000000)">
                <path d="M20.1977637,43.5446911 C20.171355,43.7243062 20.1578947,43.9110933 20.1578947,44.1052632 C20.1578947,77.2631576 57,92 57,92 C57,92 93.8421053,77.2631576 93.8421053,44.1052632 C93.8421053,43.9106507 93.8286655,43.7235131 93.8023022,43.5436351 C93.828706,43.120202 93.8421053,42.6932448 93.8421053,42.2631579 C93.8421053,31.0721248 84.7699805,22 73.5789474,22 C66.7257345,22 60.6671431,25.4021785 57,30.6097085 C53.3328569,25.4021785 47.2742655,22 40.4210526,22 C29.2300195,22 20.1578947,31.0721248 20.1578947,42.2631579 C20.1578947,42.6936023 20.1713163,43.1209119 20.1977637,43.5446911 L20.1977637,43.5446911 Z" id="Layer-1"></path>
                <path d="M96.5861493,81.3395085 C96.6288256,81.3712441 96.6703054,81.4071475 96.7105263,81.4473684 C103.578947,88.3157894 99,99 99,99 C99,99 88.3157894,103.578947 81.4473684,96.7105263 C81.4070558,96.6702137 81.3710756,96.6286656 81.3392761,96.5859441 C81.2460956,96.5037024 81.1548789,96.4180368 81.0657895,96.3289474 C78.7476469,94.0108048 78.7476469,90.2523531 81.0657895,87.9342105 C82.4853836,86.5146164 84.4451145,85.9643595 86.2834396,86.2834396 C85.9643595,84.4451145 86.5146164,82.4853836 87.9342105,81.0657895 C90.2523531,78.7476469 94.0108048,78.7476469 96.3289474,81.0657895 C96.4181109,81.154953 96.5038448,81.2462473 96.5861493,81.3395085 L96.5861493,81.3395085 Z" id="Layer-2"></path>
                <path d="M57.074707,57.074707 L87.037571,87.037571" id="Layer-3"></path>
                <path d="M7.5,7.5 L26.5,26.5" id="Layer-4"></path>
                <polygon id="Layer-5" points="4.54747351e-13 8.48528137 7.06830568 7.06830568 8.48528137 -1.13686838e-13 22.627417 14.1421356 21.2646482 21.2646482 14.1421356 22.627417"></polygon>
            </g>
        </g>
    </g>
</svg>