<?xml version="1.0" encoding="UTF-8"?>
<svg width="100px" height="104px" viewBox="0 0 100 104" version="1.1" xmlns="http://www.w3.org/2000/svg" xmlns:xlink="http://www.w3.org/1999/xlink">
    <!-- Generator: Sketch 46 (44423) - http://www.bohemiancoding.com/sketch -->
    <title>holidays-22</title>
    <desc>Created with Sketch.</desc>
    <defs></defs>
    <g id="ALL" stroke="none" stroke-width="1" fill="none" fill-rule="evenodd" stroke-linecap="round" stroke-linejoin="round">
        <g id="Secondary" transform="translate(-5868.000000, -7501.000000)" stroke="#868E96" stroke-width="3.5">
            <g id="holidays-22" transform="translate(5870.000000, 7503.000000)">
                <path d="M18.5726599,9.54915028 C23.3103865,13.1528637 29.6786605,14.4516499 35.7686284,12.4728994 C41.8585962,10.4941489 46.2472307,5.70023127 47.9619225,0 C49.6766142,5.70023127 54.0652487,10.4941489 60.1552166,12.4728994 C66.2451845,14.4516499 72.6134585,13.1528637 77.3511851,9.54915028 C75.387888,15.1686048 76.1205738,21.6265402 79.8843809,26.8069763 C83.6481881,31.9874124 89.5636373,34.6798499 95.5147483,34.5491503 C90.6233751,37.9413874 87.4202511,43.5966288 87.4202511,50 C87.4202511,56.4033712 90.6233751,62.0586126 95.5147483,65.4508497 C89.5636373,65.3201501 83.6481881,68.0125876 79.8843809,73.1930237 C76.1205738,78.3734598 75.387888,84.8313952 77.3511851,90.4508497 C72.6134585,86.8471363 66.2451845,85.5483501 60.1552166,87.5271006 C54.0652487,89.5058511 49.6766142,94.2997687 47.9619225,100 C46.2472307,94.2997687 41.8585962,89.5058511 35.7686284,87.5271006 C29.6786605,85.5483501 23.3103865,86.8471363 18.5726599,90.4508497 C20.535957,84.8313952 19.8032712,78.3734598 16.039464,73.1930237 C12.2756569,68.0125876 6.36020763,65.3201501 0.409096661,65.4508497 C5.30046987,62.0586126 8.50359383,56.4033712 8.50359383,50 C8.50359383,43.5966288 5.30046987,37.9413874 0.409096661,34.5491503 C6.36020763,34.6798499 12.2756569,31.9874124 16.039464,26.8069763 C19.8032712,21.6265402 20.535957,15.1686048 18.5726599,9.54915028 L18.5726599,9.54915028 L18.5726599,9.54915028 Z" id="Layer-1"></path>
                <circle id="Layer-2" cx="48" cy="50" r="20"></circle>
                <path d="M49,37 C41.2680135,37 35,43.2680135 35,51" id="Layer-3"></path>
            </g>
        </g>
    </g>
</svg>