<?xml version="1.0" encoding="UTF-8"?>
<svg width="83px" height="104px" viewBox="0 0 83 104" version="1.1" xmlns="http://www.w3.org/2000/svg" xmlns:xlink="http://www.w3.org/1999/xlink">
    <!-- Generator: Sketch 46 (44423) - http://www.bohemiancoding.com/sketch -->
    <title>holidays-27</title>
    <desc>Created with Sketch.</desc>
    <defs></defs>
    <g id="ALL" stroke="none" stroke-width="1" fill="none" fill-rule="evenodd" stroke-linecap="round" stroke-linejoin="round">
        <g id="Secondary" transform="translate(-7369.000000, -7501.000000)" stroke="#868E96" stroke-width="3.5">
            <g id="holidays-27" transform="translate(7370.000000, 7503.000000)">
                <path d="M30.3364265,92.0629883 L30.3364265,100.164062 L72.9746082,100.164062 C72.9746082,93.1880107 73.2360365,91.7226953 74.2001941,88.4677734 C75.8849612,82.7801298 79.9214464,77.4416502 79.9214464,69.3752537 L79.9214464,29.0991437 C79.9214464,13.0280547 66.8895864,0 50.8139723,0 C34.7348237,0 21.7064982,13.0335296 21.7064982,29.111203 L21.7064982,49.8531796 L17.4959665,45.6426479 C13.7108562,41.8575376 7.57635704,41.8551605 3.79232114,45.6391964 C0.00911706887,49.4224005 0.0105068077,55.5575759 3.79577264,59.3428418 L23.9975593,80.996582 C24.3049886,81.9375203 30.3364265,87.484375 30.3364265,92.0629883 Z" id="Layer-1"></path>
                <path d="M22.7056277,24.1089233 L32.1592952,32.2482494 L41.6152685,24.1089233 L51.038961,32.2482494 L60.7222835,24.1089233 L69.9887223,32.2482494 L79.3722944,24.1089233 M79.3722944,40.3875756 L69.9887223,48.4259549 L60.7222835,40.3875756 L51.038961,48.4259549 L41.6152685,40.3875756 L32.1592952,48.4259549 L22.7056277,40.3875756" id="Layer-2"></path>
            </g>
        </g>
    </g>
</svg>