<?xml version="1.0" encoding="UTF-8"?>
<svg width="104px" height="104px" viewBox="0 0 104 104" version="1.1" xmlns="http://www.w3.org/2000/svg" xmlns:xlink="http://www.w3.org/1999/xlink">
    <!-- Generator: Sketch 46 (44423) - http://www.bohemiancoding.com/sketch -->
    <title>holidays-16</title>
    <desc>Created with Sketch.</desc>
    <defs></defs>
    <g id="ALL" stroke="none" stroke-width="1" fill="none" fill-rule="evenodd" stroke-linecap="round" stroke-linejoin="round">
        <g id="Secondary" transform="translate(-4139.000000, -7501.000000)" stroke="#868E96" stroke-width="3.5">
            <g id="holidays-16" transform="translate(4141.000000, 7503.000000)">
                <path d="M49.8919786,98.8048415 C50.6523226,99.5492479 51.6957445,100 52.829212,100 L82.954743,100 C84.9449369,100 86.6582961,98.6101702 87.0478976,96.6797457 L99.9192389,32.9039429 C100.090645,32.0546471 99.9876809,31.1735408 99.624917,30.3853143 L86.7535758,2.41799779 C86.075796,0.945293351 84.5906783,0 82.954743,0 L52.829212,0 C51.7088677,0 50.6597107,0.443279006 49.8919771,1.19508413 C50.2457501,1.5415225 50.5398148,1.9535301 50.7535758,2.41799779 L63.624917,30.3853143 C63.9876809,31.1735408 64.0906452,32.0546471 63.9192389,32.9039429 L51.0478976,96.6797457 C50.8801469,97.5109284 50.4669842,98.24189 49.8919786,98.8048415 L49.8919786,98.8048415 Z" id="Layer-1"></path>
                <path d="M19.5991858,8.25688065 L44.2610359,8.24095024 L55.468902,32.6020241 L43.5899154,91.7411719 L20.2585498,91.7276693 L8.48867958,32.5849341 L19.5991858,8.25688065 L19.5991858,8.25688065 L19.5991858,8.25688065 Z M0.364182844,30.4091986 C0.0120574998,31.1873709 -0.087861917,32.0542873 0.0781475997,32.8908849 L12.7334441,96.6666876 C13.1177256,98.6032569 14.833957,100 16.829212,100 L46.954743,100 C48.9449369,100 50.6582961,98.6101702 51.0478976,96.6797457 L63.9192389,32.9039429 C64.0906452,32.0546471 63.9876809,31.1735408 63.624917,30.3853143 L50.7535758,2.41799779 C50.075796,0.945293351 48.5906783,0 46.954743,0 L16.829212,0 C15.1836779,0 13.691716,0.956286301 13.0194794,2.44188213 L0.364182844,30.4091986 L0.364182844,30.4091986 L0.364182844,30.4091986 L0.364182844,30.4091986 Z" id="Layer-2" fill-rule="nonzero"></path>
                <path d="M32,24.5 L32,54.5" id="Layer-3"></path>
                <path d="M25,34.5 L39,34.5" id="Layer-4"></path>
            </g>
        </g>
    </g>
</svg>