<?xml version="1.0" encoding="UTF-8"?>
<svg width="105px" height="85px" viewBox="0 0 105 85" version="1.1" xmlns="http://www.w3.org/2000/svg" xmlns:xlink="http://www.w3.org/1999/xlink">
    <!-- Generator: Sketch 46 (44423) - http://www.bohemiancoding.com/sketch -->
    <title>holidays-38</title>
    <desc>Created with Sketch.</desc>
    <defs></defs>
    <g id="ALL" stroke="none" stroke-width="1" fill="none" fill-rule="evenodd" stroke-linecap="round" stroke-linejoin="round">
        <g id="Secondary" transform="translate(-1294.000000, -7802.000000)" stroke="#868E96" stroke-width="3.5">
            <g id="holidays-38" transform="translate(1296.000000, 7804.000000)">
                <path d="M22.380967,21.5514066 C34.0597318,21.5514066 50.1660925,10.6373705 50.1660925,10.6373705 C50.1660925,10.6373705 48.4928872,-5.00330669 25.109213,1.64650393 C1.72553877,8.29631455 0,4.37578653 0,4.37578653 C0,4.37578653 10.7022023,21.5514066 22.380967,21.5514066 Z" id="Layer-1"></path>
                <path d="M77.3914247,21.5514066 C65.7126599,21.5514066 49.6062992,10.6373705 49.6062992,10.6373705 C49.6062992,10.6373705 51.2795045,-5.00330669 74.6631788,1.64650393 C98.046853,8.29631455 99.7723917,4.37578653 99.7723917,4.37578653 C99.7723917,4.37578653 89.0701895,21.5514066 77.3914247,21.5514066 L77.3914247,21.5514066 Z" id="Layer-2"></path>
                <path d="M100.5,4.5 L80.5,80.5" id="Layer-3"></path>
            </g>
        </g>
    </g>
</svg>