<?xml version="1.0" encoding="UTF-8"?>
<svg width="104px" height="103px" viewBox="0 0 104 103" version="1.1" xmlns="http://www.w3.org/2000/svg" xmlns:xlink="http://www.w3.org/1999/xlink">
    <!-- Generator: Sketch 46 (44423) - http://www.bohemiancoding.com/sketch -->
    <title>holidays-31</title>
    <desc>Created with Sketch.</desc>
    <defs></defs>
    <g id="ALL" stroke="none" stroke-width="1" fill="none" fill-rule="evenodd" stroke-linecap="round" stroke-linejoin="round">
        <g id="Secondary" transform="translate(-8461.000000, -7501.000000)" stroke="#868E96" stroke-width="3.5">
            <g id="holidays-31" transform="translate(8463.000000, 7503.000000)">
                <path d="M5.94059406,99.009901 L5.94059406,69.3018446 C5.94059406,58.3683219 14.8104734,49.5049505 25.744409,49.5049505 L75.24569,49.5049505 C86.183035,49.5049505 95.049505,58.3697251 95.049505,69.3018446 L95.049505,99.009901" id="Layer-1"></path>
                <path d="M5.94059406,69.3018446 C5.94059406,58.3683219 14.8104734,49.5049505 25.744409,49.5049505 L75.24569,49.5049505 C86.183035,49.5049505 95.049505,58.3697251 95.049505,69.3018446 L95.049505,74.2548827 L95.049505,79.2079208 C95.049505,81.9420037 92.8330928,88.1584158 90.0990099,88.1584158 C87.364927,88.1584158 85.1485149,85.9420037 85.1485149,83.2079208 C85.1485149,80.4738379 82.9321027,78.2574257 80.1980198,78.2574257 C77.4639369,78.2574257 75.2475248,80.4738379 75.2475248,83.2079208 C75.2475248,85.9420037 73.0311126,88.1584158 70.2970297,88.1584158 C67.5629468,88.1584158 65.3465347,85.9420037 65.3465347,83.2079208 C65.3465347,80.4738379 63.1301225,78.2574257 60.3960396,78.2574257 C57.6619567,78.2574257 55.4455446,80.4738379 55.4455446,83.2079208 C55.4455446,85.9420037 53.2291324,88.1584158 50.4950495,88.1584158 C47.7609666,88.1584158 45.5445545,85.9420037 45.5445545,83.2079208 C45.5445545,80.4738379 43.3281423,78.2574257 40.5940594,78.2574257 C37.8599765,78.2574257 35.6435644,80.4738379 35.6435644,83.2079208 C35.6435644,85.9420037 33.4271522,88.1584158 30.6930693,88.1584158 C27.9589864,88.1584158 25.7425743,85.9420037 25.7425743,83.2079208 C25.7425743,80.4738379 23.5261621,78.2574257 20.7920792,78.2574257 C18.0579963,78.2574257 15.8415842,80.4738379 15.8415842,83.2079208 C15.8415842,85.9420037 13.625172,88.1584158 10.8910891,88.1584158 C8.15700619,88.1584158 5.94059406,81.9420037 5.94059406,79.2079208 L5.94059406,74.2548827 L5.94059406,69.3018446 Z" id="Layer-2"></path>
                <circle id="Layer-3" cx="30.7128713" cy="58.4455446" r="3"></circle>
                <circle id="Layer-4" cx="40.6138614" cy="68.3663366" r="3"></circle>
                <circle id="Layer-5" cx="20.8118812" cy="68.3663366" r="3"></circle>
                <circle id="Layer-6" cx="80.2178218" cy="68.3663366" r="3"></circle>
                <circle id="Layer-7" cx="70.3168317" cy="58.4455446" r="3"></circle>
                <circle id="Layer-8" cx="50.5148515" cy="58.4455446" r="3"></circle>
                <circle id="Layer-9" cx="60.4158416" cy="68.3663366" r="3"></circle>
                <path d="M0.495049505,99.009901 L99.5098983,99.009901" id="Layer-10"></path>
                <path d="M58.8242885,16.1524705 C58.8242885,20.9021191 54.9739352,24.7524752 50.2242837,24.7524752 C50.1786973,24.7524752 50.1331938,24.7521206 50.0877757,24.7514138 C50.0423576,24.7521206 49.9968541,24.7524752 49.9512677,24.7524752 C45.2016162,24.7524752 41.351263,20.9020925 41.3512629,16.1524705 C41.3512629,11.8111424 43.823871,10.9840959 45.7861736,7.41115861 C47.7484763,3.83822137 46.2503542,0 46.2503542,0 C46.2503542,0 58.8242885,3.18207641 58.8242885,16.1524705 Z" id="Layer-11"></path>
                <polygon id="Layer-12" points="40.5940594 49.5049505 40.5940594 24.7524752 60.3960396 24.7524752 60.3960396 49.5049505"></polygon>
            </g>
        </g>
    </g>
</svg>