<?xml version="1.0" encoding="UTF-8"?>
<svg width="91px" height="104px" viewBox="0 0 91 104" version="1.1" xmlns="http://www.w3.org/2000/svg" xmlns:xlink="http://www.w3.org/1999/xlink">
    <!-- Generator: Sketch 46 (44423) - http://www.bohemiancoding.com/sketch -->
    <title>holidays-37</title>
    <desc>Created with Sketch.</desc>
    <defs></defs>
    <g id="ALL" stroke="none" stroke-width="1" fill="none" fill-rule="evenodd" stroke-linecap="round" stroke-linejoin="round">
        <g id="Secondary" transform="translate(-1006.000000, -7802.000000)" stroke="#868E96" stroke-width="3.5">
            <g id="holidays-37" transform="translate(1008.000000, 7804.000000)">
                <path d="M68.6805428,51.5751069 L68.6805428,62.4900323 C68.6805428,72.3563426 73.1413309,81.206149 80.2025316,87.2243751 L80.2025316,87.2243751 C73.0144231,84.7098194 59.2465241,83.0091861 43.4430387,83.0091861 C27.6395523,83.0091861 13.8716525,84.7098197 6.6835443,87.2243756 C13.7447485,81.2061468 18.2055355,72.3563414 18.2055355,62.4900323 L18.2055355,51.9115689 C18.3180049,51.8746183 18.4309027,51.8360872 18.544226,51.7959647 C27.9637626,47.9208604 35.4537515,39.0349007 39.2502306,33.8001478 L39.2502306,33.8001478 C40.5221706,34.5283754 41.9947968,34.9445041 43.5643564,34.9445041 C45.1815661,34.9445041 46.6958674,34.5027255 47.9937684,33.7329632 C51.8019846,38.9322066 59.2736222,47.7062625 68.6621066,51.5685922 C68.6682532,51.5707684 68.6743986,51.57294 68.6805428,51.5751069 L68.6805428,51.5751069 Z" id="Layer-1"></path>
                <path d="M43.443038,99.7486563 C66.8207621,99.7486563 85.7721519,96.0739611 85.7721519,91.5409948 C85.7721519,87.0080286 66.8207621,83.3333333 43.443038,83.3333333 C20.0653139,83.3333333 1.11392405,87.0080286 1.11392405,91.5409948 C1.11392405,96.0739611 20.0653139,99.7486563 43.443038,99.7486563 L43.443038,99.7486563 Z" id="Layer-2"></path>
                <path d="M39.3219152,33.701134 C35.5485426,38.9221499 28.0234166,47.8963193 18.544226,51.7959647 C7.03874705,55.8695187 -0.0798499743,43.5395075 0.000676037403,26.1230327 C0.0812020491,8.70655782 7.03811052,-3.27537799 18.544226,0.798401417 C27.9593874,4.67170578 35.446634,13.3633986 39.244678,18.4801496 C36.6201208,19.9853468 34.8514545,22.8199526 34.8514545,26.068755 C34.8514545,29.3493259 36.6548797,32.20756 39.3219152,33.701134 L39.3219152,33.701134 Z" id="Layer-3"></path>
                <path d="M47.9207921,33.6331557 C51.7060173,38.8192149 59.2132786,47.6814377 68.6621066,51.5685922 C80.1675855,55.6421462 87.2861825,43.3739919 87.2056565,26.0381361 C87.1251305,8.70228033 80.168222,-3.27496344 68.6621066,0.798815971 C59.2721079,4.66176861 51.7997328,13.2777694 47.9921853,18.3746039 C50.636667,19.8744295 52.4216102,22.7201384 52.4216102,25.9838559 C52.4216102,29.2768585 50.6044909,32.1443173 47.9207921,33.6331557 L47.9207921,33.6331557 Z" id="Layer-4"></path>
                <ellipse id="Layer-5" cx="43.5643564" cy="26.2083781" rx="8.71287129" ry="8.73612603"></ellipse>
                <path d="M51.8415842,23.150734 C51.8415842,23.150734 55.5082628,21.1823662 57.4053991,20.6015597 C58.8527347,20.1584593 61.7992729,19.9510425 61.7992729,19.9510425" id="Layer-6"></path>
                <path d="M51.8415842,29.5607811 C51.8415842,29.5607811 55.5082628,31.5291489 57.4053991,32.1099554 C58.8527347,32.5530559 61.7992729,32.7604726 61.7992729,32.7604726" id="Layer-7"></path>
                <path d="M35.2871287,23.150734 C35.2871287,23.150734 31.6204501,21.1823662 29.7233137,20.6015597 C28.2759781,20.1584593 25.32944,19.9510425 25.32944,19.9510425" id="Layer-8"></path>
                <path d="M35.2871287,29.5607811 C35.2871287,29.5607811 31.6204501,31.5291489 29.7233137,32.1099554 C28.2759781,32.5530559 25.32944,32.7604726 25.32944,32.7604726" id="Layer-9"></path>
            </g>
        </g>
    </g>
</svg>