<?xml version="1.0" encoding="UTF-8"?>
<svg width="99px" height="104px" viewBox="0 0 99 104" version="1.1" xmlns="http://www.w3.org/2000/svg" xmlns:xlink="http://www.w3.org/1999/xlink">
    <!-- Generator: Sketch 46 (44423) - http://www.bohemiancoding.com/sketch -->
    <title>holidays-34</title>
    <desc>Created with Sketch.</desc>
    <defs></defs>
    <g id="ALL" stroke="none" stroke-width="1" fill="none" fill-rule="evenodd" stroke-linecap="round" stroke-linejoin="round">
        <g id="Secondary" transform="translate(-9343.000000, -7501.000000)" stroke="#868E96" stroke-width="3.5">
            <g id="holidays-34" transform="translate(9345.000000, 7503.000000)">
                <path d="M0.239257812,99.50488 C52.3974609,86.8203097 70.1717172,61.80564 70.1717172,19.2592593" id="Layer-1"></path>
                <path d="M69.2890624,34.2832031 C69.2890624,34.2832031 79.7676768,26.906269 79.7676768,17.3333333 C79.7676768,7.76039767 70.6515152,0 70.6515152,0 C70.6515152,0 61.5353535,7.76039767 61.5353535,17.3333333 C61.5353535,26.906269 69.2890624,34.2832031 69.2890624,34.2832031 Z" id="Layer-2"></path>
                <path d="M62.1940579,59.501955 C62.1940579,59.501955 72.7059535,65.2315472 81.6430588,61.8009139 C90.5801642,58.3702806 94.5581794,47.0785327 94.5581794,47.0785327 C94.5581794,47.0785327 84.0462839,41.3489405 75.1091785,44.7795738 C66.1720732,48.2102071 62.1940579,59.501955 62.1940579,59.501955 L62.1940579,59.501955 Z" id="Layer-3"></path>
                <path d="M62.4949495,59.7037037 C62.4949495,59.7037037 66.6653029,56.5016638 74.6895024,54.834111" id="Layer-4"></path>
                <path d="M36.5858586,86.7214446 C36.5858586,86.7214446 44.0515433,86.0974934 50.2261309,89.1984412" id="Layer-5"></path>
                <path d="M36.3381727,86.4381173 C36.3381727,86.4381173 41.8489817,97.0663419 51.1765636,99.2197839 C60.5041456,101.373226 70.1163349,94.2364205 70.1163349,94.2364205 C70.1163349,94.2364205 64.6055259,83.6081959 55.277944,81.4547539 C45.950362,79.301312 36.3381727,86.4381173 36.3381727,86.4381173 L36.3381727,86.4381173 Z" id="Layer-6"></path>
                <path d="M50.7235593,74.586101 C50.7235593,74.586101 40.5056391,68.3473286 39.008102,58.8922516 C37.5105649,49.4371747 45.3004978,40.3462385 45.3004978,40.3462385 C45.3004978,40.3462385 55.518418,46.585011 57.0159551,56.0400879 C58.5134922,65.4951648 50.7235593,74.586101 50.7235593,74.586101 L50.7235593,74.586101 Z" id="Layer-7"></path>
                <path d="M51.1109927,73.4095775 C51.1109927,73.4095775 51.695278,65.622649 49.2260052,59.3746745" id="Layer-8"></path>
            </g>
        </g>
    </g>
</svg>