<?xml version="1.0" encoding="UTF-8"?>
<svg width="101px" height="104px" viewBox="0 0 101 104" version="1.1" xmlns="http://www.w3.org/2000/svg" xmlns:xlink="http://www.w3.org/1999/xlink">
    <!-- Generator: Sketch 46 (44423) - http://www.bohemiancoding.com/sketch -->
    <title>holidays-6</title>
    <desc>Created with Sketch.</desc>
    <defs></defs>
    <g id="ALL" stroke="none" stroke-width="1" fill="none" fill-rule="evenodd" stroke-linecap="round" stroke-linejoin="round">
        <g id="Secondary" transform="translate(-1266.000000, -7501.000000)" stroke="#868E96" stroke-width="3.5">
            <g id="holidays-6" transform="translate(1268.000000, 7503.000000)">
                <path d="M41.0904018,73.2312299 C41.0927403,76.7539994 40.9007291,84.0644522 39.2666013,84.0644522 C37.1137688,84.0644522 34.2353515,80.515625 32.3061523,78.640625 C30.3769531,76.765625 24.3832787,75.7137308 24.4648438,72.7226563 C24.4049291,70.9583423 31.2489563,69.3968988 34.8864949,68.6922767 C35.9208189,69.7268223 37.052021,70.6774472 38.2795468,71.5331613 C39.1869697,72.1657302 40.1253437,72.7313167 41.0904018,73.2312299 L41.0904018,73.2312299 Z" id="Layer-1"></path>
                <path d="M38.2795468,71.5331613 C52.6580863,81.5565101 74.8078043,74.7620211 87.7523266,56.3572453 C100.696849,37.9524695 99.5343482,14.9069212 85.1558086,4.88357235 C70.7772691,-5.13977646 48.6275511,1.65471258 35.6830289,20.0594884 C22.7385066,38.4642642 23.9010073,61.5098125 38.2795468,71.5331613 L38.2795468,71.5331613 Z" id="Layer-2"></path>
                <path d="M67.8087107,8.18672342 C62.3898742,8.83336955 56.8305565,11.1457001 51.8371949,14.9070135 M46.4853302,19.7495122 C45.1989245,21.1370909 43.9814309,22.6380196 42.8497067,24.2471271" id="Layer-3"></path>
                <path d="M0,99.8994652 C0,99.8994652 5.70840701,91.0155861 17.6630859,89.6506602 C27.2828842,88.5523193 31.7456055,79.4018551 31.7456055,79.4018551" id="Layer-4"></path>
            </g>
        </g>
    </g>
</svg>