<?xml version="1.0" encoding="UTF-8"?>
<svg width="104px" height="84px" viewBox="0 0 104 84" version="1.1" xmlns="http://www.w3.org/2000/svg" xmlns:xlink="http://www.w3.org/1999/xlink">
    <!-- Generator: Sketch 46 (44423) - http://www.bohemiancoding.com/sketch -->
    <title>holidays-49</title>
    <desc>Created with Sketch.</desc>
    <defs></defs>
    <g id="ALL" stroke="none" stroke-width="1" fill="none" fill-rule="evenodd" stroke-linecap="round" stroke-linejoin="round">
        <g id="Secondary" transform="translate(-4512.000000, -7802.000000)" stroke="#868E96" stroke-width="3.5">
            <g id="holidays-49" transform="translate(4514.000000, 7804.000000)">
                <path d="M99.9999999,49.9962768 C99.9979878,22.3837504 77.6129964,0 50,0 C22.3857625,0 0,22.3857625 0,50 L0,80 L10,80 L10,50 C10,27.90861 27.90861,10 50,10 C72.09139,10 90,27.90861 90,50 L90,79.9962769 L100,79.9962769 L100,49.9962769 C100,49.9962769 100,49.9962768 99.9999999,49.9962768 L99.9999999,49.9962768 Z" id="Layer-1"></path>
                <path d="M90,49.9982909 C89.9990763,27.9076863 72.0908203,10 50,10 C27.9091797,10 10.0009236,27.9076864 10,49.998291 C10.0000001,49.998291 10,49.998291 10,49.998291 L10,79.998291 L20,79.998291 L20,50 C20,33.4314575 33.4314575,20 50,20 C66.5685425,20 80,33.4314575 80,50 L80,79.998291 L90,79.998291 L90,49.998291 C90,49.998291 89.9999822,49.9982784 89.9999466,49.9982532 L90,49.9982909 Z" id="Layer-2"></path>
                <path d="M79.9999998,49.996643 C79.9981857,33.4296433 66.5674235,20 50,20 C33.4325765,20 20.0018143,33.4296433 20.0000002,49.996643 C20.0000001,49.9966431 20,49.9966431 20,49.9966431 L20,79.9966431 L30,79.9966431 L30,50 C30,38.954305 38.954305,30 50,30 C61.045695,30 70,38.954305 70,50 L70,79.9966431 L80,79.9966431 L80,49.9966431 C80,49.9966431 79.9999999,49.9966431 79.9999998,49.996643 L79.9999998,49.996643 Z" id="Layer-3"></path>
                <path d="M69.9999996,49.9957275 C69.9976909,38.951996 61.0442708,30 50,30 C38.9557292,30 30.0023091,38.951996 30.0000004,49.9957275 C30.0000001,49.9957275 30,49.9957275 30,49.9957275 L30,79.9957275 L40,79.9957275 L40,50 C40,44.4771525 44.4771525,40 50,40 C55.5228475,40 60,44.4771525 60,50 L60,79.9957275 L70,79.9957275 L70,49.9957275 C70,49.9957275 69.9999999,49.9957275 69.9999996,49.9957275 L69.9999996,49.9957275 Z" id="Layer-4"></path>
            </g>
        </g>
    </g>
</svg>