<?xml version="1.0" encoding="UTF-8"?>
<svg width="104px" height="85px" viewBox="0 0 104 85" version="1.1" xmlns="http://www.w3.org/2000/svg" xmlns:xlink="http://www.w3.org/1999/xlink">
    <!-- Generator: Sketch 46 (44423) - http://www.bohemiancoding.com/sketch -->
    <title>holidays-23</title>
    <desc>Created with Sketch.</desc>
    <defs></defs>
    <g id="ALL" stroke="none" stroke-width="1" fill="none" fill-rule="evenodd" stroke-linecap="round" stroke-linejoin="round">
        <g id="Secondary" transform="translate(-6164.000000, -7501.000000)" stroke="#868E96" stroke-width="3.5">
            <g id="holidays-23" transform="translate(6166.000000, 7503.000000)">
                <path d="M58.0227823,53.3112521 C58.0076916,53.4138892 58,53.5206248 58,53.6315789 C58,72.5789472 79.0526316,81 79.0526316,81 C79.0526316,81 100.105263,72.5789472 100.105263,53.6315789 C100.105263,53.5203718 100.097583,53.4134361 100.082519,53.3106486 C100.097606,53.0686869 100.105263,52.8247113 100.105263,52.5789474 C100.105263,46.1840713 94.9211918,41 88.5263158,41 C84.6101942,41 81.1481419,42.944102 79.0526316,45.9198334 C76.9571212,42.944102 73.495069,41 69.5789474,41 C63.1840713,41 58,46.1840713 58,52.5789474 C58,52.8249156 58.0076695,53.0690925 58.0227823,53.3112521 L58.0227823,53.3112521 Z" id="Layer-1"></path>
                <path d="M3.75490391,43.9126535 L13.2979735,8.29743286 C14.7625846,2.83142968 20.3758295,-0.41371356 25.8381888,1.0499212 C31.2993473,2.51323422 34.5381055,8.13459893 33.074578,13.5965581" id="Layer-2"></path>
                <path d="M95.87863,43.5657328 L86.4285176,8.29743286 C84.9639064,2.83142968 79.3506615,-0.41371356 73.8883022,1.0499212 C68.4271437,2.51323422 65.1883855,8.13459893 66.6519131,13.5965581" id="Layer-3"></path>
                <path d="M41,60.4003586 L58,60.4003586" id="Layer-4"></path>
                <path d="M0.0227822844,53.3112521 C0.0076915769,53.4138892 9.54739384e-18,53.5206248 0,53.6315789 C5.02208554e-16,72.5789472 21.0526316,81 21.0526316,81 C21.0526316,81 42.1052632,72.5789472 42.1052632,53.6315789 C42.1052632,53.5203718 42.0975833,53.4134361 42.0825185,53.3106486 C42.0976064,53.0686869 42.1052632,52.8247113 42.1052632,52.5789474 C42.1052632,46.1840713 36.9211918,41 30.5263158,41 C26.6101942,41 23.1481419,42.944102 21.0526316,45.9198334 C18.9571212,42.944102 15.495069,41 11.5789474,41 C5.18407132,41 0,46.1840713 0,52.5789474 C0,52.8249156 0.00766945936,53.0690925 0.0227822844,53.3112521 L0.0227822844,53.3112521 Z" id="Layer-5"></path>
            </g>
        </g>
    </g>
</svg>