<?xml version="1.0" encoding="UTF-8"?>
<svg width="104px" height="104px" viewBox="0 0 104 104" version="1.1" xmlns="http://www.w3.org/2000/svg" xmlns:xlink="http://www.w3.org/1999/xlink">
    <!-- Generator: Sketch 46 (44423) - http://www.bohemiancoding.com/sketch -->
    <title>interface-44</title>
    <desc>Created with Sketch.</desc>
    <defs></defs>
    <g id="ALL" stroke="none" stroke-width="1" fill="none" fill-rule="evenodd" stroke-linecap="round" stroke-linejoin="round">
        <g id="Secondary" transform="translate(-3706.000000, -1362.000000)" stroke="#868E96" stroke-width="3.5">
            <g id="interface-44" transform="translate(3708.000000, 1364.000000)">
                <path d="M11.0767621,60.9704924 L4.05430598,60.1556843 C1.73755971,59.8841419 0,57.9290369 0,55.6118755 L0,44.8044895 C0,42.487328 1.73755971,40.532223 4.05430598,40.2606807 L10.7149515,39.5003621 C11.5475322,36.1694424 12.8145028,32.9652426 14.4796642,29.9601738 L10.3167608,24.692252 C8.86879433,22.8638668 9.01359097,20.2570601 10.6606528,18.6097031 L18.2986757,10.9703114 C19.9457375,9.3410572 22.552077,9.17813179 24.3801346,10.6263577 L29.3575192,14.5727734 C32.5430453,12.6719768 35.963866,11.2237509 39.5475829,10.2643012 L40.2715661,4.05503259 C40.5430598,1.73787111 42.4978145,0 44.8145608,0 L55.6200102,0 C57.9367564,0 59.8915111,1.73787111 60.1630048,4.05503259 L60.886988,10.2643012 C64.380026,11.2056481 67.7105298,12.5995655 70.8236576,14.4279508 L75.6200464,10.6263577 C77.448104,9.17813179 80.0544435,9.32295438 81.7015053,10.9703114 L89.3214286,18.5916003 C90.9503909,20.2389573 91.1132871,22.8457639 89.6653207,24.6741492 L85.7558113,29.6162201 C87.4207917,32.5850833 88.7237805,35.7530775 89.5927413,39.0658943 L95.945694,39.8081101 C98.2624403,40.0796524 100,42.0347574 100,44.3519189 L100,55.1593049 C100,57.4764663 98.2626213,59.4315713 95.945694,59.7031137 L89.5022434,60.4453295 C88.5972644,63.7943519 87.2397959,66.9983707 85.5022362,70.0036206 L89.6832392,75.307748 C91.1312057,77.1361332 90.986409,79.7429399 89.3393472,81.3902969 L81.7013243,89.0296886 C80.0542625,90.6589428 77.447923,90.8218682 75.6198654,89.3736423 L70.24429,85.1194786 C67.185461,86.8392469 63.9275365,88.1607531 60.5248154,89.0477915 L59.7284339,95.9449674 C59.4569402,98.2619479 57.5021855,100 55.1854392,100 L44.3799898,100 C42.0632436,100 40.1084889,98.2621289 39.8369952,95.9449674 L39.0044145,88.7943519 C35.8369879,87.8892107 32.7962585,86.6040912 29.9365248,84.9565532 L24.3799536,89.3555395 C22.551896,90.8037654 19.9455565,90.6591238 18.2984947,89.0117668 L10.6604718,81.3723751 C9.03150956,79.7250181 8.86861334,77.1182114 10.3165798,75.2898262 L14.7509769,69.6960536 C13.194413,66.9444243 11.9636416,64.0117668 11.0767621,60.9704924 Z M50,63.1578947 C57.2669046,63.1578947 63.1578947,57.2669046 63.1578947,50 C63.1578947,42.7330954 57.2669046,36.8421053 50,36.8421053 C42.7330954,36.8421053 36.8421053,42.7330954 36.8421053,50 C36.8421053,57.2669046 42.7330954,63.1578947 50,63.1578947 Z" id="Layer-1"></path>
            </g>
        </g>
    </g>
</svg>