<?xml version="1.0" encoding="UTF-8"?>
<svg width="104px" height="104px" viewBox="0 0 104 104" version="1.1" xmlns="http://www.w3.org/2000/svg" xmlns:xlink="http://www.w3.org/1999/xlink">
    <!-- Generator: Sketch 46 (44423) - http://www.bohemiancoding.com/sketch -->
    <title>interface-56</title>
    <desc>Created with Sketch.</desc>
    <defs></defs>
    <g id="ALL" stroke="none" stroke-width="1" fill="none" fill-rule="evenodd" stroke-linecap="round" stroke-linejoin="round">
        <g id="Secondary" transform="translate(-7214.000000, -1362.000000)" stroke="#868E96" stroke-width="3.5">
            <g id="interface-56" transform="translate(7216.000000, 1364.000000)">
                <path d="M72.9978136,48.4226579 L33.1581561,88.2623155 C28.7988016,92.6216699 21.354112,94.4898659 14.7535173,93.3009748 L10.1443366,97.9101555 C7.92731483,100.127177 4.33031153,100.124677 2.12026971,97.9146347 C-0.0942782745,95.7000868 -0.095303306,92.1106201 2.12474897,89.8905678 L6.7339296,85.2813872 C5.54503857,78.6807925 7.41323453,71.2361028 11.772589,66.8767484 L51.6122465,27.0370908" id="Layers-1"></path>
                <path d="M87.5968131,32.4870605 C87.809619,33.2349853 87.949255,33.9615678 87.9961514,34.6244826 L88.1008729,36.1047953 C88.2918699,38.8046727 86.934491,42.5055682 85.0653152,44.3747441 L80.351143,49.0889162 C78.4836538,50.9564055 75.3888058,50.8893558 73.4374215,48.9379716 L62.2671772,37.7677272 L51.0969329,26.5974829 C49.1455487,24.6460987 49.078499,21.5512507 50.9459882,19.6837615 L55.6601604,14.9695893 C57.5293362,13.1004134 61.2302318,11.7430345 63.9301091,11.9340315 L65.4104219,12.038753 C66.0733366,12.0856495 66.7999191,12.2252855 67.547844,12.4380913 L75.6331567,4.35277862 C81.1695266,-1.18359134 90.1457559,-1.18359134 95.6821258,4.35277862 C101.218496,9.88914858 101.218496,18.8653778 95.6821258,24.4017478 L87.5968131,32.4870605 L87.5968131,32.4870605 Z" id="Layers-2"></path>
                <path d="M67.613569,12.3723663 L71.9703451,16.7291424" id="Layers-3"></path>
                <path d="M87.3343504,32.0931476 L77.9666543,22.7254516" id="Layers-4"></path>
                <path d="M48.6122183,42.8004407 L28.5521139,62.8605451" id="Layers-5"></path>
                <path d="M19.1831978,72.2294612 L23.8851563,67.5275026" id="Layers-6"></path>
            </g>
        </g>
    </g>
</svg>