<?xml version="1.0" encoding="UTF-8"?>
<svg width="104px" height="94px" viewBox="0 0 104 94" version="1.1" xmlns="http://www.w3.org/2000/svg" xmlns:xlink="http://www.w3.org/1999/xlink">
    <!-- Generator: Sketch 46 (44423) - http://www.bohemiancoding.com/sketch -->
    <title>interface-23</title>
    <desc>Created with Sketch.</desc>
    <defs></defs>
    <g id="ALL" stroke="none" stroke-width="1" fill="none" fill-rule="evenodd" stroke-linecap="round" stroke-linejoin="round">
        <g id="Secondary" transform="translate(-6920.000000, -1062.000000)" stroke="#868E96" stroke-width="3.5">
            <g id="interface-23" transform="translate(6921.000000, 1064.000000)">
                <path d="M55.2624047,2.71208708 L100.322705,82.5422395 L100.322705,82.5422395 C101.680089,84.9470203 100.831005,87.9968572 98.4262246,89.3542408 C97.6762546,89.777563 96.8296589,90 95.968464,90 L5.84786367,90 L5.84786367,90 C3.08643992,90 0.847863669,87.7614237 0.847863669,85 C0.847863669,84.1388051 1.0703007,83.2922094 1.49362285,82.5422395 L46.553923,2.71208708 L46.553923,2.71208708 C47.9113067,0.30730628 50.9611436,-0.541776863 53.3659244,0.815606802 C54.158999,1.26325944 54.814752,1.91901251 55.2624047,2.71208708 Z" id="Layer-1"></path>
                <path d="M51,25 L51,65" id="Layer-2"></path>
                <circle id="Layer-3" cx="51" cy="75" r="3"></circle>
            </g>
        </g>
    </g>
</svg>