<?xml version="1.0" encoding="UTF-8"?>
<svg width="98px" height="104px" viewBox="0 0 98 104" version="1.1" xmlns="http://www.w3.org/2000/svg" xmlns:xlink="http://www.w3.org/1999/xlink">
    <!-- Generator: Sketch 46 (44423) - http://www.bohemiancoding.com/sketch -->
    <title>interface-31</title>
    <desc>Created with Sketch.</desc>
    <defs></defs>
    <g id="ALL" stroke="none" stroke-width="1" fill="none" fill-rule="evenodd" stroke-linecap="round" stroke-linejoin="round">
        <g id="Secondary" transform="translate(-9300.000000, -1062.000000)" stroke="#868E96" stroke-width="3.5">
            <g id="interface-31" transform="translate(9302.000000, 1064.000000)">
                <path d="M27.4044488,32.2889534 C26.5388811,32.8219463 24.9082729,36.1673762 25.6459761,39.1026173 C26.7430807,43.467878 30.6454531,45.1715849 30.6454531,45.1715849 C30.6454531,45.1715849 36.7505045,53.2324614 36.7505045,57.9203044 C36.7505045,62.6081474 36.7505045,64.4293919 35.114444,68.3402621 C33.4783836,72.2511323 1.36339423,76.939215 0,99.9949654 L46.7433981,99.9949654 L94,100 C92.6366058,76.9442495 60.5216164,72.2561668 58.885556,68.3452967 C57.2494955,64.4344265 57.2494955,62.613182 57.2494955,57.925339 C57.2494955,53.237496 63.3545469,45.1766194 63.3545469,45.1766194 C63.3545469,45.1766194 67.2569193,43.4729125 68.3540239,39.1076519 C69.0917271,36.1724107 67.4611189,32.8269808 66.5955512,32.2939879 C68.9092261,25.2343182 73.5301321,0.896278888 47.2566019,0.0190894664 C47.1398126,0.00250570444 47.0236263,0.00546600847 46.9080334,0.00887763476 C20.4698679,0.891244324 25.0907739,25.2292837 27.4044488,32.2889534 Z" id="Layer-1"></path>
            </g>
        </g>
    </g>
</svg>