<?xml version="1.0" encoding="UTF-8"?>
<svg width="75px" height="104px" viewBox="0 0 75 104" version="1.1" xmlns="http://www.w3.org/2000/svg" xmlns:xlink="http://www.w3.org/1999/xlink">
    <!-- Generator: Sketch 46 (44423) - http://www.bohemiancoding.com/sketch -->
    <title>interface-50</title>
    <desc>Created with Sketch.</desc>
    <defs></defs>
    <g id="ALL" stroke="none" stroke-width="1" fill="none" fill-rule="evenodd" stroke-linecap="round" stroke-linejoin="round">
        <g id="Secondary" transform="translate(-5443.000000, -1362.000000)" stroke="#868E96" stroke-width="3.5">
            <g id="interface-50" transform="translate(5445.000000, 1364.000000)">
                <rect id="Layers-1" x="41" y="0" width="30" height="100"></rect>
                <path d="M71,20 L62,20" id="Layers-2"></path>
                <path d="M71,40 L62,40" id="Layers-3"></path>
                <path d="M71,60 L62,60" id="Layers-4"></path>
                <path d="M71,80 L62,80" id="Layers-5"></path>
                <path d="M71,10.0000001 L65,9.99999994" id="Layers-6"></path>
                <path d="M70.2803301,30.0000001 L64.2803301,29.9999999" id="Layers-7"></path>
                <path d="M71,50.0000001 L65,49.9999999" id="Layers-8"></path>
                <path d="M71,70.0000001 L65,69.9999999" id="Layers-9"></path>
                <path d="M71,90.0000001 L65,89.9999999" id="Layers-10"></path>
                <rect id="Layers-11" x="0" y="14" width="22" height="6"></rect>
                <path d="M6.9911656,0 L15.0088344,0 C18.8699485,0 22,3.14187327 22,7 L22,14 L0,14 L0,7 C0,3.13400675 3.12869969,0 6.9911656,0 Z" id="Layers-12"></path>
                <polygon id="Layers-13" points="4.29250525 88 10.9969736 100 17.7051322 88"></polygon>
                <polygon id="Layers-14" points="10.9969736 100 0 80.3170548 22 80.3170548"></polygon>
                <rect id="Layers-15" x="0" y="20" width="22" height="60"></rect>
            </g>
        </g>
    </g>
</svg>