<?xml version="1.0" encoding="UTF-8"?>
<svg width="104px" height="104px" viewBox="0 0 104 104" version="1.1" xmlns="http://www.w3.org/2000/svg" xmlns:xlink="http://www.w3.org/1999/xlink">
    <!-- Generator: Sketch 46 (44423) - http://www.bohemiancoding.com/sketch -->
    <title>interface-10</title>
    <desc>Created with Sketch.</desc>
    <defs></defs>
    <g id="ALL" stroke="none" stroke-width="1" fill="none" fill-rule="evenodd" stroke-linecap="round" stroke-linejoin="round">
        <g id="Secondary" transform="translate(-3019.000000, -1062.000000)" stroke="#868E96" stroke-width="3.5">
            <g id="interface-10" transform="translate(3021.000000, 1064.000000)">
                <path d="M20.8041518,79.6130326 C37.0437758,95.8526566 63.3734086,95.8526566 79.6130326,79.6130326 C95.8526566,63.3734086 95.8526566,37.0437758 79.6130326,20.8041518 C63.3734086,4.56452778 37.0437758,4.56452778 20.8041518,20.8041518 C4.56452778,37.0437758 4.56452778,63.3734086 20.8041518,79.6130326 L20.8041518,79.6130326 Z" id="Layer-1"></path>
                <path d="M85.2138784,15.203306 L79.6130326,20.8041518 M91.3608224,22.6907681 L84.7941881,27.1200188 M95.9582891,31.2958553 L88.6142586,34.2630362 M98.7656532,40.5676112 L90.9903884,42.0789696 M99.7135427,50.2085922 L91.7927506,50.2085922 M98.7656532,59.8495732 L90.9903884,58.3382148 M95.9318377,69.1851886 L88.6407101,66.0902886 M91.3608224,77.7264163 L84.7941881,73.2971656 M85.2138784,85.2138784 L79.6130326,79.6130326 M77.7264163,91.3608224 L73.2971656,84.7941881 M69.1213291,95.9582891 L66.1541482,88.6142586 M59.8495732,98.7656532 L58.3382148,90.9903884 M50.2085922,99.7135427 L50.2085922,91.7927506 M40.5676112,98.7656532 L42.0789696,90.9903884 M31.2319958,95.9318377 L34.3268958,88.6407101 M22.6907681,91.3608224 L27.1200188,84.7941881 M15.203306,85.2138784 L20.8041518,79.6130326 M9.05636204,77.7264163 L15.6229963,73.2971656 M4.45889525,69.1213291 L11.8029258,66.1541482 M1.65153117,59.8495732 L9.42679599,58.3382148 M0.703641702,50.2085922 L8.62443378,50.2085922 M1.65153117,40.5676112 L9.42679599,42.0789696 M4.45889525,31.2958553 L11.8029258,34.2630362 M9.05636204,22.6907681 L15.6229963,27.1200188 M15.203306,15.203306 L20.8041518,20.8041518 M22.6907681,9.05636204 L27.1200188,15.6229963 M31.2958553,4.45889525 L34.2630362,11.8029258 M40.5676112,1.65153117 L42.0789696,9.42679599 M50.2085922,0.703641702 L50.2085922,8.62443378 M59.8495732,1.65153117 L58.3382148,9.42679599 M69.1851886,4.48534674 L66.0902886,11.7764743 M77.7264163,9.05636204 L73.2971656,15.6229963" id="Layer-2"></path>
                <path d="M43.207535,57.2096494 C47.0741121,61.0762266 53.3430723,61.0762266 57.2096494,57.2096494 C61.0762266,53.3430723 61.0762266,47.0741121 57.2096494,43.207535 C53.3430723,39.3409578 47.0741121,39.3409578 43.207535,43.207535 C39.3409578,47.0741121 39.3409578,53.3430723 43.207535,57.2096494 L43.207535,57.2096494 Z" id="Layer-3"></path>
                <path d="M79.6130326,20.8041518 L57.2096494,43.207535 M87.2603486,69.0874051 L59.030439,54.7035476 M43.7033966,91.2807806 L48.6597361,59.9876847 M9.13640378,56.7137878 L40.4294997,51.7574483 M31.3297793,13.1568357 L45.7136368,41.3867454" id="Layer-4"></path>
            </g>
        </g>
    </g>
</svg>