<?xml version="1.0" encoding="UTF-8"?>
<svg width="98px" height="103px" viewBox="0 0 98 103" version="1.1" xmlns="http://www.w3.org/2000/svg" xmlns:xlink="http://www.w3.org/1999/xlink">
    <!-- Generator: Sketch 47 (45396) - http://www.bohemiancoding.com/sketch -->
    <title>interface-8</title>
    <desc>Created with Sketch.</desc>
    <defs></defs>
    <g id="ALL" stroke="none" stroke-width="1" fill="none" fill-rule="evenodd" stroke-linecap="round" fill-opacity="0" stroke-linejoin="round">
        <g id="Primary" transform="translate(-2431.000000, -1063.000000)" stroke="#343A40" stroke-width="3.5" fill="#DBECFF">
            <g id="interface-8" transform="translate(2433.000000, 1064.000000)">
                <path d="M68.6061691,46.1597367 C70.4533954,40.1066593 70.6821247,33.4789731 68.9234745,26.9156012 C63.9205111,8.24428758 44.7287176,-2.83609955 26.057404,2.16686386 C7.38609037,7.16982726 -3.69429676,26.3616207 1.30866664,45.0329344 C5.76309674,61.6570938 21.4655508,72.2636378 38.0338915,70.8584367" id="Layers-1"></path>
                <path d="M59.5150225,41.6219173 C60.4180706,37.7490647 60.4077496,33.6040831 59.3065643,29.4944034 C55.733019,16.1577508 42.0245951,8.24318853 28.6879425,11.8167338 C15.3512899,15.3902791 7.43672767,29.098703 11.010273,42.4353556 C14.0391449,53.7392597 24.3488623,61.1479617 35.5419419,60.9678729" id="Layers-2"></path>
                <path d="M50.1713025,37.2648817 C50.3201295,35.5671744 50.1799783,33.8150441 49.7133275,32.0734798 C47.5692004,24.0714883 39.344146,19.3227509 31.3421545,21.4668781 C23.3401629,23.6110053 18.5914256,31.8360596 20.7355527,39.8380512 C22.3725341,45.9473488 27.5540253,50.160358 33.4746245,50.8573793" id="Layers-3"></path>
                <polygon id="Layers-4" points="72.9533882 75.8716262 94.1415761 68.3961768 37.1949919 37.3154009 53.7968447 99.6876936 66.2292663 81.086879 81.114069 100 87.8381909 94.7847472"></polygon>
            </g>
        </g>
    </g>
</svg>