<?xml version="1.0" encoding="UTF-8"?>
<svg width="104px" height="86px" viewBox="0 0 104 86" version="1.1" xmlns="http://www.w3.org/2000/svg" xmlns:xlink="http://www.w3.org/1999/xlink">
    <!-- Generator: Sketch 46 (44423) - http://www.bohemiancoding.com/sketch -->
    <title>interface-38</title>
    <desc>Created with Sketch.</desc>
    <defs></defs>
    <g id="ALL" stroke="none" stroke-width="1" fill="none" fill-rule="evenodd" stroke-linecap="round" stroke-linejoin="round">
        <g id="Secondary" transform="translate(-1906.000000, -1363.000000)" stroke="#868E96" stroke-width="3.5">
            <g id="interface-38" transform="translate(1958.000000, 1405.500000) scale(-1, -1) translate(-1958.000000, -1405.500000) translate(1908.000000, 1364.000000)">
                <path d="M66.8140014,81.7240825 C65.8023074,81.9627995 66.2254202,81.730986 66.2254202,81.730986 C64.1221053,81.0763773 63.6736122,79.2663307 65.1901793,77.6575242 C65.1901793,77.6575242 82.369557,60.9831442 84.7624862,45.2421812 C84.8643177,44.5723224 85.1008701,43.9787738 85.2594559,43.3126504 C80.3281428,45.7584775 74.4453145,46.3243788 69.1180418,44.837243 C57.09986,41.4671442 50.0594559,28.9282306 53.4190519,16.8853664 C56.1422842,7.12736643 65.0988499,0.310230626 75.19986,0.310230626 C77.2574357,0.310230626 79.3119812,0.594699762 81.3069307,1.15452692 C89.2321832,3.374601 95.1907691,9.96902075 98.0857186,19.718922 C100.69885,28.5151936 100.633193,39.1600084 97.909961,48.9250948 C91.6079408,67.9288479 79.5281428,78.7240825 66.8140014,81.7240825 L66.8140014,81.7240825 Z M14.4059208,82.0322769 C13.3942338,82.2709923 13.8173418,82.0391799 13.8173418,82.0391799 C11.7140257,81.3845715 11.2655315,79.5745252 12.7820987,77.9657187 C12.7820987,77.9657187 29.9614763,61.2913387 32.3544056,45.5503757 C32.4562371,44.8805169 32.6927895,44.2869683 32.8513753,43.6208448 C27.9200622,46.066672 22.0372339,46.6325732 16.7099612,45.1454374 C4.69177936,41.7753387 -2.34862468,29.2364251 1.01097128,17.1935609 C3.73420361,7.43556089 12.6907693,0.618425091 22.7917794,0.618425091 C24.8493551,0.618425091 26.9039006,0.902894227 28.8988501,1.46272139 C36.8241026,3.68279546 42.7826885,10.2772152 45.6776379,20.0271164 C48.2907693,28.8233881 48.2251127,39.4682029 45.5018804,49.2332893 C39.1998602,68.2370424 27.1200622,79.0322769 14.4059208,82.0322769 L14.4059208,82.0322769 Z" id="Layer-1"></path>
            </g>
        </g>
    </g>
</svg>