<?xml version="1.0" encoding="UTF-8"?>
<svg width="54px" height="104px" viewBox="0 0 54 104" version="1.1" xmlns="http://www.w3.org/2000/svg" xmlns:xlink="http://www.w3.org/1999/xlink">
    <!-- Generator: Sketch 46 (44423) - http://www.bohemiancoding.com/sketch -->
    <title>interface-49</title>
    <desc>Created with Sketch.</desc>
    <defs></defs>
    <g id="ALL" stroke="none" stroke-width="1" fill="none" fill-rule="evenodd" stroke-linecap="round" stroke-linejoin="round">
        <g id="Secondary" transform="translate(-5193.000000, -1362.000000)" stroke="#868E96" stroke-width="3.5">
            <g id="interface-49" transform="translate(5195.000000, 1364.000000)">
                <path d="M0,0 L50,0 L50,100 L0,100 L0,0 Z M25,20 C27.7614237,20 30,17.7614237 30,15 C30,12.2385763 27.7614237,10 25,10 C22.2385763,10 20,12.2385763 20,15 C20,17.7614237 22.2385763,20 25,20 Z" id="Layers-1"></path>
                <path d="M49.1213204,50.1213204 L43.1213204,50.1213202" id="Layers-2"></path>
                <path d="M48.6819806,40.1819805 L39.6819806,40.1819803" id="Layers-3"></path>
                <path d="M49.1213204,30.1213204 L43.1213204,30.1213202" id="Layers-4"></path>
                <path d="M48.6819806,20.1819805 L39.6819806,20.1819803" id="Layers-5"></path>
                <path d="M49.1213204,10.1213204 L43.1213204,10.1213202" id="Layers-6"></path>
                <path d="M48.6819806,60.1819805 L39.6819806,60.1819803" id="Layers-7"></path>
                <path d="M49.1213204,70.1213204 L43.1213204,70.1213202" id="Layers-8"></path>
                <path d="M48.6819806,80.1819805 L39.6819806,80.1819803" id="Layers-9"></path>
                <path d="M49.1213204,90.1213204 L43.1213204,90.1213202" id="Layers-10"></path>
            </g>
        </g>
    </g>
</svg>