<?xml version="1.0" encoding="UTF-8"?>
<svg width="104px" height="80px" viewBox="0 0 104 80" version="1.1" xmlns="http://www.w3.org/2000/svg" xmlns:xlink="http://www.w3.org/1999/xlink">
    <!-- Generator: Sketch 46 (44423) - http://www.bohemiancoding.com/sketch -->
    <title>interface-52</title>
    <desc>Created with Sketch.</desc>
    <defs></defs>
    <g id="ALL" stroke="none" stroke-width="1" fill="none" fill-rule="evenodd" stroke-linecap="round" stroke-linejoin="round">
        <g id="Secondary" transform="translate(-6014.000000, -1362.000000)" stroke="#868E96" stroke-width="3.5">
            <g id="interface-52" transform="translate(6016.000000, 1364.000000)">
                <path d="M32.8651686,37.8506245 C29.4452171,35.0601603 26.94566,32.9416538 26.0197878,32.0637769 C22.2463117,28.4859099 20.3239405,28.1902859 18.1522746,28.5899054 C13.7974984,29.4648335 10.3434111,29.0387421 6.829382,26.842933 C0.0268787631,22.5922572 -2.04178611,13.6318852 2.20888967,6.829382 C6.45956546,0.0268787631 15.4199375,-2.04178611 22.2224407,2.20888967 C28.9659788,6.42271996 31.0573901,15.2649516 26.9550267,22.0430533 L41.3663165,31.0482267 C38.2216335,33.5204242 35.3085073,35.8570146 32.8651686,37.8506245 L32.8651686,37.8506245 Z M41.3663165,44.6530223 C52.6735451,53.5422177 66.9745283,64.1846518 73.1944774,66.9400176 C85.8843376,72.5614796 99.4080954,67.3167554 99.4080954,67.3167554 L52.2524286,37.8506245 L41.3663165,44.6530223 L41.3663165,44.6530223 Z M19.0532816,7.28060448 C23.054754,9.781002 24.2716157,15.0518091 21.7712182,19.0532816 C19.2708207,23.054754 14.0000136,24.2716157 9.99854114,21.7712182 C5.99706865,19.2708207 4.78020696,14.0000136 7.28060448,9.99854114 C9.781002,5.99706865 15.0518091,4.78020696 19.0532816,7.28060448 L19.0532816,7.28060448 L19.0532816,7.28060448 L19.0532816,7.28060448 Z" id="Layers-1"></path>
                <path d="M26.0197878,43.4762259 C29.9855872,39.7160053 62.8234087,13.1942492 73.1944774,8.59998518 C85.8843376,2.9785232 99.4080954,8.22324741 99.4080954,8.22324741 L26.9550267,53.4969495 C31.0573901,60.2750512 28.9659788,69.1172828 22.2224407,73.3311131 C15.4199375,77.5817889 6.45956546,75.513124 2.20888967,68.7106208 C-2.04178611,61.9081176 0.0268787631,52.9477456 6.829382,48.6970698 C10.3434111,46.5012607 13.7974984,46.0751693 18.1522746,46.9500974 C20.3239405,47.3497169 22.2463117,47.0540929 26.0197878,43.4762259 L26.0197878,43.4762259 L26.0197878,43.4762259 L26.0197878,43.4762259 Z M19.0532816,68.2593983 C23.054754,65.7590008 24.2716157,60.4881937 21.7712182,56.4867212 C19.2708207,52.4852488 14.0000136,51.2683871 9.99854114,53.7687846 C5.99706865,56.2691821 4.78020696,61.5399892 7.28060448,65.5414617 C9.781002,69.5429341 15.0518091,70.7597958 19.0532816,68.2593983 L19.0532816,68.2593983 L19.0532816,68.2593983 L19.0532816,68.2593983 Z" id="Layers-2"></path>
            </g>
        </g>
    </g>
</svg>