<?xml version="1.0" encoding="UTF-8"?>
<svg width="104px" height="102px" viewBox="0 0 104 102" version="1.1" xmlns="http://www.w3.org/2000/svg" xmlns:xlink="http://www.w3.org/1999/xlink">
    <!-- Generator: Sketch 46 (44423) - http://www.bohemiancoding.com/sketch -->
    <title>interface-68</title>
    <desc>Created with Sketch.</desc>
    <defs></defs>
    <g id="ALL" stroke="none" stroke-width="1" fill="none" fill-rule="evenodd" stroke-linecap="round" stroke-linejoin="round">
        <g id="Secondary" transform="translate(-1306.000000, -1663.000000)" stroke="#868E96" stroke-width="3.5">
            <g id="interface-68" transform="translate(1308.000000, 1664.000000)">
                <path d="M92.6052151,64.5283364 C86.41222,58.3978969 77.2292671,57.0311131 69.7030477,60.4279852 L39.0244041,30.0592269 C42.4559381,22.6090299 41.0752076,13.5188341 34.8822125,7.38839452 C28.4206393,0.992089732 18.7041474,-0.21841885 11.0105795,3.75686878 L23.337612,15.9593858 L14.6791616,24.5303771 L2.35212911,12.3278601 C-1.66372268,19.9437152 -0.440861967,29.5620607 6.02071124,35.9583655 C12.2137063,42.088805 21.3966592,43.4555888 28.9228786,40.0587167 L59.6015222,70.427475 C56.1699882,77.8776721 57.5507187,86.9678679 63.7437138,93.0983074 C70.205287,99.4946122 79.9217789,100.705121 87.6153468,96.7298331 L75.2883143,84.5273161 L83.9467647,75.9563248 L96.2737972,88.1588419 C100.289649,80.5429867 99.0667883,70.9246412 92.6052151,64.5283364 Z" id="Layer-1"></path>
                <path d="M3.92347584,76.9782172 L16.2181052,64.807776 L22.7513254,64.4348789 L23.1495747,57.9463214 L27.5854255,53.5552772 C28.7781374,52.3746129 30.7138674,52.376555 31.9113922,53.5619836 L45.8386779,67.3485897 C47.0351315,68.5329579 47.0318679,70.4564287 45.8454528,71.6308598 L41.4096021,76.021904 L34.778677,76.5290294 L34.4781325,82.8833587 L22.1835032,95.0537998 C17.1301073,100.056151 8.96136776,100.049664 3.91900044,95.05823 C-1.12336688,90.0667957 -1.12992007,81.9805687 3.92347584,76.9782172 L3.92347584,76.9782172 Z" id="Layer-2"></path>
                <path d="M9.24484176,84.5141402 L19.8965244,73.9700503" id="Layer-3"></path>
                <path d="M14.5706831,89.7861851 L25.2223657,79.2420952" id="Layer-4"></path>
                <path d="M39.6782207,60.4133633 L85.3282891,15.2244067" id="Layer-5"></path>
                <path d="M85.7087063,14.8478321 C83.3976213,12.5600913 83.3961376,8.85239945 85.7043906,6.56746216 L91.4149649,0.914570437 L99.7841441,9.19921248 L94.0735698,14.8521042 C91.7648683,17.1374855 88.0150888,17.1309177 85.7087063,14.8478321 L85.7087063,14.8478321 L85.7087063,14.8478321 Z" id="Layer-6"></path>
            </g>
        </g>
    </g>
</svg>