<?xml version="1.0" encoding="UTF-8"?>
<svg width="104px" height="104px" viewBox="0 0 104 104" version="1.1" xmlns="http://www.w3.org/2000/svg" xmlns:xlink="http://www.w3.org/1999/xlink">
    <!-- Generator: Sketch 46 (44423) - http://www.bohemiancoding.com/sketch -->
    <title>interface-55</title>
    <desc>Created with Sketch.</desc>
    <defs></defs>
    <g id="ALL" stroke="none" stroke-width="1" fill="none" fill-rule="evenodd" stroke-linecap="round" stroke-linejoin="round">
        <g id="Secondary" transform="translate(-6914.000000, -1362.000000)" stroke="#868E96" stroke-width="3.5">
            <g id="interface-55" transform="translate(6916.000000, 1364.000000)">
                <path d="M65.9778526,62.7781909 L69.8249787,58.9310648 C75.3707039,53.3853396 65.4708045,47.1907392 71.7121255,40.1831881 L96.0579749,20.1630276 C100.737582,15.9257917 100.351425,8.10869829 95.8272906,3.58456364 C91.3031559,-0.939571 83.4595553,-1.35223515 79.2223194,3.32737214 L59.3196503,27.7907129 C52.3120992,34.0320339 46.0265146,24.0411504 40.4807894,29.5868756 L36.6336634,33.4340016 L65.9778526,62.7781909 L65.9778526,62.7781909 Z" id="Layers-1"></path>
                <path d="M84.3837929,15.005106 C86.0044278,16.6257409 88.631996,16.6257409 90.2526308,15.005106 C91.8732656,13.3844712 91.8732656,10.756903 90.2526308,9.13626819 C88.631996,7.51563337 86.0044278,7.51563337 84.3837929,9.13626819 C82.7631581,10.756903 82.7631581,13.3844712 84.3837929,15.005106 L84.3837929,15.005106 Z" id="Layers-2"></path>
                <polygon id="Layers-3" points="34.0328425 30.6930693 69.2458695 65.9060964 58.9754033 76.1765626 23.7623762 40.9635355"></polygon>
                <polygon id="Layers-4" points="26.4097703 43.5643564 55.7539595 72.9085457 29.3441892 99.318316 0 69.9741267"></polygon>
                <path d="M7.92079208,76.94298 L21.4974355,63.3663366" id="Layers-5"></path>
                <path d="M15.8415842,84.2958241 L26.8700815,73.2673267" id="Layers-6"></path>
                <path d="M22.7722772,91.7536312 L39.2783837,75.2475248" id="Layers-7"></path>
                <path d="M32.6732673,39.6039604 L60.3960396,67.3267327" id="Layers-8"></path>
            </g>
        </g>
    </g>
</svg>