<?xml version="1.0" encoding="UTF-8"?>
<svg width="104px" height="104px" viewBox="0 0 104 104" version="1.1" xmlns="http://www.w3.org/2000/svg" xmlns:xlink="http://www.w3.org/1999/xlink">
    <!-- Generator: Sketch 46 (44423) - http://www.bohemiancoding.com/sketch -->
    <title>layouts-23</title>
    <desc>Created with Sketch.</desc>
    <defs></defs>
    <g id="ALL" stroke="none" stroke-width="1" fill="none" fill-rule="evenodd" stroke-linecap="round" stroke-linejoin="round">
        <g id="Secondary" transform="translate(-1607.000000, -9925.000000)" stroke="#868E96" stroke-width="3.5">
            <g id="layouts-23" transform="translate(1609.000000, 9927.000000)">
                <path d="M0,1.99729162 C0,0.894217919 0.889064278,0 1.99091407,0 L50,0 L50,40 L0,40 L0,1.99729162 Z" id="Layer-1"></path>
                <path d="M50,0 L98.0090859,0 C99.1086374,0 100,0.891539827 100,1.99729162 L100,40 L50,40 L50,0 Z" id="Layer-2"></path>
                <path d="M0,40 L100,40 L100,98.0036926 C100,99.1062227 99.1049485,100 98.0024621,100 L1.99753791,100 C0.894328186,100 0,99.1052696 0,98.0036926 L0,40 Z" id="Layer-3"></path>
            </g>
        </g>
    </g>
</svg>