<?xml version="1.0" encoding="UTF-8"?>
<svg width="104px" height="104px" viewBox="0 0 104 104" version="1.1" xmlns="http://www.w3.org/2000/svg" xmlns:xlink="http://www.w3.org/1999/xlink">
    <!-- Generator: Sketch 46 (44423) - http://www.bohemiancoding.com/sketch -->
    <title>layouts-18</title>
    <desc>Created with Sketch.</desc>
    <defs></defs>
    <g id="ALL" stroke="none" stroke-width="1" fill="none" fill-rule="evenodd" stroke-linecap="round" stroke-linejoin="round">
        <g id="Secondary" transform="translate(-9637.000000, -9624.000000)" stroke="#868E96" stroke-width="3.5">
            <g id="layouts-18" transform="translate(9689.000000, 9676.000000) scale(-1, 1) translate(-9689.000000, -9676.000000) translate(9639.000000, 9626.000000)">
                <path d="M0,1.99091407 C0,0.891362589 0.889064278,0 1.99091407,0 L50,0 L50,50 L0,50 L0,1.99091407 Z" id="Layer-1"></path>
                <path d="M0,50 L50,50 L50,100 L1.99091407,100 C0.891362589,100 0,99.1109357 0,98.0090859 L0,50 Z" id="Layer-2"></path>
                <path d="M50,0 L98.0090859,0 C99.1086374,0 100,0.895051472 100,1.99753791 L100,98.0024621 C100,99.1056718 99.1109357,100 98.0090859,100 L50,100 L50,0 Z" id="Layer-3"></path>
            </g>
        </g>
    </g>
</svg>