<?xml version="1.0" encoding="UTF-8"?>
<svg width="104px" height="104px" viewBox="0 0 104 104" version="1.1" xmlns="http://www.w3.org/2000/svg" xmlns:xlink="http://www.w3.org/1999/xlink">
    <!-- Generator: Sketch 46 (44423) - http://www.bohemiancoding.com/sketch -->
    <title>layouts-25</title>
    <desc>Created with Sketch.</desc>
    <defs></defs>
    <g id="ALL" stroke="none" stroke-width="1" fill="none" fill-rule="evenodd" stroke-linecap="round" stroke-linejoin="round">
        <g id="Secondary" transform="translate(-2207.000000, -9925.000000)" stroke="#868E96" stroke-width="3.5">
            <g id="layouts-25" transform="translate(2209.000000, 9927.000000)">
                <path d="M0,1.99753791 C0,0.894328186 0.89784041,0 1.99161703,0 L30,0 L30,100 L1.99161703,100 C0.891677316,100 0,99.1049485 0,98.0024621 L0,1.99753791 Z" id="Layer-1"></path>
                <path d="M30,0 L97.9992008,0 C99.1042117,0 100,0.89784041 100,1.99161703 L100,30 L30,30 L30,0 Z" id="Layer-2"></path>
                <path d="M30,30 L97.9992008,30 C99.1042117,30 100,30.8978162 100,32.0007992 L100,100 L30,100 L30,30 Z" id="Layer-3" transform="translate(65.000000, 65.000000) scale(1, -1) translate(-65.000000, -65.000000) "></path>
            </g>
        </g>
    </g>
</svg>