<?xml version="1.0" encoding="UTF-8"?>
<svg width="300px" height="300px" viewBox="0 0 300 300" version="1.1" xmlns="http://www.w3.org/2000/svg" xmlns:xlink="http://www.w3.org/1999/xlink">
    <!-- Generator: Sketch 49.1 (51147) - http://www.bohemiancoding.com/sketch -->
    <title>Group</title>
    <desc>Created with Sketch.</desc>
    <defs>
        <linearGradient x1="50%" y1="0%" x2="50%" y2="100%" id="linearGradient-1">
            <stop stop-color="#FAD961" offset="0%"></stop>
            <stop stop-color="#F76B1C" offset="100%"></stop>
        </linearGradient>
    </defs>
    <g id="Page-1" stroke="none" stroke-width="1" fill="none" fill-rule="evenodd">
        <g id="Group">
            <path d="M75,0 L225,0 C266.421356,0 300,33.5786438 300,75 L300,225 C300,266.421356 266.421356,300 225,300 L75,300 C33.5786438,300 0,266.421356 0,225 L0,75 C0,33.5786438 33.5786438,0 75,0 Z" id="Path" fill="url(#linearGradient-1)"></path>
            <path d="M199.418142,125.16181 C214.936598,134.056504 226.976496,141.829267 232.240141,147.092911 C255.752899,170.60567 255.752899,208.727384 232.240141,232.240143 C209.23767,255.242614 172.253468,255.741827 148.644117,233.737784 C148.621819,233.754103 148.610498,233.762359 148.610498,233.762359 L148.491255,233.594825 C148.01968,233.152287 147.553491,232.700726 147.092909,232.240143 C142.746607,227.893841 136.689552,218.927389 129.702713,207.197351 L67.3353301,119.572598 C67.3353301,119.572598 77.1933202,120.74856 91.1315839,122.623859 L49.9999973,50 L124.878802,94.6419565 C122.836899,81.6645467 121.538374,72.6486276 121.538374,72.6486276 L199.418142,125.16181 Z M189.478123,227.888494 C210.691584,227.888494 227.888491,210.691586 227.888491,189.478125 C227.888491,168.264664 210.691584,151.067757 189.478123,151.067757 C168.264662,151.067757 151.067754,168.264664 151.067754,189.478125 C151.067754,210.691586 168.264662,227.888494 189.478123,227.888494 Z" id="Combined-Shape" fill="#FFFFFF"></path>
        </g>
    </g>
</svg>