<?xml version="1.0" encoding="UTF-8"?>
<svg width="131px" height="29px" viewBox="0 0 131 29" version="1.1" xmlns="http://www.w3.org/2000/svg" xmlns:xlink="http://www.w3.org/1999/xlink">
    <!-- Generator: Sketch 45.2 (43514) - http://www.bohemiancoding.com/sketch -->
    <title>Group 10</title>
    <desc>Created with Sketch.</desc>
    <defs></defs>
    <g id="Page-1" stroke="none" stroke-width="1" fill="none" fill-rule="evenodd">
        <g id="Group-10" fill="#000000">
            <path d="M38.9536771,20.1971314 L44.3950875,27.6876084 L41.1507319,27.6876084 L36.1305185,20.4931077 L35.652403,20.4931077 L35.652403,27.6876084 L33,27.6876084 L33,10.1111698 L36.1077511,10.1111698 C38.4300383,10.1111698 40.1072205,10.5475408 41.1393482,11.4202958 C42.2777242,12.39171 42.8469037,13.6742611 42.8469037,15.2679876 C42.8469037,16.5126121 42.4902179,17.5826696 41.7768356,18.4781921 C41.0634533,19.3737146 40.1224098,19.9466886 38.9536771,20.1971314 Z M35.652403,18.1822158 L36.4947971,18.1822158 C39.0068136,18.1822158 40.262803,17.2221997 40.262803,15.3021387 C40.262803,13.5035046 39.0409643,12.604201 36.5972504,12.604201 L35.652403,12.604201 L35.652403,18.1822158 Z" id="Combined-Shape"></path>
            <path d="M63.2406749,20.1971314 C62.4615197,20.3640932 61.5204669,20.4627519 60.4175164,20.4931077 L59.9394008,20.4931077 L59.9394008,27.6876084 L57.2869978,27.6876084 L57.2869978,10.1111698 L60.3947489,10.1111698 C62.7170361,10.1111698 64.3942184,10.5475408 65.426346,11.4202958 C66.5647221,12.39171 67.1339016,13.6742611 67.1339016,15.2679876 C67.1339016,16.5126121 66.7772157,17.5826696 66.0638334,18.4781921 C65.3504511,19.3737146 64.4094076,19.9466886 63.2406749,20.1971314 Z M59.9394008,18.1822158 L60.7817949,18.1822158 C63.2938114,18.1822158 64.5498008,17.2221997 64.5498008,15.3021387 C64.5498008,13.5035046 63.3279622,12.604201 60.8842482,12.604201 L59.9394008,12.604201 L59.9394008,18.1822158 Z" id="Combined-Shape-Copy"></path>
            <polygon id="Path" points="55.1669315 12.6355633 48.1204189 12.6355633 48.1204189 16.8589174 54.9620249 16.8589174 54.9620249 19.3519485 48.1204189 19.3519485 48.1204189 25.2259396 55.1669315 25.2259396 55.1669315 27.7189707 45.4680159 27.7189707 45.4680159 10.1425322 55.1669315 10.1425322"></polygon>
            <polygon id="Path" points="71.2504406 10.1425322 71.2504406 25.2259396 74.4086914 25.2259396 73.1060791 27.7189707 68.5980376 27.7189707 68.5980376 10.1425322"></polygon>
            <path d="M86.8921154,23.4500818 L79.3674872,23.4500818 L77.4094902,27.7189707 L74.5521805,27.7189707 L83.2493302,9.03831289 L91.6391199,27.7189707 L88.7362754,27.7189707 L86.8921154,23.4500818 Z M85.8106635,20.9570507 L83.2037954,14.9806062 L80.4717065,20.9570507 L85.8106635,20.9570507 Z" id="Combined-Shape"></path>
            <path d="M106.285703,12.882564 C106.168959,12.7529232 106.047795,12.6250683 105.922212,12.4989992 C104.145566,10.7079273 102.015129,9.81240474 99.5308361,9.81240474 C97.0164308,9.81240474 94.8634094,10.7003381 93.0717073,12.4762315 C91.2724772,14.2521248 90.3728756,16.3770935 90.3728756,18.8512014 C90.3728756,21.6668272 91.3590497,23.9435794 93.3314276,25.6815263 C95.1231296,27.2525089 97.1444102,28.0379884 99.3953299,28.0379884 C101.939848,28.0379884 104.111689,27.1538496 105.91092,25.3855455 C106.044596,25.254181 106.173286,25.1206832 106.296989,24.9850522 L104.388192,23.2827503 C104.283721,23.4054534 104.173991,23.5258075 104.059002,23.6438127 C102.801799,24.918813 101.258549,25.5563037 99.4292065,25.5563037 C97.7428987,25.5563037 96.2561094,24.9301968 94.9687941,23.6779643 C93.6739506,22.4257318 93.0265386,20.8282107 93.0265386,18.885353 C93.0265386,17.0335668 93.6513665,15.4777861 94.901041,14.2179643 C96.1507155,12.942964 97.6826731,12.3054733 99.4969596,12.3054733 C101.318774,12.3054733 102.846968,12.942964 104.081586,14.2179643 C104.192501,14.3311355 104.298464,14.4467269 104.399475,14.5647387 L106.285703,12.882564 Z" id="Combined-Shape"></path>
            <polygon id="Path" points="117.502775 12.6355633 110.456262 12.6355633 110.456262 16.8589174 117.297868 16.8589174 117.297868 19.3519485 110.456262 19.3519485 110.456262 25.2259396 117.502775 25.2259396 117.502775 27.7189707 107.803859 27.7189707 107.803859 10.1425322 117.502775 10.1425322"></polygon>
            <path d="M125.459785,20.2284937 L130.901195,27.7189707 L127.65684,27.7189707 L122.636626,20.52447 L122.158511,20.52447 L122.158511,27.7189707 L119.506108,27.7189707 L119.506108,10.1425322 L122.613859,10.1425322 C124.936146,10.1425322 126.613328,10.5789031 127.645456,11.4516581 C128.783832,12.4230723 129.353012,13.7056235 129.353012,15.29935 C129.353012,16.5439745 128.996326,17.6140319 128.282943,18.5095544 C127.569561,19.4050769 126.628518,19.9780509 125.459785,20.2284937 Z M122.158511,18.2135781 L123.000905,18.2135781 C125.512921,18.2135781 126.768911,17.253562 126.768911,15.3335011 C126.768911,13.5348669 125.547072,12.6355633 123.103358,12.6355633 L122.158511,12.6355633 L122.158511,18.2135781 Z" id="Combined-Shape"></path>
            <path d="M7.12110354,10.6078368 L7.12110354,10.6078368 L18.1125348,3.19647631 C18.1125348,3.19647631 17.9292697,4.46892302 17.6410891,6.30046812 L28.2089844,0 L22.4039465,10.2496473 C24.3711001,9.98498012 25.7623911,9.81901261 25.7623911,9.81901261 L16.9602745,22.1857861 C15.9741986,23.8412855 15.1193462,25.1067508 14.5059382,25.7201588 C14.4409346,25.7851625 14.3751398,25.8488927 14.3085849,25.9113497 L14.2917557,25.9349943 C14.2917557,25.9349943 14.290158,25.9338291 14.2870109,25.9315259 C10.9549446,29.0370299 5.73524087,28.9665742 2.48882552,25.7201588 C-0.829608507,22.4017248 -0.829608507,17.0214802 2.48882552,13.7030462 C3.23170125,12.9601705 4.93093221,11.8631746 7.12110354,10.6078368 Z M8.52397165,25.1059961 C11.5178981,25.1059961 13.944955,22.6789391 13.944955,19.6850127 C13.944955,16.6910863 11.5178981,14.2640294 8.52397165,14.2640294 C5.5300452,14.2640294 3.10298828,16.6910863 3.10298828,19.6850127 C3.10298828,22.6789391 5.5300452,25.1059961 8.52397165,25.1059961 Z" id="Combined-Shape" fill-rule="nonzero" transform="translate(14.104492, 14.104492) scale(-1, 1) translate(-14.104492, -14.104492) "></path>
        </g>
    </g>
</svg>