<?xml version="1.0" encoding="UTF-8"?>
<svg width="104px" height="89px" viewBox="0 0 104 89" version="1.1" xmlns="http://www.w3.org/2000/svg" xmlns:xlink="http://www.w3.org/1999/xlink">
    <!-- Generator: Sketch 46 (44423) - http://www.bohemiancoding.com/sketch -->
    <title>multimedia-17</title>
    <desc>Created with Sketch.</desc>
    <defs></defs>
    <g id="ALL" stroke="none" stroke-width="1" fill="none" fill-rule="evenodd" stroke-linecap="round" stroke-linejoin="round">
        <g id="Secondary" transform="translate(-3997.000000, -3214.000000)" stroke="#868E96" stroke-width="3.5">
            <g id="multimedia-17" transform="translate(3999.000000, 3216.000000)">
                <rect id="Layer-1" x="92" y="0" width="8" height="74" rx="4"></rect>
                <path d="M52,22.2792969 C52,22.2792969 76.1601562,22.2792969 92,2.04785156 L92,72 C75.9351563,51.9902344 52,51.9902344 52,51.9902344 L52,22.2792969 Z" id="Layer-2"></path>
                <rect id="Layer-3" x="12" y="19" width="40" height="36" rx="3"></rect>
                <path d="M10,49 L5,49 C2.23857625,49 0,46.76369 0,43.9980273 L0,30.0019727 C0,27.2394595 2.24419519,25 5,25 L10,25" id="Layer-4"></path>
                <path d="M20.5,28 L43.5,28" id="Layer-5"></path>
                <path d="M30,55 L18,55 L18,81.0007252 C18,83.2132053 19.7889923,85 21.9958262,85 L32.4243989,84.9999999 C34.3526936,85 36.5622035,82.3296774 34.5478516,80 C34.5478516,80 30,74.6191406 30,72.8208008 C30,69.8348349 30,55 30,55 Z" id="Layer-6"></path>
            </g>
        </g>
    </g>
</svg>