<?xml version="1.0" encoding="UTF-8"?>
<svg width="104px" height="94px" viewBox="0 0 104 94" version="1.1" xmlns="http://www.w3.org/2000/svg" xmlns:xlink="http://www.w3.org/1999/xlink">
    <!-- Generator: Sketch 46 (44423) - http://www.bohemiancoding.com/sketch -->
    <title>multimedia-30</title>
    <desc>Created with Sketch.</desc>
    <defs></defs>
    <g id="ALL" stroke="none" stroke-width="1" fill="none" fill-rule="evenodd" stroke-linecap="round" stroke-linejoin="round">
        <g id="Secondary" transform="translate(-7889.000000, -3214.000000)" stroke="#868E96" stroke-width="3.5">
            <g id="multimedia-30" transform="translate(7891.000000, 3216.000000)">
                <rect id="Layer-1" x="15" y="0" width="85" height="90"></rect>
                <polygon id="Layer-2" points="15 90 0 90 0 0 15 0"></polygon>
                <path d="M32.7487373,70.246212 C46.4170876,83.9145622 68.5778618,83.9145622 82.246212,70.246212 C95.9145622,56.5778618 95.9145622,34.4170876 82.246212,20.7487373 C68.5778618,7.08038713 46.4170876,7.08038713 32.7487373,20.7487373 C19.0803871,34.4170876 19.0803871,56.5778618 32.7487373,70.246212 L32.7487373,70.246212 Z" id="Layer-3"></path>
                <path d="M50.4136377,49.2194908 L26.5056877,61.781295 C28.1069385,64.8265593 30.1879551,67.6854297 32.7487373,70.246212 C35.3095196,72.8069943 38.1683901,74.8880109 41.2136544,76.4892617 L53.7754586,52.5813117 C53.0793982,52.2153115 52.4259421,51.7396506 51.8406204,51.1543289 C51.2552988,50.5690073 50.7796378,49.9155512 50.4136377,49.2194908 L50.4136377,49.2194908 Z" id="Layer-4"></path>
                <path d="M88.4892617,29.2136544 L64.5813117,41.7754586 C64.2153115,41.0793982 63.7396506,40.4259421 63.1543289,39.8406204 C62.5690073,39.2552988 61.9155512,38.7796378 61.2194908,38.4136377 L73.781295,14.5056877 C76.8265593,16.1069385 79.6854297,18.1879551 82.246212,20.7487373 C84.8069943,23.3095196 86.8880109,26.1683901 88.4892617,29.2136544 L88.4892617,29.2136544 Z" id="Layer-5"></path>
                <path d="M51.8406204,51.1543289 C54.9648148,54.2785233 60.0301346,54.2785233 63.1543289,51.1543289 C66.2785233,48.0301346 66.2785233,42.9648148 63.1543289,39.8406204 C60.0301346,36.7164261 54.9648148,36.7164261 51.8406204,39.8406204 C48.7164261,42.9648148 48.7164261,48.0301346 51.8406204,51.1543289 L51.8406204,51.1543289 Z" id="Layer-6"></path>
            </g>
        </g>
    </g>
</svg>