<?xml version="1.0" encoding="UTF-8"?>
<svg width="104px" height="104px" viewBox="0 0 104 104" version="1.1" xmlns="http://www.w3.org/2000/svg" xmlns:xlink="http://www.w3.org/1999/xlink">
    <!-- Generator: Sketch 46 (44423) - http://www.bohemiancoding.com/sketch -->
    <title>multimedia-13</title>
    <desc>Created with Sketch.</desc>
    <defs></defs>
    <g id="ALL" stroke="none" stroke-width="1" fill="none" fill-rule="evenodd" stroke-linecap="round" stroke-linejoin="round">
        <g id="Secondary" transform="translate(-2797.000000, -3214.000000)" stroke="#868E96" stroke-width="3.5">
            <g id="multimedia-13" transform="translate(2799.000000, 3216.000000)">
                <path d="M61.1869006,43.8995907 L61.1869006,37.0056458 C61.1869006,34.2383594 58.9442295,32 56.1777546,32 L25.009146,32 C22.2436359,32 20,34.2411039 20,37.0056458 L20,62.9943542 C20,65.7616406 22.2426711,68 25.009146,68 L56.1777546,68 C58.9432647,68 61.1869006,65.7588961 61.1869006,62.9943542 L61.1869006,56.1673489 L75.5696324,63.6643146 C78.017072,64.9400369 80,63.7355833 80,60.9748086 L80,39.092131 C80,36.3350688 78.0164569,35.1272233 75.5696324,36.4026249 L61.1869006,43.8995907 L61.1869006,43.8995907 Z M0,5.99306484 C0,2.68318653 2.68768095,0 5.99306484,0 L94.0069352,0 C97.3168135,0 100,2.68768095 100,5.99306484 L100,94.0069352 C100,97.3168135 97.312319,100 94.0069352,100 L5.99306484,100 C2.68318653,100 0,97.312319 0,94.0069352 L0,5.99306484 L0,5.99306484 Z" id="Layer-1"></path>
            </g>
        </g>
    </g>
</svg>