<?xml version="1.0" encoding="UTF-8"?>
<svg width="104px" height="104px" viewBox="0 0 104 104" version="1.1" xmlns="http://www.w3.org/2000/svg" xmlns:xlink="http://www.w3.org/1999/xlink">
    <!-- Generator: Sketch 46 (44423) - http://www.bohemiancoding.com/sketch -->
    <title>multimedia-28</title>
    <desc>Created with Sketch.</desc>
    <defs></defs>
    <g id="ALL" stroke="none" stroke-width="1" fill="none" fill-rule="evenodd" stroke-linecap="round" stroke-linejoin="round">
        <g id="Secondary" transform="translate(-7289.000000, -3214.000000)" stroke="#868E96" stroke-width="3.5">
            <g id="multimedia-28" transform="translate(7291.000000, 3216.000000)">
                <path d="M0,93.0543648 C0,92.4980834 0.455262884,92.0471281 0.995457033,92.0471281 L24.004543,92.0471281 C24.5543187,92.0471281 25,92.4974956 25,93.0543648 L25,98.9927633 C25,99.5490448 24.5447371,100 24.004543,100 L0.995457033,100 C0.445681294,100 0,99.5496325 0,98.9927633 L0,93.0543648 L0,93.0543648 Z M0,74.6449392 C0,74.0886577 0.455262884,73.6377025 0.995457033,73.6377025 L24.004543,73.6377025 C24.5543187,73.6377025 25,74.08807 25,74.6449392 L25,80.5833377 C25,81.1396191 24.5447371,81.5905744 24.004543,81.5905744 L0.995457033,81.5905744 C0.445681294,81.5905744 0,81.1402069 0,80.5833377 L0,74.6449392 L0,74.6449392 Z M0,56.2355136 C0,55.6792321 0.455262884,55.2282769 0.995457033,55.2282769 L24.004543,55.2282769 C24.5543187,55.2282769 25,55.6786443 25,56.2355136 L25,62.173912 C25,62.7301935 24.5447371,63.1811487 24.004543,63.1811487 L0.995457033,63.1811487 C0.445681294,63.1811487 0,62.7307813 0,62.173912 L0,56.2355136 L0,56.2355136 Z M75,93.0543648 C75,92.4980834 75.4552629,92.0471281 75.995457,92.0471281 L99.004543,92.0471281 C99.5543187,92.0471281 100,92.4974956 100,93.0543648 L100,98.9927633 C100,99.5490448 99.5447371,100 99.004543,100 L75.995457,100 C75.4456813,100 75,99.5496325 75,98.9927633 L75,93.0543648 L75,93.0543648 Z M75,37.826088 C75,37.2698065 75.4552629,36.8188513 75.995457,36.8188513 L99.004543,36.8188513 C99.5543187,36.8188513 100,37.2692187 100,37.826088 L100,43.7644864 C100,44.3207679 99.5447371,44.7717231 99.004543,44.7717231 L75.995457,44.7717231 C75.4456813,44.7717231 75,44.3213557 75,43.7644864 L75,37.826088 L75,37.826088 Z M75,74.6449392 C75,74.0886577 75.4552629,73.6377025 75.995457,73.6377025 L99.004543,73.6377025 C99.5543187,73.6377025 100,74.08807 100,74.6449392 L100,80.5833377 C100,81.1396191 99.5447371,81.5905744 99.004543,81.5905744 L75.995457,81.5905744 C75.4456813,81.5905744 75,81.1402069 75,80.5833377 L75,74.6449392 L75,74.6449392 Z M75,56.2355136 C75,55.6792321 75.4552629,55.2282769 75.995457,55.2282769 L99.004543,55.2282769 C99.5543187,55.2282769 100,55.6786443 100,56.2355136 L100,62.173912 C100,62.7301935 99.5447371,63.1811487 99.004543,63.1811487 L75.995457,63.1811487 C75.4456813,63.1811487 75,62.7307813 75,62.173912 L75,56.2355136 L75,56.2355136 Z M37.5,93.0543648 C37.5,92.4980834 37.9552629,92.0471281 38.495457,92.0471281 L61.504543,92.0471281 C62.0543187,92.0471281 62.5,92.4974956 62.5,93.0543648 L62.5,98.9927633 C62.5,99.5490448 62.0447371,100 61.504543,100 L38.495457,100 C37.9456813,100 37.5,99.5496325 37.5,98.9927633 L37.5,93.0543648 L37.5,93.0543648 Z M37.5,37.826088 C37.5,37.2698065 37.9552629,36.8188513 38.495457,36.8188513 L61.504543,36.8188513 C62.0543187,36.8188513 62.5,37.2692187 62.5,37.826088 L62.5,43.7644864 C62.5,44.3207679 62.0447371,44.7717231 61.504543,44.7717231 L38.495457,44.7717231 C37.9456813,44.7717231 37.5,44.3213557 37.5,43.7644864 L37.5,37.826088 L37.5,37.826088 Z M37.5,74.6449392 C37.5,74.0886577 37.9552629,73.6377025 38.495457,73.6377025 L61.504543,73.6377025 C62.0543187,73.6377025 62.5,74.08807 62.5,74.6449392 L62.5,80.5833377 C62.5,81.1396191 62.0447371,81.5905744 61.504543,81.5905744 L38.495457,81.5905744 C37.9456813,81.5905744 37.5,81.1402069 37.5,80.5833377 L37.5,74.6449392 L37.5,74.6449392 Z M37.5,19.4166623 C37.5,18.8603809 37.9552629,18.4094256 38.495457,18.4094256 L61.504543,18.4094256 C62.0543187,18.4094256 62.5,18.8597931 62.5,19.4166623 L62.5,25.3550608 C62.5,25.9113423 62.0447371,26.3622975 61.504543,26.3622975 L38.495457,26.3622975 C37.9456813,26.3622975 37.5,25.91193 37.5,25.3550608 L37.5,19.4166623 L37.5,19.4166623 Z M37.5,56.2355136 C37.5,55.6792321 37.9552629,55.2282769 38.495457,55.2282769 L61.504543,55.2282769 C62.0543187,55.2282769 62.5,55.6786443 62.5,56.2355136 L62.5,62.173912 C62.5,62.7301935 62.0447371,63.1811487 61.504543,63.1811487 L38.495457,63.1811487 C37.9456813,63.1811487 37.5,62.7307813 37.5,62.173912 L37.5,56.2355136 L37.5,56.2355136 Z M37.5,1.00723672 C37.5,0.450955239 37.9552629,0 38.495457,0 L61.504543,0 C62.0543187,0 62.5,0.450367464 62.5,1.00723672 L62.5,6.94563515 C62.5,7.50191663 62.0447371,7.95287187 61.504543,7.95287187 L38.495457,7.95287187 C37.9456813,7.95287187 37.5,7.50250441 37.5,6.94563515 L37.5,1.00723672 L37.5,1.00723672 Z" id="Layer-1"></path>
            </g>
        </g>
    </g>
</svg>