<?xml version="1.0" encoding="UTF-8"?>
<svg width="104px" height="104px" viewBox="0 0 104 104" version="1.1" xmlns="http://www.w3.org/2000/svg" xmlns:xlink="http://www.w3.org/1999/xlink">
    <!-- Generator: Sketch 46 (44423) - http://www.bohemiancoding.com/sketch -->
    <title>multimedia-15</title>
    <desc>Created with Sketch.</desc>
    <defs></defs>
    <g id="ALL" stroke="none" stroke-width="1" fill="none" fill-rule="evenodd" stroke-linecap="round" stroke-linejoin="round">
        <g id="Secondary" transform="translate(-3397.000000, -3214.000000)" stroke="#868E96" stroke-width="3.5">
            <g id="multimedia-15" transform="translate(3399.000000, 3216.000000)">
                <rect id="Layer-1" x="0" y="0" width="100" height="100"></rect>
                <polygon id="Layer-2" points="46 0 29 0 33 0 33 60 25 60 25 100 50 100 50 60 42 60 42 0"></polygon>
                <polygon id="Layer-3" points="71 0 54 0 58 0 58 60 50 60 50 100 75 100 75 60 67 60 67 0"></polygon>
                <rect id="Layer-4" x="17" y="0" width="16" height="60"></rect>
                <rect id="Layer-5" x="42" y="0" width="16" height="60"></rect>
                <rect id="Layer-6" x="67" y="0" width="16" height="60"></rect>
            </g>
        </g>
    </g>
</svg>