<?xml version="1.0" encoding="UTF-8"?>
<svg width="104px" height="94px" viewBox="0 0 104 94" version="1.1" xmlns="http://www.w3.org/2000/svg" xmlns:xlink="http://www.w3.org/1999/xlink">
    <!-- Generator: Sketch 46 (44423) - http://www.bohemiancoding.com/sketch -->
    <title>multimedia-20</title>
    <desc>Created with Sketch.</desc>
    <defs></defs>
    <g id="ALL" stroke="none" stroke-width="1" fill="none" fill-rule="evenodd" stroke-linecap="round" stroke-linejoin="round">
        <g id="Secondary" transform="translate(-4897.000000, -3214.000000)" stroke="#868E96" stroke-width="3.5">
            <g id="multimedia-20" transform="translate(4899.000000, 3216.000000)">
                <polygon id="Layer-1" points="80 20 4.26325641e-14 20 4.26325641e-14 90 80 90"></polygon>
                <path d="M30,40.8258214 C30,39.1727116 31.1516665,38.5236013 32.5684311,39.37366 L55.2630336,52.9904215 C56.6815389,53.8415247 56.6797982,55.2224801 55.2630336,56.0725388 L32.5684311,69.6893004 C31.1499258,70.5404035 30,69.8797629 30,68.237139 L30,40.8258214 Z" id="Layer-2"></path>
                <polygon id="Layer-3" points="90 15 90 10 10 10 10 20 80 20 80 80 90 80"></polygon>
                <polygon id="Layer-4" points="100 5 100 0 20 0 20 10 90 10 90 70 100 70"></polygon>
            </g>
        </g>
    </g>
</svg>