<?xml version="1.0" encoding="UTF-8"?>
<svg width="102px" height="102px" viewBox="0 0 102 102" version="1.1" xmlns="http://www.w3.org/2000/svg" xmlns:xlink="http://www.w3.org/1999/xlink">
    <!-- Generator: Sketch 46 (44423) - http://www.bohemiancoding.com/sketch -->
    <title>multimedia-18</title>
    <desc>Created with Sketch.</desc>
    <defs></defs>
    <g id="ALL" stroke="none" stroke-width="1" fill="none" fill-rule="evenodd">
        <g id="Secondary" transform="translate(-4298.000000, -3215.000000)">
            <g id="multimedia-18" transform="translate(4299.000000, 3216.000000)">
                <circle id="Layer-1" cx="50.3689414" cy="50.3689414" r="49.3689414"></circle>
                <path d="M15.1912263,15.4851989 C6.40665729,24.3441196 0.980392157,36.5383737 0.980392157,50 C0.980392157,77.0727819 22.9272181,99.0196078 50,99.0196078 C77.0727819,99.0196078 99.0196078,77.0727819 99.0196078,50 C99.0196078,22.9272181 77.0727819,0.980392157 50,0.980392157 L50,19.1128683" id="Layer-2" stroke="#868E96" stroke-width="3.5" stroke-linecap="round" stroke-linejoin="round"></path>
                <path d="M25.1696706,26.9996039 C24.2529515,25.6245254 24.6233842,25.2521908 25.9996039,26.1696706 L55.1242337,45.5860904 C59.382766,48.425112 59.9013702,53.6602119 56.2807911,57.2807911 L56.2807911,57.2807911 C52.6610078,60.9005743 47.4230057,60.3796065 44.5860904,56.1242337 L25.1696706,26.9996039 L25.1696706,26.9996039 Z" id="Layer-3" stroke="#868E96" stroke-width="3.5" stroke-linecap="round" stroke-linejoin="round"></path>
            </g>
        </g>
    </g>
</svg>