<?xml version="1.0" encoding="UTF-8"?>
<svg width="104px" height="104px" viewBox="0 0 104 104" version="1.1" xmlns="http://www.w3.org/2000/svg" xmlns:xlink="http://www.w3.org/1999/xlink">
    <!-- Generator: Sketch 46 (44423) - http://www.bohemiancoding.com/sketch -->
    <title>multimedia-9</title>
    <desc>Created with Sketch.</desc>
    <defs></defs>
    <g id="ALL" stroke="none" stroke-width="1" fill="none" fill-rule="evenodd" stroke-linecap="round" stroke-linejoin="round">
        <g id="Secondary" transform="translate(-1606.000000, -3214.000000)" stroke="#868E96" stroke-width="3.5">
            <g id="multimedia-9" transform="translate(1608.000000, 3216.000000)">
                <rect id="Layer-1" x="10" y="0" width="80" height="50"></rect>
                <path d="M0,100 L0,90.2004616 L0,90.2004616 C0,87.8806107 2.68278989,86 6.00379678,86 L12.1780214,86 C15.4938268,86 18.1818182,87.8735754 18.1818182,90.2004616 L18.1818182,100" id="Layer-2"></path>
                <path d="M27.2727273,100 L27.2727273,90.2004616 L27.2727273,90.2004616 C27.2727273,87.8806107 29.9555172,86 33.2765241,86 L39.4507487,86 C42.7665541,86 45.4545455,87.8735754 45.4545455,90.2004616 L45.4545455,100" id="Layer-3"></path>
                <path d="M54.5454545,100 L54.5454545,90.2004616 L54.5454545,90.2004616 C54.5454545,87.8806107 57.2282444,86 60.5492513,86 L66.7234759,86 C70.0392813,86 72.7272727,87.8735754 72.7272727,90.2004616 L72.7272727,100" id="Layer-4"></path>
                <path d="M14,77 L14,67.2004616 L14,67.2004616 C14,64.8806107 16.6827899,63 20.0037968,63 L26.1780214,63 C29.4938268,63 32.1818182,64.8735754 32.1818182,67.2004616 L32.1818182,77" id="Layer-5"></path>
                <path d="M41,77 L41,67.2004616 L41,67.2004616 C41,64.8806107 43.6827899,63 47.0037968,63 L53.1780214,63 C56.4938268,63 59.1818182,64.8735754 59.1818182,67.2004616 L59.1818182,77" id="Layer-6"></path>
                <path d="M68,77 L68,67.2004616 L68,67.2004616 C68,64.8806107 70.6827899,63 74.0037968,63 L80.1780214,63 C83.4938268,63 86.1818182,64.8735754 86.1818182,67.2004616 L86.1818182,77" id="Layer-7"></path>
                <path d="M81.8181818,100 L81.8181818,90.2004616 L81.8181818,90.2004616 C81.8181818,87.8806107 84.5009717,86 87.8219786,86 L93.9962032,86 C97.3120086,86 100,87.8735754 100,90.2004616 L100,100" id="Layer-8"></path>
            </g>
        </g>
    </g>
</svg>