<?xml version="1.0" encoding="UTF-8"?>
<svg width="104px" height="68px" viewBox="0 0 104 68" version="1.1" xmlns="http://www.w3.org/2000/svg" xmlns:xlink="http://www.w3.org/1999/xlink">
    <!-- Generator: Sketch 46 (44423) - http://www.bohemiancoding.com/sketch -->
    <title>multimedia-7</title>
    <desc>Created with Sketch.</desc>
    <defs></defs>
    <g id="ALL" stroke="none" stroke-width="1" fill="none" fill-rule="evenodd" stroke-linecap="round" stroke-linejoin="round">
        <g id="Secondary" transform="translate(-1006.000000, -3214.000000)" stroke="#868E96" stroke-width="3.5">
            <g id="multimedia-7" transform="translate(1008.000000, 3216.000000)">
                <path d="M10,64 L90,64 C90,58.4771525 94.4771525,54 100,54 L100,10 C94.4771525,10 90,5.5228475 90,-2.84217094e-14 L10,-1.90112814e-10 C10,5.5228475 5.5228475,10 0,10 L0,54 C5.5228475,54 10,58.4771525 10,64 L10,64 Z" id="Layer-1"></path>
                <rect id="Layer-2" x="15" y="16" width="70" height="32" rx="6"></rect>
                <path d="M23,32 L59,32" id="Layer-3"></path>
                <path d="M23,24 L47,24" id="Layer-4"></path>
                <path d="M23,40 L51,40" id="Layer-5"></path>
            </g>
        </g>
    </g>
</svg>