<?xml version="1.0" encoding="UTF-8"?>
<svg width="104px" height="80px" viewBox="0 0 104 80" version="1.1" xmlns="http://www.w3.org/2000/svg" xmlns:xlink="http://www.w3.org/1999/xlink">
    <!-- Generator: Sketch 46 (44423) - http://www.bohemiancoding.com/sketch -->
    <title>multimedia-3</title>
    <desc>Created with Sketch.</desc>
    <defs></defs>
    <g id="ALL" stroke="none" stroke-width="1" fill="none" fill-rule="evenodd" stroke-linecap="round" stroke-linejoin="round">
        <g id="Secondary" transform="translate(-9309.000000, -2912.000000)" stroke="#868E96" stroke-width="3.5">
            <g id="multimedia-3" transform="translate(9311.000000, 2914.000000)">
                <path d="M15,53 L2.99942248,53 C1.34288718,53 0,51.6526814 0,49.9999809 L0,26.0000191 L0,26.0000191 C0,24.3431543 1.34435073,23 2.99942248,23 L15,23" id="Layer-1"></path>
                <path d="M41.1547359,0.941677165 C43.2784166,-0.827905208 45,-0.0318034532 45,2.72842698 L45,73.0157762 C45,75.7721532 43.2793189,76.5728602 41.1547359,74.802526 L15,53.0087794 L15,22.7354238 L41.1547359,0.941677165 Z" id="Layer-2"></path>
                <path d="M73,75.1369725 C88.5904175,70.0307768 99.8510697,55.363628 99.8510697,38.0664131 C99.8510697,20.7738776 88.5965095,6.10998553 73.0126522,1" id="Layer-3"></path>
                <path d="M67,61.4633961 C77.3361812,58.7887497 84.9700853,49.3994824 84.9700853,38.2272212 C84.9700853,27.0673922 77.3531613,17.6865911 67.0344952,15" id="Layer-4"></path>
                <path d="M60,48 L60,48 C60.7092383,48 61.4012316,47.9261654 62.0687127,47.7857633 C66.5989154,46.8328525 70,42.8136092 70,38 C70,33.1154054 66.4978654,29.0487782 61.8675653,28.1740873 C61.2625401,28.0597945 60.6382529,28 60,28" id="Layer-5"></path>
            </g>
        </g>
    </g>
</svg>