<?xml version="1.0" encoding="UTF-8"?>
<svg width="104px" height="104px" viewBox="0 0 104 104" version="1.1" xmlns="http://www.w3.org/2000/svg" xmlns:xlink="http://www.w3.org/1999/xlink">
    <!-- Generator: Sketch 46 (44423) - http://www.bohemiancoding.com/sketch -->
    <title>numbers-28</title>
    <desc>Created with Sketch.</desc>
    <defs></defs>
    <g id="ALL" stroke="none" stroke-width="1" fill="none" fill-rule="evenodd" stroke-linecap="round" stroke-linejoin="round">
        <g id="Secondary" transform="translate(-8506.000000, -10227.000000)" stroke="#868E96" stroke-width="3.5">
            <g id="numbers-28" transform="translate(8508.000000, 10229.000000)">
                <path d="M50,100 C77.6142375,100 100,77.6142375 100,50 C100,22.3857625 77.6142375,0 50,0 C22.3857625,0 0,22.3857625 0,50 C0,77.6142375 22.3857625,100 50,100 Z" id="Layer-1"></path>
                <path d="M35,25 L35,75" id="Layer-3"></path>
                <path d="M35,25 L52.4945343,25 C59.4011123,25 65,30.5949227 65,37.5 C65,44.4035594 59.4099895,50 52.4945343,50 L35,50 L35,25 L35,25 Z" id="Lyaer-2"></path>
                <path d="M55,50 C55,50 57.9987793,50.0878906 60.7595215,54.4562988 C62.1587689,56.6703716 62.4334738,62.0433206 63.3945312,66.7043457 C64.3296586,71.2396129 66.0217285,75.095459 66.0217285,75.095459" id="Layer-4"></path>
            </g>
        </g>
    </g>
</svg>