<?xml version="1.0" encoding="UTF-8"?>
<svg width="101px" height="101px" viewBox="0 0 101 101" version="1.1" xmlns="http://www.w3.org/2000/svg" xmlns:xlink="http://www.w3.org/1999/xlink">
    <!-- Generator: Sketch 46 (44423) - http://www.bohemiancoding.com/sketch -->
    <title>office-35</title>
    <desc>Created with Sketch.</desc>
    <defs></defs>
    <g id="ALL" stroke="none" stroke-width="1" fill="none" fill-rule="evenodd" stroke-linecap="round" stroke-linejoin="round">
        <g id="Secondary" transform="translate(-5210.000000, -6882.000000)" stroke="#868E96" stroke-width="3.5">
            <g id="office-35" transform="translate(5212.000000, 6883.000000)">
                <path d="M67.6307552,1.72815522 C68.8024568,0.556453574 70.7014648,0.555757801 71.8782261,1.7325191 L95.9106625,25.7649556 C97.0847743,26.9390673 97.0829443,28.8445086 95.9150264,30.0124265 L93.0870656,32.8403873 C91.915364,34.0120889 90.016356,34.0127847 88.8395947,32.8360234 L64.8071583,8.80358691 C63.6330465,7.62947516 63.6348765,5.72403386 64.8027944,4.55611603 L67.6307552,1.72815522 L67.6307552,1.72815522 Z" id="Layer-1"></path>
                <path d="M64.4063529,56.7712712 L85.4626628,29.4590915 L68.2752029,12.2716316 L40.8938364,33.2433587 C46.2804755,34.8495079 51.3565557,37.7793912 55.6101731,42.0330086 C59.8695613,46.2923969 62.8016213,51.3764812 64.4063529,56.7712712 L64.4063529,56.7712712 L64.4063529,56.7712712 Z" id="Layer-2"></path>
                <path d="M55.6101731,42.0330086 C41.9418228,28.3646584 19.7810486,28.3646584 6.11269837,42.0330086 L55.6101731,91.5304833 C69.2785233,77.8621331 69.2785233,55.7013588 55.6101731,42.0330086 L55.6101731,42.0330086 Z" id="Layer-3"></path>
                <path d="M30.8614357,67.4888527 L0.455844123,97.8944443" id="Layer-4"></path>
            </g>
        </g>
    </g>
</svg>