<?xml version="1.0" encoding="UTF-8"?>
<svg width="104px" height="104px" viewBox="0 0 104 104" version="1.1" xmlns="http://www.w3.org/2000/svg" xmlns:xlink="http://www.w3.org/1999/xlink">
    <!-- Generator: Sketch 46 (44423) - http://www.bohemiancoding.com/sketch -->
    <title>office-33</title>
    <desc>Created with Sketch.</desc>
    <defs></defs>
    <g id="ALL" stroke="none" stroke-width="1" fill="none" fill-rule="evenodd" stroke-linecap="round" stroke-linejoin="round">
        <g id="Secondary" transform="translate(-4615.000000, -6881.000000)" stroke="#868E96" stroke-width="3.5">
            <g id="office-33" transform="translate(4617.000000, 6883.000000)">
                <path d="M17.3264425,46.4941247 L31.9639291,53.3272708 L46.3024576,67.6657993 L53.4033191,82.5710013 L2.19747855,99.6396148 C0.590620232,100.175234 -0.279474686,99.3118762 0.257828977,97.6999653 L17.3264425,46.4941247 L17.3264425,46.4941247 Z" id="Layer-1"></path>
                <path d="M21.4324436,92.8007111 L2.76707186,99.0225016 C1.16021354,99.5581211 0.290118621,98.6947631 0.827422284,97.0828521 L7.04921287,78.4174803 C10.2113889,79.661909 13.1751716,81.5622492 15.7314232,84.1185007 C18.2876748,86.6747523 20.1880149,89.638535 21.4324436,92.8007111 L21.4324436,92.8007111 L21.4324436,92.8007111 Z" id="Layer-2"></path>
                <polygon id="Layer-3" points="63.2938525 0.526714702 79.4365303 6.40225157 93.4805952 20.4463165 99.3707291 36.6035913 53.9966723 81.9776481 46.0788064 67.8481032 32.0347423 53.8040391 17.9197957 45.9007715"></polygon>
                <polygon id="Layer-4" points="79.2504859 6.21620724 93.9032481 20.8689694 46.281771 68.4904465 31.6290088 53.8376843"></polygon>
            </g>
        </g>
    </g>
</svg>