<?xml version="1.0" encoding="UTF-8"?>
<svg width="119px" height="120px" viewBox="0 0 119 120" version="1.1" xmlns="http://www.w3.org/2000/svg" xmlns:xlink="http://www.w3.org/1999/xlink">
    <!-- Generator: Sketch 46 (44423) - http://www.bohemiancoding.com/sketch -->
    <title>office-11</title>
    <desc>Created with Sketch.</desc>
    <defs></defs>
    <g id="ALL" stroke="none" stroke-width="1" fill="none" fill-rule="evenodd" stroke-linecap="round" stroke-linejoin="round">
        <g id="Secondary" transform="translate(-7495.000000, -6565.000000)" stroke="#868E96" stroke-width="3.5">
            <g id="office-11" transform="translate(7497.000000, 6567.000000)">
                <circle id="Layer-1" cx="90" cy="91" r="25"></circle>
                <path d="M90.5,77.5 L90.5,104.5" id="Layer-2"></path>
                <path d="M104,91 L77,91" id="Layer-3"></path>
                <path d="M57.5667062,6.14988388 L7.42529679,56.2259766 C-2.47316287,66.1115421 -2.47467831,82.1317344 7.41822955,92.0117553 C17.3133126,101.893948 33.3538743,101.888616 43.2506853,92.0046972 L93.3920947,41.9286045 M84.7930939,33.3408051 L46.1161883,71.9691411 C40.9682647,77.1103587 32.6258903,77.1144122 27.4804471,71.9756717 C22.336135,66.8380609 22.3343762,58.5101044 27.4869863,53.3642064 L55.3262902,25.5611673 M84.7930939,33.3408051 C92.7135499,25.4324794 93.0361864,12.9360673 85.5175764,5.42725143 C77.9973133,-2.08321541 65.4849356,-1.75803086 57.5667062,6.14988388 M84.7930939,33.3408051 L84.7930939,33.3408051" id="Layer-4"></path>
            </g>
        </g>
    </g>
</svg>