<?xml version="1.0" encoding="UTF-8"?>
<svg width="106px" height="106px" viewBox="0 0 106 106" version="1.1" xmlns="http://www.w3.org/2000/svg" xmlns:xlink="http://www.w3.org/1999/xlink">
    <!-- Generator: Sketch 46 (44423) - http://www.bohemiancoding.com/sketch -->
    <title>office-30</title>
    <desc>Created with Sketch.</desc>
    <defs></defs>
    <g id="ALL" stroke="none" stroke-width="1" fill="none" fill-rule="evenodd" stroke-linecap="round" stroke-linejoin="round">
        <g id="Secondary" transform="translate(-3718.000000, -6881.000000)" stroke="#868E96" stroke-width="3.5">
            <g id="office-30" transform="translate(3720.000000, 6883.000000)">
                <path d="M65.179932,1.53074613 C67.1299092,-0.419231115 70.2985083,-0.412169837 72.2462346,1.53555647 L100.530461,29.8197826 C102.483095,31.7724165 102.489983,34.9313737 100.535271,36.8860852 L36.8860852,100.535271 C34.9361079,102.485248 31.7675089,102.478187 29.8197826,100.530461 L1.53555647,72.2462346 C-0.417077449,70.2936007 -0.423965357,67.1346435 1.53074613,65.179932 L65.179932,1.53074613 L65.179932,1.53074613 L65.179932,1.53074613 Z M72.246212,29.8198052 C74.1988335,31.7724266 77.3646584,31.7724266 79.3172798,29.8198052 C81.2699013,27.8671837 81.2699013,24.7013588 79.3172798,22.7487373 C77.3646584,20.7961159 74.1988335,20.7961159 72.246212,22.7487373 C70.2935906,24.7013588 70.2935906,27.8671837 72.246212,29.8198052 L72.246212,29.8198052 L72.246212,29.8198052 Z" id="Layer-1"></path>
                <path d="M40.2961504,26.8611215 L48.334838,34.8998091" id="Layer-2"></path>
                <path d="M26.1540147,41.0032571 L34.1927024,49.0419448" id="Layer-3"></path>
                <path d="M12.0118791,55.1453928 L20.0505667,63.1840804" id="Layer-4"></path>
            </g>
        </g>
    </g>
</svg>