<?xml version="1.0" encoding="UTF-8"?>
<svg width="104px" height="94px" viewBox="0 0 104 94" version="1.1" xmlns="http://www.w3.org/2000/svg" xmlns:xlink="http://www.w3.org/1999/xlink">
    <!-- Generator: Sketch 46 (44423) - http://www.bohemiancoding.com/sketch -->
    <title>office-5</title>
    <desc>Created with Sketch.</desc>
    <defs></defs>
    <g id="ALL" stroke="none" stroke-width="1" fill="none" fill-rule="evenodd" stroke-linecap="round" stroke-linejoin="round">
        <g id="Secondary" transform="translate(-5701.000000, -6565.000000)" stroke="#868E96" stroke-width="3.5">
            <g id="office-5" transform="translate(5703.000000, 6567.000000)">
                <path d="M44.0108938,20 L19.9960937,20 L0,45 L30,45 L30,55 L70,55 L70,45 L100,45 L81.0761719,20 L56.1566753,20 L56.1566753,30 L63.6126572,30 C64.1659824,30 64.2970501,30.3054298 63.8928632,30.6942622 L50.7833719,43.3057378 C50.3848001,43.6891682 49.7442029,43.6945702 49.3400159,43.3057378 L36.2305246,30.6942622 C35.8319529,30.3108318 35.9660276,30 36.5107306,30 L44.0108938,30 L44.0108938,20 L44.0108938,20 Z" id="Layer-1"></path>
                <path d="M44.0108938,30 L36.5107306,30 C35.9660276,30 35.8319529,30.3108318 36.2305246,30.6942622 L49.3400159,43.3057378 C49.7442029,43.6945702 50.3848001,43.6891682 50.7833719,43.3057378 L63.8928632,30.6942622 C64.2970501,30.3054298 64.1659824,30 63.6126572,30 L56.1566753,30 L56.1566753,0 L44.0108938,0 L44.0108938,30 L44.0108938,30 Z" id="Layer-2"></path>
                <path d="M30,45 L0,45 L0,84.0010878 C0,87.319808 2.68318653,90 5.99306484,90 L94.0069352,90 C97.312319,90 100,87.3141955 100,84.0010878 L100,45 L70,45 L70,55 L30,55 L30,45 L30,45 Z" id="Layer-3"></path>
            </g>
        </g>
    </g>
</svg>