<?xml version="1.0" encoding="UTF-8"?>
<svg width="99px" height="94px" viewBox="0 0 99 94" version="1.1" xmlns="http://www.w3.org/2000/svg" xmlns:xlink="http://www.w3.org/1999/xlink">
    <!-- Generator: Sketch 46 (44423) - http://www.bohemiancoding.com/sketch -->
    <title>office-32</title>
    <desc>Created with Sketch.</desc>
    <defs></defs>
    <g id="ALL" stroke="none" stroke-width="1" fill="none" fill-rule="evenodd" stroke-linecap="round" stroke-linejoin="round">
        <g id="Secondary" transform="translate(-4320.000000, -6881.000000)" stroke="#868E96" stroke-width="3.5">
            <g id="office-32" transform="translate(4322.000000, 6883.000000)">
                <polygon id="Layer-1" points="28.0152556 35.1330876 59.8669124 66.9847444 53.4965811 73.3550758 21.6449242 41.5034189"></polygon>
                <path d="M28.2348223,31.1338059 C26.9794828,32.208472 26.913359,34.0311909 28.0879545,35.2057864 L59.7560508,66.8738828 C60.9302775,68.0481095 62.7585409,67.986736 63.8387688,66.7377525 L93.4053914,32.5521669 C95.5756058,30.0429169 95.4351267,26.1089824 93.0897871,23.7636428 L71.3927536,2.06660919 C69.0482357,-0.277908624 65.1052183,-0.430057367 62.5826648,1.72944033 L28.2348223,31.1338059 L28.2348223,31.1338059 Z" id="Layer-2"></path>
                <path d="M20.0033539,43.1449893 L21.6449242,41.5034189 L53.4965811,73.3550758 L51.8550107,74.9966461 C41.0834814,72.785688 30.7035895,74.8654878 23.562267,81.6427499 L13.3572501,71.437733 C20.1345122,64.2964105 22.214312,53.9165186 20.0033539,43.1449893 L20.0033539,43.1449893 L20.0033539,43.1449893 Z" id="Layer-3"></path>
                <polygon id="Layer-4" points="13.3634935 71.4439763 23.5560237 81.6365065 15.0622485 90.1302817 0.622830752 84.1846391"></polygon>
            </g>
        </g>
    </g>
</svg>