<?xml version="1.0" encoding="UTF-8"?>
<svg width="96px" height="104px" viewBox="0 0 96 104" version="1.1" xmlns="http://www.w3.org/2000/svg" xmlns:xlink="http://www.w3.org/1999/xlink">
    <!-- Generator: Sketch 46 (44423) - http://www.bohemiancoding.com/sketch -->
    <title>office-20</title>
    <desc>Created with Sketch.</desc>
    <defs></defs>
    <g id="ALL" stroke="none" stroke-width="1" fill="none" fill-rule="evenodd" stroke-linecap="round" stroke-linejoin="round">
        <g id="Secondary" transform="translate(-705.000000, -6881.000000)" stroke="#868E96" stroke-width="3.5">
            <g id="office-20" transform="translate(707.000000, 6883.000000)">
                <path d="M45.999974,88.8689927 C45.9999913,88.8691582 46,88.869241 46,88.869241 L88.8304816,88.869241 C90.5845737,88.869241 92,87.4591932 92,85.719811 L92,77.8983774 C92,72.0868672 87.2712172,67.3684211 81.4379679,67.3684211 L68.7725106,67.3684211 C55.5045106,67.3684211 57.4416879,58.5918153 57.4416879,51.1524623 C57.4416879,46.0124247 60.322236,42.1805077 63.2664733,38.2310035 C66.8360288,34.17562 69,28.8605261 69,23.0416489 C69,10.3548687 58.7133036,0.0628826751 46,0.000266553661 C33.2866964,0.0626161214 23,10.3546021 23,23.0413823 C23,28.8602595 25.1639712,34.1753534 28.7335267,38.2307369 C31.677764,42.1802412 34.5583121,46.0121581 34.5583121,51.1521957 C34.5583121,58.5915488 36.4954894,67.3681545 23.2274894,67.3681545 L10.5620321,67.3681545 C4.72878284,67.3681545 0,72.0866007 0,77.8981108 L0,85.7195444 C0,87.4589266 1.41542633,88.8689745 3.16951843,88.8689745 L45.999972,88.8689745 L45.999974,88.8689927 Z" id="Layer-1"></path>
                <path d="M42.3759305,8.75528663 C37.4496492,9.877336 33.5469988,13.7164946 32.3035315,18.6259822" id="Layer-2"></path>
                <rect id="Layer-3" x="5.22727273" y="89.4736842" width="79.4545455" height="10.5263158"></rect>
            </g>
        </g>
    </g>
</svg>