<?xml version="1.0" encoding="UTF-8"?>
<svg width="104px" height="104px" viewBox="0 0 104 104" version="1.1" xmlns="http://www.w3.org/2000/svg" xmlns:xlink="http://www.w3.org/1999/xlink">
    <!-- Generator: Sketch 46 (44423) - http://www.bohemiancoding.com/sketch -->
    <title>office-28</title>
    <desc>Created with Sketch.</desc>
    <defs></defs>
    <g id="ALL" stroke="none" stroke-width="1" fill="none" fill-rule="evenodd" stroke-linecap="round" stroke-linejoin="round">
        <g id="Secondary" transform="translate(-3118.000000, -6881.000000)" stroke="#868E96" stroke-width="3.5">
            <g id="office-28" transform="translate(3120.000000, 6883.000000)">
                <rect id="Layer-1" x="0" y="20" width="100" height="80"></rect>
                <rect id="Layer-2" x="0" y="0" width="100" height="20"></rect>
                <path d="M20,0 L30,0 L30,5 C30,7.76142375 27.7558048,10 25,10 L25,10 C22.2385763,10 20,7.75580481 20,5 L20,0 Z" id="Layer-3"></path>
                <path d="M70,0 L80,0 L80,5 C80,7.76142375 77.7558048,10 75,10 L75,10 C72.2385763,10 70,7.75580481 70,5 L70,0 Z" id="Layer-4"></path>
                <polyline id="Layer-5" points="22.7444169 46.594684 33.3629759 40 33.3629759 77.2208437"></polyline>
                <path d="M22,78.5111663 L44.3325062,78.5111663" id="Layer-6"></path>
                <path d="M78.7540323,78.7096774 L53.1299296,78.7096774 L65.8253436,66.4676711 C72.5131063,60.0632882 75.9136636,55.6425636 75.9136636,50.6550796 C75.9136636,44.8174562 72.2864025,40 64.9752043,40 C58.5708213,40 53.6966892,44.5907524 52.9599018,51.6752468 L52.9032258,52.2420063" id="Layer-7"></path>
            </g>
        </g>
    </g>
</svg>