<?xml version="1.0" encoding="UTF-8"?>
<svg width="104px" height="104px" viewBox="0 0 104 104" version="1.1" xmlns="http://www.w3.org/2000/svg" xmlns:xlink="http://www.w3.org/1999/xlink">
    <!-- Generator: Sketch 46 (44423) - http://www.bohemiancoding.com/sketch -->
    <title>science-34</title>
    <desc>Created with Sketch.</desc>
    <defs></defs>
    <g id="ALL" stroke="none" stroke-width="1" fill="none" fill-rule="evenodd" stroke-linecap="round" stroke-linejoin="round">
        <g id="Secondary" transform="translate(-6620.000000, -2912.000000)" stroke="#868E96" stroke-width="3.5">
            <g id="science-34" transform="translate(6622.000000, 2914.000000)">
                <path d="M37.5203334,11.129599 C37.5203334,12.2998384 37.5203334,13.56247 37.5203333,14.9175444 C37.5203333,23.0527344 34.2518602,26.7421619 32.0213818,30.2431641 C23.7783288,43.18162 5.96018435,62.7265625 5.96018435,62.7265625 C-6.84673533,78.7460938 1.97014028,100 23.005959,99.9999999 L47.6190469,99.9999995 L76.5182134,99.9999999 C97.5540321,100 106.370908,78.7460938 93.563988,62.7265625 C93.563988,62.7265625 75.7458436,43.18162 67.5027905,30.2431641 C65.2723122,26.7421619 62.003839,23.0527344 62.003839,14.9175444 C62.003839,13.4917749 62.0038389,12.1683454 62.0038389,10.9471969 L62.0845608,10.9426599 C65.1412218,10.7512725 67.6190476,7.98387083 67.6190476,4.76853188 L67.6190476,5.82188617 C67.6190476,2.61785679 65.1405186,0 62.0830981,0 L36.964521,0 C33.9160894,0 31.4285714,2.60654722 31.4285714,5.82188617 L31.4285714,4.76853188 C31.4285714,7.97256127 33.892557,10.8124345 36.9320373,11.0863058 L37.5203334,11.129599 L37.5203334,11.129599 Z" id="Layer-1"></path>
                <path d="M5.96018435,62.7265625 C-6.84673533,78.7460938 1.97014028,100 23.005959,99.9999999 L47.6190469,99.9999995 L76.5182134,99.9999999 C97.5540321,100 106.370908,78.7460938 93.563988,62.7265625 C93.563988,62.7265625 88.4884006,57.159088 82.5018813,50 C82.5018813,50 80.8463542,47.9140625 78.2431176,47.9140625 C75.639881,47.9140625 72.6641555,52.5546877 68.4928385,52.5546877 C65.3927977,52.5546877 62.7115885,47.9140625 59.0266927,47.9140625 C55.3417969,47.9140625 52.8524926,52.5546877 49.7620864,52.5546877 C46.6716803,52.5546877 43.0552455,47.9140625 40.0172061,47.9140625 C36.9791667,47.9140625 33.2708682,52.5546877 30.484096,52.5546877 C27.930591,52.5546877 24.5996094,47.9140625 21.1993118,47.9140625 C17.7990141,47.9140625 17.022291,50 17.022291,50 C11.0357718,57.159088 5.96018435,62.7265625 5.96018435,62.7265625 Z" id="Layer-2"></path>
                <path d="M17.472674,64.811063 L84.0926691,64.811063" id="Layer-3" stroke-dasharray="1,6"></path>
                <path d="M10.472674,76.811063 L90.472674,76.811063" id="Layer-4" stroke-dasharray="1,6"></path>
                <path d="M17.472674,88.811063 L84.0926691,88.811063" id="Layer-5" stroke-dasharray="1,6"></path>
            </g>
        </g>
    </g>
</svg>