<?xml version="1.0" encoding="UTF-8"?>
<svg width="94px" height="104px" viewBox="0 0 94 104" version="1.1" xmlns="http://www.w3.org/2000/svg" xmlns:xlink="http://www.w3.org/1999/xlink">
    <!-- Generator: Sketch 46 (44423) - http://www.bohemiancoding.com/sketch -->
    <title>science-16</title>
    <desc>Created with Sketch.</desc>
    <defs></defs>
    <g id="ALL" stroke="none" stroke-width="1" fill="none" fill-rule="evenodd" stroke-linecap="round" stroke-linejoin="round">
        <g id="Secondary" transform="translate(-1306.000000, -2912.000000)" stroke="#868E96" stroke-width="3.5">
            <g id="science-16" transform="translate(1308.000000, 2914.000000)">
                <rect id="Layer-1" x="0" y="45" width="90" height="22" rx="11"></rect>
                <path d="M75,45 C75,28.4314575 61.5685425,15 45,15 C28.4314575,15 15,28.4314575 15,45 L75,45 Z" id="Layer-2"></path>
                <path d="M40.9695723,21.5280455 C37.0787638,22.3578723 33.5370937,24.1306252 30.5952043,26.5956617 M27.5695902,29.6263725 C26.8595848,30.4766309 26.2073145,31.3767723 25.6188042,32.3207717" id="Layer-3"></path>
                <path d="M45,14 L45,8.47731948" id="Layer-4"></path>
                <circle id="Layer-5" cx="45" cy="4" r="4"></circle>
                <path d="M55.2809986,67 L64,96.9866891 C64,96.9866891 57.6195289,100 45,100 C32.3804711,100 26,96.9866891 26,96.9866891 L34.7457955,67 L55.2809986,67 Z" id="Layer-6"></path>
            </g>
        </g>
    </g>
</svg>