<?xml version="1.0" encoding="UTF-8"?>
<svg width="104px" height="104px" viewBox="0 0 104 104" version="1.1" xmlns="http://www.w3.org/2000/svg" xmlns:xlink="http://www.w3.org/1999/xlink">
    <!-- Generator: Sketch 47 (45396) - http://www.bohemiancoding.com/sketch -->
    <title>science-20</title>
    <desc>Created with Sketch.</desc>
    <defs></defs>
    <g id="ALL" stroke="none" stroke-width="1" fill="none" fill-rule="evenodd" stroke-linecap="round" fill-opacity="0" stroke-linejoin="round">
        <g id="Primary" transform="translate(-2473.000000, -2912.000000)" stroke="#343A40" stroke-width="3.5" fill="#DBECFF">
            <g id="science-20" transform="translate(2475.000000, 2914.000000)">
                <path d="M0,75.0044356 C0,72.2405621 2.22884957,70 4.99322906,70 L95.0067709,70 C97.7644552,70 100,72.2303666 100,75.0044356 L100,94.9955644 C100,97.7594379 97.7711504,100 95.0067709,100 L4.99322906,100 C2.2355448,100 0,97.7696334 0,94.9955644 L0,75.0044356 L0,75.0044356 Z" id="Layer-1"></path>
                <circle id="Layer-2" cx="15" cy="85" r="5"></circle>
                <circle id="Layer-3" cx="84" cy="85" r="5"></circle>
                <path d="M90,70 C90,47.90861 72.09139,30 50,30 C27.90861,30 10,47.90861 10,70" id="Layer-4"></path>
                <path d="M50.3061224,39 L50.3061224,43.7828571" id="Layer-5"></path>
                <path d="M64.8891992,42.8860714 L62.4977707,47.0281472" id="Layer-6"></path>
                <path d="M75.6204879,53.8663309 L71.4784121,56.2577595" id="Layer-7"></path>
                <path d="M35.5589951,42.8860714 L37.9504237,47.0281472" id="Layer-8"></path>
                <path d="M24.3355549,53.8663309 L28.4776307,56.2577595" id="Layer-9"></path>
                <circle id="Layer-10" cx="15" cy="15" r="5"></circle>
                <circle id="Layer-11" cx="85" cy="15" r="5"></circle>
                <path d="M82.5,19.5 L70.2075195,35.3847656" id="Layer-12"></path>
                <path d="M17.5,19.5 L29.5,34.5" id="Layer-13"></path>
                <polyline id="Layer-14" points="26 13 37.3847656 0.578125 48.5 19.8183594 57.3242188 5.46484375 73.3984375 13"></polyline>
            </g>
        </g>
    </g>
</svg>