<?xml version="1.0" encoding="UTF-8"?>
<svg width="104px" height="96px" viewBox="0 0 104 96" version="1.1" xmlns="http://www.w3.org/2000/svg" xmlns:xlink="http://www.w3.org/1999/xlink">
    <!-- Generator: Sketch 46 (44423) - http://www.bohemiancoding.com/sketch -->
    <title>science-24</title>
    <desc>Created with Sketch.</desc>
    <defs></defs>
    <g id="ALL" stroke="none" stroke-width="1" fill="none" fill-rule="evenodd" stroke-linecap="round" stroke-linejoin="round">
        <g id="Secondary" transform="translate(-3663.000000, -2912.000000)" stroke="#868E96" stroke-width="3.5">
            <g id="science-24" transform="translate(3665.000000, 2914.000000)">
                <path d="M37.011806,34.5195638 L49.441048,13.0266786 L49.441048,13.0266786 C47.1422766,9.0606086 45.4188142,6.08816848 45.4188142,6.08816848 C43.6625524,3.04660567 39.749605,0.122972427 35.3932347,0.0840800998 C32.4316241,0.394986934 28.6407763,1.42364878 26.6048004,4.77987822 L16.3206973,22.5594925 L37.011806,34.5195638 L37.011806,34.5195638 Z" id="Layer-1"></path>
                <path d="M72.2675721,4.77987822 C69.985686,1.01827518 65.4994118,0.180453829 62.446851,0 C50.4411163,0.0408169376 39.8002079,0.191195129 35.2622684,0.0837821351 C39.6710445,0.0644477962 43.6449707,3.01615686 45.4188142,6.08816848 C45.4188142,6.08816848 55.0615957,22.718987 59.1521591,29.7924681 C59.1665715,29.8173903 57.5758682,30.799768 57.5758682,30.799768 L75.1070304,33.6229885 L81.422552,17.0604212 L79.6707992,18.0696995 C77.5517423,14.3857453 72.2675721,4.77987822 72.2675721,4.77987822 Z" id="Layer-2"></path>
                <path d="M67.3161091,44.4890191 L79.6930003,66.0121647 L79.6930003,66.0121647 C84.2730673,66.0020631 87.7059822,65.993965 87.7059822,65.993965 C91.2150885,65.9919897 95.7005277,64.0611077 97.912355,60.3033881 C99.1242234,57.5800872 100.129847,53.7789234 98.2446704,50.3355275 L88.0072178,32.5289478 L67.3161091,44.4890191 L67.3161091,44.4890191 Z" id="Layer-3"></path>
                <path d="M75.4132845,89.9271715 C79.8080433,89.8294767 82.7759024,86.3585892 84.4582768,83.8021107 C90.4258371,73.372199 95.616213,64.0708713 97.9780959,60.1899834 C95.7904321,64.0222546 91.2502179,65.99197 87.7059822,65.993965 C87.7059822,65.993965 68.4780467,66.4981853 60.3141491,66.5081442 C60.285385,66.5081793 60.2517302,64.1788691 60.2517302,64.1788691 L49.0440415,77.9675523 L60.2130297,91.7246727 L60.2910442,89.9449907 C64.5372215,89.9496517 75.4132845,89.9271715 75.4132845,89.9271715 L75.4132845,89.9271715 Z" id="Layer-4"></path>
                <path d="M44.8658464,66.0553608 L20.0597132,66.0251005 L20.0597132,66.0251005 C17.7784176,70.001272 16.0689651,72.9818103 16.0689651,72.9818103 C14.3161206,76.0253483 13.7436289,80.8798636 15.8881719,84.6764756 C17.637914,87.0888696 20.4231384,89.8613715 24.3442908,89.948538 L44.8658464,89.9755034 L44.8658464,66.0553608 L44.8658464,66.0553608 Z" id="Layer-5"></path>
                <path d="M1.51290495,50.3568941 C-0.59996778,54.2161918 0.918447343,58.5249007 2.2886338,61.261833 C8.32680809,71.6509278 13.7773406,80.8018773 15.9533973,84.7901782 C13.7322849,80.9772413 14.298573,76.0558169 16.0689651,72.9818103 C16.0689651,72.9818103 25.2467784,56.058229 29.3201127,48.974789 C29.3344644,48.9498317 31.3661632,50.0853066 31.3661632,50.0853066 L25.0426897,33.4734029 L7.55817983,36.2788498 L9.0586113,37.2363328 C6.93149083,40.915626 1.51290495,50.3568941 1.51290495,50.3568941 L1.51290495,50.3568941 Z" id="Layer-6"></path>
            </g>
        </g>
    </g>
</svg>