<?xml version="1.0" encoding="UTF-8"?>
<svg width="94px" height="104px" viewBox="0 0 94 104" version="1.1" xmlns="http://www.w3.org/2000/svg" xmlns:xlink="http://www.w3.org/1999/xlink">
    <!-- Generator: Sketch 46 (44423) - http://www.bohemiancoding.com/sketch -->
    <title>science-21</title>
    <desc>Created with Sketch.</desc>
    <defs></defs>
    <g id="ALL" stroke="none" stroke-width="1" fill="none" fill-rule="evenodd" stroke-linecap="round" stroke-linejoin="round">
        <g id="Secondary" transform="translate(-2773.000000, -2912.000000)" stroke="#868E96" stroke-width="3.5">
            <g id="science-21" transform="translate(2775.000000, 2914.000000)">
                <circle id="Layer-1" cx="45" cy="50" r="10"></circle>
                <path d="M28.2268667,22.7562539 C26.1858775,30.593785 25,39.9506719 25,50 C25,77.6142375 33.954305,100 45,100 C51.8101961,100 57.8253903,91.4904805 61.4371298,78.4925737 M63.0565395,71.5272295 C64.302439,65.0075006 65,57.7074054 65,50 C65,39.4019023 63.6810704,29.5739359 61.4311769,21.4860148 M59.1717806,14.7189281 C55.5501749,5.62707401 50.5379421,0 45,0 C39.5103988,0 34.5373691,5.5292649 30.9233761,14.4816321" id="Layer-2"></path>
                <path d="M12.3107209,50.1962985 C18.1653656,56.1156825 25.9358579,62.0873232 35,67.3205081 C58.9146312,81.1276268 82.7784227,84.5658525 88.3012702,75 C93.8241177,65.4341475 78.9146312,46.4866107 55,32.6794919 C31.0853688,18.8723732 7.22157731,15.4341475 1.69872981,25 C-1.12976749,29.899101 1.40097778,37.258945 7.75593311,45.1287549" id="Layer-3"></path>
                <path d="M77.5062804,50.3807109 C71.6731211,56.2396191 63.9700223,62.1416633 55,67.3205081 C54.2623312,67.7464014 53.5247108,68.1624289 52.7876755,68.5685135 M44.8561396,72.5729214 C39.4077118,75.0749441 34.1014183,77.0009617 29.1643164,78.3182604 M22.6110956,79.7459536 C12.3969191,81.4312594 4.56970034,79.9726668 1.69872981,75 C-3.82411769,65.4341475 11.0853688,46.4866107 35,32.6794919 C58.9146312,18.8723732 82.7784227,15.4341475 88.3012702,25 C90.5360952,28.8708304 89.4252824,34.2778397 85.72598,40.2588153 C84.9553286,41.5047927 84.0723403,42.7756793 83.0838604,44.0627761" id="Layer-4"></path>
            </g>
        </g>
    </g>
</svg>