<?xml version="1.0" encoding="UTF-8"?>
<svg width="104px" height="103px" viewBox="0 0 104 103" version="1.1" xmlns="http://www.w3.org/2000/svg" xmlns:xlink="http://www.w3.org/1999/xlink">
    <!-- Generator: Sketch 46 (44423) - http://www.bohemiancoding.com/sketch -->
    <title>science-1</title>
    <desc>Created with Sketch.</desc>
    <defs></defs>
    <g id="ALL" stroke="none" stroke-width="1" fill="none" fill-rule="evenodd" stroke-linecap="round" stroke-linejoin="round">
        <g id="Secondary" transform="translate(-6339.000000, -2603.000000)" stroke="#868E96" stroke-width="3.5">
            <g id="science-1" transform="translate(6341.000000, 2604.000000)">
                <polygon id="Layer-1" points="33.8777688 80.6070912 25.5422407 85.3442951 14.5122064 74.4268122 19.2982475 66.1763406"></polygon>
                <path d="M22.5641037,84.0872149 C21.4453008,88.1200945 18.7547763,92.6896172 16.9862468,94.4401006 C14.074258,97.3223752 0.219797356,99.4908633 0.219797356,99.4908633 C0.219797356,99.4908633 2.55693448,85.632974 5.3226298,82.8955001 C7.01109483,81.2242643 11.6865777,78.5229339 15.8054723,77.3975491 L22.5641037,84.0872149 Z" id="Layer-3"></path>
                <path d="M57.1440951,70.437186 L59.7562386,80.1048906 C60.1976675,81.7386462 59.5694066,84.0391142 58.3709301,85.2253614 L52.2582241,91.2756928 C51.0517104,92.4698951 49.2572337,92.3360313 48.2402615,90.9633549 L41.7793044,82.2425626 C44.0465837,80.695245 49.495186,76.8286412 57.1440951,70.437186 L57.1440951,70.437186 Z" id="Layer-4"></path>
                <path d="M29.4937121,43.1264385 L19.8056254,40.5619368 C18.155027,40.1250122 15.8308428,40.7468623 14.6323663,41.9331095 L8.5196603,47.9834409 C7.31314663,49.1776432 7.44839052,50.953809 8.83521823,51.9604039 L17.5942781,58.3179531 C19.1173762,56.0975377 22.9292591,50.7854214 29.4937121,43.1264385 L29.4937121,43.1264385 Z" id="Layer-5"></path>
                <path d="M48.0443934,23.292772 C70.2190764,1.34436129 97.7677666,-0.462356093 99.4856145,1.23796269 C101.203462,2.93828147 99.3136929,30.2696313 77.6163326,51.7455899 C55.9189723,73.2215486 40.6085011,83.0245899 40.6085011,83.0245899 C39.2038249,83.9784488 37.080889,83.7775266 35.8713113,82.5802914 L23.4114661,70.2475875 L17.277085,64.1758022 C16.069729,62.9807661 15.8533292,60.8710807 16.8160943,59.4815288 C16.8160943,59.4815288 25.8697104,45.2411827 48.0443934,23.292772 L48.0443934,23.292772 Z" id="Layer-6"></path>
                <path d="M67.4106677,32.9856141 C69.8262819,35.3765791 73.7427663,35.3765791 76.1583804,32.9856141 C78.5739946,30.594649 78.5739946,26.7181288 76.1583804,24.3271637 C73.7427663,21.9361987 69.8262819,21.9361987 67.4106677,24.3271637 C64.9950535,26.7181288 64.9950535,30.594649 67.4106677,32.9856141 L67.4106677,32.9856141 Z" id="Layer-2"></path>
            </g>
        </g>
    </g>
</svg>