<?xml version="1.0" encoding="UTF-8"?>
<svg width="103px" height="103px" viewBox="0 0 103 103" version="1.1" xmlns="http://www.w3.org/2000/svg" xmlns:xlink="http://www.w3.org/1999/xlink">
    <!-- Generator: Sketch 46 (44423) - http://www.bohemiancoding.com/sketch -->
    <title>science-4</title>
    <desc>Created with Sketch.</desc>
    <defs></defs>
    <g id="ALL" stroke="none" stroke-width="1" fill="none" fill-rule="evenodd" stroke-linecap="round" stroke-linejoin="round">
        <g id="Secondary" transform="translate(-7239.000000, -2603.000000)" stroke="#868E96" stroke-width="3.5">
            <g id="science-4" transform="translate(7241.000000, 2604.000000)">
                <polygon id="Layer-1" points="68.6812409 21.4055916 78.5807358 31.3050865 65.8528137 44.0330086 55.9533188 34.1335137"></polygon>
                <polygon id="Layer-2" points="53.8319985 32.0121933 67.9741341 46.1543289 45.3467171 68.7817459 31.2045815 54.6396103"></polygon>
                <polygon id="Layer-3" points="77.873629 50.3969696 88.4802307 61.0035713 74.3380951 75.145707 63.7314934 64.5391052"></polygon>
                <polygon id="Layer-4" points="88.4802307 61.0035713 99.0868325 71.6101731 84.9446968 85.7523087 74.3380951 75.145707"></polygon>
                <polygon id="Layer-5" points="74.3380951 75.145707 84.9446968 85.7523087 70.8025612 99.8944443 60.1959595 89.2878426"></polygon>
                <polygon id="Layer-6" points="63.7314934 64.5391052 74.3380951 75.145707 60.1959595 89.2878426 49.5893578 78.6812409"></polygon>
                <polygon id="Layer-7" points="28.3761543 0.899494937 38.9827561 11.5060967 24.8406204 25.6482323 14.2340187 15.0416306"></polygon>
                <polygon id="Layer-8" points="38.9827561 11.5060967 49.5893578 22.1126984 35.4472222 36.254834 24.8406204 25.6482323"></polygon>
                <polygon id="Layer-9" points="24.8406204 25.6482323 35.4472222 36.254834 21.3050865 50.3969696 10.6984848 39.7903679"></polygon>
                <polygon id="Layer-10" points="14.2340187 15.0416306 24.8406204 25.6482323 10.6984848 39.7903679 0.091883092 29.1837662"></polygon>
                <path d="M35.4472222,36.254834 L42.51829,43.3259018" id="Layer-11"></path>
                <path d="M56.6604256,57.4680374 L63.7314934,64.5391052" id="Layer-12"></path>
                <path d="M18.4766594,60.2964646 L39.6898628,81.509668" id="Layer-13"></path>
                <path d="M16.3553391,83.6309883 L38.2756493,61.7106781" id="Layer-14"></path>
            </g>
        </g>
    </g>
</svg>