<?xml version="1.0" encoding="UTF-8"?>
<svg width="94px" height="104px" viewBox="0 0 94 104" version="1.1" xmlns="http://www.w3.org/2000/svg" xmlns:xlink="http://www.w3.org/1999/xlink">
    <!-- Generator: Sketch 46 (44423) - http://www.bohemiancoding.com/sketch -->
    <title>science-18</title>
    <desc>Created with Sketch.</desc>
    <defs></defs>
    <g id="ALL" stroke="none" stroke-width="1" fill="none" fill-rule="evenodd" stroke-linecap="round" stroke-linejoin="round">
        <g id="Secondary" transform="translate(-1883.000000, -2912.000000)" stroke="#868E96" stroke-width="3.5">
            <g id="science-18" transform="translate(1885.000000, 2914.000000)">
                <path d="M45.3242448,99.996945 C65.0395508,99.9969482 90,71.4743386 90,44.2089922 C90,16.9436457 72.3781129,0.0409264954 45.3242448,0.0409264954 C44.9739734,-0.0511581192 44.7290746,0.0409264954 44.6757552,0.0409264954 C17.6218871,0.0409264954 1.6318712e-15,14.8488643 0,44.2089922 C1.61809922e-15,73.5691201 25.6089389,99.9969417 45.3242448,99.996945 Z" id="Layer-1"></path>
                <path d="M39,80 L51,80" id="Layer-2"></path>
                <path d="M41,63 C41,63 41.4186738,63.9863633 42.6012234,64.6452156" id="Layer-3"></path>
                <path d="M48.6012234,63 C48.6012234,63 48.1825497,63.9863633 47,64.6452156" id="Layer-4"></path>
                <path d="M20.8976506,48.4391088 C28.5885387,53.8243266 40.5589997,49.9983877 40.5589997,49.9983877 C40.5589997,49.9983877 40.0600675,37.4412857 32.3691794,32.0560679 C24.6782913,26.6708501 12.7078302,30.4967889 12.7078302,30.4967889 C12.7078302,30.4967889 13.2067625,43.0538909 20.8976506,48.4391088 L20.8976506,48.4391088 Z" id="Layer-5"></path>
                <path d="M69.3691794,48.4391088 C61.6782913,53.8243266 49.7078302,49.9983877 49.7078302,49.9983877 C49.7078302,49.9983877 50.2067625,37.4412857 57.8976506,32.0560679 C65.5885387,26.6708501 77.5589997,30.4967889 77.5589997,30.4967889 C77.5589997,30.4967889 77.0600675,43.0538909 69.3691794,48.4391088 L69.3691794,48.4391088 Z" id="Layer-6"></path>
            </g>
        </g>
    </g>
</svg>