<?xml version="1.0" encoding="UTF-8"?>
<svg width="104px" height="80px" viewBox="0 0 104 80" version="1.1" xmlns="http://www.w3.org/2000/svg" xmlns:xlink="http://www.w3.org/1999/xlink">
    <!-- Generator: Sketch 46 (44423) - http://www.bohemiancoding.com/sketch -->
    <title>science-37</title>
    <desc>Created with Sketch.</desc>
    <defs></defs>
    <g id="ALL" stroke="none" stroke-width="1" fill="none" fill-rule="evenodd" stroke-linecap="round" stroke-linejoin="round">
        <g id="Secondary" transform="translate(-7520.000000, -2912.000000)" stroke="#868E96" stroke-width="3.5">
            <g id="science-37" transform="translate(7522.000000, 2914.000000)">
                <rect id="Layer-1" x="72" y="8" width="8" height="40" rx="4"></rect>
                <rect id="Layer-2" x="55" y="8" width="8" height="40" rx="4"></rect>
                <rect id="Layer-3" x="64" y="0" width="8" height="56" rx="4"></rect>
                <path d="M81,28 L90,28" id="Layer-4"></path>
                <circle id="Layer-5" cx="95" cy="28" r="5"></circle>
                <path d="M8.33959253,75.9922012 L2.51505645,76.0309054 C0.863235622,76.0418819 -0.205580701,74.7329706 0.127154805,73.1104599 L6.9294341,39.9406563 C3.64691646,37.0108115 1.58027373,32.7473082 1.58027373,28 C1.58027373,19.163444 8.74964347,12 17.5804838,12 L35,12 L35,44 L28.7351071,44 L21.2708032,69.0317547 C22.9826347,69.2631648 24.3023131,70.731002 24.3023131,72.5 C24.3023131,74.4329966 22.7284552,76 20.7971801,76 L8.57516971,76 C8.49600357,76 8.41745043,75.9973727 8.33959253,75.9922012 L8.33959253,75.9922012 Z" id="Layer-6"></path>
                <rect id="Layer-7" x="35" y="16" width="20" height="24"></rect>
                <path d="M14,24 L14,32" id="Layer-8"></path>
                <path d="M21,24 L21,32" id="Layer-9"></path>
            </g>
        </g>
    </g>
</svg>