<?xml version="1.0" encoding="UTF-8"?>
<svg width="104px" height="104px" viewBox="0 0 104 104" version="1.1" xmlns="http://www.w3.org/2000/svg" xmlns:xlink="http://www.w3.org/1999/xlink">
    <!-- Generator: Sketch 46 (44423) - http://www.bohemiancoding.com/sketch -->
    <title>science-10</title>
    <desc>Created with Sketch.</desc>
    <defs></defs>
    <g id="ALL" stroke="none" stroke-width="1" fill="none" fill-rule="evenodd" stroke-linecap="round" stroke-linejoin="round">
        <g id="Secondary" transform="translate(-9029.000000, -2602.000000)" stroke="#868E96" stroke-width="3.5">
            <g id="science-10" transform="translate(9031.000000, 2604.000000)">
                <path d="M63.7254902,34.3264248 L95.5301418,66.9213475 C102.790601,74.362212 100.333301,80.3942246 90.0510774,80.3942246 L63.7254902,80.3942246 M63.7254902,34.3264248 L63.7254902,34.3264248 L63.7254902,34.3264248 M36.2745098,80.3942246 L9.65459587,80.3942246 C-0.631867002,80.3942246 -3.08830228,74.3656705 4.17553145,66.9213475 L36.2745098,34.0247848" id="Layer-1"></path>
                <path d="M36.2745098,19.963269 C36.2745098,9.57503161 46.4862898,0.0654048026 50,0 C53.5137102,-0.0654048026 63.7254902,9.76141169 63.7254902,19.7013559 L63.7254902,87.671875 L36.2745098,87.671875 L36.2745098,19.963269 Z" id="Layer-2"></path>
                <path d="M50,13 C46.2749768,13 42,17.4395095 42,23.9575749 L58,23.9575749 C58,17.5761966 53.7250232,13 50,13 Z" id="Layer-3"></path>
                <path d="M50,60 L50,90" id="Layer-4"></path>
                <path d="M42.1568627,100 C42.1568627,100 46.0784314,97.7614237 46.0784314,95 C46.0784314,92.2385763 44.3226853,90 42.1568627,90 C39.9910402,90 38.2352941,92.2385763 38.2352941,95 C38.2352941,97.7614237 42.1568627,100 42.1568627,100 Z" id="Layer-5"></path>
                <path d="M57.8431373,100 C57.8431373,100 61.7647059,97.7614237 61.7647059,95 C61.7647059,92.2385763 60.0089598,90 57.8431373,90 C55.6773147,90 53.9215686,92.2385763 53.9215686,95 C53.9215686,97.7614237 57.8431373,100 57.8431373,100 Z" id="Layer-6"></path>
            </g>
        </g>
    </g>
</svg>