<?xml version="1.0" encoding="UTF-8"?>
<svg width="104px" height="104px" viewBox="0 0 104 104" version="1.1" xmlns="http://www.w3.org/2000/svg" xmlns:xlink="http://www.w3.org/1999/xlink">
    <!-- Generator: Sketch 46 (44423) - http://www.bohemiancoding.com/sketch -->
    <title>science-2</title>
    <desc>Created with Sketch.</desc>
    <defs></defs>
    <g id="ALL" stroke="none" stroke-width="1" fill="none" fill-rule="evenodd" stroke-linecap="round" stroke-linejoin="round">
        <g id="Secondary" transform="translate(-6639.000000, -2602.000000)" stroke="#868E96" stroke-width="3.5">
            <g id="science-2" transform="translate(6641.000000, 2604.000000)">
                <path d="M85.3271914,85.5854357 C104.805193,66.1074339 104.805193,34.5273535 85.3271914,15.0493518 C65.8491897,-4.4286499 34.2691093,-4.4286499 14.7911076,15.0493518 C-4.68689416,34.5273535 -4.68689416,66.1074339 14.7911076,85.5854357 C34.2691093,105.063437 65.8491897,105.063437 85.3271914,85.5854357 L85.3271914,85.5854357 Z" id="Layer-1"></path>
                <path d="M5.19678934,72.2611337 C1.61913927,82.0029822 1.59946242,90.0278115 5.97409707,94.4024461 C15.7130979,104.141447 43.5430438,92.1015413 68.134021,67.5105642 C92.7249981,42.919587 104.764904,15.0896411 95.0259029,5.35064028 C90.4570282,0.781765568 81.9066148,1.00609317 71.5769482,5.07086125" id="Layer-2"></path>
            </g>
        </g>
    </g>
</svg>