<?xml version="1.0" encoding="UTF-8"?>
<svg width="103px" height="87px" viewBox="0 0 103 87" version="1.1" xmlns="http://www.w3.org/2000/svg" xmlns:xlink="http://www.w3.org/1999/xlink">
    <!-- Generator: Sketch 46 (44423) - http://www.bohemiancoding.com/sketch -->
    <title>science-35</title>
    <desc>Created with Sketch.</desc>
    <defs></defs>
    <g id="ALL" stroke="none" stroke-width="1" fill="none" fill-rule="evenodd" stroke-linecap="round" stroke-linejoin="round">
        <g id="Secondary" transform="translate(-6920.000000, -2913.000000)" stroke="#868E96" stroke-width="3.5">
            <g id="science-35" transform="translate(6922.000000, 2914.000000)">
                <path d="M75.4628046,79.5754745 L40.0351667,44.1478366 L40.0489613,44.134042 L29.5369402,33.6428694 C25.9160749,30.0220041 20.0488675,30.018629 16.4167389,33.6507576 L32.8184249,17.2490716 L49.2201109,0.847385558 C45.5879823,4.47951414 45.5913575,10.3467216 49.2122228,13.9675869 L59.7033954,24.479608 L59.71719,24.4658134 L95.1448318,59.8934552 C100.579872,65.3284959 100.579872,74.1404378 95.1448318,79.5754784 C89.7097911,85.0105191 80.8978492,85.0105191 75.4628085,79.5754784 L75.4628046,79.5754745 Z" id="Layer-1"></path>
                <path d="M40.8873301,45 L75.4628046,79.5754745 L75.4628085,79.5754784 C80.8978492,85.0105191 89.7097911,85.0105191 95.1448318,79.5754784 C100.579872,74.1404378 100.579872,65.3284959 95.1448318,59.8934552 L80.2513765,45 L40.8873301,45 L40.8873301,45 Z" id="Layer-2"></path>
                <path d="M12,47 C12.9656559,47 13.7608126,47.7202608 13.86373,48.645999 C13.959092,49.1985279 14.6562377,52.9894708 16.4130249,56.5983203 C18.0622888,59.986292 20.9208771,64.2866987 21.6477195,65.3643046 C23.124975,67.3101169 24,69.7267344 24,72.345 C24,78.7818788 18.7113636,84 12.1875,84 C12.124885,84 12.0623838,83.9995193 12,83.9985615 C11.9376162,83.9995193 11.875115,84 11.8125,84 C5.28863639,84 0,78.7818788 0,72.345 C0,69.7267344 0.875024981,67.3101169 2.35228047,65.3643046 C3.0791229,64.2866987 5.93771118,59.986292 7.5869751,56.5983203 C9.34376229,52.9894708 10.040908,49.1985279 10.13627,48.645999 C10.2391874,47.7202608 11.0343441,47 12,47 L12,47 Z" id="Layer-3"></path>
            </g>
        </g>
    </g>
</svg>