<?xml version="1.0" encoding="UTF-8"?>
<svg width="91px" height="103px" viewBox="0 0 91 103" version="1.1" xmlns="http://www.w3.org/2000/svg" xmlns:xlink="http://www.w3.org/1999/xlink">
    <!-- Generator: Sketch 46 (44423) - http://www.bohemiancoding.com/sketch -->
    <title>science-17</title>
    <desc>Created with Sketch.</desc>
    <defs></defs>
    <g id="ALL" stroke="none" stroke-width="1" fill="none" fill-rule="evenodd" stroke-linecap="round" stroke-linejoin="round">
        <g id="Secondary" transform="translate(-1596.000000, -2912.000000)" stroke="#868E96" stroke-width="3.5">
            <g id="science-17" transform="translate(1598.000000, 2914.000000)">
                <path d="M19.8370778,68.5618219 L7,99 L47,99 L34.3576411,68.5618219 C34.2242771,68.0831456 34.0852638,67.6291104 33.9411634,67.1986427 C32.1427033,68.9331695 29.6959375,70 27,70 C24.3772527,70 21.9903316,68.9903086 20.2067377,67.338427 C20.0800957,67.7271106 19.9567793,68.1346546 19.8370778,68.5618219 Z" id="Layer-1"></path>
                <path d="M36.1882256,63.9531814 C34.6558917,67.5099777 31.1187338,70 27,70 C21.4771525,70 17,65.5228475 17,60 C17,55.8599815 19.5158245,52.3075654 23.102046,50.788179 C26.4010029,56.1310672 30.8877855,60.6456244 36.1882256,63.9531814 L36.1882256,63.9531814 Z" id="Layer-2"></path>
                <path d="M29.1497746,0 C21.653549,7.40966277 17,17.7519506 17,29.1942076 C17,51.7306244 35.0522206,70 57.3207632,70 C69.0619785,70 79.6310623,64.9211404 87,56.8158315 L29.1497746,0 Z" id="Layer-3"></path>
                <polygon id="Layer-4" points="46 16 71 16 71 41"></polygon>
                <path d="M75.0078106,11.9921894 L59,28" id="Layer-5"></path>
                <circle id="Layer-6" cx="80" cy="7" r="7"></circle>
                <path d="M0,99 L53.3851643,99" id="Layer-7"></path>
            </g>
        </g>
    </g>
</svg>