<?xml version="1.0" encoding="UTF-8"?>
<svg width="104px" height="104px" viewBox="0 0 104 104" version="1.1" xmlns="http://www.w3.org/2000/svg" xmlns:xlink="http://www.w3.org/1999/xlink">
    <!-- Generator: Sketch 46 (44423) - http://www.bohemiancoding.com/sketch -->
    <title>science-29</title>
    <desc>Created with Sketch.</desc>
    <defs></defs>
    <g id="ALL" stroke="none" stroke-width="1" fill="none" fill-rule="evenodd" stroke-linecap="round" stroke-linejoin="round">
        <g id="Secondary" transform="translate(-5126.000000, -2912.000000)" stroke="#868E96" stroke-width="3.5">
            <g id="science-29" transform="translate(5128.000000, 2914.000000)">
                <path d="M40,95 C40,92.2385763 42.236038,90 44.9952534,90 L55.0047466,90 C57.7635489,90 60,92.2441952 60,95 L60,100 L40,100 L40,95 Z" id="Layer-1"></path>
                <path d="M50,76.5 L50,89.5" id="Layer-2"></path>
                <rect id="Layer-3" x="0" y="0" width="100" height="75"></rect>
                <path d="M-5.55111512e-17,15 L100,15" id="Layer-4"></path>
                <path d="M20,0 L20,75" id="Layer-5"></path>
                <path d="M40,0 L40,75" id="Layer-6"></path>
                <path d="M60,0 L60,75" id="Layer-7"></path>
                <path d="M80,0 L80,75" id="Layer-8"></path>
                <path d="M0,30 L100,30" id="Layer-9"></path>
                <path d="M0,45 L100,45" id="Layer-10"></path>
                <path d="M0,60 L100,60" id="Layer-11"></path>
            </g>
        </g>
    </g>
</svg>