<?xml version="1.0" encoding="UTF-8"?>
<svg width="104px" height="104px" viewBox="0 0 104 104" version="1.1" xmlns="http://www.w3.org/2000/svg" xmlns:xlink="http://www.w3.org/1999/xlink">
    <!-- Generator: Sketch 46 (44423) - http://www.bohemiancoding.com/sketch -->
    <title>science-5</title>
    <desc>Created with Sketch.</desc>
    <defs></defs>
    <g id="ALL" stroke="none" stroke-width="1" fill="none" fill-rule="evenodd" stroke-linecap="round" stroke-linejoin="round">
        <g id="Secondary" transform="translate(-7539.000000, -2602.000000)" stroke="#868E96" stroke-width="3.5">
            <g id="science-5" transform="translate(7541.000000, 2604.000000)">
                <path d="M8.91089109,60.8621908 C8.91089109,45.7487931 9.6748952,36.0547177 9.6748952,36.0547177 C9.99876998,30.5457936 14.6660689,25.2884395 20.1235217,24.4322255 C20.1235217,24.4322255 30.7267981,22 50.0565754,22 C69.3863528,22 78.6091023,24.3496714 78.6091023,24.3496714 C84.0403138,25.3052659 88.7902968,30.5431824 89.168247,36.0608772 C89.168247,36.0608772 90.0990099,45.489673 90.0990099,60.8621908 C90.0990099,76.2347086 89.1670427,85.6823502 89.1670427,85.6823502 C88.7672648,91.1842678 84.0515357,96.5337419 78.6133581,97.4789736 C78.6133581,97.4789736 69.3128664,100 49.5049505,100 C29.6970346,100 20.0809904,97.4569077 20.0809904,97.4569077 C14.6577375,96.4559168 9.98069222,91.1751695 9.6748952,85.6696639 C9.6748952,85.6696639 8.91089109,75.9755885 8.91089109,60.8621908 Z" id="Layer-1"></path>
                <ellipse id="Layer-2" cx="30.1980198" cy="46.5" rx="7.42574257" ry="7.5"></ellipse>
                <ellipse id="Layer-3" cx="68.8118812" cy="46.5" rx="7.42574257" ry="7.5"></ellipse>
                <rect id="Layer-4" x="29.7029703" y="76" width="39.6039604" height="10" rx="5"></rect>
                <path d="M39.6039604,76 L39.6039604,86.0498753" id="Layer-5"></path>
                <path d="M49.5049505,76 L49.5049505,86.0498753" id="Layer-6"></path>
                <path d="M59.4059406,76 L59.4059406,86.0498753" id="Layer-7"></path>
                <path d="M49.5049505,21.5113344 L49.5049505,10.4773195" id="Layer-8"></path>
                <ellipse id="Layer-9" cx="49.5049505" cy="5" rx="4.95049505" ry="5"></ellipse>
                <path d="M49.5049505,47 L49.5049505,67" id="Layer-10"></path>
                <path d="M9.20176804,45.0099038 C9.08656165,45.003331 8.97048435,45 8.8536265,45 L5.99785865,45 C2.68949192,45 0,47.6865868 0,51.0006595 L0,58.9993405 C0,62.3234637 2.68533278,65 5.99785865,65 L8.8536265,65 C8.87914935,65 8.90463536,64.9998401 8.93008358,64.9995213 C8.9177189,63.6712506 8.91089109,62.2909366 8.91089109,60.8621908 C8.91089109,54.5176356 9.04553101,49.1281238 9.20176804,45.0099038 L9.20176804,45.0099038 Z" id="Layer-11"></path>
                <path d="M90.0991302,45.0099038 C90.2143366,45.003331 90.3304139,45 90.4472717,45 L93.3030396,45 C96.6114063,45 99.3008982,47.6865868 99.3008982,51.0006595 L99.3008982,58.9993405 C99.3008982,62.3234637 96.6155654,65 93.3030396,65 L90.4472717,65 C90.4217489,65 90.3962629,64.9998401 90.3708146,64.9995213 C90.3831793,63.6712506 90.3900071,62.2909366 90.3900071,60.8621908 C90.3900071,54.5176356 90.2553672,49.1281238 90.0991302,45.0099038 L90.0991302,45.0099038 Z" id="Layer-12"></path>
            </g>
        </g>
    </g>
</svg>