<?xml version="1.0" encoding="UTF-8"?>
<svg width="104px" height="104px" viewBox="0 0 104 104" version="1.1" xmlns="http://www.w3.org/2000/svg" xmlns:xlink="http://www.w3.org/1999/xlink">
    <!-- Generator: Sketch 46 (44423) - http://www.bohemiancoding.com/sketch -->
    <title>science-19</title>
    <desc>Created with Sketch.</desc>
    <defs></defs>
    <g id="ALL" stroke="none" stroke-width="1" fill="none" fill-rule="evenodd" stroke-linecap="round" stroke-linejoin="round">
        <g id="Secondary" transform="translate(-2173.000000, -2912.000000)" stroke="#868E96" stroke-width="3.5">
            <g id="science-19" transform="translate(2175.000000, 2914.000000)">
                <circle id="Layer-1" cx="8" cy="8" r="8"></circle>
                <circle id="Layer-2" cx="68" cy="92" r="8"></circle>
                <circle id="Layer-3" cx="94" cy="66" r="6"></circle>
                <circle id="Layer-4" cx="61" cy="39" r="5"></circle>
                <circle id="Layer-5" cx="43" cy="15" r="5"></circle>
                <circle id="Layer-6" cx="96" cy="4" r="4"></circle>
                <circle id="Layer-7" cx="90" cy="34" r="4"></circle>
                <circle id="Layer-8" cx="20" cy="34" r="4"></circle>
                <circle id="Layer-9" cx="25" cy="94" r="4"></circle>
                <circle id="Layer-10" cx="36" cy="66" r="6"></circle>
                <path d="M16.5,9.5 L37.5,13.5" id="Layer-11"></path>
                <path d="M46.5,18.5 L58.5,34.5" id="Layer-12"></path>
                <path d="M64.5,42.5 L89.5,61.5" id="Layer-13"></path>
                <path d="M40,71 L61.0605469,87.9829102" id="Layer-14"></path>
                <path d="M89.5,70.5 L73.5,85.5" id="Layer-15"></path>
                <path d="M57.5,43.5 L40.5,61.5" id="Layer-16"></path>
            </g>
        </g>
    </g>
</svg>