<?xml version="1.0" encoding="UTF-8"?>
<svg width="104px" height="92px" viewBox="0 0 104 92" version="1.1" xmlns="http://www.w3.org/2000/svg" xmlns:xlink="http://www.w3.org/1999/xlink">
    <!-- Generator: Sketch 46 (44423) - http://www.bohemiancoding.com/sketch -->
    <title>science-14</title>
    <desc>Created with Sketch.</desc>
    <defs></defs>
    <g id="ALL" stroke="none" stroke-width="1" fill="none" fill-rule="evenodd" stroke-linecap="round" stroke-linejoin="round">
        <g id="Secondary" transform="translate(-701.000000, -2912.000000)" stroke="#868E96" stroke-width="3.5">
            <g id="science-14" transform="translate(703.000000, 2914.000000)">
                <path d="M100,0 C74.221315,0 52.4802902,11.4336432 38.9806031,28.8471471" id="Layer-1"></path>
                <path d="M96.3789062,15.4257812 C74.6263855,15.4257812 54.1214743,25.2055733 42.5996754,40.1658655" id="Layer-2"></path>
                <path d="M91.0097656,29.9570313 C75.9477749,29.9570313 60.8857842,36.3958582 50.8766542,45.5883778" id="Layer-3"></path>
                <path d="M44.0520862,45.2333279 L35.8948276,19.2072858 C35.4007152,17.6308014 34.5985524,17.6295255 34.1040401,19.2072858 L25.9467815,45.2333278 L1.4445321,46.7704014 C-0.202127606,46.8736996 -0.453557413,47.738297 0.894218938,48.7008267 L20.4766879,62.6858683 L13.0538402,86.3687446 C12.5597278,87.945229 13.2528352,88.4496014 14.6028322,87.4924422 L32.5550481,74.7641703 C33.8977655,73.8121723 36.0938226,73.8070111 37.4438196,74.7641703 L55.3960355,87.4924422 C56.738753,88.4444402 57.4395398,87.9465048 56.9450275,86.3687446 L49.5221798,62.6858683 L69.1046488,48.7008267 C70.4512771,47.7391168 70.2060415,46.8740161 68.5543355,46.7704014 L44.0520862,45.2333279 L44.0520862,45.2333279 Z" id="Layer-4"></path>
            </g>
        </g>
    </g>
</svg>