<?xml version="1.0" encoding="UTF-8"?>
<svg width="104px" height="84px" viewBox="0 0 104 84" version="1.1" xmlns="http://www.w3.org/2000/svg" xmlns:xlink="http://www.w3.org/1999/xlink">
    <!-- Generator: Sketch 46 (44423) - http://www.bohemiancoding.com/sketch -->
    <title>sports-24</title>
    <desc>Created with Sketch.</desc>
    <defs></defs>
    <g id="ALL" stroke="none" stroke-width="1" fill="none" fill-rule="evenodd" stroke-linecap="round" stroke-linejoin="round">
        <g id="Secondary" transform="translate(-701.000000, -4438.000000)" stroke="#868E96" stroke-width="3.5">
            <g id="sports-24" transform="translate(703.000000, 4440.000000)">
                <path d="M8.70237141,67.9329158 L27.2024966,67.9329158 C28.3871863,67.9329158 29.8569208,67.1182941 30.4858728,66.1158225 L68.8790101,4.85695771 C70.4077884,2.41781598 73.3924942,0.444302153 75.5447742,0.44775394 C77.6972359,0.453022457 78.2288112,2.44724701 76.7312806,4.90564608 L32.0736948,78.1687361 C31.4552799,79.1799281 29.9959007,80 28.811211,80 L2.80272233,80 C0.433161355,80 -0.643977877,78.2730164 0.396826754,76.1447172 L2.52657936,71.7860185 C3.56883738,69.6580827 6.33099371,67.9329158 8.70237141,67.9329158 L8.70237141,67.9329158 Z" id="Layer-1"></path>
                <path d="M54.2581848,41.7739275 L69.5141272,66.1158225 C70.1430792,67.1182941 71.6128137,67.9329158 72.7975034,67.9329158 L91.2976286,67.9329158 C93.6690063,67.9329158 96.4311626,69.6580827 97.4734206,71.7860185 L99.6031732,76.1447172 C100.643978,78.2730164 99.5668386,80 97.1972777,80 L71.188789,80 C70.0040993,80 68.5447201,79.1799281 67.9263052,78.1687361 L50,48.759701 L54.2581848,41.7739275 L54.2581848,41.7739275 L54.2581848,41.7739275 Z M50,34.9797038 L31.1209899,4.85695771 C29.5922116,2.41781598 26.6075058,0.444302153 24.4552258,0.44775394 C22.3027641,0.453022457 21.7711888,2.44724701 23.2687194,4.90564608 L45.7418152,41.7739275 L50,34.9797038 L50,34.9797038 L50,34.9797038 Z" id="Layer-2"></path>
            </g>
        </g>
    </g>
</svg>