<?xml version="1.0" encoding="UTF-8"?>
<svg width="68px" height="104px" viewBox="0 0 68 104" version="1.1" xmlns="http://www.w3.org/2000/svg" xmlns:xlink="http://www.w3.org/1999/xlink">
    <!-- Generator: Sketch 46 (44423) - http://www.bohemiancoding.com/sketch -->
    <title>sports-37</title>
    <desc>Created with Sketch.</desc>
    <defs></defs>
    <g id="ALL" stroke="none" stroke-width="1" fill="none" fill-rule="evenodd" stroke-linecap="round" stroke-linejoin="round">
        <g id="Secondary" transform="translate(-4404.000000, -4438.000000)" stroke="#868E96" stroke-width="3.5">
            <g id="sports-37" transform="translate(4406.000000, 4440.000000)">
                <path d="M64,68 C64,50.326888 49.673112,36 32,36 C14.326888,36 0,50.326888 0,68 C0,85.673112 14.326888,100 32,100 C49.673112,100 64,85.673112 64,68 Z" id="Layer-1"></path>
                <path d="M32.5,90 C44.3741221,90 54,80.3741221 54,68.5 C54,56.6258779 44.3741221,47 32.5,47 C20.6258779,47 11,56.6258779 11,68.5 C11,80.3741221 20.6258779,90 32.5,90 L32.5,90 Z" id="Layer-2"></path>
                <path d="M33.2527036,59.7232842 L33.2527036,77.7232842" id="Layer-3"></path>
                <path d="M28,62.3332843 L33.1961524,59.3332843" id="Layer-4"></path>
                <path d="M38.1413756,77.7232842 L28.3640317,77.7232842" id="Layer-5"></path>
                <path d="M14.1906297,41.4097933 L13.3333333,38.9608171 L13.3333333,0 L23.3333333,0 L23.3333333,37.1874759 C20.0402357,38.1118343 16.9620284,39.5499129 14.1906297,41.4097933 L14.1906297,41.4097933 L14.1906297,41.4097933 Z M49.8093703,41.4097933 L50.6666667,38.9608171 L50.6666667,0 L40.6666667,0 L40.6666667,1.44063817e-15 L40.6666667,37.1874759 C43.9597643,38.1118343 47.0379716,39.5499129 49.8093703,41.4097933 L49.8093703,41.4097933 L49.8093703,41.4097933 Z M23.6666667,37.0958652 L23.6666667,2.96059473e-15 L23.6666667,0 L40.3333333,0 L40.3333333,37.0958652 C37.6763513,36.3811725 34.8826894,36 32,36 C29.1173106,36 26.3236487,36.3811725 23.6666667,37.0958652 L23.6666667,37.0958652 L23.6666667,37.0958652 Z" id="Layer-6"></path>
            </g>
        </g>
    </g>
</svg>