<?xml version="1.0" encoding="UTF-8"?>
<svg width="103px" height="103px" viewBox="0 0 103 103" version="1.1" xmlns="http://www.w3.org/2000/svg" xmlns:xlink="http://www.w3.org/1999/xlink">
    <!-- Generator: Sketch 46 (44423) - http://www.bohemiancoding.com/sketch -->
    <title>sports-30</title>
    <desc>Created with Sketch.</desc>
    <defs></defs>
    <g id="ALL" stroke="none" stroke-width="1" fill="none" fill-rule="evenodd" stroke-linecap="round" stroke-linejoin="round">
        <g id="Secondary" transform="translate(-2477.000000, -4438.000000)" stroke="#868E96" stroke-width="3.5">
            <g id="sports-30" transform="translate(2479.000000, 4440.000000)">
                <path d="M4.80200673,90.0728408 L8.92715917,94.1979933 C15.3298348,100.600669 25.8082708,100.600669 32.2109465,94.1979933 L94.1979933,32.2109465 C100.600669,25.8082708 100.600669,15.3298348 94.1979933,8.92715917 L90.0728408,4.80200673 C83.6701652,-1.60066891 73.1917292,-1.60066891 66.7890535,4.80200673 L4.80200673,66.7890535 C-1.60066891,73.1917292 -1.60066891,83.6701652 4.80200673,90.0728408 L4.80200673,90.0728408 L4.80200673,90.0728408 L4.80200673,90.0728408 Z" id="Layer-1"></path>
                <path d="M77,49.5803369 L79.5324599,52.1127968 C80.7153975,53.2957344 82.632056,53.2957344 83.8149936,52.1127968 L95.1127968,40.8149936 C96.2957344,39.632056 96.2957344,37.7153975 95.1127968,36.5324599 L92.5803369,34 L77,49.5803369 L77,49.5803369 L77,49.5803369 L77,49.5803369 Z" id="Layer-2"></path>
                <path d="M49.4196631,23 L46.8872032,20.4675401 C45.7042656,19.2846025 45.7042656,17.367944 46.8872032,16.1850064 L58.1850064,4.88720323 C59.367944,3.70426559 61.2846025,3.70426559 62.4675401,4.88720323 L65,7.41966309 L49.4196631,23 L49.4196631,23 L49.4196631,23 L49.4196631,23 Z" id="Layer-3"></path>
                <path d="M34,92.5803369 L36.5324599,95.1127968 C37.7153975,96.2957344 39.632056,96.2957344 40.8149936,95.1127968 L52.1127968,83.8149936 C53.2957344,82.632056 53.2957344,80.7153975 52.1127968,79.5324599 L49.5803369,77 L34,92.5803369 L34,92.5803369 L34,92.5803369 L34,92.5803369 Z" id="Layer-4"></path>
                <path d="M6.41966309,65 L3.88720323,62.4675401 C2.70426559,61.2846025 2.70426559,59.367944 3.88720323,58.1850064 L15.1850064,46.8872032 C16.367944,45.7042656 18.2846025,45.7042656 19.4675401,46.8872032 L22,49.4196631 L6.41966309,65 L6.41966309,65 L6.41966309,65 L6.41966309,65 Z" id="Layer-5"></path>
                <path d="M72,19 L81,28" id="Layer-6"></path>
                <path d="M67,24 L76,33" id="Layer-7"></path>
                <path d="M24,67 L33,76" id="Layer-8"></path>
                <path d="M19,72 L28,81" id="Layer-9"></path>
            </g>
        </g>
    </g>
</svg>