<?xml version="1.0" encoding="UTF-8"?>
<svg width="72px" height="104px" viewBox="0 0 72 104" version="1.1" xmlns="http://www.w3.org/2000/svg" xmlns:xlink="http://www.w3.org/1999/xlink">
    <!-- Generator: Sketch 46 (44423) - http://www.bohemiancoding.com/sketch -->
    <title>sports-38</title>
    <desc>Created with Sketch.</desc>
    <defs></defs>
    <g id="ALL" stroke="none" stroke-width="1" fill="none" fill-rule="evenodd" stroke-linecap="round" stroke-linejoin="round">
        <g id="Secondary" transform="translate(-4668.000000, -4438.000000)" stroke="#868E96" stroke-width="3.5">
            <g id="sports-38" transform="translate(4670.000000, 4440.000000)">
                <path d="M68,67.500025 C68,70.8958409 62.5473457,73.3895925 61.5526746,76.4553947 C60.5225373,79.6320799 63.4315654,84.8466195 61.507278,87.4915935 C60.5553688,88.7990799 58.6639128,89.1868662 56.6666667,89.4716753 C54.5838966,89.7664172 52.3852032,89.9478436 51.0226983,90.940317 C48.4361074,92.8245164 47.7158423,98.5756322 44.7036587,99.7773034 C44.6406304,99.8050748 44.5751702,99.830211 44.50971,99.8502794 C41.4446312,100.847821 37.3950145,96.4696669 34,96.4696669 C30.6049855,96.4696669 26.5553688,100.847821 23.49029,99.8529146 C23.4248298,99.8328462 23.3593696,99.8075074 23.2963413,99.7799387 C20.2841577,98.5758349 19.5638926,92.8247191 16.9773017,90.940317 C15.6147968,89.9478436 13.4161034,89.7664172 11.3333333,89.4716753 C9.33608717,89.1870689 7.44483388,88.7990799 6.49272201,87.4915935 C4.56863727,84.8466195 7.47746266,79.6320799 6.44732544,76.4553947 C5.45245163,73.3895925 7.10542736e-15,70.8956382 7.10542736e-15,67.500025 C7.10542736e-15,64.1044119 5.45265429,61.6104576 6.44732544,58.5446553 C7.47746266,55.3679701 4.56843461,50.1534305 6.49272201,47.5084565 C8.43443844,44.8381436 14.3076189,46.0045431 16.9773017,44.059733 C19.6192196,42.1351941 20.3143545,36.1799483 23.4900874,35.1471354 C26.5551661,34.1520267 30.6047829,38.5303832 33.9997973,38.5303832 C37.3948118,38.5303832 41.4444285,34.1522295 44.5095073,35.1471354 C47.6854428,36.1799483 48.380375,42.1351941 51.022293,44.059733 C53.6919757,46.0045431 59.5651562,44.8381436 61.5068727,47.5084565 C63.4309574,50.1534305 60.522132,55.3679701 61.5522692,58.5446553 C62.5475484,61.6104576 68,64.1042092 68,67.500025 L68,67.500025 Z" id="Layer-1"></path>
                <path d="M34.5,88 C45.8218374,88 55,78.8218374 55,67.5 C55,56.1781626 45.8218374,47 34.5,47 C23.1781626,47 14,56.1781626 14,67.5 C14,78.8218374 23.1781626,88 34.5,88 L34.5,88 Z" id="Layer-2"></path>
                <polygon id="Layer-3" points="34.5455726 55 38.3465423 63.0053728 47.0911452 64.1671493 40.6953509 70.2764191 42.2992427 79 34.5455726 74.7702962 26.7919026 79 28.3957944 70.2764191 22 64.1671493 30.744603 63.0053728"></polygon>
                <path d="M17.0887207,43.9753049 L15.3333333,38.9608171 L15.3333333,0 L25.3333333,0 L25.3333333,35.09514 C24.6908521,34.9629801 24.0726846,34.9579893 23.4900874,35.1471354 C20.3594656,36.1652773 19.6394688,41.9669997 17.0887207,43.9753049 L17.0887207,43.9753049 L17.0887207,43.9753049 Z M50.9111917,43.975555 L52.6666667,38.9608171 L52.6666667,0 L42.6666667,0 L42.6666667,1.44063817e-15 L42.6666667,35.0951325 C43.3090026,34.9630405 43.9270326,34.9580676 44.5095073,35.1471354 C47.6404588,36.1653195 48.3601913,41.9674814 50.9111917,43.975555 L50.9111917,43.975555 L50.9111917,43.975555 Z M25.6666667,35.1742033 L25.6666667,2.96059473e-15 L25.6666667,0 L42.3333333,0 L42.3333333,35.1741768 C39.6731841,35.8851323 36.6387376,38.5303832 33.9997973,38.5303832 C31.3609911,38.5303832 28.3267188,35.8852786 25.6666667,35.1742033 L25.6666667,35.1742033 L25.6666667,35.1742033 Z" id="Layer-4"></path>
            </g>
        </g>
    </g>
</svg>