<?xml version="1.0" encoding="UTF-8"?>
<svg width="105px" height="105px" viewBox="0 0 105 105" version="1.1" xmlns="http://www.w3.org/2000/svg" xmlns:xlink="http://www.w3.org/1999/xlink">
    <!-- Generator: Sketch 46 (44423) - http://www.bohemiancoding.com/sketch -->
    <title>sports-3</title>
    <desc>Created with Sketch.</desc>
    <defs></defs>
    <g id="ALL" stroke="none" stroke-width="1" fill="none" fill-rule="evenodd" stroke-linecap="round" stroke-linejoin="round">
        <g id="Secondary" transform="translate(-3743.000000, -4137.000000)" stroke="#868E96" stroke-width="3.5">
            <g id="sports-3" transform="translate(3745.000000, 4139.000000)">
                <path d="M50.2483919,100.496784 C77.9998125,100.496784 100.496784,77.9998125 100.496784,50.2483919 C100.496784,22.4969714 77.9998125,0 50.2483919,0 C22.4969714,0 0,22.4969714 0,50.2483919 C0,77.9998125 22.4969714,100.496784 50.2483919,100.496784 Z" id="Layer-1"></path>
                <path d="M16.0263248,14.3933384 C16.0263248,14.3933384 30.859743,25.2337982 30.859743,50.8933384 C30.859743,76.5528785 16.0263248,87.3933384 16.0263248,87.3933384" id="Layer-2"></path>
                <path d="M84.470459,14.3933384 C84.470459,14.3933384 69.6370408,25.2337982 69.6370408,50.8933384 C69.6370408,76.5528785 84.470459,87.3933384 84.470459,87.3933384" id="Layer-3"></path>
            </g>
        </g>
    </g>
</svg>