<?xml version="1.0" encoding="UTF-8"?>
<svg width="104px" height="104px" viewBox="0 0 104 104" version="1.1" xmlns="http://www.w3.org/2000/svg" xmlns:xlink="http://www.w3.org/1999/xlink">
    <!-- Generator: Sketch 46 (44423) - http://www.bohemiancoding.com/sketch -->
    <title>sports-40</title>
    <desc>Created with Sketch.</desc>
    <defs></defs>
    <g id="ALL" stroke="none" stroke-width="1" fill="none" fill-rule="evenodd" stroke-linecap="round" stroke-linejoin="round">
        <g id="Secondary" transform="translate(-5218.000000, -4438.000000)" stroke="#868E96" stroke-width="3.5">
            <g id="sports-40" transform="translate(5220.000000, 4440.000000)">
                <path d="M16,10.9497166 L28.7283508,10.9497166 L28.7283508,20.5625714 C28.7283508,24.5583478 29.6747522,28.3253977 31.3421137,31.6306342 C24.6670175,30.6945205 16.5631438,25.6326091 16,17.3913204 L16,10.9497166 Z" id="Layer-1"></path>
                <path d="M81.8733413,17.3913204 C81.8733407,25.6326091 73.2063238,30.6945205 66.5312276,31.6306342 C68.1985891,28.3253977 69.1449905,24.5583478 69.1449905,20.5625714 L69.1449905,10.9497166 L81.8733413,10.9497166 L81.8733413,17.3913204 Z" id="Layer-2"></path>
                <path d="M49.1066664,41.4633781 C38.0576354,41.4633781 29.0684209,32.8308317 29.0684209,22.2201967 L29.0684209,5.92333973 L69.1449118,5.92333973 L69.1449118,22.2201967 C69.1449118,32.8308317 60.1556974,41.4633781 49.1066664,41.4633781 L49.1066664,41.4633781 Z" id="Layer-3"></path>
                <rect id="Layer-4" x="26.4547368" y="0" width="45.3038593" height="5.92333973" rx="2.96166986"></rect>
                <polygon id="Layer-5" points="76.0097641 90 76.0097641 75.6760202 23.9902359 75.6760202 23.9902359 90 2.27373675e-13 90 2.27373675e-13 100 100 100 100 90"></polygon>
                <path d="M52.255024,56.7869056 C52.255024,58.6577087 52.255024,62.8059068 54.3970735,62.8059068 L60.5953139,62.871411 C62.8056748,62.8947705 64.5975263,64.7083852 64.5975263,66.9070317 L64.5975263,69.8129255 C64.5975263,69.8722156 64.5544368,69.9207257 64.5017717,69.9207257 L33.8603073,69.9207257 C33.8076422,69.9207257 33.7645527,69.8722156 33.7645527,69.8129255 L33.7645527,66.9070317 C33.7645527,64.7015794 35.5647083,62.8946827 37.7667651,62.871411 L43.9650055,62.8059068 C46.1070551,62.8059068 46.1070551,58.6577087 46.1070551,56.7869056 L46.1070551,41.2482378 C47.0857725,41.3899236 48.0874559,41.4633781 49.1066664,41.4633781 C50.1775721,41.4633781 51.2291277,41.3822833 52.255024,41.2261526 L52.255024,56.7869056 Z" id="Layer-6"></path>
            </g>
        </g>
    </g>
</svg>