<?xml version="1.0" encoding="UTF-8"?>
<svg width="103px" height="104px" viewBox="0 0 103 104" version="1.1" xmlns="http://www.w3.org/2000/svg" xmlns:xlink="http://www.w3.org/1999/xlink">
    <!-- Generator: Sketch 46 (44423) - http://www.bohemiancoding.com/sketch -->
    <title>sports-13</title>
    <desc>Created with Sketch.</desc>
    <defs></defs>
    <g id="ALL" stroke="none" stroke-width="1" fill="none" fill-rule="evenodd" stroke-linecap="round" stroke-linejoin="round">
        <g id="Secondary" transform="translate(-6746.000000, -4137.000000)" stroke="#868E96" stroke-width="3.5">
            <g id="sports-13" transform="translate(6747.000000, 4139.000000)">
                <path d="M82.9805787,99.6207689 C91.6259591,99.6207689 98.6344247,92.5422187 98.6344247,83.8103845 C98.6344247,75.0785502 91.6259591,68 82.9805787,68 C74.3351983,68 67.3267327,75.0785502 67.3267327,83.8103845 C67.3267327,92.5422187 74.3351983,99.6207689 82.9805787,99.6207689 Z" id="Layer-1"></path>
                <path d="M72.3194023,72.528786 C72.3194023,72.528786 76.9404466,75.939678 76.9404466,84.0133134 C76.9404466,92.0869488 72.3194023,95.4978408 72.3194023,95.4978408" id="Layer-2"></path>
                <path d="M93.6417551,72.528786 C93.6417551,72.528786 89.0207108,75.939678 89.0207108,84.0133134 C89.0207108,92.0869488 93.6417551,95.4978408 93.6417551,95.4978408" id="Layer-3"></path>
                <path d="M78.1694021,4.16289792 C82.6954478,-1.01791575 90.2268383,-1.24128356 95.0345053,3.61446014 L96.2331597,4.82510105 C101.037206,9.67718749 100.797714,17.3071163 95.6901519,21.8588553 L17.0756047,91.91829 C17.9557271,93.9947926 17.5610389,96.4981909 15.8820178,98.1940022 C13.6643783,100.433818 10.1089256,100.418112 7.90639802,98.1935596 L2.59048694,92.8244894 C0.395072021,90.6071203 0.387763107,86.9934218 2.59004866,84.7691134 C4.2818321,83.0604122 6.75219533,82.6643781 8.80650968,83.5602888 L78.1694021,4.16289792 L78.1694021,4.16289792 L78.1694021,4.16289792 Z" id="Layer-4"></path>
                <polygon id="Layer-5" points="46.4642176 65.7278497 25.6360723 84.2894027 16.3569789 74.9175183 34.7347542 53.8810916 46.4642176 65.7278497"></polygon>
            </g>
        </g>
    </g>
</svg>