<?xml version="1.0" encoding="UTF-8"?>
<svg width="80px" height="105px" viewBox="0 0 80 105" version="1.1" xmlns="http://www.w3.org/2000/svg" xmlns:xlink="http://www.w3.org/1999/xlink">
    <!-- Generator: Sketch 46 (44423) - http://www.bohemiancoding.com/sketch -->
    <title>sports-19</title>
    <desc>Created with Sketch.</desc>
    <defs></defs>
    <g id="ALL" stroke="none" stroke-width="1" fill="none" fill-rule="evenodd" stroke-linecap="round" stroke-linejoin="round">
        <g id="Secondary" transform="translate(-8492.000000, -4137.000000)" stroke="#868E96" stroke-width="3.5">
            <g id="sports-19" transform="translate(8493.000000, 4139.000000)">
                <path d="M67.3552204,38.68091 L67.3552204,23.0483425 C67.3552204,10.3395335 57.0156868,0 44.3066586,0 L32.9358037,0 C20.2269948,0 9.88746123,10.3395335 9.88746123,23.0483425 L9.88746123,38.6806907 C4.12899467,45.4755233 0.967036337,54.0827354 0.967036337,63.0134691 C0.967036337,83.7761035 17.8585967,100.667883 38.6212311,100.667883 C59.3838655,100.667883 76.2754259,83.7763228 76.2754259,63.0134691 C76.2756453,54.0827354 73.1136869,45.4755233 67.3552204,38.68091 L67.3552204,38.68091 L67.3552204,38.68091 Z M21.3201691,34.0087742 C21.6893128,34.0087742 22.0588952,33.9155561 22.3918484,33.7291199 C27.3247315,30.9665737 32.9366811,29.5062297 38.6212312,29.5062297 C44.3057813,29.5062297 49.9177309,30.9663544 54.850614,33.7291199 C55.5296805,34.1094497 56.3596507,34.1013343 57.0314791,33.7078442 C57.7030882,33.3141348 58.1156606,32.5940523 58.1156606,31.8156262 L58.1156606,22.809002 C58.1156606,15.1947273 51.9209333,9 44.3066586,9 L32.9358037,9 C25.3215291,9 19.1268018,15.1947273 19.1268018,22.809002 L19.1268018,31.8158455 C19.1265824,32.5938329 19.5393742,33.3141348 20.2109832,33.7076249 C20.5533679,33.908318 20.9365491,34.0087742 21.3201691,34.0087742 L21.3201691,34.0087742 L21.3201691,34.0087742 Z" id="Layer-1"></path>
                <path d="M24.8887064,89.5122932 C27.162327,90.696761 29.5928944,91.5924095 32.1130234,92.1742271" id="Layer-2"></path>
                <path d="M9.18053827,58.2265401 C7.51644317,71.3154371 11.8360761,78.5644237 19.4876208,85.9041403" id="Layer-3"></path>
            </g>
        </g>
    </g>
</svg>