<?xml version="1.0" encoding="UTF-8"?>
<svg width="74px" height="104px" viewBox="0 0 74 104" version="1.1" xmlns="http://www.w3.org/2000/svg" xmlns:xlink="http://www.w3.org/1999/xlink">
    <!-- Generator: Sketch 46 (44423) - http://www.bohemiancoding.com/sketch -->
    <title>sports-33</title>
    <desc>Created with Sketch.</desc>
    <defs></defs>
    <g id="ALL" stroke="none" stroke-width="1" fill="none" fill-rule="evenodd" stroke-linecap="round" stroke-linejoin="round">
        <g id="Secondary" transform="translate(-3308.000000, -4438.000000)" stroke="#868E96" stroke-width="3.5">
            <g id="sports-33" transform="translate(3310.000000, 4440.000000)">
                <path d="M35,64 C52.673112,64 67,49.673112 67,32 C67,14.326888 52.673112,0 35,0 C17.326888,0 3,14.326888 3,32 C3,49.673112 17.326888,64 35,64 L35,64 Z" id="Layer-1"></path>
                <path d="M35,54 C47.1502645,54 57,44.1502645 57,32 C57,19.8497355 47.1502645,10 35,10 C22.8497355,10 13,19.8497355 13,32 C13,44.1502645 22.8497355,54 35,54 L35,54 Z" id="Layer-2"></path>
                <path d="M36.2527036,22.6949999 L36.2527036,40.6949999" id="Layer-3"></path>
                <path d="M31,25.3050001 L36.1961524,22.3050001" id="Layer-4"></path>
                <path d="M41.1413756,40.6949999 L31.3640317,40.6949999" id="Layer-5"></path>
                <path d="M13.4088874,55.6185649 L0,91.4863839 L13.1436306,85.4775786 L19.9955519,100 L33.5805495,63.9690816 C25.8188941,63.6302864 18.7748443,60.5266183 13.4088874,55.6185649 L13.4088874,55.6185649 L13.4088874,55.6185649 Z M56.5911126,55.6185649 L70,91.4863839 L56.8563694,85.4775786 L50.0044481,100 L36.5326657,63.9639414 C44.2495863,63.6000531 51.2512541,60.5027471 56.5911126,55.6185649 L56.5911126,55.6185649 L56.5911126,55.6185649 Z" id="Layer-6"></path>
            </g>
        </g>
    </g>
</svg>