<?xml version="1.0" encoding="UTF-8"?>
<svg width="88px" height="104px" viewBox="0 0 88 104" version="1.1" xmlns="http://www.w3.org/2000/svg" xmlns:xlink="http://www.w3.org/1999/xlink">
    <!-- Generator: Sketch 46 (44423) - http://www.bohemiancoding.com/sketch -->
    <title>sports-15</title>
    <desc>Created with Sketch.</desc>
    <defs></defs>
    <g id="ALL" stroke="none" stroke-width="1" fill="none" fill-rule="evenodd" stroke-linecap="round" stroke-linejoin="round">
        <g id="Secondary" transform="translate(-7323.000000, -4137.000000)" stroke="#868E96" stroke-width="3.5">
            <g id="sports-15" transform="translate(7325.000000, 4139.000000)">
                <path d="M51.1,100 L33.7,100 C33.7,100 25,86.9565217 25,69.4611923 C25,51.9658628 33.7,39.1304348 33.7,39.1304348 L33.7,30.4347826 C33.7,21.7391304 29.35,17.3913043 29.35,10.8695652 C29.35,6.03360715 33.7,0 42.4,0 C51.1,0 55.45,6.06708913 55.45,10.8695652 C55.45,17.3913043 51.1,21.7391304 51.1,30.4347826 L51.1,39.1304348 C51.1011786,39.1321751 59.8,51.9779273 59.8,69.4611923 C59.8,86.9456416 51.1,100 51.1,100 Z" id="Layer-1"></path>
                <path d="M26.5935068,56.331091 C24.5804215,50.9251187 22.3719783,47.6529884 22.3714286,47.6521739 L22.3714286,40.173913 C22.3714286,32.6956522 26.1,28.9565217 26.1,23.3478261 C26.1,19.2176967 22.3714286,14 14.9142857,14 C7.45714286,14 3.72857143,19.1889022 3.72857143,23.3478261 C3.72857143,28.9565217 7.45714286,32.6956522 7.45714286,40.173913 L7.45714286,47.6521739 C7.45714286,47.6521739 0,58.690642 0,73.7366253 C0,88.7826087 7.45714286,100 7.45714286,100 L22.3714286,100 C22.3714286,100 25.6811359,95.0172269 27.8906566,87.2447197 C26.2976648,82.3108521 25,76.2180343 25,69.4611923 C25,64.6810378 25.6494696,60.2487529 26.5935068,56.331091 L26.5935068,56.331091 Z" id="Layer-2"></path>
                <path d="M56.3942366,88.7688162 C58.5749498,95.6644672 61.4571429,100 61.4571429,100 L76.3714286,100 C76.3714286,100 83.8285714,88.7732517 83.8285714,73.7366253 C83.8285714,58.7010175 76.3724388,47.6536706 76.3714286,47.6521739 L76.3714286,40.173913 C76.3714286,32.6956522 80.1,28.9565217 80.1,23.3478261 C80.1,19.2176967 76.3714286,14 68.9142857,14 C61.4571429,14 57.7285714,19.1889022 57.7285714,23.3478261 C57.7285714,28.9565217 61.4571429,32.6956522 61.4571429,40.173913 L61.4571429,47.6521739 C61.4571429,47.6521739 59.6540709,50.321179 57.82115,54.8232492 C58.9692386,59.0981988 59.8,64.0582479 59.8,69.4611923 C59.8,76.9293033 58.2127809,83.5891931 56.3942366,88.7688162 L56.3942366,88.7688162 Z" id="Layer-3"></path>
                <polygon id="Layer-4" points="7.71428571 39.8 22.2857143 39.8 22.2857143 46.68 7.71428571 46.68"></polygon>
                <polygon id="Layer-5" points="61.7142857 39.8 76.2857143 39.8 76.2857143 46.68 61.7142857 46.68"></polygon>
                <polygon id="Layer-6" points="34 30 51 30 51 38 34 38"></polygon>
            </g>
        </g>
    </g>
</svg>