<?xml version="1.0" encoding="UTF-8"?>
<svg width="72px" height="104px" viewBox="0 0 72 104" version="1.1" xmlns="http://www.w3.org/2000/svg" xmlns:xlink="http://www.w3.org/1999/xlink">
    <!-- Generator: Sketch 46 (44423) - http://www.bohemiancoding.com/sketch -->
    <title>sports-20</title>
    <desc>Created with Sketch.</desc>
    <defs></defs>
    <g id="ALL" stroke="none" stroke-width="1" fill="none" fill-rule="evenodd" stroke-linecap="round" stroke-linejoin="round">
        <g id="Secondary" transform="translate(-8768.000000, -4137.000000)" stroke="#868E96" stroke-width="3.5">
            <g id="sports-20" transform="translate(8770.000000, 4139.000000)">
                <path d="M6.5,10 L6.5,94.9987481" id="Layer-1"></path>
                <path d="M10.3527426,53.1933611 C15.3402741,51.3986142 24.89784,48.9150351 37.2806147,54.30899 C55.4688584,62.2318161 68.0612294,54.3089891 68.0612294,54.3089891 L68.0612294,3.60005738 C68.0612294,3.60005738 55.4728365,11.700187 37.2806147,3.60005742 C19.0883926,-4.50007175 6.5,3.60005738 6.5,3.60005738 L6.5,32.5765898 L6.5,54.8234903 L10.3527426,53.1933611 Z" id="Layer-2"></path>
                <path d="M47.5748239,50.6046356 C46.9310816,50.5064523 46.0028313,50.3030297 46.2203432,50.344814 L46.2203432,37.8917011 C43.551247,37.4409318 40.6821542,36.6607097 37.7088008,35.4024495 C34.8294035,34.1839497 31.1239773,32.3951614 28.6364437,31.9137223 L28.6364437,44.3134555 C28.9806709,44.3711248 28.1908278,44.2981245 27.4301493,44.1967392 C18.8013671,43.046672 12.0525442,45.1002142 12.0525442,45.1002142 L12.0525442,32.570598 C12.0529742,32.5704661 19.4407306,30.3052939 28.6364437,31.8458742 L28.6364437,19.446141 C18.5553503,17.4950388 12.0529103,20.5918212 12.0525442,20.5919956 L12.0525442,8.20351035 C12.0525442,8.20351035 18.5543307,5.13055464 28.6364437,7.0613678 L28.6364437,19.3782929 C31.294297,19.8235696 35.1031859,21.5867764 37.9283935,22.8144959 C40.8842496,24.09899 43.6651613,24.9187977 46.2203432,25.4096513 L46.2203432,13.0042205 C55.8317426,14.6252601 62.8625455,12.0087922 62.8625455,12.0087922 L62.8625455,24.5994808 C62.8252537,24.4809008 62.8042428,24.4156092 62.8042428,24.4156092 C62.8038384,24.4157609 55.8003197,27.0420304 46.2203432,25.4241198 L46.2203432,37.8772327 C48.5739999,38.3293731 50.7361289,38.5024019 52.6670383,38.5024025 C58.965659,38.5024046 62.8039586,36.6612784 62.8042428,36.6611421 L62.8625455,49.1706935 C62.8625455,49.1706935 56.8715731,52.0225717 47.5748239,50.6046356 Z" id="Layer-3"></path>
                <path d="M10.4689555,95 L2.63613287,95 C1.21157525,95 0.0525441729,100 0.0525441729,100 L13.0525442,100 C13.0525442,100 11.8935131,95 10.4689555,95 Z" id="Layer-4"></path>
            </g>
        </g>
    </g>
</svg>