<?xml version="1.0" encoding="UTF-8"?>
<svg width="90px" height="104px" viewBox="0 0 90 104" version="1.1" xmlns="http://www.w3.org/2000/svg" xmlns:xlink="http://www.w3.org/1999/xlink">
    <!-- Generator: Sketch 46 (44423) - http://www.bohemiancoding.com/sketch -->
    <title>sports-16</title>
    <desc>Created with Sketch.</desc>
    <defs></defs>
    <g id="ALL" stroke="none" stroke-width="1" fill="none" fill-rule="evenodd" stroke-linecap="round" stroke-linejoin="round">
        <g id="Secondary" transform="translate(-7607.000000, -4137.000000)" stroke="#868E96" stroke-width="3.5">
            <g id="sports-16" transform="translate(7609.000000, 4139.000000)">
                <path d="M43.3119547,100 L29.7330073,100 C27.1710415,100 26.0752894,97.9699273 26.2138268,95.4657064 L28.5155301,71.935975 C12.3616209,68.4548336 -1.02307231,53.8985536 0.0616152284,36.4701705 L0.352680101,31.7934409 C1.44793917,14.1951984 16.506712,0 33.9928413,0 L38.5647022,0 C56.075823,0 71.1120449,14.2344083 72.2048637,31.7934409 L72.4959284,36.4701705 C73.5769199,53.8391677 60.2816645,68.3532118 44.2141112,71.8990536 L46.8382705,95.4657077 C46.9768848,97.9713136 45.8351902,100 43.3119547,100 Z" id="Layer-1"></path>
                <path d="M28.5155301,71.935975 C12.3616209,68.4548336 -1.02307231,53.8985536 0.0616152284,36.4701705 L0.352680101,31.7934409 C1.44793917,14.1951984 16.506712,0 33.9928413,0 L38.5647022,0 C56.075823,0 71.1120449,14.2344083 72.2048637,31.7934409 L72.4959284,36.4701705 C73.5769199,53.8391677 60.2816645,68.3532118 44.2141112,71.8990536 L28.5155301,71.935975 Z" id="Layer-2"></path>
                <path d="M3.5498073,53 C8.44557777,62.5518566 17.8804085,69.6441235 28.5155301,71.935975 L44.2141112,71.8990536 C54.7733917,69.568796 64.1353556,62.501525 69.0064884,53 L3.5498073,53 L3.5498073,53 Z" id="Layer-3"></path>
                <circle id="Layer-4" cx="77" cy="91" r="9"></circle>
            </g>
        </g>
    </g>
</svg>