<?xml version="1.0" encoding="UTF-8"?>
<svg width="74px" height="104px" viewBox="0 0 74 104" version="1.1" xmlns="http://www.w3.org/2000/svg" xmlns:xlink="http://www.w3.org/1999/xlink">
    <!-- Generator: Sketch 46 (44423) - http://www.bohemiancoding.com/sketch -->
    <title>sports-34</title>
    <desc>Created with Sketch.</desc>
    <defs></defs>
    <g id="ALL" stroke="none" stroke-width="1" fill="none" fill-rule="evenodd" stroke-linecap="round" stroke-linejoin="round">
        <g id="Secondary" transform="translate(-3578.000000, -4438.000000)" stroke="#868E96" stroke-width="3.5">
            <g id="sports-34" transform="translate(3580.000000, 4440.000000)">
                <path d="M69,32.500025 C69,35.8958409 63.5473457,38.3895925 62.5526746,41.4553947 C61.5225373,44.6320799 64.4315654,49.8466195 62.507278,52.4915935 C61.5553688,53.7990799 59.6639128,54.1868662 57.6666667,54.4716753 C55.5838966,54.7664172 53.3852032,54.9478436 52.0226983,55.940317 C49.4361074,57.8245164 48.7158423,63.5756322 45.7036587,64.7773034 C45.6406304,64.8050748 45.5751702,64.830211 45.50971,64.8502794 C42.4446312,65.8478206 38.3950145,61.4696669 35,61.4696669 C31.6049855,61.4696669 27.5553688,65.8478206 24.49029,64.8529146 C24.4248298,64.8328462 24.3593696,64.8075074 24.2963413,64.7799387 C21.2841577,63.5758349 20.5638926,57.8247191 17.9773017,55.940317 C16.6147968,54.9478436 14.4161034,54.7664172 12.3333333,54.4716753 C10.3360872,54.1870689 8.44483388,53.7990799 7.49272201,52.4915935 C5.56863727,49.8466195 8.47746266,44.6320799 7.44732544,41.4553947 C6.45245163,38.3895925 1,35.8956382 1,32.500025 C1,29.1044119 6.45265429,26.6104576 7.44732544,23.5446553 C8.47746266,20.3679701 5.56843461,15.1534305 7.49272201,12.5084565 C9.43443844,9.83814356 15.3076189,11.0045431 17.9773017,9.05973304 C20.6192196,7.13519414 21.3143545,1.1799483 24.4900874,0.14713539 C27.5551661,-0.847973257 31.6047829,3.53038316 34.9997973,3.53038316 C38.3948118,3.53038316 42.4444285,-0.847770546 45.5095073,0.14713539 C48.6854428,1.1799483 49.380375,7.13519414 52.022293,9.05973304 C54.6919757,11.0045431 60.5651562,9.83814356 62.5068727,12.5084565 C64.4309574,15.1534305 61.522132,20.3679701 62.5522692,23.5446553 C63.5475484,26.6104576 69,29.1042092 69,32.500025 L69,32.500025 Z" id="Layer-1"></path>
                <path d="M35.5,53 C46.8218374,53 56,43.8218374 56,32.5 C56,21.1781626 46.8218374,12 35.5,12 C24.1781626,12 15,21.1781626 15,32.5 C15,43.8218374 24.1781626,53 35.5,53 L35.5,53 Z" id="Layer-2"></path>
                <polygon id="Layer-3" points="36 20 39.8009697 28.0053728 48.5455726 29.1671493 42.1497783 35.2764191 43.7536701 44 36 39.7702962 28.2463299 44 29.8502217 35.2764191 23.4544274 29.1671493 32.1990303 28.0053728"></polygon>
                <path d="M13.7647833,54.6665686 L0,91.4863839 L13.1436306,85.4775786 L19.9955519,100 L34.5121509,61.4982341 C31.2226445,61.8733128 27.4098354,65.8005813 24.49029,64.8529146 C24.4248298,64.8328462 24.3593696,64.8075074 24.2963413,64.7799387 C21.2841577,63.5758349 20.5638926,57.8247191 17.9773017,55.940317 C16.925457,55.1741341 15.3752658,54.891314 13.7647833,54.6665686 L13.7647833,54.6665686 L13.7647833,54.6665686 Z M56.2352167,54.6665686 L70,91.4863839 L56.8563694,85.4775786 L50.0044481,100 L35.6170504,61.5147356 C38.876835,61.9750941 42.6283097,65.7880417 45.50971,64.8502794 C45.5751702,64.830211 45.6406304,64.8050748 45.7036587,64.7773034 C48.7158423,63.5756322 49.4361074,57.8245164 52.0226983,55.940317 C53.074543,55.1741341 54.6247342,54.891314 56.2352167,54.6665686 L56.2352167,54.6665686 L56.2352167,54.6665686 Z" id="Layer-4"></path>
            </g>
        </g>
    </g>
</svg>