<?xml version="1.0" encoding="UTF-8"?>
<svg width="104px" height="104px" viewBox="0 0 104 104" version="1.1" xmlns="http://www.w3.org/2000/svg" xmlns:xlink="http://www.w3.org/1999/xlink">
    <!-- Generator: Sketch 46 (44423) - http://www.bohemiancoding.com/sketch -->
    <title>sports-9</title>
    <desc>Created with Sketch.</desc>
    <defs></defs>
    <g id="ALL" stroke="none" stroke-width="1" fill="none" fill-rule="evenodd" stroke-linecap="round" stroke-linejoin="round">
        <g id="Secondary" transform="translate(-5545.000000, -4137.000000)" stroke="#868E96" stroke-width="3.5">
            <g id="sports-9" transform="translate(5547.000000, 4139.000000)">
                <path d="M100,50 C100,22.3857625 77.6142375,0 50,0 C22.3857625,0 0,22.3857625 0,50 C0,77.6142375 22.3857625,100 50,100 C77.6142375,100 100,77.6142375 100,50 L100,50 Z" id="Layer-1"></path>
                <path d="M98.3815221,39.4417743 C98.3815221,39.4417743 85.4884842,25.3958251 70.7037993,20.5887116 C55.9191143,15.7815981 42.2783709,17.1755897 42.2783709,17.1755897" id="Layer-2"></path>
                <path d="M50.3166181,46.1580441 C50.3166181,46.1580441 43.0549483,58.1402228 33.4154741,65.7986622 C23.7759999,73.4571016 9.31536797,78.0661633 9.31536797,78.0661633" id="Layer-3"></path>
                <path d="M50.6391946,46.1336543 C50.6391946,46.1336543 63.8767244,46.3989626 75.3288646,50.9177724 C86.7810047,55.4365823 97.2217842,65.2479402 97.2217842,65.2479402" id="Layer-4"></path>
                <path d="M78.7352635,52.9812241 C78.7352635,52.9812241 73.2264092,64.1874577 61.073554,77.1329067 C48.9206987,90.0783557 30.1991494,94.9067032 30.1991494,94.9067032" id="Layer-5"></path>
                <path d="M18.4402679,11.5193323 C18.4402679,11.5193323 14.8343812,29.5033473 19.1165944,44.4485104 C23.3988075,59.3936735 31.3337448,66.8765464 31.3337448,66.8765464" id="Layer-6"></path>
                <path d="M50.2760372,46.3656111 C50.2760372,46.3656111 43.6521184,35.6647809 41.8394525,23.4875317 C40.0267865,11.3102824 41.4952515,1.68602291 41.4952515,1.68602291" id="Layer-7"></path>
            </g>
        </g>
    </g>
</svg>