<?xml version="1.0" encoding="UTF-8"?>
<svg width="102px" height="102px" viewBox="0 0 102 102" version="1.1" xmlns="http://www.w3.org/2000/svg" xmlns:xlink="http://www.w3.org/1999/xlink">
    <!-- Generator: Sketch 46 (44423) - http://www.bohemiancoding.com/sketch -->
    <title>sports-17</title>
    <desc>Created with Sketch.</desc>
    <defs></defs>
    <g id="ALL" stroke="none" stroke-width="1" fill="none" fill-rule="evenodd" stroke-linecap="round" stroke-linejoin="round">
        <g id="Secondary" transform="translate(-7893.000000, -4137.000000)" stroke="#868E96" stroke-width="3.5">
            <g id="sports-17" transform="translate(7895.000000, 4139.000000)">
                <path d="M55.3542049,11.9833843 C52.8135425,9.44272188 52.8165681,5.32046867 55.3494278,2.78760899 L55.3494278,2.78760899 C57.8874518,0.249584941 62.0054267,0.252609798 64.5452031,2.79238615 L93.169685,31.4168681 C95.7103474,33.9575305 95.7073218,38.0797837 93.1744622,40.6126434 L93.1744622,40.6126434 C90.6364381,43.1506674 86.5184632,43.1476426 83.9786869,40.6078662 L55.3542049,11.9833843 L55.3542049,11.9833843 Z" id="Layer-1"></path>
                <path d="M70.8484158,9.24362889 C68.8158882,7.21110133 68.8183106,3.91330068 70.8445983,1.88701294 L70.8445983,1.88701294 C72.8750175,-0.143406306 76.1658077,-0.144576124 78.2012143,1.89083038 L96.0574704,19.7470866 C98.089998,21.7796141 98.0875756,25.0774148 96.0612879,27.1037025 L96.0612879,27.1037025 C94.0308686,29.1341218 90.7400784,29.1352916 88.7046719,27.0998851 L70.8484158,9.24362889 L70.8484158,9.24362889 Z" id="Layer-2"></path>
                <path d="M1.65015435,78.4348308 C-0.378660287,76.4468613 -0.373228002,73.2184029 1.65305974,71.2329093 C3.68347899,69.2433674 6.97843458,69.2463027 9.00295285,71.2300624 L27.3907599,89.2476773 C29.4195745,91.2356469 29.4141423,94.4641053 27.3878545,96.4495989 C25.3574353,98.4391408 22.0624797,98.4362055 20.0379614,96.4524458 L1.65015435,78.4348308 L1.65015435,78.4348308 L1.65015435,78.4348308 Z" id="Layer-3"></path>
                <path d="M2.57551991,64.9320296 C0.0356399874,62.4432838 0.0392998745,58.4046433 2.57215956,55.9227763 C5.11018361,53.435849 9.22943282,53.4400616 11.766518,55.926069 L41.1709913,84.7385574 C43.7108713,87.2273033 43.7072114,91.2659438 41.1743517,93.7478107 C38.6363276,96.2347381 34.5170784,96.2305254 31.9799932,93.744518 L2.57551991,64.9320296 L2.57551991,64.9320296 L2.57551991,64.9320296 Z" id="Layer-4"></path>
                <path d="M30.1714323,73.9604468 L73.7513499,30.3805292 L67.3259164,23.9550958 L23.6806612,67.600351 L30.1714323,73.9604468 L30.1714323,73.9604468 L30.1714323,73.9604468 Z M13.7958629,90.3360162 L8.99347517,95.1384039 C7.83379233,96.2980868 5.92911338,96.3028996 4.7573116,95.1310979 L2.57534779,92.9491341 C1.40170782,91.7754941 1.40027499,89.8807373 2.56804174,88.7129705 L7.30509182,83.9759204 L13.7958629,90.3360162 L13.7958629,90.3360162 L13.7958629,90.3360162 Z M90.2211315,13.9107476 L96.6745989,7.45728014 C97.8423657,6.28951338 97.8409329,4.39475655 96.6672929,3.22111658 L94.4853291,1.03915277 C93.3135273,-0.132649007 91.4088484,-0.127836116 90.2491655,1.03184672 L83.7956981,7.48531419 L90.2211315,13.9107476 L90.2211315,13.9107476 L90.2211315,13.9107476 Z" id="Layer-5"></path>
            </g>
        </g>
    </g>
</svg>