<?xml version="1.0" encoding="UTF-8"?>
<svg width="82px" height="104px" viewBox="0 0 82 104" version="1.1" xmlns="http://www.w3.org/2000/svg" xmlns:xlink="http://www.w3.org/1999/xlink">
    <!-- Generator: Sketch 46 (44423) - http://www.bohemiancoding.com/sketch -->
    <title>sports-35</title>
    <desc>Created with Sketch.</desc>
    <defs></defs>
    <g id="ALL" stroke="none" stroke-width="1" fill="none" fill-rule="evenodd" stroke-linecap="round" stroke-linejoin="round">
        <g id="Secondary" transform="translate(-3848.000000, -4438.000000)" stroke-width="3.5" stroke="#868E96">
            <g id="sports-35" transform="translate(3850.000000, 4440.000000)">
                <g id="Group">
                    <path d="M73,67.500025 C73,70.8958409 67.5473457,73.3895925 66.5526746,76.4553947 C65.5225373,79.6320799 68.4315654,84.8466195 66.507278,87.4915935 C65.5553688,88.7990799 63.6639128,89.1868662 61.6666667,89.4716753 C59.5838966,89.7664172 57.3852032,89.9478436 56.0226983,90.940317 C53.4361074,92.8245164 52.7158423,98.5756322 49.7036587,99.7773034 C49.6406304,99.8050748 49.5751702,99.830211 49.50971,99.8502794 C46.4446312,100.847821 42.3950145,96.4696669 39,96.4696669 C35.6049855,96.4696669 31.5553688,100.847821 28.49029,99.8529146 C28.4248298,99.8328462 28.3593696,99.8075074 28.2963413,99.7799387 C25.2841577,98.5758349 24.5638926,92.8247191 21.9773017,90.940317 C20.6147968,89.9478436 18.4161034,89.7664172 16.3333333,89.4716753 C14.3360872,89.1870689 12.4448339,88.7990799 11.492722,87.4915935 C9.56863727,84.8466195 12.4774627,79.6320799 11.4473254,76.4553947 C10.4524516,73.3895925 5,70.8956382 5,67.500025 C5,64.1044119 10.4526543,61.6104576 11.4473254,58.5446553 C12.4774627,55.3679701 9.56843461,50.1534305 11.492722,47.5084565 C13.4344384,44.8381436 19.3076189,46.0045431 21.9773017,44.059733 C24.6192196,42.1351941 25.3143545,36.1799483 28.4900874,35.1471354 C31.5551661,34.1520267 35.6047829,38.5303832 38.9997973,38.5303832 C42.3948118,38.5303832 46.4444285,34.1522295 49.5095073,35.1471354 C52.6854428,36.1799483 53.380375,42.1351941 56.022293,44.059733 C58.6919757,46.0045431 64.5651562,44.8381436 66.5068727,47.5084565 C68.4309574,50.1534305 65.522132,55.3679701 66.5522692,58.5446553 C67.5475484,61.6104576 73,64.1042092 73,67.500025 L73,67.500025 Z" id="Layer-1"></path>
                    <path d="M39.5,89 C51.3741221,89 61,79.3741221 61,67.5 C61,55.6258779 51.3741221,46 39.5,46 C27.6258779,46 18,55.6258779 18,67.5 C18,79.3741221 27.6258779,89 39.5,89 L39.5,89 Z" id="Layer-2"></path>
                    <path d="M17.722216,45.340682 L0,7.10542736e-15 L23.9955519,1.42108547e-14 L38.5121792,38.5018409 C35.2226203,38.1269028 31.4097011,34.1992534 28.4900874,35.1471354 C25.3143545,36.1799483 24.6192196,42.1351941 21.9773017,44.059733 C20.9158634,44.8329694 19.348024,45.1143934 17.722216,45.340682 L17.722216,45.340682 L17.722216,45.340682 Z M60.2777631,45.3407355 L78,7.10542736e-15 L54.0044481,1.42108547e-14 L39.6170421,38.4852864 C42.8767815,38.0247949 46.6281643,34.211869 49.5095073,35.1471354 C52.6854428,36.1799483 53.380375,42.1351941 56.022293,44.059733 C57.0838149,44.8330304 58.6518178,45.1144378 60.2777631,45.3407355 L60.2777631,45.3407355 L60.2777631,45.3407355 Z" id="Layer-3"></path>
                    <path d="M40.2527036,58.3332843 L40.2527036,76.3332843" id="Layer-4"></path>
                    <path d="M35,60.9432844 L40.1961524,57.9432844" id="Layer-5"></path>
                    <path d="M45.1413756,76.3332843 L35.3640317,76.3332843" id="Layer-6"></path>
                </g>
            </g>
        </g>
    </g>
</svg>