<?xml version="1.0" encoding="UTF-8"?>
<svg width="82px" height="104px" viewBox="0 0 82 104" version="1.1" xmlns="http://www.w3.org/2000/svg" xmlns:xlink="http://www.w3.org/1999/xlink">
    <!-- Generator: Sketch 46 (44423) - http://www.bohemiancoding.com/sketch -->
    <title>sports-36</title>
    <desc>Created with Sketch.</desc>
    <defs></defs>
    <g id="ALL" stroke="none" stroke-width="1" fill="none" fill-rule="evenodd" stroke-linecap="round" stroke-linejoin="round">
        <g id="Secondary" transform="translate(-4126.000000, -4438.000000)" stroke="#868E96" stroke-width="3.5">
            <g id="sports-36" transform="translate(4128.000000, 4440.000000)">
                <path d="M39,100 C56.673112,100 71,85.673112 71,68 C71,50.326888 56.673112,36 39,36 C21.326888,36 7,50.326888 7,68 C7,85.673112 21.326888,100 39,100 L39,100 Z" id="Layer-1"></path>
                <polygon id="Layer-2" points="39.4500008 49 45.0398527 60.7221535 57.9000015 62.4233263 48.4941008 71.3690431 50.8528457 84.1428586 39.4500008 77.9493635 28.0471559 84.1428586 30.4059007 71.3690431 21 62.4233263 33.8601488 60.7221535"></polygon>
                <path d="M17.3635259,44.4230059 L0,0 L23.9955519,7.10542736e-15 L37.5805495,36.0309184 C29.7970031,36.3706692 22.7351158,39.4909109 17.3635249,44.4230063 L17.3635259,44.4230059 L17.3635259,44.4230059 Z M60.6364741,44.4230059 L78,0 L54.0044481,7.10542736e-15 L40.5326657,36.0360586 C48.2714576,36.4009782 55.2909365,39.5148316 60.6364751,44.4230063 L60.6364741,44.4230059 L60.6364741,44.4230059 Z" id="Layer-3"></path>
            </g>
        </g>
    </g>
</svg>