<?xml version="1.0" encoding="UTF-8"?>
<svg width="103px" height="103px" viewBox="0 0 103 103" version="1.1" xmlns="http://www.w3.org/2000/svg" xmlns:xlink="http://www.w3.org/1999/xlink">
    <!-- Generator: Sketch 46 (44423) - http://www.bohemiancoding.com/sketch -->
    <title>sports-42</title>
    <desc>Created with Sketch.</desc>
    <defs></defs>
    <g id="ALL" stroke="none" stroke-width="1" fill="none" fill-rule="evenodd" stroke-linecap="round" stroke-linejoin="round">
        <g id="Secondary" transform="translate(-5819.000000, -4438.000000)" stroke="#868E96" stroke-width="3.5">
            <g id="sports-42" transform="translate(5820.000000, 4440.000000)">
                <path d="M79.3031247,1.5875 C77.2834818,-0.432142857 74.0084818,-0.432142857 71.988839,1.5875 L21.3227676,52.2535714 C18.6674104,54.9089286 27.7370533,63.0517857 26.338839,64.45 L1.89241042,88.8982143 C0.451338989,90.3392857 0.451338989,92.6767857 1.89241042,94.1196429 L5.80848185,98.0357143 C7.24955328,99.4767857 9.58705328,99.4767857 11.0299104,98.0357143 L34.4674104,74.5982143 C36.2602676,72.8053571 45.3656247,81.2053571 47.8191961,78.7517857 L63.8549104,62.7160714 L83.9834818,42.5875 L98.4870533,28.0839286 C100.503125,26.0625 100.503125,22.7875 98.4834818,20.7696429 L79.3031247,1.5875 Z" id="Layer-1" transform="translate(50.405134, 49.594643) scale(-1, 1) translate(-50.405134, -49.594643) "></path>
                <rect id="Layer-2" transform="translate(84.480510, 83.597012) scale(-1, 1) rotate(135.000000) translate(-84.480510, -83.597012) " x="80.9091155" y="77.1363596" width="7.14278864" height="12.9213047"></rect>
                <circle id="Layer-3" cx="37.9849997" cy="76.9849997" r="12.9849997"></circle>
            </g>
        </g>
    </g>
</svg>