<?xml version="1.0" encoding="UTF-8"?>
<svg width="103px" height="97px" viewBox="0 0 103 97" version="1.1" xmlns="http://www.w3.org/2000/svg" xmlns:xlink="http://www.w3.org/1999/xlink">
    <!-- Generator: Sketch 46 (44423) - http://www.bohemiancoding.com/sketch -->
    <title>sports-41</title>
    <desc>Created with Sketch.</desc>
    <defs></defs>
    <g id="ALL" stroke="none" stroke-width="1" fill="none" fill-rule="evenodd" stroke-linecap="round" stroke-linejoin="round">
        <g id="Secondary" transform="translate(-5518.000000, -4438.000000)" stroke="#868E96" stroke-width="3.5">
            <g id="sports-41" transform="translate(5520.000000, 4440.000000)">
                <path d="M63.3615307,76.2591759 C75.8171416,76.2591759 85.950705,66.0950304 85.950705,53.595731 C85.950705,41.098616 75.8171416,30.9322862 63.3615307,30.9322862 L22.5891743,30.9322862 C10.1335634,30.9322862 0,41.098616 0,53.5979155 C0,66.0753706 10.1335634,76.2220406 22.5891743,76.2220406 C31.5584374,76.2220406 39.3284492,70.9750435 42.9720759,63.3841548 C46.6091492,70.992519 54.3835299,76.2591759 63.3615307,76.2591759 L63.3615307,76.2591759 L63.3615307,76.2591759 L63.3615307,76.2591759 Z M38.3192433,53.6590795 C38.3192433,62.3225226 31.2635395,69.3716731 22.5891743,69.3716731 C13.9169935,69.3716731 6.86128966,62.3137849 6.86128966,53.6153909 C6.86128966,44.8995215 13.9169935,37.8328956 22.5891743,37.8328956 L63.3637151,37.8328956 C72.035896,37.8328956 79.0915998,44.8973371 79.0915998,53.6153909 C79.0915998,62.3290758 72.035896,69.3935174 63.3637151,69.3935174 C54.6915343,69.3935174 47.6358305,62.339998 47.6358305,53.6678172 C47.6358305,51.2387328 45.6283408,49.4059973 42.9655226,49.4059973 C40.3158109,49.4038129 38.3192433,51.2365483 38.3192433,53.6590795 L38.3192433,53.6590795 L38.3192433,53.6590795 L38.3192433,53.6590795 Z" id="Layer-1"></path>
                <path d="M92.130453,16.3537242 L92.130453,61.2674436 C92.130453,74.8043465 81.1973887,85.8422633 67.6583014,85.8422633 L49.8814229,85.8422633 C47.9984456,85.8422633 46.5414319,84.2891347 46.5414319,82.403973 L46.5414319,76.6698484 C46.5414319,74.7781334 44.98175,73.2424802 43.0878506,73.2424802 C41.1917667,73.2424802 39.6342692,74.7781334 39.6342692,76.6698484 L39.6342692,82.403973 C39.6342692,88.0747492 44.2150156,92.749426 49.8814229,92.749426 L67.6583014,92.749426 C84.9830032,92.749426 99.0376156,78.589961 99.0376156,61.2674436 L99.0376156,16.3537242 L92.130453,16.3537242 Z" id="Layer-2"></path>
                <rect id="Layer-3" x="92.1200016" y="30.9322862" width="6.91761401" height="11.0338321"></rect>
                <circle id="Layer-4" cx="69.3359424" cy="10.7191778" r="6.5"></circle>
                <circle id="Layer-5" cx="89.2191778" cy="4.43835564" r="4.21917782"></circle>
                <circle id="Layer-6" cx="82" cy="26.7131084" r="4.21917782"></circle>
                <path d="M22.7144952,44.5309511 L14.2879856,52.9574607" id="Layer-7"></path>
                <path d="M33.1720392,45.1692215 L17.6722585,60.6690022" id="Layer-8"></path>
                <path d="M58.4751332,44.5309511 L54.2324925,48.7735918" id="Layer-9"></path>
            </g>
        </g>
    </g>
</svg>