<?xml version="1.0" encoding="UTF-8"?>
<svg width="104px" height="104px" viewBox="0 0 104 104" version="1.1" xmlns="http://www.w3.org/2000/svg" xmlns:xlink="http://www.w3.org/1999/xlink">
    <!-- Generator: Sketch 46 (44423) - http://www.bohemiancoding.com/sketch -->
    <title>sports-8</title>
    <desc>Created with Sketch.</desc>
    <defs></defs>
    <g id="ALL" stroke="none" stroke-width="1" fill="none" fill-rule="evenodd" stroke-linecap="round" stroke-linejoin="round">
        <g id="Secondary" transform="translate(-5245.000000, -4137.000000)" stroke="#868E96" stroke-width="3.5">
            <g id="sports-8" transform="translate(5247.000000, 4139.000000)">
                <path d="M50,0 C22.3857611,0 0,22.3857611 0,50 C0,77.6142389 22.3857611,100 50,100 C77.6142389,100 100,77.6142389 100,50 C100,22.3857611 77.6142389,0 50,0 L50,0 Z" id="Layer-1"></path>
                <path d="M99.876603,50.1072887 C99.876603,42.7208666 98.270967,35.709461 95.3896828,29.4030599 C90.7039732,32.8744541 84.9041559,34.927453 78.6248347,34.927453 C72.3091089,34.927453 65.1798357,31.0240932 60.8427398,28.8555452 C57.1893933,27.0288721 54.2801005,26.2532612 50,26.2532612 C36.8257837,26.2532612 26.1459725,36.9330724 26.1459725,50.1072887 C26.1459725,63.281505 36.8257837,73.9613163 50,73.9613163 C54.2801005,73.9613163 58.9934385,72.3049925 60.8427398,71.3590322 C65.3517954,69.052546 72.3091089,65.2871244 78.6248347,65.2871244 C84.9041559,65.2871244 90.7039732,67.3401234 95.3896828,70.8115175 C98.270967,64.5051164 99.876603,57.4937109 99.876603,50.1072887 L99.876603,50.1072887 Z" id="Layer-2"></path>
            </g>
        </g>
    </g>
</svg>