<?xml version="1.0" encoding="UTF-8"?>
<svg width="104px" height="104px" viewBox="0 0 104 104" version="1.1" xmlns="http://www.w3.org/2000/svg" xmlns:xlink="http://www.w3.org/1999/xlink">
    <!-- Generator: Sketch 46 (44423) - http://www.bohemiancoding.com/sketch -->
    <title>sports-10</title>
    <desc>Created with Sketch.</desc>
    <defs></defs>
    <g id="ALL" stroke="none" stroke-width="1" fill="none" fill-rule="evenodd" stroke-linecap="round" stroke-linejoin="round">
        <g id="Secondary" transform="translate(-5845.000000, -4137.000000)" stroke="#868E96" stroke-width="3.5">
            <g id="sports-10" transform="translate(5847.000000, 4139.000000)">
                <path d="M76.9817061,76.9817061 C109.718131,44.2452811 96.7968972,4.43159496 96.7968972,4.43159496 C96.6440721,3.90594252 96.0826841,3.34779402 95.568405,3.20310283 C95.568405,3.20310283 55.7547189,-9.71813118 23.0182939,23.0182939 C-9.71813118,55.7547189 3.20310283,95.568405 3.20310283,95.568405 C3.35592786,96.0940575 3.91731588,96.652206 4.43159496,96.7968972 C4.43159496,96.7968972 44.2452811,109.718131 76.9817061,76.9817061 Z" id="Layer-1"></path>
                <path d="M69.3296878,1.61900971 L98.9150357,31.2043575" id="Layer-2"></path>
                <path d="M59.4635873,30.3019724 L69.6980276,40.5364127" id="Layer-3"></path>
                <path d="M49.8000676,39.9654922 L60.0345078,50.1999324" id="Layer-4"></path>
                <path d="M39.9654922,49.8000676 L50.1999324,60.0345078" id="Layer-5"></path>
                <path d="M30.3019724,59.4635873 L40.5364127,69.6980276" id="Layer-6"></path>
                <path d="M1.61900971,69.3296878 L31.2043575,98.9150357" id="Layer-7"></path>
                <path d="M29.7217988,70.7038607 L70.4729838,29.9526758" id="Layer-8"></path>
            </g>
        </g>
    </g>
</svg>