<?xml version="1.0" encoding="UTF-8"?>
<svg width="104px" height="102px" viewBox="0 0 104 102" version="1.1" xmlns="http://www.w3.org/2000/svg" xmlns:xlink="http://www.w3.org/1999/xlink">
    <!-- Generator: Sketch 46 (44423) - http://www.bohemiancoding.com/sketch -->
    <title>sports-49</title>
    <desc>Created with Sketch.</desc>
    <defs></defs>
    <g id="ALL" stroke="none" stroke-width="1" fill="none" fill-rule="evenodd" stroke-linecap="round" stroke-linejoin="round">
        <g id="Secondary" transform="translate(-7839.000000, -4438.000000)" stroke="#868E96" stroke-width="3.5">
            <g id="sports-49" transform="translate(7841.000000, 4440.000000)">
                <path d="M48.3178637,88.453655 C46.6622854,88.9339599 44.9756425,89.1717228 43.2985579,89.1717228 C40.3181584,89.1717228 37.3686243,88.4204001 34.6849306,86.9436417 C30.4908253,84.6361072 26.4645702,78.4489965 25.130589,73.8516501 L29.1861231,72.7510289 L46.4645618,68.1607947 C51.736167,66.6314657 57.4004455,69.7347071 58.9303719,75.007308 C60.4600993,80.2799089 57.4151812,85.8139693 52.1427794,87.3438958 L48.3178637,88.453655 L48.3178637,88.453655 Z" id="Layer-1"></path>
                <path d="M25.127103,73.83864 L13.3611894,29.9276528" id="Layer-2"></path>
                <path d="M11.4155095,4.16624559 C10.7304044,1.60939859 8.09913299,0.0928960006 5.55000928,0.77593164 L5.55000928,0.77593164 C2.99568804,1.46035995 1.47953799,4.08475689 2.16549405,6.64477977 L7.35234509,26.0023714 C8.03745018,28.5592184 10.6687216,30.075721 13.2178453,29.3926853 L13.2178453,29.3926853 C15.7721666,28.708257 17.2883166,26.0838601 16.6023606,23.5238372 L11.4155095,4.16624559 L11.4155095,4.16624559 Z" id="Layer-3"></path>
                <path d="M0,98 L100,98" id="Layer-4"></path>
                <path d="M83.150521,90 L83.150521,98" id="Layer-5"></path>
                <circle id="Layer-6" cx="83.150521" cy="78.1544628" r="11.3455372"></circle>
            </g>
        </g>
    </g>
</svg>