<?xml version="1.0" encoding="UTF-8"?>
<svg width="104px" height="104px" viewBox="0 0 104 104" version="1.1" xmlns="http://www.w3.org/2000/svg" xmlns:xlink="http://www.w3.org/1999/xlink">
    <!-- Generator: Sketch 46 (44423) - http://www.bohemiancoding.com/sketch -->
    <title>sports-7</title>
    <desc>Created with Sketch.</desc>
    <defs></defs>
    <g id="ALL" stroke="none" stroke-width="1" fill="none" fill-rule="evenodd" stroke-linecap="round" stroke-linejoin="round">
        <g id="Secondary" transform="translate(-4945.000000, -4137.000000)" stroke="#868E96" stroke-width="3.5">
            <g id="sports-7" transform="translate(4947.000000, 4139.000000)">
                <path d="M50,100 C77.6142375,100 100,77.6142375 100,50 C100,22.3857625 77.6142375,0 50,0 C22.3857625,0 0,22.3857625 0,50 C0,77.6142375 22.3857625,100 50,100 Z" id="Layer-1"></path>
                <path d="M16.7271236,13.6461097 C16.7271236,13.6461097 44.3414392,21.2023099 62.2792158,42.3835779 C80.2169924,63.5648459 85.2916642,85.4558927 85.2916642,85.4558927" id="Layer-2"></path>
                <path d="M55.2173653,2 C55.2173653,2 57.811055,19.8577042 40.7853019,37.2520142 C23.7595489,54.6463242 0.888287315,57.4476509 0.888287315,57.4476509" id="Layer-3"></path>
                <path d="M48.452848,99.2981515 C48.452848,99.2981515 48.452848,80.726027 63.9306656,60.6765407 C79.4084831,40.6270543 99.3700653,43.1390422 99.3700653,43.1390422" id="Layer-4"></path>
            </g>
        </g>
    </g>
</svg>