<?xml version="1.0" encoding="UTF-8"?>
<svg width="103px" height="103px" viewBox="0 0 103 103" version="1.1" xmlns="http://www.w3.org/2000/svg" xmlns:xlink="http://www.w3.org/1999/xlink">
    <!-- Generator: Sketch 46 (44423) - http://www.bohemiancoding.com/sketch -->
    <title>sports-44</title>
    <desc>Created with Sketch.</desc>
    <defs></defs>
    <g id="ALL" stroke="none" stroke-width="1" fill="none" fill-rule="evenodd" stroke-linecap="round" stroke-linejoin="round">
        <g id="Secondary" transform="translate(-6417.000000, -4439.000000)" stroke="#868E96" stroke-width="3.5">
            <g id="sports-44" transform="translate(6418.000000, 4440.000000)">
                <path d="M91.4070911,0.953566692 C90.2062169,0.953566692 89.0005988,1.22837171 87.920693,1.74782436 L67.7647105,11.4225875 C55.5089488,17.304296 44.4208542,25.161822 34.8081001,34.7745762 C25.1953459,44.3873303 17.3378199,55.4754248 11.4561115,67.7311866 L1.78134828,87.8858137 C1.26223448,88.9667361 0.987429459,90.172693 0.987429459,91.3728895 C0.987429459,95.8172084 4.60089522,99.4306742 9.04521414,99.4306742 C10.2460884,99.4306742 11.4517064,99.1558692 12.5316122,98.6364165 L32.6862394,88.9616533 C44.9420011,83.0799449 56.0300956,75.2224189 65.6428498,65.6096647 C75.255604,55.9969106 83.11313,44.908816 88.9948384,32.6530543 L98.670957,12.4984272 C99.1904096,11.4168271 99.4652146,10.2112091 99.4652146,9.01033484 C99.4648758,4.56703246 95.85141,0.953566692 91.4070911,0.953566692 L91.4070911,0.953566692 Z" id="Layer-1"></path>
                <path d="M64.8895926,53.0004854 L53.0343482,64.8560687 C51.2364253,66.6539916 48.7980814,67.6640949 46.2553726,67.6640949 C43.7123249,67.6640949 41.2743198,66.6539916 39.4763969,64.8557299 L35.5627126,60.9420456 C33.7647898,59.1441227 32.7546865,56.7057788 32.7546865,54.1630699 C32.7546865,51.6203611 33.7647898,49.1820172 35.5627126,47.3840943 L47.4179571,35.528511 C49.2158799,33.7305882 51.6542238,32.7204849 54.1969327,32.7204849 C56.7396415,32.7204849 59.1779855,33.7305882 60.9759083,35.528511 L64.8895926,39.4421953 C66.6875155,41.2401182 67.6976188,43.6784621 67.6976188,46.221171 C67.6976188,48.7638798 66.6878543,51.2025626 64.8895926,53.0004854 L64.8895926,53.0004854 Z" id="Layer-2"></path>
                <path d="M4.10497182,16.2116784 C2.15578586,14.2624925 2.16257848,11.095445 4.10440783,9.15361569 L9.47711621,3.78090731 C11.4259907,1.83203284 14.5843394,1.83063172 16.535179,3.7814713 L26.9168939,14.1631862 C28.8660798,16.1123722 28.8592872,19.2794196 26.9174579,21.221249 L21.5447495,26.5939574 C19.595875,28.5428318 16.4375263,28.5442329 14.4866867,26.5933934 L4.10497182,16.2116784 L4.10497182,16.2116784 Z" id="Layer-3"></path>
                <path d="M73.1616782,85.9730451 C71.2124923,84.0238592 71.2192849,80.8568117 73.1611142,78.9149824 L78.5338226,73.542274 C80.4826971,71.5933995 83.6410458,71.5919984 85.5918854,73.542838 L95.9736003,83.9245529 C97.9227862,85.8737388 97.9159936,89.0407863 95.9741643,90.9826156 L90.6014559,96.355324 C88.6525814,98.3041985 85.4942327,98.3055996 83.5433931,96.35476 L73.1616782,85.9730451 L73.1616782,85.9730451 Z" id="Layer-4"></path>
                <path d="M18.6466711,18.6755007 L81.4319011,81.4607307" id="Layer-5"></path>
            </g>
        </g>
    </g>
</svg>