<?xml version="1.0" encoding="UTF-8"?>
<svg width="136px" height="40px" viewBox="0 0 136 40" version="1.1" xmlns="http://www.w3.org/2000/svg" xmlns:xlink="http://www.w3.org/1999/xlink">
    <!-- Generator: Sketch 46 (44423) - http://www.bohemiancoding.com/sketch -->
    <title>time</title>
    <desc>Created with Sketch.</desc>
    <defs></defs>
    <g id="Symbols" stroke="none" stroke-width="1" fill="none" fill-rule="evenodd">
        <g id="Testimonials/Testimonials-5" transform="translate(-994.000000, -77.000000)" fill="#868E96">
            <path d="M994,77.0946835 L1028.81092,77.0946835 L1028.81092,84.998092 L1028.23983,84.998092 L1028.26123,79.9231044 L1014.55481,79.9231044 L1014.55481,115.798768 L1018.54999,115.798768 L1018.54999,116.959535 L1004.8908,116.959535 L1004.89522,115.798768 L1008.56204,115.798768 L1008.56204,79.9231044 L994.632909,79.9231044 L994.632909,84.998092 L994,84.998092 L994,77.0946835 Z M1030.50853,77.0616913 L1044.19472,77.0616913 L1044.19472,78.1955083 L1040.28052,78.1955083 L1040.28052,115.825718 L1044.19472,115.825718 L1044.19472,116.959535 L1030.50878,116.959535 L1030.53563,115.825718 L1034.47672,115.825718 L1034.47672,78.1955083 L1030.50853,78.1955083 L1030.50853,77.0616913 Z M1056.24904,77 L1058.91895,77 L1071.73388,107.742244 L1084.3771,77 L1086.98656,77 L1094.11409,115.798529 L1097.72429,115.798529 L1097.72429,117 L1083.50839,117 L1083.51565,115.798529 L1087.21878,115.798529 L1082.72918,91.0175296 L1071.45166,117 L1068.85283,117 L1057.62174,91.0175296 L1052.93078,115.798529 L1056.38234,115.798529 L1056.30273,117 L1045.89729,117 L1045.92375,115.798529 L1049.11626,115.798529 L1056.24904,77 Z M1098.87464,77.0864951 L1129.00023,77.0864951 L1129.07145,84.9612044 L1128.54515,84.9414091 L1128.28972,80.1290868 L1108.56169,79.8977442 L1108.56169,95.6225976 L1125.32186,95.6225976 L1125.77607,91.9430587 L1126.50982,91.9430587 C1126.2832,95.2509391 1126.29058,98.5587399 1126.50982,101.86662 L1125.77607,101.86662 L1125.32186,98.0756236 L1108.56169,98.0756236 L1108.56169,114.335347 L1128.97815,114.344649 L1129.06515,108.97941 L1129.66897,108.988791 L1129.66897,116.978297 L1098.87464,116.978297 L1098.87464,115.838597 L1102.86342,115.810931 L1102.86342,78.3025937 L1098.87464,78.1904999 L1098.87464,77.0864951 Z" id="time"></path>
        </g>
    </g>
</svg>