<?xml version="1.0" encoding="UTF-8"?>
<svg width="96px" height="45px" viewBox="0 0 96 45" version="1.1" xmlns="http://www.w3.org/2000/svg" xmlns:xlink="http://www.w3.org/1999/xlink">
    <!-- Generator: Sketch 46 (44423) - http://www.bohemiancoding.com/sketch -->
    <title>cnn</title>
    <desc>Created with Sketch.</desc>
    <defs></defs>
    <g id="Symbols" stroke="none" stroke-width="1" fill="none" fill-rule="evenodd">
        <g id="Testimonials/Testimonials-5" transform="translate(-387.000000, -75.000000)" fill="#868E96">
            <path d="M426.432898,119.980395 C422.465228,119.701696 419.103813,116.404744 419.103813,111.755805 L419.103813,89.6377663 C419.103813,88.8372475 418.50356,88.1493943 417.627191,88.1493943 L410.634247,88.1493943 C395.495874,88.131605 396.84044,107.243251 409.727865,107.26697 L417.45912,107.26697 L417.45912,112.823164 L409.445747,112.823164 C404.313586,112.823164 400.507984,110.931567 397.938902,108.108997 C395.369821,105.286427 394.079277,101.485445 394.073275,97.6963227 C394.067272,93.9072002 395.339808,90.1299372 397.968915,87.3073671 C400.598022,84.4907267 404.571695,82.5932006 410.015987,82.5932006 L423.203539,82.5932006 C424.073905,82.5932006 424.794208,83.3344217 424.794208,84.1942382 L424.794208,111.168758 C424.788206,112.556324 425.580539,113.635542 426.612974,113.94982 C427.645409,114.264098 428.857919,113.866803 429.566217,112.852813 L429.59623,112.823164 C433.347809,106.76294 448.240079,83.1624584 448.264089,83.12095 C448.672261,82.5457624 449.158466,82.4449563 449.512615,82.557622 C449.866764,82.6762173 450.226916,83.0557226 450.220913,83.9926261 L450.220913,111.168758 C450.214911,112.556324 451.007244,113.635542 452.039679,113.94982 C453.072113,114.264098 454.254611,113.866803 454.968912,112.852813 L454.968912,112.823164 L455.022935,112.823164 C458.774514,106.76294 473.666784,83.1624584 473.690794,83.12095 C474.092963,82.5516922 474.567163,82.4390266 474.93932,82.557622 C475.311476,82.6762173 475.683633,83.0320035 475.67763,83.9629772 L475.67763,119.838081 L470.02325,119.838081 L470.02325,98.9000658 C470.02325,98.9000658 466.64983,104.592644 460.875399,114.394553 C455.215016,123.994849 444.53652,120.021904 444.53652,111.755805 L444.53652,98.9000658 C444.53652,98.9000658 441.223125,104.592644 435.442691,114.394553 C432.96965,118.592829 429.518197,120.199797 426.432898,119.980395 L426.432898,119.980395 Z M410.436164,119.838081 C378.964914,119.838081 379.271043,75.5367753 410.862343,75.5130562 L423.221546,75.5130562 C428.533783,75.5130562 431.925211,78.6202552 431.919208,84.354342 L431.919208,95.5853248 C431.919208,95.5853248 438.858129,84.2535359 441.583277,79.8121388 C446.205222,72.2635427 457.381928,73.7519147 457.351915,83.1802477 L457.351915,95.5853248 C457.351915,95.5853248 464.266826,84.2535359 466.985971,79.8121388 C471.607917,72.2635427 482.814635,73.7519147 482.784622,83.1802477 L482.784622,119.844011 L477.130242,119.844011 L477.130242,83.968907 C477.136244,82.5932006 476.403936,81.5732803 475.395512,81.247143 C474.387087,80.9210057 473.228599,81.3301597 472.526304,82.3145014 L472.496291,82.3145014 L472.496291,82.3678693 C472.496291,82.3678693 457.598019,105.903123 453.798419,112.040434 C453.786414,112.052294 453.780412,112.028575 453.768407,112.040434 C453.762404,112.040434 453.774409,112.070083 453.768407,112.070083 C453.378242,112.585973 452.87403,112.698639 452.459856,112.574114 C452.033676,112.443659 451.631507,112.081943 451.637509,111.168758 L451.637509,83.9985559 C451.643512,82.6287792 450.929211,81.5495612 449.932792,81.2174941 C448.936372,80.885427 447.78989,81.32423 447.093596,82.3145014 L447.093596,82.3441503 L447.063584,82.3441503 C447.063584,82.3441503 432.153307,105.926842 428.365712,112.046364 C427.969545,112.603762 427.45933,112.740147 427.033151,112.609692 C426.606972,112.479237 426.204802,112.117521 426.210805,111.204337 L426.210805,111.174688 L426.210805,84.200168 C426.210805,82.5635517 424.848231,81.193775 423.197536,81.193775 L410.009984,81.193775 C404.223548,81.193775 399.835701,83.2514049 396.93648,86.358604 C394.03726,89.465803 392.608658,93.5869926 392.614661,97.7022524 C392.620663,101.811582 394.049265,105.962421 396.876455,109.06962 C399.703645,112.176819 403.947432,114.228519 409.433742,114.234449 L417.447115,114.234449 L417.447115,119.84994 L410.430161,119.84994 L410.436164,119.838081 Z" id="cnn"></path>
        </g>
    </g>
</svg>