<?xml version="1.0" encoding="UTF-8"?>
<svg width="104px" height="104px" viewBox="0 0 104 104" version="1.1" xmlns="http://www.w3.org/2000/svg" xmlns:xlink="http://www.w3.org/1999/xlink">
    <!-- Generator: Sketch 46 (44423) - http://www.bohemiancoding.com/sketch -->
    <title>weather-49</title>
    <desc>Created with Sketch.</desc>
    <defs></defs>
    <g id="ALL" stroke="none" stroke-width="1" fill="none" fill-rule="evenodd" stroke-linecap="round" stroke-linejoin="round">
        <g id="Secondary" transform="translate(-5739.000000, -2602.000000)" stroke="#868E96" stroke-width="3.5">
            <g id="weather-49" transform="translate(5741.000000, 2604.000000)">
                <path d="M18,9 C18,4.0374 13.9626,0 9,0 C4.0374,0 0,4.0374 0,9 C0,13.9626 4.0374,18 9,18 C13.9626,18 18,13.9626 18,9 L18,9 Z" id="Layer-1"></path>
                <path d="M60.8667314,93.6619718 C39.611486,93.6619718 22.3192579,76.318169 22.3192579,55 C22.3192579,33.681831 39.611486,16.3380282 60.8667314,16.3380282 C74.7800522,16.3380282 87.6641766,23.9047887 94.4912922,36.0856338 L99.9997894,32.9797887 C92.0552183,18.8054225 77.0602511,10 60.8667314,10 C36.1270472,10 16,30.186831 16,55 C16,79.813169 36.1270472,100 60.8667314,100 C77.0602511,100 92.0552183,91.1945775 100,77.0202113 L94.4915029,73.9143662 C87.6641766,86.095 74.7800522,93.6619718 60.8667314,93.6619718 L60.8667314,93.6619718 Z" id="Layer-2"></path>
            </g>
        </g>
    </g>
</svg>