<?xml version="1.0" encoding="UTF-8"?>
<svg width="104px" height="104px" viewBox="0 0 104 104" version="1.1" xmlns="http://www.w3.org/2000/svg" xmlns:xlink="http://www.w3.org/1999/xlink">
    <!-- Generator: Sketch 46 (44423) - http://www.bohemiancoding.com/sketch -->
    <title>weather-28</title>
    <desc>Created with Sketch.</desc>
    <defs></defs>
    <g id="ALL" stroke="none" stroke-width="1" fill="none" fill-rule="evenodd" stroke-linecap="round" stroke-linejoin="round">
        <g id="Secondary" transform="translate(-9306.000000, -2282.000000)" stroke="#868E96" stroke-width="3.5">
            <g id="weather-28" transform="translate(9308.000000, 2284.000000)">
                <path d="M56.312418,68.824511 C56.3484157,69.0607462 56.647647,69.0607462 56.6858946,68.824511 C57.7320792,62.0659334 63.064246,56.7337666 69.8228236,55.687582 C70.0590588,55.6515843 70.0590588,55.352353 69.8228236,55.3141054 C63.064246,54.2679208 57.7320792,48.935754 56.6858946,42.1771764 C56.6498969,41.9409412 56.3506656,41.9409412 56.312418,42.1771764 C55.2662334,48.935754 49.9340666,54.2679208 43.175489,55.3141054 C42.9415037,55.3501031 42.9415037,55.6515843 43.175489,55.687582 C49.9340666,56.7337666 55.2662334,62.0659334 56.312418,68.824511 Z" id="Layer-1"></path>
                <path d="M37.4394572,1.40260792 C39.8853137,0.747242645 42.3366963,0.284409064 44.7783091,1.94289029e-14 C22.2402036,9.73426947 9.60759987,34.5999234 16.0947871,58.8104359 C22.5820424,83.021202 45.9547013,98.2390031 70.340408,95.400075 C68.0840284,96.374761 65.7293284,97.1994416 63.2834719,97.8548069 C36.4079574,105.056079 8.83567955,89.3022297 1.69893119,62.6675222 C-5.43781717,36.0328147 10.563687,8.60394885 37.4394572,1.40260792 L37.4394572,1.40260792 Z" id="Layer-2"></path>
                <path d="M63.240485,18.7570569 C72.5022394,20.1907172 79.8092828,27.4977606 81.2429431,36.759515 C81.2922734,37.0832448 81.7023311,37.0832448 81.7547445,36.759515 C83.1884049,27.4977606 90.4954482,20.1907172 99.7572027,18.7570569 C100.080932,18.7077266 100.080932,18.2976689 99.7572027,18.2452555 C90.4954482,16.8115951 83.1884049,9.5045518 81.7547445,0.242797325 C81.7054142,-0.0809324417 81.2953565,-0.0809324417 81.2429431,0.242797325 C79.8092828,9.5045518 72.5022394,16.8115951 63.240485,18.2452555 C62.9198383,18.2945858 62.9198383,18.7077266 63.240485,18.7570569 L63.240485,18.7570569 Z" id="Layer-3"></path>
                <path d="M81.1234846,76.6314002 C85.8792234,77.3675582 89.6312544,81.1195892 90.3674124,85.8753281 C90.3927426,86.0415573 90.6032996,86.0415573 90.6302129,85.8753281 C91.3663709,81.1195892 95.1184019,77.3675582 99.8741407,76.6314002 C100.04037,76.6060701 100.04037,76.3955131 99.8741407,76.3685998 C95.1184019,75.6324418 91.3663709,71.8804108 90.6302129,67.1246719 C90.6048827,66.9584427 90.3943257,66.9584427 90.3674124,67.1246719 C89.6312544,71.8804108 85.8792234,75.6324418 81.1234846,76.3685998 C80.9588385,76.3939299 80.9588385,76.6060701 81.1234846,76.6314002 L81.1234846,76.6314002 Z" id="Layer-4"></path>
            </g>
        </g>
    </g>
</svg>