<?xml version="1.0" encoding="UTF-8"?>
<svg width="104px" height="104px" viewBox="0 0 104 104" version="1.1" xmlns="http://www.w3.org/2000/svg" xmlns:xlink="http://www.w3.org/1999/xlink">
    <!-- Generator: Sketch 46 (44423) - http://www.bohemiancoding.com/sketch -->
    <title>weather-32</title>
    <desc>Created with Sketch.</desc>
    <defs></defs>
    <g id="ALL" stroke="none" stroke-width="1" fill="none" fill-rule="evenodd" stroke-linecap="round" stroke-linejoin="round">
        <g id="Secondary" transform="translate(-701.000000, -2602.000000)" stroke="#868E96" stroke-width="3.5">
            <g id="weather-32" transform="translate(703.000000, 2604.000000)">
                <path d="M49.9999998,51.8147932 L49.9999999,94.2594713 C49.9999999,97.4298778 47.422412,100 44.2572109,100 L44.2572109,100 C41.0855562,100 38.514422,97.4352217 38.514422,94.2580381 L38.514422,92.6668549" id="Layer-1"></path>
                <path d="M89.3442623,47.4615232 C84.4961749,47.4615232 79.9191257,49.4145792 76.2295082,52.9911811 C72.5398907,49.4145792 67.9628415,47.4615232 63.1147541,47.4615232 C58.2666667,47.4615232 53.6896175,49.4145792 50,52.9911811 C46.3103825,49.4145792 41.7333333,47.4615232 36.8852459,47.4615232 C32.0371585,47.4615232 27.4601093,49.4145792 23.7704918,52.9911811 C20.0808743,49.4145792 15.5038251,47.4615232 10.6557377,47.4615232 C6.83060109,47.4615232 3.18469945,48.6966402 0,50.9639308 C2.6273224,25.735685 24.0480874,6 50,6 C75.9519126,6 97.3726776,25.735685 100,50.9639308 C96.8153005,48.6966402 93.1693989,47.4615232 89.3442623,47.4615232 L89.3442623,47.4615232 Z" id="Layer-2"></path>
                <path d="M49.9999997,0 L49.9999998,5.85742407" id="Layer-3"></path>
                <path d="M87.5,12.6377531 C87.5,16.151541 90.2985541,19 93.7507804,19 C97.2030068,19 100,16.151541 100,12.6377531 C100,9.12396528 93.7492196,-1.77635684e-15 93.7492196,-1.77635684e-15 C93.7492196,-1.77635684e-15 87.5,9.12396528 87.5,12.6377531 L87.5,12.6377531 Z" id="Layer-4"></path>
                <path d="M58,22.8809846 C58,29.24279 63.0668558,34.4 69.3172024,34.4 C75.5675491,34.4 80.6315789,29.24279 80.6315789,22.8809846 C80.6315789,16.5191793 69.3143765,3.55271368e-15 69.3143765,3.55271368e-15 C69.3143765,3.55271368e-15 58,16.5191793 58,22.8809846 L58,22.8809846 Z" id="Layer-5"></path>
            </g>
        </g>
    </g>
</svg>