<?xml version="1.0" encoding="UTF-8"?>
<svg width="104px" height="103px" viewBox="0 0 104 103" version="1.1" xmlns="http://www.w3.org/2000/svg" xmlns:xlink="http://www.w3.org/1999/xlink">
    <!-- Generator: Sketch 46 (44423) - http://www.bohemiancoding.com/sketch -->
    <title>weather-25</title>
    <desc>Created with Sketch.</desc>
    <defs></defs>
    <g id="ALL" stroke="none" stroke-width="1" fill="none" fill-rule="evenodd" stroke-linecap="round" stroke-linejoin="round">
        <g id="Secondary" transform="translate(-8406.000000, -2282.000000)" stroke="#868E96" stroke-width="3.5">
            <g id="weather-25" transform="translate(8408.000000, 2284.000000)">
                <path d="M100,90 C100,62.3857625 77.6142375,40 50,40 C22.3857625,40 0,62.3857625 0,90" id="Layer-1"></path>
                <path d="M87,89 C87,68.5654643 70.4345357,52 50,52 C29.5654643,52 13,68.5654643 13,89" id="Layer-2"></path>
                <path d="M74,89 C74,75.745166 63.254834,65 50,65 C36.745166,65 26,75.745166 26,89" id="Layer-3"></path>
                <path d="M61,89 C61,82.9248678 56.0751322,78 50,78 C43.9248678,78 39,82.9248678 39,89" id="Layer-4"></path>
                <path d="M0,99 L100,99" id="Layer-5"></path>
                <path d="M46,3.82308546 L51.76,13.7996981" id="Layer-6"></path>
                <path d="M95.1769145,17 L85.2003019,22.76" id="Layer-7"></path>
                <path d="M73.3174856,0.226670254 L70.3358902,11.3541358" id="Layer-8"></path>
                <path d="M98.7733297,44.3174856 L87.6458642,41.3358902" id="Layer-9"></path>
                <path d="M40.3541358,28.6641098 L29.2266703,25.6825144" id="Layer-10"></path>
                <path d="M77.9563841,48.5398286 C83.8597995,42.4610086 85.2820391,32.9815731 80.8355338,25.28 C75.4673261,15.9819914 63.5780086,12.7962584 54.28,18.1644662 C46.4303081,22.6964879 42.9370213,31.8763034 45.2693167,40.2208694 C46.8265519,40.0747261 48.4045494,40 50,40 C60.3557321,40 69.976154,43.1482368 77.9563841,48.5398286 L77.9563841,48.5398286 Z" id="Layer-11"></path>
            </g>
        </g>
    </g>
</svg>