<?xml version="1.0" encoding="UTF-8"?>
<svg width="104px" height="114px" viewBox="0 0 104 114" version="1.1" xmlns="http://www.w3.org/2000/svg" xmlns:xlink="http://www.w3.org/1999/xlink">
    <!-- Generator: Sketch 46 (44423) - http://www.bohemiancoding.com/sketch -->
    <title>weather-42</title>
    <desc>Created with Sketch.</desc>
    <defs></defs>
    <g id="ALL" stroke="none" stroke-width="1" fill="none" fill-rule="evenodd" stroke-linecap="round" stroke-linejoin="round">
        <g id="Secondary" transform="translate(-3639.000000, -2602.000000)" stroke="#868E96" stroke-width="3.5">
            <g id="weather-42" transform="translate(3641.000000, 2604.000000)">
                <path d="M0.384373514,80.6324324 C2.56025236,83.4486486 5.48613699,85 8.62064392,85 C11.7551508,85 14.6810355,83.4486486 16.8569143,80.6324324 L16.8569143,80.6324324 C18.3672708,78.6792793 20.3414239,77.6036036 22.4138537,77.6036036 C24.4862835,77.6036036 26.4604366,78.6792793 27.9707931,80.6324324 C30.1483961,83.4486486 33.0725566,85 36.2070635,85 C39.3415704,85 42.2674551,83.4486486 44.4433339,80.6324324 C45.9536904,78.6792793 47.9278435,77.6036036 50.0002733,77.6036036 C52.0727031,77.6036036 54.0468562,78.6792793 55.5572127,80.6324324 C57.7348157,83.4486486 60.6589762,85 63.7934831,85 C66.9279901,85 69.8538747,83.4486486 72.0297535,80.6324324 C73.54011,78.6792793 75.5142632,77.6036036 77.5866929,77.6036036 C79.6591227,77.6036036 81.6332759,78.6792793 83.1436323,80.6324324 C85.3212353,83.4486486 88.2453958,84.9981982 91.3799027,84.9981982 C94.5144097,84.9981982 97.4402943,83.4486486 99.6161731,80.6324324" id="Layer-1"></path>
                <path d="M0.384373514,93.6324324 C2.56025236,96.4486486 5.48613699,98 8.62064392,98 C11.7551508,98 14.6810355,96.4486486 16.8569143,93.6324324 L16.8569143,93.6324324 C18.3672708,91.6792793 20.3414239,90.6036036 22.4138537,90.6036036 C24.4862835,90.6036036 26.4604366,91.6792793 27.9707931,93.6324324 C30.1483961,96.4486486 33.0725566,98 36.2070635,98 C39.3415704,98 42.2674551,96.4486486 44.4433339,93.6324324 C45.9536904,91.6792793 47.9278435,90.6036036 50.0002733,90.6036036 C52.0727031,90.6036036 54.0468562,91.6792793 55.5572127,93.6324324 C57.7348157,96.4486486 60.6589762,98 63.7934831,98 C66.9279901,98 69.8538747,96.4486486 72.0297535,93.6324324 C73.54011,91.6792793 75.5142632,90.6036036 77.5866929,90.6036036 C79.6591227,90.6036036 81.6332759,91.6792793 83.1436323,93.6324324 C85.3212353,96.4486486 88.2453958,97.9981982 91.3799027,97.9981982 C94.5144097,97.9981982 97.4402943,96.4486486 99.6161731,93.6324324" id="Layer-2"></path>
                <path d="M0.384373514,105.632432 C2.56025236,108.448649 5.48613699,110 8.62064392,110 C11.7551508,110 14.6810355,108.448649 16.8569143,105.632432 L16.8569143,105.632432 C18.3672708,103.679279 20.3414239,102.603604 22.4138537,102.603604 C24.4862835,102.603604 26.4604366,103.679279 27.9707931,105.632432 C30.1483961,108.448649 33.0725566,110 36.2070635,110 C39.3415704,110 42.2674551,108.448649 44.4433339,105.632432 C45.9536904,103.679279 47.9278435,102.603604 50.0002733,102.603604 C52.0727031,102.603604 54.0468562,103.679279 55.5572127,105.632432 C57.7348157,108.448649 60.6589762,110 63.7934831,110 C66.9279901,110 69.8538747,108.448649 72.0297535,105.632432 C73.54011,103.679279 75.5142632,102.603604 77.5866929,102.603604 C79.6591227,102.603604 81.6332759,103.679279 83.1436323,105.632432 C85.3212353,108.448649 88.2453958,109.998198 91.3799027,109.998198 C94.5144097,109.998198 97.4402943,108.448649 99.6161731,105.632432" id="Layer-3"></path>
                <path d="M73.0914123,64 C75.5717084,59.9177867 77,55.125691 77,50 C77,35.0883118 64.9116882,23 50,23 C35.0883118,23 23,35.0883118 23,50 C23,55.125691 24.4282916,59.9177867 26.9085877,64 L73.0914123,64 L73.0914123,64 Z" id="Layer-4"></path>
                <path d="M50,34.8431458 L50,54.8431458" id="Layer-5"></path>
                <polyline id="Layer-6" points="41.8578644 42.6421356 50 34.5 58.1421356 42.6421356"></polyline>
                <path d="M50,0 L50,16" id="Layer-7"></path>
                <path d="M100,50 L84,50" id="Layer-8"></path>
                <path d="M16,50 L0,50" id="Layer-9"></path>
                <path d="M85.3553391,14.6446609 L74.0416306,25.9583694" id="Layer-10"></path>
                <path d="M25.9583694,25.9583694 L14.6446609,14.6446609" id="Layer-11"></path>
            </g>
        </g>
    </g>
</svg>