<?xml version="1.0" encoding="UTF-8"?>
<svg width="104px" height="104px" viewBox="0 0 104 104" version="1.1" xmlns="http://www.w3.org/2000/svg" xmlns:xlink="http://www.w3.org/1999/xlink">
    <!-- Generator: Sketch 46 (44423) - http://www.bohemiancoding.com/sketch -->
    <title>weather-21</title>
    <desc>Created with Sketch.</desc>
    <defs></defs>
    <g id="ALL" stroke="none" stroke-width="1" fill="none" fill-rule="evenodd" stroke-linecap="round" stroke-linejoin="round">
        <g id="Secondary" transform="translate(-7206.000000, -2282.000000)" stroke="#868E96" stroke-width="3.5">
            <g id="weather-21" transform="translate(7208.000000, 2284.000000)">
                <circle id="Layer-1" cx="50" cy="50" r="27"></circle>
                <path d="M50,0 L50,16" id="Layer-2"></path>
                <path d="M50,84 L50,100" id="Layer-3"></path>
                <path d="M100,50 L84,50" id="Layer-4"></path>
                <path d="M16,50 L0,50" id="Layer-5"></path>
                <path d="M85.3553391,14.6446609 L74.0416306,25.9583694" id="Layer-6"></path>
                <path d="M25.9583694,74.0416306 L14.6446609,85.3553391" id="Layer-7"></path>
                <path d="M85.3553391,85.3553391 L74.0416306,74.0416306" id="Layer-8"></path>
                <path d="M25.9583694,25.9583694 L14.6446609,14.6446609" id="Layer-9"></path>
                <path d="M31.2696703,3.64080727 L37.2633758,18.4757489" id="Layer-10"></path>
                <path d="M62.7366242,81.5242511 L68.7303297,96.3591927" id="Layer-11"></path>
                <path d="M96.3591927,31.2696703 L81.5242511,37.2633758" id="Layer-12"></path>
                <path d="M18.4757489,62.7366242 L3.64080727,68.7303297" id="Layer-13"></path>
                <path d="M69.5365564,3.97475733 L63.2848584,18.702835" id="Layer-14"></path>
                <path d="M36.7151416,81.297165 L30.4634436,96.0252427" id="Layer-15"></path>
                <path d="M96.0252427,69.5365564 L81.297165,63.2848584" id="Layer-16"></path>
                <path d="M18.702835,36.7151416 L3.97475733,30.4634436" id="Layer-17"></path>
            </g>
        </g>
    </g>
</svg>