<?xml version="1.0" encoding="UTF-8"?>
<svg width="104px" height="104px" viewBox="0 0 104 104" version="1.1" xmlns="http://www.w3.org/2000/svg" xmlns:xlink="http://www.w3.org/1999/xlink">
    <!-- Generator: Sketch 46 (44423) - http://www.bohemiancoding.com/sketch -->
    <title>weather-27</title>
    <desc>Created with Sketch.</desc>
    <defs></defs>
    <g id="ALL" stroke="none" stroke-width="1" fill="none" fill-rule="evenodd" stroke-linecap="round" stroke-linejoin="round">
        <g id="Secondary" transform="translate(-9006.000000, -2282.000000)" stroke="#868E96" stroke-width="3.5">
            <g id="weather-27" transform="translate(9008.000000, 2284.000000)">
                <path d="M90.1501902,60.3339163 C62.2685394,60.3339163 39.6660837,37.7314606 39.6660837,9.84980978 C39.6660837,6.47819267 40.0032454,3.18590772 40.6342967,0 C17.4693039,4.58143267 0,25.0058598 0,49.5158935 C0,77.3975443 22.6024557,100 50.4841065,100 C74.9941402,100 95.4185673,82.5306961 100,59.3657033 C96.8140923,59.9967546 93.5218073,60.3339163 90.1501902,60.3339163 L90.1501902,60.3339163 Z" id="Layer-1"></path>
                <path d="M83.1099825,38.6168896 C87.3668896,39.275722 90.7248094,42.6336417 91.3815164,46.8884236 C91.4048944,47.0371921 91.594043,47.0371921 91.6152957,46.8884236 C92.274128,42.6315164 95.6320478,39.2735967 99.8868296,38.6168896 C100.035598,38.5935117 100.035598,38.404363 99.8868296,38.3831104 C95.6299225,37.724278 92.2720028,34.3663583 91.6152957,30.1115764 C91.5919177,29.9628079 91.4027691,29.9628079 91.3815164,30.1115764 C90.7226841,34.3684836 87.3647643,37.7264033 83.1099825,38.3831104 C82.9633392,38.4064883 82.9633392,38.5935117 83.1099825,38.6168896 L83.1099825,38.6168896 Z" id="Layer-2"></path>
                <path d="M51.1754781,13.6867267 C57.9336333,14.7328459 63.2654668,20.0646794 64.3115861,26.8228346 C64.3475816,27.0590551 64.6467942,27.0590551 64.6850394,26.8228346 C65.7311586,20.0646794 71.0629921,14.7328459 77.8211474,13.6867267 C78.0573678,13.6507312 78.0573678,13.3515186 77.8211474,13.3132733 C71.0629921,12.2671541 65.7311586,6.93532058 64.6850394,0.177165354 C64.6490439,-0.0590551181 64.3498313,-0.0590551181 64.3115861,0.177165354 C63.2654668,6.93532058 57.9336333,12.2671541 51.1754781,13.3132733 C50.9415073,13.3492688 50.9415073,13.6507312 51.1754781,13.6867267 L51.1754781,13.6867267 Z" id="Layer-3"></path>
            </g>
        </g>
    </g>
</svg>