<?xml version="1.0" encoding="UTF-8"?>
<svg width="104px" height="103px" viewBox="0 0 104 103" version="1.1" xmlns="http://www.w3.org/2000/svg" xmlns:xlink="http://www.w3.org/1999/xlink">
    <!-- Generator: Sketch 46 (44423) - http://www.bohemiancoding.com/sketch -->
    <title>weather-33</title>
    <desc>Created with Sketch.</desc>
    <defs></defs>
    <g id="ALL" stroke="none" stroke-width="1" fill="none" fill-rule="evenodd" stroke-linecap="round" stroke-linejoin="round">
        <g id="Secondary" transform="translate(-1006.000000, -2602.000000)" stroke="#868E96" stroke-width="3.5">
            <g id="weather-33" transform="translate(1008.000000, 2604.000000)">
                <path d="M13.3115861,61.8228346 C13.3475816,62.0590551 13.6467942,62.0590551 13.6850394,61.8228346 C14.7311586,55.0646794 20.0629921,49.7328459 26.8211474,48.6867267 C27.0573678,48.6507312 27.0573678,48.3515186 26.8211474,48.3132733 C20.0629921,47.2671541 14.7311586,41.9353206 13.6850394,35.1771654 C13.6490439,34.9409449 13.3498313,34.9409449 13.3115861,35.1771654 C12.2654668,41.9353206 6.9336333,47.2671541 0.175478065,48.3132733 C-0.0584926884,48.3492688 -0.0584926884,48.6507312 0.175478065,48.6867267 C6.9336333,49.7328459 12.2654668,55.0646794 13.3115861,61.8228346 Z" id="Layer-1"></path>
                <path d="M46.3509781,27.3751641 C59.8681332,29.4675333 70.5324667,40.1318668 72.6248359,53.6490219 C72.6968314,54.1214924 73.295294,54.1214924 73.3717893,53.6490219 C75.4641585,40.1318668 86.128492,29.4675333 99.6456471,27.3751641 C100.118118,27.3031686 100.118118,26.704706 99.6456471,26.6282107 C86.128492,24.5358415 75.4641585,13.871508 73.3717893,0.354352853 C73.2997938,-0.118117618 72.7013312,-0.118117618 72.6248359,0.354352853 C70.5324667,13.871508 59.8681332,24.5358415 46.3509781,26.6282107 C45.8830073,26.7002062 45.8830073,27.3031686 46.3509781,27.3751641 L46.3509781,27.3751641 Z" id="Layer-2"></path>
                <path d="M40.1949878,84.2084245 C47.7045185,85.3708518 53.6291482,91.2954815 54.7915755,98.8050122 C54.831573,99.0674958 55.1640522,99.0674958 55.2065496,98.8050122 C56.3689769,91.2954815 62.2936066,85.3708518 69.8031373,84.2084245 C70.0656209,84.168427 70.0656209,83.8359478 69.8031373,83.7934504 C62.2936066,82.6310231 56.3689769,76.7063934 55.2065496,69.1968627 C55.1665521,68.9343791 54.8340729,68.9343791 54.7915755,69.1968627 C53.6291482,76.7063934 47.7045185,82.6310231 40.1949878,83.7934504 C39.9350041,83.8334479 39.9350041,84.168427 40.1949878,84.2084245 L40.1949878,84.2084245 Z" id="Layer-3"></path>
            </g>
        </g>
    </g>
</svg>