<?xml version="1.0" encoding="UTF-8"?>
<svg width="104px" height="104px" viewBox="0 0 104 104" version="1.1" xmlns="http://www.w3.org/2000/svg" xmlns:xlink="http://www.w3.org/1999/xlink">
    <!-- Generator: Sketch 46 (44423) - http://www.bohemiancoding.com/sketch -->
    <title>weather-37</title>
    <desc>Created with Sketch.</desc>
    <defs></defs>
    <g id="ALL" stroke="none" stroke-width="1" fill="none" fill-rule="evenodd" stroke-linecap="round" stroke-linejoin="round">
        <g id="Secondary" transform="translate(-2155.000000, -2602.000000)" stroke="#868E96" stroke-width="3.5">
            <g id="weather-37" transform="translate(2157.000000, 2604.000000)">
                <path d="M31.0999564,62.082904 L31.0999564,10.7107728 C31.0999564,4.79531616 26.3027221,0 20.3848993,0 L20.3848993,0 C14.4670764,0 9.66984213,4.79531616 9.66984213,10.7107728 L9.66984213,62.082904 C3.68196785,65.7892272 -0.244895009,72.5058548 0.0118821343,80.1210773 C0.365887849,90.6185012 8.79033356,99.2128806 19.2832878,99.764637 C31.0416193,100.382904 40.7696307,91.0355972 40.7696307,79.4168618 C40.769865,72.0932084 36.9025107,65.6747073 31.0999564,62.082904 L31.0999564,62.082904 Z" id="Layer-1"></path>
                <path d="M25.3850495,19 L25.3850495,65.1517564 L28.1585238,66.8686183 C32.4768781,69.5416862 35.0549581,74.1606557 35.0549581,79.2248244 C35.0549581,83.1039813 33.5438152,86.7510539 30.8000952,89.4936768 C28.0563752,92.2362998 24.4085466,93.7468384 20.5283066,93.7468384 C20.2642666,93.7468384 19.9971809,93.7398126 19.7336095,93.7259953 C12.2887124,93.3344262 6.25960379,87.1875878 6.00821522,79.7318501 C5.8329695,74.5358314 8.47219808,69.6070258 12.8959809,66.8686183 L15.6694552,65.1517564 L15.6694552,19 L25.3850495,19 Z" id="Layer-2"></path>
                <path d="M94.2398885,0 C85.2804166,12.921311 89.3420437,22.1548703 94.2398884,26.832855 C100.2726,32.6388644 103.199361,42.6079079 94.2398887,52" id="Layer-3"></path>
                <path d="M76.7718034,0 C67.8123315,12.921311 71.8739586,22.1548703 76.7718033,26.832855 C82.8045144,32.6388644 85.7312759,42.6079079 76.7718035,52" id="Layer-4"></path>
                <path d="M59.3037183,0 C50.3442463,12.921311 54.4058734,22.1548703 59.3037182,26.832855 C65.3364293,32.6388644 68.2631908,42.6079079 59.3037184,52" id="Layer-5"></path>
            </g>
        </g>
    </g>
</svg>