<?xml version="1.0" encoding="UTF-8"?>
<svg width="124px" height="124px" viewBox="0 0 124 124" version="1.1" xmlns="http://www.w3.org/2000/svg" xmlns:xlink="http://www.w3.org/1999/xlink">
    <!-- Generator: Sketch 46 (44423) - http://www.bohemiancoding.com/sketch -->
    <title>weather-6</title>
    <desc>Created with Sketch.</desc>
    <defs></defs>
    <g id="ALL" stroke="none" stroke-width="1" fill="none" fill-rule="evenodd" stroke-linecap="round" stroke-linejoin="round">
        <g id="Secondary" transform="translate(-2566.000000, -2282.000000)" stroke="#868E96" stroke-width="3.5">
            <g id="weather-6" transform="translate(2568.000000, 2284.000000)">
                <path d="M18.5185185,43.5405405 C18.5185185,30.5606486 29.3185185,20 42.5925926,20 C51.6222222,20 59.7555556,24.862027 63.8944444,32.5597838 C65.8518519,31.457 68.0851852,30.8648649 70.3703704,30.8648649 C77.5166667,30.8648649 83.3333333,36.5526216 83.3333333,43.5405405 C83.3333333,43.7668919 83.3277778,43.9932432 83.3148148,44.2195946 C93.0833333,46.6551351 100,55.2492432 100,65.2702703 C100,77.2524054 90.0314815,87 77.7777778,87 C77.7777778,87 19.8944444,86.9511081 19.6833333,86.8605676 C8.42592593,85.6147297 0,76.4212432 0,65.2702703 C0,54.6752162 8.00185185,45.5849459 18.5203704,43.8429459 C18.5185185,43.7415405 18.5185185,43.6419459 18.5185185,43.5405405 Z" id="Layer-1"></path>
                <path d="M58.976419,97.2214821 L53.023581,119.437776" id="Layer-2"></path>
                <path d="M42.1999619,97.1192596 L38.3176762,111.608147" id="Layer-3"></path>
                <path d="M26.2940952,97 L24.4823619,103.761481" id="Layer-4"></path>
                <path d="M74.1999619,97.1192596 L70.0588572,112.574073" id="Layer-5"></path>
                <path d="M95.3935755,51.9925422 C106.77779,51.7261399 116.403108,44.3490739 120,34.1308734 C119.515426,34.1521887 119.028113,34.1629583 118.538285,34.1629583 C100.477886,34.1629583 85.8370417,19.522114 85.8370417,1.46171531 C85.8370417,0.971886878 85.8478113,0.48457382 85.8691266,4.01087163e-10 C75.4605772,3.6638969 68,13.5829111 68,25.2444375 C68,27.2137677 68.2127643,29.133404 68.6165599,30.9816138 C69.1951526,30.9042471 69.7810372,30.8648649 70.3703704,30.8648649 C77.5166667,30.8648649 83.3333333,36.5526216 83.3333333,43.5405405 C83.3333333,43.7668919 83.3277778,43.9932432 83.3148148,44.2195946 C88.2394817,45.4474395 92.4393401,48.2405067 95.3935729,51.992539 L95.3935755,51.9925422 Z" id="Layer-6"></path>
            </g>
        </g>
    </g>
</svg>