<?xml version="1.0" encoding="UTF-8"?>
<svg width="104px" height="102px" viewBox="0 0 104 102" version="1.1" xmlns="http://www.w3.org/2000/svg" xmlns:xlink="http://www.w3.org/1999/xlink">
    <!-- Generator: Sketch 46 (44423) - http://www.bohemiancoding.com/sketch -->
    <title>weather-48</title>
    <desc>Created with Sketch.</desc>
    <defs></defs>
    <g id="ALL" stroke="none" stroke-width="1" fill="none" fill-rule="evenodd" stroke-linecap="round" stroke-linejoin="round">
        <g id="Secondary" transform="translate(-5439.000000, -2603.000000)" stroke="#868E96" stroke-width="3.5">
            <g id="weather-48" transform="translate(5441.000000, 2604.000000)">
                <path d="M0,99 L50,99 L100,99" id="Layer-1"></path>
                <path d="M50.065036,1.42024532 C50.8494159,0.635865491 52.1230566,0.637775215 52.9055267,1.42024532 L58.5503174,7.06503605 C59.3346973,7.84941588 59.3327875,9.12305659 58.5503174,9.9055267 L52.9055267,15.5503174 C52.1211469,16.3346973 50.8475062,16.3327875 50.065036,15.5503174 L44.4202453,9.9055267 C43.6358655,9.12114686 43.6377752,7.84750616 44.4202453,7.06503605 L50.065036,1.42024532 L50.065036,1.42024532 Z" id="Layer-2"></path>
                <path d="M54.9957349,43.7394382 C55.5503752,42.778773 56.7811119,42.4509752 57.7394382,43.0042651 L64.6528667,46.9957349 C65.6135318,47.5503752 65.9413297,48.7811119 65.3880397,49.7394382 L61.3965699,56.6528667 C60.8419296,57.6135318 59.6111929,57.9413297 58.6528667,57.3880397 L51.7394382,53.3965699 C50.778773,52.8419296 50.4509752,51.6111929 51.0042651,50.6528667 L54.9957349,43.7394382 L54.9957349,43.7394382 Z" id="Layer-3"></path>
                <path d="M34.3965699,24.7394382 C33.8419296,23.778773 32.6111929,23.4509752 31.6528667,24.0042651 L24.7394382,27.9957349 C23.778773,28.5503752 23.4509752,29.7811119 24.0042651,30.7394382 L27.9957349,37.6528667 C28.5503752,38.6135318 29.7811119,38.9413297 30.7394382,38.3880397 L37.6528667,34.3965699 C38.6135318,33.8419296 38.9413297,32.6111929 38.3880397,31.6528667 L34.3965699,24.7394382 L34.3965699,24.7394382 Z" id="Layer-4"></path>
                <path d="M98.6149263,80.6539099 C99.3279581,81.5036682 99.2150506,82.7722958 98.3673612,83.4835916 L92.2520747,88.6149263 C91.4023165,89.3279581 90.1336888,89.2150506 89.422393,88.3673612 L84.2910583,82.2520747 C83.5780265,81.4023165 83.6909341,80.1336888 84.5386234,79.422393 L90.6539099,74.2910583 C91.5036682,73.5780265 92.7722958,73.6909341 93.4835916,74.5386234 L98.6149263,80.6539099 L98.6149263,80.6539099 Z" id="Layer-5"></path>
                <path d="M15.6149263,80.6539099 C16.3279581,81.5036682 16.2150506,82.7722958 15.3673612,83.4835916 L9.25207471,88.6149263 C8.40231648,89.3279581 7.1336888,89.2150506 6.42239299,88.3673612 L1.29105833,82.2520747 C0.578026501,81.4023165 0.690934061,80.1336888 1.5386234,79.422393 L7.65390992,74.2910583 C8.50366816,73.5780265 9.77229583,73.6909341 10.4835916,74.5386234 L15.6149263,80.6539099 L15.6149263,80.6539099 Z" id="Layer-6"></path>
                <path d="M79.4699993,75.4240594 C78.4860106,75.4240594 69.8638233,73.6143713 63.632906,77.4719066 C58.2037991,80.8330444 55,89.9300003 55,89.9300003" id="Layer-7"></path>
                <path d="M20,75.4240594 C20.9839887,75.4240594 29.606176,73.6143713 35.8370933,77.4719066 C41.2662002,80.8330444 44.4699993,89.9300003 44.4699993,89.9300003" id="Layer-8"></path>
            </g>
        </g>
    </g>
</svg>