<?xml version="1.0" encoding="UTF-8"?>
<svg width="124px" height="124px" viewBox="0 0 124 124" version="1.1" xmlns="http://www.w3.org/2000/svg" xmlns:xlink="http://www.w3.org/1999/xlink">
    <!-- Generator: Sketch 46 (44423) - http://www.bohemiancoding.com/sketch -->
    <title>weather-9</title>
    <desc>Created with Sketch.</desc>
    <defs></defs>
    <g id="ALL" stroke="none" stroke-width="1" fill="none" fill-rule="evenodd" stroke-linecap="round" stroke-linejoin="round">
        <g id="Secondary" transform="translate(-3506.000000, -2282.000000)" stroke="#868E96" stroke-width="3.5">
            <g id="weather-9" transform="translate(3508.000000, 2284.000000)">
                <path d="M18.5185185,42.5405405 C18.5185185,29.5606486 29.3185185,19 42.5925926,19 C51.6222222,19 59.7555556,23.862027 63.8944444,31.5597838 C65.8518519,30.457 68.0851852,29.8648649 70.3703704,29.8648649 C77.5166667,29.8648649 83.3333333,35.5526216 83.3333333,42.5405405 C83.3333333,42.7668919 83.3277778,42.9932432 83.3148148,43.2195946 C93.0833333,45.6551351 100,54.2492432 100,64.2702703 C100,76.2524054 90.0314815,86 77.7777778,86 C77.7777778,86 19.8944444,85.9511081 19.6833333,85.8605676 C8.42592593,84.6147297 0,75.4212432 0,64.2702703 C0,53.6752162 8.00185185,44.5849459 18.5203704,42.8429459 C18.5185185,42.7415405 18.5185185,42.6419459 18.5185185,42.5405405 Z" id="Layer-1"></path>
                <path d="M96.1169526,52 C107.184175,51.4449788 116.479548,44.1608245 120,34.1532277 C119.515426,34.174557 119.028113,34.1853337 118.538285,34.1853337 C100.477886,34.1853337 85.8370417,19.5349002 85.8370417,1.46267267 C85.8370417,0.972523424 85.8478113,0.484891196 85.8691266,4.01087163e-10 C75.4605772,3.6662966 68,13.5918074 68,25.2609716 C68,26.8881708 68.1450689,28.4814652 68.422971,30.0286109 C69.064322,29.9331276 69.7152152,29.8844251 70.3703704,29.8844251 C77.5166667,29.8844251 83.3333333,35.5759071 83.3333333,42.5684028 C83.3333333,42.7949024 83.3277778,43.021402 83.3148148,43.2479016 C88.6565017,44.5805925 93.1454293,47.7560211 96.1169526,52 L96.1169526,52 Z" id="Layer-2"></path>
                <path d="M25,105 C27.209139,105 29,103.209139 29,101 C29,98.790861 27.209139,97 25,97 C22.790861,97 21,98.790861 21,101 C21,103.209139 22.790861,105 25,105 Z" id="Layer-3"></path>
                <circle id="Layer-4" cx="50" cy="101" r="4"></circle>
                <circle id="Layer-5" cx="75" cy="101" r="4"></circle>
                <circle id="Layer-6" cx="38" cy="116" r="4"></circle>
                <circle id="Layer-7" cx="63" cy="116" r="4"></circle>
            </g>
        </g>
    </g>
</svg>