<?xml version="1.0" encoding="UTF-8"?>
<svg width="75px" height="104px" viewBox="0 0 75 104" version="1.1" xmlns="http://www.w3.org/2000/svg" xmlns:xlink="http://www.w3.org/1999/xlink">
    <!-- Generator: Sketch 46 (44423) - http://www.bohemiancoding.com/sketch -->
    <title>weather-35</title>
    <desc>Created with Sketch.</desc>
    <defs></defs>
    <g id="ALL" stroke="none" stroke-width="1" fill="none" fill-rule="evenodd" stroke-linecap="round" stroke-linejoin="round">
        <g id="Secondary" transform="translate(-1584.000000, -2602.000000)" stroke="#868E96" stroke-width="3.5">
            <g id="weather-35" transform="translate(1586.000000, 2604.000000)">
                <path d="M31.1115029,62.0833724 L31.1115029,10.7112412 C31.1115029,4.79578454 26.3142686,0.000468384075 20.3964457,0.000468384075 L20.3964457,0.000468384075 C14.4786229,0.000468384075 9.68138857,4.79578454 9.68138857,10.7112412 L9.68138857,62.0833724 C3.69351429,65.7896956 -0.233348571,72.5063232 0.0234285714,80.1215457 C0.377434286,90.6189696 8.80188,99.2133489 19.2948343,99.7651054 C31.0531657,100.383372 40.7811771,91.0360656 40.7811771,79.4173302 C40.7814114,72.0936768 36.9140571,65.6751756 31.1115029,62.0833724 L31.1115029,62.0833724 Z" id="Layer-1"></path>
                <path d="M25.25436,44.1925059 L25.25436,65.3442623 L28.0278343,67.0611241 C32.3461886,69.734192 34.9242686,74.3531616 34.9242686,79.4173302 C34.9242686,83.2964871 33.4131257,86.9435597 30.6694057,89.6861827 C27.9256857,92.4288056 24.2778571,93.9393443 20.3976171,93.9393443 C20.1335771,93.9393443 19.8664914,93.9323185 19.60292,93.9185012 C12.1580229,93.5269321 6.12891429,87.3800937 5.87752571,79.924356 C5.70228,74.7283372 8.34150857,69.7995316 12.7652914,67.0611241 L15.5387657,65.3442623 L15.5387657,44.1925059 L25.25436,44.1925059 Z" id="Layer-2"></path>
                <path d="M59,5.75 L41,5.75" id="Layer-3"></path>
                <path d="M59,25.25 L41,25.25" id="Layer-4"></path>
                <path d="M59,44.75 L41,44.75" id="Layer-5"></path>
                <path d="M71,14.5 L41,14.5" id="Layer-6"></path>
                <path d="M71,34 L41,34" id="Layer-7"></path>
                <path d="M71,53 L41,53" id="Layer-8"></path>
            </g>
        </g>
    </g>
</svg>