<?xml version="1.0" encoding="UTF-8"?>
<svg width="103px" height="104px" viewBox="0 0 103 104" version="1.1" xmlns="http://www.w3.org/2000/svg" xmlns:xlink="http://www.w3.org/1999/xlink">
    <!-- Generator: Sketch 46 (44423) - http://www.bohemiancoding.com/sketch -->
    <title>web-25</title>
    <desc>Created with Sketch.</desc>
    <defs></defs>
    <g id="ALL" stroke="none" stroke-width="1" fill="none" fill-rule="evenodd" stroke-linecap="round" stroke-linejoin="round">
        <g id="Secondary" transform="translate(-2807.000000, -8103.000000)" stroke="#868E96" stroke-width="3.5">
            <g id="web-25" transform="translate(2809.000000, 8105.000000)">
                <polygon id="Layer-1" points="12.5455726 76 16.3465423 84.0053728 25.0911452 85.1671493 18.6953509 91.2764191 20.2992427 100 12.5455726 95.7702962 4.79190256 100 6.39579436 91.2764191 0 85.1671493 8.74460296 84.0053728"></polygon>
                <polygon id="Layer-2" points="49.5455726 76 53.3465423 84.0053728 62.0911452 85.1671493 55.6953509 91.2764191 57.2992427 100 49.5455726 95.7702962 41.7919026 100 43.3957944 91.2764191 37 85.1671493 45.744603 84.0053728"></polygon>
                <polygon id="Layer-3" points="86.5455726 76 90.3465423 84.0053728 99.0911452 85.1671493 92.6953509 91.2764191 94.2992427 100 86.5455726 95.7702962 78.7919026 100 80.3957944 91.2764191 74 85.1671493 82.744603 84.0053728"></polygon>
                <path d="M71.9841016,63.7091842 C79.9362426,57.1057425 85,47.1442232 85,36 C85,16.117749 68.882251,0 49,0 C29.117749,0 13,16.117749 13,36 C13,47.1433365 18.0629516,57.1041573 26.0140002,63.7076079 C32.199487,58.5079561 41.0022692,56.6752096 41.6663591,55.0543651 C42.6758432,52.5905169 42.6758432,51.4431329 42.6758432,48.4897918 C42.6758432,45.5364507 38.9088966,40.4580985 38.9088966,40.4580985 C38.9088966,40.4580985 36.5010498,39.3847631 35.8241129,36.6346489 C35.3689344,34.785447 36.3750543,32.6778261 36.909128,32.3420406 C35.4815413,27.8944487 32.6303441,12.5614839 48.9432547,12.0055929 C49.0145779,12.0034436 49.0862674,12.0015786 49.1583288,12.0120264 C65.3696559,12.5646557 62.5184587,27.8976205 61.090872,32.3452124 C61.6249457,32.6809979 62.6310656,34.7886188 62.1758871,36.6378207 C61.4989502,39.3879349 59.0911034,40.4612702 59.0911034,40.4612702 C59.0911034,40.4612702 55.3241568,45.5396225 55.3241568,48.4929636 C55.3241568,51.4463047 55.3241568,52.5936887 56.3336409,55.0575369 C56.9976629,56.6782156 65.7987123,58.5107529 71.9841016,63.7091842 L71.9841016,63.7091842 Z" id="Layer-4"></path>
            </g>
        </g>
    </g>
</svg>