<?xml version="1.0" encoding="UTF-8"?>
<svg width="94px" height="104px" viewBox="0 0 94 104" version="1.1" xmlns="http://www.w3.org/2000/svg" xmlns:xlink="http://www.w3.org/1999/xlink">
    <!-- Generator: Sketch 46 (44423) - http://www.bohemiancoding.com/sketch -->
    <title>web-6</title>
    <desc>Created with Sketch.</desc>
    <defs></defs>
    <g id="ALL" stroke="none" stroke-width="1" fill="none" fill-rule="evenodd" stroke-linecap="round" stroke-linejoin="round">
        <g id="Secondary" transform="translate(-6612.000000, -7802.000000)" stroke="#868E96" stroke-width="3.5">
            <g id="web-6" transform="translate(6614.000000, 7804.000000)">
                <path d="M62,72.6074524 L62,97.0017838 C62,98.6576529 60.6473821,100 59.0096111,100 L2.99038887,100 C1.3388427,100 0,98.6619875 0,97.0071986 L0,2.99280137 C0,1.33992281 1.35261789,0 2.99038887,0 L59.0096111,0 C60.6611573,0 62,1.33949876 62,2.99516734 L62,19" id="Layer-1"></path>
                <path d="M46.2660405,65.3997232 L46.0063161,65.3997232 C42.6882172,65.3997232 40,62.711014 40,59.3943232 L40,32.0053999 C40,28.6771274 42.6891193,26 46.0063161,26 L83.9936839,26 C87.3117828,26 90,28.6887091 90,32.0053999 L90,59.3943232 C90,62.7225957 87.3108807,65.3997232 83.9936839,65.3997232 L54.3166244,65.3997232 C52.6825122,74.1500015 45.2460524,74.1500018 45.2460524,74.1500015 C45.2460524,74.1500012 46.9350506,70.2889847 46.2660405,65.3997232 L46.2660405,65.3997232 Z" id="Layer-2"></path>
                <polyline id="Layer-3" points="55 45.0326948 62.4628609 52.5647746 75.9836877 39"></polyline>
                <path d="M62,26 L62,2.99280137 C62,1.33801252 60.6611573,0 59.0096111,0 L2.99038887,0 C1.35261789,0 0,1.33992281 0,2.99280137 L0,97.0071986 C0,98.6619875 1.3388427,100 2.99038887,100 L59.0096111,100 C60.6473821,100 62,98.6600772 62,97.0071986 L62,65.3997232 L54.3166244,65.3997232 C52.6825122,74.1500015 45.2460524,74.1500018 45.2460524,74.1500015 C45.2460524,74.1500012 46.9350506,70.2889847 46.2660405,65.3997232 L46.2660405,65.3997232 L46.0063161,65.3997232 C42.6882172,65.3997232 40,62.711014 40,59.3943232 L40,32.0053999 C40,28.6771274 42.6891193,26 46.0063161,26 L62,26 L62,26 Z" id="Layer-4"></path>
                <circle id="Layer-5" cx="31" cy="87" r="4"></circle>
                <path d="M23,8 L31,8" id="Layer-6"></path>
                <path d="M37,8 L39,8" id="Layer-7"></path>
            </g>
        </g>
    </g>
</svg>