<?xml version="1.0" encoding="UTF-8"?>
<svg width="104px" height="104px" viewBox="0 0 104 104" version="1.1" xmlns="http://www.w3.org/2000/svg" xmlns:xlink="http://www.w3.org/1999/xlink">
    <!-- Generator: Sketch 46 (44423) - http://www.bohemiancoding.com/sketch -->
    <title>web-13</title>
    <desc>Created with Sketch.</desc>
    <defs></defs>
    <g id="ALL" stroke="none" stroke-width="1" fill="none" fill-rule="evenodd" stroke-linecap="round" stroke-linejoin="round">
        <g id="Secondary" transform="translate(-8702.000000, -7802.000000)" stroke="#868E96" stroke-width="3.5">
            <g id="web-13" transform="translate(8704.000000, 7804.000000)">
                <rect id="Layer-1" x="0" y="0" width="100" height="10"></rect>
                <rect id="Layer-2" x="5" y="10" width="90" height="72"></rect>
                <path d="M0,82 L100,82" id="Layer-3"></path>
                <path d="M50,82 L50,92" id="Layer-4"></path>
                <circle id="Layer-5" cx="50" cy="95" r="5"></circle>
                <circle id="Layer-6" cx="42" cy="61" r="5"></circle>
                <circle id="Layer-7" cx="60" cy="38" r="5"></circle>
                <circle id="Layer-8" cx="74" cy="57" r="5"></circle>
                <circle id="Layer-9" cx="26" cy="33" r="5"></circle>
                <path d="M13.5145919,46.1582545 L22.6916158,36.7490256 C23.5731694,37.5275601 24.7314126,38 26,38 C27.0650561,38 28.0523347,37.666995 28.8633969,37.099424 L28.8633969,37.099424 L39.9036607,56.4593605 C40.5412282,56.1645141 41.2514019,56 42,56 C43.1281655,56 44.1690632,56.3736383 45.0056977,57.0039199 L56.6979474,41.7546078 C57.5787118,42.5298178 58.7344474,43 60,43 C61.2661854,43 62.422444,42.5293475 63.3033736,41.7534447 L71.3288515,52.7725418 C72.101593,52.2832556 73.0177176,52 74,52 C75.0927323,52 76.1035924,52.3505366 76.9262662,52.9452957 L86.5286223,41.5299481" id="Layer-10"></path>
            </g>
        </g>
    </g>
</svg>