<?xml version="1.0" encoding="UTF-8"?>
<svg width="104px" height="104px" viewBox="0 0 104 104" version="1.1" xmlns="http://www.w3.org/2000/svg" xmlns:xlink="http://www.w3.org/1999/xlink">
    <!-- Generator: Sketch 46 (44423) - http://www.bohemiancoding.com/sketch -->
    <title>web-24</title>
    <desc>Created with Sketch.</desc>
    <defs></defs>
    <g id="ALL" stroke="none" stroke-width="1" fill="none" fill-rule="evenodd" stroke-linecap="round" stroke-linejoin="round">
        <g id="Secondary" transform="translate(-2507.000000, -8103.000000)" stroke="#868E96" stroke-width="3.5">
            <g id="web-24" transform="translate(2509.000000, 8105.000000)">
                <circle id="Layer-1" cx="50" cy="50" r="45"></circle>
                <path d="M40.4106877,40.1444767 C39.987112,40.4109731 39.1891548,42.0836881 39.5501585,43.5513087 C40.0870395,45.733939 41.9967111,46.5857924 41.9967111,46.5857924 C41.9967111,46.5857924 44.9842894,50.6162307 44.9842894,52.9601522 C44.9842894,55.3040737 44.9842894,56.214696 44.1836641,58.170131 C43.3830388,60.1255661 27.6671929,62.4696075 27,73.9974827 L49.8744289,73.9974827 L73,74 C72.3328071,62.4721248 56.6169612,60.1280834 55.8163359,58.1726483 C55.0157106,56.2172132 55.0157106,55.306591 55.0157106,52.9626695 C55.0157106,50.618748 58.0032889,46.5883097 58.0032889,46.5883097 C58.0032889,46.5883097 59.9129605,45.7364563 60.4498415,43.5538259 C60.8108452,42.0862054 60.012888,40.4134904 59.5893123,40.146994 C60.7215362,36.6171591 62.9828306,24.4481394 50.1255711,24.0095447 C50.0684189,24.0012529 50.0115618,24.002733 49.9549951,24.0044388 C37.0171694,24.4456222 39.2784638,36.6146418 40.4106877,40.1444767 Z" id="Layer-2"></path>
                <path d="M50,0 L50,10" id="Layer-4"></path>
                <path d="M50,90 L50,100" id="Layer-5"></path>
                <path d="M100,50 L90,50" id="Layer-6"></path>
                <path d="M10,50 L0,50" id="Layer-7"></path>
            </g>
        </g>
    </g>
</svg>