<?xml version="1.0" encoding="UTF-8"?>
<svg width="104px" height="104px" viewBox="0 0 104 104" version="1.1" xmlns="http://www.w3.org/2000/svg" xmlns:xlink="http://www.w3.org/1999/xlink">
    <!-- Generator: Sketch 46 (44423) - http://www.bohemiancoding.com/sketch -->
    <title>web-4</title>
    <desc>Created with Sketch.</desc>
    <defs></defs>
    <g id="ALL" stroke="none" stroke-width="1" fill="none" fill-rule="evenodd" stroke-linecap="round" stroke-linejoin="round">
        <g id="Secondary" transform="translate(-6012.000000, -7802.000000)" stroke="#868E96" stroke-width="3.5">
            <g id="web-4" transform="translate(6014.000000, 7804.000000)">
                <path d="M39.7270452,78.9542689 C61.3916426,78.9542689 78.9542689,61.3916426 78.9542689,39.7270452 C78.9542689,18.0624478 61.3916426,0.499821508 39.7270452,0.499821508 C18.0624478,0.499821508 0.499821508,18.0624478 0.499821508,39.7270452 C0.499821508,61.3916426 18.0624478,78.9542689 39.7270452,78.9542689 L39.7270452,78.9542689 Z" id="Layer-1"></path>
                <path d="M39.7270452,78.9542689 C61.3916426,78.9542689 78.9542689,61.3916426 78.9542689,39.7270452 C78.9542689,18.0624478 61.3916426,0.499821508 39.7270452,0.499821508 C18.0624478,0.499821508 0.499821508,18.0624478 0.499821508,39.7270452 C0.499821508,61.3916426 18.0624478,78.9542689 39.7270452,78.9542689 L39.7270452,78.9542689 Z" id="Layer-2"></path>
                <path d="M98.5678807,98.5678807 L68.1509691,68.1509691" id="Layer-3"></path>
                <path d="M73.8891838,78.0864182 C72.7077292,76.9049636 72.7117198,74.9854565 73.8927188,73.8044575 L73.8927188,73.8044575 C75.0761257,72.6210506 76.9987906,72.6250337 78.1746795,73.8009226 L98.860306,94.4865491 C100.041761,95.6680038 100.03777,97.5875109 98.8567711,98.7685098 L98.8567711,98.7685098 C97.6733641,99.9519168 95.7506992,99.9479336 94.5748104,98.7720448 L73.8891838,78.0864182 L73.8891838,78.0864182 Z" id="Layer-4"></path>
                <path d="M21.8236611,30.1257849 C21.0598201,31.5367646 20.4602808,33.0343739 20.0443305,34.5861186 L16.4264255,34.9683302 C15.2444082,35.0937945 14.3717733,36.0852917 14.3770704,37.2686166 L14.4322574,42.7867463 C14.444158,43.9766747 15.3433389,44.9792891 16.5281024,45.1284237 L20.1282248,45.5828232 C20.5824921,47.2152479 21.2323771,48.7841241 22.0643478,50.2633629 L19.8113979,53.1238308 C19.0819466,54.0513857 19.1737425,55.3859363 20.0189848,56.2311787 L23.9612479,60.1734418 C24.8064903,61.0186842 26.1411056,61.1104153 27.0685958,60.3810287 L29.8252393,58.2054894 C31.3838503,59.1297778 33.0449781,59.8458941 34.7758668,60.3469735 L35.2160132,63.8292798 C35.3651478,65.0140433 36.3742995,65.9066869 37.5577553,65.9250601 L43.075885,65.9802471 C44.2658134,65.9921477 45.2507071,65.1129093 45.3761714,63.9308921 L45.7472685,60.5089983 C47.45573,60.0684003 49.096589,59.4180597 50.6242077,58.5507866 L53.2404179,60.6362369 C54.1828165,61.3844551 55.5157318,61.3192713 56.3442349,60.4907682 L60.2084253,56.6265777 C61.0369285,55.7980746 61.1020462,54.4650933 60.3538941,53.5227608 L58.301461,50.9395678 C59.1689297,49.4380353 59.826266,47.8299334 60.2803338,46.1609619 L63.4737221,45.8202665 C64.6557393,45.6948022 65.5283743,44.703305 65.5230772,43.5199801 L65.4680209,38.0149266 C65.4561204,36.8249981 64.5570042,35.822319 63.3722407,35.6731845 L60.2630619,35.2825316 C59.7810082,33.4929965 59.0643028,31.7794981 58.1264812,30.1685178 L60.0824725,27.68425 C60.8119238,26.7566951 60.7201279,25.4221445 59.8748856,24.5769021 L55.9326224,20.634639 C55.0873801,19.7893966 53.7528295,19.6976008 52.8252745,20.4270521 L50.3410068,22.3830433 C48.6904704,21.4186112 46.9246028,20.6883725 45.0827631,20.2057957 L44.6778572,16.978801 C44.5287226,15.7940375 43.5195708,14.901394 42.3361151,14.8830207 L36.8179854,14.8278337 C35.628057,14.8159331 34.6431633,15.6951715 34.517699,16.8771888 L34.1529437,20.2795337 C32.4709608,20.7464808 30.8630544,21.4299034 29.3683222,22.3171177 L26.6663978,20.1588985 C25.7240653,19.4107464 24.391084,19.4758641 23.5625808,20.3043673 L19.6983904,24.1685577 C18.8698873,24.9970608 18.8047695,26.3300421 19.5529216,27.2723747 L21.8236611,30.1257849 L21.8236611,30.1257849 Z" id="Layer-5"></path>
                <ellipse id="Layer-6" cx="39.9432926" cy="40.4040404" rx="5.52897395" ry="5.41927209"></ellipse>
            </g>
        </g>
    </g>
</svg>