<?xml version="1.0" encoding="UTF-8"?>
<svg width="104px" height="104px" viewBox="0 0 104 104" version="1.1" xmlns="http://www.w3.org/2000/svg" xmlns:xlink="http://www.w3.org/1999/xlink">
    <!-- Generator: Sketch 46 (44423) - http://www.bohemiancoding.com/sketch -->
    <title>web-21</title>
    <desc>Created with Sketch.</desc>
    <defs></defs>
    <g id="ALL" stroke="none" stroke-width="1" fill="none" fill-rule="evenodd" stroke-linecap="round" stroke-linejoin="round">
        <g id="Secondary" transform="translate(-1606.000000, -8103.000000)" stroke="#868E96" stroke-width="3.5">
            <g id="web-21" transform="translate(1608.000000, 8105.000000)">
                <path d="M56.2660405,39.3997232 L56.0063161,39.3997232 C52.6882172,39.3997232 50,36.711014 50,33.3943232 L50,6.00539992 C50,2.67712742 52.6891193,0 56.0063161,0 L93.9936839,0 C97.3117828,0 100,2.68870913 100,6.00539992 L100,33.3943232 C100,36.7225957 97.3108807,39.3997232 93.9936839,39.3997232 L64.3166244,39.3997232 C62.6825122,48.1500015 55.2460524,48.1500018 55.2460524,48.1500015 C55.2460524,48.1500012 56.9350506,44.2889847 56.2660405,39.3997232 L56.2660405,39.3997232 Z" id="Layer-1"></path>
                <circle id="Layer-2" cx="63" cy="20" r="4"></circle>
                <circle id="Layer-3" cx="76" cy="20" r="4"></circle>
                <circle id="Layer-4" cx="89" cy="20" r="4"></circle>
                <path d="M56.2660405,39.3997232 L56.0063161,39.3997232 C52.6882172,39.3997232 50,36.711014 50,33.3943232 L50,11.7962106 C47.6874704,11.317255 45.2923505,11.0654873 42.8392149,11.0654873 C37.5978556,11.0654873 32.538488,12.1906953 27.8249045,14.4229629 C15.5040704,20.1397458 7.51463736,32.5896286 7.51463736,46.1647194 L7.51463736,51.3007497 L0.871942452,63.9321176 C-0.220007395,66.0191971 -0.292804052,68.1425736 0.689950811,69.7577916 C1.67270567,71.3730096 3.58361791,72.298584 5.94950924,72.298584 L7.51463736,72.298584 L7.51463736,83.0062091 C7.51463736,87.7792691 11.4092585,91.6630517 16.1956386,91.6630517 C16.2684353,91.6630517 16.3594311,91.6630517 16.4322278,91.6449032 L24.2032709,90.4833981 L24.22147,98.2872605 C24.22147,99.1946863 24.9676357,99.9387755 25.877594,99.9387755 L65.4789751,99.9387755 C66.3889333,99.9387755 67.135099,99.1946863 67.135099,98.2872605 L67.135099,71.4274552 C74.0507814,64.8395434 78,55.6382453 78,46.0921253 C77.9978437,43.8041548 77.7746819,41.5666321 77.3506766,39.3997232 L64.3166244,39.3997232 C62.6825122,48.1500015 55.2460524,48.1500018 55.2460524,48.1500015 C55.2460524,48.1500012 56.9350506,44.2889847 56.2660405,39.3997232 L56.2660405,39.3997232 Z" id="Layer-5"></path>
            </g>
        </g>
    </g>
</svg>