<?xml version="1.0" encoding="UTF-8"?>
<svg width="104px" height="104px" viewBox="0 0 104 104" version="1.1" xmlns="http://www.w3.org/2000/svg" xmlns:xlink="http://www.w3.org/1999/xlink">
    <!-- Generator: Sketch 46 (44423) - http://www.bohemiancoding.com/sketch -->
    <title>web-20</title>
    <desc>Created with Sketch.</desc>
    <defs></defs>
    <g id="ALL" stroke="none" stroke-width="1" fill="none" fill-rule="evenodd" stroke-linecap="round" stroke-linejoin="round">
        <g id="Secondary" transform="translate(-1306.000000, -8103.000000)" stroke="#868E96" stroke-width="3.5">
            <g id="web-20" transform="translate(1308.000000, 8105.000000)">
                <rect id="Layer-1" x="0" y="0" width="100" height="100" rx="3"></rect>
                <rect id="Layer-2" x="0" y="0" width="100" height="100" rx="3"></rect>
                <path d="M12,27 L88,27" id="Layer-3"></path>
                <path d="M12,39 L88,39" id="Layer-4"></path>
                <path d="M12,51 L39,51" id="Layer-5"></path>
                <path d="M86,50 L88,50" id="Layer-6"></path>
                <path d="M86,62 L88,62" id="Layer-7"></path>
                <path d="M86,74 L88,74" id="Layer-8"></path>
                <path d="M62.4,78.8 C71.4574699,78.8 78.8,71.4574699 78.8,62.4 C78.8,53.3425301 71.4574699,46 62.4,46 C53.3425301,46 46,53.3425301 46,62.4 C46,71.4574699 53.3425301,78.8 62.4,78.8 Z" id="Layer-9"></path>
                <path d="M62.4,78.8 C71.4574699,78.8 78.8,71.4574699 78.8,62.4 C78.8,53.3425301 71.4574699,46 62.4,46 C53.3425301,46 46,53.3425301 46,62.4 C46,71.4574699 53.3425301,78.8 62.4,78.8 Z" id="Layer-10"></path>
                <path d="M87,87 L74.2833888,74.2833888" id="Layer-11"></path>
                <path d="M12,63 L35,63" id="Layer-12"></path>
                <path d="M12,75 L39,75" id="Layer-13"></path>
                <path d="M12,87 L49,87" id="Layer-14"></path>
                <path d="M0,3.00947762 C0,1.34738902 1.33801252,0 2.99280137,0 L97.0071986,0 C98.6600772,0 100,1.33663106 100,3.00947762 L100,16 L0,16 L0,3.00947762 Z" id="Layer-15"></path>
                <path d="M7,8 L22.2800007,8" id="Layer-16"></path>
            </g>
        </g>
    </g>
</svg>