<?xml version="1.0" encoding="UTF-8"?>
<svg width="104px" height="104px" viewBox="0 0 104 104" version="1.1" xmlns="http://www.w3.org/2000/svg" xmlns:xlink="http://www.w3.org/1999/xlink">
    <!-- Generator: Sketch 46 (44423) - http://www.bohemiancoding.com/sketch -->
    <title>web-19</title>
    <desc>Created with Sketch.</desc>
    <defs></defs>
    <g id="ALL" stroke="none" stroke-width="1" fill="none" fill-rule="evenodd" stroke-linecap="round" stroke-linejoin="round">
        <g id="Secondary" transform="translate(-1006.000000, -8103.000000)" stroke="#868E96" stroke-width="3.5">
            <g id="web-19" transform="translate(1008.000000, 8105.000000)">
                <rect id="Layer-1" x="0" y="0" width="100" height="100" rx="3"></rect>
                <rect id="Layer-2" x="0" y="0" width="100" height="100" rx="3"></rect>
                <path d="M10,88 L40.1108398,88 M60,88 L90,88" id="Layer-3"></path>
                <rect id="Layer-4" x="71" y="65" width="8" height="8" rx="4"></rect>
                <rect id="Layer-5" x="20" y="65" width="8" height="8" rx="4"></rect>
                <ellipse id="Layer-6" cx="50" cy="58.5" rx="12" ry="13.5"></ellipse>
                <path d="M50,36 L50,43" id="Layer-7"></path>
                <path d="M46,56 L54,56" id="Layer-8"></path>
                <path d="M48,88 L52,88" id="Layer-9"></path>
                <path d="M40.020732,51 L25,51 L40.020732,51 L40.020732,51 L40.020732,51 L40.020732,51 L40.020732,51 L40.020732,51 Z M59.979268,51 L75,51 L59.979268,51 L59.979268,51 L59.979268,51 L59.979268,51 L59.979268,51 L59.979268,51 Z" id="Layer-10"></path>
                <path d="M39.4799762,65 L10,65 L39.4799762,65 L39.4799762,65 L39.4799762,65 L39.4799762,65 L39.4799762,65 Z M60.5200238,65 L90,65 L60.5200238,65 L60.5200238,65 L60.5200238,65 L60.5200238,65 L60.5200238,65 Z" id="Layer-11"></path>
                <path d="M0,3.00947762 C0,1.34738902 1.33801252,0 2.99280137,0 L97.0071986,0 C98.6600772,0 100,1.33663106 100,3.00947762 L100,16 L0,16 L0,3.00947762 Z" id="Layer-12"></path>
                <path d="M7,8 L22.2800007,8" id="Layer-13"></path>
            </g>
        </g>
    </g>
</svg>