<?xml version="1.0" encoding="UTF-8"?>
<svg width="104px" height="104px" viewBox="0 0 104 104" version="1.1" xmlns="http://www.w3.org/2000/svg" xmlns:xlink="http://www.w3.org/1999/xlink">
    <!-- Generator: Sketch 46 (44423) - http://www.bohemiancoding.com/sketch -->
    <title>web-30</title>
    <desc>Created with Sketch.</desc>
    <defs></defs>
    <g id="ALL" stroke="none" stroke-width="1" fill="none" fill-rule="evenodd" stroke-linecap="round" stroke-linejoin="round">
        <g id="Secondary" transform="translate(-4307.000000, -8103.000000)" stroke="#868E96" stroke-width="3.5">
            <g id="web-30" transform="translate(4309.000000, 8105.000000)">
                <path d="M17.3023834,55.9841569 C16.7558888,56.3306086 15.7263696,58.5051776 16.1921342,60.413119 C16.8848146,63.2505901 19.3486607,64.3580197 19.3486607,64.3580197 C19.3486607,64.3580197 23.2032151,69.5976847 23.2032151,72.6448381 C23.2032151,75.6919915 23.2032151,76.875822 22.1702534,79.4179338 C21.1372918,81.9600457 0.860808036,85.0073548 0,99.9938652 L29.5124417,99.9938652 L59.3489056,99.9971378 C58.4880975,85.0106274 38.2116138,81.9633182 37.1786521,79.4212063 C36.1456905,76.8790945 36.1456905,75.695264 36.1456905,72.6481107 C36.1456905,69.6009573 40.0002449,64.3612922 40.0002449,64.3612922 C40.0002449,64.3612922 42.464091,63.2538626 43.1567714,60.4163916 C43.622536,58.5084501 42.5930168,56.3338811 42.0465221,55.9874294 C43.5073101,51.3985607 46.4248177,35.5785473 29.8364638,35.0083638 C29.7627265,34.9975842 29.6893697,34.9995084 29.6163877,35.001726 C12.9240879,35.5752748 15.8415954,51.3952881 17.3023834,55.9841569 Z" id="Layer-1"></path>
                <path d="M75.2812602,70.9844518 C68.2412014,70.9844518 67.5115426,64.9834094 67.5874836,62.5957763 L82.979257,62.5957763 C82.8543492,64.9157756 82.3213191,70.9844518 75.2812602,70.9844518 L75.2812602,70.9844518 Z M67.5874836,55.4566226 C67.265721,51.371941 58.3116883,47.2244175 58.3116883,36.9038885 C58.3116883,25.8959934 66.4703794,20.0590472 75.3623098,19.8382353 C84.2568073,20.0600185 92.4148567,25.8959934 92.4148567,36.9038885 C92.4154984,47.2244175 83.3968355,51.3275682 82.979257,55.4566216 L67.5874836,55.4566226 L67.5874836,55.4566226 Z" id="Layer-2"></path>
                <path d="M74.9350649,0 L74.9350649,10.4411765" id="Layer-3"></path>
                <path d="M99.9439666,6.26470588 L92.5974026,13.6477326" id="Layer-4"></path>
                <path d="M50,6.26470588 L57.346564,13.6477326" id="Layer-5"></path>
            </g>
        </g>
    </g>
</svg>