<?xml version="1.0" encoding="UTF-8"?>
<svg width="104px" height="104px" viewBox="0 0 104 104" version="1.1" xmlns="http://www.w3.org/2000/svg" xmlns:xlink="http://www.w3.org/1999/xlink">
    <!-- Generator: Sketch 46 (44423) - http://www.bohemiancoding.com/sketch -->
    <title>web-36</title>
    <desc>Created with Sketch.</desc>
    <defs></defs>
    <g id="ALL" stroke="none" stroke-width="1" fill="none" fill-rule="evenodd" stroke-linecap="round" stroke-linejoin="round">
        <g id="Secondary" transform="translate(-6107.000000, -8103.000000)" stroke="#868E96" stroke-width="3.5">
            <g id="web-36" transform="translate(6109.000000, 8105.000000)">
                <circle id="Layer-1" cx="75" cy="25" r="25"></circle>
                <circle id="Layer-2" cx="75" cy="25" r="25"></circle>
                <path d="M84.991378,15.8492424 L65.8994949,34.9411255" id="Layer-3"></path>
                <path d="M84.991378,34.9411255 L65.8994949,15.8492424" id="Layer-4"></path>
                <path d="M50.7246464,19 L3.83245305,19 C0.538687645,19 -1.18381722,22.8833209 1.05123787,25.2916465 L30.7792351,57.2748776 C31.6362863,58.1998746 32.1068242,59.4082041 32.1068242,60.6582001 L32.1068242,97.4914157 C32.1068242,99.7081586 34.8040148,100.833155 36.4004827,99.2747433 L46.7607193,87.4997809 C48.1471256,85.8497862 48.9117498,85.0330388 48.9117498,83.399794 L48.9117498,60.6665334 C48.9117498,59.4165374 49.3906901,58.2082079 50.2393389,57.2831276 L60.9930148,45.7106034 C54.3594026,41.2153907 50,33.6167919 50,25 C50,22.9317263 50.2511608,20.9221143 50.7246464,19 Z" id="Layer-5"></path>
                <path d="M32.1068242,64.6582001 L32.1068242,97.4914157 C32.1068242,99.7081586 34.8040148,100.833155 36.4004827,99.2747433 L46.7607193,87.4997809 C48.1471256,85.8497862 48.9117498,85.0330388 48.9117498,83.399794 L48.9117498,64.6665334 L32.1068242,64.6582001 Z" id="Layer-6"></path>
            </g>
        </g>
    </g>
</svg>