<?xml version="1.0" encoding="UTF-8"?>
<svg width="104px" height="104px" viewBox="0 0 104 104" version="1.1" xmlns="http://www.w3.org/2000/svg" xmlns:xlink="http://www.w3.org/1999/xlink">
    <!-- Generator: Sketch 46 (44423) - http://www.bohemiancoding.com/sketch -->
    <title>web-9</title>
    <desc>Created with Sketch.</desc>
    <defs></defs>
    <g id="ALL" stroke="none" stroke-width="1" fill="none" fill-rule="evenodd" stroke-linecap="round" stroke-linejoin="round">
        <g id="Secondary" transform="translate(-7502.000000, -7802.000000)" stroke="#868E96" stroke-width="3.5">
            <g id="web-9" transform="translate(7504.000000, 7804.000000)">
                <rect id="Layer-1" x="50" y="19" width="50" height="81" rx="3"></rect>
                <path d="M76,19 L76,2.99280137 C76,1.33801252 74.6556461,0 72.9973016,0 L3.00269837,0 C1.3513777,0 0,1.33992281 0,2.99280137 L0,97.0071986 C0,98.6619875 1.34435385,100 3.00269837,100 L50.0000006,100 C50.0000002,99.9993414 50,99.9986827 50,99.998024 L50,22.001976 C50,20.3440304 51.3373792,19 52.9965324,19 L76,19 L76,19 Z" id="Layer-2"></path>
                <ellipse id="Layer-3" cx="75" cy="88.0176" rx="4" ry="4.0176"></ellipse>
                <path d="M68.5483871,25.48 L75,25.48" id="Layer-4"></path>
                <path d="M79.8387097,25.48 L81.4516129,25.48" id="Layer-5"></path>
                <path d="M34,8 L42,8" id="Layer-6"></path>
            </g>
        </g>
    </g>
</svg>