<?xml version="1.0" encoding="UTF-8"?>
<svg width="103px" height="104px" viewBox="0 0 103 104" version="1.1" xmlns="http://www.w3.org/2000/svg" xmlns:xlink="http://www.w3.org/1999/xlink">
    <!-- Generator: Sketch 46 (44423) - http://www.bohemiancoding.com/sketch -->
    <title>web-22</title>
    <desc>Created with Sketch.</desc>
    <defs></defs>
    <g id="ALL" stroke="none" stroke-width="1" fill="none" fill-rule="evenodd" stroke-linecap="round" stroke-linejoin="round">
        <g id="Secondary" transform="translate(-1906.000000, -8104.000000)" stroke="#868E96" stroke-width="3.5">
            <g id="web-22" transform="translate(1908.000000, 8105.000000)">
                <path d="M53.8149479,17.0161556 C53.006653,18.4897589 52.3680946,20.0516023 51.9196493,21.6677316 L48.1578471,22.1029921 C46.9288106,22.245811 46.011954,23.284867 46.0049373,24.5138786 L46.0038811,30.2447332 C46.0036533,31.4805336 46.9269862,32.5123925 48.1559702,32.6547583 L51.8904518,33.0886372 C52.3450097,34.7793591 53.0034194,36.4020066 53.8519018,37.9296254 L51.4816008,40.9245016 C50.7141392,41.895629 50.7953652,43.2807968 51.6643394,44.149771 L55.7172891,48.2027208 C56.5862633,49.0716949 57.971499,49.152853 58.9425586,48.3854593 L61.828778,46.0966597 C63.4378606,47.0401886 65.155625,47.766414 66.948122,48.2685519 L67.3684431,51.8808139 C67.510809,53.1097979 68.5495271,54.0262716 69.7785362,54.0328352 L75.5093908,54.0317789 C76.7451911,54.0315511 77.7774584,53.1079057 77.9202773,51.8788691 L78.34192,48.3207728 C80.1210849,47.8450691 81.8322528,47.1522302 83.4280981,46.235271 L86.1233784,48.3736595 C87.0942909,49.140831 88.4794209,49.0590265 89.3487154,48.189732 L93.4031595,44.1352879 C94.272454,43.2659934 94.3541906,41.8807955 93.5870869,40.9099509 L91.4826428,38.2486149 C92.3995291,36.6798622 93.0992877,35.0026435 93.588564,33.2643526 L96.9090002,32.8767042 C98.1380367,32.7338854 99.0548933,31.6948293 99.06191,30.4658177 L99.0629637,24.7485434 C99.0631915,23.512743 98.1399265,22.4808162 96.9109425,22.3384503 L93.6857081,21.9655886 C93.2039518,20.1119769 92.4776685,18.3398237 91.5206373,16.6764906 L93.5785205,14.0754984 C94.3459822,13.104371 94.2647561,11.7192032 93.395782,10.850229 L89.3428322,6.79727925 C88.4738581,5.9283051 87.0886902,5.84707906 86.1175628,6.61454068 L83.5165707,8.67242396 C81.812434,7.68817184 79.9860303,6.94838628 78.0780976,6.46663999 L77.6916782,3.11918608 C77.5493124,1.89020208 76.5105942,0.973728432 75.2815852,0.967164841 L69.5507306,0.968221105 C68.3149302,0.968448878 67.282663,1.89209435 67.1398441,3.12113091 L66.7249952,6.65885563 C64.9730537,7.16164681 63.2957621,7.88849792 61.7338636,8.82582123 L58.9503257,6.61275781 C57.9794811,5.84565412 56.5942832,5.92739077 55.7249887,6.7966853 L51.6705446,10.8511293 C50.8012501,11.7204239 50.7195134,13.1056218 51.4866171,14.0764664 L53.8149479,17.0161556 L53.8149479,17.0161556 Z" id="Layer-1"></path>
                <ellipse id="Layer-2" cx="72.5263158" cy="27.5" rx="5.68421053" ry="5.68609023"></ellipse>
                <path d="M77.4930611,53.0023418 C76.2226945,60.3644619 72.6077091,67.2142209 67.135099,72.4274552 L67.135099,99.2872605 C67.135099,100.194686 66.3889333,100.938776 65.4789751,100.938776 L25.877594,100.938776 C24.9676357,100.938776 24.22147,100.194686 24.22147,99.2872605 L24.2032709,91.4833981 L16.4322278,92.6449032 C16.3594311,92.6630517 16.2684353,92.6630517 16.1956386,92.6630517 C11.4092585,92.6630517 7.51463736,88.7792691 7.51463736,84.0062091 L7.51463736,73.298584 L5.94950924,73.298584 C3.58361791,73.298584 1.67270567,72.3730096 0.689950811,70.7577916 C-0.292804052,69.1425736 -0.220007395,67.0191971 0.871942452,64.9321176 L7.51463736,52.3007497 L7.51463736,47.1647194 C7.51463736,33.5896286 15.5040704,21.1397458 27.8249045,15.4229629 C32.538488,13.1906953 37.5978556,12.0654873 42.8392149,12.0654873 C45.6490474,12.0654873 48.382766,12.3957943 51.0034422,13.0194718 C51.0744974,13.394513 51.2348333,13.7578094 51.4866171,14.0764664 L53.8149479,17.0161556 C53.006653,18.4897589 52.3680946,20.0516023 51.9196493,21.6677316 L48.1578471,22.1029921 C46.9288106,22.245811 46.011954,23.284867 46.0049373,24.5138786 L46.0038811,30.2447332 C46.0036533,31.4805336 46.9269862,32.5123925 48.1559702,32.6547583 L51.8904518,33.0886372 C52.3450097,34.7793591 53.0034194,36.4020066 53.8519018,37.9296254 L51.4816008,40.9245016 C50.7141392,41.895629 50.7953652,43.2807968 51.6643394,44.149771 L55.7172891,48.2027208 C56.5862633,49.0716949 57.971499,49.152853 58.9425586,48.3854593 L61.828778,46.0966597 C63.4378606,47.0401886 65.155625,47.766414 66.948122,48.2685519 L67.3684431,51.8808139 C67.510809,53.1097979 68.5495271,54.0262716 69.7785362,54.0328352 L75.5093908,54.0317789 C76.3249947,54.0316286 77.051945,53.6292614 77.4930611,53.0023418 L77.4930611,53.0023418 Z" id="Layer-3"></path>
            </g>
        </g>
    </g>
</svg>