<?xml version="1.0" encoding="UTF-8"?>
<svg width="104px" height="102px" viewBox="0 0 104 102" version="1.1" xmlns="http://www.w3.org/2000/svg" xmlns:xlink="http://www.w3.org/1999/xlink">
    <!-- Generator: Sketch 46 (44423) - http://www.bohemiancoding.com/sketch -->
    <title>web-39</title>
    <desc>Created with Sketch.</desc>
    <defs></defs>
    <g id="ALL" stroke="none" stroke-width="1" fill="none" fill-rule="evenodd" stroke-linecap="round" stroke-linejoin="round">
        <g id="Secondary" transform="translate(-7007.000000, -8103.000000)" stroke="#868E96" stroke-width="3.5">
            <g id="web-39" transform="translate(7009.000000, 8105.000000)">
                <path d="M60.1844828,91.1 C59.8258621,92.1005 58.8775862,92.825 57.7586207,92.825 L43.9655172,92.825 C42.8465517,92.825 41.8965517,92.1005 41.5396552,91.1 L0.996551724,91.1 C0.446551724,91.1 0,91.546775 0,92.09705 L0,97.00295 C0,97.553225 0.446551724,98 0.996551724,98 L99.0034483,98 C99.5534483,98 100,97.553225 100,97.00295 L100,92.09705 C100,91.546775 99.5534483,91.1 99.0034483,91.1 L60.1844828,91.1 L60.1844828,91.1 Z" id="Layer-1"></path>
                <polygon id="Layer-2" points="57.5392719 50.4761016 71.3304917 50.4761016 50.4575147 71.3490785 29.5845377 50.4761016 42.8988014 50.4761016 42.8988014 0.38796223 57.5392719 0.38796223"></polygon>
                <path d="M42.8988014,28 L10.4603448,28 C7.53965517,28 5.17241379,30.368425 5.17241379,33.290575 L5.17241379,91.1 L41.5396552,91.1 C41.8982759,92.1005 42.8465517,92.825 43.9655172,92.825 L57.7586207,92.825 C58.8775862,92.825 59.8275862,92.1005 60.1844828,91.1 L94.8275862,91.1 L94.8275862,33.290575 C94.8275862,30.368425 92.4603448,28 89.5396552,28 L57.5392719,28 L57.5392719,50.4761016 L71.3304917,50.4761016 L50.4575147,71.3490785 L29.5845377,50.4761016 L42.8988014,50.4761016 L42.8988014,28 Z" id="Layer-3"></path>
            </g>
        </g>
    </g>
</svg>