<?xml version="1.0" encoding="UTF-8"?>
<svg width="104px" height="104px" viewBox="0 0 104 104" version="1.1" xmlns="http://www.w3.org/2000/svg" xmlns:xlink="http://www.w3.org/1999/xlink">
    <!-- Generator: Sketch 46 (44423) - http://www.bohemiancoding.com/sketch -->
    <title>web-38</title>
    <desc>Created with Sketch.</desc>
    <defs></defs>
    <g id="ALL" stroke="none" stroke-width="1" fill="none" fill-rule="evenodd" stroke-linecap="round" stroke-linejoin="round">
        <g id="Secondary" transform="translate(-6707.000000, -8103.000000)" stroke="#868E96" stroke-width="3.5">
            <g id="web-38" transform="translate(6709.000000, 8105.000000)">
                <path d="M36.1474629,30 L10.4603448,30 C7.53965517,30 5.17241379,32.368425 5.17241379,35.290575 L5.17241379,93.1 L41.5396552,93.1 C41.8982759,94.1005 42.8465517,94.825 43.9655172,94.825 L57.7586207,94.825 C58.8775862,94.825 59.8275862,94.1005 60.1844828,93.1 L94.8275862,93.1 L94.8275862,35.290575 C94.8275862,32.368425 92.4603448,30 89.5396552,30 L64.7364767,30 L64.7364767,41.1449794 C64.7364767,43.7249295 65.8408219,45.0802582 67.3685622,46.9546401 C69.3806315,49.4236042 71.8839396,52.4957526 71.8839396,59.0483265 L71.8839396,62.6290378 C71.8839396,63.617211 71.0834254,64.4192886 70.0971785,64.4192886 L64.7366861,64.4192886 L64.7366861,67.2095394 L57.1631641,67.2095394 L57.1631641,64.4192886 L43.7209849,64.4194984 L43.7209849,67.2097492 L36.1474629,67.2097492 L36.1474629,64.4194984 L30.7869704,64.4194984 C29.8007236,64.4194984 29.0002094,63.6174208 29,62.6292476 L29,59.0485363 C29,52.4959624 31.5033081,49.4238141 33.5153773,46.9548499 C35.0431177,45.0802582 36.1474629,43.7251393 36.1474629,41.1451892 L36.1474629,30 Z" id="Layer-1"></path>
                <path d="M84,93.6603285 C84,93.6603285 79.8255316,85.3315503 74.6942506,85.3315503 C73.795235,85.3315503 72.8964375,85.4547242 72.0273018,85.6946302 C70.7952447,83.4925314 68.2473795,82 65.3887193,82 C62.8018138,82 60.5237405,83.1692732 59.1948463,84.9799875 C56.8349848,83.0792841 53.7584409,82 50.4995638,82 C47.2406867,82 44.1643609,83.0794793 41.8042813,84.9799875 C40.4762595,83.1692732 38.1984043,82 35.6112807,82 C32.7526205,82 30.2047553,83.4925314 28.9726982,85.6946302 L28.9726982,85.6946302 C28.1035625,85.4547242 27.2045469,85.3315503 26.3057494,85.3315503 C21.1746865,85.3315503 17,93.6603285 17,93.6603285" id="Layer-2"></path>
                <path d="M60.1844828,93.1 C59.8258621,94.1005 58.8775862,94.825 57.7586207,94.825 L43.9655172,94.825 C42.8465517,94.825 41.8965517,94.1005 41.5396552,93.1 L0.996551724,93.1 C0.446551724,93.1 0,93.546775 0,94.09705 L0,99.00295 C0,99.553225 0.446551724,100 0.996551724,100 L99.0034483,100 C99.5534483,100 100,99.553225 100,99.00295 L100,94.09705 C100,93.546775 99.5534483,93.1 99.0034483,93.1 L60.1844828,93.1 L60.1844828,93.1 Z" id="Layer-3"></path>
                <path d="M57.1631641,64.4192886 L57.1631641,67.2095394 L64.7366861,67.2095394 L64.7366861,64.4192886 L70.0971785,64.4192886 C71.0834254,64.4192886 71.8839396,63.617211 71.8839396,62.6290378 L71.8839396,59.0483265 C71.8839396,52.4957526 69.3806315,49.4236042 67.3685622,46.9546401 C65.8408219,45.0802582 64.7364767,43.7249295 64.7364767,41.1449794 L64.7364767,23.2418422 C64.7364767,15.4289805 60.8071939,11.4024373 60.7483541,11.3541825 L51.8141302,0.612258215 C51.1350647,-0.204086072 49.7484561,-0.204086072 49.0696,0.612258215 L40.2446799,11.2343849 C40.0767457,11.4026471 36.1474629,15.4291903 36.1474629,23.242052 L36.1474629,41.1451892 C36.1474629,43.7251393 35.0431177,45.0802582 33.5153773,46.9548499 C31.5033081,49.4238141 29,52.4959624 29,59.0485363 L29,62.6292476 C29.0002094,63.6174208 29.8007236,64.4194984 30.7869704,64.4194984 L36.1474629,64.4194984 L36.1474629,67.2097492 L43.7209849,67.2097492 L43.7209849,64.4194984 L57.1631641,64.4192886 Z" id="Layer-4"></path>
                <path d="M50.4357654,55.6084006 L50.4357654,80.5363949" id="Layer-5"></path>
                <circle id="Layer-6" cx="50.5" cy="27.5" r="6.5"></circle>
            </g>
        </g>
    </g>
</svg>