<?xml version="1.0" encoding="UTF-8"?>
<svg width="104px" height="104px" viewBox="0 0 104 104" version="1.1" xmlns="http://www.w3.org/2000/svg" xmlns:xlink="http://www.w3.org/1999/xlink">
    <!-- Generator: Sketch 46 (44423) - http://www.bohemiancoding.com/sketch -->
    <title>web-7</title>
    <desc>Created with Sketch.</desc>
    <defs></defs>
    <g id="ALL" stroke="none" stroke-width="1" fill="none" fill-rule="evenodd" stroke-linecap="round" stroke-linejoin="round">
        <g id="Secondary" transform="translate(-6902.000000, -7802.000000)" stroke="#868E96" stroke-width="3.5">
            <g id="web-7" transform="translate(6904.000000, 7804.000000)">
                <path d="M13.0140841,81.8270445 L5.99306484,81.8270445 C2.68768095,81.8270445 0,79.1405954 0,75.8266924 L0,6.00035205 C0,2.68760658 2.68318653,0 5.99306484,0 L94.0069352,0 C97.312319,0 100,2.68750566 100,6.0027119 L100,20.8015498 L100,75.8366386 C100,79.145897 97.3168135,81.8270445 94.0069352,81.8270445 L29.7345276,81.8270445 C26.3406023,100 10.8956473,100.000001 10.8956473,100 C10.8956473,99.9999994 14.4035666,91.9812737 13.0140841,81.8270445 L13.0140841,81.8270445 Z" id="Layer-1"></path>
                <path d="M72.7649125,31.2116709 C71.4874677,30.2950042 69.9943504,29.8116709 68.4348724,29.8116709 L57.435575,29.8116709 L57.435575,21.9116709 C57.435575,18.4116709 56.4069831,15.8783375 54.3829796,14.3950042 C51.1810726,12.0283375 46.8012618,13.3783375 46.6187697,13.4283375 C45.9883424,13.6283375 45.5735876,14.2116709 45.5735876,14.8616709 L45.5735876,23.9783375 C45.5735876,30.9950042 37.0959994,33.4950042 37.0959994,33.4950042 L37.0959994,61.5981002 C37.0959994,61.5981002 39.8333811,63.8450042 41.890565,63.8450042 L64.088242,63.8450042 C69.1150703,63.8450042 72.3169773,61.1950042 72.8976341,56.5783375 L75.7179667,38.5116709 C76.1659019,35.6950042 75.0045885,32.8283375 72.7649125,31.2116709 Z" id="Layer-2"></path>
                <rect id="Layer-3" x="24" y="32.5697674" width="13" height="31.4302326" rx="3"></rect>
            </g>
        </g>
    </g>
</svg>