<?xml version="1.0" encoding="UTF-8"?>
<svg width="104px" height="104px" viewBox="0 0 104 104" version="1.1" xmlns="http://www.w3.org/2000/svg" xmlns:xlink="http://www.w3.org/1999/xlink">
    <!-- Generator: Sketch 46 (44423) - http://www.bohemiancoding.com/sketch -->
    <title>web-26</title>
    <desc>Created with Sketch.</desc>
    <defs></defs>
    <g id="ALL" stroke="none" stroke-width="1" fill="none" fill-rule="evenodd" stroke-linecap="round" stroke-linejoin="round">
        <g id="Secondary" transform="translate(-3107.000000, -8103.000000)" stroke="#868E96" stroke-width="3.5">
            <g id="web-26" transform="translate(3109.000000, 8105.000000)">
                <rect id="Layer-1" x="0" y="0" width="100" height="70"></rect>
                <path d="M59,23 L91,23" id="Layer-2"></path>
                <path d="M59,35 L91,35" id="Layer-3"></path>
                <path d="M59,47 L79,47" id="Layer-4"></path>
                <path d="M20.6614676,27.2044017 C20.2931409,27.4389186 19.5992651,28.9109077 19.9131813,30.2024138 C20.3800343,32.1231285 22.0406183,32.8727596 22.0406183,32.8727596 C22.0406183,32.8727596 24.6385125,36.4195452 24.6385125,38.4821962 C24.6385125,40.5448471 24.6385125,41.3461947 23.9423166,43.0669775 C23.2461207,44.7877604 9.58016776,46.8505168 9,56.995047 L28.8908077,56.995047 L49,56.9972622 C48.4198322,46.852732 34.7538793,44.7899756 34.0576834,43.0691927 C33.3614875,41.3484099 33.3614875,40.5470623 33.3614875,38.4844114 C33.3614875,36.4217604 35.9593817,32.8749748 35.9593817,32.8749748 C35.9593817,32.8749748 37.6199657,32.1253437 38.0868187,30.204629 C38.4007349,28.9131229 37.7068591,27.4411338 37.3385324,27.2066169 C38.3230749,24.1003622 40.2894179,13.3916249 29.1091923,13.0056616 C29.0594947,12.9983647 29.0100537,12.9996673 28.9608653,13.0011684 C17.7105821,13.3894097 19.6769251,24.098147 20.6614676,27.2044017 Z" id="Layer-5"></path>
                <rect id="Layer-6" x="28" y="86" width="44" height="14" rx="7"></rect>
            </g>
        </g>
    </g>
</svg>