<?xml version="1.0" encoding="UTF-8"?>
<svg width="104px" height="104px" viewBox="0 0 104 104" version="1.1" xmlns="http://www.w3.org/2000/svg" xmlns:xlink="http://www.w3.org/1999/xlink">
    <!-- Generator: Sketch 46 (44423) - http://www.bohemiancoding.com/sketch -->
    <title>web-37</title>
    <desc>Created with Sketch.</desc>
    <defs></defs>
    <g id="ALL" stroke="none" stroke-width="1" fill="none" fill-rule="evenodd" stroke-linecap="round" stroke-linejoin="round">
        <g id="Secondary" transform="translate(-6407.000000, -8103.000000)" stroke="#868E96" stroke-width="3.5">
            <g id="web-37" transform="translate(6409.000000, 8105.000000)">
                <path d="M43.9655172,94.825 L57.7586207,94.825 C58.8775862,94.825 59.8275862,94.1005 60.1844828,93.1 L94.8275862,93.1 L94.8275862,35.290575 C94.8275862,32.368425 92.4603448,30 89.5396552,30 L10.4603448,30 C7.53965517,30 5.17241379,32.368425 5.17241379,35.290575 L5.17241379,93.1 L41.5396552,93.1 C41.8982759,94.1005 42.8465517,94.825 43.9655172,94.825 Z" id="Layer-1"></path>
                <path d="M60.1844828,93.1 C59.8258621,94.1005 58.8775862,94.825 57.7586207,94.825 L43.9655172,94.825 C42.8465517,94.825 41.8965517,94.1005 41.5396552,93.1 L0.996551724,93.1 C0.446551724,93.1 0,93.546775 0,94.09705 L0,99.00295 C0,99.553225 0.446551724,100 0.996551724,100 L99.0034483,100 C99.5534483,100 100,99.553225 100,99.00295 L100,94.09705 C100,93.546775 99.5534483,93.1 99.0034483,93.1 L60.1844828,93.1 L60.1844828,93.1 Z" id="Layer-2"></path>
                <path d="M35.0607211,69.1815167 L35.0607211,51.0898202 C35.0607211,48.760817 36.9446219,46.8603504 39.253324,46.8603504 L51,46.8603504 L51,85.9503394 C42.1530538,85.5590668 35.0607211,78.1994169 35.0607211,69.1815167 L35.0607211,69.1815167 Z" id="Layer-3"></path>
                <path d="M50.8146595,85.9503394 L50.8146595,46.8603504 L62.5613356,46.8603504 C64.8700376,46.8603504 66.7539385,48.7617233 66.7539385,51.0918371 L66.7539385,69.192161 C66.7539385,78.2143616 59.6616058,85.5775212 50.8146595,85.9503394 L50.8146595,85.9503394 Z" id="Layer-4"></path>
                <path d="M51.000111,36 C42.3229092,36 40.8568225,44.1680124 40.8568225,46.8603504 L61.1431775,46.8603504 C61.1431775,44.1684378 59.6773129,36 51.000111,36 Z" id="Layer-5"></path>
                <polyline id="Layer-6" points="66.9392789 58.6721936 78.0967742 58.6721936 78.0967742 47.7269967"></polyline>
                <polyline id="Layer-7" points="66.9392789 72.7445896 78.0967742 72.7445896 78.0967742 83.6897865"></polyline>
                <path d="M66.9392789,65.7083916 L78.0967742,65.7083916" id="Layer-8"></path>
                <polyline id="Layer-9" points="35.0607211 58.6721936 23.9032258 58.6721936 23.9032258 47.7269967"></polyline>
                <polyline id="Layer-10" points="35.0607211 72.7445896 23.9032258 72.7445896 23.9032258 83.6897865"></polyline>
                <path d="M35.0607211,65.7083916 L23.9032258,65.7083916" id="Layer-11"></path>
                <path d="M36,6 C36,6 40.2426046,-2.64648431e-16 51.0476967,0 C61.8527889,2.59276547e-16 66,6 66,6" id="Layer-12"></path>
                <path d="M42,12 C42,12 44.5455627,8 51.028618,8 C57.5116734,8 60,12 60,12" id="Layer-13"></path>
                <path d="M47,19 C47,19 48.1313612,17 51.0127191,17 C53.894077,17 55,19 55,19" id="Layer-14"></path>
            </g>
        </g>
    </g>
</svg>